<svg width="1477" height="192" viewBox="0 0 1477 192" fill="none" xmlns="http://www.w3.org/2000/svg">
<path d="M0 5C0 2.23857 2.23858 0 5 0H1462C1470.28 0 1477 6.71573 1477 15V166C1477 179.807 1465.81 191 1452 191H35C15.67 191 0 175.33 0 156V5Z" fill="#373538"/>
<path d="M90.136 54L84.216 37.488H88.504L90.712 44.496L92.568 50.576H92.792L94.648 44.496L96.856 37.488H100.984L95.064 54H90.136ZM117.868 54C116.865 54 116.086 53.7547 115.532 53.264C114.998 52.752 114.678 52.048 114.572 51.152H114.412C114.113 52.176 113.526 52.976 112.652 53.552C111.777 54.1067 110.7 54.384 109.42 54.384C107.756 54.384 106.433 53.9467 105.452 53.072C104.47 52.1973 103.98 50.9813 103.98 49.424C103.98 46.096 106.422 44.432 111.308 44.432H114.22V43.344C114.22 42.2987 113.964 41.5093 113.452 40.976C112.94 40.4427 112.108 40.176 110.956 40.176C109.91 40.176 109.068 40.3787 108.428 40.784C107.788 41.1893 107.244 41.712 106.796 42.352L104.46 40.368C104.972 39.4507 105.793 38.6827 106.924 38.064C108.076 37.424 109.558 37.104 111.372 37.104C113.548 37.104 115.244 37.616 116.46 38.64C117.697 39.6427 118.316 41.1467 118.316 43.152V50.928H120.267V54H117.868ZM110.796 51.568C111.777 51.568 112.588 51.344 113.228 50.896C113.889 50.4267 114.22 49.7973 114.22 49.008V46.8H111.404C109.164 46.8 108.044 47.504 108.044 48.912V49.552C108.044 50.2133 108.289 50.7147 108.78 51.056C109.27 51.3973 109.942 51.568 110.796 51.568ZM123.775 50.768H127.871V40.72H123.775V37.488H131.967V42H132.223C132.372 41.424 132.575 40.8693 132.831 40.336C133.108 39.7813 133.45 39.3013 133.855 38.896C134.282 38.4693 134.794 38.128 135.391 37.872C135.988 37.616 136.703 37.488 137.535 37.488H139.327V41.328H135.935C134.698 41.328 133.727 41.6907 133.023 42.416C132.319 43.1413 131.967 44.0693 131.967 45.2V50.768H137.695V54H123.775V50.768ZM85.304 92.768H90.552V75.552H85.304V72.32H94.648V92.768H99.928V96H85.304V92.768ZM112.172 96.384C110.849 96.384 109.676 96.1813 108.652 95.776C107.628 95.3707 106.764 94.7947 106.06 94.048C105.377 93.3013 104.854 92.4053 104.492 91.36C104.129 90.2933 103.948 89.0987 103.948 87.776C103.948 86.432 104.129 85.2267 104.492 84.16C104.876 83.0933 105.409 82.1867 106.092 81.44C106.774 80.6933 107.596 80.1173 108.556 79.712C109.537 79.3067 110.636 79.104 111.852 79.104C113.046 79.104 114.124 79.3067 115.084 79.712C116.044 80.096 116.854 80.6507 117.516 81.376C118.198 82.1013 118.721 82.976 119.083 84C119.446 85.024 119.628 86.1547 119.628 87.392V88.736H108.044V89.152C108.044 90.3467 108.417 91.3173 109.164 92.064C109.91 92.7893 110.956 93.152 112.3 93.152C113.324 93.152 114.198 92.9493 114.924 92.544C115.67 92.1173 116.289 91.5627 116.78 90.88L119.116 93.216C118.518 94.0907 117.644 94.8373 116.492 95.456C115.361 96.0747 113.921 96.384 112.172 96.384ZM111.884 82.112C110.732 82.112 109.804 82.4747 109.1 83.2C108.396 83.9253 108.044 84.8853 108.044 86.08V86.304H115.532V86.016C115.532 84.8213 115.201 83.872 114.54 83.168C113.9 82.464 113.014 82.112 111.884 82.112ZM132.095 96C130.516 96 129.354 95.584 128.607 94.752C127.86 93.92 127.487 92.8427 127.487 91.52V82.72H122.687V79.488H125.951C126.612 79.488 127.082 79.36 127.359 79.104C127.636 78.8267 127.775 78.3467 127.775 77.664V73.664H131.583V79.488H138.303V82.72H131.583V92.768H138.303V96H132.095ZM93.24 138.384C91.9813 138.384 90.8507 138.181 89.848 137.776C88.8453 137.371 87.992 136.795 87.288 136.048C86.6053 135.301 86.072 134.395 85.688 133.328C85.3253 132.261 85.144 131.067 85.144 129.744C85.144 128.421 85.3253 127.227 85.688 126.16C86.072 125.093 86.6053 124.187 87.288 123.44C87.992 122.693 88.8347 122.117 89.816 121.712C90.8187 121.307 91.9493 121.104 93.208 121.104C94.9573 121.104 96.3653 121.467 97.432 122.192C98.4987 122.917 99.3093 123.877 99.864 125.072L96.696 126.8C96.3973 126.096 95.9707 125.531 95.416 125.104C94.8827 124.656 94.1467 124.432 93.208 124.432C91.992 124.432 91.0533 124.784 90.392 125.488C89.752 126.192 89.432 127.152 89.432 128.368V131.12C89.432 132.315 89.752 133.275 90.392 134C91.0533 134.704 92.0133 135.056 93.272 135.056C94.2533 135.056 95.032 134.832 95.608 134.384C96.2053 133.936 96.6853 133.339 97.048 132.592L100.12 134.416C99.5653 135.589 98.7227 136.549 97.592 137.296C96.4827 138.021 95.032 138.384 93.24 138.384ZM111.788 138.384C110.529 138.384 109.398 138.181 108.396 137.776C107.414 137.371 106.572 136.795 105.868 136.048C105.185 135.301 104.652 134.395 104.268 133.328C103.905 132.261 103.724 131.067 103.724 129.744C103.724 128.421 103.905 127.227 104.268 126.16C104.652 125.093 105.185 124.187 105.868 123.44C106.572 122.693 107.414 122.117 108.396 121.712C109.398 121.307 110.529 121.104 111.788 121.104C113.025 121.104 114.145 121.307 115.148 121.712C116.15 122.117 116.993 122.693 117.676 123.44C118.38 124.187 118.913 125.093 119.276 126.16C119.66 127.227 119.852 128.421 119.852 129.744C119.852 131.067 119.66 132.261 119.276 133.328C118.913 134.395 118.38 135.301 117.676 136.048C116.993 136.795 116.15 137.371 115.148 137.776C114.145 138.181 113.025 138.384 111.788 138.384ZM111.788 135.248C112.961 135.248 113.889 134.896 114.572 134.192C115.254 133.467 115.596 132.411 115.596 131.024V128.464C115.596 127.077 115.254 126.032 114.572 125.328C113.889 124.603 112.961 124.24 111.788 124.24C110.614 124.24 109.686 124.603 109.004 125.328C108.321 126.032 107.98 127.077 107.98 128.464V131.024C107.98 132.411 108.321 133.467 109.004 134.192C109.686 134.896 110.614 135.248 111.788 135.248ZM123.775 138V121.488H127.871V124.4H128.031C128.394 123.504 128.948 122.736 129.695 122.096C130.463 121.435 131.519 121.104 132.863 121.104C134.484 121.104 135.796 121.648 136.799 122.736C137.823 123.803 138.335 125.339 138.335 127.344V138H134.239V127.92C134.239 125.531 133.204 124.336 131.135 124.336C130.708 124.336 130.303 124.389 129.919 124.496C129.535 124.603 129.183 124.773 128.863 125.008C128.564 125.221 128.319 125.488 128.127 125.808C127.956 126.128 127.871 126.512 127.871 126.96V138H123.775ZM150.099 138.384C148.285 138.384 146.717 138.107 145.395 137.552C144.072 136.976 143.037 136.208 142.291 135.248L144.691 133.072C145.373 133.819 146.152 134.395 147.027 134.8C147.923 135.205 148.957 135.408 150.131 135.408C151.155 135.408 151.976 135.237 152.595 134.896C153.213 134.555 153.523 134.032 153.523 133.328C153.523 132.731 153.309 132.325 152.883 132.112C152.477 131.899 151.933 131.739 151.251 131.632L148.595 131.216C147.912 131.109 147.24 130.96 146.579 130.768C145.939 130.555 145.363 130.267 144.851 129.904C144.36 129.541 143.965 129.083 143.667 128.528C143.368 127.952 143.219 127.259 143.219 126.448C143.219 124.72 143.859 123.397 145.139 122.48C146.44 121.563 148.221 121.104 150.483 121.104C152.083 121.104 153.437 121.328 154.547 121.776C155.677 122.224 156.605 122.853 157.331 123.664L155.187 126.032C154.717 125.52 154.088 125.072 153.299 124.688C152.531 124.283 151.549 124.08 150.355 124.08C148.264 124.08 147.219 124.731 147.219 126.032C147.219 126.629 147.432 127.045 147.859 127.28C148.285 127.493 148.84 127.653 149.523 127.76L152.147 128.176C152.851 128.283 153.523 128.443 154.163 128.656C154.824 128.848 155.4 129.125 155.891 129.488C156.403 129.851 156.808 130.309 157.107 130.864C157.405 131.419 157.555 132.101 157.555 132.912C157.555 134.619 156.893 135.963 155.571 136.944C154.269 137.904 152.445 138.384 150.099 138.384ZM170.47 138C168.891 138 167.729 137.584 166.982 136.752C166.235 135.92 165.862 134.843 165.862 133.52V124.72H161.062V121.488H164.326C164.987 121.488 165.457 121.36 165.734 121.104C166.011 120.827 166.15 120.347 166.15 119.664V115.664H169.958V121.488H176.678V124.72H169.958V134.768H176.678V138H170.47Z" fill="#438ADD"/>
<path d="M162.15 54V37.488H166.246V40.4H166.406C166.769 39.504 167.323 38.736 168.07 38.096C168.838 37.4347 169.894 37.104 171.238 37.104C172.859 37.104 174.171 37.648 175.174 38.736C176.198 39.8027 176.71 41.3387 176.71 43.344V54H172.614V43.92C172.614 41.5307 171.579 40.336 169.51 40.336C169.083 40.336 168.678 40.3893 168.294 40.496C167.91 40.6027 167.558 40.7733 167.238 41.008C166.939 41.2213 166.694 41.488 166.502 41.808C166.331 42.128 166.246 42.512 166.246 42.96V54H162.15ZM188.538 54.384C187.279 54.384 186.148 54.1813 185.146 53.776C184.164 53.3707 183.322 52.7947 182.618 52.048C181.935 51.3013 181.402 50.3947 181.018 49.328C180.655 48.2613 180.474 47.0667 180.474 45.744C180.474 44.4213 180.655 43.2267 181.018 42.16C181.402 41.0933 181.935 40.1867 182.618 39.44C183.322 38.6933 184.164 38.1173 185.146 37.712C186.148 37.3067 187.279 37.104 188.538 37.104C189.775 37.104 190.895 37.3067 191.898 37.712C192.9 38.1173 193.743 38.6933 194.426 39.44C195.13 40.1867 195.663 41.0933 196.026 42.16C196.41 43.2267 196.602 44.4213 196.602 45.744C196.602 47.0667 196.41 48.2613 196.026 49.328C195.663 50.3947 195.13 51.3013 194.426 52.048C193.743 52.7947 192.9 53.3707 191.898 53.776C190.895 54.1813 189.775 54.384 188.538 54.384ZM188.538 51.248C189.711 51.248 190.639 50.896 191.322 50.192C192.004 49.4667 192.346 48.4107 192.346 47.024V44.464C192.346 43.0773 192.004 42.032 191.322 41.328C190.639 40.6027 189.711 40.24 188.538 40.24C187.364 40.24 186.436 40.6027 185.754 41.328C185.071 42.032 184.73 43.0773 184.73 44.464V47.024C184.73 48.4107 185.071 49.4667 185.754 50.192C186.436 50.896 187.364 51.248 188.538 51.248ZM199.309 54V37.488H202.701V39.76H202.893C203.149 39.0347 203.512 38.416 203.981 37.904C204.472 37.3707 205.154 37.104 206.029 37.104C206.861 37.104 207.522 37.3493 208.013 37.84C208.504 38.3093 208.824 38.9813 208.973 39.856H209.133C209.41 39.1093 209.816 38.4693 210.349 37.936C210.904 37.3813 211.682 37.104 212.685 37.104C213.901 37.104 214.776 37.5413 215.309 38.416C215.842 39.2907 216.109 40.5813 216.109 42.288V54H212.749V42.768C212.749 41.808 212.61 41.136 212.333 40.752C212.077 40.368 211.682 40.176 211.149 40.176C210.658 40.176 210.242 40.336 209.901 40.656C209.581 40.976 209.421 41.4667 209.421 42.128V54H206.029V42.768C206.029 41.808 205.901 41.136 205.645 40.752C205.389 40.368 204.994 40.176 204.461 40.176C203.949 40.176 203.522 40.336 203.181 40.656C202.861 40.976 202.701 41.4667 202.701 42.128V54H199.309ZM227.297 54.384C225.974 54.384 224.801 54.1813 223.777 53.776C222.753 53.3707 221.889 52.7947 221.185 52.048C220.502 51.3013 219.979 50.4053 219.617 49.36C219.254 48.2933 219.073 47.0987 219.073 45.776C219.073 44.432 219.254 43.2267 219.617 42.16C220.001 41.0933 220.534 40.1867 221.217 39.44C221.899 38.6933 222.721 38.1173 223.681 37.712C224.662 37.3067 225.761 37.104 226.977 37.104C228.171 37.104 229.249 37.3067 230.209 37.712C231.169 38.096 231.979 38.6507 232.641 39.376C233.323 40.1013 233.846 40.976 234.208 42C234.571 43.024 234.753 44.1547 234.753 45.392V46.736H223.169V47.152C223.169 48.3467 223.542 49.3173 224.289 50.064C225.035 50.7893 226.081 51.152 227.425 51.152C228.449 51.152 229.323 50.9493 230.049 50.544C230.795 50.1173 231.414 49.5627 231.905 48.88L234.241 51.216C233.643 52.0907 232.769 52.8373 231.617 53.456C230.486 54.0747 229.046 54.384 227.297 54.384ZM227.009 40.112C225.857 40.112 224.929 40.4747 224.225 41.2C223.521 41.9253 223.169 42.8853 223.169 44.08V44.304H230.657V44.016C230.657 42.8213 230.326 41.872 229.665 41.168C229.025 40.464 228.139 40.112 227.009 40.112ZM170.374 76.928C169.414 76.928 168.731 76.7253 168.326 76.32C167.942 75.9147 167.75 75.424 167.75 74.848V74.08C167.75 73.504 167.942 73.0133 168.326 72.608C168.731 72.2027 169.414 72 170.374 72C171.334 72 172.006 72.2027 172.39 72.608C172.795 73.0133 172.998 73.504 172.998 74.08V74.848C172.998 75.424 172.795 75.9147 172.39 76.32C172.006 76.7253 171.334 76.928 170.374 76.928ZM162.886 92.768H168.326V82.72H162.886V79.488H172.422V92.768H177.478V96H162.886V92.768ZM191.834 93.088H191.61C191.162 94.0907 190.543 94.8907 189.754 95.488C188.986 96.0853 187.962 96.384 186.682 96.384C185.743 96.384 184.879 96.2133 184.09 95.872C183.322 95.5093 182.66 94.976 182.106 94.272C181.551 93.5467 181.124 92.64 180.826 91.552C180.527 90.464 180.378 89.1947 180.378 87.744C180.378 84.8427 180.954 82.6773 182.106 81.248C183.258 79.8187 184.783 79.104 186.682 79.104C187.962 79.104 188.986 79.4027 189.754 80C190.543 80.5973 191.162 81.3973 191.61 82.4H191.834V72.32H195.93V96H191.834V93.088ZM188.41 93.12C188.879 93.12 189.316 93.0667 189.722 92.96C190.148 92.832 190.511 92.6613 190.81 92.448C191.13 92.2133 191.375 91.9253 191.546 91.584C191.738 91.2213 191.834 90.8053 191.834 90.336V85.152C191.834 84.6827 191.738 84.2773 191.546 83.936C191.375 83.5733 191.13 83.2853 190.81 83.072C190.511 82.8373 190.148 82.6667 189.722 82.56C189.316 82.432 188.879 82.368 188.41 82.368C187.215 82.368 186.287 82.7307 185.626 83.456C184.986 84.1813 184.666 85.1733 184.666 86.432V89.056C184.666 90.3147 184.986 91.3067 185.626 92.032C186.287 92.7573 187.215 93.12 188.41 93.12ZM213.805 96C212.802 96 212.024 95.7547 211.469 95.264C210.936 94.752 210.616 94.048 210.509 93.152H210.349C210.05 94.176 209.464 94.976 208.589 95.552C207.714 96.1067 206.637 96.384 205.357 96.384C203.693 96.384 202.37 95.9467 201.389 95.072C200.408 94.1973 199.917 92.9813 199.917 91.424C199.917 88.096 202.36 86.432 207.245 86.432H210.157V85.344C210.157 84.2987 209.901 83.5093 209.389 82.976C208.877 82.4427 208.045 82.176 206.893 82.176C205.848 82.176 205.005 82.3787 204.365 82.784C203.725 83.1893 203.181 83.712 202.733 84.352L200.397 82.368C200.909 81.4507 201.73 80.6827 202.861 80.064C204.013 79.424 205.496 79.104 207.309 79.104C209.485 79.104 211.181 79.616 212.397 80.64C213.634 81.6427 214.253 83.1467 214.253 85.152V92.928H216.205V96H213.805ZM206.733 93.568C207.714 93.568 208.525 93.344 209.165 92.896C209.826 92.4267 210.157 91.7973 210.157 91.008V88.8H207.341C205.101 88.8 203.981 89.504 203.981 90.912V91.552C203.981 92.2133 204.226 92.7147 204.717 93.056C205.208 93.3973 205.88 93.568 206.733 93.568ZM230.209 93.088H229.985C229.537 94.0907 228.918 94.8907 228.129 95.488C227.361 96.0853 226.337 96.384 225.057 96.384C224.118 96.384 223.254 96.2133 222.465 95.872C221.697 95.5093 221.035 94.976 220.481 94.272C219.926 93.5467 219.499 92.64 219.201 91.552C218.902 90.464 218.753 89.1947 218.753 87.744C218.753 84.8427 219.329 82.6773 220.481 81.248C221.633 79.8187 223.158 79.104 225.057 79.104C226.337 79.104 227.361 79.4027 228.129 80C228.918 80.5973 229.537 81.3973 229.985 82.4H230.209V72.32H234.305V96H230.209V93.088ZM226.785 93.12C227.254 93.12 227.691 93.0667 228.097 92.96C228.523 92.832 228.886 92.6613 229.185 92.448C229.505 92.2133 229.75 91.9253 229.921 91.584C230.113 91.2213 230.209 90.8053 230.209 90.336V85.152C230.209 84.6827 230.113 84.2773 229.921 83.936C229.75 83.5733 229.505 83.2853 229.185 83.072C228.886 82.8373 228.523 82.6667 228.097 82.56C227.691 82.432 227.254 82.368 226.785 82.368C225.59 82.368 224.662 82.7307 224.001 83.456C223.361 84.1813 223.041 85.1733 223.041 86.432V89.056C223.041 90.3147 223.361 91.3067 224.001 92.032C224.662 92.7573 225.59 93.12 226.785 93.12ZM246.484 96.384C245.161 96.384 243.988 96.1813 242.964 95.776C241.94 95.3707 241.076 94.7947 240.372 94.048C239.689 93.3013 239.167 92.4053 238.804 91.36C238.441 90.2933 238.26 89.0987 238.26 87.776C238.26 86.432 238.441 85.2267 238.804 84.16C239.188 83.0933 239.721 82.1867 240.404 81.44C241.087 80.6933 241.908 80.1173 242.868 79.712C243.849 79.3067 244.948 79.104 246.164 79.104C247.359 79.104 248.436 79.3067 249.396 79.712C250.356 80.096 251.167 80.6507 251.828 81.376C252.511 82.1013 253.033 82.976 253.396 84C253.759 85.024 253.94 86.1547 253.94 87.392V88.736H242.356V89.152C242.356 90.3467 242.729 91.3173 243.476 92.064C244.223 92.7893 245.268 93.152 246.612 93.152C247.636 93.152 248.511 92.9493 249.236 92.544C249.983 92.1173 250.601 91.5627 251.092 90.88L253.428 93.216C252.831 94.0907 251.956 94.8373 250.804 95.456C249.673 96.0747 248.233 96.384 246.484 96.384ZM246.196 82.112C245.044 82.112 244.116 82.4747 243.412 83.2C242.708 83.9253 242.356 84.8853 242.356 86.08V86.304H249.844V86.016C249.844 84.8213 249.513 83.872 248.852 83.168C248.212 82.464 247.327 82.112 246.196 82.112ZM208.109 138.384C206.786 138.384 205.613 138.181 204.589 137.776C203.565 137.371 202.701 136.795 201.997 136.048C201.314 135.301 200.792 134.405 200.429 133.36C200.066 132.293 199.885 131.099 199.885 129.776C199.885 128.432 200.066 127.227 200.429 126.16C200.813 125.093 201.346 124.187 202.029 123.44C202.712 122.693 203.533 122.117 204.493 121.712C205.474 121.307 206.573 121.104 207.789 121.104C208.984 121.104 210.061 121.307 211.021 121.712C211.981 122.096 212.792 122.651 213.453 123.376C214.136 124.101 214.658 124.976 215.021 126C215.384 127.024 215.565 128.155 215.565 129.392V130.736H203.981V131.152C203.981 132.347 204.354 133.317 205.101 134.064C205.848 134.789 206.893 135.152 208.237 135.152C209.261 135.152 210.136 134.949 210.861 134.544C211.608 134.117 212.226 133.563 212.717 132.88L215.053 135.216C214.456 136.091 213.581 136.837 212.429 137.456C211.298 138.075 209.858 138.384 208.109 138.384ZM207.821 124.112C206.669 124.112 205.741 124.475 205.037 125.2C204.333 125.925 203.981 126.885 203.981 128.08V128.304H211.469V128.016C211.469 126.821 211.138 125.872 210.477 125.168C209.837 124.464 208.952 124.112 207.821 124.112ZM226.849 138.384C225.035 138.384 223.467 138.107 222.145 137.552C220.822 136.976 219.787 136.208 219.041 135.248L221.441 133.072C222.123 133.819 222.902 134.395 223.777 134.8C224.673 135.205 225.707 135.408 226.881 135.408C227.905 135.408 228.726 135.237 229.345 134.896C229.963 134.555 230.273 134.032 230.273 133.328C230.273 132.731 230.059 132.325 229.633 132.112C229.227 131.899 228.683 131.739 228.001 131.632L225.345 131.216C224.662 131.109 223.99 130.96 223.329 130.768C222.689 130.555 222.113 130.267 221.601 129.904C221.11 129.541 220.715 129.083 220.417 128.528C220.118 127.952 219.969 127.259 219.969 126.448C219.969 124.72 220.609 123.397 221.889 122.48C223.19 121.563 224.971 121.104 227.233 121.104C228.833 121.104 230.187 121.328 231.297 121.776C232.427 122.224 233.355 122.853 234.081 123.664L231.937 126.032C231.467 125.52 230.838 125.072 230.049 124.688C229.281 124.283 228.299 124.08 227.105 124.08C225.014 124.08 223.969 124.731 223.969 126.032C223.969 126.629 224.182 127.045 224.609 127.28C225.035 127.493 225.59 127.653 226.273 127.76L228.897 128.176C229.601 128.283 230.273 128.443 230.913 128.656C231.574 128.848 232.15 129.125 232.641 129.488C233.153 129.851 233.558 130.309 233.857 130.864C234.155 131.419 234.305 132.101 234.305 132.912C234.305 134.619 233.643 135.963 232.321 136.944C231.019 137.904 229.195 138.384 226.849 138.384ZM246.74 138.384C245.481 138.384 244.351 138.181 243.348 137.776C242.345 137.371 241.492 136.795 240.788 136.048C240.105 135.301 239.572 134.395 239.188 133.328C238.825 132.261 238.644 131.067 238.644 129.744C238.644 128.421 238.825 127.227 239.188 126.16C239.572 125.093 240.105 124.187 240.788 123.44C241.492 122.693 242.335 122.117 243.316 121.712C244.319 121.307 245.449 121.104 246.708 121.104C248.457 121.104 249.865 121.467 250.932 122.192C251.999 122.917 252.809 123.877 253.364 125.072L250.196 126.8C249.897 126.096 249.471 125.531 248.916 125.104C248.383 124.656 247.647 124.432 246.708 124.432C245.492 124.432 244.553 124.784 243.892 125.488C243.252 126.192 242.932 127.152 242.932 128.368V131.12C242.932 132.315 243.252 133.275 243.892 134C244.553 134.704 245.513 135.056 246.772 135.056C247.753 135.056 248.532 134.832 249.108 134.384C249.705 133.936 250.185 133.339 250.548 132.592L253.62 134.416C253.065 135.589 252.223 136.549 251.092 137.296C249.983 138.021 248.532 138.384 246.74 138.384ZM265.288 138.384C264.029 138.384 262.898 138.181 261.896 137.776C260.914 137.371 260.072 136.795 259.368 136.048C258.685 135.301 258.152 134.395 257.768 133.328C257.405 132.261 257.224 131.067 257.224 129.744C257.224 128.421 257.405 127.227 257.768 126.16C258.152 125.093 258.685 124.187 259.368 123.44C260.072 122.693 260.914 122.117 261.896 121.712C262.898 121.307 264.029 121.104 265.288 121.104C266.525 121.104 267.645 121.307 268.648 121.712C269.65 122.117 270.493 122.693 271.176 123.44C271.88 124.187 272.413 125.093 272.776 126.16C273.16 127.227 273.352 128.421 273.352 129.744C273.352 131.067 273.16 132.261 272.776 133.328C272.413 134.395 271.88 135.301 271.176 136.048C270.493 136.795 269.65 137.371 268.648 137.776C267.645 138.181 266.525 138.384 265.288 138.384ZM265.288 135.248C266.461 135.248 267.389 134.896 268.072 134.192C268.754 133.467 269.096 132.411 269.096 131.024V128.464C269.096 127.077 268.754 126.032 268.072 125.328C267.389 124.603 266.461 124.24 265.288 124.24C264.114 124.24 263.186 124.603 262.504 125.328C261.821 126.032 261.48 127.077 261.48 128.464V131.024C261.48 132.411 261.821 133.467 262.504 134.192C263.186 134.896 264.114 135.248 265.288 135.248ZM277.179 134.768H282.427V117.552H277.179V114.32H286.523V134.768H291.803V138H277.179V134.768ZM309.743 138C308.74 138 307.961 137.755 307.407 137.264C306.873 136.752 306.553 136.048 306.447 135.152H306.287C305.988 136.176 305.401 136.976 304.527 137.552C303.652 138.107 302.575 138.384 301.295 138.384C299.631 138.384 298.308 137.947 297.327 137.072C296.345 136.197 295.855 134.981 295.855 133.424C295.855 130.096 298.297 128.432 303.183 128.432H306.095V127.344C306.095 126.299 305.839 125.509 305.327 124.976C304.815 124.443 303.983 124.176 302.831 124.176C301.785 124.176 300.943 124.379 300.303 124.784C299.663 125.189 299.119 125.712 298.671 126.352L296.335 124.368C296.847 123.451 297.668 122.683 298.799 122.064C299.951 121.424 301.433 121.104 303.247 121.104C305.423 121.104 307.119 121.616 308.335 122.64C309.572 123.643 310.191 125.147 310.191 127.152V134.928H312.142V138H309.743ZM302.671 135.568C303.652 135.568 304.463 135.344 305.103 134.896C305.764 134.427 306.095 133.797 306.095 133.008V130.8H303.279C301.039 130.8 299.919 131.504 299.919 132.912V133.552C299.919 134.213 300.164 134.715 300.655 135.056C301.145 135.397 301.817 135.568 302.671 135.568Z" fill="#B2D1FF"/>
<path d="M257.672 42.352V39.056H272.904V42.352H257.672ZM257.672 49.424V46.128H272.904V49.424H257.672ZM435.927 48.784H441.431L437.239 58.736H434.135L435.927 48.784ZM437.975 42.992C436.866 42.992 436.076 42.7573 435.607 42.288C435.138 41.8187 434.903 41.2427 434.903 40.56V39.6C434.903 38.9173 435.138 38.3413 435.607 37.872C436.076 37.4027 436.866 37.168 437.975 37.168C439.084 37.168 439.874 37.4027 440.343 37.872C440.812 38.3413 441.047 38.9173 441.047 39.6V40.56C441.047 41.2427 440.812 41.8187 440.343 42.288C439.874 42.7573 439.084 42.992 437.975 42.992ZM276.859 84.352V81.056H292.091V84.352H276.859ZM276.859 91.424V88.128H292.091V91.424H276.859ZM359.177 90.784H364.681L360.489 100.736H357.385L359.177 90.784ZM361.225 84.992C360.116 84.992 359.326 84.7573 358.857 84.288C358.388 83.8187 358.153 83.2427 358.153 82.56V81.6C358.153 80.9173 358.388 80.3413 358.857 79.872C359.326 79.4027 360.116 79.168 361.225 79.168C362.334 79.168 363.124 79.4027 363.593 79.872C364.062 80.3413 364.297 80.9173 364.297 81.6V82.56C364.297 83.2427 364.062 83.8187 363.593 84.288C363.124 84.7573 362.334 84.992 361.225 84.992ZM334.422 126.352V123.056H349.654V126.352H334.422ZM334.422 133.424V130.128H349.654V133.424H334.422ZM570.24 132.784H575.744L571.552 142.736H568.448L570.24 132.784ZM572.288 126.992C571.178 126.992 570.389 126.757 569.92 126.288C569.45 125.819 569.216 125.243 569.216 124.56V123.6C569.216 122.917 569.45 122.341 569.92 121.872C570.389 121.403 571.178 121.168 572.288 121.168C573.397 121.168 574.186 121.403 574.656 121.872C575.125 122.341 575.36 122.917 575.36 123.6V124.56C575.36 125.243 575.125 125.819 574.656 126.288C574.186 126.757 573.397 126.992 572.288 126.992Z" fill="white"/>
<path d="M298.479 40.304V30.32H302.191V40.304H298.479ZM305.167 40.304V30.32H308.879V40.304H305.167ZM326.114 44.4H319.586V54H315.394V31.664H319.586V40.944H326.114V31.664H330.306V54H326.114V44.4ZM348.118 54C347.115 54 346.336 53.7547 345.782 53.264C345.248 52.752 344.928 52.048 344.822 51.152H344.662C344.363 52.176 343.776 52.976 342.902 53.552C342.027 54.1067 340.95 54.384 339.67 54.384C338.006 54.384 336.683 53.9467 335.702 53.072C334.72 52.1973 334.23 50.9813 334.23 49.424C334.23 46.096 336.672 44.432 341.558 44.432H344.47V43.344C344.47 42.2987 344.214 41.5093 343.702 40.976C343.19 40.4427 342.358 40.176 341.206 40.176C340.16 40.176 339.318 40.3787 338.678 40.784C338.038 41.1893 337.494 41.712 337.046 42.352L334.71 40.368C335.222 39.4507 336.043 38.6827 337.174 38.064C338.326 37.424 339.808 37.104 341.622 37.104C343.798 37.104 345.494 37.616 346.71 38.64C347.947 39.6427 348.566 41.1467 348.566 43.152V50.928H350.517V54H348.118ZM341.046 51.568C342.027 51.568 342.838 51.344 343.478 50.896C344.139 50.4267 344.47 49.7973 344.47 49.008V46.8H341.654C339.414 46.8 338.294 47.504 338.294 48.912V49.552C338.294 50.2133 338.539 50.7147 339.03 51.056C339.52 51.3973 340.192 51.568 341.046 51.568ZM354.025 50.768H358.121V40.72H354.025V37.488H362.217V42H362.473C362.622 41.424 362.825 40.8693 363.081 40.336C363.358 39.7813 363.7 39.3013 364.105 38.896C364.532 38.4693 365.044 38.128 365.641 37.872C366.238 37.616 366.953 37.488 367.785 37.488H369.577V41.328H366.185C364.948 41.328 363.977 41.6907 363.273 42.416C362.569 43.1413 362.217 44.0693 362.217 45.2V50.768H367.945V54H354.025V50.768ZM373.213 50.768H377.309V40.72H373.213V37.488H381.405V42H381.661C381.81 41.424 382.013 40.8693 382.269 40.336C382.546 39.7813 382.887 39.3013 383.293 38.896C383.719 38.4693 384.231 38.128 384.829 37.872C385.426 37.616 386.141 37.488 386.972 37.488H388.765V41.328H385.373C384.135 41.328 383.165 41.6907 382.461 42.416C381.757 43.1413 381.405 44.0693 381.405 45.2V50.768H387.133V54H373.213V50.768ZM404.112 37.488H408.272L400.368 56.944C399.92 58.0747 399.323 58.928 398.576 59.504C397.829 60.1013 396.773 60.4 395.408 60.4H392.4V57.168H396.336L397.584 53.84L390.928 37.488H395.28L397.808 44.4L399.568 49.648H399.792L401.552 44.4L404.112 37.488ZM413.604 40.304V30.32H417.316V40.304H413.604ZM420.292 40.304V30.32H424.004V40.304H420.292ZM375.229 124.304V114.32H378.941V124.304H375.229ZM381.917 124.304V114.32H385.629V124.304H381.917ZM402.864 128.4H396.336V138H392.144V115.664H396.336V124.944H402.864V115.664H407.056V138H402.864V128.4ZM418.788 138.384C417.529 138.384 416.398 138.181 415.396 137.776C414.414 137.371 413.572 136.795 412.868 136.048C412.185 135.301 411.652 134.395 411.268 133.328C410.905 132.261 410.724 131.067 410.724 129.744C410.724 128.421 410.905 127.227 411.268 126.16C411.652 125.093 412.185 124.187 412.868 123.44C413.572 122.693 414.414 122.117 415.396 121.712C416.398 121.307 417.529 121.104 418.788 121.104C420.025 121.104 421.145 121.307 422.148 121.712C423.15 122.117 423.993 122.693 424.676 123.44C425.38 124.187 425.913 125.093 426.276 126.16C426.66 127.227 426.852 128.421 426.852 129.744C426.852 131.067 426.66 132.261 426.276 133.328C425.913 134.395 425.38 135.301 424.676 136.048C423.993 136.795 423.15 137.371 422.148 137.776C421.145 138.181 420.025 138.384 418.788 138.384ZM418.788 135.248C419.961 135.248 420.889 134.896 421.572 134.192C422.254 133.467 422.596 132.411 422.596 131.024V128.464C422.596 127.077 422.254 126.032 421.572 125.328C420.889 124.603 419.961 124.24 418.788 124.24C417.614 124.24 416.686 124.603 416.004 125.328C415.321 126.032 414.98 127.077 414.98 128.464V131.024C414.98 132.411 415.321 133.467 416.004 134.192C416.686 134.896 417.614 135.248 418.788 135.248ZM446.807 139.728C446.807 141.456 446.082 142.725 444.631 143.536C443.202 144.368 440.962 144.784 437.911 144.784C436.418 144.784 435.17 144.688 434.167 144.496C433.164 144.325 432.354 144.069 431.735 143.728C431.138 143.387 430.711 142.971 430.455 142.48C430.199 142.011 430.071 141.477 430.071 140.88C430.071 139.963 430.338 139.259 430.871 138.768C431.404 138.277 432.151 137.915 433.111 137.68V137.424C432.471 137.211 431.959 136.912 431.575 136.528C431.212 136.144 431.031 135.611 431.031 134.928C431.031 134.117 431.298 133.509 431.831 133.104C432.386 132.699 433.111 132.389 434.007 132.176V132.016C433.026 131.547 432.258 130.885 431.703 130.032C431.148 129.179 430.871 128.144 430.871 126.928C430.871 126.011 431.031 125.2 431.351 124.496C431.692 123.771 432.162 123.163 432.759 122.672C433.378 122.16 434.114 121.776 434.967 121.52C435.82 121.243 436.77 121.104 437.815 121.104C438.924 121.104 439.927 121.253 440.823 121.552V120.848C440.823 120.208 441.026 119.675 441.431 119.248C441.858 118.821 442.444 118.608 443.191 118.608H446.167V121.68H442.263V122.224C443.074 122.715 443.692 123.355 444.119 124.144C444.567 124.912 444.791 125.84 444.791 126.928C444.791 127.845 444.62 128.667 444.279 129.392C443.959 130.117 443.49 130.725 442.871 131.216C442.274 131.707 441.538 132.091 440.663 132.368C439.81 132.624 438.86 132.752 437.815 132.752C437.388 132.752 436.972 132.741 436.567 132.72C436.183 132.677 435.81 132.603 435.447 132.496C435.148 132.603 434.86 132.773 434.583 133.008C434.306 133.243 434.167 133.552 434.167 133.936C434.167 134.448 434.412 134.768 434.903 134.896C435.394 135.003 435.98 135.056 436.663 135.056H440.407C441.559 135.056 442.54 135.173 443.351 135.408C444.162 135.621 444.823 135.941 445.335 136.368C445.847 136.773 446.22 137.264 446.455 137.84C446.69 138.416 446.807 139.045 446.807 139.728ZM442.967 140.016C442.967 139.525 442.764 139.131 442.359 138.832C441.975 138.555 441.25 138.416 440.183 138.416H434.487C433.847 138.779 433.527 139.312 433.527 140.016C433.527 140.592 433.762 141.072 434.231 141.456C434.722 141.84 435.543 142.032 436.695 142.032H439.351C441.762 142.032 442.967 141.36 442.967 140.016ZM437.815 130.064C438.86 130.064 439.628 129.819 440.119 129.328C440.61 128.816 440.855 128.155 440.855 127.344V126.512C440.855 125.701 440.61 125.051 440.119 124.56C439.628 124.048 438.86 123.792 437.815 123.792C436.791 123.792 436.034 124.048 435.543 124.56C435.052 125.051 434.807 125.701 434.807 126.512V127.344C434.807 128.155 435.052 128.816 435.543 129.328C436.034 129.819 436.791 130.064 437.815 130.064ZM448.011 121.488H451.435L452.843 135.12H453.131L455.371 121.488H459.115L461.323 135.12H461.611L463.051 121.488H466.315L464.203 138H459.243L457.323 125.872H457.035L455.083 138H450.123L448.011 121.488ZM482.43 138C481.427 138 480.649 137.755 480.094 137.264C479.561 136.752 479.241 136.048 479.134 135.152H478.974C478.675 136.176 478.089 136.976 477.214 137.552C476.339 138.107 475.262 138.384 473.982 138.384C472.318 138.384 470.995 137.947 470.014 137.072C469.033 136.197 468.542 134.981 468.542 133.424C468.542 130.096 470.985 128.432 475.87 128.432H478.782V127.344C478.782 126.299 478.526 125.509 478.014 124.976C477.502 124.443 476.67 124.176 475.518 124.176C474.473 124.176 473.63 124.379 472.99 124.784C472.35 125.189 471.806 125.712 471.358 126.352L469.022 124.368C469.534 123.451 470.355 122.683 471.486 122.064C472.638 121.424 474.121 121.104 475.934 121.104C478.11 121.104 479.806 121.616 481.022 122.64C482.259 123.643 482.878 125.147 482.878 127.152V134.928H484.83V138H482.43ZM475.358 135.568C476.339 135.568 477.15 135.344 477.79 134.896C478.451 134.427 478.782 133.797 478.782 133.008V130.8H475.966C473.726 130.8 472.606 131.504 472.606 132.912V133.552C472.606 134.213 472.851 134.715 473.342 135.056C473.833 135.397 474.505 135.568 475.358 135.568ZM488.338 134.768H492.434V124.72H488.338V121.488H496.53V126H496.786C496.935 125.424 497.138 124.869 497.394 124.336C497.671 123.781 498.012 123.301 498.418 122.896C498.844 122.469 499.356 122.128 499.954 121.872C500.551 121.616 501.266 121.488 502.097 121.488H503.89V125.328H500.498C499.26 125.328 498.29 125.691 497.586 126.416C496.882 127.141 496.53 128.069 496.53 129.2V134.768H502.258V138H488.338V134.768ZM515.845 138C514.266 138 513.104 137.584 512.357 136.752C511.61 135.92 511.237 134.843 511.237 133.52V124.72H506.437V121.488H509.701C510.362 121.488 510.832 121.36 511.109 121.104C511.386 120.827 511.525 120.347 511.525 119.664V115.664H515.333V121.488H522.053V124.72H515.333V134.768H522.053V138H515.845ZM533.849 138.384C532.035 138.384 530.467 138.107 529.145 137.552C527.822 136.976 526.787 136.208 526.041 135.248L528.441 133.072C529.123 133.819 529.902 134.395 530.777 134.8C531.673 135.205 532.707 135.408 533.881 135.408C534.905 135.408 535.726 135.237 536.345 134.896C536.963 134.555 537.273 134.032 537.273 133.328C537.273 132.731 537.059 132.325 536.633 132.112C536.227 131.899 535.683 131.739 535.001 131.632L532.345 131.216C531.662 131.109 530.99 130.96 530.329 130.768C529.689 130.555 529.113 130.267 528.601 129.904C528.11 129.541 527.715 129.083 527.417 128.528C527.118 127.952 526.969 127.259 526.969 126.448C526.969 124.72 527.609 123.397 528.889 122.48C530.19 121.563 531.971 121.104 534.233 121.104C535.833 121.104 537.187 121.328 538.297 121.776C539.427 122.224 540.355 122.853 541.081 123.664L538.937 126.032C538.467 125.52 537.838 125.072 537.049 124.688C536.281 124.283 535.299 124.08 534.105 124.08C532.014 124.08 530.969 124.731 530.969 126.032C530.969 126.629 531.182 127.045 531.609 127.28C532.035 127.493 532.59 127.653 533.273 127.76L535.897 128.176C536.601 128.283 537.273 128.443 537.913 128.656C538.574 128.848 539.15 129.125 539.641 129.488C540.153 129.851 540.558 130.309 540.857 130.864C541.155 131.419 541.305 132.101 541.305 132.912C541.305 134.619 540.643 135.963 539.321 136.944C538.019 137.904 536.195 138.384 533.849 138.384ZM547.916 124.304V114.32H551.628V124.304H547.916ZM554.604 124.304V114.32H558.316V124.304H554.604Z" fill="#F5A476"/>
<path d="M316.162 96V92.576H322.306V76.704H322.018L317.154 82.464L314.53 80.256L320.066 73.664H326.498V92.576H331.554V96H316.162ZM335.35 96V92.576H341.494V76.704H341.206L336.342 82.464L333.718 80.256L339.254 73.664H345.686V92.576H350.742V96H335.35Z" fill="#78F6AB"/>
<path d="M34.6625 46.4084V43.8404H39.2705V31.9364H39.0545L35.4065 36.2564L33.4385 34.6004L37.5905 29.6564H42.4145V43.8404H46.2065V46.4084H34.6625Z" fill="white"/>
<path d="M45.6785 87.8873H33.8705V84.9593L39.2465 80.3753C40.1425 79.6073 40.8065 78.9113 41.2385 78.2873C41.6705 77.6473 41.8865 76.9673 41.8865 76.2473V76.0073C41.8865 75.2073 41.6625 74.5993 41.2145 74.1833C40.7665 73.7673 40.1425 73.5593 39.3425 73.5593C38.4625 73.5593 37.7905 73.7993 37.3265 74.2793C36.8625 74.7593 36.5265 75.3513 36.3185 76.0553L33.5825 75.0233C33.7585 74.4793 34.0065 73.9593 34.3265 73.4633C34.6625 72.9513 35.0705 72.5033 35.5505 72.1193C36.0465 71.7353 36.6305 71.4313 37.3025 71.2073C37.9745 70.9673 38.7425 70.8473 39.6065 70.8473C40.5025 70.8473 41.2945 70.9753 41.9825 71.2313C42.6865 71.4713 43.2785 71.8153 43.7585 72.2633C44.2385 72.6953 44.5985 73.2153 44.8385 73.8233C45.0945 74.4313 45.2225 75.0953 45.2225 75.8153C45.2225 76.5033 45.1105 77.1353 44.8865 77.7113C44.6785 78.2873 44.3825 78.8393 43.9985 79.3673C43.6145 79.8793 43.1585 80.3753 42.6305 80.8553C42.1185 81.3353 41.5585 81.8153 40.9505 82.2953L37.3025 85.2473H45.6785V87.8873Z" fill="white"/>
<path d="M39.0065 123.396C40.0145 123.396 40.7505 123.196 41.2145 122.796C41.6945 122.396 41.9345 121.892 41.9345 121.284V121.116C41.9345 120.428 41.7025 119.892 41.2385 119.508C40.7905 119.124 40.1665 118.932 39.3665 118.932C38.5985 118.932 37.9265 119.108 37.3505 119.46C36.7745 119.812 36.2785 120.308 35.8625 120.948L33.8225 119.124C34.1105 118.74 34.4305 118.38 34.7825 118.044C35.1505 117.692 35.5585 117.396 36.0065 117.156C36.4705 116.9 36.9825 116.7 37.5425 116.556C38.1025 116.412 38.7425 116.34 39.4625 116.34C40.3105 116.34 41.0865 116.444 41.7905 116.652C42.5105 116.844 43.1185 117.132 43.6145 117.516C44.1265 117.9 44.5185 118.364 44.7905 118.908C45.0785 119.436 45.2225 120.036 45.2225 120.708C45.2225 121.236 45.1345 121.716 44.9585 122.148C44.7825 122.58 44.5425 122.956 44.2385 123.276C43.9505 123.596 43.6065 123.86 43.2065 124.068C42.8225 124.276 42.4065 124.428 41.9585 124.524V124.644C42.4545 124.74 42.9185 124.9 43.3505 125.124C43.7825 125.332 44.1585 125.604 44.4785 125.94C44.7985 126.276 45.0545 126.684 45.2465 127.164C45.4385 127.628 45.5345 128.156 45.5345 128.748C45.5345 129.484 45.3825 130.156 45.0785 130.764C44.7745 131.372 44.3425 131.892 43.7825 132.324C43.2385 132.756 42.5745 133.092 41.7905 133.332C41.0225 133.556 40.1585 133.668 39.1985 133.668C38.3985 133.668 37.6865 133.58 37.0625 133.404C36.4385 133.244 35.8865 133.02 35.4065 132.732C34.9265 132.444 34.5105 132.116 34.1585 131.748C33.8065 131.364 33.4945 130.972 33.2225 130.572L35.5505 128.772C35.9505 129.444 36.4225 129.996 36.9665 130.428C37.5265 130.86 38.2865 131.076 39.2465 131.076C40.2065 131.076 40.9425 130.86 41.4545 130.428C41.9825 129.98 42.2465 129.364 42.2465 128.58V128.388C42.2465 127.62 41.9665 127.036 41.4065 126.636C40.8465 126.22 40.0545 126.012 39.0305 126.012H37.3505V123.396H39.0065Z" fill="white"/>
<path d="M42.2404 174.859V171.619H34.4884V168.931L41.3284 158.107H45.2404V169.171H47.4964V171.619H45.2404V174.859H42.2404ZM37.0564 169.171H42.2404V161.179H42.0484L37.0564 169.171Z" fill="white"/>
</svg>
