<svg width="1477" height="213" viewBox="0 0 1477 213" fill="none" xmlns="http://www.w3.org/2000/svg">
<path d="M0 5C0 2.23857 2.23858 0 5 0H1462C1470.28 0 1477 6.71573 1477 15V188C1477 201.807 1465.81 213 1452 213H35C15.67 213 0 197.33 0 178V5Z" fill="#373538"/>
<path d="M85.496 58.416L96.024 29.68H99.704L89.176 58.416H85.496ZM104.684 58.416L115.212 29.68H118.892L108.364 58.416H104.684ZM143.219 54V31.664H157.331V35.12H147.411V40.944H156.979V44.4H147.411V50.544H157.331V54H143.219ZM160.838 54L167.014 45.616L161.19 37.488H165.894L167.878 40.4L169.414 42.704H169.638L171.174 40.4L173.158 37.488H177.51L171.686 45.424L177.862 54H173.126L170.854 50.672L169.286 48.336H169.062L167.494 50.672L165.222 54H160.838ZM188.922 54.384C187.599 54.384 186.426 54.1813 185.402 53.776C184.378 53.3707 183.514 52.7947 182.81 52.048C182.127 51.3013 181.604 50.4053 181.242 49.36C180.879 48.2933 180.698 47.0987 180.698 45.776C180.698 44.432 180.879 43.2267 181.242 42.16C181.626 41.0933 182.159 40.1867 182.842 39.44C183.524 38.6933 184.346 38.1173 185.306 37.712C186.287 37.3067 187.386 37.104 188.602 37.104C189.796 37.104 190.874 37.3067 191.834 37.712C192.794 38.096 193.604 38.6507 194.266 39.376C194.948 40.1013 195.471 40.976 195.833 42C196.196 43.024 196.378 44.1547 196.378 45.392V46.736H184.794V47.152C184.794 48.3467 185.167 49.3173 185.914 50.064C186.66 50.7893 187.706 51.152 189.05 51.152C190.074 51.152 190.948 50.9493 191.674 50.544C192.42 50.1173 193.039 49.5627 193.53 48.88L195.866 51.216C195.268 52.0907 194.394 52.8373 193.242 53.456C192.111 54.0747 190.671 54.384 188.922 54.384ZM188.634 40.112C187.482 40.112 186.554 40.4747 185.85 41.2C185.146 41.9253 184.794 42.8853 184.794 44.08V44.304H192.282V44.016C192.282 42.8213 191.951 41.872 191.29 41.168C190.65 40.464 189.764 40.112 188.634 40.112ZM199.309 54V37.488H202.701V39.76H202.893C203.149 39.0347 203.512 38.416 203.981 37.904C204.472 37.3707 205.154 37.104 206.029 37.104C206.861 37.104 207.522 37.3493 208.013 37.84C208.504 38.3093 208.824 38.9813 208.973 39.856H209.133C209.41 39.1093 209.816 38.4693 210.349 37.936C210.904 37.3813 211.682 37.104 212.685 37.104C213.901 37.104 214.776 37.5413 215.309 38.416C215.842 39.2907 216.109 40.5813 216.109 42.288V54H212.749V42.768C212.749 41.808 212.61 41.136 212.333 40.752C212.077 40.368 211.682 40.176 211.149 40.176C210.658 40.176 210.242 40.336 209.901 40.656C209.581 40.976 209.421 41.4667 209.421 42.128V54H206.029V42.768C206.029 41.808 205.901 41.136 205.645 40.752C205.389 40.368 204.994 40.176 204.461 40.176C203.949 40.176 203.522 40.336 203.181 40.656C202.861 40.976 202.701 41.4667 202.701 42.128V54H199.309ZM219.521 37.488H223.617V40.4H223.841C224.289 39.3973 224.897 38.5973 225.665 38C226.454 37.4027 227.489 37.104 228.769 37.104C229.707 37.104 230.561 37.2853 231.329 37.648C232.118 37.9893 232.79 38.5227 233.345 39.248C233.899 39.952 234.326 40.848 234.625 41.936C234.923 43.024 235.073 44.2933 235.073 45.744C235.073 47.1947 234.923 48.464 234.625 49.552C234.326 50.64 233.899 51.5467 233.345 52.272C232.79 52.976 232.118 53.5093 231.329 53.872C230.561 54.2133 229.707 54.384 228.769 54.384C227.489 54.384 226.454 54.0853 225.665 53.488C224.897 52.8907 224.289 52.0907 223.841 51.088H223.617V60.4H219.521V37.488ZM227.041 51.12C228.235 51.12 229.153 50.7573 229.793 50.032C230.454 49.3067 230.785 48.3147 230.785 47.056V44.432C230.785 43.1733 230.454 42.1813 229.793 41.456C229.153 40.7307 228.235 40.368 227.041 40.368C226.102 40.368 225.291 40.6027 224.609 41.072C223.947 41.52 223.617 42.2133 223.617 43.152V48.336C223.617 49.2747 223.947 49.9787 224.609 50.448C225.291 50.896 226.102 51.12 227.041 51.12ZM238.804 50.768H244.052V33.552H238.804V30.32H248.148V50.768H253.428V54H238.804V50.768ZM265.288 54.384C264.029 54.384 262.898 54.1813 261.896 53.776C260.914 53.3707 260.072 52.7947 259.368 52.048C258.685 51.3013 258.152 50.3947 257.768 49.328C257.405 48.2613 257.224 47.0667 257.224 45.744C257.224 44.4213 257.405 43.2267 257.768 42.16C258.152 41.0933 258.685 40.1867 259.368 39.44C260.072 38.6933 260.914 38.1173 261.896 37.712C262.898 37.3067 264.029 37.104 265.288 37.104C266.525 37.104 267.645 37.3067 268.648 37.712C269.65 38.1173 270.493 38.6933 271.176 39.44C271.88 40.1867 272.413 41.0933 272.776 42.16C273.16 43.2267 273.352 44.4213 273.352 45.744C273.352 47.0667 273.16 48.2613 272.776 49.328C272.413 50.3947 271.88 51.3013 271.176 52.048C270.493 52.7947 269.65 53.3707 268.648 53.776C267.645 54.1813 266.525 54.384 265.288 54.384ZM265.288 51.248C266.461 51.248 267.389 50.896 268.072 50.192C268.754 49.4667 269.096 48.4107 269.096 47.024V44.464C269.096 43.0773 268.754 42.032 268.072 41.328C267.389 40.6027 266.461 40.24 265.288 40.24C264.114 40.24 263.186 40.6027 262.504 41.328C261.821 42.032 261.48 43.0773 261.48 44.464V47.024C261.48 48.4107 261.821 49.4667 262.504 50.192C263.186 50.896 264.114 51.248 265.288 51.248ZM306.959 51.088H306.735C306.287 52.0907 305.668 52.8907 304.879 53.488C304.111 54.0853 303.087 54.384 301.807 54.384C300.868 54.384 300.004 54.2133 299.215 53.872C298.447 53.5093 297.785 52.976 297.231 52.272C296.676 51.5467 296.249 50.64 295.951 49.552C295.652 48.464 295.503 47.1947 295.503 45.744C295.503 42.8427 296.079 40.6773 297.231 39.248C298.383 37.8187 299.908 37.104 301.807 37.104C303.087 37.104 304.111 37.4027 304.879 38C305.668 38.5973 306.287 39.3973 306.735 40.4H306.959V30.32H311.055V54H306.959V51.088ZM303.535 51.12C304.004 51.12 304.441 51.0667 304.847 50.96C305.273 50.832 305.636 50.6613 305.935 50.448C306.255 50.2133 306.5 49.9253 306.671 49.584C306.863 49.2213 306.959 48.8053 306.959 48.336V43.152C306.959 42.6827 306.863 42.2773 306.671 41.936C306.5 41.5733 306.255 41.2853 305.935 41.072C305.636 40.8373 305.273 40.6667 304.847 40.56C304.441 40.432 304.004 40.368 303.535 40.368C302.34 40.368 301.412 40.7307 300.751 41.456C300.111 42.1813 299.791 43.1733 299.791 44.432V47.056C299.791 48.3147 300.111 49.3067 300.751 50.032C301.412 50.7573 302.34 51.12 303.535 51.12ZM323.234 54.384C321.911 54.384 320.738 54.1813 319.714 53.776C318.69 53.3707 317.826 52.7947 317.122 52.048C316.439 51.3013 315.917 50.4053 315.554 49.36C315.191 48.2933 315.01 47.0987 315.01 45.776C315.01 44.432 315.191 43.2267 315.554 42.16C315.938 41.0933 316.471 40.1867 317.154 39.44C317.837 38.6933 318.658 38.1173 319.618 37.712C320.599 37.3067 321.698 37.104 322.914 37.104C324.109 37.104 325.186 37.3067 326.146 37.712C327.106 38.096 327.917 38.6507 328.578 39.376C329.261 40.1013 329.783 40.976 330.146 42C330.509 43.024 330.69 44.1547 330.69 45.392V46.736H319.106V47.152C319.106 48.3467 319.479 49.3173 320.226 50.064C320.973 50.7893 322.018 51.152 323.362 51.152C324.386 51.152 325.261 50.9493 325.986 50.544C326.733 50.1173 327.351 49.5627 327.842 48.88L330.178 51.216C329.581 52.0907 328.706 52.8373 327.554 53.456C326.423 54.0747 324.983 54.384 323.234 54.384ZM322.946 40.112C321.794 40.112 320.866 40.4747 320.162 41.2C319.458 41.9253 319.106 42.8853 319.106 44.08V44.304H326.594V44.016C326.594 42.8213 326.263 41.872 325.602 41.168C324.962 40.464 324.077 40.112 322.946 40.112ZM361.865 54.384C360.606 54.384 359.476 54.1813 358.473 53.776C357.47 53.3707 356.617 52.7947 355.913 52.048C355.23 51.3013 354.697 50.3947 354.313 49.328C353.95 48.2613 353.769 47.0667 353.769 45.744C353.769 44.4213 353.95 43.2267 354.313 42.16C354.697 41.0933 355.23 40.1867 355.913 39.44C356.617 38.6933 357.46 38.1173 358.441 37.712C359.444 37.3067 360.574 37.104 361.833 37.104C363.582 37.104 364.99 37.4667 366.057 38.192C367.124 38.9173 367.934 39.8773 368.489 41.072L365.321 42.8C365.022 42.096 364.596 41.5307 364.041 41.104C363.508 40.656 362.772 40.432 361.833 40.432C360.617 40.432 359.678 40.784 359.017 41.488C358.377 42.192 358.057 43.152 358.057 44.368V47.12C358.057 48.3147 358.377 49.2747 359.017 50C359.678 50.704 360.638 51.056 361.897 51.056C362.878 51.056 363.657 50.832 364.233 50.384C364.83 49.936 365.31 49.3387 365.673 48.592L368.745 50.416C368.19 51.5893 367.348 52.5493 366.217 53.296C365.108 54.0213 363.657 54.384 361.865 54.384ZM380.413 54.384C379.154 54.384 378.023 54.1813 377.021 53.776C376.039 53.3707 375.197 52.7947 374.493 52.048C373.81 51.3013 373.277 50.3947 372.893 49.328C372.53 48.2613 372.349 47.0667 372.349 45.744C372.349 44.4213 372.53 43.2267 372.893 42.16C373.277 41.0933 373.81 40.1867 374.493 39.44C375.197 38.6933 376.039 38.1173 377.021 37.712C378.023 37.3067 379.154 37.104 380.413 37.104C381.65 37.104 382.77 37.3067 383.773 37.712C384.775 38.1173 385.618 38.6933 386.301 39.44C387.005 40.1867 387.538 41.0933 387.901 42.16C388.285 43.2267 388.477 44.4213 388.477 45.744C388.477 47.0667 388.285 48.2613 387.901 49.328C387.538 50.3947 387.005 51.3013 386.301 52.048C385.618 52.7947 384.775 53.3707 383.773 53.776C382.77 54.1813 381.65 54.384 380.413 54.384ZM380.413 51.248C381.586 51.248 382.514 50.896 383.197 50.192C383.879 49.4667 384.221 48.4107 384.221 47.024V44.464C384.221 43.0773 383.879 42.032 383.197 41.328C382.514 40.6027 381.586 40.24 380.413 40.24C379.239 40.24 378.311 40.6027 377.629 41.328C376.946 42.032 376.605 43.0773 376.605 44.464V47.024C376.605 48.4107 376.946 49.4667 377.629 50.192C378.311 50.896 379.239 51.248 380.413 51.248ZM391.184 54V37.488H394.576V39.76H394.768C395.024 39.0347 395.387 38.416 395.856 37.904C396.347 37.3707 397.029 37.104 397.904 37.104C398.736 37.104 399.397 37.3493 399.888 37.84C400.379 38.3093 400.699 38.9813 400.848 39.856H401.008C401.285 39.1093 401.691 38.4693 402.224 37.936C402.779 37.3813 403.557 37.104 404.56 37.104C405.776 37.104 406.651 37.5413 407.184 38.416C407.717 39.2907 407.984 40.5813 407.984 42.288V54H404.624V42.768C404.624 41.808 404.485 41.136 404.208 40.752C403.952 40.368 403.557 40.176 403.024 40.176C402.533 40.176 402.117 40.336 401.776 40.656C401.456 40.976 401.296 41.4667 401.296 42.128V54H397.904V42.768C397.904 41.808 397.776 41.136 397.52 40.752C397.264 40.368 396.869 40.176 396.336 40.176C395.824 40.176 395.397 40.336 395.056 40.656C394.736 40.976 394.576 41.4667 394.576 42.128V54H391.184ZM411.396 37.488H415.492V40.4H415.716C416.164 39.3973 416.772 38.5973 417.54 38C418.329 37.4027 419.364 37.104 420.644 37.104C421.582 37.104 422.436 37.2853 423.204 37.648C423.993 37.9893 424.665 38.5227 425.22 39.248C425.774 39.952 426.201 40.848 426.5 41.936C426.798 43.024 426.948 44.2933 426.948 45.744C426.948 47.1947 426.798 48.464 426.5 49.552C426.201 50.64 425.774 51.5467 425.22 52.272C424.665 52.976 423.993 53.5093 423.204 53.872C422.436 54.2133 421.582 54.384 420.644 54.384C419.364 54.384 418.329 54.0853 417.54 53.488C416.772 52.8907 416.164 52.0907 415.716 51.088H415.492V60.4H411.396V37.488ZM418.916 51.12C420.11 51.12 421.028 50.7573 421.668 50.032C422.329 49.3067 422.66 48.3147 422.66 47.056V44.432C422.66 43.1733 422.329 42.1813 421.668 41.456C421.028 40.7307 420.11 40.368 418.916 40.368C417.977 40.368 417.166 40.6027 416.484 41.072C415.822 41.52 415.492 42.2133 415.492 43.152V48.336C415.492 49.2747 415.822 49.9787 416.484 50.448C417.166 50.896 417.977 51.12 418.916 51.12ZM437.975 54.384C436.716 54.384 435.586 54.1813 434.583 53.776C433.602 53.3707 432.759 52.7947 432.055 52.048C431.372 51.3013 430.839 50.3947 430.455 49.328C430.092 48.2613 429.911 47.0667 429.911 45.744C429.911 44.4213 430.092 43.2267 430.455 42.16C430.839 41.0933 431.372 40.1867 432.055 39.44C432.759 38.6933 433.602 38.1173 434.583 37.712C435.586 37.3067 436.716 37.104 437.975 37.104C439.212 37.104 440.332 37.3067 441.335 37.712C442.338 38.1173 443.18 38.6933 443.863 39.44C444.567 40.1867 445.1 41.0933 445.463 42.16C445.847 43.2267 446.039 44.4213 446.039 45.744C446.039 47.0667 445.847 48.2613 445.463 49.328C445.1 50.3947 444.567 51.3013 443.863 52.048C443.18 52.7947 442.338 53.3707 441.335 53.776C440.332 54.1813 439.212 54.384 437.975 54.384ZM437.975 51.248C439.148 51.248 440.076 50.896 440.759 50.192C441.442 49.4667 441.783 48.4107 441.783 47.024V44.464C441.783 43.0773 441.442 42.032 440.759 41.328C440.076 40.6027 439.148 40.24 437.975 40.24C436.802 40.24 435.874 40.6027 435.191 41.328C434.508 42.032 434.167 43.0773 434.167 44.464V47.024C434.167 48.4107 434.508 49.4667 435.191 50.192C435.874 50.896 436.802 51.248 437.975 51.248ZM449.963 54V37.488H454.059V40.4H454.219C454.581 39.504 455.136 38.736 455.883 38.096C456.651 37.4347 457.707 37.104 459.051 37.104C460.672 37.104 461.984 37.648 462.987 38.736C464.011 39.8027 464.523 41.3387 464.523 43.344V54H460.427V43.92C460.427 41.5307 459.392 40.336 457.323 40.336C456.896 40.336 456.491 40.3893 456.107 40.496C455.723 40.6027 455.371 40.7733 455.051 41.008C454.752 41.2213 454.507 41.488 454.315 41.808C454.144 42.128 454.059 42.512 454.059 42.96V54H449.963ZM476.734 54.384C475.411 54.384 474.238 54.1813 473.214 53.776C472.19 53.3707 471.326 52.7947 470.622 52.048C469.939 51.3013 469.417 50.4053 469.054 49.36C468.691 48.2933 468.51 47.0987 468.51 45.776C468.51 44.432 468.691 43.2267 469.054 42.16C469.438 41.0933 469.971 40.1867 470.654 39.44C471.337 38.6933 472.158 38.1173 473.118 37.712C474.099 37.3067 475.198 37.104 476.414 37.104C477.609 37.104 478.686 37.3067 479.646 37.712C480.606 38.096 481.417 38.6507 482.078 39.376C482.761 40.1013 483.283 40.976 483.646 42C484.009 43.024 484.19 44.1547 484.19 45.392V46.736H472.606V47.152C472.606 48.3467 472.979 49.3173 473.726 50.064C474.473 50.7893 475.518 51.152 476.862 51.152C477.886 51.152 478.761 50.9493 479.486 50.544C480.233 50.1173 480.851 49.5627 481.342 48.88L483.678 51.216C483.081 52.0907 482.206 52.8373 481.054 53.456C479.923 54.0747 478.483 54.384 476.734 54.384ZM476.446 40.112C475.294 40.112 474.366 40.4747 473.662 41.2C472.958 41.9253 472.606 42.8853 472.606 44.08V44.304H480.094V44.016C480.094 42.8213 479.763 41.872 479.102 41.168C478.462 40.464 477.577 40.112 476.446 40.112ZM488.338 54V37.488H492.434V40.4H492.594C492.956 39.504 493.511 38.736 494.258 38.096C495.026 37.4347 496.082 37.104 497.426 37.104C499.047 37.104 500.359 37.648 501.362 38.736C502.386 39.8027 502.898 41.3387 502.898 43.344V54H498.802V43.92C498.802 41.5307 497.767 40.336 495.698 40.336C495.271 40.336 494.866 40.3893 494.482 40.496C494.098 40.6027 493.746 40.7733 493.426 41.008C493.127 41.2213 492.882 41.488 492.69 41.808C492.519 42.128 492.434 42.512 492.434 42.96V54H488.338ZM515.845 54C514.266 54 513.104 53.584 512.357 52.752C511.61 51.92 511.237 50.8427 511.237 49.52V40.72H506.437V37.488H509.701C510.362 37.488 510.832 37.36 511.109 37.104C511.386 36.8267 511.525 36.3467 511.525 35.664V31.664H515.333V37.488H522.053V40.72H515.333V50.768H522.053V54H515.845ZM534.297 54.384C532.974 54.384 531.801 54.1813 530.777 53.776C529.753 53.3707 528.889 52.7947 528.185 52.048C527.502 51.3013 526.979 50.4053 526.617 49.36C526.254 48.2933 526.073 47.0987 526.073 45.776C526.073 44.432 526.254 43.2267 526.617 42.16C527.001 41.0933 527.534 40.1867 528.217 39.44C528.899 38.6933 529.721 38.1173 530.681 37.712C531.662 37.3067 532.761 37.104 533.977 37.104C535.171 37.104 536.249 37.3067 537.209 37.712C538.169 38.096 538.979 38.6507 539.641 39.376C540.323 40.1013 540.846 40.976 541.208 42C541.571 43.024 541.753 44.1547 541.753 45.392V46.736H530.169V47.152C530.169 48.3467 530.542 49.3173 531.289 50.064C532.035 50.7893 533.081 51.152 534.425 51.152C535.449 51.152 536.323 50.9493 537.049 50.544C537.795 50.1173 538.414 49.5627 538.905 48.88L541.241 51.216C540.643 52.0907 539.769 52.8373 538.617 53.456C537.486 54.0747 536.046 54.384 534.297 54.384ZM534.009 40.112C532.857 40.112 531.929 40.4747 531.225 41.2C530.521 41.9253 530.169 42.8853 530.169 44.08V44.304H537.657V44.016C537.657 42.8213 537.326 41.872 536.665 41.168C536.025 40.464 535.139 40.112 534.009 40.112ZM569.44 54H565.248V31.664H573.728C575.904 31.664 577.568 32.2827 578.72 33.52C579.872 34.7573 580.448 36.4427 580.448 38.576C580.448 40.2187 580.064 41.6053 579.296 42.736C578.549 43.8453 577.472 44.5493 576.064 44.848L580.832 54H576.224L571.968 45.328H569.44V54ZM572.864 42.064C573.994 42.064 574.805 41.84 575.296 41.392C575.786 40.9227 576.032 40.1867 576.032 39.184V37.968C576.032 36.9653 575.786 36.24 575.296 35.792C574.805 35.3227 573.994 35.088 572.864 35.088H569.44V42.064H572.864ZM591.859 54.384C590.536 54.384 589.363 54.1813 588.339 53.776C587.315 53.3707 586.451 52.7947 585.747 52.048C585.064 51.3013 584.542 50.4053 584.179 49.36C583.816 48.2933 583.635 47.0987 583.635 45.776C583.635 44.432 583.816 43.2267 584.179 42.16C584.563 41.0933 585.096 40.1867 585.779 39.44C586.462 38.6933 587.283 38.1173 588.243 37.712C589.224 37.3067 590.323 37.104 591.539 37.104C592.734 37.104 593.811 37.3067 594.771 37.712C595.731 38.096 596.542 38.6507 597.203 39.376C597.886 40.1013 598.408 40.976 598.771 42C599.134 43.024 599.315 44.1547 599.315 45.392V46.736H587.731V47.152C587.731 48.3467 588.104 49.3173 588.851 50.064C589.598 50.7893 590.643 51.152 591.987 51.152C593.011 51.152 593.886 50.9493 594.611 50.544C595.358 50.1173 595.976 49.5627 596.467 48.88L598.803 51.216C598.206 52.0907 597.331 52.8373 596.179 53.456C595.048 54.0747 593.608 54.384 591.859 54.384ZM591.571 40.112C590.419 40.112 589.491 40.4747 588.787 41.2C588.083 41.9253 587.731 42.8853 587.731 44.08V44.304H595.219V44.016C595.219 42.8213 594.888 41.872 594.227 41.168C593.587 40.464 592.702 40.112 591.571 40.112ZM616.743 54C615.74 54 614.961 53.7547 614.407 53.264C613.873 52.752 613.553 52.048 613.447 51.152H613.287C612.988 52.176 612.401 52.976 611.527 53.552C610.652 54.1067 609.575 54.384 608.295 54.384C606.631 54.384 605.308 53.9467 604.327 53.072C603.345 52.1973 602.855 50.9813 602.855 49.424C602.855 46.096 605.297 44.432 610.183 44.432H613.095V43.344C613.095 42.2987 612.839 41.5093 612.327 40.976C611.815 40.4427 610.983 40.176 609.831 40.176C608.785 40.176 607.943 40.3787 607.303 40.784C606.663 41.1893 606.119 41.712 605.671 42.352L603.335 40.368C603.847 39.4507 604.668 38.6827 605.799 38.064C606.951 37.424 608.433 37.104 610.247 37.104C612.423 37.104 614.119 37.616 615.335 38.64C616.572 39.6427 617.191 41.1467 617.191 43.152V50.928H619.142V54H616.743ZM609.671 51.568C610.652 51.568 611.463 51.344 612.103 50.896C612.764 50.4267 613.095 49.7973 613.095 49.008V46.8H610.279C608.039 46.8 606.919 47.504 606.919 48.912V49.552C606.919 50.2133 607.164 50.7147 607.655 51.056C608.145 51.3973 608.817 51.568 609.671 51.568ZM630.49 54.384C629.231 54.384 628.101 54.1813 627.098 53.776C626.095 53.3707 625.242 52.7947 624.538 52.048C623.855 51.3013 623.322 50.3947 622.938 49.328C622.575 48.2613 622.394 47.0667 622.394 45.744C622.394 44.4213 622.575 43.2267 622.938 42.16C623.322 41.0933 623.855 40.1867 624.538 39.44C625.242 38.6933 626.085 38.1173 627.066 37.712C628.069 37.3067 629.199 37.104 630.458 37.104C632.207 37.104 633.615 37.4667 634.682 38.192C635.749 38.9173 636.559 39.8773 637.114 41.072L633.946 42.8C633.647 42.096 633.221 41.5307 632.666 41.104C632.133 40.656 631.397 40.432 630.458 40.432C629.242 40.432 628.303 40.784 627.642 41.488C627.002 42.192 626.682 43.152 626.682 44.368V47.12C626.682 48.3147 627.002 49.2747 627.642 50C628.303 50.704 629.263 51.056 630.522 51.056C631.503 51.056 632.282 50.832 632.858 50.384C633.455 49.936 633.935 49.3387 634.298 48.592L637.37 50.416C636.815 51.5893 635.973 52.5493 634.842 53.296C633.733 54.0213 632.282 54.384 630.49 54.384ZM650.158 54C648.579 54 647.416 53.584 646.67 52.752C645.923 51.92 645.55 50.8427 645.55 49.52V40.72H640.75V37.488H644.014C644.675 37.488 645.144 37.36 645.422 37.104C645.699 36.8267 645.838 36.3467 645.838 35.664V31.664H649.646V37.488H656.366V40.72H649.646V50.768H656.366V54H650.158Z" fill="#4C8859"/>
<path d="M85.4 92.768H90.456V82.72H85.08V79.488H90.456V76.8C90.456 76.1387 90.5413 75.5413 90.712 75.008C90.904 74.4533 91.192 73.984 91.576 73.6C91.96 73.1947 92.44 72.8853 93.016 72.672C93.6133 72.4373 94.3067 72.32 95.096 72.32H100.664V75.552H94.552V79.488H100.664V82.72H94.552V92.768H99.928V96H85.4V92.768ZM114.892 93.088H114.732C114.369 93.984 113.804 94.7627 113.036 95.424C112.289 96.064 111.244 96.384 109.9 96.384C108.278 96.384 106.956 95.8507 105.932 94.784C104.929 93.696 104.428 92.1493 104.428 90.144V79.488H108.524V89.568C108.524 91.9573 109.558 93.152 111.628 93.152C112.033 93.152 112.428 93.0987 112.812 92.992C113.217 92.8853 113.569 92.7253 113.868 92.512C114.188 92.2773 114.433 92 114.604 91.68C114.796 91.36 114.892 90.976 114.892 90.528V79.488H118.988V96H114.892V93.088ZM123.775 96V79.488H127.871V82.4H128.031C128.394 81.504 128.948 80.736 129.695 80.096C130.463 79.4347 131.519 79.104 132.863 79.104C134.484 79.104 135.796 79.648 136.799 80.736C137.823 81.8027 138.335 83.3387 138.335 85.344V96H134.239V85.92C134.239 83.5307 133.204 82.336 131.135 82.336C130.708 82.336 130.303 82.3893 129.919 82.496C129.535 82.6027 129.183 82.7733 128.863 83.008C128.564 83.2213 128.319 83.488 128.127 83.808C127.956 84.128 127.871 84.512 127.871 84.96V96H123.775ZM150.803 96.384C149.544 96.384 148.413 96.1813 147.411 95.776C146.408 95.3707 145.555 94.7947 144.851 94.048C144.168 93.3013 143.635 92.3947 143.251 91.328C142.888 90.2613 142.707 89.0667 142.707 87.744C142.707 86.4213 142.888 85.2267 143.251 84.16C143.635 83.0933 144.168 82.1867 144.851 81.44C145.555 80.6933 146.397 80.1173 147.379 79.712C148.381 79.3067 149.512 79.104 150.771 79.104C152.52 79.104 153.928 79.4667 154.995 80.192C156.061 80.9173 156.872 81.8773 157.427 83.072L154.259 84.8C153.96 84.096 153.533 83.5307 152.979 83.104C152.445 82.656 151.709 82.432 150.771 82.432C149.555 82.432 148.616 82.784 147.955 83.488C147.315 84.192 146.995 85.152 146.995 86.368V89.12C146.995 90.3147 147.315 91.2747 147.955 92C148.616 92.704 149.576 93.056 150.835 93.056C151.816 93.056 152.595 92.832 153.171 92.384C153.768 91.936 154.248 91.3387 154.611 90.592L157.683 92.416C157.128 93.5893 156.285 94.5493 155.155 95.296C154.045 96.0213 152.595 96.384 150.803 96.384ZM170.47 96C168.891 96 167.729 95.584 166.982 94.752C166.235 93.92 165.862 92.8427 165.862 91.52V82.72H161.062V79.488H164.326C164.987 79.488 165.457 79.36 165.734 79.104C166.011 78.8267 166.15 78.3467 166.15 77.664V73.664H169.958V79.488H176.678V82.72H169.958V92.768H176.678V96H170.47ZM189.562 76.928C188.602 76.928 187.919 76.7253 187.514 76.32C187.13 75.9147 186.938 75.424 186.938 74.848V74.08C186.938 73.504 187.13 73.0133 187.514 72.608C187.919 72.2027 188.602 72 189.562 72C190.522 72 191.194 72.2027 191.578 72.608C191.983 73.0133 192.186 73.504 192.186 74.08V74.848C192.186 75.424 191.983 75.9147 191.578 76.32C191.194 76.7253 190.522 76.928 189.562 76.928ZM182.074 92.768H187.514V82.72H182.074V79.488H191.61V92.768H196.666V96H182.074V92.768ZM207.725 96.384C206.466 96.384 205.336 96.1813 204.333 95.776C203.352 95.3707 202.509 94.7947 201.805 94.048C201.122 93.3013 200.589 92.3947 200.205 91.328C199.842 90.2613 199.661 89.0667 199.661 87.744C199.661 86.4213 199.842 85.2267 200.205 84.16C200.589 83.0933 201.122 82.1867 201.805 81.44C202.509 80.6933 203.352 80.1173 204.333 79.712C205.336 79.3067 206.466 79.104 207.725 79.104C208.962 79.104 210.082 79.3067 211.085 79.712C212.088 80.1173 212.93 80.6933 213.613 81.44C214.317 82.1867 214.85 83.0933 215.213 84.16C215.597 85.2267 215.789 86.4213 215.789 87.744C215.789 89.0667 215.597 90.2613 215.213 91.328C214.85 92.3947 214.317 93.3013 213.613 94.048C212.93 94.7947 212.088 95.3707 211.085 95.776C210.082 96.1813 208.962 96.384 207.725 96.384ZM207.725 93.248C208.898 93.248 209.826 92.896 210.509 92.192C211.192 91.4667 211.533 90.4107 211.533 89.024V86.464C211.533 85.0773 211.192 84.032 210.509 83.328C209.826 82.6027 208.898 82.24 207.725 82.24C206.552 82.24 205.624 82.6027 204.941 83.328C204.258 84.032 203.917 85.0773 203.917 86.464V89.024C203.917 90.4107 204.258 91.4667 204.941 92.192C205.624 92.896 206.552 93.248 207.725 93.248ZM219.713 96V79.488H223.809V82.4H223.969C224.331 81.504 224.886 80.736 225.633 80.096C226.401 79.4347 227.457 79.104 228.801 79.104C230.422 79.104 231.734 79.648 232.737 80.736C233.761 81.8027 234.273 83.3387 234.273 85.344V96H230.177V85.92C230.177 83.5307 229.142 82.336 227.073 82.336C226.646 82.336 226.241 82.3893 225.857 82.496C225.473 82.6027 225.121 82.7733 224.801 83.008C224.502 83.2213 224.257 83.488 224.065 83.808C223.894 84.128 223.809 84.512 223.809 84.96V96H219.713ZM277.083 114.32H281.179V124.4H281.403C281.851 123.397 282.459 122.597 283.227 122C284.016 121.403 285.051 121.104 286.331 121.104C287.27 121.104 288.123 121.285 288.891 121.648C289.68 121.989 290.352 122.523 290.907 123.248C291.462 123.952 291.888 124.848 292.187 125.936C292.486 127.024 292.635 128.293 292.635 129.744C292.635 131.195 292.486 132.464 292.187 133.552C291.888 134.64 291.462 135.547 290.907 136.272C290.352 136.976 289.68 137.509 288.891 137.872C288.123 138.213 287.27 138.384 286.331 138.384C285.051 138.384 284.016 138.085 283.227 137.488C282.459 136.891 281.851 136.091 281.403 135.088H281.179V138H277.083V114.32ZM284.603 135.12C285.798 135.12 286.715 134.757 287.355 134.032C288.016 133.307 288.347 132.315 288.347 131.056V128.432C288.347 127.173 288.016 126.181 287.355 125.456C286.715 124.731 285.798 124.368 284.603 124.368C283.664 124.368 282.854 124.603 282.171 125.072C281.51 125.52 281.179 126.213 281.179 127.152V132.336C281.179 133.275 281.51 133.979 282.171 134.448C282.854 134.896 283.664 135.12 284.603 135.12ZM306.767 135.088H306.607C306.244 135.984 305.679 136.763 304.911 137.424C304.164 138.064 303.119 138.384 301.775 138.384C300.153 138.384 298.831 137.851 297.807 136.784C296.804 135.696 296.303 134.149 296.303 132.144V121.488H300.399V131.568C300.399 133.957 301.433 135.152 303.503 135.152C303.908 135.152 304.303 135.099 304.687 134.992C305.092 134.885 305.444 134.725 305.743 134.512C306.063 134.277 306.308 134 306.479 133.68C306.671 133.36 306.767 132.976 306.767 132.528V121.488H310.863V138H306.767V135.088ZM323.97 138C322.391 138 321.229 137.584 320.482 136.752C319.735 135.92 319.362 134.843 319.362 133.52V124.72H314.562V121.488H317.826C318.487 121.488 318.957 121.36 319.234 121.104C319.511 120.827 319.65 120.347 319.65 119.664V115.664H323.458V121.488H330.178V124.72H323.458V134.768H330.178V138H323.97ZM343.158 138C341.579 138 340.416 137.584 339.67 136.752C338.923 135.92 338.55 134.843 338.55 133.52V124.72H333.75V121.488H337.014C337.675 121.488 338.144 121.36 338.422 121.104C338.699 120.827 338.838 120.347 338.838 119.664V115.664H342.646V121.488H349.366V124.72H342.646V134.768H349.366V138H343.158ZM361.225 138.384C359.966 138.384 358.836 138.181 357.833 137.776C356.852 137.371 356.009 136.795 355.305 136.048C354.622 135.301 354.089 134.395 353.705 133.328C353.342 132.261 353.161 131.067 353.161 129.744C353.161 128.421 353.342 127.227 353.705 126.16C354.089 125.093 354.622 124.187 355.305 123.44C356.009 122.693 356.852 122.117 357.833 121.712C358.836 121.307 359.966 121.104 361.225 121.104C362.462 121.104 363.582 121.307 364.585 121.712C365.588 122.117 366.43 122.693 367.113 123.44C367.817 124.187 368.35 125.093 368.713 126.16C369.097 127.227 369.289 128.421 369.289 129.744C369.289 131.067 369.097 132.261 368.713 133.328C368.35 134.395 367.817 135.301 367.113 136.048C366.43 136.795 365.588 137.371 364.585 137.776C363.582 138.181 362.462 138.384 361.225 138.384ZM361.225 135.248C362.398 135.248 363.326 134.896 364.009 134.192C364.692 133.467 365.033 132.411 365.033 131.024V128.464C365.033 127.077 364.692 126.032 364.009 125.328C363.326 124.603 362.398 124.24 361.225 124.24C360.052 124.24 359.124 124.603 358.441 125.328C357.758 126.032 357.417 127.077 357.417 128.464V131.024C357.417 132.411 357.758 133.467 358.441 134.192C359.124 134.896 360.052 135.248 361.225 135.248ZM373.213 138V121.488H377.309V124.4H377.469C377.831 123.504 378.386 122.736 379.133 122.096C379.901 121.435 380.957 121.104 382.301 121.104C383.922 121.104 385.234 121.648 386.237 122.736C387.261 123.803 387.773 125.339 387.773 127.344V138H383.677V127.92C383.677 125.531 382.642 124.336 380.573 124.336C380.146 124.336 379.741 124.389 379.357 124.496C378.973 124.603 378.621 124.773 378.301 125.008C378.002 125.221 377.757 125.488 377.565 125.808C377.394 126.128 377.309 126.512 377.309 126.96V138H373.213ZM756.771 114.32H760.867V124.4H761.091C761.539 123.397 762.147 122.597 762.915 122C763.704 121.403 764.739 121.104 766.019 121.104C766.957 121.104 767.811 121.285 768.579 121.648C769.368 121.989 770.04 122.523 770.595 123.248C771.149 123.952 771.576 124.848 771.875 125.936C772.173 127.024 772.323 128.293 772.323 129.744C772.323 131.195 772.173 132.464 771.875 133.552C771.576 134.64 771.149 135.547 770.595 136.272C770.04 136.976 769.368 137.509 768.579 137.872C767.811 138.213 766.957 138.384 766.019 138.384C764.739 138.384 763.704 138.085 762.915 137.488C762.147 136.891 761.539 136.091 761.091 135.088H760.867V138H756.771V114.32ZM764.291 135.12C765.485 135.12 766.403 134.757 767.043 134.032C767.704 133.307 768.035 132.315 768.035 131.056V128.432C768.035 127.173 767.704 126.181 767.043 125.456C766.403 124.731 765.485 124.368 764.291 124.368C763.352 124.368 762.541 124.603 761.859 125.072C761.197 125.52 760.867 126.213 760.867 127.152V132.336C760.867 133.275 761.197 133.979 761.859 134.448C762.541 134.896 763.352 135.12 764.291 135.12ZM786.454 135.088H786.294C785.931 135.984 785.366 136.763 784.598 137.424C783.851 138.064 782.806 138.384 781.462 138.384C779.841 138.384 778.518 137.851 777.494 136.784C776.491 135.696 775.99 134.149 775.99 132.144V121.488H780.086V131.568C780.086 133.957 781.121 135.152 783.19 135.152C783.595 135.152 783.99 135.099 784.374 134.992C784.779 134.885 785.131 134.725 785.43 134.512C785.75 134.277 785.995 134 786.166 133.68C786.358 133.36 786.454 132.976 786.454 132.528V121.488H790.55V138H786.454V135.088ZM803.658 138C802.079 138 800.916 137.584 800.17 136.752C799.423 135.92 799.05 134.843 799.05 133.52V124.72H794.25V121.488H797.514C798.175 121.488 798.644 121.36 798.922 121.104C799.199 120.827 799.338 120.347 799.338 119.664V115.664H803.146V121.488H809.866V124.72H803.146V134.768H809.866V138H803.658ZM822.845 138C821.266 138 820.104 137.584 819.357 136.752C818.61 135.92 818.237 134.843 818.237 133.52V124.72H813.437V121.488H816.701C817.362 121.488 817.832 121.36 818.109 121.104C818.386 120.827 818.525 120.347 818.525 119.664V115.664H822.333V121.488H829.053V124.72H822.333V134.768H829.053V138H822.845ZM840.913 138.384C839.654 138.384 838.523 138.181 837.521 137.776C836.539 137.371 835.697 136.795 834.993 136.048C834.31 135.301 833.777 134.395 833.393 133.328C833.03 132.261 832.849 131.067 832.849 129.744C832.849 128.421 833.03 127.227 833.393 126.16C833.777 125.093 834.31 124.187 834.993 123.44C835.697 122.693 836.539 122.117 837.521 121.712C838.523 121.307 839.654 121.104 840.913 121.104C842.15 121.104 843.27 121.307 844.273 121.712C845.275 122.117 846.118 122.693 846.801 123.44C847.505 124.187 848.038 125.093 848.401 126.16C848.785 127.227 848.977 128.421 848.977 129.744C848.977 131.067 848.785 132.261 848.401 133.328C848.038 134.395 847.505 135.301 846.801 136.048C846.118 136.795 845.275 137.371 844.273 137.776C843.27 138.181 842.15 138.384 840.913 138.384ZM840.913 135.248C842.086 135.248 843.014 134.896 843.697 134.192C844.379 133.467 844.721 132.411 844.721 131.024V128.464C844.721 127.077 844.379 126.032 843.697 125.328C843.014 124.603 842.086 124.24 840.913 124.24C839.739 124.24 838.811 124.603 838.129 125.328C837.446 126.032 837.105 127.077 837.105 128.464V131.024C837.105 132.411 837.446 133.467 838.129 134.192C838.811 134.896 839.739 135.248 840.913 135.248ZM852.9 138V121.488H856.996V124.4H857.156C857.519 123.504 858.073 122.736 858.82 122.096C859.588 121.435 860.644 121.104 861.988 121.104C863.609 121.104 864.921 121.648 865.924 122.736C866.948 123.803 867.46 125.339 867.46 127.344V138H863.364V127.92C863.364 125.531 862.329 124.336 860.26 124.336C859.833 124.336 859.428 124.389 859.044 124.496C858.66 124.603 858.308 124.773 857.988 125.008C857.689 125.221 857.444 125.488 857.252 125.808C857.081 126.128 856.996 126.512 856.996 126.96V138H852.9Z" fill="#438ADD"/>
<path d="M258.248 73.664H266.024C268.136 73.664 269.757 74.1973 270.888 75.264C272.04 76.3093 272.616 77.7387 272.616 79.552C272.616 80.832 272.296 81.856 271.656 82.624C271.037 83.392 270.152 83.9467 269 84.288V84.448C270.344 84.768 271.4 85.3547 272.168 86.208C272.957 87.04 273.352 88.224 273.352 89.76C273.352 90.6987 273.192 91.552 272.872 92.32C272.573 93.0667 272.136 93.7173 271.56 94.272C271.005 94.8267 270.322 95.2533 269.512 95.552C268.722 95.8507 267.826 96 266.824 96H258.248V73.664ZM265.544 92.96C266.717 92.96 267.592 92.7467 268.168 92.32C268.765 91.872 269.064 91.1147 269.064 90.048V88.992C269.064 87.9467 268.765 87.2107 268.168 86.784C267.592 86.336 266.717 86.112 265.544 86.112H262.344V92.96H265.544ZM265 83.2C266.13 83.2 266.962 82.9973 267.496 82.592C268.05 82.1867 268.328 81.4827 268.328 80.48V79.424C268.328 78.4213 268.05 77.7173 267.496 77.312C266.962 76.9067 266.13 76.704 265 76.704H262.344V83.2H265ZM284.475 96.384C283.216 96.384 282.086 96.1813 281.083 95.776C280.102 95.3707 279.259 94.7947 278.555 94.048C277.872 93.3013 277.339 92.3947 276.955 91.328C276.592 90.2613 276.411 89.0667 276.411 87.744C276.411 86.4213 276.592 85.2267 276.955 84.16C277.339 83.0933 277.872 82.1867 278.555 81.44C279.259 80.6933 280.102 80.1173 281.083 79.712C282.086 79.3067 283.216 79.104 284.475 79.104C285.712 79.104 286.832 79.3067 287.835 79.712C288.838 80.1173 289.68 80.6933 290.363 81.44C291.067 82.1867 291.6 83.0933 291.963 84.16C292.347 85.2267 292.539 86.4213 292.539 87.744C292.539 89.0667 292.347 90.2613 291.963 91.328C291.6 92.3947 291.067 93.3013 290.363 94.048C289.68 94.7947 288.838 95.3707 287.835 95.776C286.832 96.1813 285.712 96.384 284.475 96.384ZM284.475 93.248C285.648 93.248 286.576 92.896 287.259 92.192C287.942 91.4667 288.283 90.4107 288.283 89.024V86.464C288.283 85.0773 287.942 84.032 287.259 83.328C286.576 82.6027 285.648 82.24 284.475 82.24C283.302 82.24 282.374 82.6027 281.691 83.328C281.008 84.032 280.667 85.0773 280.667 86.464V89.024C280.667 90.4107 281.008 91.4667 281.691 92.192C282.374 92.896 283.302 93.248 284.475 93.248ZM304.783 96C303.204 96 302.041 95.584 301.295 94.752C300.548 93.92 300.175 92.8427 300.175 91.52V82.72H295.375V79.488H298.639C299.3 79.488 299.769 79.36 300.047 79.104C300.324 78.8267 300.463 78.3467 300.463 77.664V73.664H304.271V79.488H310.991V82.72H304.271V92.768H310.991V96H304.783ZM328.93 96C327.927 96 327.149 95.7547 326.594 95.264C326.061 94.752 325.741 94.048 325.634 93.152H325.474C325.175 94.176 324.589 94.976 323.714 95.552C322.839 96.1067 321.762 96.384 320.482 96.384C318.818 96.384 317.495 95.9467 316.514 95.072C315.533 94.1973 315.042 92.9813 315.042 91.424C315.042 88.096 317.485 86.432 322.37 86.432H325.282V85.344C325.282 84.2987 325.026 83.5093 324.514 82.976C324.002 82.4427 323.17 82.176 322.018 82.176C320.973 82.176 320.13 82.3787 319.49 82.784C318.85 83.1893 318.306 83.712 317.858 84.352L315.522 82.368C316.034 81.4507 316.855 80.6827 317.986 80.064C319.138 79.424 320.621 79.104 322.434 79.104C324.61 79.104 326.306 79.616 327.522 80.64C328.759 81.6427 329.378 83.1467 329.378 85.152V92.928H331.33V96H328.93ZM321.858 93.568C322.839 93.568 323.65 93.344 324.29 92.896C324.951 92.4267 325.282 91.7973 325.282 91.008V88.8H322.466C320.226 88.8 319.106 89.504 319.106 90.912V91.552C319.106 92.2133 319.351 92.7147 319.842 93.056C320.333 93.3973 321.005 93.568 321.858 93.568ZM342.038 96.384C340.779 96.384 339.648 96.1813 338.646 95.776C337.664 95.3707 336.822 94.7947 336.118 94.048C335.435 93.3013 334.902 92.3947 334.518 91.328C334.155 90.2613 333.974 89.0667 333.974 87.744C333.974 86.4213 334.155 85.2267 334.518 84.16C334.902 83.0933 335.435 82.1867 336.118 81.44C336.822 80.6933 337.664 80.1173 338.646 79.712C339.648 79.3067 340.779 79.104 342.038 79.104C343.275 79.104 344.395 79.3067 345.398 79.712C346.4 80.1173 347.243 80.6933 347.926 81.44C348.63 82.1867 349.163 83.0933 349.526 84.16C349.91 85.2267 350.102 86.4213 350.102 87.744C350.102 89.0667 349.91 90.2613 349.526 91.328C349.163 92.3947 348.63 93.3013 347.926 94.048C347.243 94.7947 346.4 95.3707 345.398 95.776C344.395 96.1813 343.275 96.384 342.038 96.384ZM342.038 93.248C343.211 93.248 344.139 92.896 344.822 92.192C345.504 91.4667 345.846 90.4107 345.846 89.024V86.464C345.846 85.0773 345.504 84.032 344.822 83.328C344.139 82.6027 343.211 82.24 342.038 82.24C340.864 82.24 339.936 82.6027 339.254 83.328C338.571 84.032 338.23 85.0773 338.23 86.464V89.024C338.23 90.4107 338.571 91.4667 339.254 92.192C339.936 92.896 340.864 93.248 342.038 93.248ZM365.641 85.664L365.833 79.2H365.545L361.225 90.688L356.905 79.2H356.617L356.809 85.664V96H353.161V73.664H358.153L361.257 81.888H361.481L364.617 73.664H369.289V96H365.641V85.664ZM386.493 96C385.49 96 384.711 95.7547 384.157 95.264C383.623 94.752 383.303 94.048 383.197 93.152H383.037C382.738 94.176 382.151 94.976 381.277 95.552C380.402 96.1067 379.325 96.384 378.045 96.384C376.381 96.384 375.058 95.9467 374.077 95.072C373.095 94.1973 372.605 92.9813 372.605 91.424C372.605 88.096 375.047 86.432 379.933 86.432H382.845V85.344C382.845 84.2987 382.589 83.5093 382.077 82.976C381.565 82.4427 380.733 82.176 379.581 82.176C378.535 82.176 377.693 82.3787 377.053 82.784C376.413 83.1893 375.869 83.712 375.421 84.352L373.085 82.368C373.597 81.4507 374.418 80.6827 375.549 80.064C376.701 79.424 378.183 79.104 379.997 79.104C382.173 79.104 383.869 79.616 385.085 80.64C386.322 81.6427 386.941 83.1467 386.941 85.152V92.928H388.892V96H386.493ZM379.421 93.568C380.402 93.568 381.213 93.344 381.853 92.896C382.514 92.4267 382.845 91.7973 382.845 91.008V88.8H380.029C377.789 88.8 376.669 89.504 376.669 90.912V91.552C376.669 92.2133 376.914 92.7147 377.405 93.056C377.895 93.3973 378.567 93.568 379.421 93.568ZM408.432 97.728C408.432 99.456 407.707 100.725 406.256 101.536C404.827 102.368 402.587 102.784 399.536 102.784C398.043 102.784 396.795 102.688 395.792 102.496C394.789 102.325 393.979 102.069 393.36 101.728C392.763 101.387 392.336 100.971 392.08 100.48C391.824 100.011 391.696 99.4773 391.696 98.88C391.696 97.9627 391.963 97.2587 392.496 96.768C393.029 96.2773 393.776 95.9147 394.736 95.68V95.424C394.096 95.2107 393.584 94.912 393.2 94.528C392.837 94.144 392.656 93.6107 392.656 92.928C392.656 92.1173 392.923 91.5093 393.456 91.104C394.011 90.6987 394.736 90.3893 395.632 90.176V90.016C394.651 89.5467 393.883 88.8853 393.328 88.032C392.773 87.1787 392.496 86.144 392.496 84.928C392.496 84.0107 392.656 83.2 392.976 82.496C393.317 81.7707 393.787 81.1627 394.384 80.672C395.003 80.16 395.739 79.776 396.592 79.52C397.445 79.2427 398.395 79.104 399.44 79.104C400.549 79.104 401.552 79.2533 402.448 79.552V78.848C402.448 78.208 402.651 77.6747 403.056 77.248C403.483 76.8213 404.069 76.608 404.816 76.608H407.792V79.68H403.888V80.224C404.699 80.7147 405.317 81.3547 405.744 82.144C406.192 82.912 406.416 83.84 406.416 84.928C406.416 85.8453 406.245 86.6667 405.904 87.392C405.584 88.1173 405.115 88.7253 404.496 89.216C403.899 89.7067 403.163 90.0907 402.288 90.368C401.435 90.624 400.485 90.752 399.44 90.752C399.013 90.752 398.597 90.7413 398.192 90.72C397.808 90.6773 397.435 90.6027 397.072 90.496C396.773 90.6027 396.485 90.7733 396.208 91.008C395.931 91.2427 395.792 91.552 395.792 91.936C395.792 92.448 396.037 92.768 396.528 92.896C397.019 93.0027 397.605 93.056 398.288 93.056H402.032C403.184 93.056 404.165 93.1733 404.976 93.408C405.787 93.6213 406.448 93.9413 406.96 94.368C407.472 94.7733 407.845 95.264 408.08 95.84C408.315 96.416 408.432 97.0453 408.432 97.728ZM404.592 98.016C404.592 97.5253 404.389 97.1307 403.984 96.832C403.6 96.5547 402.875 96.416 401.808 96.416H396.112C395.472 96.7787 395.152 97.312 395.152 98.016C395.152 98.592 395.387 99.072 395.856 99.456C396.347 99.84 397.168 100.032 398.32 100.032H400.976C403.387 100.032 404.592 99.36 404.592 98.016ZM399.44 88.064C400.485 88.064 401.253 87.8187 401.744 87.328C402.235 86.816 402.48 86.1547 402.48 85.344V84.512C402.48 83.7013 402.235 83.0507 401.744 82.56C401.253 82.048 400.485 81.792 399.44 81.792C398.416 81.792 397.659 82.048 397.168 82.56C396.677 83.0507 396.432 83.7013 396.432 84.512V85.344C396.432 86.1547 396.677 86.816 397.168 87.328C397.659 87.8187 398.416 88.064 399.44 88.064ZM419.812 76.928C418.852 76.928 418.169 76.7253 417.764 76.32C417.38 75.9147 417.188 75.424 417.188 74.848V74.08C417.188 73.504 417.38 73.0133 417.764 72.608C418.169 72.2027 418.852 72 419.812 72C420.772 72 421.444 72.2027 421.828 72.608C422.233 73.0133 422.436 73.504 422.436 74.08V74.848C422.436 75.424 422.233 75.9147 421.828 76.32C421.444 76.7253 420.772 76.928 419.812 76.928ZM412.324 92.768H417.764V82.72H412.324V79.488H421.86V92.768H426.916V96H412.324V92.768ZM438.615 96.384C437.356 96.384 436.226 96.1813 435.223 95.776C434.22 95.3707 433.367 94.7947 432.663 94.048C431.98 93.3013 431.447 92.3947 431.063 91.328C430.7 90.2613 430.519 89.0667 430.519 87.744C430.519 86.4213 430.7 85.2267 431.063 84.16C431.447 83.0933 431.98 82.1867 432.663 81.44C433.367 80.6933 434.21 80.1173 435.191 79.712C436.194 79.3067 437.324 79.104 438.583 79.104C440.332 79.104 441.74 79.4667 442.807 80.192C443.874 80.9173 444.684 81.8773 445.239 83.072L442.071 84.8C441.772 84.096 441.346 83.5307 440.791 83.104C440.258 82.656 439.522 82.432 438.583 82.432C437.367 82.432 436.428 82.784 435.767 83.488C435.127 84.192 434.807 85.152 434.807 86.368V89.12C434.807 90.3147 435.127 91.2747 435.767 92C436.428 92.704 437.388 93.056 438.647 93.056C439.628 93.056 440.407 92.832 440.983 92.384C441.58 91.936 442.06 91.3387 442.423 90.592L445.495 92.416C444.94 93.5893 444.098 94.5493 442.967 95.296C441.858 96.0213 440.407 96.384 438.615 96.384ZM457.163 96.384C455.904 96.384 454.773 96.1813 453.771 95.776C452.789 95.3707 451.947 94.7947 451.243 94.048C450.56 93.3013 450.027 92.3947 449.643 91.328C449.28 90.2613 449.099 89.0667 449.099 87.744C449.099 86.4213 449.28 85.2267 449.643 84.16C450.027 83.0933 450.56 82.1867 451.243 81.44C451.947 80.6933 452.789 80.1173 453.771 79.712C454.773 79.3067 455.904 79.104 457.163 79.104C458.4 79.104 459.52 79.3067 460.523 79.712C461.525 80.1173 462.368 80.6933 463.051 81.44C463.755 82.1867 464.288 83.0933 464.651 84.16C465.035 85.2267 465.227 86.4213 465.227 87.744C465.227 89.0667 465.035 90.2613 464.651 91.328C464.288 92.3947 463.755 93.3013 463.051 94.048C462.368 94.7947 461.525 95.3707 460.523 95.776C459.52 96.1813 458.4 96.384 457.163 96.384ZM457.163 93.248C458.336 93.248 459.264 92.896 459.947 92.192C460.629 91.4667 460.971 90.4107 460.971 89.024V86.464C460.971 85.0773 460.629 84.032 459.947 83.328C459.264 82.6027 458.336 82.24 457.163 82.24C455.989 82.24 455.061 82.6027 454.379 83.328C453.696 84.032 453.355 85.0773 453.355 86.464V89.024C453.355 90.4107 453.696 91.4667 454.379 92.192C455.061 92.896 455.989 93.248 457.163 93.248Z" fill="#F4E498"/>
<path d="M472.606 86.048C472.606 84.4907 472.777 82.9973 473.118 81.568C473.481 80.1173 473.961 78.7733 474.558 77.536C475.177 76.2987 475.891 75.1893 476.702 74.208C477.513 73.2053 478.366 72.3627 479.262 71.68H483.358C482.398 72.3627 481.481 73.1627 480.606 74.08C479.731 74.9973 478.963 76.0107 478.302 77.12C477.641 78.208 477.107 79.3813 476.702 80.64C476.318 81.8773 476.126 83.168 476.126 84.512V87.584C476.126 88.928 476.318 90.2293 476.702 91.488C477.107 92.7253 477.641 93.8987 478.302 95.008C478.963 96.096 479.731 97.0987 480.606 98.016C481.481 98.9333 482.398 99.7333 483.358 100.416H479.262C478.366 99.7547 477.513 98.9227 476.702 97.92C475.891 96.9173 475.177 95.7973 474.558 94.56C473.961 93.3227 473.481 91.9893 473.118 90.56C472.777 89.1093 472.606 87.6053 472.606 86.048ZM499.282 86.048C499.282 87.6053 499.1 89.1093 498.738 90.56C498.396 91.9893 497.916 93.3227 497.298 94.56C496.7 95.7973 495.996 96.9173 495.186 97.92C494.375 98.9227 493.522 99.7547 492.626 100.416H488.53C489.49 99.7333 490.407 98.9333 491.282 98.016C492.156 97.0987 492.924 96.096 493.586 95.008C494.247 93.8987 494.77 92.7253 495.154 91.488C495.559 90.2293 495.762 88.928 495.762 87.584V84.512C495.762 83.168 495.559 81.8773 495.154 80.64C494.77 79.3813 494.247 78.208 493.586 77.12C492.924 76.0107 492.156 74.9973 491.282 74.08C490.407 73.1627 489.49 72.3627 488.53 71.68H492.626C493.522 72.3627 494.375 73.2053 495.186 74.208C495.996 75.1893 496.7 76.2987 497.298 77.536C497.916 78.7733 498.396 80.1173 498.738 81.568C499.1 82.9973 499.282 84.4907 499.282 86.048ZM534.777 100.416C533.497 100.416 532.569 100.117 531.993 99.52C531.417 98.9227 531.129 98.1547 531.129 97.216V95.616C531.129 95.0613 531.182 94.5813 531.289 94.176C531.417 93.7493 531.566 93.376 531.737 93.056C531.907 92.736 532.099 92.448 532.312 92.192C532.526 91.936 532.729 91.6907 532.921 91.456C533.283 91.0293 533.529 90.6667 533.657 90.368C533.806 90.048 533.881 89.7173 533.881 89.376C533.881 88.096 532.643 87.456 530.169 87.456H527.385V84.64H530.169C532.643 84.64 533.881 84 533.881 82.72C533.881 82.3787 533.806 82.0587 533.657 81.76C533.529 81.44 533.283 81.0667 532.921 80.64C532.729 80.4053 532.526 80.16 532.312 79.904C532.099 79.648 531.907 79.36 531.737 79.04C531.566 78.72 531.417 78.3573 531.289 77.952C531.182 77.5253 531.129 77.0347 531.129 76.48V74.88C531.129 73.9413 531.417 73.1733 531.993 72.576C532.569 71.9787 533.497 71.68 534.777 71.68H540.441V74.496H534.457V76.288C534.457 77.12 534.585 77.76 534.841 78.208C535.097 78.656 535.395 79.0933 535.737 79.52C536.099 79.968 536.441 80.448 536.761 80.96C537.081 81.472 537.241 82.0693 537.241 82.752C537.241 83.648 536.931 84.3733 536.313 84.928C535.694 85.4613 534.777 85.8027 533.561 85.952V86.144C534.777 86.2933 535.694 86.6453 536.313 87.2C536.931 87.7333 537.241 88.448 537.241 89.344C537.241 90.0267 537.081 90.624 536.761 91.136C536.441 91.648 536.099 92.128 535.737 92.576C535.395 93.0027 535.097 93.44 534.841 93.888C534.585 94.336 534.457 94.976 534.457 95.808V97.6H540.441V100.416H534.777ZM419.364 138.384C416.441 138.384 414.276 137.381 412.868 135.376C411.481 133.371 410.788 130.523 410.788 126.832C410.788 123.163 411.481 120.325 412.868 118.32C414.276 116.293 416.441 115.28 419.364 115.28C420.473 115.28 421.444 115.429 422.276 115.728C423.129 116.027 423.865 116.443 424.484 116.976C425.102 117.488 425.614 118.117 426.02 118.864C426.425 119.589 426.745 120.389 426.98 121.264L423.14 122.352C422.99 121.84 422.82 121.36 422.628 120.912C422.436 120.464 422.19 120.08 421.892 119.76C421.614 119.419 421.262 119.163 420.836 118.992C420.409 118.8 419.897 118.704 419.3 118.704C417.849 118.704 416.804 119.259 416.164 120.368C415.545 121.477 415.236 122.992 415.236 124.912V128.752C415.236 130.672 415.545 132.187 416.164 133.296C416.804 134.405 417.849 134.96 419.3 134.96C419.897 134.96 420.409 134.875 420.836 134.704C421.262 134.512 421.614 134.256 421.892 133.936C422.19 133.595 422.436 133.2 422.628 132.752C422.82 132.304 422.99 131.824 423.14 131.312L426.98 132.4C426.745 133.275 426.425 134.085 426.02 134.832C425.614 135.557 425.102 136.187 424.484 136.72C423.865 137.232 423.129 137.637 422.276 137.936C421.444 138.235 420.473 138.384 419.364 138.384ZM437.975 138.384C436.716 138.384 435.586 138.181 434.583 137.776C433.602 137.371 432.759 136.795 432.055 136.048C431.372 135.301 430.839 134.395 430.455 133.328C430.092 132.261 429.911 131.067 429.911 129.744C429.911 128.421 430.092 127.227 430.455 126.16C430.839 125.093 431.372 124.187 432.055 123.44C432.759 122.693 433.602 122.117 434.583 121.712C435.586 121.307 436.716 121.104 437.975 121.104C439.212 121.104 440.332 121.307 441.335 121.712C442.338 122.117 443.18 122.693 443.863 123.44C444.567 124.187 445.1 125.093 445.463 126.16C445.847 127.227 446.039 128.421 446.039 129.744C446.039 131.067 445.847 132.261 445.463 133.328C445.1 134.395 444.567 135.301 443.863 136.048C443.18 136.795 442.338 137.371 441.335 137.776C440.332 138.181 439.212 138.384 437.975 138.384ZM437.975 135.248C439.148 135.248 440.076 134.896 440.759 134.192C441.442 133.467 441.783 132.411 441.783 131.024V128.464C441.783 127.077 441.442 126.032 440.759 125.328C440.076 124.603 439.148 124.24 437.975 124.24C436.802 124.24 435.874 124.603 435.191 125.328C434.508 126.032 434.167 127.077 434.167 128.464V131.024C434.167 132.411 434.508 133.467 435.191 134.192C435.874 134.896 436.802 135.248 437.975 135.248ZM449.963 138V121.488H454.059V124.4H454.219C454.581 123.504 455.136 122.736 455.883 122.096C456.651 121.435 457.707 121.104 459.051 121.104C460.672 121.104 461.984 121.648 462.987 122.736C464.011 123.803 464.523 125.339 464.523 127.344V138H460.427V127.92C460.427 125.531 459.392 124.336 457.323 124.336C456.896 124.336 456.491 124.389 456.107 124.496C455.723 124.603 455.371 124.773 455.051 125.008C454.752 125.221 454.507 125.488 454.315 125.808C454.144 126.128 454.059 126.512 454.059 126.96V138H449.963ZM469.79 141.168H476.606V124.72H469.662V121.488H480.702V139.92C480.702 141.243 480.329 142.32 479.582 143.152C478.835 143.984 477.673 144.4 476.094 144.4H469.79V141.168ZM478.686 118.928C477.726 118.928 477.043 118.725 476.638 118.32C476.254 117.915 476.062 117.424 476.062 116.848V116.08C476.062 115.504 476.254 115.013 476.638 114.608C477.043 114.203 477.726 114 478.686 114C479.646 114 480.318 114.203 480.702 114.608C481.107 115.013 481.31 115.504 481.31 116.08V116.848C481.31 117.424 481.107 117.915 480.702 118.32C480.318 118.725 479.646 118.928 478.686 118.928ZM498.642 135.088H498.482C498.119 135.984 497.554 136.763 496.786 137.424C496.039 138.064 494.994 138.384 493.65 138.384C492.028 138.384 490.706 137.851 489.682 136.784C488.679 135.696 488.178 134.149 488.178 132.144V121.488H492.274V131.568C492.274 133.957 493.308 135.152 495.378 135.152C495.783 135.152 496.178 135.099 496.562 134.992C496.967 134.885 497.319 134.725 497.618 134.512C497.938 134.277 498.183 134 498.354 133.68C498.546 133.36 498.642 132.976 498.642 132.528V121.488H502.738V138H498.642V135.088ZM507.525 134.768H511.621V124.72H507.525V121.488H515.717V126H515.973C516.122 125.424 516.325 124.869 516.581 124.336C516.858 123.781 517.2 123.301 517.605 122.896C518.032 122.469 518.544 122.128 519.141 121.872C519.738 121.616 520.453 121.488 521.285 121.488H523.077V125.328H519.685C518.448 125.328 517.477 125.691 516.773 126.416C516.069 127.141 515.717 128.069 515.717 129.2V134.768H521.445V138H507.525V134.768ZM534.297 138.384C532.974 138.384 531.801 138.181 530.777 137.776C529.753 137.371 528.889 136.795 528.185 136.048C527.502 135.301 526.979 134.405 526.617 133.36C526.254 132.293 526.073 131.099 526.073 129.776C526.073 128.432 526.254 127.227 526.617 126.16C527.001 125.093 527.534 124.187 528.217 123.44C528.899 122.693 529.721 122.117 530.681 121.712C531.662 121.307 532.761 121.104 533.977 121.104C535.171 121.104 536.249 121.307 537.209 121.712C538.169 122.096 538.979 122.651 539.641 123.376C540.323 124.101 540.846 124.976 541.208 126C541.571 127.024 541.753 128.155 541.753 129.392V130.736H530.169V131.152C530.169 132.347 530.542 133.317 531.289 134.064C532.035 134.789 533.081 135.152 534.425 135.152C535.449 135.152 536.323 134.949 537.049 134.544C537.795 134.117 538.414 133.563 538.905 132.88L541.241 135.216C540.643 136.091 539.769 136.837 538.617 137.456C537.486 138.075 536.046 138.384 534.297 138.384ZM534.009 124.112C532.857 124.112 531.929 124.475 531.225 125.2C530.521 125.925 530.169 126.885 530.169 128.08V128.304H537.657V128.016C537.657 126.821 537.326 125.872 536.665 125.168C536.025 124.464 535.139 124.112 534.009 124.112ZM578.368 138C577.365 138 576.586 137.755 576.032 137.264C575.498 136.752 575.178 136.048 575.072 135.152H574.912C574.613 136.176 574.026 136.976 573.152 137.552C572.277 138.107 571.2 138.384 569.92 138.384C568.256 138.384 566.933 137.947 565.952 137.072C564.97 136.197 564.48 134.981 564.48 133.424C564.48 130.096 566.922 128.432 571.808 128.432H574.72V127.344C574.72 126.299 574.464 125.509 573.952 124.976C573.44 124.443 572.608 124.176 571.456 124.176C570.41 124.176 569.568 124.379 568.928 124.784C568.288 125.189 567.744 125.712 567.296 126.352L564.96 124.368C565.472 123.451 566.293 122.683 567.424 122.064C568.576 121.424 570.058 121.104 571.872 121.104C574.048 121.104 575.744 121.616 576.96 122.64C578.197 123.643 578.816 125.147 578.816 127.152V134.928H580.767V138H578.368ZM571.296 135.568C572.277 135.568 573.088 135.344 573.728 134.896C574.389 134.427 574.72 133.797 574.72 133.008V130.8H571.904C569.664 130.8 568.544 131.504 568.544 132.912V133.552C568.544 134.213 568.789 134.715 569.28 135.056C569.77 135.397 570.442 135.568 571.296 135.568ZM615.079 127.664L615.271 121.2H614.983L610.663 132.688L606.343 121.2H606.055L606.247 127.664V138H602.599V115.664H607.591L610.695 123.888H610.919L614.055 115.664H618.727V138H615.079V127.664ZM635.93 138C634.927 138 634.149 137.755 633.594 137.264C633.061 136.752 632.741 136.048 632.634 135.152H632.474C632.175 136.176 631.589 136.976 630.714 137.552C629.839 138.107 628.762 138.384 627.482 138.384C625.818 138.384 624.495 137.947 623.514 137.072C622.533 136.197 622.042 134.981 622.042 133.424C622.042 130.096 624.485 128.432 629.37 128.432H632.282V127.344C632.282 126.299 632.026 125.509 631.514 124.976C631.002 124.443 630.17 124.176 629.018 124.176C627.973 124.176 627.13 124.379 626.49 124.784C625.85 125.189 625.306 125.712 624.858 126.352L622.522 124.368C623.034 123.451 623.855 122.683 624.986 122.064C626.138 121.424 627.621 121.104 629.434 121.104C631.61 121.104 633.306 121.616 634.522 122.64C635.759 123.643 636.378 125.147 636.378 127.152V134.928H638.33V138H635.93ZM628.858 135.568C629.839 135.568 630.65 135.344 631.29 134.896C631.951 134.427 632.282 133.797 632.282 133.008V130.8H629.466C627.226 130.8 626.106 131.504 626.106 132.912V133.552C626.106 134.213 626.351 134.715 626.842 135.056C627.333 135.397 628.005 135.568 628.858 135.568ZM657.87 139.728C657.87 141.456 657.144 142.725 655.694 143.536C654.264 144.368 652.024 144.784 648.974 144.784C647.48 144.784 646.232 144.688 645.23 144.496C644.227 144.325 643.416 144.069 642.798 143.728C642.2 143.387 641.774 142.971 641.518 142.48C641.262 142.011 641.134 141.477 641.134 140.88C641.134 139.963 641.4 139.259 641.934 138.768C642.467 138.277 643.214 137.915 644.174 137.68V137.424C643.534 137.211 643.022 136.912 642.638 136.528C642.275 136.144 642.094 135.611 642.094 134.928C642.094 134.117 642.36 133.509 642.894 133.104C643.448 132.699 644.174 132.389 645.07 132.176V132.016C644.088 131.547 643.32 130.885 642.766 130.032C642.211 129.179 641.934 128.144 641.934 126.928C641.934 126.011 642.094 125.2 642.414 124.496C642.755 123.771 643.224 123.163 643.822 122.672C644.44 122.16 645.176 121.776 646.03 121.52C646.883 121.243 647.832 121.104 648.878 121.104C649.987 121.104 650.99 121.253 651.886 121.552V120.848C651.886 120.208 652.088 119.675 652.494 119.248C652.92 118.821 653.507 118.608 654.254 118.608H657.23V121.68H653.326V122.224C654.136 122.715 654.755 123.355 655.182 124.144C655.63 124.912 655.854 125.84 655.854 126.928C655.854 127.845 655.683 128.667 655.342 129.392C655.022 130.117 654.552 130.725 653.934 131.216C653.336 131.707 652.6 132.091 651.726 132.368C650.872 132.624 649.923 132.752 648.878 132.752C648.451 132.752 648.035 132.741 647.63 132.72C647.246 132.677 646.872 132.603 646.51 132.496C646.211 132.603 645.923 132.773 645.646 133.008C645.368 133.243 645.23 133.552 645.23 133.936C645.23 134.448 645.475 134.768 645.966 134.896C646.456 135.003 647.043 135.056 647.726 135.056H651.47C652.622 135.056 653.603 135.173 654.414 135.408C655.224 135.621 655.886 135.941 656.398 136.368C656.91 136.773 657.283 137.264 657.517 137.84C657.752 138.416 657.87 139.045 657.87 139.728ZM654.03 140.016C654.03 139.525 653.827 139.131 653.422 138.832C653.038 138.555 652.312 138.416 651.246 138.416H645.55C644.91 138.779 644.59 139.312 644.59 140.016C644.59 140.592 644.824 141.072 645.294 141.456C645.784 141.84 646.606 142.032 647.758 142.032H650.414C652.824 142.032 654.03 141.36 654.03 140.016ZM648.878 130.064C649.923 130.064 650.691 129.819 651.182 129.328C651.672 128.816 651.918 128.155 651.918 127.344V126.512C651.918 125.701 651.672 125.051 651.182 124.56C650.691 124.048 649.923 123.792 648.878 123.792C647.854 123.792 647.096 124.048 646.606 124.56C646.115 125.051 645.87 125.701 645.87 126.512V127.344C645.87 128.155 646.115 128.816 646.606 129.328C647.096 129.819 647.854 130.064 648.878 130.064ZM669.249 118.928C668.289 118.928 667.606 118.725 667.201 118.32C666.817 117.915 666.625 117.424 666.625 116.848V116.08C666.625 115.504 666.817 115.013 667.201 114.608C667.606 114.203 668.289 114 669.249 114C670.209 114 670.881 114.203 671.265 114.608C671.67 115.013 671.873 115.504 671.873 116.08V116.848C671.873 117.424 671.67 117.915 671.265 118.32C670.881 118.725 670.209 118.928 669.249 118.928ZM661.761 134.768H667.201V124.72H661.761V121.488H671.297V134.768H676.353V138H661.761V134.768ZM693.493 138C692.49 138 691.711 137.755 691.157 137.264C690.623 136.752 690.303 136.048 690.197 135.152H690.037C689.738 136.176 689.151 136.976 688.277 137.552C687.402 138.107 686.325 138.384 685.045 138.384C683.381 138.384 682.058 137.947 681.077 137.072C680.095 136.197 679.605 134.981 679.605 133.424C679.605 130.096 682.047 128.432 686.933 128.432H689.845V127.344C689.845 126.299 689.589 125.509 689.077 124.976C688.565 124.443 687.733 124.176 686.581 124.176C685.535 124.176 684.693 124.379 684.053 124.784C683.413 125.189 682.869 125.712 682.421 126.352L680.085 124.368C680.597 123.451 681.418 122.683 682.549 122.064C683.701 121.424 685.183 121.104 686.997 121.104C689.173 121.104 690.869 121.616 692.085 122.64C693.322 123.643 693.941 125.147 693.941 127.152V134.928H695.892V138H693.493ZM686.421 135.568C687.402 135.568 688.213 135.344 688.853 134.896C689.514 134.427 689.845 133.797 689.845 133.008V130.8H687.029C684.789 130.8 683.669 131.504 683.669 132.912V133.552C683.669 134.213 683.914 134.715 684.405 135.056C684.895 135.397 685.567 135.568 686.421 135.568ZM705.928 130.32L704.36 122.16V115.664H708.84V122.16L707.272 130.32H705.928ZM706.6 138.352C705.533 138.352 704.776 138.128 704.328 137.68C703.901 137.232 703.688 136.688 703.688 136.048V135.152C703.688 134.512 703.901 133.968 704.328 133.52C704.776 133.072 705.533 132.848 706.6 132.848C707.667 132.848 708.413 133.072 708.84 133.52C709.288 133.968 709.512 134.512 709.512 135.152V136.048C709.512 136.688 709.288 137.232 708.84 137.68C708.413 138.128 707.667 138.352 706.6 138.352ZM896.427 132.784H901.931L897.739 142.736H894.635L896.427 132.784ZM898.475 126.992C897.366 126.992 896.576 126.757 896.107 126.288C895.638 125.819 895.403 125.243 895.403 124.56V123.6C895.403 122.917 895.638 122.341 896.107 121.872C896.576 121.403 897.366 121.168 898.475 121.168C899.584 121.168 900.374 121.403 900.843 121.872C901.312 122.341 901.547 122.917 901.547 123.6V124.56C901.547 125.243 901.312 125.819 900.843 126.288C900.374 126.757 899.584 126.992 898.475 126.992ZM130.111 155.68C131.391 155.68 132.319 155.979 132.895 156.576C133.471 157.173 133.759 157.941 133.759 158.88V160.48C133.759 161.035 133.695 161.525 133.567 161.952C133.46 162.357 133.322 162.72 133.151 163.04C132.98 163.36 132.788 163.648 132.575 163.904C132.362 164.16 132.159 164.405 131.967 164.64C131.604 165.067 131.348 165.44 131.199 165.76C131.071 166.059 131.007 166.379 131.007 166.72C131.007 168 132.244 168.64 134.719 168.64H137.503V171.456H134.719C132.244 171.456 131.007 172.096 131.007 173.376C131.007 173.717 131.071 174.048 131.199 174.368C131.348 174.667 131.604 175.029 131.967 175.456C132.159 175.691 132.362 175.936 132.575 176.192C132.788 176.448 132.98 176.736 133.151 177.056C133.322 177.376 133.46 177.749 133.567 178.176C133.695 178.581 133.759 179.061 133.759 179.616V181.216C133.759 182.155 133.471 182.923 132.895 183.52C132.319 184.117 131.391 184.416 130.111 184.416H124.447V181.6H130.431V179.808C130.431 178.976 130.303 178.336 130.047 177.888C129.791 177.44 129.492 177.003 129.151 176.576C128.788 176.128 128.447 175.648 128.127 175.136C127.807 174.624 127.647 174.027 127.647 173.344C127.647 172.448 127.956 171.733 128.575 171.2C129.194 170.645 130.111 170.293 131.327 170.144V169.952C130.111 169.803 129.194 169.461 128.575 168.928C127.956 168.373 127.647 167.648 127.647 166.752C127.647 166.069 127.807 165.472 128.127 164.96C128.447 164.448 128.788 163.968 129.151 163.52C129.492 163.093 129.791 162.656 130.047 162.208C130.303 161.76 130.431 161.12 130.431 160.288V158.496H124.447V155.68H130.111Z" fill="white"/>
<path d="M123.775 134.768H127.871V124.72H123.775V121.488H131.967V126H132.223C132.372 125.424 132.575 124.869 132.831 124.336C133.108 123.781 133.45 123.301 133.855 122.896C134.282 122.469 134.794 122.128 135.391 121.872C135.988 121.616 136.703 121.488 137.535 121.488H139.327V125.328H135.935C134.698 125.328 133.727 125.691 133.023 126.416C132.319 127.141 131.967 128.069 131.967 129.2V134.768H137.695V138H123.775V134.768ZM150.547 138.384C149.224 138.384 148.051 138.181 147.027 137.776C146.003 137.371 145.139 136.795 144.435 136.048C143.752 135.301 143.229 134.405 142.867 133.36C142.504 132.293 142.323 131.099 142.323 129.776C142.323 128.432 142.504 127.227 142.867 126.16C143.251 125.093 143.784 124.187 144.467 123.44C145.149 122.693 145.971 122.117 146.931 121.712C147.912 121.307 149.011 121.104 150.227 121.104C151.421 121.104 152.499 121.307 153.459 121.712C154.419 122.096 155.229 122.651 155.891 123.376C156.573 124.101 157.096 124.976 157.458 126C157.821 127.024 158.003 128.155 158.003 129.392V130.736H146.419V131.152C146.419 132.347 146.792 133.317 147.539 134.064C148.285 134.789 149.331 135.152 150.675 135.152C151.699 135.152 152.573 134.949 153.299 134.544C154.045 134.117 154.664 133.563 155.155 132.88L157.491 135.216C156.893 136.091 156.019 136.837 154.867 137.456C153.736 138.075 152.296 138.384 150.547 138.384ZM150.259 124.112C149.107 124.112 148.179 124.475 147.475 125.2C146.771 125.925 146.419 126.885 146.419 128.08V128.304H153.907V128.016C153.907 126.821 153.576 125.872 152.915 125.168C152.275 124.464 151.389 124.112 150.259 124.112ZM170.47 138C168.891 138 167.729 137.584 166.982 136.752C166.235 135.92 165.862 134.843 165.862 133.52V124.72H161.062V121.488H164.326C164.987 121.488 165.457 121.36 165.734 121.104C166.011 120.827 166.15 120.347 166.15 119.664V115.664H169.958V121.488H176.678V124.72H169.958V134.768H176.678V138H170.47ZM191.642 135.088H191.482C191.119 135.984 190.554 136.763 189.786 137.424C189.039 138.064 187.994 138.384 186.65 138.384C185.028 138.384 183.706 137.851 182.682 136.784C181.679 135.696 181.178 134.149 181.178 132.144V121.488H185.274V131.568C185.274 133.957 186.308 135.152 188.378 135.152C188.783 135.152 189.178 135.099 189.562 134.992C189.967 134.885 190.319 134.725 190.618 134.512C190.938 134.277 191.183 134 191.354 133.68C191.546 133.36 191.642 132.976 191.642 132.528V121.488H195.738V138H191.642V135.088ZM200.525 134.768H204.621V124.72H200.525V121.488H208.717V126H208.973C209.122 125.424 209.325 124.869 209.581 124.336C209.858 123.781 210.2 123.301 210.605 122.896C211.032 122.469 211.544 122.128 212.141 121.872C212.738 121.616 213.453 121.488 214.285 121.488H216.077V125.328H212.685C211.448 125.328 210.477 125.691 209.773 126.416C209.069 127.141 208.717 128.069 208.717 129.2V134.768H214.445V138H200.525V134.768ZM219.713 138V121.488H223.809V124.4H223.969C224.331 123.504 224.886 122.736 225.633 122.096C226.401 121.435 227.457 121.104 228.801 121.104C230.422 121.104 231.734 121.648 232.737 122.736C233.761 123.803 234.273 125.339 234.273 127.344V138H230.177V127.92C230.177 125.531 229.142 124.336 227.073 124.336C226.646 124.336 226.241 124.389 225.857 124.496C225.473 124.603 225.121 124.773 224.801 125.008C224.502 125.221 224.257 125.488 224.065 125.808C223.894 126.128 223.809 126.512 223.809 126.96V138H219.713Z" fill="#E262EE"/>
<path d="M258.408 130.16V126.32L272.168 118.768V122.672L262.12 128.112V128.368L272.168 133.808V137.712L258.408 130.16ZM392.72 133.808L402.768 128.368V128.112L392.72 122.672V118.768L406.48 126.32V130.16L392.72 137.712V133.808ZM718.908 130.16V126.32L732.668 118.768V122.672L722.62 128.112V128.368L732.668 133.808V137.712L718.908 130.16ZM737.871 142.416L748.399 113.68H752.079L741.551 142.416H737.871ZM872.408 133.808L882.456 128.368V128.112L872.408 122.672V118.768L886.168 126.32V130.16L872.408 137.712V133.808Z" fill="#CBC2C2"/>
<path d="M34.6625 46.4084V43.8404H39.2705V31.9364H39.0545L35.4065 36.2564L33.4385 34.6004L37.5905 29.6564H42.4145V43.8404H46.2065V46.4084H34.6625Z" fill="white"/>
<path d="M45.6785 87.8872H33.8705V84.9592L39.2465 80.3752C40.1425 79.6072 40.8065 78.9112 41.2385 78.2872C41.6705 77.6472 41.8865 76.9672 41.8865 76.2472V76.0072C41.8865 75.2072 41.6625 74.5992 41.2145 74.1832C40.7665 73.7672 40.1425 73.5592 39.3425 73.5592C38.4625 73.5592 37.7905 73.7992 37.3265 74.2792C36.8625 74.7592 36.5265 75.3512 36.3185 76.0552L33.5825 75.0232C33.7585 74.4792 34.0065 73.9592 34.3265 73.4632C34.6625 72.9512 35.0705 72.5032 35.5505 72.1192C36.0465 71.7352 36.6305 71.4312 37.3025 71.2072C37.9745 70.9672 38.7425 70.8472 39.6065 70.8472C40.5025 70.8472 41.2945 70.9752 41.9825 71.2312C42.6865 71.4712 43.2785 71.8152 43.7585 72.2632C44.2385 72.6952 44.5985 73.2152 44.8385 73.8232C45.0945 74.4312 45.2225 75.0952 45.2225 75.8152C45.2225 76.5032 45.1105 77.1352 44.8865 77.7112C44.6785 78.2872 44.3825 78.8392 43.9985 79.3672C43.6145 79.8792 43.1585 80.3752 42.6305 80.8552C42.1185 81.3352 41.5585 81.8152 40.9505 82.2952L37.3025 85.2472H45.6785V87.8872Z" fill="white"/>
<path d="M39.0065 123.396C40.0145 123.396 40.7505 123.196 41.2145 122.796C41.6945 122.396 41.9345 121.892 41.9345 121.284V121.116C41.9345 120.428 41.7025 119.892 41.2385 119.508C40.7905 119.124 40.1665 118.932 39.3665 118.932C38.5985 118.932 37.9265 119.108 37.3505 119.46C36.7745 119.812 36.2785 120.308 35.8625 120.948L33.8225 119.124C34.1105 118.74 34.4305 118.38 34.7825 118.044C35.1505 117.692 35.5585 117.396 36.0065 117.156C36.4705 116.9 36.9825 116.7 37.5425 116.556C38.1025 116.412 38.7425 116.34 39.4625 116.34C40.3105 116.34 41.0865 116.444 41.7905 116.652C42.5105 116.844 43.1185 117.132 43.6145 117.516C44.1265 117.9 44.5185 118.364 44.7905 118.908C45.0785 119.436 45.2225 120.036 45.2225 120.708C45.2225 121.236 45.1345 121.716 44.9585 122.148C44.7825 122.58 44.5425 122.956 44.2385 123.276C43.9505 123.596 43.6065 123.86 43.2065 124.068C42.8225 124.276 42.4065 124.428 41.9585 124.524V124.644C42.4545 124.74 42.9185 124.9 43.3505 125.124C43.7825 125.332 44.1585 125.604 44.4785 125.94C44.7985 126.276 45.0545 126.684 45.2465 127.164C45.4385 127.628 45.5345 128.156 45.5345 128.748C45.5345 129.484 45.3825 130.156 45.0785 130.764C44.7745 131.372 44.3425 131.892 43.7825 132.324C43.2385 132.756 42.5745 133.092 41.7905 133.332C41.0225 133.556 40.1585 133.668 39.1985 133.668C38.3985 133.668 37.6865 133.58 37.0625 133.404C36.4385 133.244 35.8865 133.02 35.4065 132.732C34.9265 132.444 34.5105 132.116 34.1585 131.748C33.8065 131.364 33.4945 130.972 33.2225 130.572L35.5505 128.772C35.9505 129.444 36.4225 129.996 36.9665 130.428C37.5265 130.86 38.2865 131.076 39.2465 131.076C40.2065 131.076 40.9425 130.86 41.4545 130.428C41.9825 129.98 42.2465 129.364 42.2465 128.58V128.388C42.2465 127.62 41.9665 127.036 41.4065 126.636C40.8465 126.22 40.0545 126.012 39.0305 126.012H37.3505V123.396H39.0065Z" fill="white"/>
<path d="M42.2404 174.859V171.619H34.4884V168.931L41.3284 158.107H45.2404V169.171H47.4964V171.619H45.2404V174.859H42.2404ZM37.0564 169.171H42.2404V161.179H42.0484L37.0564 169.171Z" fill="white"/>
</svg>
