<svg width="1477" height="240" viewBox="0 0 1477 240" fill="none" xmlns="http://www.w3.org/2000/svg">
<path d="M0 5C0 2.23857 2.23858 0 5 0H1462C1470.28 0 1477 6.71573 1477 15V215C1477 228.807 1465.81 240 1452 240H35C15.67 240 0 224.33 0 205V5Z" fill="#373538"/>
<path d="M85.208 31.488H89.304V34.4H89.528C89.976 33.3973 90.584 32.5973 91.352 32C92.1413 31.4027 93.176 31.104 94.456 31.104C95.3947 31.104 96.248 31.2853 97.016 31.648C97.8053 31.9893 98.4773 32.5227 99.032 33.248C99.5867 33.952 100.013 34.848 100.312 35.936C100.611 37.024 100.76 38.2933 100.76 39.744C100.76 41.1947 100.611 42.464 100.312 43.552C100.013 44.64 99.5867 45.5467 99.032 46.272C98.4773 46.976 97.8053 47.5093 97.016 47.872C96.248 48.2133 95.3947 48.384 94.456 48.384C93.176 48.384 92.1413 48.0853 91.352 47.488C90.584 46.8907 89.976 46.0907 89.528 45.088H89.304V54.4H85.208V31.488ZM92.728 45.12C93.9227 45.12 94.84 44.7573 95.48 44.032C96.1413 43.3067 96.472 42.3147 96.472 41.056V38.432C96.472 37.1733 96.1413 36.1813 95.48 35.456C94.84 34.7307 93.9227 34.368 92.728 34.368C91.7893 34.368 90.9787 34.6027 90.296 35.072C89.6347 35.52 89.304 36.2133 89.304 37.152V42.336C89.304 43.2747 89.6347 43.9787 90.296 44.448C90.9787 44.896 91.7893 45.12 92.728 45.12ZM104.588 44.768H108.684V34.72H104.588V31.488H112.78V36H113.036C113.185 35.424 113.388 34.8693 113.644 34.336C113.921 33.7813 114.262 33.3013 114.668 32.896C115.094 32.4693 115.606 32.128 116.204 31.872C116.801 31.616 117.516 31.488 118.347 31.488H120.14V35.328H116.748C115.51 35.328 114.54 35.6907 113.836 36.416C113.132 37.1413 112.78 38.0693 112.78 39.2V44.768H118.508V48H104.588V44.768ZM130.975 48.384C129.716 48.384 128.586 48.1813 127.583 47.776C126.602 47.3707 125.759 46.7947 125.055 46.048C124.372 45.3013 123.839 44.3947 123.455 43.328C123.092 42.2613 122.911 41.0667 122.911 39.744C122.911 38.4213 123.092 37.2267 123.455 36.16C123.839 35.0933 124.372 34.1867 125.055 33.44C125.759 32.6933 126.602 32.1173 127.583 31.712C128.586 31.3067 129.716 31.104 130.975 31.104C132.212 31.104 133.332 31.3067 134.335 31.712C135.338 32.1173 136.18 32.6933 136.863 33.44C137.567 34.1867 138.1 35.0933 138.463 36.16C138.847 37.2267 139.039 38.4213 139.039 39.744C139.039 41.0667 138.847 42.2613 138.463 43.328C138.1 44.3947 137.567 45.3013 136.863 46.048C136.18 46.7947 135.338 47.3707 134.335 47.776C133.332 48.1813 132.212 48.384 130.975 48.384ZM130.975 45.248C132.148 45.248 133.076 44.896 133.759 44.192C134.442 43.4667 134.783 42.4107 134.783 41.024V38.464C134.783 37.0773 134.442 36.032 133.759 35.328C133.076 34.6027 132.148 34.24 130.975 34.24C129.802 34.24 128.874 34.6027 128.191 35.328C127.508 36.032 127.167 37.0773 127.167 38.464V41.024C127.167 42.4107 127.508 43.4667 128.191 44.192C128.874 44.896 129.802 45.248 130.975 45.248ZM141.747 48V31.488H145.139V33.76H145.331C145.587 33.0347 145.949 32.416 146.419 31.904C146.909 31.3707 147.592 31.104 148.467 31.104C149.299 31.104 149.96 31.3493 150.451 31.84C150.941 32.3093 151.261 32.9813 151.411 33.856H151.571C151.848 33.1093 152.253 32.4693 152.787 31.936C153.341 31.3813 154.12 31.104 155.123 31.104C156.339 31.104 157.213 31.5413 157.747 32.416C158.28 33.2907 158.547 34.5813 158.547 36.288V48H155.187V36.768C155.187 35.808 155.048 35.136 154.771 34.752C154.515 34.368 154.12 34.176 153.587 34.176C153.096 34.176 152.68 34.336 152.339 34.656C152.019 34.976 151.859 35.4667 151.859 36.128V48H148.467V36.768C148.467 35.808 148.339 35.136 148.083 34.752C147.827 34.368 147.432 34.176 146.899 34.176C146.387 34.176 145.96 34.336 145.619 34.656C145.299 34.976 145.139 35.4667 145.139 36.128V48H141.747ZM169.734 48.384C168.411 48.384 167.238 48.1813 166.214 47.776C165.19 47.3707 164.326 46.7947 163.622 46.048C162.939 45.3013 162.417 44.4053 162.054 43.36C161.691 42.2933 161.51 41.0987 161.51 39.776C161.51 38.432 161.691 37.2267 162.054 36.16C162.438 35.0933 162.971 34.1867 163.654 33.44C164.337 32.6933 165.158 32.1173 166.118 31.712C167.099 31.3067 168.198 31.104 169.414 31.104C170.609 31.104 171.686 31.3067 172.646 31.712C173.606 32.096 174.417 32.6507 175.078 33.376C175.761 34.1013 176.283 34.976 176.646 36C177.009 37.024 177.19 38.1547 177.19 39.392V40.736H165.606V41.152C165.606 42.3467 165.979 43.3173 166.726 44.064C167.473 44.7893 168.518 45.152 169.862 45.152C170.886 45.152 171.761 44.9493 172.486 44.544C173.233 44.1173 173.851 43.5627 174.342 42.88L176.678 45.216C176.081 46.0907 175.206 46.8373 174.054 47.456C172.923 48.0747 171.483 48.384 169.734 48.384ZM169.446 34.112C168.294 34.112 167.366 34.4747 166.662 35.2C165.958 35.9253 165.606 36.8853 165.606 38.08V38.304H173.094V38.016C173.094 36.8213 172.763 35.872 172.102 35.168C171.462 34.464 170.577 34.112 169.446 34.112ZM188.474 48.384C186.66 48.384 185.092 48.1067 183.77 47.552C182.447 46.976 181.412 46.208 180.666 45.248L183.066 43.072C183.748 43.8187 184.527 44.3947 185.402 44.8C186.298 45.2053 187.332 45.408 188.506 45.408C189.53 45.408 190.351 45.2373 190.97 44.896C191.588 44.5547 191.898 44.032 191.898 43.328C191.898 42.7307 191.684 42.3253 191.258 42.112C190.852 41.8987 190.308 41.7387 189.626 41.632L186.97 41.216C186.287 41.1093 185.615 40.96 184.954 40.768C184.314 40.5547 183.738 40.2667 183.226 39.904C182.735 39.5413 182.34 39.0827 182.042 38.528C181.743 37.952 181.594 37.2587 181.594 36.448C181.594 34.72 182.234 33.3973 183.514 32.48C184.815 31.5627 186.596 31.104 188.858 31.104C190.458 31.104 191.812 31.328 192.922 31.776C194.052 32.224 194.98 32.8533 195.706 33.664L193.562 36.032C193.092 35.52 192.463 35.072 191.674 34.688C190.906 34.2827 189.924 34.08 188.73 34.08C186.639 34.08 185.594 34.7307 185.594 36.032C185.594 36.6293 185.807 37.0453 186.234 37.28C186.66 37.4933 187.215 37.6533 187.898 37.76L190.522 38.176C191.226 38.2827 191.898 38.4427 192.538 38.656C193.199 38.848 193.775 39.1253 194.266 39.488C194.778 39.8507 195.183 40.3093 195.482 40.864C195.78 41.4187 195.93 42.1013 195.93 42.912C195.93 44.6187 195.268 45.9627 193.946 46.944C192.644 47.904 190.82 48.384 188.474 48.384ZM207.661 48.384C205.848 48.384 204.28 48.1067 202.957 47.552C201.634 46.976 200.6 46.208 199.853 45.248L202.253 43.072C202.936 43.8187 203.714 44.3947 204.589 44.8C205.485 45.2053 206.52 45.408 207.693 45.408C208.717 45.408 209.538 45.2373 210.157 44.896C210.776 44.5547 211.085 44.032 211.085 43.328C211.085 42.7307 210.872 42.3253 210.445 42.112C210.04 41.8987 209.496 41.7387 208.813 41.632L206.157 41.216C205.474 41.1093 204.802 40.96 204.141 40.768C203.501 40.5547 202.925 40.2667 202.413 39.904C201.922 39.5413 201.528 39.0827 201.229 38.528C200.93 37.952 200.781 37.2587 200.781 36.448C200.781 34.72 201.421 33.3973 202.701 32.48C204.002 31.5627 205.784 31.104 208.045 31.104C209.645 31.104 211 31.328 212.109 31.776C213.24 32.224 214.168 32.8533 214.893 33.664L212.749 36.032C212.28 35.52 211.65 35.072 210.861 34.688C210.093 34.2827 209.112 34.08 207.917 34.08C205.826 34.08 204.781 34.7307 204.781 36.032C204.781 36.6293 204.994 37.0453 205.421 37.28C205.848 37.4933 206.402 37.6533 207.085 37.76L209.709 38.176C210.413 38.2827 211.085 38.4427 211.725 38.656C212.386 38.848 212.962 39.1253 213.453 39.488C213.965 39.8507 214.37 40.3093 214.669 40.864C214.968 41.4187 215.117 42.1013 215.117 42.912C215.117 44.6187 214.456 45.9627 213.133 46.944C211.832 47.904 210.008 48.384 207.661 48.384ZM232.993 48C231.99 48 231.211 47.7547 230.657 47.264C230.123 46.752 229.803 46.048 229.697 45.152H229.537C229.238 46.176 228.651 46.976 227.777 47.552C226.902 48.1067 225.825 48.384 224.545 48.384C222.881 48.384 221.558 47.9467 220.577 47.072C219.595 46.1973 219.105 44.9813 219.105 43.424C219.105 40.096 221.547 38.432 226.433 38.432H229.345V37.344C229.345 36.2987 229.089 35.5093 228.577 34.976C228.065 34.4427 227.233 34.176 226.081 34.176C225.035 34.176 224.193 34.3787 223.553 34.784C222.913 35.1893 222.369 35.712 221.921 36.352L219.585 34.368C220.097 33.4507 220.918 32.6827 222.049 32.064C223.201 31.424 224.683 31.104 226.497 31.104C228.673 31.104 230.369 31.616 231.585 32.64C232.822 33.6427 233.441 35.1467 233.441 37.152V44.928H235.392V48H232.993ZM225.921 45.568C226.902 45.568 227.713 45.344 228.353 44.896C229.014 44.4267 229.345 43.7973 229.345 43.008V40.8H226.529C224.289 40.8 223.169 41.504 223.169 42.912V43.552C223.169 44.2133 223.414 44.7147 223.905 45.056C224.395 45.3973 225.067 45.568 225.921 45.568ZM371.997 48V31.488H375.389V33.76H375.581C375.837 33.0347 376.199 32.416 376.669 31.904C377.159 31.3707 377.842 31.104 378.717 31.104C379.549 31.104 380.21 31.3493 380.701 31.84C381.191 32.3093 381.511 32.9813 381.661 33.856H381.821C382.098 33.1093 382.503 32.4693 383.037 31.936C383.591 31.3813 384.37 31.104 385.373 31.104C386.589 31.104 387.463 31.5413 387.997 32.416C388.53 33.2907 388.797 34.5813 388.797 36.288V48H385.437V36.768C385.437 35.808 385.298 35.136 385.021 34.752C384.765 34.368 384.37 34.176 383.837 34.176C383.346 34.176 382.93 34.336 382.589 34.656C382.269 34.976 382.109 35.4667 382.109 36.128V48H378.717V36.768C378.717 35.808 378.589 35.136 378.333 34.752C378.077 34.368 377.682 34.176 377.149 34.176C376.637 34.176 376.21 34.336 375.869 34.656C375.549 34.976 375.389 35.4667 375.389 36.128V48H371.997ZM399.984 48.384C398.661 48.384 397.488 48.1813 396.464 47.776C395.44 47.3707 394.576 46.7947 393.872 46.048C393.189 45.3013 392.667 44.4053 392.304 43.36C391.941 42.2933 391.76 41.0987 391.76 39.776C391.76 38.432 391.941 37.2267 392.304 36.16C392.688 35.0933 393.221 34.1867 393.904 33.44C394.587 32.6933 395.408 32.1173 396.368 31.712C397.349 31.3067 398.448 31.104 399.664 31.104C400.859 31.104 401.936 31.3067 402.896 31.712C403.856 32.096 404.667 32.6507 405.328 33.376C406.011 34.1013 406.533 34.976 406.896 36C407.259 37.024 407.44 38.1547 407.44 39.392V40.736H395.856V41.152C395.856 42.3467 396.229 43.3173 396.976 44.064C397.723 44.7893 398.768 45.152 400.112 45.152C401.136 45.152 402.011 44.9493 402.736 44.544C403.483 44.1173 404.101 43.5627 404.592 42.88L406.928 45.216C406.331 46.0907 405.456 46.8373 404.304 47.456C403.173 48.0747 401.733 48.384 399.984 48.384ZM399.696 34.112C398.544 34.112 397.616 34.4747 396.912 35.2C396.208 35.9253 395.856 36.8853 395.856 38.08V38.304H403.344V38.016C403.344 36.8213 403.013 35.872 402.352 35.168C401.712 34.464 400.827 34.112 399.696 34.112ZM411.588 48V31.488H415.684V34.4H415.844C416.206 33.504 416.761 32.736 417.508 32.096C418.276 31.4347 419.332 31.104 420.676 31.104C422.297 31.104 423.609 31.648 424.612 32.736C425.636 33.8027 426.148 35.3387 426.148 37.344V48H422.052V37.92C422.052 35.5307 421.017 34.336 418.948 34.336C418.521 34.336 418.116 34.3893 417.732 34.496C417.348 34.6027 416.996 34.7733 416.676 35.008C416.377 35.2213 416.132 35.488 415.94 35.808C415.769 36.128 415.684 36.512 415.684 36.96V48H411.588ZM437.911 48.384C436.098 48.384 434.53 48.1067 433.207 47.552C431.884 46.976 430.85 46.208 430.103 45.248L432.503 43.072C433.186 43.8187 433.964 44.3947 434.839 44.8C435.735 45.2053 436.77 45.408 437.943 45.408C438.967 45.408 439.788 45.2373 440.407 44.896C441.026 44.5547 441.335 44.032 441.335 43.328C441.335 42.7307 441.122 42.3253 440.695 42.112C440.29 41.8987 439.746 41.7387 439.063 41.632L436.407 41.216C435.724 41.1093 435.052 40.96 434.391 40.768C433.751 40.5547 433.175 40.2667 432.663 39.904C432.172 39.5413 431.778 39.0827 431.479 38.528C431.18 37.952 431.031 37.2587 431.031 36.448C431.031 34.72 431.671 33.3973 432.951 32.48C434.252 31.5627 436.034 31.104 438.295 31.104C439.895 31.104 441.25 31.328 442.359 31.776C443.49 32.224 444.418 32.8533 445.143 33.664L442.999 36.032C442.53 35.52 441.9 35.072 441.111 34.688C440.343 34.2827 439.362 34.08 438.167 34.08C436.076 34.08 435.031 34.7307 435.031 36.032C435.031 36.6293 435.244 37.0453 435.671 37.28C436.098 37.4933 436.652 37.6533 437.335 37.76L439.959 38.176C440.663 38.2827 441.335 38.4427 441.975 38.656C442.636 38.848 443.212 39.1253 443.703 39.488C444.215 39.8507 444.62 40.3093 444.919 40.864C445.218 41.4187 445.367 42.1013 445.367 42.912C445.367 44.6187 444.706 45.9627 443.383 46.944C442.082 47.904 440.258 48.384 437.911 48.384ZM463.243 48C462.24 48 461.461 47.7547 460.907 47.264C460.373 46.752 460.053 46.048 459.947 45.152H459.787C459.488 46.176 458.901 46.976 458.027 47.552C457.152 48.1067 456.075 48.384 454.795 48.384C453.131 48.384 451.808 47.9467 450.827 47.072C449.845 46.1973 449.355 44.9813 449.355 43.424C449.355 40.096 451.797 38.432 456.683 38.432H459.595V37.344C459.595 36.2987 459.339 35.5093 458.827 34.976C458.315 34.4427 457.483 34.176 456.331 34.176C455.285 34.176 454.443 34.3787 453.803 34.784C453.163 35.1893 452.619 35.712 452.171 36.352L449.835 34.368C450.347 33.4507 451.168 32.6827 452.299 32.064C453.451 31.424 454.933 31.104 456.747 31.104C458.923 31.104 460.619 31.616 461.835 32.64C463.072 33.6427 463.691 35.1467 463.691 37.152V44.928H465.642V48H463.243ZM456.171 45.568C457.152 45.568 457.963 45.344 458.603 44.896C459.264 44.4267 459.595 43.7973 459.595 43.008V40.8H456.779C454.539 40.8 453.419 41.504 453.419 42.912V43.552C453.419 44.2133 453.664 44.7147 454.155 45.056C454.645 45.3973 455.317 45.568 456.171 45.568ZM485.182 49.728C485.182 51.456 484.457 52.7253 483.006 53.536C481.577 54.368 479.337 54.784 476.286 54.784C474.793 54.784 473.545 54.688 472.542 54.496C471.539 54.3253 470.729 54.0693 470.11 53.728C469.513 53.3867 469.086 52.9707 468.83 52.48C468.574 52.0107 468.446 51.4773 468.446 50.88C468.446 49.9627 468.713 49.2587 469.246 48.768C469.779 48.2773 470.526 47.9147 471.486 47.68V47.424C470.846 47.2107 470.334 46.912 469.95 46.528C469.587 46.144 469.406 45.6107 469.406 44.928C469.406 44.1173 469.673 43.5093 470.206 43.104C470.761 42.6987 471.486 42.3893 472.382 42.176V42.016C471.401 41.5467 470.633 40.8853 470.078 40.032C469.523 39.1787 469.246 38.144 469.246 36.928C469.246 36.0107 469.406 35.2 469.726 34.496C470.067 33.7707 470.537 33.1627 471.134 32.672C471.753 32.16 472.489 31.776 473.342 31.52C474.195 31.2427 475.145 31.104 476.19 31.104C477.299 31.104 478.302 31.2533 479.198 31.552V30.848C479.198 30.208 479.401 29.6747 479.806 29.248C480.233 28.8213 480.819 28.608 481.566 28.608H484.542V31.68H480.638V32.224C481.449 32.7147 482.067 33.3547 482.494 34.144C482.942 34.912 483.166 35.84 483.166 36.928C483.166 37.8453 482.995 38.6667 482.654 39.392C482.334 40.1173 481.865 40.7253 481.246 41.216C480.649 41.7067 479.913 42.0907 479.038 42.368C478.185 42.624 477.235 42.752 476.19 42.752C475.763 42.752 475.347 42.7413 474.942 42.72C474.558 42.6773 474.185 42.6027 473.822 42.496C473.523 42.6027 473.235 42.7733 472.958 43.008C472.681 43.2427 472.542 43.552 472.542 43.936C472.542 44.448 472.787 44.768 473.278 44.896C473.769 45.0027 474.355 45.056 475.038 45.056H478.782C479.934 45.056 480.915 45.1733 481.726 45.408C482.537 45.6213 483.198 45.9413 483.71 46.368C484.222 46.7733 484.595 47.264 484.83 47.84C485.065 48.416 485.182 49.0453 485.182 49.728ZM481.342 50.016C481.342 49.5253 481.139 49.1307 480.734 48.832C480.35 48.5547 479.625 48.416 478.558 48.416H472.862C472.222 48.7787 471.902 49.312 471.902 50.016C471.902 50.592 472.137 51.072 472.606 51.456C473.097 51.84 473.918 52.032 475.07 52.032H477.726C480.137 52.032 481.342 51.36 481.342 50.016ZM476.19 40.064C477.235 40.064 478.003 39.8187 478.494 39.328C478.985 38.816 479.23 38.1547 479.23 37.344V36.512C479.23 35.7013 478.985 35.0507 478.494 34.56C478.003 34.048 477.235 33.792 476.19 33.792C475.166 33.792 474.409 34.048 473.918 34.56C473.427 35.0507 473.182 35.7013 473.182 36.512V37.344C473.182 38.1547 473.427 38.816 473.918 39.328C474.409 39.8187 475.166 40.064 476.19 40.064ZM495.922 48.384C494.599 48.384 493.426 48.1813 492.402 47.776C491.378 47.3707 490.514 46.7947 489.81 46.048C489.127 45.3013 488.604 44.4053 488.242 43.36C487.879 42.2933 487.698 41.0987 487.698 39.776C487.698 38.432 487.879 37.2267 488.242 36.16C488.626 35.0933 489.159 34.1867 489.842 33.44C490.524 32.6933 491.346 32.1173 492.306 31.712C493.287 31.3067 494.386 31.104 495.602 31.104C496.796 31.104 497.874 31.3067 498.834 31.712C499.794 32.096 500.604 32.6507 501.266 33.376C501.948 34.1013 502.471 34.976 502.833 36C503.196 37.024 503.378 38.1547 503.378 39.392V40.736H491.794V41.152C491.794 42.3467 492.167 43.3173 492.914 44.064C493.66 44.7893 494.706 45.152 496.05 45.152C497.074 45.152 497.948 44.9493 498.674 44.544C499.42 44.1173 500.039 43.5627 500.53 42.88L502.866 45.216C502.268 46.0907 501.394 46.8373 500.242 47.456C499.111 48.0747 497.671 48.384 495.922 48.384ZM495.634 34.112C494.482 34.112 493.554 34.4747 492.85 35.2C492.146 35.9253 491.794 36.8853 491.794 38.08V38.304H499.282V38.016C499.282 36.8213 498.951 35.872 498.29 35.168C497.65 34.464 496.764 34.112 495.634 34.112ZM506.309 48V31.488H509.701V33.76H509.893C510.149 33.0347 510.512 32.416 510.981 31.904C511.472 31.3707 512.154 31.104 513.029 31.104C513.861 31.104 514.522 31.3493 515.013 31.84C515.504 32.3093 515.824 32.9813 515.973 33.856H516.133C516.41 33.1093 516.816 32.4693 517.349 31.936C517.904 31.3813 518.682 31.104 519.685 31.104C520.901 31.104 521.776 31.5413 522.309 32.416C522.842 33.2907 523.109 34.5813 523.109 36.288V48H519.749V36.768C519.749 35.808 519.61 35.136 519.333 34.752C519.077 34.368 518.682 34.176 518.149 34.176C517.658 34.176 517.242 34.336 516.901 34.656C516.581 34.976 516.421 35.4667 516.421 36.128V48H513.029V36.768C513.029 35.808 512.901 35.136 512.645 34.752C512.389 34.368 511.994 34.176 511.461 34.176C510.949 34.176 510.522 34.336 510.181 34.656C509.861 34.976 509.701 35.4667 509.701 36.128V48H506.309ZM131.615 90.384C130.356 90.384 129.226 90.1813 128.223 89.776C127.22 89.3707 126.367 88.7947 125.663 88.048C124.98 87.3013 124.447 86.3947 124.063 85.328C123.7 84.2613 123.519 83.0667 123.519 81.744C123.519 80.4213 123.7 79.2267 124.063 78.16C124.447 77.0933 124.98 76.1867 125.663 75.44C126.367 74.6933 127.21 74.1173 128.191 73.712C129.194 73.3067 130.324 73.104 131.583 73.104C133.332 73.104 134.74 73.4667 135.807 74.192C136.874 74.9173 137.684 75.8773 138.239 77.072L135.071 78.8C134.772 78.096 134.346 77.5307 133.791 77.104C133.258 76.656 132.522 76.432 131.583 76.432C130.367 76.432 129.428 76.784 128.767 77.488C128.127 78.192 127.807 79.152 127.807 80.368V83.12C127.807 84.3147 128.127 85.2747 128.767 86C129.428 86.704 130.388 87.056 131.647 87.056C132.628 87.056 133.407 86.832 133.983 86.384C134.58 85.936 135.06 85.3387 135.423 84.592L138.495 86.416C137.94 87.5893 137.098 88.5493 135.967 89.296C134.858 90.0213 133.407 90.384 131.615 90.384ZM150.163 90.384C148.904 90.384 147.773 90.1813 146.771 89.776C145.789 89.3707 144.947 88.7947 144.243 88.048C143.56 87.3013 143.027 86.3947 142.643 85.328C142.28 84.2613 142.099 83.0667 142.099 81.744C142.099 80.4213 142.28 79.2267 142.643 78.16C143.027 77.0933 143.56 76.1867 144.243 75.44C144.947 74.6933 145.789 74.1173 146.771 73.712C147.773 73.3067 148.904 73.104 150.163 73.104C151.4 73.104 152.52 73.3067 153.523 73.712C154.525 74.1173 155.368 74.6933 156.051 75.44C156.755 76.1867 157.288 77.0933 157.651 78.16C158.035 79.2267 158.227 80.4213 158.227 81.744C158.227 83.0667 158.035 84.2613 157.651 85.328C157.288 86.3947 156.755 87.3013 156.051 88.048C155.368 88.7947 154.525 89.3707 153.523 89.776C152.52 90.1813 151.4 90.384 150.163 90.384ZM150.163 87.248C151.336 87.248 152.264 86.896 152.947 86.192C153.629 85.4667 153.971 84.4107 153.971 83.024V80.464C153.971 79.0773 153.629 78.032 152.947 77.328C152.264 76.6027 151.336 76.24 150.163 76.24C148.989 76.24 148.061 76.6027 147.379 77.328C146.696 78.032 146.355 79.0773 146.355 80.464V83.024C146.355 84.4107 146.696 85.4667 147.379 86.192C148.061 86.896 148.989 87.248 150.163 87.248ZM162.15 90V73.488H166.246V76.4H166.406C166.769 75.504 167.323 74.736 168.07 74.096C168.838 73.4347 169.894 73.104 171.238 73.104C172.859 73.104 174.171 73.648 175.174 74.736C176.198 75.8027 176.71 77.3387 176.71 79.344V90H172.614V79.92C172.614 77.5307 171.579 76.336 169.51 76.336C169.083 76.336 168.678 76.3893 168.294 76.496C167.91 76.6027 167.558 76.7733 167.238 77.008C166.939 77.2213 166.694 77.488 166.502 77.808C166.331 78.128 166.246 78.512 166.246 78.96V90H162.15ZM188.474 90.384C186.66 90.384 185.092 90.1067 183.77 89.552C182.447 88.976 181.412 88.208 180.666 87.248L183.066 85.072C183.748 85.8187 184.527 86.3947 185.402 86.8C186.298 87.2053 187.332 87.408 188.506 87.408C189.53 87.408 190.351 87.2373 190.97 86.896C191.588 86.5547 191.898 86.032 191.898 85.328C191.898 84.7307 191.684 84.3253 191.258 84.112C190.852 83.8987 190.308 83.7387 189.626 83.632L186.97 83.216C186.287 83.1093 185.615 82.96 184.954 82.768C184.314 82.5547 183.738 82.2667 183.226 81.904C182.735 81.5413 182.34 81.0827 182.042 80.528C181.743 79.952 181.594 79.2587 181.594 78.448C181.594 76.72 182.234 75.3973 183.514 74.48C184.815 73.5627 186.596 73.104 188.858 73.104C190.458 73.104 191.812 73.328 192.922 73.776C194.052 74.224 194.98 74.8533 195.706 75.664L193.562 78.032C193.092 77.52 192.463 77.072 191.674 76.688C190.906 76.2827 189.924 76.08 188.73 76.08C186.639 76.08 185.594 76.7307 185.594 78.032C185.594 78.6293 185.807 79.0453 186.234 79.28C186.66 79.4933 187.215 79.6533 187.898 79.76L190.522 80.176C191.226 80.2827 191.898 80.4427 192.538 80.656C193.199 80.848 193.775 81.1253 194.266 81.488C194.778 81.8507 195.183 82.3093 195.482 82.864C195.78 83.4187 195.93 84.1013 195.93 84.912C195.93 86.6187 195.268 87.9627 193.946 88.944C192.644 89.904 190.82 90.384 188.474 90.384ZM207.725 90.384C206.466 90.384 205.336 90.1813 204.333 89.776C203.352 89.3707 202.509 88.7947 201.805 88.048C201.122 87.3013 200.589 86.3947 200.205 85.328C199.842 84.2613 199.661 83.0667 199.661 81.744C199.661 80.4213 199.842 79.2267 200.205 78.16C200.589 77.0933 201.122 76.1867 201.805 75.44C202.509 74.6933 203.352 74.1173 204.333 73.712C205.336 73.3067 206.466 73.104 207.725 73.104C208.962 73.104 210.082 73.3067 211.085 73.712C212.088 74.1173 212.93 74.6933 213.613 75.44C214.317 76.1867 214.85 77.0933 215.213 78.16C215.597 79.2267 215.789 80.4213 215.789 81.744C215.789 83.0667 215.597 84.2613 215.213 85.328C214.85 86.3947 214.317 87.3013 213.613 88.048C212.93 88.7947 212.088 89.3707 211.085 89.776C210.082 90.1813 208.962 90.384 207.725 90.384ZM207.725 87.248C208.898 87.248 209.826 86.896 210.509 86.192C211.192 85.4667 211.533 84.4107 211.533 83.024V80.464C211.533 79.0773 211.192 78.032 210.509 77.328C209.826 76.6027 208.898 76.24 207.725 76.24C206.552 76.24 205.624 76.6027 204.941 77.328C204.258 78.032 203.917 79.0773 203.917 80.464V83.024C203.917 84.4107 204.258 85.4667 204.941 86.192C205.624 86.896 206.552 87.248 207.725 87.248ZM219.617 86.768H224.865V69.552H219.617V66.32H228.961V86.768H234.241V90H219.617V86.768ZM246.484 90.384C245.161 90.384 243.988 90.1813 242.964 89.776C241.94 89.3707 241.076 88.7947 240.372 88.048C239.689 87.3013 239.167 86.4053 238.804 85.36C238.441 84.2933 238.26 83.0987 238.26 81.776C238.26 80.432 238.441 79.2267 238.804 78.16C239.188 77.0933 239.721 76.1867 240.404 75.44C241.087 74.6933 241.908 74.1173 242.868 73.712C243.849 73.3067 244.948 73.104 246.164 73.104C247.359 73.104 248.436 73.3067 249.396 73.712C250.356 74.096 251.167 74.6507 251.828 75.376C252.511 76.1013 253.033 76.976 253.396 78C253.759 79.024 253.94 80.1547 253.94 81.392V82.736H242.356V83.152C242.356 84.3467 242.729 85.3173 243.476 86.064C244.223 86.7893 245.268 87.152 246.612 87.152C247.636 87.152 248.511 86.9493 249.236 86.544C249.983 86.1173 250.601 85.5627 251.092 84.88L253.428 87.216C252.831 88.0907 251.956 88.8373 250.804 89.456C249.673 90.0747 248.233 90.384 246.484 90.384ZM246.196 76.112C245.044 76.112 244.116 76.4747 243.412 77.2C242.708 77.9253 242.356 78.8853 242.356 80.08V80.304H249.844V80.016C249.844 78.8213 249.513 77.872 248.852 77.168C248.212 76.464 247.327 76.112 246.196 76.112ZM352.809 90V73.488H356.201V75.76H356.393C356.649 75.0347 357.012 74.416 357.481 73.904C357.972 73.3707 358.654 73.104 359.529 73.104C360.361 73.104 361.022 73.3493 361.513 73.84C362.004 74.3093 362.324 74.9813 362.473 75.856H362.633C362.91 75.1093 363.316 74.4693 363.849 73.936C364.404 73.3813 365.182 73.104 366.185 73.104C367.401 73.104 368.276 73.5413 368.809 74.416C369.342 75.2907 369.609 76.5813 369.609 78.288V90H366.249V78.768C366.249 77.808 366.11 77.136 365.833 76.752C365.577 76.368 365.182 76.176 364.649 76.176C364.158 76.176 363.742 76.336 363.401 76.656C363.081 76.976 362.921 77.4667 362.921 78.128V90H359.529V78.768C359.529 77.808 359.401 77.136 359.145 76.752C358.889 76.368 358.494 76.176 357.961 76.176C357.449 76.176 357.022 76.336 356.681 76.656C356.361 76.976 356.201 77.4667 356.201 78.128V90H352.809ZM380.797 90.384C379.474 90.384 378.301 90.1813 377.277 89.776C376.253 89.3707 375.389 88.7947 374.685 88.048C374.002 87.3013 373.479 86.4053 373.117 85.36C372.754 84.2933 372.573 83.0987 372.573 81.776C372.573 80.432 372.754 79.2267 373.117 78.16C373.501 77.0933 374.034 76.1867 374.717 75.44C375.399 74.6933 376.221 74.1173 377.181 73.712C378.162 73.3067 379.261 73.104 380.477 73.104C381.671 73.104 382.749 73.3067 383.709 73.712C384.669 74.096 385.479 74.6507 386.141 75.376C386.823 76.1013 387.346 76.976 387.708 78C388.071 79.024 388.253 80.1547 388.253 81.392V82.736H376.669V83.152C376.669 84.3467 377.042 85.3173 377.789 86.064C378.535 86.7893 379.581 87.152 380.925 87.152C381.949 87.152 382.823 86.9493 383.549 86.544C384.295 86.1173 384.914 85.5627 385.405 84.88L387.741 87.216C387.143 88.0907 386.269 88.8373 385.117 89.456C383.986 90.0747 382.546 90.384 380.797 90.384ZM380.509 76.112C379.357 76.112 378.429 76.4747 377.725 77.2C377.021 77.9253 376.669 78.8853 376.669 80.08V80.304H384.157V80.016C384.157 78.8213 383.826 77.872 383.165 77.168C382.525 76.464 381.639 76.112 380.509 76.112ZM392.4 90V73.488H396.496V76.4H396.656C397.019 75.504 397.573 74.736 398.32 74.096C399.088 73.4347 400.144 73.104 401.488 73.104C403.109 73.104 404.421 73.648 405.424 74.736C406.448 75.8027 406.96 77.3387 406.96 79.344V90H402.864V79.92C402.864 77.5307 401.829 76.336 399.76 76.336C399.333 76.336 398.928 76.3893 398.544 76.496C398.16 76.6027 397.808 76.7733 397.488 77.008C397.189 77.2213 396.944 77.488 396.752 77.808C396.581 78.128 396.496 78.512 396.496 78.96V90H392.4ZM418.724 90.384C416.91 90.384 415.342 90.1067 414.02 89.552C412.697 88.976 411.662 88.208 410.916 87.248L413.316 85.072C413.998 85.8187 414.777 86.3947 415.652 86.8C416.548 87.2053 417.582 87.408 418.756 87.408C419.78 87.408 420.601 87.2373 421.22 86.896C421.838 86.5547 422.148 86.032 422.148 85.328C422.148 84.7307 421.934 84.3253 421.508 84.112C421.102 83.8987 420.558 83.7387 419.876 83.632L417.22 83.216C416.537 83.1093 415.865 82.96 415.204 82.768C414.564 82.5547 413.988 82.2667 413.476 81.904C412.985 81.5413 412.59 81.0827 412.292 80.528C411.993 79.952 411.844 79.2587 411.844 78.448C411.844 76.72 412.484 75.3973 413.764 74.48C415.065 73.5627 416.846 73.104 419.108 73.104C420.708 73.104 422.062 73.328 423.172 73.776C424.302 74.224 425.23 74.8533 425.956 75.664L423.812 78.032C423.342 77.52 422.713 77.072 421.924 76.688C421.156 76.2827 420.174 76.08 418.98 76.08C416.889 76.08 415.844 76.7307 415.844 78.032C415.844 78.6293 416.057 79.0453 416.484 79.28C416.91 79.4933 417.465 79.6533 418.148 79.76L420.772 80.176C421.476 80.2827 422.148 80.4427 422.788 80.656C423.449 80.848 424.025 81.1253 424.516 81.488C425.028 81.8507 425.433 82.3093 425.732 82.864C426.03 83.4187 426.18 84.1013 426.18 84.912C426.18 86.6187 425.518 87.9627 424.196 88.944C422.894 89.904 421.07 90.384 418.724 90.384ZM444.055 90C443.052 90 442.274 89.7547 441.719 89.264C441.186 88.752 440.866 88.048 440.759 87.152H440.599C440.3 88.176 439.714 88.976 438.839 89.552C437.964 90.1067 436.887 90.384 435.607 90.384C433.943 90.384 432.62 89.9467 431.639 89.072C430.658 88.1973 430.167 86.9813 430.167 85.424C430.167 82.096 432.61 80.432 437.495 80.432H440.407V79.344C440.407 78.2987 440.151 77.5093 439.639 76.976C439.127 76.4427 438.295 76.176 437.143 76.176C436.098 76.176 435.255 76.3787 434.615 76.784C433.975 77.1893 433.431 77.712 432.983 78.352L430.647 76.368C431.159 75.4507 431.98 74.6827 433.111 74.064C434.263 73.424 435.746 73.104 437.559 73.104C439.735 73.104 441.431 73.616 442.647 74.64C443.884 75.6427 444.503 77.1467 444.503 79.152V86.928H446.455V90H444.055ZM436.983 87.568C437.964 87.568 438.775 87.344 439.415 86.896C440.076 86.4267 440.407 85.7973 440.407 85.008V82.8H437.591C435.351 82.8 434.231 83.504 434.231 84.912V85.552C434.231 86.2133 434.476 86.7147 434.967 87.056C435.458 87.3973 436.13 87.568 436.983 87.568ZM465.995 91.728C465.995 93.456 465.269 94.7253 463.819 95.536C462.389 96.368 460.149 96.784 457.099 96.784C455.605 96.784 454.357 96.688 453.355 96.496C452.352 96.3253 451.541 96.0693 450.923 95.728C450.325 95.3867 449.899 94.9707 449.643 94.48C449.387 94.0107 449.259 93.4773 449.259 92.88C449.259 91.9627 449.525 91.2587 450.059 90.768C450.592 90.2773 451.339 89.9147 452.299 89.68V89.424C451.659 89.2107 451.147 88.912 450.763 88.528C450.4 88.144 450.219 87.6107 450.219 86.928C450.219 86.1173 450.485 85.5093 451.019 85.104C451.573 84.6987 452.299 84.3893 453.195 84.176V84.016C452.213 83.5467 451.445 82.8853 450.891 82.032C450.336 81.1787 450.059 80.144 450.059 78.928C450.059 78.0107 450.219 77.2 450.539 76.496C450.88 75.7707 451.349 75.1627 451.947 74.672C452.565 74.16 453.301 73.776 454.155 73.52C455.008 73.2427 455.957 73.104 457.003 73.104C458.112 73.104 459.115 73.2533 460.011 73.552V72.848C460.011 72.208 460.213 71.6747 460.619 71.248C461.045 70.8213 461.632 70.608 462.379 70.608H465.355V73.68H461.451V74.224C462.261 74.7147 462.88 75.3547 463.307 76.144C463.755 76.912 463.979 77.84 463.979 78.928C463.979 79.8453 463.808 80.6667 463.467 81.392C463.147 82.1173 462.677 82.7253 462.059 83.216C461.461 83.7067 460.725 84.0907 459.851 84.368C458.997 84.624 458.048 84.752 457.003 84.752C456.576 84.752 456.16 84.7413 455.755 84.72C455.371 84.6773 454.997 84.6027 454.635 84.496C454.336 84.6027 454.048 84.7733 453.771 85.008C453.493 85.2427 453.355 85.552 453.355 85.936C453.355 86.448 453.6 86.768 454.091 86.896C454.581 87.0027 455.168 87.056 455.851 87.056H459.595C460.747 87.056 461.728 87.1733 462.539 87.408C463.349 87.6213 464.011 87.9413 464.523 88.368C465.035 88.7733 465.408 89.264 465.642 89.84C465.877 90.416 465.995 91.0453 465.995 91.728ZM462.155 92.016C462.155 91.5253 461.952 91.1307 461.547 90.832C461.163 90.5547 460.437 90.416 459.371 90.416H453.675C453.035 90.7787 452.715 91.312 452.715 92.016C452.715 92.592 452.949 93.072 453.419 93.456C453.909 93.84 454.731 94.032 455.883 94.032H458.539C460.949 94.032 462.155 93.36 462.155 92.016ZM457.003 82.064C458.048 82.064 458.816 81.8187 459.307 81.328C459.797 80.816 460.043 80.1547 460.043 79.344V78.512C460.043 77.7013 459.797 77.0507 459.307 76.56C458.816 76.048 458.048 75.792 457.003 75.792C455.979 75.792 455.221 76.048 454.731 76.56C454.24 77.0507 453.995 77.7013 453.995 78.512V79.344C453.995 80.1547 454.24 80.816 454.731 81.328C455.221 81.8187 455.979 82.064 457.003 82.064ZM476.734 90.384C475.411 90.384 474.238 90.1813 473.214 89.776C472.19 89.3707 471.326 88.7947 470.622 88.048C469.939 87.3013 469.417 86.4053 469.054 85.36C468.691 84.2933 468.51 83.0987 468.51 81.776C468.51 80.432 468.691 79.2267 469.054 78.16C469.438 77.0933 469.971 76.1867 470.654 75.44C471.337 74.6933 472.158 74.1173 473.118 73.712C474.099 73.3067 475.198 73.104 476.414 73.104C477.609 73.104 478.686 73.3067 479.646 73.712C480.606 74.096 481.417 74.6507 482.078 75.376C482.761 76.1013 483.283 76.976 483.646 78C484.009 79.024 484.19 80.1547 484.19 81.392V82.736H472.606V83.152C472.606 84.3467 472.979 85.3173 473.726 86.064C474.473 86.7893 475.518 87.152 476.862 87.152C477.886 87.152 478.761 86.9493 479.486 86.544C480.233 86.1173 480.851 85.5627 481.342 84.88L483.678 87.216C483.081 88.0907 482.206 88.8373 481.054 89.456C479.923 90.0747 478.483 90.384 476.734 90.384ZM476.446 76.112C475.294 76.112 474.366 76.4747 473.662 77.2C472.958 77.9253 472.606 78.8853 472.606 80.08V80.304H480.094V80.016C480.094 78.8213 479.763 77.872 479.102 77.168C478.462 76.464 477.577 76.112 476.446 76.112ZM487.122 90V73.488H490.514V75.76H490.706C490.962 75.0347 491.324 74.416 491.794 73.904C492.284 73.3707 492.967 73.104 493.842 73.104C494.674 73.104 495.335 73.3493 495.826 73.84C496.316 74.3093 496.636 74.9813 496.786 75.856H496.946C497.223 75.1093 497.628 74.4693 498.162 73.936C498.716 73.3813 499.495 73.104 500.498 73.104C501.714 73.104 502.588 73.5413 503.122 74.416C503.655 75.2907 503.922 76.5813 503.922 78.288V90H500.562V78.768C500.562 77.808 500.423 77.136 500.146 76.752C499.89 76.368 499.495 76.176 498.962 76.176C498.471 76.176 498.055 76.336 497.714 76.656C497.394 76.976 497.234 77.4667 497.234 78.128V90H493.842V78.768C493.842 77.808 493.714 77.136 493.458 76.752C493.202 76.368 492.807 76.176 492.274 76.176C491.762 76.176 491.335 76.336 490.994 76.656C490.674 76.976 490.514 77.4667 490.514 78.128V90H487.122ZM323.234 132.384C321.911 132.384 320.738 132.181 319.714 131.776C318.69 131.371 317.826 130.795 317.122 130.048C316.439 129.301 315.917 128.405 315.554 127.36C315.191 126.293 315.01 125.099 315.01 123.776C315.01 122.432 315.191 121.227 315.554 120.16C315.938 119.093 316.471 118.187 317.154 117.44C317.837 116.693 318.658 116.117 319.618 115.712C320.599 115.307 321.698 115.104 322.914 115.104C324.109 115.104 325.186 115.307 326.146 115.712C327.106 116.096 327.917 116.651 328.578 117.376C329.261 118.101 329.783 118.976 330.146 120C330.509 121.024 330.69 122.155 330.69 123.392V124.736H319.106V125.152C319.106 126.347 319.479 127.317 320.226 128.064C320.973 128.789 322.018 129.152 323.362 129.152C324.386 129.152 325.261 128.949 325.986 128.544C326.733 128.117 327.351 127.563 327.842 126.88L330.178 129.216C329.581 130.091 328.706 130.837 327.554 131.456C326.423 132.075 324.983 132.384 323.234 132.384ZM322.946 118.112C321.794 118.112 320.866 118.475 320.162 119.2C319.458 119.925 319.106 120.885 319.106 122.08V122.304H326.594V122.016C326.594 120.821 326.263 119.872 325.602 119.168C324.962 118.464 324.077 118.112 322.946 118.112ZM334.838 128.768H338.934V118.72H334.838V115.488H343.03V120H343.286C343.435 119.424 343.638 118.869 343.894 118.336C344.171 117.781 344.512 117.301 344.918 116.896C345.344 116.469 345.856 116.128 346.454 115.872C347.051 115.616 347.766 115.488 348.597 115.488H350.39V119.328H346.998C345.76 119.328 344.79 119.691 344.086 120.416C343.382 121.141 343.03 122.069 343.03 123.2V128.768H348.758V132H334.838V128.768ZM354.025 128.768H358.121V118.72H354.025V115.488H362.217V120H362.473C362.622 119.424 362.825 118.869 363.081 118.336C363.358 117.781 363.7 117.301 364.105 116.896C364.532 116.469 365.044 116.128 365.641 115.872C366.238 115.616 366.953 115.488 367.785 115.488H369.577V119.328H366.185C364.948 119.328 363.977 119.691 363.273 120.416C362.569 121.141 362.217 122.069 362.217 123.2V128.768H367.945V132H354.025V128.768ZM380.413 132.384C379.154 132.384 378.023 132.181 377.021 131.776C376.039 131.371 375.197 130.795 374.493 130.048C373.81 129.301 373.277 128.395 372.893 127.328C372.53 126.261 372.349 125.067 372.349 123.744C372.349 122.421 372.53 121.227 372.893 120.16C373.277 119.093 373.81 118.187 374.493 117.44C375.197 116.693 376.039 116.117 377.021 115.712C378.023 115.307 379.154 115.104 380.413 115.104C381.65 115.104 382.77 115.307 383.773 115.712C384.775 116.117 385.618 116.693 386.301 117.44C387.005 118.187 387.538 119.093 387.901 120.16C388.285 121.227 388.477 122.421 388.477 123.744C388.477 125.067 388.285 126.261 387.901 127.328C387.538 128.395 387.005 129.301 386.301 130.048C385.618 130.795 384.775 131.371 383.773 131.776C382.77 132.181 381.65 132.384 380.413 132.384ZM380.413 129.248C381.586 129.248 382.514 128.896 383.197 128.192C383.879 127.467 384.221 126.411 384.221 125.024V122.464C384.221 121.077 383.879 120.032 383.197 119.328C382.514 118.603 381.586 118.24 380.413 118.24C379.239 118.24 378.311 118.603 377.629 119.328C376.946 120.032 376.605 121.077 376.605 122.464V125.024C376.605 126.411 376.946 127.467 377.629 128.192C378.311 128.896 379.239 129.248 380.413 129.248ZM131.615 174.384C130.356 174.384 129.226 174.181 128.223 173.776C127.22 173.371 126.367 172.795 125.663 172.048C124.98 171.301 124.447 170.395 124.063 169.328C123.7 168.261 123.519 167.067 123.519 165.744C123.519 164.421 123.7 163.227 124.063 162.16C124.447 161.093 124.98 160.187 125.663 159.44C126.367 158.693 127.21 158.117 128.191 157.712C129.194 157.307 130.324 157.104 131.583 157.104C133.332 157.104 134.74 157.467 135.807 158.192C136.874 158.917 137.684 159.877 138.239 161.072L135.071 162.8C134.772 162.096 134.346 161.531 133.791 161.104C133.258 160.656 132.522 160.432 131.583 160.432C130.367 160.432 129.428 160.784 128.767 161.488C128.127 162.192 127.807 163.152 127.807 164.368V167.12C127.807 168.315 128.127 169.275 128.767 170C129.428 170.704 130.388 171.056 131.647 171.056C132.628 171.056 133.407 170.832 133.983 170.384C134.58 169.936 135.06 169.339 135.423 168.592L138.495 170.416C137.94 171.589 137.098 172.549 135.967 173.296C134.858 174.021 133.407 174.384 131.615 174.384ZM150.163 174.384C148.904 174.384 147.773 174.181 146.771 173.776C145.789 173.371 144.947 172.795 144.243 172.048C143.56 171.301 143.027 170.395 142.643 169.328C142.28 168.261 142.099 167.067 142.099 165.744C142.099 164.421 142.28 163.227 142.643 162.16C143.027 161.093 143.56 160.187 144.243 159.44C144.947 158.693 145.789 158.117 146.771 157.712C147.773 157.307 148.904 157.104 150.163 157.104C151.4 157.104 152.52 157.307 153.523 157.712C154.525 158.117 155.368 158.693 156.051 159.44C156.755 160.187 157.288 161.093 157.651 162.16C158.035 163.227 158.227 164.421 158.227 165.744C158.227 167.067 158.035 168.261 157.651 169.328C157.288 170.395 156.755 171.301 156.051 172.048C155.368 172.795 154.525 173.371 153.523 173.776C152.52 174.181 151.4 174.384 150.163 174.384ZM150.163 171.248C151.336 171.248 152.264 170.896 152.947 170.192C153.629 169.467 153.971 168.411 153.971 167.024V164.464C153.971 163.077 153.629 162.032 152.947 161.328C152.264 160.603 151.336 160.24 150.163 160.24C148.989 160.24 148.061 160.603 147.379 161.328C146.696 162.032 146.355 163.077 146.355 164.464V167.024C146.355 168.411 146.696 169.467 147.379 170.192C148.061 170.896 148.989 171.248 150.163 171.248ZM162.15 174V157.488H166.246V160.4H166.406C166.769 159.504 167.323 158.736 168.07 158.096C168.838 157.435 169.894 157.104 171.238 157.104C172.859 157.104 174.171 157.648 175.174 158.736C176.198 159.803 176.71 161.339 176.71 163.344V174H172.614V163.92C172.614 161.531 171.579 160.336 169.51 160.336C169.083 160.336 168.678 160.389 168.294 160.496C167.91 160.603 167.558 160.773 167.238 161.008C166.939 161.221 166.694 161.488 166.502 161.808C166.331 162.128 166.246 162.512 166.246 162.96V174H162.15ZM188.474 174.384C186.66 174.384 185.092 174.107 183.77 173.552C182.447 172.976 181.412 172.208 180.666 171.248L183.066 169.072C183.748 169.819 184.527 170.395 185.402 170.8C186.298 171.205 187.332 171.408 188.506 171.408C189.53 171.408 190.351 171.237 190.97 170.896C191.588 170.555 191.898 170.032 191.898 169.328C191.898 168.731 191.684 168.325 191.258 168.112C190.852 167.899 190.308 167.739 189.626 167.632L186.97 167.216C186.287 167.109 185.615 166.96 184.954 166.768C184.314 166.555 183.738 166.267 183.226 165.904C182.735 165.541 182.34 165.083 182.042 164.528C181.743 163.952 181.594 163.259 181.594 162.448C181.594 160.72 182.234 159.397 183.514 158.48C184.815 157.563 186.596 157.104 188.858 157.104C190.458 157.104 191.812 157.328 192.922 157.776C194.052 158.224 194.98 158.853 195.706 159.664L193.562 162.032C193.092 161.52 192.463 161.072 191.674 160.688C190.906 160.283 189.924 160.08 188.73 160.08C186.639 160.08 185.594 160.731 185.594 162.032C185.594 162.629 185.807 163.045 186.234 163.28C186.66 163.493 187.215 163.653 187.898 163.76L190.522 164.176C191.226 164.283 191.898 164.443 192.538 164.656C193.199 164.848 193.775 165.125 194.266 165.488C194.778 165.851 195.183 166.309 195.482 166.864C195.78 167.419 195.93 168.101 195.93 168.912C195.93 170.619 195.268 171.963 193.946 172.944C192.644 173.904 190.82 174.384 188.474 174.384ZM207.725 174.384C206.466 174.384 205.336 174.181 204.333 173.776C203.352 173.371 202.509 172.795 201.805 172.048C201.122 171.301 200.589 170.395 200.205 169.328C199.842 168.261 199.661 167.067 199.661 165.744C199.661 164.421 199.842 163.227 200.205 162.16C200.589 161.093 201.122 160.187 201.805 159.44C202.509 158.693 203.352 158.117 204.333 157.712C205.336 157.307 206.466 157.104 207.725 157.104C208.962 157.104 210.082 157.307 211.085 157.712C212.088 158.117 212.93 158.693 213.613 159.44C214.317 160.187 214.85 161.093 215.213 162.16C215.597 163.227 215.789 164.421 215.789 165.744C215.789 167.067 215.597 168.261 215.213 169.328C214.85 170.395 214.317 171.301 213.613 172.048C212.93 172.795 212.088 173.371 211.085 173.776C210.082 174.181 208.962 174.384 207.725 174.384ZM207.725 171.248C208.898 171.248 209.826 170.896 210.509 170.192C211.192 169.467 211.533 168.411 211.533 167.024V164.464C211.533 163.077 211.192 162.032 210.509 161.328C209.826 160.603 208.898 160.24 207.725 160.24C206.552 160.24 205.624 160.603 204.941 161.328C204.258 162.032 203.917 163.077 203.917 164.464V167.024C203.917 168.411 204.258 169.467 204.941 170.192C205.624 170.896 206.552 171.248 207.725 171.248ZM219.617 170.768H224.865V153.552H219.617V150.32H228.961V170.768H234.241V174H219.617V170.768ZM246.484 174.384C245.161 174.384 243.988 174.181 242.964 173.776C241.94 173.371 241.076 172.795 240.372 172.048C239.689 171.301 239.167 170.405 238.804 169.36C238.441 168.293 238.26 167.099 238.26 165.776C238.26 164.432 238.441 163.227 238.804 162.16C239.188 161.093 239.721 160.187 240.404 159.44C241.087 158.693 241.908 158.117 242.868 157.712C243.849 157.307 244.948 157.104 246.164 157.104C247.359 157.104 248.436 157.307 249.396 157.712C250.356 158.096 251.167 158.651 251.828 159.376C252.511 160.101 253.033 160.976 253.396 162C253.759 163.024 253.94 164.155 253.94 165.392V166.736H242.356V167.152C242.356 168.347 242.729 169.317 243.476 170.064C244.223 170.789 245.268 171.152 246.612 171.152C247.636 171.152 248.511 170.949 249.236 170.544C249.983 170.117 250.601 169.563 251.092 168.88L253.428 171.216C252.831 172.091 251.956 172.837 250.804 173.456C249.673 174.075 248.233 174.384 246.484 174.384ZM246.196 160.112C245.044 160.112 244.116 160.475 243.412 161.2C242.708 161.925 242.356 162.885 242.356 164.08V164.304H249.844V164.016C249.844 162.821 249.513 161.872 248.852 161.168C248.212 160.464 247.327 160.112 246.196 160.112ZM399.984 174.384C398.661 174.384 397.488 174.181 396.464 173.776C395.44 173.371 394.576 172.795 393.872 172.048C393.189 171.301 392.667 170.405 392.304 169.36C391.941 168.293 391.76 167.099 391.76 165.776C391.76 164.432 391.941 163.227 392.304 162.16C392.688 161.093 393.221 160.187 393.904 159.44C394.587 158.693 395.408 158.117 396.368 157.712C397.349 157.307 398.448 157.104 399.664 157.104C400.859 157.104 401.936 157.307 402.896 157.712C403.856 158.096 404.667 158.651 405.328 159.376C406.011 160.101 406.533 160.976 406.896 162C407.259 163.024 407.44 164.155 407.44 165.392V166.736H395.856V167.152C395.856 168.347 396.229 169.317 396.976 170.064C397.723 170.789 398.768 171.152 400.112 171.152C401.136 171.152 402.011 170.949 402.736 170.544C403.483 170.117 404.101 169.563 404.592 168.88L406.928 171.216C406.331 172.091 405.456 172.837 404.304 173.456C403.173 174.075 401.733 174.384 399.984 174.384ZM399.696 160.112C398.544 160.112 397.616 160.475 396.912 161.2C396.208 161.925 395.856 162.885 395.856 164.08V164.304H403.344V164.016C403.344 162.821 403.013 161.872 402.352 161.168C401.712 160.464 400.827 160.112 399.696 160.112ZM411.588 170.768H415.684V160.72H411.588V157.488H419.78V162H420.036C420.185 161.424 420.388 160.869 420.644 160.336C420.921 159.781 421.262 159.301 421.668 158.896C422.094 158.469 422.606 158.128 423.204 157.872C423.801 157.616 424.516 157.488 425.347 157.488H427.14V161.328H423.748C422.51 161.328 421.54 161.691 420.836 162.416C420.132 163.141 419.78 164.069 419.78 165.2V170.768H425.508V174H411.588V170.768ZM430.775 170.768H434.871V160.72H430.775V157.488H438.967V162H439.223C439.372 161.424 439.575 160.869 439.831 160.336C440.108 159.781 440.45 159.301 440.855 158.896C441.282 158.469 441.794 158.128 442.391 157.872C442.988 157.616 443.703 157.488 444.535 157.488H446.327V161.328H442.935C441.698 161.328 440.727 161.691 440.023 162.416C439.319 163.141 438.967 164.069 438.967 165.2V170.768H444.695V174H430.775V170.768ZM457.163 174.384C455.904 174.384 454.773 174.181 453.771 173.776C452.789 173.371 451.947 172.795 451.243 172.048C450.56 171.301 450.027 170.395 449.643 169.328C449.28 168.261 449.099 167.067 449.099 165.744C449.099 164.421 449.28 163.227 449.643 162.16C450.027 161.093 450.56 160.187 451.243 159.44C451.947 158.693 452.789 158.117 453.771 157.712C454.773 157.307 455.904 157.104 457.163 157.104C458.4 157.104 459.52 157.307 460.523 157.712C461.525 158.117 462.368 158.693 463.051 159.44C463.755 160.187 464.288 161.093 464.651 162.16C465.035 163.227 465.227 164.421 465.227 165.744C465.227 167.067 465.035 168.261 464.651 169.328C464.288 170.395 463.755 171.301 463.051 172.048C462.368 172.795 461.525 173.371 460.523 173.776C459.52 174.181 458.4 174.384 457.163 174.384ZM457.163 171.248C458.336 171.248 459.264 170.896 459.947 170.192C460.629 169.467 460.971 168.411 460.971 167.024V164.464C460.971 163.077 460.629 162.032 459.947 161.328C459.264 160.603 458.336 160.24 457.163 160.24C455.989 160.24 455.061 160.603 454.379 161.328C453.696 162.032 453.355 163.077 453.355 164.464V167.024C453.355 168.411 453.696 169.467 454.379 170.192C455.061 170.896 455.989 171.248 457.163 171.248Z" fill="#B2D1FF"/>
<path d="M246.1 48.352C244.991 48.352 244.201 48.1173 243.732 47.648C243.263 47.1787 243.028 46.6027 243.028 45.92V44.96C243.028 44.2773 243.263 43.7013 243.732 43.232C244.201 42.7627 244.991 42.528 246.1 42.528C247.209 42.528 247.999 42.7627 248.468 43.232C248.937 43.7013 249.172 44.2773 249.172 44.96V45.92C249.172 46.6027 248.937 47.1787 248.468 47.648C247.999 48.1173 247.209 48.352 246.1 48.352ZM338.294 38.048C338.294 36.4907 338.464 34.9973 338.806 33.568C339.168 32.1173 339.648 30.7733 340.246 29.536C340.864 28.2987 341.579 27.1893 342.39 26.208C343.2 25.2053 344.054 24.3627 344.95 23.68H349.046C348.086 24.3627 347.168 25.1627 346.294 26.08C345.419 26.9973 344.651 28.0107 343.99 29.12C343.328 30.208 342.795 31.3813 342.39 32.64C342.006 33.8773 341.814 35.168 341.814 36.512V39.584C341.814 40.928 342.006 42.2293 342.39 43.488C342.795 44.7253 343.328 45.8987 343.99 47.008C344.651 48.096 345.419 49.0987 346.294 50.016C347.168 50.9333 348.086 51.7333 349.046 52.416H344.95C344.054 51.7547 343.2 50.9227 342.39 49.92C341.579 48.9173 340.864 47.7973 340.246 46.56C339.648 45.3227 339.168 43.9893 338.806 42.56C338.464 41.1093 338.294 39.6053 338.294 38.048ZM357.481 38.048C357.481 36.4907 357.652 34.9973 357.993 33.568C358.356 32.1173 358.836 30.7733 359.433 29.536C360.052 28.2987 360.766 27.1893 361.577 26.208C362.388 25.2053 363.241 24.3627 364.137 23.68H368.233C367.273 24.3627 366.356 25.1627 365.481 26.08C364.606 26.9973 363.838 28.0107 363.177 29.12C362.516 30.208 361.982 31.3813 361.577 32.64C361.193 33.8773 361.001 35.168 361.001 36.512V39.584C361.001 40.928 361.193 42.2293 361.577 43.488C361.982 44.7253 362.516 45.8987 363.177 47.008C363.838 48.096 364.606 49.0987 365.481 50.016C366.356 50.9333 367.273 51.7333 368.233 52.416H364.137C363.241 51.7547 362.388 50.9227 361.577 49.92C360.766 48.9173 360.052 47.7973 359.433 46.56C358.836 45.3227 358.356 43.9893 357.993 42.56C357.652 41.1093 357.481 39.6053 357.481 38.048ZM537.657 38.048C537.657 39.6053 537.475 41.1093 537.113 42.56C536.771 43.9893 536.291 45.3227 535.673 46.56C535.075 47.7973 534.371 48.9173 533.561 49.92C532.75 50.9227 531.897 51.7547 531.001 52.416H526.905C527.865 51.7333 528.782 50.9333 529.657 50.016C530.531 49.0987 531.299 48.096 531.961 47.008C532.622 45.8987 533.145 44.7253 533.529 43.488C533.934 42.2293 534.137 40.928 534.137 39.584V36.512C534.137 35.168 533.934 33.8773 533.529 32.64C533.145 31.3813 532.622 30.208 531.961 29.12C531.299 28.0107 530.531 26.9973 529.657 26.08C528.782 25.1627 527.865 24.3627 526.905 23.68H531.001C531.897 24.3627 532.75 25.2053 533.561 26.208C534.371 27.1893 535.075 28.2987 535.673 29.536C536.291 30.7733 536.771 32.1173 537.113 33.568C537.475 34.9973 537.657 36.4907 537.657 38.048ZM630.714 52.416C629.434 52.416 628.506 52.1173 627.93 51.52C627.354 50.9227 627.066 50.1547 627.066 49.216V47.616C627.066 47.0613 627.119 46.5813 627.226 46.176C627.354 45.7493 627.503 45.376 627.674 45.056C627.845 44.736 628.037 44.448 628.25 44.192C628.463 43.936 628.666 43.6907 628.858 43.456C629.221 43.0293 629.466 42.6667 629.594 42.368C629.743 42.048 629.818 41.7173 629.818 41.376C629.818 40.096 628.581 39.456 626.106 39.456H623.322V36.64H626.106C628.581 36.64 629.818 36 629.818 34.72C629.818 34.3787 629.743 34.0587 629.594 33.76C629.466 33.44 629.221 33.0667 628.858 32.64C628.666 32.4053 628.463 32.16 628.25 31.904C628.037 31.648 627.845 31.36 627.674 31.04C627.503 30.72 627.354 30.3573 627.226 29.952C627.119 29.5253 627.066 29.0347 627.066 28.48V26.88C627.066 25.9413 627.354 25.1733 627.93 24.576C628.506 23.9787 629.434 23.68 630.714 23.68H636.378V26.496H630.394V28.288C630.394 29.12 630.522 29.76 630.778 30.208C631.034 30.656 631.333 31.0933 631.674 31.52C632.037 31.968 632.378 32.448 632.698 32.96C633.018 33.472 633.178 34.0693 633.178 34.752C633.178 35.648 632.869 36.3733 632.25 36.928C631.631 37.4613 630.714 37.8027 629.498 37.952V38.144C630.714 38.2933 631.631 38.6453 632.25 39.2C632.869 39.7333 633.178 40.448 633.178 41.344C633.178 42.0267 633.018 42.624 632.698 43.136C632.378 43.648 632.037 44.128 631.674 44.576C631.333 45.0027 631.034 45.44 630.778 45.888C630.522 46.336 630.394 46.976 630.394 47.808V49.6H636.378V52.416H630.714ZM265.288 90.352C264.178 90.352 263.389 90.1173 262.92 89.648C262.45 89.1787 262.216 88.6027 262.216 87.92V86.96C262.216 86.2773 262.45 85.7013 262.92 85.232C263.389 84.7627 264.178 84.528 265.288 84.528C266.397 84.528 267.186 84.7627 267.656 85.232C268.125 85.7013 268.36 86.2773 268.36 86.96V87.92C268.36 88.6027 268.125 89.1787 267.656 89.648C267.186 90.1173 266.397 90.352 265.288 90.352ZM338.294 80.048C338.294 78.4907 338.464 76.9973 338.806 75.568C339.168 74.1173 339.648 72.7733 340.246 71.536C340.864 70.2987 341.579 69.1893 342.39 68.208C343.2 67.2053 344.054 66.3627 344.95 65.68H349.046C348.086 66.3627 347.168 67.1627 346.294 68.08C345.419 68.9973 344.651 70.0107 343.99 71.12C343.328 72.208 342.795 73.3813 342.39 74.64C342.006 75.8773 341.814 77.168 341.814 78.512V81.584C341.814 82.928 342.006 84.2293 342.39 85.488C342.795 86.7253 343.328 87.8987 343.99 89.008C344.651 90.096 345.419 91.0987 346.294 92.016C347.168 92.9333 348.086 93.7333 349.046 94.416H344.95C344.054 93.7547 343.2 92.9227 342.39 91.92C341.579 90.9173 340.864 89.7973 340.246 88.56C339.648 87.3227 339.168 85.9893 338.806 84.56C338.464 83.1093 338.294 81.6053 338.294 80.048ZM518.469 80.048C518.469 81.6053 518.288 83.1093 517.925 84.56C517.584 85.9893 517.104 87.3227 516.485 88.56C515.888 89.7973 515.184 90.9173 514.373 91.92C513.562 92.9227 512.709 93.7547 511.813 94.416H507.717C508.677 93.7333 509.594 92.9333 510.469 92.016C511.344 91.0987 512.112 90.096 512.773 89.008C513.434 87.8987 513.957 86.7253 514.341 85.488C514.746 84.2293 514.949 82.928 514.949 81.584V78.512C514.949 77.168 514.746 75.8773 514.341 74.64C513.957 73.3813 513.434 72.208 512.773 71.12C512.112 70.0107 511.344 68.9973 510.469 68.08C509.594 67.1627 508.677 66.3627 507.717 65.68H511.813C512.709 66.3627 513.562 67.2053 514.373 68.208C515.184 69.1893 515.888 70.2987 516.485 71.536C517.104 72.7733 517.584 74.1173 517.925 75.568C518.288 76.9973 518.469 78.4907 518.469 80.048ZM531.865 84.784H537.369L533.177 94.736H530.073L531.865 84.784ZM533.913 78.992C532.803 78.992 532.014 78.7573 531.545 78.288C531.075 77.8187 530.841 77.2427 530.841 76.56V75.6C530.841 74.9173 531.075 74.3413 531.545 73.872C532.014 73.4027 532.803 73.168 533.913 73.168C535.022 73.168 535.811 73.4027 536.281 73.872C536.75 74.3413 536.985 74.9173 536.985 75.6V76.56C536.985 77.2427 536.75 77.8187 536.281 78.288C535.811 78.7573 535.022 78.992 533.913 78.992ZM130.111 107.68C131.391 107.68 132.319 107.979 132.895 108.576C133.471 109.173 133.759 109.941 133.759 110.88V112.48C133.759 113.035 133.695 113.525 133.567 113.952C133.46 114.357 133.322 114.72 133.151 115.04C132.98 115.36 132.788 115.648 132.575 115.904C132.362 116.16 132.159 116.405 131.967 116.64C131.604 117.067 131.348 117.44 131.199 117.76C131.071 118.059 131.007 118.379 131.007 118.72C131.007 120 132.244 120.64 134.719 120.64H137.503V123.456H134.719C132.244 123.456 131.007 124.096 131.007 125.376C131.007 125.717 131.071 126.048 131.199 126.368C131.348 126.667 131.604 127.029 131.967 127.456C132.159 127.691 132.362 127.936 132.575 128.192C132.788 128.448 132.98 128.736 133.151 129.056C133.322 129.376 133.46 129.749 133.567 130.176C133.695 130.581 133.759 131.061 133.759 131.616V133.216C133.759 134.155 133.471 134.923 132.895 135.52C132.319 136.117 131.391 136.416 130.111 136.416H124.447V133.6H130.431V131.808C130.431 130.976 130.303 130.336 130.047 129.888C129.791 129.44 129.492 129.003 129.151 128.576C128.788 128.128 128.447 127.648 128.127 127.136C127.807 126.624 127.647 126.027 127.647 125.344C127.647 124.448 127.956 123.733 128.575 123.2C129.194 122.645 130.111 122.293 131.327 122.144V121.952C130.111 121.803 129.194 121.461 128.575 120.928C127.956 120.373 127.647 119.648 127.647 118.752C127.647 118.069 127.807 117.472 128.127 116.96C128.447 116.448 128.788 115.968 129.151 115.52C129.492 115.093 129.791 114.656 130.047 114.208C130.303 113.76 130.431 113.12 130.431 112.288V110.496H124.447V107.68H130.111ZM153.907 122.048C153.907 123.605 153.725 125.109 153.363 126.56C153.021 127.989 152.541 129.323 151.923 130.56C151.325 131.797 150.621 132.917 149.811 133.92C149 134.923 148.147 135.755 147.251 136.416H143.155C144.115 135.733 145.032 134.933 145.907 134.016C146.781 133.099 147.549 132.096 148.211 131.008C148.872 129.899 149.395 128.725 149.779 127.488C150.184 126.229 150.387 124.928 150.387 123.584V120.512C150.387 119.168 150.184 117.877 149.779 116.64C149.395 115.381 148.872 114.208 148.211 113.12C147.549 112.011 146.781 110.997 145.907 110.08C145.032 109.163 144.115 108.363 143.155 107.68H147.251C148.147 108.363 149 109.205 149.811 110.208C150.621 111.189 151.325 112.299 151.923 113.536C152.541 114.773 153.021 116.117 153.363 117.568C153.725 118.997 153.907 120.491 153.907 122.048ZM169.35 132.352C168.241 132.352 167.451 132.117 166.982 131.648C166.513 131.179 166.278 130.603 166.278 129.92V128.96C166.278 128.277 166.513 127.701 166.982 127.232C167.451 126.763 168.241 126.528 169.35 126.528C170.459 126.528 171.249 126.763 171.718 127.232C172.187 127.701 172.422 128.277 172.422 128.96V129.92C172.422 130.603 172.187 131.179 171.718 131.648C171.249 132.117 170.459 132.352 169.35 132.352ZM280.731 122.048C280.731 120.491 280.902 118.997 281.243 117.568C281.606 116.117 282.086 114.773 282.683 113.536C283.302 112.299 284.016 111.189 284.827 110.208C285.638 109.205 286.491 108.363 287.387 107.68H291.483C290.523 108.363 289.606 109.163 288.731 110.08C287.856 110.997 287.088 112.011 286.427 113.12C285.766 114.208 285.232 115.381 284.827 116.64C284.443 117.877 284.251 119.168 284.251 120.512V123.584C284.251 124.928 284.443 126.229 284.827 127.488C285.232 128.725 285.766 129.899 286.427 131.008C287.088 132.096 287.856 133.099 288.731 134.016C289.606 134.933 290.523 135.733 291.483 136.416H287.387C286.491 135.755 285.638 134.923 284.827 133.92C284.016 132.917 283.302 131.797 282.683 130.56C282.086 129.323 281.606 127.989 281.243 126.56C280.902 125.109 280.731 123.605 280.731 122.048ZM299.919 122.048C299.919 120.491 300.089 118.997 300.431 117.568C300.793 116.117 301.273 114.773 301.871 113.536C302.489 112.299 303.204 111.189 304.015 110.208C304.825 109.205 305.679 108.363 306.575 107.68H310.671C309.711 108.363 308.793 109.163 307.919 110.08C307.044 110.997 306.276 112.011 305.615 113.12C304.953 114.208 304.42 115.381 304.015 116.64C303.631 117.877 303.439 119.168 303.439 120.512V123.584C303.439 124.928 303.631 126.229 304.015 127.488C304.42 128.725 304.953 129.899 305.615 131.008C306.276 132.096 307.044 133.099 307.919 134.016C308.793 134.933 309.711 135.733 310.671 136.416H306.575C305.679 135.755 304.825 134.923 304.015 133.92C303.204 132.917 302.489 131.797 301.871 130.56C301.273 129.323 300.793 127.989 300.431 126.56C300.089 125.109 299.919 123.605 299.919 122.048ZM403.344 122.048C403.344 123.605 403.163 125.109 402.8 126.56C402.459 127.989 401.979 129.323 401.36 130.56C400.763 131.797 400.059 132.917 399.248 133.92C398.437 134.923 397.584 135.755 396.688 136.416H392.592C393.552 135.733 394.469 134.933 395.344 134.016C396.219 133.099 396.987 132.096 397.648 131.008C398.309 129.899 398.832 128.725 399.216 127.488C399.621 126.229 399.824 124.928 399.824 123.584V120.512C399.824 119.168 399.621 117.877 399.216 116.64C398.832 115.381 398.309 114.208 397.648 113.12C396.987 112.011 396.219 110.997 395.344 110.08C394.469 109.163 393.552 108.363 392.592 107.68H396.688C397.584 108.363 398.437 109.205 399.248 110.208C400.059 111.189 400.763 112.299 401.36 113.536C401.979 114.773 402.459 116.117 402.8 117.568C403.163 118.997 403.344 120.491 403.344 122.048ZM496.402 136.416C495.122 136.416 494.194 136.117 493.618 135.52C493.042 134.923 492.754 134.155 492.754 133.216V131.616C492.754 131.061 492.807 130.581 492.914 130.176C493.042 129.749 493.191 129.376 493.362 129.056C493.532 128.736 493.724 128.448 493.938 128.192C494.151 127.936 494.354 127.691 494.546 127.456C494.908 127.029 495.154 126.667 495.282 126.368C495.431 126.048 495.506 125.717 495.506 125.376C495.506 124.096 494.268 123.456 491.794 123.456H489.01V120.64H491.794C494.268 120.64 495.506 120 495.506 118.72C495.506 118.379 495.431 118.059 495.282 117.76C495.154 117.44 494.908 117.067 494.546 116.64C494.354 116.405 494.151 116.16 493.938 115.904C493.724 115.648 493.532 115.36 493.362 115.04C493.191 114.72 493.042 114.357 492.914 113.952C492.807 113.525 492.754 113.035 492.754 112.48V110.88C492.754 109.941 493.042 109.173 493.618 108.576C494.194 107.979 495.122 107.68 496.402 107.68H502.066V110.496H496.082V112.288C496.082 113.12 496.21 113.76 496.466 114.208C496.722 114.656 497.02 115.093 497.362 115.52C497.724 115.968 498.066 116.448 498.386 116.96C498.706 117.472 498.866 118.069 498.866 118.752C498.866 119.648 498.556 120.373 497.938 120.928C497.319 121.461 496.402 121.803 495.186 121.952V122.144C496.402 122.293 497.319 122.645 497.938 123.2C498.556 123.733 498.866 124.448 498.866 125.344C498.866 126.027 498.706 126.624 498.386 127.136C498.066 127.648 497.724 128.128 497.362 128.576C497.02 129.003 496.722 129.44 496.466 129.888C496.21 130.336 496.082 130.976 496.082 131.808V133.6H502.066V136.416H496.402ZM265.288 174.352C264.178 174.352 263.389 174.117 262.92 173.648C262.45 173.179 262.216 172.603 262.216 171.92V170.96C262.216 170.277 262.45 169.701 262.92 169.232C263.389 168.763 264.178 168.528 265.288 168.528C266.397 168.528 267.186 168.763 267.656 169.232C268.125 169.701 268.36 170.277 268.36 170.96V171.92C268.36 172.603 268.125 173.179 267.656 173.648C267.186 174.117 266.397 174.352 265.288 174.352ZM376.669 164.048C376.669 162.491 376.839 160.997 377.181 159.568C377.543 158.117 378.023 156.773 378.621 155.536C379.239 154.299 379.954 153.189 380.765 152.208C381.575 151.205 382.429 150.363 383.325 149.68H387.421C386.461 150.363 385.543 151.163 384.669 152.08C383.794 152.997 383.026 154.011 382.365 155.12C381.703 156.208 381.17 157.381 380.765 158.64C380.381 159.877 380.189 161.168 380.189 162.512V165.584C380.189 166.928 380.381 168.229 380.765 169.488C381.17 170.725 381.703 171.899 382.365 173.008C383.026 174.096 383.794 175.099 384.669 176.016C385.543 176.933 386.461 177.733 387.421 178.416H383.325C382.429 177.755 381.575 176.923 380.765 175.92C379.954 174.917 379.239 173.797 378.621 172.56C378.023 171.323 377.543 169.989 377.181 168.56C376.839 167.109 376.669 165.605 376.669 164.048ZM480.094 164.048C480.094 165.605 479.913 167.109 479.55 168.56C479.209 169.989 478.729 171.323 478.11 172.56C477.513 173.797 476.809 174.917 475.998 175.92C475.187 176.923 474.334 177.755 473.438 178.416H469.342C470.302 177.733 471.219 176.933 472.094 176.016C472.969 175.099 473.737 174.096 474.398 173.008C475.059 171.899 475.582 170.725 475.966 169.488C476.371 168.229 476.574 166.928 476.574 165.584V162.512C476.574 161.168 476.371 159.877 475.966 158.64C475.582 157.381 475.059 156.208 474.398 155.12C473.737 154.011 472.969 152.997 472.094 152.08C471.219 151.163 470.302 150.363 469.342 149.68H473.438C474.334 150.363 475.187 151.205 475.998 152.208C476.809 153.189 477.513 154.299 478.11 155.536C478.729 156.773 479.209 158.117 479.55 159.568C479.913 160.997 480.094 162.491 480.094 164.048ZM493.49 168.784H498.994L494.802 178.736H491.698L493.49 168.784ZM495.538 162.992C494.428 162.992 493.639 162.757 493.17 162.288C492.7 161.819 492.466 161.243 492.466 160.56V159.6C492.466 158.917 492.7 158.341 493.17 157.872C493.639 157.403 494.428 157.168 495.538 157.168C496.647 157.168 497.436 157.403 497.906 157.872C498.375 158.341 498.61 158.917 498.61 159.6V160.56C498.61 161.243 498.375 161.819 497.906 162.288C497.436 162.757 496.647 162.992 495.538 162.992ZM130.111 191.68C131.391 191.68 132.319 191.979 132.895 192.576C133.471 193.173 133.759 193.941 133.759 194.88V196.48C133.759 197.035 133.695 197.525 133.567 197.952C133.46 198.357 133.322 198.72 133.151 199.04C132.98 199.36 132.788 199.648 132.575 199.904C132.362 200.16 132.159 200.405 131.967 200.64C131.604 201.067 131.348 201.44 131.199 201.76C131.071 202.059 131.007 202.379 131.007 202.72C131.007 204 132.244 204.64 134.719 204.64H137.503V207.456H134.719C132.244 207.456 131.007 208.096 131.007 209.376C131.007 209.717 131.071 210.048 131.199 210.368C131.348 210.667 131.604 211.029 131.967 211.456C132.159 211.691 132.362 211.936 132.575 212.192C132.788 212.448 132.98 212.736 133.151 213.056C133.322 213.376 133.46 213.749 133.567 214.176C133.695 214.581 133.759 215.061 133.759 215.616V217.216C133.759 218.155 133.471 218.923 132.895 219.52C132.319 220.117 131.391 220.416 130.111 220.416H124.447V217.6H130.431V215.808C130.431 214.976 130.303 214.336 130.047 213.888C129.791 213.44 129.492 213.003 129.151 212.576C128.788 212.128 128.447 211.648 128.127 211.136C127.807 210.624 127.647 210.027 127.647 209.344C127.647 208.448 127.956 207.733 128.575 207.2C129.194 206.645 130.111 206.293 131.327 206.144V205.952C130.111 205.803 129.194 205.461 128.575 204.928C127.956 204.373 127.647 203.648 127.647 202.752C127.647 202.069 127.807 201.472 128.127 200.96C128.447 200.448 128.788 199.968 129.151 199.52C129.492 199.093 129.791 198.656 130.047 198.208C130.303 197.76 130.431 197.12 130.431 196.288V194.496H124.447V191.68H130.111ZM153.907 206.048C153.907 207.605 153.725 209.109 153.363 210.56C153.021 211.989 152.541 213.323 151.923 214.56C151.325 215.797 150.621 216.917 149.811 217.92C149 218.923 148.147 219.755 147.251 220.416H143.155C144.115 219.733 145.032 218.933 145.907 218.016C146.781 217.099 147.549 216.096 148.211 215.008C148.872 213.899 149.395 212.725 149.779 211.488C150.184 210.229 150.387 208.928 150.387 207.584V204.512C150.387 203.168 150.184 201.877 149.779 200.64C149.395 199.381 148.872 198.208 148.211 197.12C147.549 196.011 146.781 194.997 145.907 194.08C145.032 193.163 144.115 192.363 143.155 191.68H147.251C148.147 192.363 149 193.205 149.811 194.208C150.621 195.189 151.325 196.299 151.923 197.536C152.541 198.773 153.021 200.117 153.363 201.568C153.725 202.997 153.907 204.491 153.907 206.048ZM167.302 210.784H172.806L168.614 220.736H165.51L167.302 210.784ZM169.35 204.992C168.241 204.992 167.451 204.757 166.982 204.288C166.513 203.819 166.278 203.243 166.278 202.56V201.6C166.278 200.917 166.513 200.341 166.982 199.872C167.451 199.403 168.241 199.168 169.35 199.168C170.459 199.168 171.249 199.403 171.718 199.872C172.187 200.341 172.422 200.917 172.422 201.6V202.56C172.422 203.243 172.187 203.819 171.718 204.288C171.249 204.757 170.459 204.992 169.35 204.992Z" fill="white"/>
<path d="M266.408 48C264.829 48 263.666 47.584 262.92 46.752C262.173 45.92 261.8 44.8427 261.8 43.52V34.72H257V31.488H260.264C260.925 31.488 261.394 31.36 261.672 31.104C261.949 30.8267 262.088 30.3467 262.088 29.664V25.664H265.896V31.488H272.616V34.72H265.896V44.768H272.616V48H266.408ZM277.275 24.32H281.371V34.4H281.531C281.894 33.504 282.448 32.736 283.195 32.096C283.963 31.4347 285.019 31.104 286.363 31.104C287.984 31.104 289.296 31.648 290.299 32.736C291.323 33.8027 291.835 35.3387 291.835 37.344V48H287.739V37.92C287.739 35.5307 286.704 34.336 284.635 34.336C284.208 34.336 283.803 34.3893 283.419 34.496C283.035 34.6027 282.683 34.7733 282.363 35.008C282.064 35.2213 281.819 35.488 281.627 35.808C281.456 36.128 281.371 36.512 281.371 36.96V48H277.275V24.32ZM304.047 48.384C302.724 48.384 301.551 48.1813 300.527 47.776C299.503 47.3707 298.639 46.7947 297.935 46.048C297.252 45.3013 296.729 44.4053 296.367 43.36C296.004 42.2933 295.823 41.0987 295.823 39.776C295.823 38.432 296.004 37.2267 296.367 36.16C296.751 35.0933 297.284 34.1867 297.967 33.44C298.649 32.6933 299.471 32.1173 300.431 31.712C301.412 31.3067 302.511 31.104 303.727 31.104C304.921 31.104 305.999 31.3067 306.959 31.712C307.919 32.096 308.729 32.6507 309.391 33.376C310.073 34.1013 310.596 34.976 310.958 36C311.321 37.024 311.503 38.1547 311.503 39.392V40.736H299.919V41.152C299.919 42.3467 300.292 43.3173 301.039 44.064C301.785 44.7893 302.831 45.152 304.175 45.152C305.199 45.152 306.073 44.9493 306.799 44.544C307.545 44.1173 308.164 43.5627 308.655 42.88L310.991 45.216C310.393 46.0907 309.519 46.8373 308.367 47.456C307.236 48.0747 305.796 48.384 304.047 48.384ZM303.759 34.112C302.607 34.112 301.679 34.4747 300.975 35.2C300.271 35.9253 299.919 36.8853 299.919 38.08V38.304H307.407V38.016C307.407 36.8213 307.076 35.872 306.415 35.168C305.775 34.464 304.889 34.112 303.759 34.112ZM315.65 48V31.488H319.746V34.4H319.906C320.269 33.504 320.823 32.736 321.57 32.096C322.338 31.4347 323.394 31.104 324.738 31.104C326.359 31.104 327.671 31.648 328.674 32.736C329.698 33.8027 330.21 35.3387 330.21 37.344V48H326.114V37.92C326.114 35.5307 325.079 34.336 323.01 34.336C322.583 34.336 322.178 34.3893 321.794 34.496C321.41 34.6027 321.058 34.7733 320.738 35.008C320.439 35.2213 320.194 35.488 320.002 35.808C319.831 36.128 319.746 36.512 319.746 36.96V48H315.65ZM277.179 86.768H282.427V69.552H277.179V66.32H286.523V86.768H291.803V90H277.179V86.768ZM303.663 90.384C302.404 90.384 301.273 90.1813 300.271 89.776C299.289 89.3707 298.447 88.7947 297.743 88.048C297.06 87.3013 296.527 86.3947 296.143 85.328C295.78 84.2613 295.599 83.0667 295.599 81.744C295.599 80.4213 295.78 79.2267 296.143 78.16C296.527 77.0933 297.06 76.1867 297.743 75.44C298.447 74.6933 299.289 74.1173 300.271 73.712C301.273 73.3067 302.404 73.104 303.663 73.104C304.9 73.104 306.02 73.3067 307.023 73.712C308.025 74.1173 308.868 74.6933 309.551 75.44C310.255 76.1867 310.788 77.0933 311.151 78.16C311.535 79.2267 311.727 80.4213 311.727 81.744C311.727 83.0667 311.535 84.2613 311.151 85.328C310.788 86.3947 310.255 87.3013 309.551 88.048C308.868 88.7947 308.025 89.3707 307.023 89.776C306.02 90.1813 304.9 90.384 303.663 90.384ZM303.663 87.248C304.836 87.248 305.764 86.896 306.447 86.192C307.129 85.4667 307.471 84.4107 307.471 83.024V80.464C307.471 79.0773 307.129 78.032 306.447 77.328C305.764 76.6027 304.836 76.24 303.663 76.24C302.489 76.24 301.561 76.6027 300.879 77.328C300.196 78.032 299.855 79.0773 299.855 80.464V83.024C299.855 84.4107 300.196 85.4667 300.879 86.192C301.561 86.896 302.489 87.248 303.663 87.248ZM331.682 91.728C331.682 93.456 330.957 94.7253 329.506 95.536C328.077 96.368 325.837 96.784 322.786 96.784C321.293 96.784 320.045 96.688 319.042 96.496C318.039 96.3253 317.229 96.0693 316.61 95.728C316.013 95.3867 315.586 94.9707 315.33 94.48C315.074 94.0107 314.946 93.4773 314.946 92.88C314.946 91.9627 315.213 91.2587 315.746 90.768C316.279 90.2773 317.026 89.9147 317.986 89.68V89.424C317.346 89.2107 316.834 88.912 316.45 88.528C316.087 88.144 315.906 87.6107 315.906 86.928C315.906 86.1173 316.173 85.5093 316.706 85.104C317.261 84.6987 317.986 84.3893 318.882 84.176V84.016C317.901 83.5467 317.133 82.8853 316.578 82.032C316.023 81.1787 315.746 80.144 315.746 78.928C315.746 78.0107 315.906 77.2 316.226 76.496C316.567 75.7707 317.037 75.1627 317.634 74.672C318.253 74.16 318.989 73.776 319.842 73.52C320.695 73.2427 321.645 73.104 322.69 73.104C323.799 73.104 324.802 73.2533 325.698 73.552V72.848C325.698 72.208 325.901 71.6747 326.306 71.248C326.733 70.8213 327.319 70.608 328.066 70.608H331.042V73.68H327.138V74.224C327.949 74.7147 328.567 75.3547 328.994 76.144C329.442 76.912 329.666 77.84 329.666 78.928C329.666 79.8453 329.495 80.6667 329.154 81.392C328.834 82.1173 328.365 82.7253 327.746 83.216C327.149 83.7067 326.413 84.0907 325.538 84.368C324.685 84.624 323.735 84.752 322.69 84.752C322.263 84.752 321.847 84.7413 321.442 84.72C321.058 84.6773 320.685 84.6027 320.322 84.496C320.023 84.6027 319.735 84.7733 319.458 85.008C319.181 85.2427 319.042 85.552 319.042 85.936C319.042 86.448 319.287 86.768 319.778 86.896C320.269 87.0027 320.855 87.056 321.538 87.056H325.282C326.434 87.056 327.415 87.1733 328.226 87.408C329.037 87.6213 329.698 87.9413 330.21 88.368C330.722 88.7733 331.095 89.264 331.33 89.84C331.565 90.416 331.682 91.0453 331.682 91.728ZM327.842 92.016C327.842 91.5253 327.639 91.1307 327.234 90.832C326.85 90.5547 326.125 90.416 325.058 90.416H319.362C318.722 90.7787 318.402 91.312 318.402 92.016C318.402 92.592 318.637 93.072 319.106 93.456C319.597 93.84 320.418 94.032 321.57 94.032H324.226C326.637 94.032 327.842 93.36 327.842 92.016ZM322.69 82.064C323.735 82.064 324.503 81.8187 324.994 81.328C325.485 80.816 325.73 80.1547 325.73 79.344V78.512C325.73 77.7013 325.485 77.0507 324.994 76.56C324.503 76.048 323.735 75.792 322.69 75.792C321.666 75.792 320.909 76.048 320.418 76.56C319.927 77.0507 319.682 77.7013 319.682 78.512V79.344C319.682 80.1547 319.927 80.816 320.418 81.328C320.909 81.8187 321.666 82.064 322.69 82.064ZM189.178 132.384C187.919 132.384 186.788 132.181 185.786 131.776C184.783 131.371 183.93 130.795 183.226 130.048C182.543 129.301 182.01 128.395 181.626 127.328C181.263 126.261 181.082 125.067 181.082 123.744C181.082 122.421 181.263 121.227 181.626 120.16C182.01 119.093 182.543 118.187 183.226 117.44C183.93 116.693 184.772 116.117 185.754 115.712C186.756 115.307 187.887 115.104 189.146 115.104C190.895 115.104 192.303 115.467 193.37 116.192C194.436 116.917 195.247 117.877 195.802 119.072L192.634 120.8C192.335 120.096 191.908 119.531 191.354 119.104C190.82 118.656 190.084 118.432 189.146 118.432C187.93 118.432 186.991 118.784 186.33 119.488C185.69 120.192 185.37 121.152 185.37 122.368V125.12C185.37 126.315 185.69 127.275 186.33 128C186.991 128.704 187.951 129.056 189.21 129.056C190.191 129.056 190.97 128.832 191.546 128.384C192.143 127.936 192.623 127.339 192.986 126.592L196.058 128.416C195.503 129.589 194.66 130.549 193.53 131.296C192.42 132.021 190.97 132.384 189.178 132.384ZM213.805 132C212.802 132 212.024 131.755 211.469 131.264C210.936 130.752 210.616 130.048 210.509 129.152H210.349C210.05 130.176 209.464 130.976 208.589 131.552C207.714 132.107 206.637 132.384 205.357 132.384C203.693 132.384 202.37 131.947 201.389 131.072C200.408 130.197 199.917 128.981 199.917 127.424C199.917 124.096 202.36 122.432 207.245 122.432H210.157V121.344C210.157 120.299 209.901 119.509 209.389 118.976C208.877 118.443 208.045 118.176 206.893 118.176C205.848 118.176 205.005 118.379 204.365 118.784C203.725 119.189 203.181 119.712 202.733 120.352L200.397 118.368C200.909 117.451 201.73 116.683 202.861 116.064C204.013 115.424 205.496 115.104 207.309 115.104C209.485 115.104 211.181 115.616 212.397 116.64C213.634 117.643 214.253 119.147 214.253 121.152V128.928H216.205V132H213.805ZM206.733 129.568C207.714 129.568 208.525 129.344 209.165 128.896C209.826 128.427 210.157 127.797 210.157 127.008V124.8H207.341C205.101 124.8 203.981 125.504 203.981 126.912V127.552C203.981 128.213 204.226 128.715 204.717 129.056C205.208 129.397 205.88 129.568 206.733 129.568ZM228.033 132C226.454 132 225.291 131.584 224.545 130.752C223.798 129.92 223.425 128.843 223.425 127.52V118.72H218.625V115.488H221.889C222.55 115.488 223.019 115.36 223.297 115.104C223.574 114.827 223.713 114.347 223.713 113.664V109.664H227.521V115.488H234.241V118.72H227.521V128.768H234.241V132H228.033ZM246.74 132.384C245.481 132.384 244.351 132.181 243.348 131.776C242.345 131.371 241.492 130.795 240.788 130.048C240.105 129.301 239.572 128.395 239.188 127.328C238.825 126.261 238.644 125.067 238.644 123.744C238.644 122.421 238.825 121.227 239.188 120.16C239.572 119.093 240.105 118.187 240.788 117.44C241.492 116.693 242.335 116.117 243.316 115.712C244.319 115.307 245.449 115.104 246.708 115.104C248.457 115.104 249.865 115.467 250.932 116.192C251.999 116.917 252.809 117.877 253.364 119.072L250.196 120.8C249.897 120.096 249.471 119.531 248.916 119.104C248.383 118.656 247.647 118.432 246.708 118.432C245.492 118.432 244.553 118.784 243.892 119.488C243.252 120.192 242.932 121.152 242.932 122.368V125.12C242.932 126.315 243.252 127.275 243.892 128C244.553 128.704 245.513 129.056 246.772 129.056C247.753 129.056 248.532 128.832 249.108 128.384C249.705 127.936 250.185 127.339 250.548 126.592L253.62 128.416C253.065 129.589 252.223 130.549 251.092 131.296C249.983 132.021 248.532 132.384 246.74 132.384ZM258.088 108.32H262.184V118.4H262.344C262.706 117.504 263.261 116.736 264.008 116.096C264.776 115.435 265.832 115.104 267.176 115.104C268.797 115.104 270.109 115.648 271.112 116.736C272.136 117.803 272.648 119.339 272.648 121.344V132H268.552V121.92C268.552 119.531 267.517 118.336 265.448 118.336C265.021 118.336 264.616 118.389 264.232 118.496C263.848 118.603 263.496 118.773 263.176 119.008C262.877 119.221 262.632 119.488 262.44 119.808C262.269 120.128 262.184 120.512 262.184 120.96V132H258.088V108.32ZM284.859 174.384C283.536 174.384 282.363 174.181 281.339 173.776C280.315 173.371 279.451 172.795 278.747 172.048C278.064 171.301 277.542 170.405 277.179 169.36C276.816 168.293 276.635 167.099 276.635 165.776C276.635 164.432 276.816 163.227 277.179 162.16C277.563 161.093 278.096 160.187 278.779 159.44C279.462 158.693 280.283 158.117 281.243 157.712C282.224 157.307 283.323 157.104 284.539 157.104C285.734 157.104 286.811 157.307 287.771 157.712C288.731 158.096 289.542 158.651 290.203 159.376C290.886 160.101 291.408 160.976 291.771 162C292.134 163.024 292.315 164.155 292.315 165.392V166.736H280.731V167.152C280.731 168.347 281.104 169.317 281.851 170.064C282.598 170.789 283.643 171.152 284.987 171.152C286.011 171.152 286.886 170.949 287.611 170.544C288.358 170.117 288.976 169.563 289.467 168.88L291.803 171.216C291.206 172.091 290.331 172.837 289.179 173.456C288.048 174.075 286.608 174.384 284.859 174.384ZM284.571 160.112C283.419 160.112 282.491 160.475 281.787 161.2C281.083 161.925 280.731 162.885 280.731 164.08V164.304H288.219V164.016C288.219 162.821 287.888 161.872 287.227 161.168C286.587 160.464 285.702 160.112 284.571 160.112ZM296.463 170.768H300.559V160.72H296.463V157.488H304.655V162H304.911C305.06 161.424 305.263 160.869 305.519 160.336C305.796 159.781 306.137 159.301 306.543 158.896C306.969 158.469 307.481 158.128 308.079 157.872C308.676 157.616 309.391 157.488 310.222 157.488H312.015V161.328H308.623C307.385 161.328 306.415 161.691 305.711 162.416C305.007 163.141 304.655 164.069 304.655 165.2V170.768H310.383V174H296.463V170.768ZM315.65 170.768H319.746V160.72H315.65V157.488H323.842V162H324.098C324.247 161.424 324.45 160.869 324.706 160.336C324.983 159.781 325.325 159.301 325.73 158.896C326.157 158.469 326.669 158.128 327.266 157.872C327.863 157.616 328.578 157.488 329.41 157.488H331.202V161.328H327.81C326.573 161.328 325.602 161.691 324.898 162.416C324.194 163.141 323.842 164.069 323.842 165.2V170.768H329.57V174H315.65V170.768ZM342.038 174.384C340.779 174.384 339.648 174.181 338.646 173.776C337.664 173.371 336.822 172.795 336.118 172.048C335.435 171.301 334.902 170.395 334.518 169.328C334.155 168.261 333.974 167.067 333.974 165.744C333.974 164.421 334.155 163.227 334.518 162.16C334.902 161.093 335.435 160.187 336.118 159.44C336.822 158.693 337.664 158.117 338.646 157.712C339.648 157.307 340.779 157.104 342.038 157.104C343.275 157.104 344.395 157.307 345.398 157.712C346.4 158.117 347.243 158.693 347.926 159.44C348.63 160.187 349.163 161.093 349.526 162.16C349.91 163.227 350.102 164.421 350.102 165.744C350.102 167.067 349.91 168.261 349.526 169.328C349.163 170.395 348.63 171.301 347.926 172.048C347.243 172.795 346.4 173.371 345.398 173.776C344.395 174.181 343.275 174.384 342.038 174.384ZM342.038 171.248C343.211 171.248 344.139 170.896 344.822 170.192C345.504 169.467 345.846 168.411 345.846 167.024V164.464C345.846 163.077 345.504 162.032 344.822 161.328C344.139 160.603 343.211 160.24 342.038 160.24C340.864 160.24 339.936 160.603 339.254 161.328C338.571 162.032 338.23 163.077 338.23 164.464V167.024C338.23 168.411 338.571 169.467 339.254 170.192C339.936 170.896 340.864 171.248 342.038 171.248ZM354.025 170.768H358.121V160.72H354.025V157.488H362.217V162H362.473C362.622 161.424 362.825 160.869 363.081 160.336C363.358 159.781 363.7 159.301 364.105 158.896C364.532 158.469 365.044 158.128 365.641 157.872C366.238 157.616 366.953 157.488 367.785 157.488H369.577V161.328H366.185C364.948 161.328 363.977 161.691 363.273 162.416C362.569 163.141 362.217 164.069 362.217 165.2V170.768H367.945V174H354.025V170.768Z" fill="#F4E498"/>
<path d="M564.672 36.352V33.056H579.904V36.352H564.672ZM564.672 43.424V40.128H579.904V43.424H564.672ZM584.595 43.808L594.643 38.368V38.112L584.595 32.672V28.768L598.355 36.32V40.16L584.595 47.712V43.808ZM430.359 120.352V117.056H445.591V120.352H430.359ZM430.359 127.424V124.128H445.591V127.424H430.359ZM450.283 127.808L460.331 122.368V122.112L450.283 116.672V112.768L464.043 120.32V124.16L450.283 131.712V127.808Z" fill="#438ADD"/>
<path d="M34.6625 46.4084V43.8404H39.2705V31.9364H39.0545L35.4065 36.2564L33.4385 34.6004L37.5905 29.6564H42.4145V43.8404H46.2065V46.4084H34.6625Z" fill="white"/>
<path d="M45.6785 87.8873H33.8705V84.9593L39.2465 80.3753C40.1425 79.6073 40.8065 78.9113 41.2385 78.2873C41.6705 77.6473 41.8865 76.9673 41.8865 76.2473V76.0073C41.8865 75.2073 41.6625 74.5993 41.2145 74.1833C40.7665 73.7673 40.1425 73.5593 39.3425 73.5593C38.4625 73.5593 37.7905 73.7993 37.3265 74.2793C36.8625 74.7593 36.5265 75.3513 36.3185 76.0553L33.5825 75.0233C33.7585 74.4793 34.0065 73.9593 34.3265 73.4633C34.6625 72.9513 35.0705 72.5033 35.5505 72.1193C36.0465 71.7353 36.6305 71.4313 37.3025 71.2073C37.9745 70.9673 38.7425 70.8473 39.6065 70.8473C40.5025 70.8473 41.2945 70.9753 41.9825 71.2313C42.6865 71.4713 43.2785 71.8153 43.7585 72.2633C44.2385 72.6953 44.5985 73.2153 44.8385 73.8233C45.0945 74.4313 45.2225 75.0953 45.2225 75.8153C45.2225 76.5033 45.1105 77.1353 44.8865 77.7113C44.6785 78.2873 44.3825 78.8393 43.9985 79.3673C43.6145 79.8793 43.1585 80.3753 42.6305 80.8553C42.1185 81.3353 41.5585 81.8153 40.9505 82.2953L37.3025 85.2473H45.6785V87.8873Z" fill="white"/>
<path d="M39.0065 123.396C40.0145 123.396 40.7505 123.196 41.2145 122.796C41.6945 122.396 41.9345 121.892 41.9345 121.284V121.116C41.9345 120.428 41.7025 119.892 41.2385 119.508C40.7905 119.124 40.1665 118.932 39.3665 118.932C38.5985 118.932 37.9265 119.108 37.3505 119.46C36.7745 119.812 36.2785 120.308 35.8625 120.948L33.8225 119.124C34.1105 118.74 34.4305 118.38 34.7825 118.044C35.1505 117.692 35.5585 117.396 36.0065 117.156C36.4705 116.9 36.9825 116.7 37.5425 116.556C38.1025 116.412 38.7425 116.34 39.4625 116.34C40.3105 116.34 41.0865 116.444 41.7905 116.652C42.5105 116.844 43.1185 117.132 43.6145 117.516C44.1265 117.9 44.5185 118.364 44.7905 118.908C45.0785 119.436 45.2225 120.036 45.2225 120.708C45.2225 121.236 45.1345 121.716 44.9585 122.148C44.7825 122.58 44.5425 122.956 44.2385 123.276C43.9505 123.596 43.6065 123.86 43.2065 124.068C42.8225 124.276 42.4065 124.428 41.9585 124.524V124.644C42.4545 124.74 42.9185 124.9 43.3505 125.124C43.7825 125.332 44.1585 125.604 44.4785 125.94C44.7985 126.276 45.0545 126.684 45.2465 127.164C45.4385 127.628 45.5345 128.156 45.5345 128.748C45.5345 129.484 45.3825 130.156 45.0785 130.764C44.7745 131.372 44.3425 131.892 43.7825 132.324C43.2385 132.756 42.5745 133.092 41.7905 133.332C41.0225 133.556 40.1585 133.668 39.1985 133.668C38.3985 133.668 37.6865 133.58 37.0625 133.404C36.4385 133.244 35.8865 133.02 35.4065 132.732C34.9265 132.444 34.5105 132.116 34.1585 131.748C33.8065 131.364 33.4945 130.972 33.2225 130.572L35.5505 128.772C35.9505 129.444 36.4225 129.996 36.9665 130.428C37.5265 130.86 38.2865 131.076 39.2465 131.076C40.2065 131.076 40.9425 130.86 41.4545 130.428C41.9825 129.98 42.2465 129.364 42.2465 128.58V128.388C42.2465 127.62 41.9665 127.036 41.4065 126.636C40.8465 126.22 40.0545 126.012 39.0305 126.012H37.3505V123.396H39.0065Z" fill="white"/>
<path d="M42.2404 174.859V171.619H34.4884V168.931L41.3284 158.107H45.2404V169.171H47.4964V171.619H45.2404V174.859H42.2404ZM37.0564 169.171H42.2404V161.179H42.0484L37.0564 169.171Z" fill="white"/>
<path d="M46.432 201.984H38.752L38.344 207.6H38.536C38.728 207.248 38.936 206.928 39.16 206.64C39.384 206.336 39.64 206.08 39.928 205.872C40.232 205.664 40.568 205.504 40.936 205.392C41.32 205.28 41.76 205.224 42.256 205.224C42.96 205.224 43.624 205.344 44.248 205.584C44.872 205.824 45.416 206.168 45.88 206.616C46.344 207.064 46.704 207.616 46.96 208.272C47.232 208.928 47.368 209.672 47.368 210.504C47.368 211.336 47.224 212.104 46.936 212.808C46.664 213.512 46.256 214.128 45.712 214.656C45.184 215.168 44.528 215.568 43.744 215.856C42.976 216.144 42.088 216.288 41.08 216.288C40.296 216.288 39.592 216.2 38.968 216.024C38.36 215.864 37.824 215.64 37.36 215.352C36.896 215.064 36.488 214.736 36.136 214.368C35.784 213.984 35.48 213.592 35.224 213.192L37.504 211.392C37.696 211.712 37.904 212.016 38.128 212.304C38.368 212.576 38.632 212.816 38.92 213.024C39.208 213.232 39.528 213.4 39.88 213.528C40.248 213.64 40.664 213.696 41.128 213.696C42.088 213.696 42.816 213.44 43.312 212.928C43.824 212.4 44.08 211.68 44.08 210.768V210.576C44.08 209.696 43.824 209.008 43.312 208.512C42.8 208.016 42.08 207.768 41.152 207.768C40.448 207.768 39.872 207.904 39.424 208.176C38.992 208.432 38.64 208.712 38.368 209.016L35.8 208.656L36.424 199.248H46.432V201.984Z" fill="white"/>
</svg>
