<svg width="1477" height="233" viewBox="0 0 1477 233" fill="none" xmlns="http://www.w3.org/2000/svg">
<path d="M0 5C0 2.23858 2.23858 0 5 0H1462C1470.28 0 1477 6.71573 1477 15V207C1477 220.807 1465.81 232 1452 232H35C15.67 232 0 216.33 0 197V5Z" fill="#373538"/>
<path d="M85.304 50.768H90.552V33.552H85.304V30.32H94.648V50.768H99.928V54H85.304V50.768ZM112.172 54.384C110.849 54.384 109.676 54.1813 108.652 53.776C107.628 53.3707 106.764 52.7947 106.06 52.048C105.377 51.3013 104.854 50.4053 104.492 49.36C104.129 48.2933 103.948 47.0987 103.948 45.776C103.948 44.432 104.129 43.2267 104.492 42.16C104.876 41.0933 105.409 40.1867 106.092 39.44C106.774 38.6933 107.596 38.1173 108.556 37.712C109.537 37.3067 110.636 37.104 111.852 37.104C113.046 37.104 114.124 37.3067 115.084 37.712C116.044 38.096 116.854 38.6507 117.516 39.376C118.198 40.1013 118.721 40.976 119.083 42C119.446 43.024 119.628 44.1547 119.628 45.392V46.736H108.044V47.152C108.044 48.3467 108.417 49.3173 109.164 50.064C109.91 50.7893 110.956 51.152 112.3 51.152C113.324 51.152 114.198 50.9493 114.924 50.544C115.67 50.1173 116.289 49.5627 116.78 48.88L119.116 51.216C118.518 52.0907 117.644 52.8373 116.492 53.456C115.361 54.0747 113.921 54.384 112.172 54.384ZM111.884 40.112C110.732 40.112 109.804 40.4747 109.1 41.2C108.396 41.9253 108.044 42.8853 108.044 44.08V44.304H115.532V44.016C115.532 42.8213 115.201 41.872 114.54 41.168C113.9 40.464 113.014 40.112 111.884 40.112ZM132.095 54C130.516 54 129.354 53.584 128.607 52.752C127.86 51.92 127.487 50.8427 127.487 49.52V40.72H122.687V37.488H125.951C126.612 37.488 127.082 37.36 127.359 37.104C127.636 36.8267 127.775 36.3467 127.775 35.664V31.664H131.583V37.488H138.303V40.72H131.583V50.768H138.303V54H132.095ZM303.663 96.352C302.553 96.352 301.764 96.1173 301.295 95.648C300.825 95.1787 300.591 94.6027 300.591 93.92V92.96C300.591 92.2773 300.825 91.7013 301.295 91.232C301.764 90.7627 302.553 90.528 303.663 90.528C304.772 90.528 305.561 90.7627 306.031 91.232C306.5 91.7013 306.735 92.2773 306.735 92.96V93.92C306.735 94.6027 306.5 95.1787 306.031 95.648C305.561 96.1173 304.772 96.352 303.663 96.352ZM507.525 92.768H512.581V82.72H507.205V79.488H512.581V76.8C512.581 76.1387 512.666 75.5413 512.837 75.008C513.029 74.4533 513.317 73.984 513.701 73.6C514.085 73.1947 514.565 72.8853 515.141 72.672C515.738 72.4373 516.432 72.32 517.221 72.32H522.789V75.552H516.677V79.488H522.789V82.72H516.677V92.768H522.053V96H507.525V92.768ZM537.017 93.088H536.857C536.494 93.984 535.929 94.7627 535.161 95.424C534.414 96.064 533.369 96.384 532.025 96.384C530.403 96.384 529.081 95.8507 528.057 94.784C527.054 93.696 526.553 92.1493 526.553 90.144V79.488H530.649V89.568C530.649 91.9573 531.683 93.152 533.753 93.152C534.158 93.152 534.553 93.0987 534.937 92.992C535.342 92.8853 535.694 92.7253 535.993 92.512C536.313 92.2773 536.558 92 536.729 91.68C536.921 91.36 537.017 90.976 537.017 90.528V79.488H541.113V96H537.017V93.088ZM545.9 96V79.488H549.996V82.4H550.156C550.519 81.504 551.073 80.736 551.82 80.096C552.588 79.4347 553.644 79.104 554.988 79.104C556.609 79.104 557.921 79.648 558.924 80.736C559.948 81.8027 560.46 83.3387 560.46 85.344V96H556.364V85.92C556.364 83.5307 555.329 82.336 553.26 82.336C552.833 82.336 552.428 82.3893 552.044 82.496C551.66 82.6027 551.308 82.7733 550.988 83.008C550.689 83.2213 550.444 83.488 550.252 83.808C550.081 84.128 549.996 84.512 549.996 84.96V96H545.9ZM572.928 96.384C571.669 96.384 570.538 96.1813 569.536 95.776C568.533 95.3707 567.68 94.7947 566.976 94.048C566.293 93.3013 565.76 92.3947 565.376 91.328C565.013 90.2613 564.832 89.0667 564.832 87.744C564.832 86.4213 565.013 85.2267 565.376 84.16C565.76 83.0933 566.293 82.1867 566.976 81.44C567.68 80.6933 568.522 80.1173 569.504 79.712C570.506 79.3067 571.637 79.104 572.896 79.104C574.645 79.104 576.053 79.4667 577.12 80.192C578.186 80.9173 578.997 81.8773 579.552 83.072L576.384 84.8C576.085 84.096 575.658 83.5307 575.104 83.104C574.57 82.656 573.834 82.432 572.896 82.432C571.68 82.432 570.741 82.784 570.08 83.488C569.44 84.192 569.12 85.152 569.12 86.368V89.12C569.12 90.3147 569.44 91.2747 570.08 92C570.741 92.704 571.701 93.056 572.96 93.056C573.941 93.056 574.72 92.832 575.296 92.384C575.893 91.936 576.373 91.3387 576.736 90.592L579.808 92.416C579.253 93.5893 578.41 94.5493 577.28 95.296C576.17 96.0213 574.72 96.384 572.928 96.384ZM592.595 96C591.016 96 589.854 95.584 589.107 94.752C588.36 93.92 587.987 92.8427 587.987 91.52V82.72H583.187V79.488H586.451C587.112 79.488 587.582 79.36 587.859 79.104C588.136 78.8267 588.275 78.3467 588.275 77.664V73.664H592.083V79.488H598.803V82.72H592.083V92.768H598.803V96H592.595ZM611.687 76.928C610.727 76.928 610.044 76.7253 609.639 76.32C609.255 75.9147 609.062 75.424 609.062 74.848V74.08C609.062 73.504 609.255 73.0133 609.639 72.608C610.044 72.2027 610.727 72 611.687 72C612.647 72 613.319 72.2027 613.703 72.608C614.108 73.0133 614.311 73.504 614.311 74.08V74.848C614.311 75.424 614.108 75.9147 613.703 76.32C613.319 76.7253 612.647 76.928 611.687 76.928ZM604.199 92.768H609.639V82.72H604.199V79.488H613.735V92.768H618.791V96H604.199V92.768ZM629.85 96.384C628.591 96.384 627.461 96.1813 626.458 95.776C625.477 95.3707 624.634 94.7947 623.93 94.048C623.247 93.3013 622.714 92.3947 622.33 91.328C621.967 90.2613 621.786 89.0667 621.786 87.744C621.786 86.4213 621.967 85.2267 622.33 84.16C622.714 83.0933 623.247 82.1867 623.93 81.44C624.634 80.6933 625.477 80.1173 626.458 79.712C627.461 79.3067 628.591 79.104 629.85 79.104C631.087 79.104 632.207 79.3067 633.21 79.712C634.213 80.1173 635.055 80.6933 635.738 81.44C636.442 82.1867 636.975 83.0933 637.338 84.16C637.722 85.2267 637.914 86.4213 637.914 87.744C637.914 89.0667 637.722 90.2613 637.338 91.328C636.975 92.3947 636.442 93.3013 635.738 94.048C635.055 94.7947 634.213 95.3707 633.21 95.776C632.207 96.1813 631.087 96.384 629.85 96.384ZM629.85 93.248C631.023 93.248 631.951 92.896 632.634 92.192C633.317 91.4667 633.658 90.4107 633.658 89.024V86.464C633.658 85.0773 633.317 84.032 632.634 83.328C631.951 82.6027 631.023 82.24 629.85 82.24C628.677 82.24 627.749 82.6027 627.066 83.328C626.383 84.032 626.042 85.0773 626.042 86.464V89.024C626.042 90.4107 626.383 91.4667 627.066 92.192C627.749 92.896 628.677 93.248 629.85 93.248ZM641.838 96V79.488H645.934V82.4H646.094C646.456 81.504 647.011 80.736 647.758 80.096C648.526 79.4347 649.582 79.104 650.926 79.104C652.547 79.104 653.859 79.648 654.862 80.736C655.886 81.8027 656.398 83.3387 656.398 85.344V96H652.302V85.92C652.302 83.5307 651.267 82.336 649.198 82.336C648.771 82.336 648.366 82.3893 647.982 82.496C647.598 82.6027 647.246 82.7733 646.926 83.008C646.627 83.2213 646.382 83.488 646.19 83.808C646.019 84.128 645.934 84.512 645.934 84.96V96H641.838ZM338.294 128.048C338.294 126.491 338.464 124.997 338.806 123.568C339.168 122.117 339.648 120.773 340.246 119.536C340.864 118.299 341.579 117.189 342.39 116.208C343.2 115.205 344.054 114.363 344.95 113.68H349.046C348.086 114.363 347.168 115.163 346.294 116.08C345.419 116.997 344.651 118.011 343.99 119.12C343.328 120.208 342.795 121.381 342.39 122.64C342.006 123.877 341.814 125.168 341.814 126.512V129.584C341.814 130.928 342.006 132.229 342.39 133.488C342.795 134.725 343.328 135.899 343.99 137.008C344.651 138.096 345.419 139.099 346.294 140.016C347.168 140.933 348.086 141.733 349.046 142.416H344.95C344.054 141.755 343.2 140.923 342.39 139.92C341.579 138.917 340.864 137.797 340.246 136.56C339.648 135.323 339.168 133.989 338.806 132.56C338.464 131.109 338.294 129.605 338.294 128.048Z" fill="#438ADD"/>
<path d="M161.958 30.32H166.054V40.4H166.278C166.726 39.3973 167.334 38.5973 168.102 38C168.891 37.4027 169.926 37.104 171.206 37.104C172.145 37.104 172.998 37.2853 173.766 37.648C174.555 37.9893 175.227 38.5227 175.782 39.248C176.337 39.952 176.763 40.848 177.062 41.936C177.361 43.024 177.51 44.2933 177.51 45.744C177.51 47.1947 177.361 48.464 177.062 49.552C176.763 50.64 176.337 51.5467 175.782 52.272C175.227 52.976 174.555 53.5093 173.766 53.872C172.998 54.2133 172.145 54.384 171.206 54.384C169.926 54.384 168.891 54.0853 168.102 53.488C167.334 52.8907 166.726 52.0907 166.278 51.088H166.054V54H161.958V30.32ZM169.478 51.12C170.673 51.12 171.59 50.7573 172.23 50.032C172.891 49.3067 173.222 48.3147 173.222 47.056V44.432C173.222 43.1733 172.891 42.1813 172.23 41.456C171.59 40.7307 170.673 40.368 169.478 40.368C168.539 40.368 167.729 40.6027 167.046 41.072C166.385 41.52 166.054 42.2133 166.054 43.152V48.336C166.054 49.2747 166.385 49.9787 167.046 50.448C167.729 50.896 168.539 51.12 169.478 51.12ZM188.538 54.384C187.279 54.384 186.148 54.1813 185.146 53.776C184.164 53.3707 183.322 52.7947 182.618 52.048C181.935 51.3013 181.402 50.3947 181.018 49.328C180.655 48.2613 180.474 47.0667 180.474 45.744C180.474 44.4213 180.655 43.2267 181.018 42.16C181.402 41.0933 181.935 40.1867 182.618 39.44C183.322 38.6933 184.164 38.1173 185.146 37.712C186.148 37.3067 187.279 37.104 188.538 37.104C189.775 37.104 190.895 37.3067 191.898 37.712C192.9 38.1173 193.743 38.6933 194.426 39.44C195.13 40.1867 195.663 41.0933 196.026 42.16C196.41 43.2267 196.602 44.4213 196.602 45.744C196.602 47.0667 196.41 48.2613 196.026 49.328C195.663 50.3947 195.13 51.3013 194.426 52.048C193.743 52.7947 192.9 53.3707 191.898 53.776C190.895 54.1813 189.775 54.384 188.538 54.384ZM188.538 51.248C189.711 51.248 190.639 50.896 191.322 50.192C192.004 49.4667 192.346 48.4107 192.346 47.024V44.464C192.346 43.0773 192.004 42.032 191.322 41.328C190.639 40.6027 189.711 40.24 188.538 40.24C187.364 40.24 186.436 40.6027 185.754 41.328C185.071 42.032 184.73 43.0773 184.73 44.464V47.024C184.73 48.4107 185.071 49.4667 185.754 50.192C186.436 50.896 187.364 51.248 188.538 51.248ZM208.845 54C207.266 54 206.104 53.584 205.357 52.752C204.61 51.92 204.237 50.8427 204.237 49.52V40.72H199.437V37.488H202.701C203.362 37.488 203.832 37.36 204.109 37.104C204.386 36.8267 204.525 36.3467 204.525 35.664V31.664H208.333V37.488H215.053V40.72H208.333V50.768H215.053V54H208.845ZM232.993 54C231.99 54 231.211 53.7547 230.657 53.264C230.123 52.752 229.803 52.048 229.697 51.152H229.537C229.238 52.176 228.651 52.976 227.777 53.552C226.902 54.1067 225.825 54.384 224.545 54.384C222.881 54.384 221.558 53.9467 220.577 53.072C219.595 52.1973 219.105 50.9813 219.105 49.424C219.105 46.096 221.547 44.432 226.433 44.432H229.345V43.344C229.345 42.2987 229.089 41.5093 228.577 40.976C228.065 40.4427 227.233 40.176 226.081 40.176C225.035 40.176 224.193 40.3787 223.553 40.784C222.913 41.1893 222.369 41.712 221.921 42.352L219.585 40.368C220.097 39.4507 220.918 38.6827 222.049 38.064C223.201 37.424 224.683 37.104 226.497 37.104C228.673 37.104 230.369 37.616 231.585 38.64C232.822 39.6427 233.441 41.1467 233.441 43.152V50.928H235.392V54H232.993ZM225.921 51.568C226.902 51.568 227.713 51.344 228.353 50.896C229.014 50.4267 229.345 49.7973 229.345 49.008V46.8H226.529C224.289 46.8 223.169 47.504 223.169 48.912V49.552C223.169 50.2133 223.414 50.7147 223.905 51.056C224.395 51.3973 225.067 51.568 225.921 51.568ZM246.1 54.384C244.841 54.384 243.711 54.1813 242.708 53.776C241.727 53.3707 240.884 52.7947 240.18 52.048C239.497 51.3013 238.964 50.3947 238.58 49.328C238.217 48.2613 238.036 47.0667 238.036 45.744C238.036 44.4213 238.217 43.2267 238.58 42.16C238.964 41.0933 239.497 40.1867 240.18 39.44C240.884 38.6933 241.727 38.1173 242.708 37.712C243.711 37.3067 244.841 37.104 246.1 37.104C247.337 37.104 248.457 37.3067 249.46 37.712C250.463 38.1173 251.305 38.6933 251.988 39.44C252.692 40.1867 253.225 41.0933 253.588 42.16C253.972 43.2267 254.164 44.4213 254.164 45.744C254.164 47.0667 253.972 48.2613 253.588 49.328C253.225 50.3947 252.692 51.3013 251.988 52.048C251.305 52.7947 250.463 53.3707 249.46 53.776C248.457 54.1813 247.337 54.384 246.1 54.384ZM246.1 51.248C247.273 51.248 248.201 50.896 248.884 50.192C249.567 49.4667 249.908 48.4107 249.908 47.024V44.464C249.908 43.0773 249.567 42.032 248.884 41.328C248.201 40.6027 247.273 40.24 246.1 40.24C244.927 40.24 243.999 40.6027 243.316 41.328C242.633 42.032 242.292 43.0773 242.292 44.464V47.024C242.292 48.4107 242.633 49.4667 243.316 50.192C243.999 50.896 244.927 51.248 246.1 51.248ZM269.704 43.664L269.896 37.2H269.608L265.288 48.688L260.968 37.2H260.68L260.872 43.664V54H257.224V31.664H262.216L265.32 39.888H265.544L268.68 31.664H273.352V54H269.704V43.664ZM290.555 54C289.552 54 288.774 53.7547 288.219 53.264C287.686 52.752 287.366 52.048 287.259 51.152H287.099C286.8 52.176 286.214 52.976 285.339 53.552C284.464 54.1067 283.387 54.384 282.107 54.384C280.443 54.384 279.12 53.9467 278.139 53.072C277.158 52.1973 276.667 50.9813 276.667 49.424C276.667 46.096 279.11 44.432 283.995 44.432H286.907V43.344C286.907 42.2987 286.651 41.5093 286.139 40.976C285.627 40.4427 284.795 40.176 283.643 40.176C282.598 40.176 281.755 40.3787 281.115 40.784C280.475 41.1893 279.931 41.712 279.483 42.352L277.147 40.368C277.659 39.4507 278.48 38.6827 279.611 38.064C280.763 37.424 282.246 37.104 284.059 37.104C286.235 37.104 287.931 37.616 289.147 38.64C290.384 39.6427 291.003 41.1467 291.003 43.152V50.928H292.955V54H290.555ZM283.483 51.568C284.464 51.568 285.275 51.344 285.915 50.896C286.576 50.4267 286.907 49.7973 286.907 49.008V46.8H284.091C281.851 46.8 280.731 47.504 280.731 48.912V49.552C280.731 50.2133 280.976 50.7147 281.467 51.056C281.958 51.3973 282.63 51.568 283.483 51.568ZM312.495 55.728C312.495 57.456 311.769 58.7253 310.319 59.536C308.889 60.368 306.649 60.784 303.599 60.784C302.105 60.784 300.857 60.688 299.855 60.496C298.852 60.3253 298.041 60.0693 297.423 59.728C296.825 59.3867 296.399 58.9707 296.143 58.48C295.887 58.0107 295.759 57.4773 295.759 56.88C295.759 55.9627 296.025 55.2587 296.559 54.768C297.092 54.2773 297.839 53.9147 298.799 53.68V53.424C298.159 53.2107 297.647 52.912 297.263 52.528C296.9 52.144 296.719 51.6107 296.719 50.928C296.719 50.1173 296.985 49.5093 297.519 49.104C298.073 48.6987 298.799 48.3893 299.695 48.176V48.016C298.713 47.5467 297.945 46.8853 297.391 46.032C296.836 45.1787 296.559 44.144 296.559 42.928C296.559 42.0107 296.719 41.2 297.039 40.496C297.38 39.7707 297.849 39.1627 298.447 38.672C299.065 38.16 299.801 37.776 300.655 37.52C301.508 37.2427 302.457 37.104 303.503 37.104C304.612 37.104 305.615 37.2533 306.511 37.552V36.848C306.511 36.208 306.713 35.6747 307.119 35.248C307.545 34.8213 308.132 34.608 308.879 34.608H311.855V37.68H307.951V38.224C308.761 38.7147 309.38 39.3547 309.807 40.144C310.255 40.912 310.479 41.84 310.479 42.928C310.479 43.8453 310.308 44.6667 309.967 45.392C309.647 46.1173 309.177 46.7253 308.559 47.216C307.961 47.7067 307.225 48.0907 306.351 48.368C305.497 48.624 304.548 48.752 303.503 48.752C303.076 48.752 302.66 48.7413 302.255 48.72C301.871 48.6773 301.497 48.6027 301.135 48.496C300.836 48.6027 300.548 48.7733 300.271 49.008C299.993 49.2427 299.855 49.552 299.855 49.936C299.855 50.448 300.1 50.768 300.591 50.896C301.081 51.0027 301.668 51.056 302.351 51.056H306.095C307.247 51.056 308.228 51.1733 309.039 51.408C309.849 51.6213 310.511 51.9413 311.023 52.368C311.535 52.7733 311.908 53.264 312.142 53.84C312.377 54.416 312.495 55.0453 312.495 55.728ZM308.655 56.016C308.655 55.5253 308.452 55.1307 308.047 54.832C307.663 54.5547 306.937 54.416 305.871 54.416H300.175C299.535 54.7787 299.215 55.312 299.215 56.016C299.215 56.592 299.449 57.072 299.919 57.456C300.409 57.84 301.231 58.032 302.383 58.032H305.039C307.449 58.032 308.655 57.36 308.655 56.016ZM303.503 46.064C304.548 46.064 305.316 45.8187 305.807 45.328C306.297 44.816 306.543 44.1547 306.543 43.344V42.512C306.543 41.7013 306.297 41.0507 305.807 40.56C305.316 40.048 304.548 39.792 303.503 39.792C302.479 39.792 301.721 40.048 301.231 40.56C300.74 41.0507 300.495 41.7013 300.495 42.512V43.344C300.495 44.1547 300.74 44.816 301.231 45.328C301.721 45.8187 302.479 46.064 303.503 46.064ZM323.874 34.928C322.914 34.928 322.231 34.7253 321.826 34.32C321.442 33.9147 321.25 33.424 321.25 32.848V32.08C321.25 31.504 321.442 31.0133 321.826 30.608C322.231 30.2027 322.914 30 323.874 30C324.834 30 325.506 30.2027 325.89 30.608C326.295 31.0133 326.498 31.504 326.498 32.08V32.848C326.498 33.424 326.295 33.9147 325.89 34.32C325.506 34.7253 324.834 34.928 323.874 34.928ZM316.386 50.768H321.826V40.72H316.386V37.488H325.922V50.768H330.978V54H316.386V50.768ZM342.678 54.384C341.419 54.384 340.288 54.1813 339.286 53.776C338.283 53.3707 337.43 52.7947 336.726 52.048C336.043 51.3013 335.51 50.3947 335.126 49.328C334.763 48.2613 334.582 47.0667 334.582 45.744C334.582 44.4213 334.763 43.2267 335.126 42.16C335.51 41.0933 336.043 40.1867 336.726 39.44C337.43 38.6933 338.272 38.1173 339.254 37.712C340.256 37.3067 341.387 37.104 342.646 37.104C344.395 37.104 345.803 37.4667 346.87 38.192C347.936 38.9173 348.747 39.8773 349.302 41.072L346.134 42.8C345.835 42.096 345.408 41.5307 344.854 41.104C344.32 40.656 343.584 40.432 342.646 40.432C341.43 40.432 340.491 40.784 339.83 41.488C339.19 42.192 338.87 43.152 338.87 44.368V47.12C338.87 48.3147 339.19 49.2747 339.83 50C340.491 50.704 341.451 51.056 342.71 51.056C343.691 51.056 344.47 50.832 345.046 50.384C345.643 49.936 346.123 49.3387 346.486 48.592L349.558 50.416C349.003 51.5893 348.16 52.5493 347.03 53.296C345.92 54.0213 344.47 54.384 342.678 54.384ZM361.225 54.384C359.966 54.384 358.836 54.1813 357.833 53.776C356.852 53.3707 356.009 52.7947 355.305 52.048C354.622 51.3013 354.089 50.3947 353.705 49.328C353.342 48.2613 353.161 47.0667 353.161 45.744C353.161 44.4213 353.342 43.2267 353.705 42.16C354.089 41.0933 354.622 40.1867 355.305 39.44C356.009 38.6933 356.852 38.1173 357.833 37.712C358.836 37.3067 359.966 37.104 361.225 37.104C362.462 37.104 363.582 37.3067 364.585 37.712C365.588 38.1173 366.43 38.6933 367.113 39.44C367.817 40.1867 368.35 41.0933 368.713 42.16C369.097 43.2267 369.289 44.4213 369.289 45.744C369.289 47.0667 369.097 48.2613 368.713 49.328C368.35 50.3947 367.817 51.3013 367.113 52.048C366.43 52.7947 365.588 53.3707 364.585 53.776C363.582 54.1813 362.462 54.384 361.225 54.384ZM361.225 51.248C362.398 51.248 363.326 50.896 364.009 50.192C364.692 49.4667 365.033 48.4107 365.033 47.024V44.464C365.033 43.0773 364.692 42.032 364.009 41.328C363.326 40.6027 362.398 40.24 361.225 40.24C360.052 40.24 359.124 40.6027 358.441 41.328C357.758 42.032 357.417 43.0773 357.417 44.464V47.024C357.417 48.4107 357.758 49.4667 358.441 50.192C359.124 50.896 360.052 51.248 361.225 51.248ZM441.271 51.088H441.047C440.599 52.0907 439.98 52.8907 439.191 53.488C438.423 54.0853 437.399 54.384 436.119 54.384C435.18 54.384 434.316 54.2133 433.527 53.872C432.759 53.5093 432.098 52.976 431.543 52.272C430.988 51.5467 430.562 50.64 430.263 49.552C429.964 48.464 429.815 47.1947 429.815 45.744C429.815 42.8427 430.391 40.6773 431.543 39.248C432.695 37.8187 434.22 37.104 436.119 37.104C437.399 37.104 438.423 37.4027 439.191 38C439.98 38.5973 440.599 39.3973 441.047 40.4H441.271V30.32H445.367V54H441.271V51.088ZM437.847 51.12C438.316 51.12 438.754 51.0667 439.159 50.96C439.586 50.832 439.948 50.6613 440.247 50.448C440.567 50.2133 440.812 49.9253 440.983 49.584C441.175 49.2213 441.271 48.8053 441.271 48.336V43.152C441.271 42.6827 441.175 42.2773 440.983 41.936C440.812 41.5733 440.567 41.2853 440.247 41.072C439.948 40.8373 439.586 40.6667 439.159 40.56C438.754 40.432 438.316 40.368 437.847 40.368C436.652 40.368 435.724 40.7307 435.063 41.456C434.423 42.1813 434.103 43.1733 434.103 44.432V47.056C434.103 48.3147 434.423 49.3067 435.063 50.032C435.724 50.7573 436.652 51.12 437.847 51.12ZM457.163 54.384C455.904 54.384 454.773 54.1813 453.771 53.776C452.789 53.3707 451.947 52.7947 451.243 52.048C450.56 51.3013 450.027 50.3947 449.643 49.328C449.28 48.2613 449.099 47.0667 449.099 45.744C449.099 44.4213 449.28 43.2267 449.643 42.16C450.027 41.0933 450.56 40.1867 451.243 39.44C451.947 38.6933 452.789 38.1173 453.771 37.712C454.773 37.3067 455.904 37.104 457.163 37.104C458.4 37.104 459.52 37.3067 460.523 37.712C461.525 38.1173 462.368 38.6933 463.051 39.44C463.755 40.1867 464.288 41.0933 464.651 42.16C465.035 43.2267 465.227 44.4213 465.227 45.744C465.227 47.0667 465.035 48.2613 464.651 49.328C464.288 50.3947 463.755 51.3013 463.051 52.048C462.368 52.7947 461.525 53.3707 460.523 53.776C459.52 54.1813 458.4 54.384 457.163 54.384ZM457.163 51.248C458.336 51.248 459.264 50.896 459.947 50.192C460.629 49.4667 460.971 48.4107 460.971 47.024V44.464C460.971 43.0773 460.629 42.032 459.947 41.328C459.264 40.6027 458.336 40.24 457.163 40.24C455.989 40.24 455.061 40.6027 454.379 41.328C453.696 42.032 453.355 43.0773 453.355 44.464V47.024C453.355 48.4107 453.696 49.4667 454.379 50.192C455.061 50.896 455.989 51.248 457.163 51.248ZM476.99 54.384C475.731 54.384 474.601 54.1813 473.598 53.776C472.595 53.3707 471.742 52.7947 471.038 52.048C470.355 51.3013 469.822 50.3947 469.438 49.328C469.075 48.2613 468.894 47.0667 468.894 45.744C468.894 44.4213 469.075 43.2267 469.438 42.16C469.822 41.0933 470.355 40.1867 471.038 39.44C471.742 38.6933 472.585 38.1173 473.566 37.712C474.569 37.3067 475.699 37.104 476.958 37.104C478.707 37.104 480.115 37.4667 481.182 38.192C482.249 38.9173 483.059 39.8773 483.614 41.072L480.446 42.8C480.147 42.096 479.721 41.5307 479.166 41.104C478.633 40.656 477.897 40.432 476.958 40.432C475.742 40.432 474.803 40.784 474.142 41.488C473.502 42.192 473.182 43.152 473.182 44.368V47.12C473.182 48.3147 473.502 49.2747 474.142 50C474.803 50.704 475.763 51.056 477.022 51.056C478.003 51.056 478.782 50.832 479.358 50.384C479.955 49.936 480.435 49.3387 480.798 48.592L483.87 50.416C483.315 51.5893 482.473 52.5493 481.342 53.296C480.233 54.0213 478.782 54.384 476.99 54.384ZM498.642 51.088H498.482C498.119 51.984 497.554 52.7627 496.786 53.424C496.039 54.064 494.994 54.384 493.65 54.384C492.028 54.384 490.706 53.8507 489.682 52.784C488.679 51.696 488.178 50.1493 488.178 48.144V37.488H492.274V47.568C492.274 49.9573 493.308 51.152 495.378 51.152C495.783 51.152 496.178 51.0987 496.562 50.992C496.967 50.8853 497.319 50.7253 497.618 50.512C497.938 50.2773 498.183 50 498.354 49.68C498.546 49.36 498.642 48.976 498.642 48.528V37.488H502.738V54H498.642V51.088ZM506.309 54V37.488H509.701V39.76H509.893C510.149 39.0347 510.512 38.416 510.981 37.904C511.472 37.3707 512.154 37.104 513.029 37.104C513.861 37.104 514.522 37.3493 515.013 37.84C515.504 38.3093 515.824 38.9813 515.973 39.856H516.133C516.41 39.1093 516.816 38.4693 517.349 37.936C517.904 37.3813 518.682 37.104 519.685 37.104C520.901 37.104 521.776 37.5413 522.309 38.416C522.842 39.2907 523.109 40.5813 523.109 42.288V54H519.749V42.768C519.749 41.808 519.61 41.136 519.333 40.752C519.077 40.368 518.682 40.176 518.149 40.176C517.658 40.176 517.242 40.336 516.901 40.656C516.581 40.976 516.421 41.4667 516.421 42.128V54H513.029V42.768C513.029 41.808 512.901 41.136 512.645 40.752C512.389 40.368 511.994 40.176 511.461 40.176C510.949 40.176 510.522 40.336 510.181 40.656C509.861 40.976 509.701 41.4667 509.701 42.128V54H506.309ZM534.297 54.384C532.974 54.384 531.801 54.1813 530.777 53.776C529.753 53.3707 528.889 52.7947 528.185 52.048C527.502 51.3013 526.979 50.4053 526.617 49.36C526.254 48.2933 526.073 47.0987 526.073 45.776C526.073 44.432 526.254 43.2267 526.617 42.16C527.001 41.0933 527.534 40.1867 528.217 39.44C528.899 38.6933 529.721 38.1173 530.681 37.712C531.662 37.3067 532.761 37.104 533.977 37.104C535.171 37.104 536.249 37.3067 537.209 37.712C538.169 38.096 538.979 38.6507 539.641 39.376C540.323 40.1013 540.846 40.976 541.208 42C541.571 43.024 541.753 44.1547 541.753 45.392V46.736H530.169V47.152C530.169 48.3467 530.542 49.3173 531.289 50.064C532.035 50.7893 533.081 51.152 534.425 51.152C535.449 51.152 536.323 50.9493 537.049 50.544C537.795 50.1173 538.414 49.5627 538.905 48.88L541.241 51.216C540.643 52.0907 539.769 52.8373 538.617 53.456C537.486 54.0747 536.046 54.384 534.297 54.384ZM534.009 40.112C532.857 40.112 531.929 40.4747 531.225 41.2C530.521 41.9253 530.169 42.8853 530.169 44.08V44.304H537.657V44.016C537.657 42.8213 537.326 41.872 536.665 41.168C536.025 40.464 535.139 40.112 534.009 40.112ZM545.9 54V37.488H549.996V40.4H550.156C550.519 39.504 551.073 38.736 551.82 38.096C552.588 37.4347 553.644 37.104 554.988 37.104C556.609 37.104 557.921 37.648 558.924 38.736C559.948 39.8027 560.46 41.3387 560.46 43.344V54H556.364V43.92C556.364 41.5307 555.329 40.336 553.26 40.336C552.833 40.336 552.428 40.3893 552.044 40.496C551.66 40.6027 551.308 40.7733 550.988 41.008C550.689 41.2213 550.444 41.488 550.252 41.808C550.081 42.128 549.996 42.512 549.996 42.96V54H545.9ZM573.408 54C571.829 54 570.666 53.584 569.92 52.752C569.173 51.92 568.8 50.8427 568.8 49.52V40.72H564V37.488H567.264C567.925 37.488 568.394 37.36 568.672 37.104C568.949 36.8267 569.088 36.3467 569.088 35.664V31.664H572.896V37.488H579.616V40.72H572.896V50.768H579.616V54H573.408ZM85.208 72.32H89.304V82.4H89.528C89.976 81.3973 90.584 80.5973 91.352 80C92.1413 79.4027 93.176 79.104 94.456 79.104C95.3947 79.104 96.248 79.2853 97.016 79.648C97.8053 79.9893 98.4773 80.5227 99.032 81.248C99.5867 81.952 100.013 82.848 100.312 83.936C100.611 85.024 100.76 86.2933 100.76 87.744C100.76 89.1947 100.611 90.464 100.312 91.552C100.013 92.64 99.5867 93.5467 99.032 94.272C98.4773 94.976 97.8053 95.5093 97.016 95.872C96.248 96.2133 95.3947 96.384 94.456 96.384C93.176 96.384 92.1413 96.0853 91.352 95.488C90.584 94.8907 89.976 94.0907 89.528 93.088H89.304V96H85.208V72.32ZM92.728 93.12C93.9227 93.12 94.84 92.7573 95.48 92.032C96.1413 91.3067 96.472 90.3147 96.472 89.056V86.432C96.472 85.1733 96.1413 84.1813 95.48 83.456C94.84 82.7307 93.9227 82.368 92.728 82.368C91.7893 82.368 90.9787 82.6027 90.296 83.072C89.6347 83.52 89.304 84.2133 89.304 85.152V90.336C89.304 91.2747 89.6347 91.9787 90.296 92.448C90.9787 92.896 91.7893 93.12 92.728 93.12ZM111.788 96.384C110.529 96.384 109.398 96.1813 108.396 95.776C107.414 95.3707 106.572 94.7947 105.868 94.048C105.185 93.3013 104.652 92.3947 104.268 91.328C103.905 90.2613 103.724 89.0667 103.724 87.744C103.724 86.4213 103.905 85.2267 104.268 84.16C104.652 83.0933 105.185 82.1867 105.868 81.44C106.572 80.6933 107.414 80.1173 108.396 79.712C109.398 79.3067 110.529 79.104 111.788 79.104C113.025 79.104 114.145 79.3067 115.148 79.712C116.15 80.1173 116.993 80.6933 117.676 81.44C118.38 82.1867 118.913 83.0933 119.276 84.16C119.66 85.2267 119.852 86.4213 119.852 87.744C119.852 89.0667 119.66 90.2613 119.276 91.328C118.913 92.3947 118.38 93.3013 117.676 94.048C116.993 94.7947 116.15 95.3707 115.148 95.776C114.145 96.1813 113.025 96.384 111.788 96.384ZM111.788 93.248C112.961 93.248 113.889 92.896 114.572 92.192C115.254 91.4667 115.596 90.4107 115.596 89.024V86.464C115.596 85.0773 115.254 84.032 114.572 83.328C113.889 82.6027 112.961 82.24 111.788 82.24C110.614 82.24 109.686 82.6027 109.004 83.328C108.321 84.032 107.98 85.0773 107.98 86.464V89.024C107.98 90.4107 108.321 91.4667 109.004 92.192C109.686 92.896 110.614 93.248 111.788 93.248ZM132.095 96C130.516 96 129.354 95.584 128.607 94.752C127.86 93.92 127.487 92.8427 127.487 91.52V82.72H122.687V79.488H125.951C126.612 79.488 127.082 79.36 127.359 79.104C127.636 78.8267 127.775 78.3467 127.775 77.664V73.664H131.583V79.488H138.303V82.72H131.583V92.768H138.303V96H132.095ZM156.243 96C155.24 96 154.461 95.7547 153.907 95.264C153.373 94.752 153.053 94.048 152.947 93.152H152.787C152.488 94.176 151.901 94.976 151.027 95.552C150.152 96.1067 149.075 96.384 147.795 96.384C146.131 96.384 144.808 95.9467 143.827 95.072C142.845 94.1973 142.355 92.9813 142.355 91.424C142.355 88.096 144.797 86.432 149.683 86.432H152.595V85.344C152.595 84.2987 152.339 83.5093 151.827 82.976C151.315 82.4427 150.483 82.176 149.331 82.176C148.285 82.176 147.443 82.3787 146.803 82.784C146.163 83.1893 145.619 83.712 145.171 84.352L142.835 82.368C143.347 81.4507 144.168 80.6827 145.299 80.064C146.451 79.424 147.933 79.104 149.747 79.104C151.923 79.104 153.619 79.616 154.835 80.64C156.072 81.6427 156.691 83.1467 156.691 85.152V92.928H158.642V96H156.243ZM149.171 93.568C150.152 93.568 150.963 93.344 151.603 92.896C152.264 92.4267 152.595 91.7973 152.595 91.008V88.8H149.779C147.539 88.8 146.419 89.504 146.419 90.912V91.552C146.419 92.2133 146.664 92.7147 147.155 93.056C147.645 93.3973 148.317 93.568 149.171 93.568ZM169.35 96.384C168.091 96.384 166.961 96.1813 165.958 95.776C164.977 95.3707 164.134 94.7947 163.43 94.048C162.747 93.3013 162.214 92.3947 161.83 91.328C161.467 90.2613 161.286 89.0667 161.286 87.744C161.286 86.4213 161.467 85.2267 161.83 84.16C162.214 83.0933 162.747 82.1867 163.43 81.44C164.134 80.6933 164.977 80.1173 165.958 79.712C166.961 79.3067 168.091 79.104 169.35 79.104C170.587 79.104 171.707 79.3067 172.71 79.712C173.713 80.1173 174.555 80.6933 175.238 81.44C175.942 82.1867 176.475 83.0933 176.838 84.16C177.222 85.2267 177.414 86.4213 177.414 87.744C177.414 89.0667 177.222 90.2613 176.838 91.328C176.475 92.3947 175.942 93.3013 175.238 94.048C174.555 94.7947 173.713 95.3707 172.71 95.776C171.707 96.1813 170.587 96.384 169.35 96.384ZM169.35 93.248C170.523 93.248 171.451 92.896 172.134 92.192C172.817 91.4667 173.158 90.4107 173.158 89.024V86.464C173.158 85.0773 172.817 84.032 172.134 83.328C171.451 82.6027 170.523 82.24 169.35 82.24C168.177 82.24 167.249 82.6027 166.566 83.328C165.883 84.032 165.542 85.0773 165.542 86.464V89.024C165.542 90.4107 165.883 91.4667 166.566 92.192C167.249 92.896 168.177 93.248 169.35 93.248ZM192.954 85.664L193.146 79.2H192.858L188.538 90.688L184.218 79.2H183.93L184.122 85.664V96H180.474V73.664H185.466L188.57 81.888H188.794L191.93 73.664H196.602V96H192.954V85.664ZM213.805 96C212.802 96 212.024 95.7547 211.469 95.264C210.936 94.752 210.616 94.048 210.509 93.152H210.349C210.05 94.176 209.464 94.976 208.589 95.552C207.714 96.1067 206.637 96.384 205.357 96.384C203.693 96.384 202.37 95.9467 201.389 95.072C200.408 94.1973 199.917 92.9813 199.917 91.424C199.917 88.096 202.36 86.432 207.245 86.432H210.157V85.344C210.157 84.2987 209.901 83.5093 209.389 82.976C208.877 82.4427 208.045 82.176 206.893 82.176C205.848 82.176 205.005 82.3787 204.365 82.784C203.725 83.1893 203.181 83.712 202.733 84.352L200.397 82.368C200.909 81.4507 201.73 80.6827 202.861 80.064C204.013 79.424 205.496 79.104 207.309 79.104C209.485 79.104 211.181 79.616 212.397 80.64C213.634 81.6427 214.253 83.1467 214.253 85.152V92.928H216.205V96H213.805ZM206.733 93.568C207.714 93.568 208.525 93.344 209.165 92.896C209.826 92.4267 210.157 91.7973 210.157 91.008V88.8H207.341C205.101 88.8 203.981 89.504 203.981 90.912V91.552C203.981 92.2133 204.226 92.7147 204.717 93.056C205.208 93.3973 205.88 93.568 206.733 93.568ZM235.745 97.728C235.745 99.456 235.019 100.725 233.569 101.536C232.139 102.368 229.899 102.784 226.849 102.784C225.355 102.784 224.107 102.688 223.105 102.496C222.102 102.325 221.291 102.069 220.673 101.728C220.075 101.387 219.649 100.971 219.393 100.48C219.137 100.011 219.009 99.4773 219.009 98.88C219.009 97.9627 219.275 97.2587 219.809 96.768C220.342 96.2773 221.089 95.9147 222.049 95.68V95.424C221.409 95.2107 220.897 94.912 220.513 94.528C220.15 94.144 219.969 93.6107 219.969 92.928C219.969 92.1173 220.235 91.5093 220.769 91.104C221.323 90.6987 222.049 90.3893 222.945 90.176V90.016C221.963 89.5467 221.195 88.8853 220.641 88.032C220.086 87.1787 219.809 86.144 219.809 84.928C219.809 84.0107 219.969 83.2 220.289 82.496C220.63 81.7707 221.099 81.1627 221.697 80.672C222.315 80.16 223.051 79.776 223.905 79.52C224.758 79.2427 225.707 79.104 226.753 79.104C227.862 79.104 228.865 79.2533 229.761 79.552V78.848C229.761 78.208 229.963 77.6747 230.369 77.248C230.795 76.8213 231.382 76.608 232.129 76.608H235.105V79.68H231.201V80.224C232.011 80.7147 232.63 81.3547 233.057 82.144C233.505 82.912 233.729 83.84 233.729 84.928C233.729 85.8453 233.558 86.6667 233.217 87.392C232.897 88.1173 232.427 88.7253 231.809 89.216C231.211 89.7067 230.475 90.0907 229.601 90.368C228.747 90.624 227.798 90.752 226.753 90.752C226.326 90.752 225.91 90.7413 225.505 90.72C225.121 90.6773 224.747 90.6027 224.385 90.496C224.086 90.6027 223.798 90.7733 223.521 91.008C223.243 91.2427 223.105 91.552 223.105 91.936C223.105 92.448 223.35 92.768 223.841 92.896C224.331 93.0027 224.918 93.056 225.601 93.056H229.345C230.497 93.056 231.478 93.1733 232.289 93.408C233.099 93.6213 233.761 93.9413 234.273 94.368C234.785 94.7733 235.158 95.264 235.392 95.84C235.627 96.416 235.745 97.0453 235.745 97.728ZM231.905 98.016C231.905 97.5253 231.702 97.1307 231.297 96.832C230.913 96.5547 230.187 96.416 229.121 96.416H223.425C222.785 96.7787 222.465 97.312 222.465 98.016C222.465 98.592 222.699 99.072 223.169 99.456C223.659 99.84 224.481 100.032 225.633 100.032H228.289C230.699 100.032 231.905 99.36 231.905 98.016ZM226.753 88.064C227.798 88.064 228.566 87.8187 229.057 87.328C229.547 86.816 229.793 86.1547 229.793 85.344V84.512C229.793 83.7013 229.547 83.0507 229.057 82.56C228.566 82.048 227.798 81.792 226.753 81.792C225.729 81.792 224.971 82.048 224.481 82.56C223.99 83.0507 223.745 83.7013 223.745 84.512V85.344C223.745 86.1547 223.99 86.816 224.481 87.328C224.971 87.8187 225.729 88.064 226.753 88.064ZM247.124 76.928C246.164 76.928 245.481 76.7253 245.076 76.32C244.692 75.9147 244.5 75.424 244.5 74.848V74.08C244.5 73.504 244.692 73.0133 245.076 72.608C245.481 72.2027 246.164 72 247.124 72C248.084 72 248.756 72.2027 249.14 72.608C249.545 73.0133 249.748 73.504 249.748 74.08V74.848C249.748 75.424 249.545 75.9147 249.14 76.32C248.756 76.7253 248.084 76.928 247.124 76.928ZM239.636 92.768H245.076V82.72H239.636V79.488H249.172V92.768H254.228V96H239.636V92.768ZM265.928 96.384C264.669 96.384 263.538 96.1813 262.536 95.776C261.533 95.3707 260.68 94.7947 259.976 94.048C259.293 93.3013 258.76 92.3947 258.376 91.328C258.013 90.2613 257.832 89.0667 257.832 87.744C257.832 86.4213 258.013 85.2267 258.376 84.16C258.76 83.0933 259.293 82.1867 259.976 81.44C260.68 80.6933 261.522 80.1173 262.504 79.712C263.506 79.3067 264.637 79.104 265.896 79.104C267.645 79.104 269.053 79.4667 270.12 80.192C271.186 80.9173 271.997 81.8773 272.552 83.072L269.384 84.8C269.085 84.096 268.658 83.5307 268.104 83.104C267.57 82.656 266.834 82.432 265.896 82.432C264.68 82.432 263.741 82.784 263.08 83.488C262.44 84.192 262.12 85.152 262.12 86.368V89.12C262.12 90.3147 262.44 91.2747 263.08 92C263.741 92.704 264.701 93.056 265.96 93.056C266.941 93.056 267.72 92.832 268.296 92.384C268.893 91.936 269.373 91.3387 269.736 90.592L272.808 92.416C272.253 93.5893 271.41 94.5493 270.28 95.296C269.17 96.0213 267.72 96.384 265.928 96.384ZM284.475 96.384C283.216 96.384 282.086 96.1813 281.083 95.776C280.102 95.3707 279.259 94.7947 278.555 94.048C277.872 93.3013 277.339 92.3947 276.955 91.328C276.592 90.2613 276.411 89.0667 276.411 87.744C276.411 86.4213 276.592 85.2267 276.955 84.16C277.339 83.0933 277.872 82.1867 278.555 81.44C279.259 80.6933 280.102 80.1173 281.083 79.712C282.086 79.3067 283.216 79.104 284.475 79.104C285.712 79.104 286.832 79.3067 287.835 79.712C288.838 80.1173 289.68 80.6933 290.363 81.44C291.067 82.1867 291.6 83.0933 291.963 84.16C292.347 85.2267 292.539 86.4213 292.539 87.744C292.539 89.0667 292.347 90.2613 291.963 91.328C291.6 92.3947 291.067 93.3013 290.363 94.048C289.68 94.7947 288.838 95.3707 287.835 95.776C286.832 96.1813 285.712 96.384 284.475 96.384ZM284.475 93.248C285.648 93.248 286.576 92.896 287.259 92.192C287.942 91.4667 288.283 90.4107 288.283 89.024V86.464C288.283 85.0773 287.942 84.032 287.259 83.328C286.576 82.6027 285.648 82.24 284.475 82.24C283.302 82.24 282.374 82.6027 281.691 83.328C281.008 84.032 280.667 85.0773 280.667 86.464V89.024C280.667 90.4107 281.008 91.4667 281.691 92.192C282.374 92.896 283.302 93.248 284.475 93.248Z" fill="#B2D1FF"/>
<path d="M391.984 42.352V39.056H407.216V42.352H391.984ZM391.984 49.424V46.128H407.216V49.424H391.984ZM591.475 54.352C590.366 54.352 589.576 54.1173 589.107 53.648C588.638 53.1787 588.403 52.6027 588.403 51.92V50.96C588.403 50.2773 588.638 49.7013 589.107 49.232C589.576 48.7627 590.366 48.528 591.475 48.528C592.584 48.528 593.374 48.7627 593.843 49.232C594.312 49.7013 594.547 50.2773 594.547 50.96V51.92C594.547 52.6027 594.312 53.1787 593.843 53.648C593.374 54.1173 592.584 54.352 591.475 54.352ZM875.544 44.048C875.544 42.4907 875.714 40.9973 876.056 39.568C876.418 38.1173 876.898 36.7733 877.496 35.536C878.114 34.2987 878.829 33.1893 879.64 32.208C880.45 31.2053 881.304 30.3627 882.2 29.68H886.296C885.336 30.3627 884.418 31.1627 883.544 32.08C882.669 32.9973 881.901 34.0107 881.24 35.12C880.578 36.208 880.045 37.3813 879.64 38.64C879.256 39.8773 879.064 41.168 879.064 42.512V45.584C879.064 46.928 879.256 48.2293 879.64 49.488C880.045 50.7253 880.578 51.8987 881.24 53.008C881.901 54.096 882.669 55.0987 883.544 56.016C884.418 56.9333 885.336 57.7333 886.296 58.416H882.2C881.304 57.7547 880.45 56.9227 879.64 55.92C878.829 54.9173 878.114 53.7973 877.496 52.56C876.898 51.3227 876.418 49.9893 876.056 48.56C875.714 47.1093 875.544 45.6053 875.544 44.048ZM1036.53 44.048C1036.53 45.6053 1036.35 47.1093 1035.99 48.56C1035.65 49.9893 1035.17 51.3227 1034.55 52.56C1033.95 53.7973 1033.25 54.9173 1032.44 55.92C1031.62 56.9227 1030.77 57.7547 1029.88 58.416H1025.78C1026.74 57.7333 1027.66 56.9333 1028.53 56.016C1029.41 55.0987 1030.17 54.096 1030.84 53.008C1031.5 51.8987 1032.02 50.7253 1032.4 49.488C1032.81 48.2293 1033.01 46.928 1033.01 45.584V42.512C1033.01 41.168 1032.81 39.8773 1032.4 38.64C1032.02 37.3813 1031.5 36.208 1030.84 35.12C1030.17 34.0107 1029.41 32.9973 1028.53 32.08C1027.66 31.1627 1026.74 30.3627 1025.78 29.68H1029.88C1030.77 30.3627 1031.62 31.2053 1032.44 32.208C1033.25 33.1893 1033.95 34.2987 1034.55 35.536C1035.17 36.7733 1035.65 38.1173 1035.99 39.568C1036.35 40.9973 1036.53 42.4907 1036.53 44.048ZM1049.93 48.784H1055.43L1051.24 58.736H1048.14L1049.93 48.784ZM1051.98 42.992C1050.87 42.992 1050.08 42.7573 1049.61 42.288C1049.14 41.8187 1048.9 41.2427 1048.9 40.56V39.6C1048.9 38.9173 1049.14 38.3413 1049.61 37.872C1050.08 37.4027 1050.87 37.168 1051.98 37.168C1053.08 37.168 1053.87 37.4027 1054.34 37.872C1054.81 38.3413 1055.05 38.9173 1055.05 39.6V40.56C1055.05 41.2427 1054.81 41.8187 1054.34 42.288C1053.87 42.7573 1053.08 42.992 1051.98 42.992ZM468.734 84.352V81.056H483.966V84.352H468.734ZM468.734 91.424V88.128H483.966V91.424H468.734ZM664.481 86.048C664.481 84.4907 664.652 82.9973 664.993 81.568C665.356 80.1173 665.836 78.7733 666.433 77.536C667.052 76.2987 667.766 75.1893 668.577 74.208C669.388 73.2053 670.241 72.3627 671.137 71.68H675.233C674.273 72.3627 673.356 73.1627 672.481 74.08C671.606 74.9973 670.838 76.0107 670.177 77.12C669.516 78.208 668.982 79.3813 668.577 80.64C668.193 81.8773 668.001 83.168 668.001 84.512V87.584C668.001 88.928 668.193 90.2293 668.577 91.488C668.982 92.7253 669.516 93.8987 670.177 95.008C670.838 96.096 671.606 97.0987 672.481 98.016C673.356 98.9333 674.273 99.7333 675.233 100.416H671.137C670.241 99.7547 669.388 98.9227 668.577 97.92C667.766 96.9173 667.052 95.7973 666.433 94.56C665.836 93.3227 665.356 91.9893 664.993 90.56C664.652 89.1093 664.481 87.6053 664.481 86.048ZM691.157 86.048C691.157 87.6053 690.975 89.1093 690.613 90.56C690.271 91.9893 689.791 93.3227 689.173 94.56C688.575 95.7973 687.871 96.9173 687.061 97.92C686.25 98.9227 685.397 99.7547 684.501 100.416H680.405C681.365 99.7333 682.282 98.9333 683.157 98.016C684.031 97.0987 684.799 96.096 685.461 95.008C686.122 93.8987 686.645 92.7253 687.029 91.488C687.434 90.2293 687.637 88.928 687.637 87.584V84.512C687.637 83.168 687.434 81.8773 687.029 80.64C686.645 79.3813 686.122 78.208 685.461 77.12C684.799 76.0107 684.031 74.9973 683.157 74.08C682.282 73.1627 681.365 72.3627 680.405 71.68H684.501C685.397 72.3627 686.25 73.2053 687.061 74.208C687.871 75.1893 688.575 76.2987 689.173 77.536C689.791 78.7733 690.271 80.1173 690.613 81.568C690.975 82.9973 691.157 84.4907 691.157 86.048ZM726.652 100.416C725.372 100.416 724.444 100.117 723.868 99.52C723.292 98.9227 723.004 98.1547 723.004 97.216V95.616C723.004 95.0613 723.057 94.5813 723.164 94.176C723.292 93.7493 723.441 93.376 723.612 93.056C723.782 92.736 723.974 92.448 724.188 92.192C724.401 91.936 724.604 91.6907 724.796 91.456C725.158 91.0293 725.404 90.6667 725.532 90.368C725.681 90.048 725.756 89.7173 725.756 89.376C725.756 88.096 724.518 87.456 722.044 87.456H719.26V84.64H722.044C724.518 84.64 725.756 84 725.756 82.72C725.756 82.3787 725.681 82.0587 725.532 81.76C725.404 81.44 725.158 81.0667 724.796 80.64C724.604 80.4053 724.401 80.16 724.188 79.904C723.974 79.648 723.782 79.36 723.612 79.04C723.441 78.72 723.292 78.3573 723.164 77.952C723.057 77.5253 723.004 77.0347 723.004 76.48V74.88C723.004 73.9413 723.292 73.1733 723.868 72.576C724.444 71.9787 725.372 71.68 726.652 71.68H732.316V74.496H726.332V76.288C726.332 77.12 726.46 77.76 726.716 78.208C726.972 78.656 727.27 79.0933 727.612 79.52C727.974 79.968 728.316 80.448 728.636 80.96C728.956 81.472 729.116 82.0693 729.116 82.752C729.116 83.648 728.806 84.3733 728.188 84.928C727.569 85.4613 726.652 85.8027 725.436 85.952V86.144C726.652 86.2933 727.569 86.6453 728.188 87.2C728.806 87.7333 729.116 88.448 729.116 89.344C729.116 90.0267 728.956 90.624 728.636 91.136C728.316 91.648 727.974 92.128 727.612 92.576C727.27 93.0027 726.972 93.44 726.716 93.888C726.46 94.336 726.332 94.976 726.332 95.808V97.6H732.316V100.416H726.652ZM748.719 128.048C748.719 129.605 748.538 131.109 748.175 132.56C747.834 133.989 747.354 135.323 746.735 136.56C746.138 137.797 745.434 138.917 744.623 139.92C743.812 140.923 742.959 141.755 742.063 142.416H737.967C738.927 141.733 739.844 140.933 740.719 140.016C741.594 139.099 742.362 138.096 743.023 137.008C743.684 135.899 744.207 134.725 744.591 133.488C744.996 132.229 745.199 130.928 745.199 129.584V126.512C745.199 125.168 744.996 123.877 744.591 122.64C744.207 121.381 743.684 120.208 743.023 119.12C742.362 118.011 741.594 116.997 740.719 116.08C739.844 115.163 738.927 114.363 737.967 113.68H742.063C742.959 114.363 743.812 115.205 744.623 116.208C745.434 117.189 746.138 118.299 746.735 119.536C747.354 120.773 747.834 122.117 748.175 123.568C748.538 124.997 748.719 126.491 748.719 128.048ZM762.115 132.784H767.619L763.427 142.736H760.323L762.115 132.784ZM764.163 126.992C763.053 126.992 762.264 126.757 761.795 126.288C761.325 125.819 761.091 125.243 761.091 124.56V123.6C761.091 122.917 761.325 122.341 761.795 121.872C762.264 121.403 763.053 121.168 764.163 121.168C765.272 121.168 766.061 121.403 766.531 121.872C767 122.341 767.235 122.917 767.235 123.6V124.56C767.235 125.243 767 125.819 766.531 126.288C766.061 126.757 765.272 126.992 764.163 126.992ZM91.736 155.68C93.016 155.68 93.944 155.979 94.52 156.576C95.096 157.173 95.384 157.941 95.384 158.88V160.48C95.384 161.035 95.32 161.525 95.192 161.952C95.0853 162.357 94.9467 162.72 94.776 163.04C94.6053 163.36 94.4133 163.648 94.2 163.904C93.9867 164.16 93.784 164.405 93.592 164.64C93.2293 165.067 92.9733 165.44 92.824 165.76C92.696 166.059 92.632 166.379 92.632 166.72C92.632 168 93.8693 168.64 96.344 168.64H99.128V171.456H96.344C93.8693 171.456 92.632 172.096 92.632 173.376C92.632 173.717 92.696 174.048 92.824 174.368C92.9733 174.667 93.2293 175.029 93.592 175.456C93.784 175.691 93.9867 175.936 94.2 176.192C94.4133 176.448 94.6053 176.736 94.776 177.056C94.9467 177.376 95.0853 177.749 95.192 178.176C95.32 178.581 95.384 179.061 95.384 179.616V181.216C95.384 182.155 95.096 182.923 94.52 183.52C93.944 184.117 93.016 184.416 91.736 184.416H86.072V181.6H92.056V179.808C92.056 178.976 91.928 178.336 91.672 177.888C91.416 177.44 91.1173 177.003 90.776 176.576C90.4133 176.128 90.072 175.648 89.752 175.136C89.432 174.624 89.272 174.027 89.272 173.344C89.272 172.448 89.5813 171.733 90.2 171.2C90.8187 170.645 91.736 170.293 92.952 170.144V169.952C91.736 169.803 90.8187 169.461 90.2 168.928C89.5813 168.373 89.272 167.648 89.272 166.752C89.272 166.069 89.432 165.472 89.752 164.96C90.072 164.448 90.4133 163.968 90.776 163.52C91.1173 163.093 91.416 162.656 91.672 162.208C91.928 161.76 92.056 161.12 92.056 160.288V158.496H86.072V155.68H91.736ZM109.74 174.784H115.244L111.052 184.736H107.948L109.74 174.784ZM111.788 168.992C110.678 168.992 109.889 168.757 109.42 168.288C108.95 167.819 108.716 167.243 108.716 166.56V165.6C108.716 164.917 108.95 164.341 109.42 163.872C109.889 163.403 110.678 163.168 111.788 163.168C112.897 163.168 113.686 163.403 114.156 163.872C114.625 164.341 114.86 164.917 114.86 165.6V166.56C114.86 167.243 114.625 167.819 114.156 168.288C113.686 168.757 112.897 168.992 111.788 168.992Z" fill="white"/>
<path d="M619.495 55.728C619.495 57.456 618.769 58.7253 617.319 59.536C615.889 60.368 613.649 60.784 610.599 60.784C609.105 60.784 607.857 60.688 606.855 60.496C605.852 60.3253 605.041 60.0693 604.423 59.728C603.825 59.3867 603.399 58.9707 603.143 58.48C602.887 58.0107 602.759 57.4773 602.759 56.88C602.759 55.9627 603.025 55.2587 603.559 54.768C604.092 54.2773 604.839 53.9147 605.799 53.68V53.424C605.159 53.2107 604.647 52.912 604.263 52.528C603.9 52.144 603.719 51.6107 603.719 50.928C603.719 50.1173 603.985 49.5093 604.519 49.104C605.073 48.6987 605.799 48.3893 606.695 48.176V48.016C605.713 47.5467 604.945 46.8853 604.391 46.032C603.836 45.1787 603.559 44.144 603.559 42.928C603.559 42.0107 603.719 41.2 604.039 40.496C604.38 39.7707 604.849 39.1627 605.447 38.672C606.065 38.16 606.801 37.776 607.655 37.52C608.508 37.2427 609.457 37.104 610.503 37.104C611.612 37.104 612.615 37.2533 613.511 37.552V36.848C613.511 36.208 613.713 35.6747 614.119 35.248C614.545 34.8213 615.132 34.608 615.879 34.608H618.855V37.68H614.951V38.224C615.761 38.7147 616.38 39.3547 616.807 40.144C617.255 40.912 617.479 41.84 617.479 42.928C617.479 43.8453 617.308 44.6667 616.967 45.392C616.647 46.1173 616.177 46.7253 615.559 47.216C614.961 47.7067 614.225 48.0907 613.351 48.368C612.497 48.624 611.548 48.752 610.503 48.752C610.076 48.752 609.66 48.7413 609.255 48.72C608.871 48.6773 608.497 48.6027 608.135 48.496C607.836 48.6027 607.548 48.7733 607.271 49.008C606.993 49.2427 606.855 49.552 606.855 49.936C606.855 50.448 607.1 50.768 607.591 50.896C608.081 51.0027 608.668 51.056 609.351 51.056H613.095C614.247 51.056 615.228 51.1733 616.039 51.408C616.849 51.6213 617.511 51.9413 618.023 52.368C618.535 52.7733 618.908 53.264 619.142 53.84C619.377 54.416 619.495 55.0453 619.495 55.728ZM615.655 56.016C615.655 55.5253 615.452 55.1307 615.047 54.832C614.663 54.5547 613.937 54.416 612.871 54.416H607.175C606.535 54.7787 606.215 55.312 606.215 56.016C606.215 56.592 606.449 57.072 606.919 57.456C607.409 57.84 608.231 58.032 609.383 58.032H612.039C614.449 58.032 615.655 57.36 615.655 56.016ZM610.503 46.064C611.548 46.064 612.316 45.8187 612.807 45.328C613.297 44.816 613.543 44.1547 613.543 43.344V42.512C613.543 41.7013 613.297 41.0507 612.807 40.56C612.316 40.048 611.548 39.792 610.503 39.792C609.479 39.792 608.721 40.048 608.231 40.56C607.74 41.0507 607.495 41.7013 607.495 42.512V43.344C607.495 44.1547 607.74 44.816 608.231 45.328C608.721 45.8187 609.479 46.064 610.503 46.064ZM630.234 54.384C628.911 54.384 627.738 54.1813 626.714 53.776C625.69 53.3707 624.826 52.7947 624.122 52.048C623.439 51.3013 622.917 50.4053 622.554 49.36C622.191 48.2933 622.01 47.0987 622.01 45.776C622.01 44.432 622.191 43.2267 622.554 42.16C622.938 41.0933 623.471 40.1867 624.154 39.44C624.837 38.6933 625.658 38.1173 626.618 37.712C627.599 37.3067 628.698 37.104 629.914 37.104C631.109 37.104 632.186 37.3067 633.146 37.712C634.106 38.096 634.917 38.6507 635.578 39.376C636.261 40.1013 636.783 40.976 637.146 42C637.509 43.024 637.69 44.1547 637.69 45.392V46.736H626.106V47.152C626.106 48.3467 626.479 49.3173 627.226 50.064C627.973 50.7893 629.018 51.152 630.362 51.152C631.386 51.152 632.261 50.9493 632.986 50.544C633.733 50.1173 634.351 49.5627 634.842 48.88L637.178 51.216C636.581 52.0907 635.706 52.8373 634.554 53.456C633.423 54.0747 631.983 54.384 630.234 54.384ZM629.946 40.112C628.794 40.112 627.866 40.4747 627.162 41.2C626.458 41.9253 626.106 42.8853 626.106 44.08V44.304H633.594V44.016C633.594 42.8213 633.263 41.872 632.602 41.168C631.962 40.464 631.077 40.112 629.946 40.112ZM650.158 54C648.579 54 647.416 53.584 646.67 52.752C645.923 51.92 645.55 50.8427 645.55 49.52V40.72H640.75V37.488H644.014C644.675 37.488 645.144 37.36 645.422 37.104C645.699 36.8267 645.838 36.3467 645.838 35.664V31.664H649.646V37.488H656.366V40.72H649.646V50.768H656.366V54H650.158ZM661.281 54V31.664H675.393V35.12H665.473V40.944H675.041V44.4H665.473V50.544H675.393V54H661.281ZM680.117 50.768H685.365V33.552H680.117V30.32H689.461V50.768H694.741V54H680.117V50.768ZM706.984 54.384C705.661 54.384 704.488 54.1813 703.464 53.776C702.44 53.3707 701.576 52.7947 700.872 52.048C700.189 51.3013 699.667 50.4053 699.304 49.36C698.941 48.2933 698.76 47.0987 698.76 45.776C698.76 44.432 698.941 43.2267 699.304 42.16C699.688 41.0933 700.221 40.1867 700.904 39.44C701.587 38.6933 702.408 38.1173 703.368 37.712C704.349 37.3067 705.448 37.104 706.664 37.104C707.859 37.104 708.936 37.3067 709.896 37.712C710.856 38.096 711.667 38.6507 712.328 39.376C713.011 40.1013 713.533 40.976 713.896 42C714.259 43.024 714.44 44.1547 714.44 45.392V46.736H702.856V47.152C702.856 48.3467 703.229 49.3173 703.976 50.064C704.723 50.7893 705.768 51.152 707.112 51.152C708.136 51.152 709.011 50.9493 709.736 50.544C710.483 50.1173 711.101 49.5627 711.592 48.88L713.928 51.216C713.331 52.0907 712.456 52.8373 711.304 53.456C710.173 54.0747 708.733 54.384 706.984 54.384ZM706.696 40.112C705.544 40.112 704.616 40.4747 703.912 41.2C703.208 41.9253 702.856 42.8853 702.856 44.08V44.304H710.344V44.016C710.344 42.8213 710.013 41.872 709.352 41.168C708.712 40.464 707.827 40.112 706.696 40.112ZM717.372 54V37.488H720.764V39.76H720.956C721.212 39.0347 721.574 38.416 722.044 37.904C722.534 37.3707 723.217 37.104 724.092 37.104C724.924 37.104 725.585 37.3493 726.076 37.84C726.566 38.3093 726.886 38.9813 727.036 39.856H727.196C727.473 39.1093 727.878 38.4693 728.412 37.936C728.966 37.3813 729.745 37.104 730.748 37.104C731.964 37.104 732.838 37.5413 733.372 38.416C733.905 39.2907 734.172 40.5813 734.172 42.288V54H730.812V42.768C730.812 41.808 730.673 41.136 730.396 40.752C730.14 40.368 729.745 40.176 729.212 40.176C728.721 40.176 728.305 40.336 727.964 40.656C727.644 40.976 727.484 41.4667 727.484 42.128V54H724.092V42.768C724.092 41.808 723.964 41.136 723.708 40.752C723.452 40.368 723.057 40.176 722.524 40.176C722.012 40.176 721.585 40.336 721.244 40.656C720.924 40.976 720.764 41.4667 720.764 42.128V54H717.372ZM745.359 54.384C744.036 54.384 742.863 54.1813 741.839 53.776C740.815 53.3707 739.951 52.7947 739.247 52.048C738.564 51.3013 738.042 50.4053 737.679 49.36C737.316 48.2933 737.135 47.0987 737.135 45.776C737.135 44.432 737.316 43.2267 737.679 42.16C738.063 41.0933 738.596 40.1867 739.279 39.44C739.962 38.6933 740.783 38.1173 741.743 37.712C742.724 37.3067 743.823 37.104 745.039 37.104C746.234 37.104 747.311 37.3067 748.271 37.712C749.231 38.096 750.042 38.6507 750.703 39.376C751.386 40.1013 751.908 40.976 752.271 42C752.634 43.024 752.815 44.1547 752.815 45.392V46.736H741.231V47.152C741.231 48.3467 741.604 49.3173 742.351 50.064C743.098 50.7893 744.143 51.152 745.487 51.152C746.511 51.152 747.386 50.9493 748.111 50.544C748.858 50.1173 749.476 49.5627 749.967 48.88L752.303 51.216C751.706 52.0907 750.831 52.8373 749.679 53.456C748.548 54.0747 747.108 54.384 745.359 54.384ZM745.071 40.112C743.919 40.112 742.991 40.4747 742.287 41.2C741.583 41.9253 741.231 42.8853 741.231 44.08V44.304H748.719V44.016C748.719 42.8213 748.388 41.872 747.727 41.168C747.087 40.464 746.202 40.112 745.071 40.112ZM756.963 54V37.488H761.059V40.4H761.219C761.581 39.504 762.136 38.736 762.883 38.096C763.651 37.4347 764.707 37.104 766.051 37.104C767.672 37.104 768.984 37.648 769.987 38.736C771.011 39.8027 771.523 41.3387 771.523 43.344V54H767.427V43.92C767.427 41.5307 766.392 40.336 764.323 40.336C763.896 40.336 763.491 40.3893 763.107 40.496C762.723 40.6027 762.371 40.7733 762.051 41.008C761.752 41.2213 761.507 41.488 761.315 41.808C761.144 42.128 761.059 42.512 761.059 42.96V54H756.963ZM784.47 54C782.891 54 781.729 53.584 780.982 52.752C780.235 51.92 779.862 50.8427 779.862 49.52V40.72H775.062V37.488H778.326C778.987 37.488 779.457 37.36 779.734 37.104C780.011 36.8267 780.15 36.3467 780.15 35.664V31.664H783.958V37.488H790.678V40.72H783.958V50.768H790.678V54H784.47ZM795.498 31.664H803.274C805.386 31.664 807.007 32.1973 808.138 33.264C809.29 34.3093 809.866 35.7387 809.866 37.552C809.866 38.832 809.546 39.856 808.906 40.624C808.287 41.392 807.402 41.9467 806.25 42.288V42.448C807.594 42.768 808.65 43.3547 809.418 44.208C810.207 45.04 810.602 46.224 810.602 47.76C810.602 48.6987 810.442 49.552 810.122 50.32C809.823 51.0667 809.386 51.7173 808.81 52.272C808.255 52.8267 807.572 53.2533 806.762 53.552C805.972 53.8507 805.076 54 804.074 54H795.498V31.664ZM802.794 50.96C803.967 50.96 804.842 50.7467 805.418 50.32C806.015 49.872 806.314 49.1147 806.314 48.048V46.992C806.314 45.9467 806.015 45.2107 805.418 44.784C804.842 44.336 803.967 44.112 802.794 44.112H799.594V50.96H802.794ZM802.25 41.2C803.38 41.2 804.212 40.9973 804.746 40.592C805.3 40.1867 805.578 39.4827 805.578 38.48V37.424C805.578 36.4213 805.3 35.7173 804.746 35.312C804.212 34.9067 803.38 34.704 802.25 34.704H799.594V41.2H802.25ZM826.237 37.488H830.397L822.493 56.944C822.045 58.0747 821.448 58.928 820.701 59.504C819.954 60.1013 818.898 60.4 817.533 60.4H814.525V57.168H818.461L819.709 53.84L813.053 37.488H817.405L819.933 44.4L821.693 49.648H821.917L823.677 44.4L826.237 37.488ZM833.809 54V50.864H838.833V34.8H833.809V31.664H848.017V34.8H842.993V50.864H848.017V54H833.809ZM863.396 51.088H863.172C862.724 52.0907 862.105 52.8907 861.316 53.488C860.548 54.0853 859.524 54.384 858.244 54.384C857.305 54.384 856.441 54.2133 855.652 53.872C854.884 53.5093 854.223 52.976 853.668 52.272C853.113 51.5467 852.687 50.64 852.388 49.552C852.089 48.464 851.94 47.1947 851.94 45.744C851.94 42.8427 852.516 40.6773 853.668 39.248C854.82 37.8187 856.345 37.104 858.244 37.104C859.524 37.104 860.548 37.4027 861.316 38C862.105 38.5973 862.724 39.3973 863.172 40.4H863.396V30.32H867.492V54H863.396V51.088ZM859.972 51.12C860.441 51.12 860.879 51.0667 861.284 50.96C861.711 50.832 862.073 50.6613 862.372 50.448C862.692 50.2133 862.937 49.9253 863.108 49.584C863.3 49.2213 863.396 48.8053 863.396 48.336V43.152C863.396 42.6827 863.3 42.2773 863.108 41.936C862.937 41.5733 862.692 41.2853 862.372 41.072C862.073 40.8373 861.711 40.6667 861.284 40.56C860.879 40.432 860.441 40.368 859.972 40.368C858.777 40.368 857.849 40.7307 857.188 41.456C856.548 42.1813 856.228 43.1733 856.228 44.432V47.056C856.228 48.3147 856.548 49.3067 857.188 50.032C857.849 50.7573 858.777 51.12 859.972 51.12ZM322.85 96.384C321.591 96.384 320.461 96.1813 319.458 95.776C318.477 95.3707 317.634 94.7947 316.93 94.048C316.247 93.3013 315.714 92.3947 315.33 91.328C314.967 90.2613 314.786 89.0667 314.786 87.744C314.786 86.4213 314.967 85.2267 315.33 84.16C315.714 83.0933 316.247 82.1867 316.93 81.44C317.634 80.6933 318.477 80.1173 319.458 79.712C320.461 79.3067 321.591 79.104 322.85 79.104C324.087 79.104 325.207 79.3067 326.21 79.712C327.213 80.1173 328.055 80.6933 328.738 81.44C329.442 82.1867 329.975 83.0933 330.338 84.16C330.722 85.2267 330.914 86.4213 330.914 87.744C330.914 89.0667 330.722 90.2613 330.338 91.328C329.975 92.3947 329.442 93.3013 328.738 94.048C328.055 94.7947 327.213 95.3707 326.21 95.776C325.207 96.1813 324.087 96.384 322.85 96.384ZM322.85 93.248C324.023 93.248 324.951 92.896 325.634 92.192C326.317 91.4667 326.658 90.4107 326.658 89.024V86.464C326.658 85.0773 326.317 84.032 325.634 83.328C324.951 82.6027 324.023 82.24 322.85 82.24C321.677 82.24 320.749 82.6027 320.066 83.328C319.383 84.032 319.042 85.0773 319.042 86.464V89.024C319.042 90.4107 319.383 91.4667 320.066 92.192C320.749 92.896 321.677 93.248 322.85 93.248ZM334.838 96V79.488H338.934V82.4H339.094C339.456 81.504 340.011 80.736 340.758 80.096C341.526 79.4347 342.582 79.104 343.926 79.104C345.547 79.104 346.859 79.648 347.862 80.736C348.886 81.8027 349.398 83.3387 349.398 85.344V96H345.302V85.92C345.302 83.5307 344.267 82.336 342.198 82.336C341.771 82.336 341.366 82.3893 340.982 82.496C340.598 82.6027 340.246 82.7733 339.926 83.008C339.627 83.2213 339.382 83.488 339.19 83.808C339.019 84.128 338.934 84.512 338.934 84.96V96H334.838ZM361.801 96.384C358.878 96.384 356.713 95.3813 355.305 93.376C353.918 91.3707 353.225 88.5227 353.225 84.832C353.225 81.1627 353.918 78.3253 355.305 76.32C356.713 74.2933 358.878 73.28 361.801 73.28C362.91 73.28 363.881 73.4293 364.713 73.728C365.566 74.0267 366.302 74.4427 366.921 74.976C367.54 75.488 368.052 76.1173 368.457 76.864C368.862 77.5893 369.182 78.3893 369.417 79.264L365.577 80.352C365.428 79.84 365.257 79.36 365.065 78.912C364.873 78.464 364.628 78.08 364.329 77.76C364.052 77.4187 363.7 77.1627 363.273 76.992C362.846 76.8 362.334 76.704 361.737 76.704C360.286 76.704 359.241 77.2587 358.601 78.368C357.982 79.4773 357.673 80.992 357.673 82.912V86.752C357.673 88.672 357.982 90.1867 358.601 91.296C359.241 92.4053 360.286 92.96 361.737 92.96C362.334 92.96 362.846 92.8747 363.273 92.704C363.7 92.512 364.052 92.256 364.329 91.936C364.628 91.5947 364.873 91.2 365.065 90.752C365.257 90.304 365.428 89.824 365.577 89.312L369.417 90.4C369.182 91.2747 368.862 92.0853 368.457 92.832C368.052 93.5573 367.54 94.1867 366.921 94.72C366.302 95.232 365.566 95.6373 364.713 95.936C363.881 96.2347 362.91 96.384 361.801 96.384ZM373.117 92.768H378.365V75.552H373.117V72.32H382.461V92.768H387.741V96H373.117V92.768ZM400.624 76.928C399.664 76.928 398.981 76.7253 398.576 76.32C398.192 75.9147 398 75.424 398 74.848V74.08C398 73.504 398.192 73.0133 398.576 72.608C398.981 72.2027 399.664 72 400.624 72C401.584 72 402.256 72.2027 402.64 72.608C403.045 73.0133 403.248 73.504 403.248 74.08V74.848C403.248 75.424 403.045 75.9147 402.64 76.32C402.256 76.7253 401.584 76.928 400.624 76.928ZM393.136 92.768H398.576V82.72H393.136V79.488H402.672V92.768H407.728V96H393.136V92.768ZM419.428 96.384C418.169 96.384 417.038 96.1813 416.036 95.776C415.033 95.3707 414.18 94.7947 413.476 94.048C412.793 93.3013 412.26 92.3947 411.876 91.328C411.513 90.2613 411.332 89.0667 411.332 87.744C411.332 86.4213 411.513 85.2267 411.876 84.16C412.26 83.0933 412.793 82.1867 413.476 81.44C414.18 80.6933 415.022 80.1173 416.004 79.712C417.006 79.3067 418.137 79.104 419.396 79.104C421.145 79.104 422.553 79.4667 423.62 80.192C424.686 80.9173 425.497 81.8773 426.052 83.072L422.884 84.8C422.585 84.096 422.158 83.5307 421.604 83.104C421.07 82.656 420.334 82.432 419.396 82.432C418.18 82.432 417.241 82.784 416.58 83.488C415.94 84.192 415.62 85.152 415.62 86.368V89.12C415.62 90.3147 415.94 91.2747 416.58 92C417.241 92.704 418.201 93.056 419.46 93.056C420.441 93.056 421.22 92.832 421.796 92.384C422.393 91.936 422.873 91.3387 423.236 90.592L426.308 92.416C425.753 93.5893 424.91 94.5493 423.78 95.296C422.67 96.0213 421.22 96.384 419.428 96.384ZM430.839 72.32H434.935V86.208H435.127L437.527 83.584L441.591 79.488H446.359L439.799 85.984L447.063 96H442.167L436.887 88.32L434.935 90.176V96H430.839V72.32ZM85.304 134.768H90.552V117.552H85.304V114.32H94.648V134.768H99.928V138H85.304V134.768ZM117.868 138C116.865 138 116.086 137.755 115.532 137.264C114.998 136.752 114.678 136.048 114.572 135.152H114.412C114.113 136.176 113.526 136.976 112.652 137.552C111.777 138.107 110.7 138.384 109.42 138.384C107.756 138.384 106.433 137.947 105.452 137.072C104.47 136.197 103.98 134.981 103.98 133.424C103.98 130.096 106.422 128.432 111.308 128.432H114.22V127.344C114.22 126.299 113.964 125.509 113.452 124.976C112.94 124.443 112.108 124.176 110.956 124.176C109.91 124.176 109.068 124.379 108.428 124.784C107.788 125.189 107.244 125.712 106.796 126.352L104.46 124.368C104.972 123.451 105.793 122.683 106.924 122.064C108.076 121.424 109.558 121.104 111.372 121.104C113.548 121.104 115.244 121.616 116.46 122.64C117.697 123.643 118.316 125.147 118.316 127.152V134.928H120.267V138H117.868ZM110.796 135.568C111.777 135.568 112.588 135.344 113.228 134.896C113.889 134.427 114.22 133.797 114.22 133.008V130.8H111.404C109.164 130.8 108.044 131.504 108.044 132.912V133.552C108.044 134.213 108.289 134.715 108.78 135.056C109.27 135.397 109.942 135.568 110.796 135.568ZM123.775 138V121.488H127.871V124.4H128.031C128.394 123.504 128.948 122.736 129.695 122.096C130.463 121.435 131.519 121.104 132.863 121.104C134.484 121.104 135.796 121.648 136.799 122.736C137.823 123.803 138.335 125.339 138.335 127.344V138H134.239V127.92C134.239 125.531 133.204 124.336 131.135 124.336C130.708 124.336 130.303 124.389 129.919 124.496C129.535 124.603 129.183 124.773 128.863 125.008C128.564 125.221 128.319 125.488 128.127 125.808C127.956 126.128 127.871 126.512 127.871 126.96V138H123.775ZM150.803 138.384C149.544 138.384 148.413 138.181 147.411 137.776C146.408 137.371 145.555 136.795 144.851 136.048C144.168 135.301 143.635 134.395 143.251 133.328C142.888 132.261 142.707 131.067 142.707 129.744C142.707 128.421 142.888 127.227 143.251 126.16C143.635 125.093 144.168 124.187 144.851 123.44C145.555 122.693 146.397 122.117 147.379 121.712C148.381 121.307 149.512 121.104 150.771 121.104C152.52 121.104 153.928 121.467 154.995 122.192C156.061 122.917 156.872 123.877 157.427 125.072L154.259 126.8C153.96 126.096 153.533 125.531 152.979 125.104C152.445 124.656 151.709 124.432 150.771 124.432C149.555 124.432 148.616 124.784 147.955 125.488C147.315 126.192 146.995 127.152 146.995 128.368V131.12C146.995 132.315 147.315 133.275 147.955 134C148.616 134.704 149.576 135.056 150.835 135.056C151.816 135.056 152.595 134.832 153.171 134.384C153.768 133.936 154.248 133.339 154.611 132.592L157.683 134.416C157.128 135.589 156.285 136.549 155.155 137.296C154.045 138.021 152.595 138.384 150.803 138.384ZM175.43 138C174.427 138 173.649 137.755 173.094 137.264C172.561 136.752 172.241 136.048 172.134 135.152H171.974C171.675 136.176 171.089 136.976 170.214 137.552C169.339 138.107 168.262 138.384 166.982 138.384C165.318 138.384 163.995 137.947 163.014 137.072C162.033 136.197 161.542 134.981 161.542 133.424C161.542 130.096 163.985 128.432 168.87 128.432H171.782V127.344C171.782 126.299 171.526 125.509 171.014 124.976C170.502 124.443 169.67 124.176 168.518 124.176C167.473 124.176 166.63 124.379 165.99 124.784C165.35 125.189 164.806 125.712 164.358 126.352L162.022 124.368C162.534 123.451 163.355 122.683 164.486 122.064C165.638 121.424 167.121 121.104 168.934 121.104C171.11 121.104 172.806 121.616 174.022 122.64C175.259 123.643 175.878 125.147 175.878 127.152V134.928H177.83V138H175.43ZM168.358 135.568C169.339 135.568 170.15 135.344 170.79 134.896C171.451 134.427 171.782 133.797 171.782 133.008V130.8H168.966C166.726 130.8 165.606 131.504 165.606 132.912V133.552C165.606 134.213 165.851 134.715 166.342 135.056C166.833 135.397 167.505 135.568 168.358 135.568ZM181.338 134.768H185.434V124.72H181.338V121.488H189.53V126H189.786C189.935 125.424 190.138 124.869 190.394 124.336C190.671 123.781 191.012 123.301 191.418 122.896C191.844 122.469 192.356 122.128 192.954 121.872C193.551 121.616 194.266 121.488 195.097 121.488H196.89V125.328H193.498C192.26 125.328 191.29 125.691 190.586 126.416C189.882 127.141 189.53 128.069 189.53 129.2V134.768H195.258V138H181.338V134.768ZM200.781 138V115.664H215.373V119.12H204.973V124.944H214.349V128.4H204.973V138H200.781ZM227.297 138.384C225.974 138.384 224.801 138.181 223.777 137.776C222.753 137.371 221.889 136.795 221.185 136.048C220.502 135.301 219.979 134.405 219.617 133.36C219.254 132.293 219.073 131.099 219.073 129.776C219.073 128.432 219.254 127.227 219.617 126.16C220.001 125.093 220.534 124.187 221.217 123.44C221.899 122.693 222.721 122.117 223.681 121.712C224.662 121.307 225.761 121.104 226.977 121.104C228.171 121.104 229.249 121.307 230.209 121.712C231.169 122.096 231.979 122.651 232.641 123.376C233.323 124.101 233.846 124.976 234.208 126C234.571 127.024 234.753 128.155 234.753 129.392V130.736H223.169V131.152C223.169 132.347 223.542 133.317 224.289 134.064C225.035 134.789 226.081 135.152 227.425 135.152C228.449 135.152 229.323 134.949 230.049 134.544C230.795 134.117 231.414 133.563 231.905 132.88L234.241 135.216C233.643 136.091 232.769 136.837 231.617 137.456C230.486 138.075 229.046 138.384 227.297 138.384ZM227.009 124.112C225.857 124.112 224.929 124.475 224.225 125.2C223.521 125.925 223.169 126.885 223.169 128.08V128.304H230.657V128.016C230.657 126.821 230.326 125.872 229.665 125.168C229.025 124.464 228.139 124.112 227.009 124.112ZM247.124 118.928C246.164 118.928 245.481 118.725 245.076 118.32C244.692 117.915 244.5 117.424 244.5 116.848V116.08C244.5 115.504 244.692 115.013 245.076 114.608C245.481 114.203 246.164 114 247.124 114C248.084 114 248.756 114.203 249.14 114.608C249.545 115.013 249.748 115.504 249.748 116.08V116.848C249.748 117.424 249.545 117.915 249.14 118.32C248.756 118.725 248.084 118.928 247.124 118.928ZM239.636 134.768H245.076V124.72H239.636V121.488H249.172V134.768H254.228V138H239.636V134.768ZM266.408 138C264.829 138 263.666 137.584 262.92 136.752C262.173 135.92 261.8 134.843 261.8 133.52V124.72H257V121.488H260.264C260.925 121.488 261.394 121.36 261.672 121.104C261.949 120.827 262.088 120.347 262.088 119.664V115.664H265.896V121.488H272.616V124.72H265.896V134.768H272.616V138H266.408ZM285.499 118.928C284.539 118.928 283.856 118.725 283.451 118.32C283.067 117.915 282.875 117.424 282.875 116.848V116.08C282.875 115.504 283.067 115.013 283.451 114.608C283.856 114.203 284.539 114 285.499 114C286.459 114 287.131 114.203 287.515 114.608C287.92 115.013 288.123 115.504 288.123 116.08V116.848C288.123 117.424 287.92 117.915 287.515 118.32C287.131 118.725 286.459 118.928 285.499 118.928ZM278.011 134.768H283.451V124.72H278.011V121.488H287.547V134.768H292.603V138H278.011V134.768ZM304.303 138.384C303.044 138.384 301.913 138.181 300.911 137.776C299.908 137.371 299.055 136.795 298.351 136.048C297.668 135.301 297.135 134.395 296.751 133.328C296.388 132.261 296.207 131.067 296.207 129.744C296.207 128.421 296.388 127.227 296.751 126.16C297.135 125.093 297.668 124.187 298.351 123.44C299.055 122.693 299.897 122.117 300.879 121.712C301.881 121.307 303.012 121.104 304.271 121.104C306.02 121.104 307.428 121.467 308.495 122.192C309.561 122.917 310.372 123.877 310.927 125.072L307.759 126.8C307.46 126.096 307.033 125.531 306.479 125.104C305.945 124.656 305.209 124.432 304.271 124.432C303.055 124.432 302.116 124.784 301.455 125.488C300.815 126.192 300.495 127.152 300.495 128.368V131.12C300.495 132.315 300.815 133.275 301.455 134C302.116 134.704 303.076 135.056 304.335 135.056C305.316 135.056 306.095 134.832 306.671 134.384C307.268 133.936 307.748 133.339 308.111 132.592L311.183 134.416C310.628 135.589 309.785 136.549 308.655 137.296C307.545 138.021 306.095 138.384 304.303 138.384ZM322.85 138.384C321.591 138.384 320.461 138.181 319.458 137.776C318.477 137.371 317.634 136.795 316.93 136.048C316.247 135.301 315.714 134.395 315.33 133.328C314.967 132.261 314.786 131.067 314.786 129.744C314.786 128.421 314.967 127.227 315.33 126.16C315.714 125.093 316.247 124.187 316.93 123.44C317.634 122.693 318.477 122.117 319.458 121.712C320.461 121.307 321.591 121.104 322.85 121.104C324.087 121.104 325.207 121.307 326.21 121.712C327.213 122.117 328.055 122.693 328.738 123.44C329.442 124.187 329.975 125.093 330.338 126.16C330.722 127.227 330.914 128.421 330.914 129.744C330.914 131.067 330.722 132.261 330.338 133.328C329.975 134.395 329.442 135.301 328.738 136.048C328.055 136.795 327.213 137.371 326.21 137.776C325.207 138.181 324.087 138.384 322.85 138.384ZM322.85 135.248C324.023 135.248 324.951 134.896 325.634 134.192C326.317 133.467 326.658 132.411 326.658 131.024V128.464C326.658 127.077 326.317 126.032 325.634 125.328C324.951 124.603 324.023 124.24 322.85 124.24C321.677 124.24 320.749 124.603 320.066 125.328C319.383 126.032 319.042 127.077 319.042 128.464V131.024C319.042 132.411 319.383 133.467 320.066 134.192C320.749 134.896 321.677 135.248 322.85 135.248Z" fill="#F4E498"/>
<path d="M893.291 40.304V30.32H897.003V40.304H893.291ZM899.979 40.304V30.32H903.691V40.304H899.979ZM910.271 30.32H914.367V40.4H914.591C915.039 39.3973 915.647 38.5973 916.415 38C917.204 37.4027 918.239 37.104 919.519 37.104C920.457 37.104 921.311 37.2853 922.079 37.648C922.868 37.9893 923.54 38.5227 924.095 39.248C924.649 39.952 925.076 40.848 925.375 41.936C925.673 43.024 925.823 44.2933 925.823 45.744C925.823 47.1947 925.673 48.464 925.375 49.552C925.076 50.64 924.649 51.5467 924.095 52.272C923.54 52.976 922.868 53.5093 922.079 53.872C921.311 54.2133 920.457 54.384 919.519 54.384C918.239 54.384 917.204 54.0853 916.415 53.488C915.647 52.8907 915.039 52.0907 914.591 51.088H914.367V54H910.271V30.32ZM917.791 51.12C918.985 51.12 919.903 50.7573 920.543 50.032C921.204 49.3067 921.535 48.3147 921.535 47.056V44.432C921.535 43.1733 921.204 42.1813 920.543 41.456C919.903 40.7307 918.985 40.368 917.791 40.368C916.852 40.368 916.041 40.6027 915.359 41.072C914.697 41.52 914.367 42.2133 914.367 43.152V48.336C914.367 49.2747 914.697 49.9787 915.359 50.448C916.041 50.896 916.852 51.12 917.791 51.12ZM936.85 54.384C935.591 54.384 934.461 54.1813 933.458 53.776C932.477 53.3707 931.634 52.7947 930.93 52.048C930.247 51.3013 929.714 50.3947 929.33 49.328C928.967 48.2613 928.786 47.0667 928.786 45.744C928.786 44.4213 928.967 43.2267 929.33 42.16C929.714 41.0933 930.247 40.1867 930.93 39.44C931.634 38.6933 932.477 38.1173 933.458 37.712C934.461 37.3067 935.591 37.104 936.85 37.104C938.087 37.104 939.207 37.3067 940.21 37.712C941.213 38.1173 942.055 38.6933 942.738 39.44C943.442 40.1867 943.975 41.0933 944.338 42.16C944.722 43.2267 944.914 44.4213 944.914 45.744C944.914 47.0667 944.722 48.2613 944.338 49.328C943.975 50.3947 943.442 51.3013 942.738 52.048C942.055 52.7947 941.213 53.3707 940.21 53.776C939.207 54.1813 938.087 54.384 936.85 54.384ZM936.85 51.248C938.023 51.248 938.951 50.896 939.634 50.192C940.317 49.4667 940.658 48.4107 940.658 47.024V44.464C940.658 43.0773 940.317 42.032 939.634 41.328C938.951 40.6027 938.023 40.24 936.85 40.24C935.677 40.24 934.749 40.6027 934.066 41.328C933.383 42.032 933.042 43.0773 933.042 44.464V47.024C933.042 48.4107 933.383 49.4667 934.066 50.192C934.749 50.896 935.677 51.248 936.85 51.248ZM957.158 54C955.579 54 954.416 53.584 953.67 52.752C952.923 51.92 952.55 50.8427 952.55 49.52V40.72H947.75V37.488H951.014C951.675 37.488 952.144 37.36 952.422 37.104C952.699 36.8267 952.838 36.3467 952.838 35.664V31.664H956.646V37.488H963.366V40.72H956.646V50.768H963.366V54H957.158ZM981.305 54C980.302 54 979.524 53.7547 978.969 53.264C978.436 52.752 978.116 52.048 978.009 51.152H977.849C977.55 52.176 976.964 52.976 976.089 53.552C975.214 54.1067 974.137 54.384 972.857 54.384C971.193 54.384 969.87 53.9467 968.889 53.072C967.908 52.1973 967.417 50.9813 967.417 49.424C967.417 46.096 969.86 44.432 974.745 44.432H977.657V43.344C977.657 42.2987 977.401 41.5093 976.889 40.976C976.377 40.4427 975.545 40.176 974.393 40.176C973.348 40.176 972.505 40.3787 971.865 40.784C971.225 41.1893 970.681 41.712 970.233 42.352L967.897 40.368C968.409 39.4507 969.23 38.6827 970.361 38.064C971.513 37.424 972.996 37.104 974.809 37.104C976.985 37.104 978.681 37.616 979.897 38.64C981.134 39.6427 981.753 41.1467 981.753 43.152V50.928H983.705V54H981.305ZM974.233 51.568C975.214 51.568 976.025 51.344 976.665 50.896C977.326 50.4267 977.657 49.7973 977.657 49.008V46.8H974.841C972.601 46.8 971.481 47.504 971.481 48.912V49.552C971.481 50.2133 971.726 50.7147 972.217 51.056C972.708 51.3973 973.38 51.568 974.233 51.568ZM994.413 54.384C993.154 54.384 992.023 54.1813 991.021 53.776C990.039 53.3707 989.197 52.7947 988.493 52.048C987.81 51.3013 987.277 50.3947 986.893 49.328C986.53 48.2613 986.349 47.0667 986.349 45.744C986.349 44.4213 986.53 43.2267 986.893 42.16C987.277 41.0933 987.81 40.1867 988.493 39.44C989.197 38.6933 990.039 38.1173 991.021 37.712C992.023 37.3067 993.154 37.104 994.413 37.104C995.65 37.104 996.77 37.3067 997.773 37.712C998.775 38.1173 999.618 38.6933 1000.3 39.44C1001 40.1867 1001.54 41.0933 1001.9 42.16C1002.28 43.2267 1002.48 44.4213 1002.48 45.744C1002.48 47.0667 1002.28 48.2613 1001.9 49.328C1001.54 50.3947 1001 51.3013 1000.3 52.048C999.618 52.7947 998.775 53.3707 997.773 53.776C996.77 54.1813 995.65 54.384 994.413 54.384ZM994.413 51.248C995.586 51.248 996.514 50.896 997.197 50.192C997.879 49.4667 998.221 48.4107 998.221 47.024V44.464C998.221 43.0773 997.879 42.032 997.197 41.328C996.514 40.6027 995.586 40.24 994.413 40.24C993.239 40.24 992.311 40.6027 991.629 41.328C990.946 42.032 990.605 43.0773 990.605 44.464V47.024C990.605 48.4107 990.946 49.4667 991.629 50.192C992.311 50.896 993.239 51.248 994.413 51.248ZM1008.42 40.304V30.32H1012.13V40.304H1008.42ZM1015.1 40.304V30.32H1018.82V40.304H1015.1ZM356.041 124.304V114.32H359.753V124.304H356.041ZM362.729 124.304V114.32H366.441V124.304H362.729ZM372.893 138L371.389 115.664H375.005L375.709 128.528L375.997 133.84H376.285L378.525 120.816H382.429L384.669 133.84H384.957L385.245 128.528L385.949 115.664H389.437L387.933 138H382.525L380.541 125.36H380.285L378.301 138H372.893ZM400.624 118.928C399.664 118.928 398.981 118.725 398.576 118.32C398.192 117.915 398 117.424 398 116.848V116.08C398 115.504 398.192 115.013 398.576 114.608C398.981 114.203 399.664 114 400.624 114C401.584 114 402.256 114.203 402.64 114.608C403.045 115.013 403.248 115.504 403.248 116.08V116.848C403.248 117.424 403.045 117.915 402.64 118.32C402.256 118.725 401.584 118.928 400.624 118.928ZM393.136 134.768H398.576V124.72H393.136V121.488H402.672V134.768H407.728V138H393.136V134.768ZM411.588 138V121.488H415.684V124.4H415.844C416.206 123.504 416.761 122.736 417.508 122.096C418.276 121.435 419.332 121.104 420.676 121.104C422.297 121.104 423.609 121.648 424.612 122.736C425.636 123.803 426.148 125.339 426.148 127.344V138H422.052V127.92C422.052 125.531 421.017 124.336 418.948 124.336C418.521 124.336 418.116 124.389 417.732 124.496C417.348 124.603 416.996 124.773 416.676 125.008C416.377 125.221 416.132 125.488 415.94 125.808C415.769 126.128 415.684 126.512 415.684 126.96V138H411.588ZM446.807 139.728C446.807 141.456 446.082 142.725 444.631 143.536C443.202 144.368 440.962 144.784 437.911 144.784C436.418 144.784 435.17 144.688 434.167 144.496C433.164 144.325 432.354 144.069 431.735 143.728C431.138 143.387 430.711 142.971 430.455 142.48C430.199 142.011 430.071 141.477 430.071 140.88C430.071 139.963 430.338 139.259 430.871 138.768C431.404 138.277 432.151 137.915 433.111 137.68V137.424C432.471 137.211 431.959 136.912 431.575 136.528C431.212 136.144 431.031 135.611 431.031 134.928C431.031 134.117 431.298 133.509 431.831 133.104C432.386 132.699 433.111 132.389 434.007 132.176V132.016C433.026 131.547 432.258 130.885 431.703 130.032C431.148 129.179 430.871 128.144 430.871 126.928C430.871 126.011 431.031 125.2 431.351 124.496C431.692 123.771 432.162 123.163 432.759 122.672C433.378 122.16 434.114 121.776 434.967 121.52C435.82 121.243 436.77 121.104 437.815 121.104C438.924 121.104 439.927 121.253 440.823 121.552V120.848C440.823 120.208 441.026 119.675 441.431 119.248C441.858 118.821 442.444 118.608 443.191 118.608H446.167V121.68H442.263V122.224C443.074 122.715 443.692 123.355 444.119 124.144C444.567 124.912 444.791 125.84 444.791 126.928C444.791 127.845 444.62 128.667 444.279 129.392C443.959 130.117 443.49 130.725 442.871 131.216C442.274 131.707 441.538 132.091 440.663 132.368C439.81 132.624 438.86 132.752 437.815 132.752C437.388 132.752 436.972 132.741 436.567 132.72C436.183 132.677 435.81 132.603 435.447 132.496C435.148 132.603 434.86 132.773 434.583 133.008C434.306 133.243 434.167 133.552 434.167 133.936C434.167 134.448 434.412 134.768 434.903 134.896C435.394 135.003 435.98 135.056 436.663 135.056H440.407C441.559 135.056 442.54 135.173 443.351 135.408C444.162 135.621 444.823 135.941 445.335 136.368C445.847 136.773 446.22 137.264 446.455 137.84C446.69 138.416 446.807 139.045 446.807 139.728ZM442.967 140.016C442.967 139.525 442.764 139.131 442.359 138.832C441.975 138.555 441.25 138.416 440.183 138.416H434.487C433.847 138.779 433.527 139.312 433.527 140.016C433.527 140.592 433.762 141.072 434.231 141.456C434.722 141.84 435.543 142.032 436.695 142.032H439.351C441.762 142.032 442.967 141.36 442.967 140.016ZM437.815 130.064C438.86 130.064 439.628 129.819 440.119 129.328C440.61 128.816 440.855 128.155 440.855 127.344V126.512C440.855 125.701 440.61 125.051 440.119 124.56C439.628 124.048 438.86 123.792 437.815 123.792C436.791 123.792 436.034 124.048 435.543 124.56C435.052 125.051 434.807 125.701 434.807 126.512V127.344C434.807 128.155 435.052 128.816 435.543 129.328C436.034 129.819 436.791 130.064 437.815 130.064ZM463.243 138C462.24 138 461.461 137.755 460.907 137.264C460.373 136.752 460.053 136.048 459.947 135.152H459.787C459.488 136.176 458.901 136.976 458.027 137.552C457.152 138.107 456.075 138.384 454.795 138.384C453.131 138.384 451.808 137.947 450.827 137.072C449.845 136.197 449.355 134.981 449.355 133.424C449.355 130.096 451.797 128.432 456.683 128.432H459.595V127.344C459.595 126.299 459.339 125.509 458.827 124.976C458.315 124.443 457.483 124.176 456.331 124.176C455.285 124.176 454.443 124.379 453.803 124.784C453.163 125.189 452.619 125.712 452.171 126.352L449.835 124.368C450.347 123.451 451.168 122.683 452.299 122.064C453.451 121.424 454.933 121.104 456.747 121.104C458.923 121.104 460.619 121.616 461.835 122.64C463.072 123.643 463.691 125.147 463.691 127.152V134.928H465.642V138H463.243ZM456.171 135.568C457.152 135.568 457.963 135.344 458.603 134.896C459.264 134.427 459.595 133.797 459.595 133.008V130.8H456.779C454.539 130.8 453.419 131.504 453.419 132.912V133.552C453.419 134.213 453.664 134.715 454.155 135.056C454.645 135.397 455.317 135.568 456.171 135.568ZM469.15 134.768H473.246V124.72H469.15V121.488H477.342V126H477.598C477.747 125.424 477.95 124.869 478.206 124.336C478.483 123.781 478.825 123.301 479.23 122.896C479.657 122.469 480.169 122.128 480.766 121.872C481.363 121.616 482.078 121.488 482.91 121.488H484.702V125.328H481.31C480.073 125.328 479.102 125.691 478.398 126.416C477.694 127.141 477.342 128.069 477.342 129.2V134.768H483.07V138H469.15V134.768ZM498.834 135.088H498.61C498.162 136.091 497.543 136.891 496.754 137.488C495.986 138.085 494.962 138.384 493.682 138.384C492.743 138.384 491.879 138.213 491.09 137.872C490.322 137.509 489.66 136.976 489.106 136.272C488.551 135.547 488.124 134.64 487.826 133.552C487.527 132.464 487.378 131.195 487.378 129.744C487.378 126.843 487.954 124.677 489.106 123.248C490.258 121.819 491.783 121.104 493.682 121.104C494.962 121.104 495.986 121.403 496.754 122C497.543 122.597 498.162 123.397 498.61 124.4H498.834V114.32H502.93V138H498.834V135.088ZM495.41 135.12C495.879 135.12 496.316 135.067 496.722 134.96C497.148 134.832 497.511 134.661 497.81 134.448C498.13 134.213 498.375 133.925 498.546 133.584C498.738 133.221 498.834 132.805 498.834 132.336V127.152C498.834 126.683 498.738 126.277 498.546 125.936C498.375 125.573 498.13 125.285 497.81 125.072C497.511 124.837 497.148 124.667 496.722 124.56C496.316 124.432 495.879 124.368 495.41 124.368C494.215 124.368 493.287 124.731 492.626 125.456C491.986 126.181 491.666 127.173 491.666 128.432V131.056C491.666 132.315 491.986 133.307 492.626 134.032C493.287 134.757 494.215 135.12 495.41 135.12ZM515.749 118.928C514.789 118.928 514.106 118.725 513.701 118.32C513.317 117.915 513.125 117.424 513.125 116.848V116.08C513.125 115.504 513.317 115.013 513.701 114.608C514.106 114.203 514.789 114 515.749 114C516.709 114 517.381 114.203 517.765 114.608C518.17 115.013 518.373 115.504 518.373 116.08V116.848C518.373 117.424 518.17 117.915 517.765 118.32C517.381 118.725 516.709 118.928 515.749 118.928ZM508.261 134.768H513.701V124.72H508.261V121.488H517.797V134.768H522.853V138H508.261V134.768ZM537.017 135.088H536.857C536.494 135.984 535.929 136.763 535.161 137.424C534.414 138.064 533.369 138.384 532.025 138.384C530.403 138.384 529.081 137.851 528.057 136.784C527.054 135.696 526.553 134.149 526.553 132.144V121.488H530.649V131.568C530.649 133.957 531.683 135.152 533.753 135.152C534.158 135.152 534.553 135.099 534.937 134.992C535.342 134.885 535.694 134.725 535.993 134.512C536.313 134.277 536.558 134 536.729 133.68C536.921 133.36 537.017 132.976 537.017 132.528V121.488H541.113V138H537.017V135.088ZM544.684 138V121.488H548.076V123.76H548.268C548.524 123.035 548.887 122.416 549.356 121.904C549.847 121.371 550.529 121.104 551.404 121.104C552.236 121.104 552.897 121.349 553.388 121.84C553.879 122.309 554.199 122.981 554.348 123.856H554.508C554.785 123.109 555.191 122.469 555.724 121.936C556.279 121.381 557.057 121.104 558.06 121.104C559.276 121.104 560.151 121.541 560.684 122.416C561.217 123.291 561.484 124.581 561.484 126.288V138H558.124V126.768C558.124 125.808 557.985 125.136 557.708 124.752C557.452 124.368 557.057 124.176 556.524 124.176C556.033 124.176 555.617 124.336 555.276 124.656C554.956 124.976 554.796 125.467 554.796 126.128V138H551.404V126.768C551.404 125.808 551.276 125.136 551.02 124.752C550.764 124.368 550.369 124.176 549.836 124.176C549.324 124.176 548.897 124.336 548.556 124.656C548.236 124.976 548.076 125.467 548.076 126.128V138H544.684ZM585.075 138V115.664H589.267V134.544H599.155V138H585.075ZM611.047 138.384C609.724 138.384 608.551 138.181 607.527 137.776C606.503 137.371 605.639 136.795 604.935 136.048C604.252 135.301 603.729 134.405 603.367 133.36C603.004 132.293 602.823 131.099 602.823 129.776C602.823 128.432 603.004 127.227 603.367 126.16C603.751 125.093 604.284 124.187 604.967 123.44C605.649 122.693 606.471 122.117 607.431 121.712C608.412 121.307 609.511 121.104 610.727 121.104C611.921 121.104 612.999 121.307 613.959 121.712C614.919 122.096 615.729 122.651 616.391 123.376C617.073 124.101 617.596 124.976 617.958 126C618.321 127.024 618.503 128.155 618.503 129.392V130.736H606.919V131.152C606.919 132.347 607.292 133.317 608.039 134.064C608.785 134.789 609.831 135.152 611.175 135.152C612.199 135.152 613.073 134.949 613.799 134.544C614.545 134.117 615.164 133.563 615.655 132.88L617.991 135.216C617.393 136.091 616.519 136.837 615.367 137.456C614.236 138.075 612.796 138.384 611.047 138.384ZM610.759 124.112C609.607 124.112 608.679 124.475 607.975 125.2C607.271 125.925 606.919 126.885 606.919 128.08V128.304H614.407V128.016C614.407 126.821 614.076 125.872 613.415 125.168C612.775 124.464 611.889 124.112 610.759 124.112ZM627.386 138L621.466 121.488H625.754L627.962 128.496L629.818 134.576H630.042L631.898 128.496L634.106 121.488H638.234L632.314 138H627.386ZM650.062 118.928C649.102 118.928 648.419 118.725 648.014 118.32C647.63 117.915 647.438 117.424 647.438 116.848V116.08C647.438 115.504 647.63 115.013 648.014 114.608C648.419 114.203 649.102 114 650.062 114C651.022 114 651.694 114.203 652.078 114.608C652.483 115.013 652.686 115.504 652.686 116.08V116.848C652.686 117.424 652.483 117.915 652.078 118.32C651.694 118.725 651.022 118.928 650.062 118.928ZM642.574 134.768H648.014V124.72H642.574V121.488H652.11V134.768H657.166V138H642.574V134.768ZM668.225 138.384C666.966 138.384 665.836 138.181 664.833 137.776C663.852 137.371 663.009 136.795 662.305 136.048C661.622 135.301 661.089 134.395 660.705 133.328C660.342 132.261 660.161 131.067 660.161 129.744C660.161 128.421 660.342 127.227 660.705 126.16C661.089 125.093 661.622 124.187 662.305 123.44C663.009 122.693 663.852 122.117 664.833 121.712C665.836 121.307 666.966 121.104 668.225 121.104C669.462 121.104 670.582 121.307 671.585 121.712C672.588 122.117 673.43 122.693 674.113 123.44C674.817 124.187 675.35 125.093 675.713 126.16C676.097 127.227 676.289 128.421 676.289 129.744C676.289 131.067 676.097 132.261 675.713 133.328C675.35 134.395 674.817 135.301 674.113 136.048C673.43 136.795 672.588 137.371 671.585 137.776C670.582 138.181 669.462 138.384 668.225 138.384ZM668.225 135.248C669.398 135.248 670.326 134.896 671.009 134.192C671.692 133.467 672.033 132.411 672.033 131.024V128.464C672.033 127.077 671.692 126.032 671.009 125.328C670.326 124.603 669.398 124.24 668.225 124.24C667.052 124.24 666.124 124.603 665.441 125.328C664.758 126.032 664.417 127.077 664.417 128.464V131.024C664.417 132.411 664.758 133.467 665.441 134.192C666.124 134.896 667.052 135.248 668.225 135.248ZM687.349 138.384C685.535 138.384 683.967 138.107 682.645 137.552C681.322 136.976 680.287 136.208 679.541 135.248L681.941 133.072C682.623 133.819 683.402 134.395 684.277 134.8C685.173 135.205 686.207 135.408 687.381 135.408C688.405 135.408 689.226 135.237 689.845 134.896C690.463 134.555 690.773 134.032 690.773 133.328C690.773 132.731 690.559 132.325 690.133 132.112C689.727 131.899 689.183 131.739 688.501 131.632L685.845 131.216C685.162 131.109 684.49 130.96 683.829 130.768C683.189 130.555 682.613 130.267 682.101 129.904C681.61 129.541 681.215 129.083 680.917 128.528C680.618 127.952 680.469 127.259 680.469 126.448C680.469 124.72 681.109 123.397 682.389 122.48C683.69 121.563 685.471 121.104 687.733 121.104C689.333 121.104 690.687 121.328 691.797 121.776C692.927 122.224 693.855 122.853 694.581 123.664L692.437 126.032C691.967 125.52 691.338 125.072 690.549 124.688C689.781 124.283 688.799 124.08 687.605 124.08C685.514 124.08 684.469 124.731 684.469 126.032C684.469 126.629 684.682 127.045 685.109 127.28C685.535 127.493 686.09 127.653 686.773 127.76L689.397 128.176C690.101 128.283 690.773 128.443 691.413 128.656C692.074 128.848 692.65 129.125 693.141 129.488C693.653 129.851 694.058 130.309 694.357 130.864C694.655 131.419 694.805 132.101 694.805 132.912C694.805 134.619 694.143 135.963 692.821 136.944C691.519 137.904 689.695 138.384 687.349 138.384ZM712.68 138C711.677 138 710.899 137.755 710.344 137.264C709.811 136.752 709.491 136.048 709.384 135.152H709.224C708.925 136.176 708.339 136.976 707.464 137.552C706.589 138.107 705.512 138.384 704.232 138.384C702.568 138.384 701.245 137.947 700.264 137.072C699.283 136.197 698.792 134.981 698.792 133.424C698.792 130.096 701.235 128.432 706.12 128.432H709.032V127.344C709.032 126.299 708.776 125.509 708.264 124.976C707.752 124.443 706.92 124.176 705.768 124.176C704.723 124.176 703.88 124.379 703.24 124.784C702.6 125.189 702.056 125.712 701.608 126.352L699.272 124.368C699.784 123.451 700.605 122.683 701.736 122.064C702.888 121.424 704.371 121.104 706.184 121.104C708.36 121.104 710.056 121.616 711.272 122.64C712.509 123.643 713.128 125.147 713.128 127.152V134.928H715.08V138H712.68ZM705.608 135.568C706.589 135.568 707.4 135.344 708.04 134.896C708.701 134.427 709.032 133.797 709.032 133.008V130.8H706.216C703.976 130.8 702.856 131.504 702.856 132.912V133.552C702.856 134.213 703.101 134.715 703.592 135.056C704.083 135.397 704.755 135.568 705.608 135.568ZM720.604 124.304V114.32H724.316V124.304H720.604ZM727.292 124.304V114.32H731.004V124.304H727.292Z" fill="#F5A476"/>
<path d="M34.6625 46.4084V43.8404H39.2705V31.9364H39.0545L35.4065 36.2564L33.4385 34.6004L37.5905 29.6564H42.4145V43.8404H46.2065V46.4084H34.6625Z" fill="white"/>
<path d="M45.6785 87.8873H33.8705V84.9593L39.2465 80.3753C40.1425 79.6073 40.8065 78.9113 41.2385 78.2873C41.6705 77.6473 41.8865 76.9673 41.8865 76.2473V76.0073C41.8865 75.2073 41.6625 74.5993 41.2145 74.1833C40.7665 73.7673 40.1425 73.5593 39.3425 73.5593C38.4625 73.5593 37.7905 73.7993 37.3265 74.2793C36.8625 74.7593 36.5265 75.3513 36.3185 76.0553L33.5825 75.0233C33.7585 74.4793 34.0065 73.9593 34.3265 73.4633C34.6625 72.9513 35.0705 72.5033 35.5505 72.1193C36.0465 71.7353 36.6305 71.4313 37.3025 71.2073C37.9745 70.9673 38.7425 70.8473 39.6065 70.8473C40.5025 70.8473 41.2945 70.9753 41.9825 71.2313C42.6865 71.4713 43.2785 71.8153 43.7585 72.2633C44.2385 72.6953 44.5985 73.2153 44.8385 73.8233C45.0945 74.4313 45.2225 75.0953 45.2225 75.8153C45.2225 76.5033 45.1105 77.1353 44.8865 77.7113C44.6785 78.2873 44.3825 78.8393 43.9985 79.3673C43.6145 79.8793 43.1585 80.3753 42.6305 80.8553C42.1185 81.3353 41.5585 81.8153 40.9505 82.2953L37.3025 85.2473H45.6785V87.8873Z" fill="white"/>
<path d="M39.0065 123.396C40.0145 123.396 40.7505 123.196 41.2145 122.796C41.6945 122.396 41.9345 121.892 41.9345 121.284V121.116C41.9345 120.428 41.7025 119.892 41.2385 119.508C40.7905 119.124 40.1665 118.932 39.3665 118.932C38.5985 118.932 37.9265 119.108 37.3505 119.46C36.7745 119.812 36.2785 120.308 35.8625 120.948L33.8225 119.124C34.1105 118.74 34.4305 118.38 34.7825 118.044C35.1505 117.692 35.5585 117.396 36.0065 117.156C36.4705 116.9 36.9825 116.7 37.5425 116.556C38.1025 116.412 38.7425 116.34 39.4625 116.34C40.3105 116.34 41.0865 116.444 41.7905 116.652C42.5105 116.844 43.1185 117.132 43.6145 117.516C44.1265 117.9 44.5185 118.364 44.7905 118.908C45.0785 119.436 45.2225 120.036 45.2225 120.708C45.2225 121.236 45.1345 121.716 44.9585 122.148C44.7825 122.58 44.5425 122.956 44.2385 123.276C43.9505 123.596 43.6065 123.86 43.2065 124.068C42.8225 124.276 42.4065 124.428 41.9585 124.524V124.644C42.4545 124.74 42.9185 124.9 43.3505 125.124C43.7825 125.332 44.1585 125.604 44.4785 125.94C44.7985 126.276 45.0545 126.684 45.2465 127.164C45.4385 127.628 45.5345 128.156 45.5345 128.748C45.5345 129.484 45.3825 130.156 45.0785 130.764C44.7745 131.372 44.3425 131.892 43.7825 132.324C43.2385 132.756 42.5745 133.092 41.7905 133.332C41.0225 133.556 40.1585 133.668 39.1985 133.668C38.3985 133.668 37.6865 133.58 37.0625 133.404C36.4385 133.244 35.8865 133.02 35.4065 132.732C34.9265 132.444 34.5105 132.116 34.1585 131.748C33.8065 131.364 33.4945 130.972 33.2225 130.572L35.5505 128.772C35.9505 129.444 36.4225 129.996 36.9665 130.428C37.5265 130.86 38.2865 131.076 39.2465 131.076C40.2065 131.076 40.9425 130.86 41.4545 130.428C41.9825 129.98 42.2465 129.364 42.2465 128.58V128.388C42.2465 127.62 41.9665 127.036 41.4065 126.636C40.8465 126.22 40.0545 126.012 39.0305 126.012H37.3505V123.396H39.0065Z" fill="white"/>
<path d="M42.2404 174.859V171.619H34.4884V168.931L41.3284 158.107H45.2404V169.171H47.4964V171.619H45.2404V174.859H42.2404ZM37.0564 169.171H42.2404V161.179H42.0484L37.0564 169.171Z" fill="white"/>
<path d="M46.432 201.984H38.752L38.344 207.6H38.536C38.728 207.248 38.936 206.928 39.16 206.64C39.384 206.336 39.64 206.08 39.928 205.872C40.232 205.664 40.568 205.504 40.936 205.392C41.32 205.28 41.76 205.224 42.256 205.224C42.96 205.224 43.624 205.344 44.248 205.584C44.872 205.824 45.416 206.168 45.88 206.616C46.344 207.064 46.704 207.616 46.96 208.272C47.232 208.928 47.368 209.672 47.368 210.504C47.368 211.336 47.224 212.104 46.936 212.808C46.664 213.512 46.256 214.128 45.712 214.656C45.184 215.168 44.528 215.568 43.744 215.856C42.976 216.144 42.088 216.288 41.08 216.288C40.296 216.288 39.592 216.2 38.968 216.024C38.36 215.864 37.824 215.64 37.36 215.352C36.896 215.064 36.488 214.736 36.136 214.368C35.784 213.984 35.48 213.592 35.224 213.192L37.504 211.392C37.696 211.712 37.904 212.016 38.128 212.304C38.368 212.576 38.632 212.816 38.92 213.024C39.208 213.232 39.528 213.4 39.88 213.528C40.248 213.64 40.664 213.696 41.128 213.696C42.088 213.696 42.816 213.44 43.312 212.928C43.824 212.4 44.08 211.68 44.08 210.768V210.576C44.08 209.696 43.824 209.008 43.312 208.512C42.8 208.016 42.08 207.768 41.152 207.768C40.448 207.768 39.872 207.904 39.424 208.176C38.992 208.432 38.64 208.712 38.368 209.016L35.8 208.656L36.424 199.248H46.432V201.984Z" fill="white"/>
</svg>
