<svg width="1477" height="192" viewBox="0 0 1477 192" fill="none" xmlns="http://www.w3.org/2000/svg">
<path d="M0 5C0 2.23857 2.23858 0 5 0H1462C1470.28 0 1477 6.71573 1477 15V166C1477 179.807 1465.81 191 1452 191H35C15.67 191 0 175.33 0 156V5Z" fill="#373538"/>
<path d="M92.536 54.384C90.7227 54.384 89.1547 54.1067 87.832 53.552C86.5093 52.976 85.4747 52.208 84.728 51.248L87.128 49.072C87.8107 49.8187 88.5893 50.3947 89.464 50.8C90.36 51.2053 91.3947 51.408 92.568 51.408C93.592 51.408 94.4133 51.2373 95.032 50.896C95.6507 50.5547 95.96 50.032 95.96 49.328C95.96 48.7307 95.7467 48.3253 95.32 48.112C94.9147 47.8987 94.3707 47.7387 93.688 47.632L91.032 47.216C90.3493 47.1093 89.6773 46.96 89.016 46.768C88.376 46.5547 87.8 46.2667 87.288 45.904C86.7973 45.5413 86.4027 45.0827 86.104 44.528C85.8053 43.952 85.656 43.2587 85.656 42.448C85.656 40.72 86.296 39.3973 87.576 38.48C88.8773 37.5627 90.6587 37.104 92.92 37.104C94.52 37.104 95.8747 37.328 96.984 37.776C98.1147 38.224 99.0427 38.8533 99.768 39.664L97.624 42.032C97.1547 41.52 96.5253 41.072 95.736 40.688C94.968 40.2827 93.9867 40.08 92.792 40.08C90.7013 40.08 89.656 40.7307 89.656 42.032C89.656 42.6293 89.8693 43.0453 90.296 43.28C90.7227 43.4933 91.2773 43.6533 91.96 43.76L94.584 44.176C95.288 44.2827 95.96 44.4427 96.6 44.656C97.2613 44.848 97.8373 45.1253 98.328 45.488C98.84 45.8507 99.2453 46.3093 99.544 46.864C99.8427 47.4187 99.992 48.1013 99.992 48.912C99.992 50.6187 99.3307 51.9627 98.008 52.944C96.7067 53.904 94.8827 54.384 92.536 54.384ZM112.172 54.384C110.849 54.384 109.676 54.1813 108.652 53.776C107.628 53.3707 106.764 52.7947 106.06 52.048C105.377 51.3013 104.854 50.4053 104.492 49.36C104.129 48.2933 103.948 47.0987 103.948 45.776C103.948 44.432 104.129 43.2267 104.492 42.16C104.876 41.0933 105.409 40.1867 106.092 39.44C106.774 38.6933 107.596 38.1173 108.556 37.712C109.537 37.3067 110.636 37.104 111.852 37.104C113.046 37.104 114.124 37.3067 115.084 37.712C116.044 38.096 116.854 38.6507 117.516 39.376C118.198 40.1013 118.721 40.976 119.083 42C119.446 43.024 119.628 44.1547 119.628 45.392V46.736H108.044V47.152C108.044 48.3467 108.417 49.3173 109.164 50.064C109.91 50.7893 110.956 51.152 112.3 51.152C113.324 51.152 114.198 50.9493 114.924 50.544C115.67 50.1173 116.289 49.5627 116.78 48.88L119.116 51.216C118.518 52.0907 117.644 52.8373 116.492 53.456C115.361 54.0747 113.921 54.384 112.172 54.384ZM111.884 40.112C110.732 40.112 109.804 40.4747 109.1 41.2C108.396 41.9253 108.044 42.8853 108.044 44.08V44.304H115.532V44.016C115.532 42.8213 115.201 41.872 114.54 41.168C113.9 40.464 113.014 40.112 111.884 40.112ZM132.095 54C130.516 54 129.354 53.584 128.607 52.752C127.86 51.92 127.487 50.8427 127.487 49.52V40.72H122.687V37.488H125.951C126.612 37.488 127.082 37.36 127.359 37.104C127.636 36.8267 127.775 36.3467 127.775 35.664V31.664H131.583V37.488H138.303V40.72H131.583V50.768H138.303V54H132.095ZM152.243 35.12V54H148.083V35.12H141.363V31.664H158.963V35.12H152.243ZM170.374 34.928C169.414 34.928 168.731 34.7253 168.326 34.32C167.942 33.9147 167.75 33.424 167.75 32.848V32.08C167.75 31.504 167.942 31.0133 168.326 30.608C168.731 30.2027 169.414 30 170.374 30C171.334 30 172.006 30.2027 172.39 30.608C172.795 31.0133 172.998 31.504 172.998 32.08V32.848C172.998 33.424 172.795 33.9147 172.39 34.32C172.006 34.7253 171.334 34.928 170.374 34.928ZM162.886 50.768H168.326V40.72H162.886V37.488H172.422V50.768H177.478V54H162.886V50.768ZM180.122 54V37.488H183.514V39.76H183.706C183.962 39.0347 184.324 38.416 184.794 37.904C185.284 37.3707 185.967 37.104 186.842 37.104C187.674 37.104 188.335 37.3493 188.826 37.84C189.316 38.3093 189.636 38.9813 189.786 39.856H189.946C190.223 39.1093 190.628 38.4693 191.162 37.936C191.716 37.3813 192.495 37.104 193.498 37.104C194.714 37.104 195.588 37.5413 196.122 38.416C196.655 39.2907 196.922 40.5813 196.922 42.288V54H193.562V42.768C193.562 41.808 193.423 41.136 193.146 40.752C192.89 40.368 192.495 40.176 191.962 40.176C191.471 40.176 191.055 40.336 190.714 40.656C190.394 40.976 190.234 41.4667 190.234 42.128V54H186.842V42.768C186.842 41.808 186.714 41.136 186.458 40.752C186.202 40.368 185.807 40.176 185.274 40.176C184.762 40.176 184.335 40.336 183.994 40.656C183.674 40.976 183.514 41.4667 183.514 42.128V54H180.122ZM208.109 54.384C206.786 54.384 205.613 54.1813 204.589 53.776C203.565 53.3707 202.701 52.7947 201.997 52.048C201.314 51.3013 200.792 50.4053 200.429 49.36C200.066 48.2933 199.885 47.0987 199.885 45.776C199.885 44.432 200.066 43.2267 200.429 42.16C200.813 41.0933 201.346 40.1867 202.029 39.44C202.712 38.6933 203.533 38.1173 204.493 37.712C205.474 37.3067 206.573 37.104 207.789 37.104C208.984 37.104 210.061 37.3067 211.021 37.712C211.981 38.096 212.792 38.6507 213.453 39.376C214.136 40.1013 214.658 40.976 215.021 42C215.384 43.024 215.565 44.1547 215.565 45.392V46.736H203.981V47.152C203.981 48.3467 204.354 49.3173 205.101 50.064C205.848 50.7893 206.893 51.152 208.237 51.152C209.261 51.152 210.136 50.9493 210.861 50.544C211.608 50.1173 212.226 49.5627 212.717 48.88L215.053 51.216C214.456 52.0907 213.581 52.8373 212.429 53.456C211.298 54.0747 209.858 54.384 208.109 54.384ZM207.821 40.112C206.669 40.112 205.741 40.4747 205.037 41.2C204.333 41.9253 203.981 42.8853 203.981 44.08V44.304H211.469V44.016C211.469 42.8213 211.138 41.872 210.477 41.168C209.837 40.464 208.952 40.112 207.821 40.112ZM226.913 54.384C225.654 54.384 224.523 54.1813 223.521 53.776C222.539 53.3707 221.697 52.7947 220.993 52.048C220.31 51.3013 219.777 50.3947 219.393 49.328C219.03 48.2613 218.849 47.0667 218.849 45.744C218.849 44.4213 219.03 43.2267 219.393 42.16C219.777 41.0933 220.31 40.1867 220.993 39.44C221.697 38.6933 222.539 38.1173 223.521 37.712C224.523 37.3067 225.654 37.104 226.913 37.104C228.15 37.104 229.27 37.3067 230.273 37.712C231.275 38.1173 232.118 38.6933 232.801 39.44C233.505 40.1867 234.038 41.0933 234.401 42.16C234.785 43.2267 234.977 44.4213 234.977 45.744C234.977 47.0667 234.785 48.2613 234.401 49.328C234.038 50.3947 233.505 51.3013 232.801 52.048C232.118 52.7947 231.275 53.3707 230.273 53.776C229.27 54.1813 228.15 54.384 226.913 54.384ZM226.913 51.248C228.086 51.248 229.014 50.896 229.697 50.192C230.379 49.4667 230.721 48.4107 230.721 47.024V44.464C230.721 43.0773 230.379 42.032 229.697 41.328C229.014 40.6027 228.086 40.24 226.913 40.24C225.739 40.24 224.811 40.6027 224.129 41.328C223.446 42.032 223.105 43.0773 223.105 44.464V47.024C223.105 48.4107 223.446 49.4667 224.129 50.192C224.811 50.896 225.739 51.248 226.913 51.248ZM249.204 51.088H249.044C248.681 51.984 248.116 52.7627 247.348 53.424C246.601 54.064 245.556 54.384 244.212 54.384C242.591 54.384 241.268 53.8507 240.244 52.784C239.241 51.696 238.74 50.1493 238.74 48.144V37.488H242.836V47.568C242.836 49.9573 243.871 51.152 245.94 51.152C246.345 51.152 246.74 51.0987 247.124 50.992C247.529 50.8853 247.881 50.7253 248.18 50.512C248.5 50.2773 248.745 50 248.916 49.68C249.108 49.36 249.204 48.976 249.204 48.528V37.488H253.3V54H249.204V51.088ZM266.408 54C264.829 54 263.666 53.584 262.92 52.752C262.173 51.92 261.8 50.8427 261.8 49.52V40.72H257V37.488H260.264C260.925 37.488 261.394 37.36 261.672 37.104C261.949 36.8267 262.088 36.3467 262.088 35.664V31.664H265.896V37.488H272.616V40.72H265.896V50.768H272.616V54H266.408ZM277.179 92.768H282.427V75.552H277.179V72.32H286.523V92.768H291.803V96H277.179V92.768ZM303.663 96.384C302.404 96.384 301.273 96.1813 300.271 95.776C299.289 95.3707 298.447 94.7947 297.743 94.048C297.06 93.3013 296.527 92.3947 296.143 91.328C295.78 90.2613 295.599 89.0667 295.599 87.744C295.599 86.4213 295.78 85.2267 296.143 84.16C296.527 83.0933 297.06 82.1867 297.743 81.44C298.447 80.6933 299.289 80.1173 300.271 79.712C301.273 79.3067 302.404 79.104 303.663 79.104C304.9 79.104 306.02 79.3067 307.023 79.712C308.025 80.1173 308.868 80.6933 309.551 81.44C310.255 82.1867 310.788 83.0933 311.151 84.16C311.535 85.2267 311.727 86.4213 311.727 87.744C311.727 89.0667 311.535 90.2613 311.151 91.328C310.788 92.3947 310.255 93.3013 309.551 94.048C308.868 94.7947 308.025 95.3707 307.023 95.776C306.02 96.1813 304.9 96.384 303.663 96.384ZM303.663 93.248C304.836 93.248 305.764 92.896 306.447 92.192C307.129 91.4667 307.471 90.4107 307.471 89.024V86.464C307.471 85.0773 307.129 84.032 306.447 83.328C305.764 82.6027 304.836 82.24 303.663 82.24C302.489 82.24 301.561 82.6027 300.879 83.328C300.196 84.032 299.855 85.0773 299.855 86.464V89.024C299.855 90.4107 300.196 91.4667 300.879 92.192C301.561 92.896 302.489 93.248 303.663 93.248ZM331.682 97.728C331.682 99.456 330.957 100.725 329.506 101.536C328.077 102.368 325.837 102.784 322.786 102.784C321.293 102.784 320.045 102.688 319.042 102.496C318.039 102.325 317.229 102.069 316.61 101.728C316.013 101.387 315.586 100.971 315.33 100.48C315.074 100.011 314.946 99.4773 314.946 98.88C314.946 97.9627 315.213 97.2587 315.746 96.768C316.279 96.2773 317.026 95.9147 317.986 95.68V95.424C317.346 95.2107 316.834 94.912 316.45 94.528C316.087 94.144 315.906 93.6107 315.906 92.928C315.906 92.1173 316.173 91.5093 316.706 91.104C317.261 90.6987 317.986 90.3893 318.882 90.176V90.016C317.901 89.5467 317.133 88.8853 316.578 88.032C316.023 87.1787 315.746 86.144 315.746 84.928C315.746 84.0107 315.906 83.2 316.226 82.496C316.567 81.7707 317.037 81.1627 317.634 80.672C318.253 80.16 318.989 79.776 319.842 79.52C320.695 79.2427 321.645 79.104 322.69 79.104C323.799 79.104 324.802 79.2533 325.698 79.552V78.848C325.698 78.208 325.901 77.6747 326.306 77.248C326.733 76.8213 327.319 76.608 328.066 76.608H331.042V79.68H327.138V80.224C327.949 80.7147 328.567 81.3547 328.994 82.144C329.442 82.912 329.666 83.84 329.666 84.928C329.666 85.8453 329.495 86.6667 329.154 87.392C328.834 88.1173 328.365 88.7253 327.746 89.216C327.149 89.7067 326.413 90.0907 325.538 90.368C324.685 90.624 323.735 90.752 322.69 90.752C322.263 90.752 321.847 90.7413 321.442 90.72C321.058 90.6773 320.685 90.6027 320.322 90.496C320.023 90.6027 319.735 90.7733 319.458 91.008C319.181 91.2427 319.042 91.552 319.042 91.936C319.042 92.448 319.287 92.768 319.778 92.896C320.269 93.0027 320.855 93.056 321.538 93.056H325.282C326.434 93.056 327.415 93.1733 328.226 93.408C329.037 93.6213 329.698 93.9413 330.21 94.368C330.722 94.7733 331.095 95.264 331.33 95.84C331.565 96.416 331.682 97.0453 331.682 97.728ZM327.842 98.016C327.842 97.5253 327.639 97.1307 327.234 96.832C326.85 96.5547 326.125 96.416 325.058 96.416H319.362C318.722 96.7787 318.402 97.312 318.402 98.016C318.402 98.592 318.637 99.072 319.106 99.456C319.597 99.84 320.418 100.032 321.57 100.032H324.226C326.637 100.032 327.842 99.36 327.842 98.016ZM322.69 88.064C323.735 88.064 324.503 87.8187 324.994 87.328C325.485 86.816 325.73 86.1547 325.73 85.344V84.512C325.73 83.7013 325.485 83.0507 324.994 82.56C324.503 82.048 323.735 81.792 322.69 81.792C321.666 81.792 320.909 82.048 320.418 82.56C319.927 83.0507 319.682 83.7013 319.682 84.512V85.344C319.682 86.1547 319.927 86.816 320.418 87.328C320.909 87.8187 321.666 88.064 322.69 88.064Z" fill="#F4E498"/>
<path d="M280.731 44.048C280.731 42.4907 280.902 40.9973 281.243 39.568C281.606 38.1173 282.086 36.7733 282.683 35.536C283.302 34.2987 284.016 33.1893 284.827 32.208C285.638 31.2053 286.491 30.3627 287.387 29.68H291.483C290.523 30.3627 289.606 31.1627 288.731 32.08C287.856 32.9973 287.088 34.0107 286.427 35.12C285.766 36.208 285.232 37.3813 284.827 38.64C284.443 39.8773 284.251 41.168 284.251 42.512V45.584C284.251 46.928 284.443 48.2293 284.827 49.488C285.232 50.7253 285.766 51.8987 286.427 53.008C287.088 54.096 287.856 55.0987 288.731 56.016C289.606 56.9333 290.523 57.7333 291.483 58.416H287.387C286.491 57.7547 285.638 56.9227 284.827 55.92C284.016 54.9173 283.302 53.7973 282.683 52.56C282.086 51.3227 281.606 49.9893 281.243 48.56C280.902 47.1093 280.731 45.6053 280.731 44.048ZM299.919 44.048C299.919 42.4907 300.089 40.9973 300.431 39.568C300.793 38.1173 301.273 36.7733 301.871 35.536C302.489 34.2987 303.204 33.1893 304.015 32.208C304.825 31.2053 305.679 30.3627 306.575 29.68H310.671C309.711 30.3627 308.793 31.1627 307.919 32.08C307.044 32.9973 306.276 34.0107 305.615 35.12C304.953 36.208 304.42 37.3813 304.015 38.64C303.631 39.8773 303.439 41.168 303.439 42.512V45.584C303.439 46.928 303.631 48.2293 304.015 49.488C304.42 50.7253 304.953 51.8987 305.615 53.008C306.276 54.096 307.044 55.0987 307.919 56.016C308.793 56.9333 309.711 57.7333 310.671 58.416H306.575C305.679 57.7547 304.825 56.9227 304.015 55.92C303.204 54.9173 302.489 53.7973 301.871 52.56C301.273 51.3227 300.793 49.9893 300.431 48.56C300.089 47.1093 299.919 45.6053 299.919 44.048ZM326.594 44.048C326.594 45.6053 326.413 47.1093 326.05 48.56C325.709 49.9893 325.229 51.3227 324.61 52.56C324.013 53.7973 323.309 54.9173 322.498 55.92C321.687 56.9227 320.834 57.7547 319.938 58.416H315.842C316.802 57.7333 317.719 56.9333 318.594 56.016C319.469 55.0987 320.237 54.096 320.898 53.008C321.559 51.8987 322.082 50.7253 322.466 49.488C322.871 48.2293 323.074 46.928 323.074 45.584V42.512C323.074 41.168 322.871 39.8773 322.466 38.64C322.082 37.3813 321.559 36.208 320.898 35.12C320.237 34.0107 319.469 32.9973 318.594 32.08C317.719 31.1627 316.802 30.3627 315.842 29.68H319.938C320.834 30.3627 321.687 31.2053 322.498 32.208C323.309 33.1893 324.013 34.2987 324.61 35.536C325.229 36.7733 325.709 38.1173 326.05 39.568C326.413 40.9973 326.594 42.4907 326.594 44.048ZM419.652 58.416C418.372 58.416 417.444 58.1173 416.868 57.52C416.292 56.9227 416.004 56.1547 416.004 55.216V53.616C416.004 53.0613 416.057 52.5813 416.164 52.176C416.292 51.7493 416.441 51.376 416.612 51.056C416.782 50.736 416.974 50.448 417.188 50.192C417.401 49.936 417.604 49.6907 417.796 49.456C418.158 49.0293 418.404 48.6667 418.532 48.368C418.681 48.048 418.756 47.7173 418.756 47.376C418.756 46.096 417.518 45.456 415.044 45.456H412.26V42.64H415.044C417.518 42.64 418.756 42 418.756 40.72C418.756 40.3787 418.681 40.0587 418.532 39.76C418.404 39.44 418.158 39.0667 417.796 38.64C417.604 38.4053 417.401 38.16 417.188 37.904C416.974 37.648 416.782 37.36 416.612 37.04C416.441 36.72 416.292 36.3573 416.164 35.952C416.057 35.5253 416.004 35.0347 416.004 34.48V32.88C416.004 31.9413 416.292 31.1733 416.868 30.576C417.444 29.9787 418.372 29.68 419.652 29.68H425.316V32.496H419.332V34.288C419.332 35.12 419.46 35.76 419.716 36.208C419.972 36.656 420.27 37.0933 420.612 37.52C420.974 37.968 421.316 38.448 421.636 38.96C421.956 39.472 422.116 40.0693 422.116 40.752C422.116 41.648 421.806 42.3733 421.188 42.928C420.569 43.4613 419.652 43.8027 418.436 43.952V44.144C419.652 44.2933 420.569 44.6453 421.188 45.2C421.806 45.7333 422.116 46.448 422.116 47.344C422.116 48.0267 421.956 48.624 421.636 49.136C421.316 49.648 420.974 50.128 420.612 50.576C420.27 51.0027 419.972 51.44 419.716 51.888C419.46 52.336 419.332 52.976 419.332 53.808V55.6H425.316V58.416H419.652ZM1132.47 86.048C1132.47 87.6053 1132.29 89.1093 1131.93 90.56C1131.58 91.9893 1131.1 93.3227 1130.49 94.56C1129.89 95.7973 1129.18 96.9173 1128.37 97.92C1127.56 98.9227 1126.71 99.7547 1125.81 100.416H1121.72C1122.68 99.7333 1123.59 98.9333 1124.47 98.016C1125.34 97.0987 1126.11 96.096 1126.77 95.008C1127.43 93.8987 1127.96 92.7253 1128.34 91.488C1128.75 90.2293 1128.95 88.928 1128.95 87.584V84.512C1128.95 83.168 1128.75 81.8773 1128.34 80.64C1127.96 79.3813 1127.43 78.208 1126.77 77.12C1126.11 76.0107 1125.34 74.9973 1124.47 74.08C1123.59 73.1627 1122.68 72.3627 1121.72 71.68H1125.81C1126.71 72.3627 1127.56 73.2053 1128.37 74.208C1129.18 75.1893 1129.89 76.2987 1130.49 77.536C1131.1 78.7733 1131.58 80.1173 1131.93 81.568C1132.29 82.9973 1132.47 84.4907 1132.47 86.048ZM1145.86 90.784H1151.37L1147.18 100.736H1144.07L1145.86 90.784ZM1147.91 84.992C1146.8 84.992 1146.01 84.7573 1145.54 84.288C1145.08 83.8187 1144.84 83.2427 1144.84 82.56V81.6C1144.84 80.9173 1145.08 80.3413 1145.54 79.872C1146.01 79.4027 1146.8 79.168 1147.91 79.168C1149.02 79.168 1149.81 79.4027 1150.28 79.872C1150.75 80.3413 1150.98 80.9173 1150.98 81.6V82.56C1150.98 83.2427 1150.75 83.8187 1150.28 84.288C1149.81 84.7573 1149.02 84.992 1147.91 84.992ZM130.111 113.68C131.391 113.68 132.319 113.979 132.895 114.576C133.471 115.173 133.759 115.941 133.759 116.88V118.48C133.759 119.035 133.695 119.525 133.567 119.952C133.46 120.357 133.322 120.72 133.151 121.04C132.98 121.36 132.788 121.648 132.575 121.904C132.362 122.16 132.159 122.405 131.967 122.64C131.604 123.067 131.348 123.44 131.199 123.76C131.071 124.059 131.007 124.379 131.007 124.72C131.007 126 132.244 126.64 134.719 126.64H137.503V129.456H134.719C132.244 129.456 131.007 130.096 131.007 131.376C131.007 131.717 131.071 132.048 131.199 132.368C131.348 132.667 131.604 133.029 131.967 133.456C132.159 133.691 132.362 133.936 132.575 134.192C132.788 134.448 132.98 134.736 133.151 135.056C133.322 135.376 133.46 135.749 133.567 136.176C133.695 136.581 133.759 137.061 133.759 137.616V139.216C133.759 140.155 133.471 140.923 132.895 141.52C132.319 142.117 131.391 142.416 130.111 142.416H124.447V139.6H130.431V137.808C130.431 136.976 130.303 136.336 130.047 135.888C129.791 135.44 129.492 135.003 129.151 134.576C128.788 134.128 128.447 133.648 128.127 133.136C127.807 132.624 127.647 132.027 127.647 131.344C127.647 130.448 127.956 129.733 128.575 129.2C129.194 128.645 130.111 128.293 131.327 128.144V127.952C130.111 127.803 129.194 127.461 128.575 126.928C127.956 126.373 127.647 125.648 127.647 124.752C127.647 124.069 127.807 123.472 128.127 122.96C128.447 122.448 128.788 121.968 129.151 121.52C129.492 121.093 129.791 120.656 130.047 120.208C130.303 119.76 130.431 119.12 130.431 118.288V116.496H124.447V113.68H130.111ZM148.115 132.784H153.619L149.427 142.736H146.323L148.115 132.784ZM269.032 128.048C269.032 129.605 268.85 131.109 268.488 132.56C268.146 133.989 267.666 135.323 267.048 136.56C266.45 137.797 265.746 138.917 264.936 139.92C264.125 140.923 263.272 141.755 262.376 142.416H258.28C259.24 141.733 260.157 140.933 261.032 140.016C261.906 139.099 262.674 138.096 263.336 137.008C263.997 135.899 264.52 134.725 264.904 133.488C265.309 132.229 265.512 130.928 265.512 129.584V126.512C265.512 125.168 265.309 123.877 264.904 122.64C264.52 121.381 263.997 120.208 263.336 119.12C262.674 118.011 261.906 116.997 261.032 116.08C260.157 115.163 259.24 114.363 258.28 113.68H262.376C263.272 114.363 264.125 115.205 264.936 116.208C265.746 117.189 266.45 118.299 267.048 119.536C267.666 120.773 268.146 122.117 268.488 123.568C268.85 124.997 269.032 126.491 269.032 128.048ZM282.427 132.784H287.931L283.739 142.736H280.635L282.427 132.784ZM284.475 126.992C283.366 126.992 282.576 126.757 282.107 126.288C281.638 125.819 281.403 125.243 281.403 124.56V123.6C281.403 122.917 281.638 122.341 282.107 121.872C282.576 121.403 283.366 121.168 284.475 121.168C285.584 121.168 286.374 121.403 286.843 121.872C287.312 122.341 287.547 122.917 287.547 123.6V124.56C287.547 125.243 287.312 125.819 286.843 126.288C286.374 126.757 285.584 126.992 284.475 126.992Z" fill="white"/>
<path d="M353.609 42.352V39.056H368.841V42.352H353.609ZM353.609 49.424V46.128H368.841V49.424H353.609ZM373.533 49.808L383.581 44.368V44.112L373.533 38.672V34.768L387.293 42.32V46.16L373.533 53.712V49.808ZM265.288 96.352C264.178 96.352 263.389 96.1173 262.92 95.648C262.45 95.1787 262.216 94.6027 262.216 93.92V92.96C262.216 92.2773 262.45 91.7013 262.92 91.232C263.389 90.7627 264.178 90.528 265.288 90.528C266.397 90.528 267.186 90.7627 267.656 91.232C268.125 91.7013 268.36 92.2773 268.36 92.96V93.92C268.36 94.6027 268.125 95.1787 267.656 95.648C267.186 96.1173 266.397 96.352 265.288 96.352ZM338.294 86.048C338.294 84.4907 338.464 82.9973 338.806 81.568C339.168 80.1173 339.648 78.7733 340.246 77.536C340.864 76.2987 341.579 75.1893 342.39 74.208C343.2 73.2053 344.054 72.3627 344.95 71.68H349.046C348.086 72.3627 347.168 73.1627 346.294 74.08C345.419 74.9973 344.651 76.0107 343.99 77.12C343.328 78.208 342.795 79.3813 342.39 80.64C342.006 81.8773 341.814 83.168 341.814 84.512V87.584C341.814 88.928 342.006 90.2293 342.39 91.488C342.795 92.7253 343.328 93.8987 343.99 95.008C344.651 96.096 345.419 97.0987 346.294 98.016C347.168 98.9333 348.086 99.7333 349.046 100.416H344.95C344.054 99.7547 343.2 98.9227 342.39 97.92C341.579 96.9173 340.864 95.7973 340.246 94.56C339.648 93.3227 339.168 91.9893 338.806 90.56C338.464 89.1093 338.294 87.6053 338.294 86.048Z" fill="#438ADD"/>
<path d="M131.615 96.384C130.356 96.384 129.226 96.1813 128.223 95.776C127.22 95.3707 126.367 94.7947 125.663 94.048C124.98 93.3013 124.447 92.3947 124.063 91.328C123.7 90.2613 123.519 89.0667 123.519 87.744C123.519 86.4213 123.7 85.2267 124.063 84.16C124.447 83.0933 124.98 82.1867 125.663 81.44C126.367 80.6933 127.21 80.1173 128.191 79.712C129.194 79.3067 130.324 79.104 131.583 79.104C133.332 79.104 134.74 79.4667 135.807 80.192C136.874 80.9173 137.684 81.8773 138.239 83.072L135.071 84.8C134.772 84.096 134.346 83.5307 133.791 83.104C133.258 82.656 132.522 82.432 131.583 82.432C130.367 82.432 129.428 82.784 128.767 83.488C128.127 84.192 127.807 85.152 127.807 86.368V89.12C127.807 90.3147 128.127 91.2747 128.767 92C129.428 92.704 130.388 93.056 131.647 93.056C132.628 93.056 133.407 92.832 133.983 92.384C134.58 91.936 135.06 91.3387 135.423 90.592L138.495 92.416C137.94 93.5893 137.098 94.5493 135.967 95.296C134.858 96.0213 133.407 96.384 131.615 96.384ZM150.163 96.384C148.904 96.384 147.773 96.1813 146.771 95.776C145.789 95.3707 144.947 94.7947 144.243 94.048C143.56 93.3013 143.027 92.3947 142.643 91.328C142.28 90.2613 142.099 89.0667 142.099 87.744C142.099 86.4213 142.28 85.2267 142.643 84.16C143.027 83.0933 143.56 82.1867 144.243 81.44C144.947 80.6933 145.789 80.1173 146.771 79.712C147.773 79.3067 148.904 79.104 150.163 79.104C151.4 79.104 152.52 79.3067 153.523 79.712C154.525 80.1173 155.368 80.6933 156.051 81.44C156.755 82.1867 157.288 83.0933 157.651 84.16C158.035 85.2267 158.227 86.4213 158.227 87.744C158.227 89.0667 158.035 90.2613 157.651 91.328C157.288 92.3947 156.755 93.3013 156.051 94.048C155.368 94.7947 154.525 95.3707 153.523 95.776C152.52 96.1813 151.4 96.384 150.163 96.384ZM150.163 93.248C151.336 93.248 152.264 92.896 152.947 92.192C153.629 91.4667 153.971 90.4107 153.971 89.024V86.464C153.971 85.0773 153.629 84.032 152.947 83.328C152.264 82.6027 151.336 82.24 150.163 82.24C148.989 82.24 148.061 82.6027 147.379 83.328C146.696 84.032 146.355 85.0773 146.355 86.464V89.024C146.355 90.4107 146.696 91.4667 147.379 92.192C148.061 92.896 148.989 93.248 150.163 93.248ZM162.15 96V79.488H166.246V82.4H166.406C166.769 81.504 167.323 80.736 168.07 80.096C168.838 79.4347 169.894 79.104 171.238 79.104C172.859 79.104 174.171 79.648 175.174 80.736C176.198 81.8027 176.71 83.3387 176.71 85.344V96H172.614V85.92C172.614 83.5307 171.579 82.336 169.51 82.336C169.083 82.336 168.678 82.3893 168.294 82.496C167.91 82.6027 167.558 82.7733 167.238 83.008C166.939 83.2213 166.694 83.488 166.502 83.808C166.331 84.128 166.246 84.512 166.246 84.96V96H162.15ZM188.474 96.384C186.66 96.384 185.092 96.1067 183.77 95.552C182.447 94.976 181.412 94.208 180.666 93.248L183.066 91.072C183.748 91.8187 184.527 92.3947 185.402 92.8C186.298 93.2053 187.332 93.408 188.506 93.408C189.53 93.408 190.351 93.2373 190.97 92.896C191.588 92.5547 191.898 92.032 191.898 91.328C191.898 90.7307 191.684 90.3253 191.258 90.112C190.852 89.8987 190.308 89.7387 189.626 89.632L186.97 89.216C186.287 89.1093 185.615 88.96 184.954 88.768C184.314 88.5547 183.738 88.2667 183.226 87.904C182.735 87.5413 182.34 87.0827 182.042 86.528C181.743 85.952 181.594 85.2587 181.594 84.448C181.594 82.72 182.234 81.3973 183.514 80.48C184.815 79.5627 186.596 79.104 188.858 79.104C190.458 79.104 191.812 79.328 192.922 79.776C194.052 80.224 194.98 80.8533 195.706 81.664L193.562 84.032C193.092 83.52 192.463 83.072 191.674 82.688C190.906 82.2827 189.924 82.08 188.73 82.08C186.639 82.08 185.594 82.7307 185.594 84.032C185.594 84.6293 185.807 85.0453 186.234 85.28C186.66 85.4933 187.215 85.6533 187.898 85.76L190.522 86.176C191.226 86.2827 191.898 86.4427 192.538 86.656C193.199 86.848 193.775 87.1253 194.266 87.488C194.778 87.8507 195.183 88.3093 195.482 88.864C195.78 89.4187 195.93 90.1013 195.93 90.912C195.93 92.6187 195.268 93.9627 193.946 94.944C192.644 95.904 190.82 96.384 188.474 96.384ZM207.725 96.384C206.466 96.384 205.336 96.1813 204.333 95.776C203.352 95.3707 202.509 94.7947 201.805 94.048C201.122 93.3013 200.589 92.3947 200.205 91.328C199.842 90.2613 199.661 89.0667 199.661 87.744C199.661 86.4213 199.842 85.2267 200.205 84.16C200.589 83.0933 201.122 82.1867 201.805 81.44C202.509 80.6933 203.352 80.1173 204.333 79.712C205.336 79.3067 206.466 79.104 207.725 79.104C208.962 79.104 210.082 79.3067 211.085 79.712C212.088 80.1173 212.93 80.6933 213.613 81.44C214.317 82.1867 214.85 83.0933 215.213 84.16C215.597 85.2267 215.789 86.4213 215.789 87.744C215.789 89.0667 215.597 90.2613 215.213 91.328C214.85 92.3947 214.317 93.3013 213.613 94.048C212.93 94.7947 212.088 95.3707 211.085 95.776C210.082 96.1813 208.962 96.384 207.725 96.384ZM207.725 93.248C208.898 93.248 209.826 92.896 210.509 92.192C211.192 91.4667 211.533 90.4107 211.533 89.024V86.464C211.533 85.0773 211.192 84.032 210.509 83.328C209.826 82.6027 208.898 82.24 207.725 82.24C206.552 82.24 205.624 82.6027 204.941 83.328C204.258 84.032 203.917 85.0773 203.917 86.464V89.024C203.917 90.4107 204.258 91.4667 204.941 92.192C205.624 92.896 206.552 93.248 207.725 93.248ZM219.617 92.768H224.865V75.552H219.617V72.32H228.961V92.768H234.241V96H219.617V92.768ZM246.484 96.384C245.161 96.384 243.988 96.1813 242.964 95.776C241.94 95.3707 241.076 94.7947 240.372 94.048C239.689 93.3013 239.167 92.4053 238.804 91.36C238.441 90.2933 238.26 89.0987 238.26 87.776C238.26 86.432 238.441 85.2267 238.804 84.16C239.188 83.0933 239.721 82.1867 240.404 81.44C241.087 80.6933 241.908 80.1173 242.868 79.712C243.849 79.3067 244.948 79.104 246.164 79.104C247.359 79.104 248.436 79.3067 249.396 79.712C250.356 80.096 251.167 80.6507 251.828 81.376C252.511 82.1013 253.033 82.976 253.396 84C253.759 85.024 253.94 86.1547 253.94 87.392V88.736H242.356V89.152C242.356 90.3467 242.729 91.3173 243.476 92.064C244.223 92.7893 245.268 93.152 246.612 93.152C247.636 93.152 248.511 92.9493 249.236 92.544C249.983 92.1173 250.601 91.5627 251.092 90.88L253.428 93.216C252.831 94.0907 251.956 94.8373 250.804 95.456C249.673 96.0747 248.233 96.384 246.484 96.384ZM246.196 82.112C245.044 82.112 244.116 82.4747 243.412 83.2C242.708 83.9253 242.356 84.8853 242.356 86.08V86.304H249.844V86.016C249.844 84.8213 249.513 83.872 248.852 83.168C248.212 82.464 247.327 82.112 246.196 82.112Z" fill="#B2D1FF"/>
<path d="M356.041 82.304V72.32H359.753V82.304H356.041ZM362.729 82.304V72.32H366.441V82.304H362.729ZM373.469 96V73.664H387.581V77.12H377.661V82.944H387.229V86.4H377.661V92.544H387.581V96H373.469ZM399.536 96.384C397.723 96.384 396.155 96.1067 394.832 95.552C393.509 94.976 392.475 94.208 391.728 93.248L394.128 91.072C394.811 91.8187 395.589 92.3947 396.464 92.8C397.36 93.2053 398.395 93.408 399.568 93.408C400.592 93.408 401.413 93.2373 402.032 92.896C402.651 92.5547 402.96 92.032 402.96 91.328C402.96 90.7307 402.747 90.3253 402.32 90.112C401.915 89.8987 401.371 89.7387 400.688 89.632L398.032 89.216C397.349 89.1093 396.677 88.96 396.016 88.768C395.376 88.5547 394.8 88.2667 394.288 87.904C393.797 87.5413 393.403 87.0827 393.104 86.528C392.805 85.952 392.656 85.2587 392.656 84.448C392.656 82.72 393.296 81.3973 394.576 80.48C395.877 79.5627 397.659 79.104 399.92 79.104C401.52 79.104 402.875 79.328 403.984 79.776C405.115 80.224 406.043 80.8533 406.768 81.664L404.624 84.032C404.155 83.52 403.525 83.072 402.736 82.688C401.968 82.2827 400.987 82.08 399.792 82.08C397.701 82.08 396.656 82.7307 396.656 84.032C396.656 84.6293 396.869 85.0453 397.296 85.28C397.723 85.4933 398.277 85.6533 398.96 85.76L401.584 86.176C402.288 86.2827 402.96 86.4427 403.6 86.656C404.261 86.848 404.837 87.1253 405.328 87.488C405.84 87.8507 406.245 88.3093 406.544 88.864C406.843 89.4187 406.992 90.1013 406.992 90.912C406.992 92.6187 406.331 93.9627 405.008 94.944C403.707 95.904 401.883 96.384 399.536 96.384ZM418.724 96.384C416.91 96.384 415.342 96.1067 414.02 95.552C412.697 94.976 411.662 94.208 410.916 93.248L413.316 91.072C413.998 91.8187 414.777 92.3947 415.652 92.8C416.548 93.2053 417.582 93.408 418.756 93.408C419.78 93.408 420.601 93.2373 421.22 92.896C421.838 92.5547 422.148 92.032 422.148 91.328C422.148 90.7307 421.934 90.3253 421.508 90.112C421.102 89.8987 420.558 89.7387 419.876 89.632L417.22 89.216C416.537 89.1093 415.865 88.96 415.204 88.768C414.564 88.5547 413.988 88.2667 413.476 87.904C412.985 87.5413 412.59 87.0827 412.292 86.528C411.993 85.952 411.844 85.2587 411.844 84.448C411.844 82.72 412.484 81.3973 413.764 80.48C415.065 79.5627 416.846 79.104 419.108 79.104C420.708 79.104 422.062 79.328 423.172 79.776C424.302 80.224 425.23 80.8533 425.956 81.664L423.812 84.032C423.342 83.52 422.713 83.072 421.924 82.688C421.156 82.2827 420.174 82.08 418.98 82.08C416.889 82.08 415.844 82.7307 415.844 84.032C415.844 84.6293 416.057 85.0453 416.484 85.28C416.91 85.4933 417.465 85.6533 418.148 85.76L420.772 86.176C421.476 86.2827 422.148 86.4427 422.788 86.656C423.449 86.848 424.025 87.1253 424.516 87.488C425.028 87.8507 425.433 88.3093 425.732 88.864C426.03 89.4187 426.18 90.1013 426.18 90.912C426.18 92.6187 425.518 93.9627 424.196 94.944C422.894 95.904 421.07 96.384 418.724 96.384ZM444.055 96C443.052 96 442.274 95.7547 441.719 95.264C441.186 94.752 440.866 94.048 440.759 93.152H440.599C440.3 94.176 439.714 94.976 438.839 95.552C437.964 96.1067 436.887 96.384 435.607 96.384C433.943 96.384 432.62 95.9467 431.639 95.072C430.658 94.1973 430.167 92.9813 430.167 91.424C430.167 88.096 432.61 86.432 437.495 86.432H440.407V85.344C440.407 84.2987 440.151 83.5093 439.639 82.976C439.127 82.4427 438.295 82.176 437.143 82.176C436.098 82.176 435.255 82.3787 434.615 82.784C433.975 83.1893 433.431 83.712 432.983 84.352L430.647 82.368C431.159 81.4507 431.98 80.6827 433.111 80.064C434.263 79.424 435.746 79.104 437.559 79.104C439.735 79.104 441.431 79.616 442.647 80.64C443.884 81.6427 444.503 83.1467 444.503 85.152V92.928H446.455V96H444.055ZM436.983 93.568C437.964 93.568 438.775 93.344 439.415 92.896C440.076 92.4267 440.407 91.7973 440.407 91.008V88.8H437.591C435.351 88.8 434.231 89.504 434.231 90.912V91.552C434.231 92.2133 434.476 92.7147 434.967 93.056C435.458 93.3973 436.13 93.568 436.983 93.568ZM467.934 96V79.488H471.326V81.76H471.518C471.774 81.0347 472.137 80.416 472.606 79.904C473.097 79.3707 473.779 79.104 474.654 79.104C475.486 79.104 476.147 79.3493 476.638 79.84C477.129 80.3093 477.449 80.9813 477.598 81.856H477.758C478.035 81.1093 478.441 80.4693 478.974 79.936C479.529 79.3813 480.307 79.104 481.31 79.104C482.526 79.104 483.401 79.5413 483.934 80.416C484.467 81.2907 484.734 82.5813 484.734 84.288V96H481.374V84.768C481.374 83.808 481.235 83.136 480.958 82.752C480.702 82.368 480.307 82.176 479.774 82.176C479.283 82.176 478.867 82.336 478.526 82.656C478.206 82.976 478.046 83.4667 478.046 84.128V96H474.654V84.768C474.654 83.808 474.526 83.136 474.27 82.752C474.014 82.368 473.619 82.176 473.086 82.176C472.574 82.176 472.147 82.336 471.806 82.656C471.486 82.976 471.326 83.4667 471.326 84.128V96H467.934ZM495.922 96.384C494.599 96.384 493.426 96.1813 492.402 95.776C491.378 95.3707 490.514 94.7947 489.81 94.048C489.127 93.3013 488.604 92.4053 488.242 91.36C487.879 90.2933 487.698 89.0987 487.698 87.776C487.698 86.432 487.879 85.2267 488.242 84.16C488.626 83.0933 489.159 82.1867 489.842 81.44C490.524 80.6933 491.346 80.1173 492.306 79.712C493.287 79.3067 494.386 79.104 495.602 79.104C496.796 79.104 497.874 79.3067 498.834 79.712C499.794 80.096 500.604 80.6507 501.266 81.376C501.948 82.1013 502.471 82.976 502.833 84C503.196 85.024 503.378 86.1547 503.378 87.392V88.736H491.794V89.152C491.794 90.3467 492.167 91.3173 492.914 92.064C493.66 92.7893 494.706 93.152 496.05 93.152C497.074 93.152 497.948 92.9493 498.674 92.544C499.42 92.1173 500.039 91.5627 500.53 90.88L502.866 93.216C502.268 94.0907 501.394 94.8373 500.242 95.456C499.111 96.0747 497.671 96.384 495.922 96.384ZM495.634 82.112C494.482 82.112 493.554 82.4747 492.85 83.2C492.146 83.9253 491.794 84.8853 491.794 86.08V86.304H499.282V86.016C499.282 84.8213 498.951 83.872 498.29 83.168C497.65 82.464 496.764 82.112 495.634 82.112ZM507.525 96V79.488H511.621V82.4H511.781C512.144 81.504 512.698 80.736 513.445 80.096C514.213 79.4347 515.269 79.104 516.613 79.104C518.234 79.104 519.546 79.648 520.549 80.736C521.573 81.8027 522.085 83.3387 522.085 85.344V96H517.989V85.92C517.989 83.5307 516.954 82.336 514.885 82.336C514.458 82.336 514.053 82.3893 513.669 82.496C513.285 82.6027 512.933 82.7733 512.613 83.008C512.314 83.2213 512.069 83.488 511.877 83.808C511.706 84.128 511.621 84.512 511.621 84.96V96H507.525ZM533.849 96.384C532.035 96.384 530.467 96.1067 529.145 95.552C527.822 94.976 526.787 94.208 526.041 93.248L528.441 91.072C529.123 91.8187 529.902 92.3947 530.777 92.8C531.673 93.2053 532.707 93.408 533.881 93.408C534.905 93.408 535.726 93.2373 536.345 92.896C536.963 92.5547 537.273 92.032 537.273 91.328C537.273 90.7307 537.059 90.3253 536.633 90.112C536.227 89.8987 535.683 89.7387 535.001 89.632L532.345 89.216C531.662 89.1093 530.99 88.96 530.329 88.768C529.689 88.5547 529.113 88.2667 528.601 87.904C528.11 87.5413 527.715 87.0827 527.417 86.528C527.118 85.952 526.969 85.2587 526.969 84.448C526.969 82.72 527.609 81.3973 528.889 80.48C530.19 79.5627 531.971 79.104 534.233 79.104C535.833 79.104 537.187 79.328 538.297 79.776C539.427 80.224 540.355 80.8533 541.081 81.664L538.937 84.032C538.467 83.52 537.838 83.072 537.049 82.688C536.281 82.2827 535.299 82.08 534.105 82.08C532.014 82.08 530.969 82.7307 530.969 84.032C530.969 84.6293 531.182 85.0453 531.609 85.28C532.035 85.4933 532.59 85.6533 533.273 85.76L535.897 86.176C536.601 86.2827 537.273 86.4427 537.913 86.656C538.574 86.848 539.15 87.1253 539.641 87.488C540.153 87.8507 540.558 88.3093 540.857 88.864C541.155 89.4187 541.305 90.1013 541.305 90.912C541.305 92.6187 540.643 93.9627 539.321 94.944C538.019 95.904 536.195 96.384 533.849 96.384ZM559.18 96C558.177 96 557.399 95.7547 556.844 95.264C556.311 94.752 555.991 94.048 555.884 93.152H555.724C555.425 94.176 554.839 94.976 553.964 95.552C553.089 96.1067 552.012 96.384 550.732 96.384C549.068 96.384 547.745 95.9467 546.764 95.072C545.783 94.1973 545.292 92.9813 545.292 91.424C545.292 88.096 547.735 86.432 552.62 86.432H555.532V85.344C555.532 84.2987 555.276 83.5093 554.764 82.976C554.252 82.4427 553.42 82.176 552.268 82.176C551.223 82.176 550.38 82.3787 549.74 82.784C549.1 83.1893 548.556 83.712 548.108 84.352L545.772 82.368C546.284 81.4507 547.105 80.6827 548.236 80.064C549.388 79.424 550.871 79.104 552.684 79.104C554.86 79.104 556.556 79.616 557.772 80.64C559.009 81.6427 559.628 83.1467 559.628 85.152V92.928H561.58V96H559.18ZM552.108 93.568C553.089 93.568 553.9 93.344 554.54 92.896C555.201 92.4267 555.532 91.7973 555.532 91.008V88.8H552.716C550.476 88.8 549.356 89.504 549.356 90.912V91.552C549.356 92.2133 549.601 92.7147 550.092 93.056C550.583 93.3973 551.255 93.568 552.108 93.568ZM581.12 97.728C581.12 99.456 580.394 100.725 578.944 101.536C577.514 102.368 575.274 102.784 572.224 102.784C570.73 102.784 569.482 102.688 568.48 102.496C567.477 102.325 566.666 102.069 566.048 101.728C565.45 101.387 565.024 100.971 564.768 100.48C564.512 100.011 564.384 99.4773 564.384 98.88C564.384 97.9627 564.65 97.2587 565.184 96.768C565.717 96.2773 566.464 95.9147 567.424 95.68V95.424C566.784 95.2107 566.272 94.912 565.888 94.528C565.525 94.144 565.344 93.6107 565.344 92.928C565.344 92.1173 565.61 91.5093 566.144 91.104C566.698 90.6987 567.424 90.3893 568.32 90.176V90.016C567.338 89.5467 566.57 88.8853 566.016 88.032C565.461 87.1787 565.184 86.144 565.184 84.928C565.184 84.0107 565.344 83.2 565.664 82.496C566.005 81.7707 566.474 81.1627 567.072 80.672C567.69 80.16 568.426 79.776 569.28 79.52C570.133 79.2427 571.082 79.104 572.128 79.104C573.237 79.104 574.24 79.2533 575.136 79.552V78.848C575.136 78.208 575.338 77.6747 575.744 77.248C576.17 76.8213 576.757 76.608 577.504 76.608H580.48V79.68H576.576V80.224C577.386 80.7147 578.005 81.3547 578.432 82.144C578.88 82.912 579.104 83.84 579.104 84.928C579.104 85.8453 578.933 86.6667 578.592 87.392C578.272 88.1173 577.802 88.7253 577.184 89.216C576.586 89.7067 575.85 90.0907 574.976 90.368C574.122 90.624 573.173 90.752 572.128 90.752C571.701 90.752 571.285 90.7413 570.88 90.72C570.496 90.6773 570.122 90.6027 569.76 90.496C569.461 90.6027 569.173 90.7733 568.896 91.008C568.618 91.2427 568.48 91.552 568.48 91.936C568.48 92.448 568.725 92.768 569.216 92.896C569.706 93.0027 570.293 93.056 570.976 93.056H574.72C575.872 93.056 576.853 93.1733 577.664 93.408C578.474 93.6213 579.136 93.9413 579.648 94.368C580.16 94.7733 580.533 95.264 580.767 95.84C581.002 96.416 581.12 97.0453 581.12 97.728ZM577.28 98.016C577.28 97.5253 577.077 97.1307 576.672 96.832C576.288 96.5547 575.562 96.416 574.496 96.416H568.8C568.16 96.7787 567.84 97.312 567.84 98.016C567.84 98.592 568.074 99.072 568.544 99.456C569.034 99.84 569.856 100.032 571.008 100.032H573.664C576.074 100.032 577.28 99.36 577.28 98.016ZM572.128 88.064C573.173 88.064 573.941 87.8187 574.432 87.328C574.922 86.816 575.168 86.1547 575.168 85.344V84.512C575.168 83.7013 574.922 83.0507 574.432 82.56C573.941 82.048 573.173 81.792 572.128 81.792C571.104 81.792 570.346 82.048 569.856 82.56C569.365 83.0507 569.12 83.7013 569.12 84.512V85.344C569.12 86.1547 569.365 86.816 569.856 87.328C570.346 87.8187 571.104 88.064 572.128 88.064ZM591.859 96.384C590.536 96.384 589.363 96.1813 588.339 95.776C587.315 95.3707 586.451 94.7947 585.747 94.048C585.064 93.3013 584.542 92.4053 584.179 91.36C583.816 90.2933 583.635 89.0987 583.635 87.776C583.635 86.432 583.816 85.2267 584.179 84.16C584.563 83.0933 585.096 82.1867 585.779 81.44C586.462 80.6933 587.283 80.1173 588.243 79.712C589.224 79.3067 590.323 79.104 591.539 79.104C592.734 79.104 593.811 79.3067 594.771 79.712C595.731 80.096 596.542 80.6507 597.203 81.376C597.886 82.1013 598.408 82.976 598.771 84C599.134 85.024 599.315 86.1547 599.315 87.392V88.736H587.731V89.152C587.731 90.3467 588.104 91.3173 588.851 92.064C589.598 92.7893 590.643 93.152 591.987 93.152C593.011 93.152 593.886 92.9493 594.611 92.544C595.358 92.1173 595.976 91.5627 596.467 90.88L598.803 93.216C598.206 94.0907 597.331 94.8373 596.179 95.456C595.048 96.0747 593.608 96.384 591.859 96.384ZM591.571 82.112C590.419 82.112 589.491 82.4747 588.787 83.2C588.083 83.9253 587.731 84.8853 587.731 86.08V86.304H595.219V86.016C595.219 84.8213 594.888 83.872 594.227 83.168C593.587 82.464 592.702 82.112 591.571 82.112ZM602.247 96V79.488H605.639V81.76H605.831C606.087 81.0347 606.449 80.416 606.919 79.904C607.409 79.3707 608.092 79.104 608.967 79.104C609.799 79.104 610.46 79.3493 610.951 79.84C611.441 80.3093 611.761 80.9813 611.911 81.856H612.071C612.348 81.1093 612.753 80.4693 613.287 79.936C613.841 79.3813 614.62 79.104 615.623 79.104C616.839 79.104 617.713 79.5413 618.247 80.416C618.78 81.2907 619.047 82.5813 619.047 84.288V96H615.687V84.768C615.687 83.808 615.548 83.136 615.271 82.752C615.015 82.368 614.62 82.176 614.087 82.176C613.596 82.176 613.18 82.336 612.839 82.656C612.519 82.976 612.359 83.4667 612.359 84.128V96H608.967V84.768C608.967 83.808 608.839 83.136 608.583 82.752C608.327 82.368 607.932 82.176 607.399 82.176C606.887 82.176 606.46 82.336 606.119 82.656C605.799 82.976 605.639 83.4667 605.639 84.128V96H602.247ZM655.118 96C654.115 96 653.336 95.7547 652.782 95.264C652.248 94.752 651.928 94.048 651.822 93.152H651.662C651.363 94.176 650.776 94.976 649.902 95.552C649.027 96.1067 647.95 96.384 646.67 96.384C645.006 96.384 643.683 95.9467 642.702 95.072C641.72 94.1973 641.23 92.9813 641.23 91.424C641.23 88.096 643.672 86.432 648.558 86.432H651.47V85.344C651.47 84.2987 651.214 83.5093 650.702 82.976C650.19 82.4427 649.358 82.176 648.206 82.176C647.16 82.176 646.318 82.3787 645.678 82.784C645.038 83.1893 644.494 83.712 644.046 84.352L641.71 82.368C642.222 81.4507 643.043 80.6827 644.174 80.064C645.326 79.424 646.808 79.104 648.622 79.104C650.798 79.104 652.494 79.616 653.71 80.64C654.947 81.6427 655.566 83.1467 655.566 85.152V92.928H657.517V96H655.118ZM648.046 93.568C649.027 93.568 649.838 93.344 650.478 92.896C651.139 92.4267 651.47 91.7973 651.47 91.008V88.8H648.654C646.414 88.8 645.294 89.504 645.294 90.912V91.552C645.294 92.2133 645.539 92.7147 646.03 93.056C646.52 93.3973 647.192 93.568 648.046 93.568ZM660.833 79.488H664.929V82.4H665.153C665.601 81.3973 666.209 80.5973 666.977 80C667.766 79.4027 668.801 79.104 670.081 79.104C671.02 79.104 671.873 79.2853 672.641 79.648C673.43 79.9893 674.102 80.5227 674.657 81.248C675.212 81.952 675.638 82.848 675.937 83.936C676.236 85.024 676.385 86.2933 676.385 87.744C676.385 89.1947 676.236 90.464 675.937 91.552C675.638 92.64 675.212 93.5467 674.657 94.272C674.102 94.976 673.43 95.5093 672.641 95.872C671.873 96.2133 671.02 96.384 670.081 96.384C668.801 96.384 667.766 96.0853 666.977 95.488C666.209 94.8907 665.601 94.0907 665.153 93.088H664.929V102.4H660.833V79.488ZM668.353 93.12C669.548 93.12 670.465 92.7573 671.105 92.032C671.766 91.3067 672.097 90.3147 672.097 89.056V86.432C672.097 85.1733 671.766 84.1813 671.105 83.456C670.465 82.7307 669.548 82.368 668.353 82.368C667.414 82.368 666.604 82.6027 665.921 83.072C665.26 83.52 664.929 84.2133 664.929 85.152V90.336C664.929 91.2747 665.26 91.9787 665.921 92.448C666.604 92.896 667.414 93.12 668.353 93.12ZM693.493 96C692.49 96 691.711 95.7547 691.157 95.264C690.623 94.752 690.303 94.048 690.197 93.152H690.037C689.738 94.176 689.151 94.976 688.277 95.552C687.402 96.1067 686.325 96.384 685.045 96.384C683.381 96.384 682.058 95.9467 681.077 95.072C680.095 94.1973 679.605 92.9813 679.605 91.424C679.605 88.096 682.047 86.432 686.933 86.432H689.845V85.344C689.845 84.2987 689.589 83.5093 689.077 82.976C688.565 82.4427 687.733 82.176 686.581 82.176C685.535 82.176 684.693 82.3787 684.053 82.784C683.413 83.1893 682.869 83.712 682.421 84.352L680.085 82.368C680.597 81.4507 681.418 80.6827 682.549 80.064C683.701 79.424 685.183 79.104 686.997 79.104C689.173 79.104 690.869 79.616 692.085 80.64C693.322 81.6427 693.941 83.1467 693.941 85.152V92.928H695.892V96H693.493ZM686.421 93.568C687.402 93.568 688.213 93.344 688.853 92.896C689.514 92.4267 689.845 91.7973 689.845 91.008V88.8H687.029C684.789 88.8 683.669 89.504 683.669 90.912V91.552C683.669 92.2133 683.914 92.7147 684.405 93.056C684.895 93.3973 685.567 93.568 686.421 93.568ZM699.4 92.768H703.496V82.72H699.4V79.488H707.592V84H707.848C707.997 83.424 708.2 82.8693 708.456 82.336C708.733 81.7813 709.075 81.3013 709.48 80.896C709.907 80.4693 710.419 80.128 711.016 79.872C711.613 79.616 712.328 79.488 713.16 79.488H714.952V83.328H711.56C710.323 83.328 709.352 83.6907 708.648 84.416C707.944 85.1413 707.592 86.0693 707.592 87.2V92.768H713.32V96H699.4V92.768ZM726.172 96.384C724.849 96.384 723.676 96.1813 722.652 95.776C721.628 95.3707 720.764 94.7947 720.06 94.048C719.377 93.3013 718.854 92.4053 718.492 91.36C718.129 90.2933 717.948 89.0987 717.948 87.776C717.948 86.432 718.129 85.2267 718.492 84.16C718.876 83.0933 719.409 82.1867 720.092 81.44C720.774 80.6933 721.596 80.1173 722.556 79.712C723.537 79.3067 724.636 79.104 725.852 79.104C727.046 79.104 728.124 79.3067 729.084 79.712C730.044 80.096 730.854 80.6507 731.516 81.376C732.198 82.1013 732.721 82.976 733.083 84C733.446 85.024 733.628 86.1547 733.628 87.392V88.736H722.044V89.152C722.044 90.3467 722.417 91.3173 723.164 92.064C723.91 92.7893 724.956 93.152 726.3 93.152C727.324 93.152 728.198 92.9493 728.924 92.544C729.67 92.1173 730.289 91.5627 730.78 90.88L733.116 93.216C732.518 94.0907 731.644 94.8373 730.492 95.456C729.361 96.0747 727.921 96.384 726.172 96.384ZM725.884 82.112C724.732 82.112 723.804 82.4747 723.1 83.2C722.396 83.9253 722.044 84.8853 722.044 86.08V86.304H729.532V86.016C729.532 84.8213 729.201 83.872 728.54 83.168C727.9 82.464 727.014 82.112 725.884 82.112ZM745.615 96.384C744.356 96.384 743.226 96.1813 742.223 95.776C741.22 95.3707 740.367 94.7947 739.663 94.048C738.98 93.3013 738.447 92.3947 738.063 91.328C737.7 90.2613 737.519 89.0667 737.519 87.744C737.519 86.4213 737.7 85.2267 738.063 84.16C738.447 83.0933 738.98 82.1867 739.663 81.44C740.367 80.6933 741.21 80.1173 742.191 79.712C743.194 79.3067 744.324 79.104 745.583 79.104C747.332 79.104 748.74 79.4667 749.807 80.192C750.874 80.9173 751.684 81.8773 752.239 83.072L749.071 84.8C748.772 84.096 748.346 83.5307 747.791 83.104C747.258 82.656 746.522 82.432 745.583 82.432C744.367 82.432 743.428 82.784 742.767 83.488C742.127 84.192 741.807 85.152 741.807 86.368V89.12C741.807 90.3147 742.127 91.2747 742.767 92C743.428 92.704 744.388 93.056 745.647 93.056C746.628 93.056 747.407 92.832 747.983 92.384C748.58 91.936 749.06 91.3387 749.423 90.592L752.495 92.416C751.94 93.5893 751.098 94.5493 749.967 95.296C748.858 96.0213 747.407 96.384 745.615 96.384ZM764.547 96.384C763.224 96.384 762.051 96.1813 761.027 95.776C760.003 95.3707 759.139 94.7947 758.435 94.048C757.752 93.3013 757.229 92.4053 756.867 91.36C756.504 90.2933 756.323 89.0987 756.323 87.776C756.323 86.432 756.504 85.2267 756.867 84.16C757.251 83.0933 757.784 82.1867 758.467 81.44C759.149 80.6933 759.971 80.1173 760.931 79.712C761.912 79.3067 763.011 79.104 764.227 79.104C765.421 79.104 766.499 79.3067 767.459 79.712C768.419 80.096 769.229 80.6507 769.891 81.376C770.573 82.1013 771.096 82.976 771.458 84C771.821 85.024 772.003 86.1547 772.003 87.392V88.736H760.419V89.152C760.419 90.3467 760.792 91.3173 761.539 92.064C762.285 92.7893 763.331 93.152 764.675 93.152C765.699 93.152 766.573 92.9493 767.299 92.544C768.045 92.1173 768.664 91.5627 769.155 90.88L771.491 93.216C770.893 94.0907 770.019 94.8373 768.867 95.456C767.736 96.0747 766.296 96.384 764.547 96.384ZM764.259 82.112C763.107 82.112 762.179 82.4747 761.475 83.2C760.771 83.9253 760.419 84.8853 760.419 86.08V86.304H767.907V86.016C767.907 84.8213 767.576 83.872 766.915 83.168C766.275 82.464 765.389 82.112 764.259 82.112ZM808.618 96C807.615 96 806.836 95.7547 806.282 95.264C805.748 94.752 805.428 94.048 805.322 93.152H805.162C804.863 94.176 804.276 94.976 803.402 95.552C802.527 96.1067 801.45 96.384 800.17 96.384C798.506 96.384 797.183 95.9467 796.202 95.072C795.22 94.1973 794.73 92.9813 794.73 91.424C794.73 88.096 797.172 86.432 802.058 86.432H804.97V85.344C804.97 84.2987 804.714 83.5093 804.202 82.976C803.69 82.4427 802.858 82.176 801.706 82.176C800.66 82.176 799.818 82.3787 799.178 82.784C798.538 83.1893 797.994 83.712 797.546 84.352L795.21 82.368C795.722 81.4507 796.543 80.6827 797.674 80.064C798.826 79.424 800.308 79.104 802.122 79.104C804.298 79.104 805.994 79.616 807.21 80.64C808.447 81.6427 809.066 83.1467 809.066 85.152V92.928H811.017V96H808.618ZM801.546 93.568C802.527 93.568 803.338 93.344 803.978 92.896C804.639 92.4267 804.97 91.7973 804.97 91.008V88.8H802.154C799.914 88.8 798.794 89.504 798.794 90.912V91.552C798.794 92.2133 799.039 92.7147 799.53 93.056C800.02 93.3973 800.692 93.568 801.546 93.568ZM814.333 79.488H818.429V82.4H818.653C819.101 81.3973 819.709 80.5973 820.477 80C821.266 79.4027 822.301 79.104 823.581 79.104C824.52 79.104 825.373 79.2853 826.141 79.648C826.93 79.9893 827.602 80.5227 828.157 81.248C828.712 81.952 829.138 82.848 829.437 83.936C829.736 85.024 829.885 86.2933 829.885 87.744C829.885 89.1947 829.736 90.464 829.437 91.552C829.138 92.64 828.712 93.5467 828.157 94.272C827.602 94.976 826.93 95.5093 826.141 95.872C825.373 96.2133 824.52 96.384 823.581 96.384C822.301 96.384 821.266 96.0853 820.477 95.488C819.709 94.8907 819.101 94.0907 818.653 93.088H818.429V102.4H814.333V79.488ZM821.853 93.12C823.048 93.12 823.965 92.7573 824.605 92.032C825.266 91.3067 825.597 90.3147 825.597 89.056V86.432C825.597 85.1733 825.266 84.1813 824.605 83.456C823.965 82.7307 823.048 82.368 821.853 82.368C820.914 82.368 820.104 82.6027 819.421 83.072C818.76 83.52 818.429 84.2133 818.429 85.152V90.336C818.429 91.2747 818.76 91.9787 819.421 92.448C820.104 92.896 820.914 93.12 821.853 93.12ZM841.329 77.6L838.865 76.416L841.905 70.432L845.361 72.16L841.329 77.6ZM840.913 96.384C839.654 96.384 838.523 96.1813 837.521 95.776C836.539 95.3707 835.697 94.7947 834.993 94.048C834.31 93.3013 833.777 92.3947 833.393 91.328C833.03 90.2613 832.849 89.0667 832.849 87.744C832.849 86.4213 833.03 85.2267 833.393 84.16C833.777 83.0933 834.31 82.1867 834.993 81.44C835.697 80.6933 836.539 80.1173 837.521 79.712C838.523 79.3067 839.654 79.104 840.913 79.104C842.15 79.104 843.27 79.3067 844.273 79.712C845.275 80.1173 846.118 80.6933 846.801 81.44C847.505 82.1867 848.038 83.0933 848.401 84.16C848.785 85.2267 848.977 86.4213 848.977 87.744C848.977 89.0667 848.785 90.2613 848.401 91.328C848.038 92.3947 847.505 93.3013 846.801 94.048C846.118 94.7947 845.275 95.3707 844.273 95.776C843.27 96.1813 842.15 96.384 840.913 96.384ZM840.913 93.248C842.086 93.248 843.014 92.896 843.697 92.192C844.379 91.4667 844.721 90.4107 844.721 89.024V86.464C844.721 85.0773 844.379 84.032 843.697 83.328C843.014 82.6027 842.086 82.24 840.913 82.24C839.739 82.24 838.811 82.6027 838.129 83.328C837.446 84.032 837.105 85.0773 837.105 86.464V89.024C837.105 90.4107 837.446 91.4667 838.129 92.192C838.811 92.896 839.739 93.248 840.913 93.248ZM860.036 96.384C858.223 96.384 856.655 96.1067 855.332 95.552C854.009 94.976 852.975 94.208 852.228 93.248L854.628 91.072C855.311 91.8187 856.089 92.3947 856.964 92.8C857.86 93.2053 858.895 93.408 860.068 93.408C861.092 93.408 861.913 93.2373 862.532 92.896C863.151 92.5547 863.46 92.032 863.46 91.328C863.46 90.7307 863.247 90.3253 862.82 90.112C862.415 89.8987 861.871 89.7387 861.188 89.632L858.532 89.216C857.849 89.1093 857.177 88.96 856.516 88.768C855.876 88.5547 855.3 88.2667 854.788 87.904C854.297 87.5413 853.903 87.0827 853.604 86.528C853.305 85.952 853.156 85.2587 853.156 84.448C853.156 82.72 853.796 81.3973 855.076 80.48C856.377 79.5627 858.159 79.104 860.42 79.104C862.02 79.104 863.375 79.328 864.484 79.776C865.615 80.224 866.543 80.8533 867.268 81.664L865.124 84.032C864.655 83.52 864.025 83.072 863.236 82.688C862.468 82.2827 861.487 82.08 860.292 82.08C858.201 82.08 857.156 82.7307 857.156 84.032C857.156 84.6293 857.369 85.0453 857.796 85.28C858.223 85.4933 858.777 85.6533 859.46 85.76L862.084 86.176C862.788 86.2827 863.46 86.4427 864.1 86.656C864.761 86.848 865.337 87.1253 865.828 87.488C866.34 87.8507 866.745 88.3093 867.044 88.864C867.343 89.4187 867.492 90.1013 867.492 90.912C867.492 92.6187 866.831 93.9627 865.508 94.944C864.207 95.904 862.383 96.384 860.036 96.384ZM897.579 82.688C898.923 82.688 899.904 82.4213 900.523 81.888C901.163 81.3547 901.483 80.6827 901.483 79.872V79.648C901.483 78.7307 901.174 78.016 900.555 77.504C899.958 76.992 899.126 76.736 898.059 76.736C897.035 76.736 896.139 76.9707 895.371 77.44C894.603 77.9093 893.942 78.5707 893.387 79.424L890.667 76.992C891.051 76.48 891.478 76 891.947 75.552C892.438 75.0827 892.982 74.688 893.579 74.368C894.198 74.0267 894.88 73.76 895.627 73.568C896.374 73.376 897.227 73.28 898.187 73.28C899.318 73.28 900.352 73.4187 901.291 73.696C902.251 73.952 903.062 74.336 903.723 74.848C904.406 75.36 904.928 75.9787 905.291 76.704C905.675 77.408 905.867 78.208 905.867 79.104C905.867 79.808 905.75 80.448 905.515 81.024C905.28 81.6 904.96 82.1013 904.555 82.528C904.171 82.9547 903.712 83.3067 903.179 83.584C902.667 83.8613 902.112 84.064 901.515 84.192V84.352C902.176 84.48 902.795 84.6933 903.371 84.992C903.947 85.2693 904.448 85.632 904.875 86.08C905.302 86.528 905.643 87.072 905.899 87.712C906.155 88.3307 906.283 89.0347 906.283 89.824C906.283 90.8053 906.08 91.7013 905.675 92.512C905.27 93.3227 904.694 94.016 903.947 94.592C903.222 95.168 902.336 95.616 901.291 95.936C900.267 96.2347 899.115 96.384 897.835 96.384C896.768 96.384 895.819 96.2667 894.987 96.032C894.155 95.8187 893.419 95.52 892.779 95.136C892.139 94.752 891.584 94.3147 891.115 93.824C890.646 93.312 890.23 92.7893 889.867 92.256L892.971 89.856C893.504 90.752 894.134 91.488 894.859 92.064C895.606 92.64 896.619 92.928 897.899 92.928C899.179 92.928 900.16 92.64 900.843 92.064C901.547 91.4667 901.899 90.6453 901.899 89.6V89.344C901.899 88.32 901.526 87.5413 900.779 87.008C900.032 86.4533 898.976 86.176 897.611 86.176H895.371V82.688H897.579ZM936.786 96.384C934.973 96.384 933.405 96.1067 932.082 95.552C930.759 94.976 929.725 94.208 928.978 93.248L931.378 91.072C932.061 91.8187 932.839 92.3947 933.714 92.8C934.61 93.2053 935.645 93.408 936.818 93.408C937.842 93.408 938.663 93.2373 939.282 92.896C939.901 92.5547 940.21 92.032 940.21 91.328C940.21 90.7307 939.997 90.3253 939.57 90.112C939.165 89.8987 938.621 89.7387 937.938 89.632L935.282 89.216C934.599 89.1093 933.927 88.96 933.266 88.768C932.626 88.5547 932.05 88.2667 931.538 87.904C931.047 87.5413 930.653 87.0827 930.354 86.528C930.055 85.952 929.906 85.2587 929.906 84.448C929.906 82.72 930.546 81.3973 931.826 80.48C933.127 79.5627 934.909 79.104 937.17 79.104C938.77 79.104 940.125 79.328 941.234 79.776C942.365 80.224 943.293 80.8533 944.018 81.664L941.874 84.032C941.405 83.52 940.775 83.072 939.986 82.688C939.218 82.2827 938.237 82.08 937.042 82.08C934.951 82.08 933.906 82.7307 933.906 84.032C933.906 84.6293 934.119 85.0453 934.546 85.28C934.973 85.4933 935.527 85.6533 936.21 85.76L938.834 86.176C939.538 86.2827 940.21 86.4427 940.85 86.656C941.511 86.848 942.087 87.1253 942.578 87.488C943.09 87.8507 943.495 88.3093 943.794 88.864C944.093 89.4187 944.242 90.1013 944.242 90.912C944.242 92.6187 943.581 93.9627 942.258 94.944C940.957 95.904 939.133 96.384 936.786 96.384ZM956.422 96.384C955.099 96.384 953.926 96.1813 952.902 95.776C951.878 95.3707 951.014 94.7947 950.31 94.048C949.627 93.3013 949.104 92.4053 948.742 91.36C948.379 90.2933 948.198 89.0987 948.198 87.776C948.198 86.432 948.379 85.2267 948.742 84.16C949.126 83.0933 949.659 82.1867 950.342 81.44C951.024 80.6933 951.846 80.1173 952.806 79.712C953.787 79.3067 954.886 79.104 956.102 79.104C957.296 79.104 958.374 79.3067 959.334 79.712C960.294 80.096 961.104 80.6507 961.766 81.376C962.448 82.1013 962.971 82.976 963.333 84C963.696 85.024 963.878 86.1547 963.878 87.392V88.736H952.294V89.152C952.294 90.3467 952.667 91.3173 953.414 92.064C954.16 92.7893 955.206 93.152 956.55 93.152C957.574 93.152 958.448 92.9493 959.174 92.544C959.92 92.1173 960.539 91.5627 961.03 90.88L963.366 93.216C962.768 94.0907 961.894 94.8373 960.742 95.456C959.611 96.0747 958.171 96.384 956.422 96.384ZM956.134 82.112C954.982 82.112 954.054 82.4747 953.35 83.2C952.646 83.9253 952.294 84.8853 952.294 86.08V86.304H959.782V86.016C959.782 84.8213 959.451 83.872 958.79 83.168C958.15 82.464 957.264 82.112 956.134 82.112ZM984.057 97.728C984.057 99.456 983.332 100.725 981.881 101.536C980.452 102.368 978.212 102.784 975.161 102.784C973.668 102.784 972.42 102.688 971.417 102.496C970.414 102.325 969.604 102.069 968.985 101.728C968.388 101.387 967.961 100.971 967.705 100.48C967.449 100.011 967.321 99.4773 967.321 98.88C967.321 97.9627 967.588 97.2587 968.121 96.768C968.654 96.2773 969.401 95.9147 970.361 95.68V95.424C969.721 95.2107 969.209 94.912 968.825 94.528C968.462 94.144 968.281 93.6107 968.281 92.928C968.281 92.1173 968.548 91.5093 969.081 91.104C969.636 90.6987 970.361 90.3893 971.257 90.176V90.016C970.276 89.5467 969.508 88.8853 968.953 88.032C968.398 87.1787 968.121 86.144 968.121 84.928C968.121 84.0107 968.281 83.2 968.601 82.496C968.942 81.7707 969.412 81.1627 970.009 80.672C970.628 80.16 971.364 79.776 972.217 79.52C973.07 79.2427 974.02 79.104 975.065 79.104C976.174 79.104 977.177 79.2533 978.073 79.552V78.848C978.073 78.208 978.276 77.6747 978.681 77.248C979.108 76.8213 979.694 76.608 980.441 76.608H983.417V79.68H979.513V80.224C980.324 80.7147 980.942 81.3547 981.369 82.144C981.817 82.912 982.041 83.84 982.041 84.928C982.041 85.8453 981.87 86.6667 981.529 87.392C981.209 88.1173 980.74 88.7253 980.121 89.216C979.524 89.7067 978.788 90.0907 977.913 90.368C977.06 90.624 976.11 90.752 975.065 90.752C974.638 90.752 974.222 90.7413 973.817 90.72C973.433 90.6773 973.06 90.6027 972.697 90.496C972.398 90.6027 972.11 90.7733 971.833 91.008C971.556 91.2427 971.417 91.552 971.417 91.936C971.417 92.448 971.662 92.768 972.153 92.896C972.644 93.0027 973.23 93.056 973.913 93.056H977.657C978.809 93.056 979.79 93.1733 980.601 93.408C981.412 93.6213 982.073 93.9413 982.585 94.368C983.097 94.7733 983.47 95.264 983.705 95.84C983.94 96.416 984.057 97.0453 984.057 97.728ZM980.217 98.016C980.217 97.5253 980.014 97.1307 979.609 96.832C979.225 96.5547 978.5 96.416 977.433 96.416H971.737C971.097 96.7787 970.777 97.312 970.777 98.016C970.777 98.592 971.012 99.072 971.481 99.456C971.972 99.84 972.793 100.032 973.945 100.032H976.601C979.012 100.032 980.217 99.36 980.217 98.016ZM975.065 88.064C976.11 88.064 976.878 87.8187 977.369 87.328C977.86 86.816 978.105 86.1547 978.105 85.344V84.512C978.105 83.7013 977.86 83.0507 977.369 82.56C976.878 82.048 976.11 81.792 975.065 81.792C974.041 81.792 973.284 82.048 972.793 82.56C972.302 83.0507 972.057 83.7013 972.057 84.512V85.344C972.057 86.1547 972.302 86.816 972.793 87.328C973.284 87.8187 974.041 88.064 975.065 88.064ZM997.517 93.088H997.357C996.994 93.984 996.429 94.7627 995.661 95.424C994.914 96.064 993.869 96.384 992.525 96.384C990.903 96.384 989.581 95.8507 988.557 94.784C987.554 93.696 987.053 92.1493 987.053 90.144V79.488H991.149V89.568C991.149 91.9573 992.183 93.152 994.253 93.152C994.658 93.152 995.053 93.0987 995.437 92.992C995.842 92.8853 996.194 92.7253 996.493 92.512C996.813 92.2773 997.058 92 997.229 91.68C997.421 91.36 997.517 90.976 997.517 90.528V79.488H1001.61V96H997.517V93.088ZM1006.4 96V79.488H1010.5V82.4H1010.66C1011.02 81.504 1011.57 80.736 1012.32 80.096C1013.09 79.4347 1014.14 79.104 1015.49 79.104C1017.11 79.104 1018.42 79.648 1019.42 80.736C1020.45 81.8027 1020.96 83.3387 1020.96 85.344V96H1016.86V85.92C1016.86 83.5307 1015.83 82.336 1013.76 82.336C1013.33 82.336 1012.93 82.3893 1012.54 82.496C1012.16 82.6027 1011.81 82.7733 1011.49 83.008C1011.19 83.2213 1010.94 83.488 1010.75 83.808C1010.58 84.128 1010.5 84.512 1010.5 84.96V96H1006.4ZM1036.08 93.088H1035.86C1035.41 94.0907 1034.79 94.8907 1034 95.488C1033.24 96.0853 1032.21 96.384 1030.93 96.384C1029.99 96.384 1029.13 96.2133 1028.34 95.872C1027.57 95.5093 1026.91 94.976 1026.36 94.272C1025.8 93.5467 1025.37 92.64 1025.08 91.552C1024.78 90.464 1024.63 89.1947 1024.63 87.744C1024.63 84.8427 1025.2 82.6773 1026.36 81.248C1027.51 79.8187 1029.03 79.104 1030.93 79.104C1032.21 79.104 1033.24 79.4027 1034 80C1034.79 80.5973 1035.41 81.3973 1035.86 82.4H1036.08V72.32H1040.18V96H1036.08V93.088ZM1032.66 93.12C1033.13 93.12 1033.57 93.0667 1033.97 92.96C1034.4 92.832 1034.76 92.6613 1035.06 92.448C1035.38 92.2133 1035.62 91.9253 1035.8 91.584C1035.99 91.2213 1036.08 90.8053 1036.08 90.336V85.152C1036.08 84.6827 1035.99 84.2773 1035.8 83.936C1035.62 83.5733 1035.38 83.2853 1035.06 83.072C1034.76 82.8373 1034.4 82.6667 1033.97 82.56C1033.57 82.432 1033.13 82.368 1032.66 82.368C1031.46 82.368 1030.54 82.7307 1029.88 83.456C1029.24 84.1813 1028.92 85.1733 1028.92 86.432V89.056C1028.92 90.3147 1029.24 91.3067 1029.88 92.032C1030.54 92.7573 1031.46 93.12 1032.66 93.12ZM1051.98 96.384C1050.72 96.384 1049.59 96.1813 1048.58 95.776C1047.6 95.3707 1046.76 94.7947 1046.06 94.048C1045.37 93.3013 1044.84 92.3947 1044.46 91.328C1044.09 90.2613 1043.91 89.0667 1043.91 87.744C1043.91 86.4213 1044.09 85.2267 1044.46 84.16C1044.84 83.0933 1045.37 82.1867 1046.06 81.44C1046.76 80.6933 1047.6 80.1173 1048.58 79.712C1049.59 79.3067 1050.72 79.104 1051.98 79.104C1053.21 79.104 1054.33 79.3067 1055.34 79.712C1056.34 80.1173 1057.18 80.6933 1057.86 81.44C1058.57 82.1867 1059.1 83.0933 1059.46 84.16C1059.85 85.2267 1060.04 86.4213 1060.04 87.744C1060.04 89.0667 1059.85 90.2613 1059.46 91.328C1059.1 92.3947 1058.57 93.3013 1057.86 94.048C1057.18 94.7947 1056.34 95.3707 1055.34 95.776C1054.33 96.1813 1053.21 96.384 1051.98 96.384ZM1051.98 93.248C1053.15 93.248 1054.08 92.896 1054.76 92.192C1055.44 91.4667 1055.78 90.4107 1055.78 89.024V86.464C1055.78 85.0773 1055.44 84.032 1054.76 83.328C1054.08 82.6027 1053.15 82.24 1051.98 82.24C1050.8 82.24 1049.87 82.6027 1049.19 83.328C1048.51 84.032 1048.17 85.0773 1048.17 86.464V89.024C1048.17 90.4107 1048.51 91.4667 1049.19 92.192C1049.87 92.896 1050.8 93.248 1051.98 93.248ZM1071.1 96.384C1069.29 96.384 1067.72 96.1067 1066.39 95.552C1065.07 94.976 1064.04 94.208 1063.29 93.248L1065.69 91.072C1066.37 91.8187 1067.15 92.3947 1068.03 92.8C1068.92 93.2053 1069.96 93.408 1071.13 93.408C1072.15 93.408 1072.98 93.2373 1073.59 92.896C1074.21 92.5547 1074.52 92.032 1074.52 91.328C1074.52 90.7307 1074.31 90.3253 1073.88 90.112C1073.48 89.8987 1072.93 89.7387 1072.25 89.632L1069.59 89.216C1068.91 89.1093 1068.24 88.96 1067.58 88.768C1066.94 88.5547 1066.36 88.2667 1065.85 87.904C1065.36 87.5413 1064.97 87.0827 1064.67 86.528C1064.37 85.952 1064.22 85.2587 1064.22 84.448C1064.22 82.72 1064.86 81.3973 1066.14 80.48C1067.44 79.5627 1069.22 79.104 1071.48 79.104C1073.08 79.104 1074.44 79.328 1075.55 79.776C1076.68 80.224 1077.61 80.8533 1078.33 81.664L1076.19 84.032C1075.72 83.52 1075.09 83.072 1074.3 82.688C1073.53 82.2827 1072.55 82.08 1071.35 82.08C1069.26 82.08 1068.22 82.7307 1068.22 84.032C1068.22 84.6293 1068.43 85.0453 1068.86 85.28C1069.29 85.4933 1069.84 85.6533 1070.52 85.76L1073.15 86.176C1073.85 86.2827 1074.52 86.4427 1075.16 86.656C1075.82 86.848 1076.4 87.1253 1076.89 87.488C1077.4 87.8507 1077.81 88.3093 1078.11 88.864C1078.41 89.4187 1078.55 90.1013 1078.55 90.912C1078.55 92.6187 1077.89 93.9627 1076.57 94.944C1075.27 95.904 1073.45 96.384 1071.1 96.384ZM1089.68 88.32L1088.11 80.16V73.664H1092.59V80.16L1091.02 88.32H1089.68ZM1090.35 96.352C1089.28 96.352 1088.53 96.128 1088.08 95.68C1087.65 95.232 1087.44 94.688 1087.44 94.048V93.152C1087.44 92.512 1087.65 91.968 1088.08 91.52C1088.53 91.072 1089.28 90.848 1090.35 90.848C1091.42 90.848 1092.16 91.072 1092.59 91.52C1093.04 91.968 1093.26 92.512 1093.26 93.152V94.048C1093.26 94.688 1093.04 95.232 1092.59 95.68C1092.16 96.128 1091.42 96.352 1090.35 96.352ZM1104.35 82.304V72.32H1108.07V82.304H1104.35ZM1111.04 82.304V72.32H1114.75V82.304H1111.04Z" fill="#F5A476"/>
<path d="M187.642 124.688C188.986 124.688 189.967 124.421 190.586 123.888C191.226 123.355 191.546 122.683 191.546 121.872V121.648C191.546 120.731 191.236 120.016 190.618 119.504C190.02 118.992 189.188 118.736 188.122 118.736C187.098 118.736 186.202 118.971 185.434 119.44C184.666 119.909 184.004 120.571 183.45 121.424L180.73 118.992C181.114 118.48 181.54 118 182.01 117.552C182.5 117.083 183.044 116.688 183.641 116.368C184.26 116.027 184.943 115.76 185.69 115.568C186.436 115.376 187.29 115.28 188.25 115.28C189.38 115.28 190.415 115.419 191.354 115.696C192.314 115.952 193.124 116.336 193.786 116.848C194.468 117.36 194.991 117.979 195.354 118.704C195.738 119.408 195.93 120.208 195.93 121.104C195.93 121.808 195.812 122.448 195.578 123.024C195.343 123.6 195.023 124.101 194.618 124.528C194.234 124.955 193.775 125.307 193.242 125.584C192.73 125.861 192.175 126.064 191.578 126.192V126.352C192.239 126.48 192.858 126.693 193.434 126.992C194.01 127.269 194.511 127.632 194.938 128.08C195.364 128.528 195.706 129.072 195.962 129.712C196.218 130.331 196.346 131.035 196.346 131.824C196.346 132.805 196.143 133.701 195.738 134.512C195.332 135.323 194.756 136.016 194.01 136.592C193.284 137.168 192.399 137.616 191.354 137.936C190.33 138.235 189.178 138.384 187.898 138.384C186.831 138.384 185.882 138.267 185.05 138.032C184.218 137.819 183.482 137.52 182.842 137.136C182.202 136.752 181.647 136.315 181.178 135.824C180.708 135.312 180.292 134.789 179.93 134.256L183.034 131.856C183.567 132.752 184.196 133.488 184.922 134.064C185.668 134.64 186.682 134.928 187.962 134.928C189.242 134.928 190.223 134.64 190.906 134.064C191.61 133.467 191.962 132.645 191.962 131.6V131.344C191.962 130.32 191.588 129.541 190.842 129.008C190.095 128.453 189.039 128.176 187.674 128.176H185.434V124.688H187.642ZM207.725 138.384C206.274 138.384 205.016 138.128 203.949 137.616C202.882 137.083 201.997 136.325 201.293 135.344C200.61 134.363 200.098 133.157 199.757 131.728C199.437 130.299 199.277 128.667 199.277 126.832C199.277 125.019 199.437 123.397 199.757 121.968C200.098 120.517 200.61 119.301 201.293 118.32C201.997 117.339 202.882 116.592 203.949 116.08C205.016 115.547 206.274 115.28 207.725 115.28C210.626 115.28 212.76 116.293 214.125 118.32C215.49 120.347 216.173 123.184 216.173 126.832C216.173 130.48 215.49 133.317 214.125 135.344C212.76 137.371 210.626 138.384 207.725 138.384ZM207.725 135.024C209.261 135.024 210.338 134.48 210.957 133.392C211.597 132.283 211.917 130.757 211.917 128.816V124.848C211.917 122.907 211.597 121.392 210.957 120.304C210.338 119.195 209.261 118.64 207.725 118.64C206.189 118.64 205.101 119.195 204.461 120.304C203.842 121.392 203.533 122.907 203.533 124.848V128.816C203.533 130.757 203.842 132.283 204.461 133.392C205.101 134.48 206.189 135.024 207.725 135.024ZM207.725 128.72C206.978 128.72 206.456 128.571 206.157 128.272C205.88 127.973 205.741 127.611 205.741 127.184V126.48C205.741 126.053 205.88 125.691 206.157 125.392C206.456 125.093 206.978 124.944 207.725 124.944C208.472 124.944 208.984 125.093 209.261 125.392C209.56 125.691 209.709 126.053 209.709 126.48V127.184C209.709 127.611 209.56 127.973 209.261 128.272C208.984 128.571 208.472 128.72 207.725 128.72ZM226.913 138.384C225.462 138.384 224.203 138.128 223.137 137.616C222.07 137.083 221.185 136.325 220.481 135.344C219.798 134.363 219.286 133.157 218.945 131.728C218.625 130.299 218.465 128.667 218.465 126.832C218.465 125.019 218.625 123.397 218.945 121.968C219.286 120.517 219.798 119.301 220.481 118.32C221.185 117.339 222.07 116.592 223.137 116.08C224.203 115.547 225.462 115.28 226.913 115.28C229.814 115.28 231.947 116.293 233.312 118.32C234.678 120.347 235.361 123.184 235.361 126.832C235.361 130.48 234.678 133.317 233.312 135.344C231.947 137.371 229.814 138.384 226.913 138.384ZM226.913 135.024C228.449 135.024 229.526 134.48 230.145 133.392C230.785 132.283 231.105 130.757 231.105 128.816V124.848C231.105 122.907 230.785 121.392 230.145 120.304C229.526 119.195 228.449 118.64 226.913 118.64C225.377 118.64 224.289 119.195 223.649 120.304C223.03 121.392 222.721 122.907 222.721 124.848V128.816C222.721 130.757 223.03 132.283 223.649 133.392C224.289 134.48 225.377 135.024 226.913 135.024ZM226.913 128.72C226.166 128.72 225.643 128.571 225.345 128.272C225.067 127.973 224.929 127.611 224.929 127.184V126.48C224.929 126.053 225.067 125.691 225.345 125.392C225.643 125.093 226.166 124.944 226.913 124.944C227.659 124.944 228.171 125.093 228.449 125.392C228.747 125.691 228.897 126.053 228.897 126.48V127.184C228.897 127.611 228.747 127.973 228.449 128.272C228.171 128.571 227.659 128.72 226.913 128.72ZM246.1 138.384C244.649 138.384 243.391 138.128 242.324 137.616C241.257 137.083 240.372 136.325 239.668 135.344C238.985 134.363 238.473 133.157 238.132 131.728C237.812 130.299 237.652 128.667 237.652 126.832C237.652 125.019 237.812 123.397 238.132 121.968C238.473 120.517 238.985 119.301 239.668 118.32C240.372 117.339 241.257 116.592 242.324 116.08C243.391 115.547 244.649 115.28 246.1 115.28C249.001 115.28 251.135 116.293 252.5 118.32C253.865 120.347 254.548 123.184 254.548 126.832C254.548 130.48 253.865 133.317 252.5 135.344C251.135 137.371 249.001 138.384 246.1 138.384ZM246.1 135.024C247.636 135.024 248.713 134.48 249.332 133.392C249.972 132.283 250.292 130.757 250.292 128.816V124.848C250.292 122.907 249.972 121.392 249.332 120.304C248.713 119.195 247.636 118.64 246.1 118.64C244.564 118.64 243.476 119.195 242.836 120.304C242.217 121.392 241.908 122.907 241.908 124.848V128.816C241.908 130.757 242.217 132.283 242.836 133.392C243.476 134.48 244.564 135.024 246.1 135.024ZM246.1 128.72C245.353 128.72 244.831 128.571 244.532 128.272C244.255 127.973 244.116 127.611 244.116 127.184V126.48C244.116 126.053 244.255 125.691 244.532 125.392C244.831 125.093 245.353 124.944 246.1 124.944C246.847 124.944 247.359 125.093 247.636 125.392C247.935 125.691 248.084 126.053 248.084 126.48V127.184C248.084 127.611 247.935 127.973 247.636 128.272C247.359 128.571 246.847 128.72 246.1 128.72Z" fill="#78F6AB"/>
<path d="M34.6625 46.4084V43.8404H39.2705V31.9364H39.0545L35.4065 36.2564L33.4385 34.6004L37.5905 29.6564H42.4145V43.8404H46.2065V46.4084H34.6625Z" fill="white"/>
<path d="M45.6785 87.8873H33.8705V84.9593L39.2465 80.3753C40.1425 79.6073 40.8065 78.9113 41.2385 78.2873C41.6705 77.6473 41.8865 76.9673 41.8865 76.2473V76.0073C41.8865 75.2073 41.6625 74.5993 41.2145 74.1833C40.7665 73.7673 40.1425 73.5593 39.3425 73.5593C38.4625 73.5593 37.7905 73.7993 37.3265 74.2793C36.8625 74.7593 36.5265 75.3513 36.3185 76.0553L33.5825 75.0233C33.7585 74.4793 34.0065 73.9593 34.3265 73.4633C34.6625 72.9513 35.0705 72.5033 35.5505 72.1193C36.0465 71.7353 36.6305 71.4313 37.3025 71.2073C37.9745 70.9673 38.7425 70.8473 39.6065 70.8473C40.5025 70.8473 41.2945 70.9753 41.9825 71.2313C42.6865 71.4713 43.2785 71.8153 43.7585 72.2633C44.2385 72.6953 44.5985 73.2153 44.8385 73.8233C45.0945 74.4313 45.2225 75.0953 45.2225 75.8153C45.2225 76.5033 45.1105 77.1353 44.8865 77.7113C44.6785 78.2873 44.3825 78.8393 43.9985 79.3673C43.6145 79.8793 43.1585 80.3753 42.6305 80.8553C42.1185 81.3353 41.5585 81.8153 40.9505 82.2953L37.3025 85.2473H45.6785V87.8873Z" fill="white"/>
<path d="M39.0065 123.396C40.0145 123.396 40.7505 123.196 41.2145 122.796C41.6945 122.396 41.9345 121.892 41.9345 121.284V121.116C41.9345 120.428 41.7025 119.892 41.2385 119.508C40.7905 119.124 40.1665 118.932 39.3665 118.932C38.5985 118.932 37.9265 119.108 37.3505 119.46C36.7745 119.812 36.2785 120.308 35.8625 120.948L33.8225 119.124C34.1105 118.74 34.4305 118.38 34.7825 118.044C35.1505 117.692 35.5585 117.396 36.0065 117.156C36.4705 116.9 36.9825 116.7 37.5425 116.556C38.1025 116.412 38.7425 116.34 39.4625 116.34C40.3105 116.34 41.0865 116.444 41.7905 116.652C42.5105 116.844 43.1185 117.132 43.6145 117.516C44.1265 117.9 44.5185 118.364 44.7905 118.908C45.0785 119.436 45.2225 120.036 45.2225 120.708C45.2225 121.236 45.1345 121.716 44.9585 122.148C44.7825 122.58 44.5425 122.956 44.2385 123.276C43.9505 123.596 43.6065 123.86 43.2065 124.068C42.8225 124.276 42.4065 124.428 41.9585 124.524V124.644C42.4545 124.74 42.9185 124.9 43.3505 125.124C43.7825 125.332 44.1585 125.604 44.4785 125.94C44.7985 126.276 45.0545 126.684 45.2465 127.164C45.4385 127.628 45.5345 128.156 45.5345 128.748C45.5345 129.484 45.3825 130.156 45.0785 130.764C44.7745 131.372 44.3425 131.892 43.7825 132.324C43.2385 132.756 42.5745 133.092 41.7905 133.332C41.0225 133.556 40.1585 133.668 39.1985 133.668C38.3985 133.668 37.6865 133.58 37.0625 133.404C36.4385 133.244 35.8865 133.02 35.4065 132.732C34.9265 132.444 34.5105 132.116 34.1585 131.748C33.8065 131.364 33.4945 130.972 33.2225 130.572L35.5505 128.772C35.9505 129.444 36.4225 129.996 36.9665 130.428C37.5265 130.86 38.2865 131.076 39.2465 131.076C40.2065 131.076 40.9425 130.86 41.4545 130.428C41.9825 129.98 42.2465 129.364 42.2465 128.58V128.388C42.2465 127.62 41.9665 127.036 41.4065 126.636C40.8465 126.22 40.0545 126.012 39.0305 126.012H37.3505V123.396H39.0065Z" fill="white"/>
<path d="M42.2404 174.859V171.619H34.4884V168.931L41.3284 158.107H45.2404V169.171H47.4964V171.619H45.2404V174.859H42.2404ZM37.0564 169.171H42.2404V161.179H42.0484L37.0564 169.171Z" fill="white"/>
</svg>
