<svg width="1477" height="233" viewBox="0 0 1477 233" fill="none" xmlns="http://www.w3.org/2000/svg">
<path d="M0 5C0 2.23858 2.23858 0 5 0H1462C1470.28 0 1477 6.71573 1477 15V207C1477 220.807 1465.81 232 1452 232H35C15.67 232 0 216.33 0 197V5Z" fill="#373538"/>
<path d="M85.4 50.768H90.456V40.72H85.08V37.488H90.456V34.8C90.456 34.1387 90.5413 33.5413 90.712 33.008C90.904 32.4533 91.192 31.984 91.576 31.6C91.96 31.1947 92.44 30.8853 93.016 30.672C93.6133 30.4373 94.3067 30.32 95.096 30.32H100.664V33.552H94.552V37.488H100.664V40.72H94.552V50.768H99.928V54H85.4V50.768ZM114.892 51.088H114.732C114.369 51.984 113.804 52.7627 113.036 53.424C112.289 54.064 111.244 54.384 109.9 54.384C108.278 54.384 106.956 53.8507 105.932 52.784C104.929 51.696 104.428 50.1493 104.428 48.144V37.488H108.524V47.568C108.524 49.9573 109.558 51.152 111.628 51.152C112.033 51.152 112.428 51.0987 112.812 50.992C113.217 50.8853 113.569 50.7253 113.868 50.512C114.188 50.2773 114.433 50 114.604 49.68C114.796 49.36 114.892 48.976 114.892 48.528V37.488H118.988V54H114.892V51.088ZM123.775 54V37.488H127.871V40.4H128.031C128.394 39.504 128.948 38.736 129.695 38.096C130.463 37.4347 131.519 37.104 132.863 37.104C134.484 37.104 135.796 37.648 136.799 38.736C137.823 39.8027 138.335 41.3387 138.335 43.344V54H134.239V43.92C134.239 41.5307 133.204 40.336 131.135 40.336C130.708 40.336 130.303 40.3893 129.919 40.496C129.535 40.6027 129.183 40.7733 128.863 41.008C128.564 41.2213 128.319 41.488 128.127 41.808C127.956 42.128 127.871 42.512 127.871 42.96V54H123.775ZM150.803 54.384C149.544 54.384 148.413 54.1813 147.411 53.776C146.408 53.3707 145.555 52.7947 144.851 52.048C144.168 51.3013 143.635 50.3947 143.251 49.328C142.888 48.2613 142.707 47.0667 142.707 45.744C142.707 44.4213 142.888 43.2267 143.251 42.16C143.635 41.0933 144.168 40.1867 144.851 39.44C145.555 38.6933 146.397 38.1173 147.379 37.712C148.381 37.3067 149.512 37.104 150.771 37.104C152.52 37.104 153.928 37.4667 154.995 38.192C156.061 38.9173 156.872 39.8773 157.427 41.072L154.259 42.8C153.96 42.096 153.533 41.5307 152.979 41.104C152.445 40.656 151.709 40.432 150.771 40.432C149.555 40.432 148.616 40.784 147.955 41.488C147.315 42.192 146.995 43.152 146.995 44.368V47.12C146.995 48.3147 147.315 49.2747 147.955 50C148.616 50.704 149.576 51.056 150.835 51.056C151.816 51.056 152.595 50.832 153.171 50.384C153.768 49.936 154.248 49.3387 154.611 48.592L157.683 50.416C157.128 51.5893 156.285 52.5493 155.155 53.296C154.045 54.0213 152.595 54.384 150.803 54.384ZM170.47 54C168.891 54 167.729 53.584 166.982 52.752C166.235 51.92 165.862 50.8427 165.862 49.52V40.72H161.062V37.488H164.326C164.987 37.488 165.457 37.36 165.734 37.104C166.011 36.8267 166.15 36.3467 166.15 35.664V31.664H169.958V37.488H176.678V40.72H169.958V50.768H176.678V54H170.47ZM189.562 34.928C188.602 34.928 187.919 34.7253 187.514 34.32C187.13 33.9147 186.938 33.424 186.938 32.848V32.08C186.938 31.504 187.13 31.0133 187.514 30.608C187.919 30.2027 188.602 30 189.562 30C190.522 30 191.194 30.2027 191.578 30.608C191.983 31.0133 192.186 31.504 192.186 32.08V32.848C192.186 33.424 191.983 33.9147 191.578 34.32C191.194 34.7253 190.522 34.928 189.562 34.928ZM182.074 50.768H187.514V40.72H182.074V37.488H191.61V50.768H196.666V54H182.074V50.768ZM207.725 54.384C206.466 54.384 205.336 54.1813 204.333 53.776C203.352 53.3707 202.509 52.7947 201.805 52.048C201.122 51.3013 200.589 50.3947 200.205 49.328C199.842 48.2613 199.661 47.0667 199.661 45.744C199.661 44.4213 199.842 43.2267 200.205 42.16C200.589 41.0933 201.122 40.1867 201.805 39.44C202.509 38.6933 203.352 38.1173 204.333 37.712C205.336 37.3067 206.466 37.104 207.725 37.104C208.962 37.104 210.082 37.3067 211.085 37.712C212.088 38.1173 212.93 38.6933 213.613 39.44C214.317 40.1867 214.85 41.0933 215.213 42.16C215.597 43.2267 215.789 44.4213 215.789 45.744C215.789 47.0667 215.597 48.2613 215.213 49.328C214.85 50.3947 214.317 51.3013 213.613 52.048C212.93 52.7947 212.088 53.3707 211.085 53.776C210.082 54.1813 208.962 54.384 207.725 54.384ZM207.725 51.248C208.898 51.248 209.826 50.896 210.509 50.192C211.192 49.4667 211.533 48.4107 211.533 47.024V44.464C211.533 43.0773 211.192 42.032 210.509 41.328C209.826 40.6027 208.898 40.24 207.725 40.24C206.552 40.24 205.624 40.6027 204.941 41.328C204.258 42.032 203.917 43.0773 203.917 44.464V47.024C203.917 48.4107 204.258 49.4667 204.941 50.192C205.624 50.896 206.552 51.248 207.725 51.248ZM219.713 54V37.488H223.809V40.4H223.969C224.331 39.504 224.886 38.736 225.633 38.096C226.401 37.4347 227.457 37.104 228.801 37.104C230.422 37.104 231.734 37.648 232.737 38.736C233.761 39.8027 234.273 41.3387 234.273 43.344V54H230.177V43.92C230.177 41.5307 229.142 40.336 227.073 40.336C226.646 40.336 226.241 40.3893 225.857 40.496C225.473 40.6027 225.121 40.7733 224.801 41.008C224.502 41.2213 224.257 41.488 224.065 41.808C223.894 42.128 223.809 42.512 223.809 42.96V54H219.713ZM265.288 96.352C264.178 96.352 263.389 96.1173 262.92 95.648C262.45 95.1787 262.216 94.6027 262.216 93.92V92.96C262.216 92.2773 262.45 91.7013 262.92 91.232C263.389 90.7627 264.178 90.528 265.288 90.528C266.397 90.528 267.186 90.7627 267.656 91.232C268.125 91.7013 268.36 92.2773 268.36 92.96V93.92C268.36 94.6027 268.125 95.1787 267.656 95.648C267.186 96.1173 266.397 96.352 265.288 96.352Z" fill="#438ADD"/>
<path d="M257.992 50.768H263.24V33.552H257.992V30.32H267.336V50.768H272.616V54H257.992V50.768ZM290.555 54C289.552 54 288.774 53.7547 288.219 53.264C287.686 52.752 287.366 52.048 287.259 51.152H287.099C286.8 52.176 286.214 52.976 285.339 53.552C284.464 54.1067 283.387 54.384 282.107 54.384C280.443 54.384 279.12 53.9467 278.139 53.072C277.158 52.1973 276.667 50.9813 276.667 49.424C276.667 46.096 279.11 44.432 283.995 44.432H286.907V43.344C286.907 42.2987 286.651 41.5093 286.139 40.976C285.627 40.4427 284.795 40.176 283.643 40.176C282.598 40.176 281.755 40.3787 281.115 40.784C280.475 41.1893 279.931 41.712 279.483 42.352L277.147 40.368C277.659 39.4507 278.48 38.6827 279.611 38.064C280.763 37.424 282.246 37.104 284.059 37.104C286.235 37.104 287.931 37.616 289.147 38.64C290.384 39.6427 291.003 41.1467 291.003 43.152V50.928H292.955V54H290.555ZM283.483 51.568C284.464 51.568 285.275 51.344 285.915 50.896C286.576 50.4267 286.907 49.7973 286.907 49.008V46.8H284.091C281.851 46.8 280.731 47.504 280.731 48.912V49.552C280.731 50.2133 280.976 50.7147 281.467 51.056C281.958 51.3973 282.63 51.568 283.483 51.568ZM296.463 54V37.488H300.559V40.4H300.719C301.081 39.504 301.636 38.736 302.383 38.096C303.151 37.4347 304.207 37.104 305.551 37.104C307.172 37.104 308.484 37.648 309.487 38.736C310.511 39.8027 311.023 41.3387 311.023 43.344V54H306.927V43.92C306.927 41.5307 305.892 40.336 303.823 40.336C303.396 40.336 302.991 40.3893 302.607 40.496C302.223 40.6027 301.871 40.7733 301.551 41.008C301.252 41.2213 301.007 41.488 300.815 41.808C300.644 42.128 300.559 42.512 300.559 42.96V54H296.463ZM323.49 54.384C322.231 54.384 321.101 54.1813 320.098 53.776C319.095 53.3707 318.242 52.7947 317.538 52.048C316.855 51.3013 316.322 50.3947 315.938 49.328C315.575 48.2613 315.394 47.0667 315.394 45.744C315.394 44.4213 315.575 43.2267 315.938 42.16C316.322 41.0933 316.855 40.1867 317.538 39.44C318.242 38.6933 319.085 38.1173 320.066 37.712C321.069 37.3067 322.199 37.104 323.458 37.104C325.207 37.104 326.615 37.4667 327.682 38.192C328.749 38.9173 329.559 39.8773 330.114 41.072L326.946 42.8C326.647 42.096 326.221 41.5307 325.666 41.104C325.133 40.656 324.397 40.432 323.458 40.432C322.242 40.432 321.303 40.784 320.642 41.488C320.002 42.192 319.682 43.152 319.682 44.368V47.12C319.682 48.3147 320.002 49.2747 320.642 50C321.303 50.704 322.263 51.056 323.522 51.056C324.503 51.056 325.282 50.832 325.858 50.384C326.455 49.936 326.935 49.3387 327.298 48.592L330.37 50.416C329.815 51.5893 328.973 52.5493 327.842 53.296C326.733 54.0213 325.282 54.384 323.49 54.384ZM348.118 54C347.115 54 346.336 53.7547 345.782 53.264C345.248 52.752 344.928 52.048 344.822 51.152H344.662C344.363 52.176 343.776 52.976 342.902 53.552C342.027 54.1067 340.95 54.384 339.67 54.384C338.006 54.384 336.683 53.9467 335.702 53.072C334.72 52.1973 334.23 50.9813 334.23 49.424C334.23 46.096 336.672 44.432 341.558 44.432H344.47V43.344C344.47 42.2987 344.214 41.5093 343.702 40.976C343.19 40.4427 342.358 40.176 341.206 40.176C340.16 40.176 339.318 40.3787 338.678 40.784C338.038 41.1893 337.494 41.712 337.046 42.352L334.71 40.368C335.222 39.4507 336.043 38.6827 337.174 38.064C338.326 37.424 339.808 37.104 341.622 37.104C343.798 37.104 345.494 37.616 346.71 38.64C347.947 39.6427 348.566 41.1467 348.566 43.152V50.928H350.517V54H348.118ZM341.046 51.568C342.027 51.568 342.838 51.344 343.478 50.896C344.139 50.4267 344.47 49.7973 344.47 49.008V46.8H341.654C339.414 46.8 338.294 47.504 338.294 48.912V49.552C338.294 50.2133 338.539 50.7147 339.03 51.056C339.52 51.3973 340.192 51.568 341.046 51.568ZM354.025 50.768H358.121V40.72H354.025V37.488H362.217V42H362.473C362.622 41.424 362.825 40.8693 363.081 40.336C363.358 39.7813 363.7 39.3013 364.105 38.896C364.532 38.4693 365.044 38.128 365.641 37.872C366.238 37.616 366.953 37.488 367.785 37.488H369.577V41.328H366.185C364.948 41.328 363.977 41.6907 363.273 42.416C362.569 43.1413 362.217 44.0693 362.217 45.2V50.768H367.945V54H354.025V50.768ZM373.469 54V31.664H388.061V35.12H377.661V40.944H387.037V44.4H377.661V54H373.469ZM399.984 54.384C398.661 54.384 397.488 54.1813 396.464 53.776C395.44 53.3707 394.576 52.7947 393.872 52.048C393.189 51.3013 392.667 50.4053 392.304 49.36C391.941 48.2933 391.76 47.0987 391.76 45.776C391.76 44.432 391.941 43.2267 392.304 42.16C392.688 41.0933 393.221 40.1867 393.904 39.44C394.587 38.6933 395.408 38.1173 396.368 37.712C397.349 37.3067 398.448 37.104 399.664 37.104C400.859 37.104 401.936 37.3067 402.896 37.712C403.856 38.096 404.667 38.6507 405.328 39.376C406.011 40.1013 406.533 40.976 406.896 42C407.259 43.024 407.44 44.1547 407.44 45.392V46.736H395.856V47.152C395.856 48.3467 396.229 49.3173 396.976 50.064C397.723 50.7893 398.768 51.152 400.112 51.152C401.136 51.152 402.011 50.9493 402.736 50.544C403.483 50.1173 404.101 49.5627 404.592 48.88L406.928 51.216C406.331 52.0907 405.456 52.8373 404.304 53.456C403.173 54.0747 401.733 54.384 399.984 54.384ZM399.696 40.112C398.544 40.112 397.616 40.4747 396.912 41.2C396.208 41.9253 395.856 42.8853 395.856 44.08V44.304H403.344V44.016C403.344 42.8213 403.013 41.872 402.352 41.168C401.712 40.464 400.827 40.112 399.696 40.112ZM419.812 34.928C418.852 34.928 418.169 34.7253 417.764 34.32C417.38 33.9147 417.188 33.424 417.188 32.848V32.08C417.188 31.504 417.38 31.0133 417.764 30.608C418.169 30.2027 418.852 30 419.812 30C420.772 30 421.444 30.2027 421.828 30.608C422.233 31.0133 422.436 31.504 422.436 32.08V32.848C422.436 33.424 422.233 33.9147 421.828 34.32C421.444 34.7253 420.772 34.928 419.812 34.928ZM412.324 50.768H417.764V40.72H412.324V37.488H421.86V50.768H426.916V54H412.324V50.768ZM439.095 54C437.516 54 436.354 53.584 435.607 52.752C434.86 51.92 434.487 50.8427 434.487 49.52V40.72H429.687V37.488H432.951C433.612 37.488 434.082 37.36 434.359 37.104C434.636 36.8267 434.775 36.3467 434.775 35.664V31.664H438.583V37.488H445.303V40.72H438.583V50.768H445.303V54H439.095ZM458.187 34.928C457.227 34.928 456.544 34.7253 456.139 34.32C455.755 33.9147 455.562 33.424 455.562 32.848V32.08C455.562 31.504 455.755 31.0133 456.139 30.608C456.544 30.2027 457.227 30 458.187 30C459.147 30 459.819 30.2027 460.203 30.608C460.608 31.0133 460.811 31.504 460.811 32.08V32.848C460.811 33.424 460.608 33.9147 460.203 34.32C459.819 34.7253 459.147 34.928 458.187 34.928ZM450.699 50.768H456.139V40.72H450.699V37.488H460.235V50.768H465.291V54H450.699V50.768ZM476.99 54.384C475.731 54.384 474.601 54.1813 473.598 53.776C472.595 53.3707 471.742 52.7947 471.038 52.048C470.355 51.3013 469.822 50.3947 469.438 49.328C469.075 48.2613 468.894 47.0667 468.894 45.744C468.894 44.4213 469.075 43.2267 469.438 42.16C469.822 41.0933 470.355 40.1867 471.038 39.44C471.742 38.6933 472.585 38.1173 473.566 37.712C474.569 37.3067 475.699 37.104 476.958 37.104C478.707 37.104 480.115 37.4667 481.182 38.192C482.249 38.9173 483.059 39.8773 483.614 41.072L480.446 42.8C480.147 42.096 479.721 41.5307 479.166 41.104C478.633 40.656 477.897 40.432 476.958 40.432C475.742 40.432 474.803 40.784 474.142 41.488C473.502 42.192 473.182 43.152 473.182 44.368V47.12C473.182 48.3147 473.502 49.2747 474.142 50C474.803 50.704 475.763 51.056 477.022 51.056C478.003 51.056 478.782 50.832 479.358 50.384C479.955 49.936 480.435 49.3387 480.798 48.592L483.87 50.416C483.315 51.5893 482.473 52.5493 481.342 53.296C480.233 54.0213 478.782 54.384 476.99 54.384ZM495.538 54.384C494.279 54.384 493.148 54.1813 492.146 53.776C491.164 53.3707 490.322 52.7947 489.618 52.048C488.935 51.3013 488.402 50.3947 488.018 49.328C487.655 48.2613 487.474 47.0667 487.474 45.744C487.474 44.4213 487.655 43.2267 488.018 42.16C488.402 41.0933 488.935 40.1867 489.618 39.44C490.322 38.6933 491.164 38.1173 492.146 37.712C493.148 37.3067 494.279 37.104 495.538 37.104C496.775 37.104 497.895 37.3067 498.898 37.712C499.9 38.1173 500.743 38.6933 501.426 39.44C502.13 40.1867 502.663 41.0933 503.026 42.16C503.41 43.2267 503.602 44.4213 503.602 45.744C503.602 47.0667 503.41 48.2613 503.026 49.328C502.663 50.3947 502.13 51.3013 501.426 52.048C500.743 52.7947 499.9 53.3707 498.898 53.776C497.895 54.1813 496.775 54.384 495.538 54.384ZM495.538 51.248C496.711 51.248 497.639 50.896 498.322 50.192C499.004 49.4667 499.346 48.4107 499.346 47.024V44.464C499.346 43.0773 499.004 42.032 498.322 41.328C497.639 40.6027 496.711 40.24 495.538 40.24C494.364 40.24 493.436 40.6027 492.754 41.328C492.071 42.032 491.73 43.0773 491.73 44.464V47.024C491.73 48.4107 492.071 49.4667 492.754 50.192C493.436 50.896 494.364 51.248 495.538 51.248ZM277.179 92.768H282.427V75.552H277.179V72.32H286.523V92.768H291.803V96H277.179V92.768ZM303.663 96.384C302.404 96.384 301.273 96.1813 300.271 95.776C299.289 95.3707 298.447 94.7947 297.743 94.048C297.06 93.3013 296.527 92.3947 296.143 91.328C295.78 90.2613 295.599 89.0667 295.599 87.744C295.599 86.4213 295.78 85.2267 296.143 84.16C296.527 83.0933 297.06 82.1867 297.743 81.44C298.447 80.6933 299.289 80.1173 300.271 79.712C301.273 79.3067 302.404 79.104 303.663 79.104C304.9 79.104 306.02 79.3067 307.023 79.712C308.025 80.1173 308.868 80.6933 309.551 81.44C310.255 82.1867 310.788 83.0933 311.151 84.16C311.535 85.2267 311.727 86.4213 311.727 87.744C311.727 89.0667 311.535 90.2613 311.151 91.328C310.788 92.3947 310.255 93.3013 309.551 94.048C308.868 94.7947 308.025 95.3707 307.023 95.776C306.02 96.1813 304.9 96.384 303.663 96.384ZM303.663 93.248C304.836 93.248 305.764 92.896 306.447 92.192C307.129 91.4667 307.471 90.4107 307.471 89.024V86.464C307.471 85.0773 307.129 84.032 306.447 83.328C305.764 82.6027 304.836 82.24 303.663 82.24C302.489 82.24 301.561 82.6027 300.879 83.328C300.196 84.032 299.855 85.0773 299.855 86.464V89.024C299.855 90.4107 300.196 91.4667 300.879 92.192C301.561 92.896 302.489 93.248 303.663 93.248ZM331.682 97.728C331.682 99.456 330.957 100.725 329.506 101.536C328.077 102.368 325.837 102.784 322.786 102.784C321.293 102.784 320.045 102.688 319.042 102.496C318.039 102.325 317.229 102.069 316.61 101.728C316.013 101.387 315.586 100.971 315.33 100.48C315.074 100.011 314.946 99.4773 314.946 98.88C314.946 97.9627 315.213 97.2587 315.746 96.768C316.279 96.2773 317.026 95.9147 317.986 95.68V95.424C317.346 95.2107 316.834 94.912 316.45 94.528C316.087 94.144 315.906 93.6107 315.906 92.928C315.906 92.1173 316.173 91.5093 316.706 91.104C317.261 90.6987 317.986 90.3893 318.882 90.176V90.016C317.901 89.5467 317.133 88.8853 316.578 88.032C316.023 87.1787 315.746 86.144 315.746 84.928C315.746 84.0107 315.906 83.2 316.226 82.496C316.567 81.7707 317.037 81.1627 317.634 80.672C318.253 80.16 318.989 79.776 319.842 79.52C320.695 79.2427 321.645 79.104 322.69 79.104C323.799 79.104 324.802 79.2533 325.698 79.552V78.848C325.698 78.208 325.901 77.6747 326.306 77.248C326.733 76.8213 327.319 76.608 328.066 76.608H331.042V79.68H327.138V80.224C327.949 80.7147 328.567 81.3547 328.994 82.144C329.442 82.912 329.666 83.84 329.666 84.928C329.666 85.8453 329.495 86.6667 329.154 87.392C328.834 88.1173 328.365 88.7253 327.746 89.216C327.149 89.7067 326.413 90.0907 325.538 90.368C324.685 90.624 323.735 90.752 322.69 90.752C322.263 90.752 321.847 90.7413 321.442 90.72C321.058 90.6773 320.685 90.6027 320.322 90.496C320.023 90.6027 319.735 90.7733 319.458 91.008C319.181 91.2427 319.042 91.552 319.042 91.936C319.042 92.448 319.287 92.768 319.778 92.896C320.269 93.0027 320.855 93.056 321.538 93.056H325.282C326.434 93.056 327.415 93.1733 328.226 93.408C329.037 93.6213 329.698 93.9413 330.21 94.368C330.722 94.7733 331.095 95.264 331.33 95.84C331.565 96.416 331.682 97.0453 331.682 97.728ZM327.842 98.016C327.842 97.5253 327.639 97.1307 327.234 96.832C326.85 96.5547 326.125 96.416 325.058 96.416H319.362C318.722 96.7787 318.402 97.312 318.402 98.016C318.402 98.592 318.637 99.072 319.106 99.456C319.597 99.84 320.418 100.032 321.57 100.032H324.226C326.637 100.032 327.842 99.36 327.842 98.016ZM322.69 88.064C323.735 88.064 324.503 87.8187 324.994 87.328C325.485 86.816 325.73 86.1547 325.73 85.344V84.512C325.73 83.7013 325.485 83.0507 324.994 82.56C324.503 82.048 323.735 81.792 322.69 81.792C321.666 81.792 320.909 82.048 320.418 82.56C319.927 83.0507 319.682 83.7013 319.682 84.512V85.344C319.682 86.1547 319.927 86.816 320.418 87.328C320.909 87.8187 321.666 88.064 322.69 88.064ZM123.679 176.768H128.927V159.552H123.679V156.32H133.023V176.768H138.303V180H123.679V176.768ZM156.243 180C155.24 180 154.461 179.755 153.907 179.264C153.373 178.752 153.053 178.048 152.947 177.152H152.787C152.488 178.176 151.901 178.976 151.027 179.552C150.152 180.107 149.075 180.384 147.795 180.384C146.131 180.384 144.808 179.947 143.827 179.072C142.845 178.197 142.355 176.981 142.355 175.424C142.355 172.096 144.797 170.432 149.683 170.432H152.595V169.344C152.595 168.299 152.339 167.509 151.827 166.976C151.315 166.443 150.483 166.176 149.331 166.176C148.285 166.176 147.443 166.379 146.803 166.784C146.163 167.189 145.619 167.712 145.171 168.352L142.835 166.368C143.347 165.451 144.168 164.683 145.299 164.064C146.451 163.424 147.933 163.104 149.747 163.104C151.923 163.104 153.619 163.616 154.835 164.64C156.072 165.643 156.691 167.147 156.691 169.152V176.928H158.642V180H156.243ZM149.171 177.568C150.152 177.568 150.963 177.344 151.603 176.896C152.264 176.427 152.595 175.797 152.595 175.008V172.8H149.779C147.539 172.8 146.419 173.504 146.419 174.912V175.552C146.419 176.213 146.664 176.715 147.155 177.056C147.645 177.397 148.317 177.568 149.171 177.568ZM162.15 180V163.488H166.246V166.4H166.406C166.769 165.504 167.323 164.736 168.07 164.096C168.838 163.435 169.894 163.104 171.238 163.104C172.859 163.104 174.171 163.648 175.174 164.736C176.198 165.803 176.71 167.339 176.71 169.344V180H172.614V169.92C172.614 167.531 171.579 166.336 169.51 166.336C169.083 166.336 168.678 166.389 168.294 166.496C167.91 166.603 167.558 166.773 167.238 167.008C166.939 167.221 166.694 167.488 166.502 167.808C166.331 168.128 166.246 168.512 166.246 168.96V180H162.15ZM189.178 180.384C187.919 180.384 186.788 180.181 185.786 179.776C184.783 179.371 183.93 178.795 183.226 178.048C182.543 177.301 182.01 176.395 181.626 175.328C181.263 174.261 181.082 173.067 181.082 171.744C181.082 170.421 181.263 169.227 181.626 168.16C182.01 167.093 182.543 166.187 183.226 165.44C183.93 164.693 184.772 164.117 185.754 163.712C186.756 163.307 187.887 163.104 189.146 163.104C190.895 163.104 192.303 163.467 193.37 164.192C194.436 164.917 195.247 165.877 195.802 167.072L192.634 168.8C192.335 168.096 191.908 167.531 191.354 167.104C190.82 166.656 190.084 166.432 189.146 166.432C187.93 166.432 186.991 166.784 186.33 167.488C185.69 168.192 185.37 169.152 185.37 170.368V173.12C185.37 174.315 185.69 175.275 186.33 176C186.991 176.704 187.951 177.056 189.21 177.056C190.191 177.056 190.97 176.832 191.546 176.384C192.143 175.936 192.623 175.339 192.986 174.592L196.058 176.416C195.503 177.589 194.66 178.549 193.53 179.296C192.42 180.021 190.97 180.384 189.178 180.384ZM213.805 180C212.802 180 212.024 179.755 211.469 179.264C210.936 178.752 210.616 178.048 210.509 177.152H210.349C210.05 178.176 209.464 178.976 208.589 179.552C207.714 180.107 206.637 180.384 205.357 180.384C203.693 180.384 202.37 179.947 201.389 179.072C200.408 178.197 199.917 176.981 199.917 175.424C199.917 172.096 202.36 170.432 207.245 170.432H210.157V169.344C210.157 168.299 209.901 167.509 209.389 166.976C208.877 166.443 208.045 166.176 206.893 166.176C205.848 166.176 205.005 166.379 204.365 166.784C203.725 167.189 203.181 167.712 202.733 168.352L200.397 166.368C200.909 165.451 201.73 164.683 202.861 164.064C204.013 163.424 205.496 163.104 207.309 163.104C209.485 163.104 211.181 163.616 212.397 164.64C213.634 165.643 214.253 167.147 214.253 169.152V176.928H216.205V180H213.805ZM206.733 177.568C207.714 177.568 208.525 177.344 209.165 176.896C209.826 176.427 210.157 175.797 210.157 175.008V172.8H207.341C205.101 172.8 203.981 173.504 203.981 174.912V175.552C203.981 176.213 204.226 176.715 204.717 177.056C205.208 177.397 205.88 177.568 206.733 177.568ZM219.713 176.768H223.809V166.72H219.713V163.488H227.905V168H228.161C228.31 167.424 228.513 166.869 228.769 166.336C229.046 165.781 229.387 165.301 229.793 164.896C230.219 164.469 230.731 164.128 231.329 163.872C231.926 163.616 232.641 163.488 233.472 163.488H235.265V167.328H231.873C230.635 167.328 229.665 167.691 228.961 168.416C228.257 169.141 227.905 170.069 227.905 171.2V176.768H233.633V180H219.713V176.768ZM239.156 180V157.664H253.748V161.12H243.348V166.944H252.724V170.4H243.348V180H239.156ZM265.672 180.384C264.349 180.384 263.176 180.181 262.152 179.776C261.128 179.371 260.264 178.795 259.56 178.048C258.877 177.301 258.354 176.405 257.992 175.36C257.629 174.293 257.448 173.099 257.448 171.776C257.448 170.432 257.629 169.227 257.992 168.16C258.376 167.093 258.909 166.187 259.592 165.44C260.274 164.693 261.096 164.117 262.056 163.712C263.037 163.307 264.136 163.104 265.352 163.104C266.546 163.104 267.624 163.307 268.584 163.712C269.544 164.096 270.354 164.651 271.016 165.376C271.698 166.101 272.221 166.976 272.583 168C272.946 169.024 273.128 170.155 273.128 171.392V172.736H261.544V173.152C261.544 174.347 261.917 175.317 262.664 176.064C263.41 176.789 264.456 177.152 265.8 177.152C266.824 177.152 267.698 176.949 268.424 176.544C269.17 176.117 269.789 175.563 270.28 174.88L272.616 177.216C272.018 178.091 271.144 178.837 269.992 179.456C268.861 180.075 267.421 180.384 265.672 180.384ZM265.384 166.112C264.232 166.112 263.304 166.475 262.6 167.2C261.896 167.925 261.544 168.885 261.544 170.08V170.304H269.032V170.016C269.032 168.821 268.701 167.872 268.04 167.168C267.4 166.464 266.514 166.112 265.384 166.112ZM285.499 160.928C284.539 160.928 283.856 160.725 283.451 160.32C283.067 159.915 282.875 159.424 282.875 158.848V158.08C282.875 157.504 283.067 157.013 283.451 156.608C283.856 156.203 284.539 156 285.499 156C286.459 156 287.131 156.203 287.515 156.608C287.92 157.013 288.123 157.504 288.123 158.08V158.848C288.123 159.424 287.92 159.915 287.515 160.32C287.131 160.725 286.459 160.928 285.499 160.928ZM278.011 176.768H283.451V166.72H278.011V163.488H287.547V176.768H292.603V180H278.011V176.768ZM304.783 180C303.204 180 302.041 179.584 301.295 178.752C300.548 177.92 300.175 176.843 300.175 175.52V166.72H295.375V163.488H298.639C299.3 163.488 299.769 163.36 300.047 163.104C300.324 162.827 300.463 162.347 300.463 161.664V157.664H304.271V163.488H310.991V166.72H304.271V176.768H310.991V180H304.783ZM323.874 160.928C322.914 160.928 322.231 160.725 321.826 160.32C321.442 159.915 321.25 159.424 321.25 158.848V158.08C321.25 157.504 321.442 157.013 321.826 156.608C322.231 156.203 322.914 156 323.874 156C324.834 156 325.506 156.203 325.89 156.608C326.295 157.013 326.498 157.504 326.498 158.08V158.848C326.498 159.424 326.295 159.915 325.89 160.32C325.506 160.725 324.834 160.928 323.874 160.928ZM316.386 176.768H321.826V166.72H316.386V163.488H325.922V176.768H330.978V180H316.386V176.768ZM342.678 180.384C341.419 180.384 340.288 180.181 339.286 179.776C338.283 179.371 337.43 178.795 336.726 178.048C336.043 177.301 335.51 176.395 335.126 175.328C334.763 174.261 334.582 173.067 334.582 171.744C334.582 170.421 334.763 169.227 335.126 168.16C335.51 167.093 336.043 166.187 336.726 165.44C337.43 164.693 338.272 164.117 339.254 163.712C340.256 163.307 341.387 163.104 342.646 163.104C344.395 163.104 345.803 163.467 346.87 164.192C347.936 164.917 348.747 165.877 349.302 167.072L346.134 168.8C345.835 168.096 345.408 167.531 344.854 167.104C344.32 166.656 343.584 166.432 342.646 166.432C341.43 166.432 340.491 166.784 339.83 167.488C339.19 168.192 338.87 169.152 338.87 170.368V173.12C338.87 174.315 339.19 175.275 339.83 176C340.491 176.704 341.451 177.056 342.71 177.056C343.691 177.056 344.47 176.832 345.046 176.384C345.643 175.936 346.123 175.339 346.486 174.592L349.558 176.416C349.003 177.589 348.16 178.549 347.03 179.296C345.92 180.021 344.47 180.384 342.678 180.384ZM361.225 180.384C359.966 180.384 358.836 180.181 357.833 179.776C356.852 179.371 356.009 178.795 355.305 178.048C354.622 177.301 354.089 176.395 353.705 175.328C353.342 174.261 353.161 173.067 353.161 171.744C353.161 170.421 353.342 169.227 353.705 168.16C354.089 167.093 354.622 166.187 355.305 165.44C356.009 164.693 356.852 164.117 357.833 163.712C358.836 163.307 359.966 163.104 361.225 163.104C362.462 163.104 363.582 163.307 364.585 163.712C365.588 164.117 366.43 164.693 367.113 165.44C367.817 166.187 368.35 167.093 368.713 168.16C369.097 169.227 369.289 170.421 369.289 171.744C369.289 173.067 369.097 174.261 368.713 175.328C368.35 176.395 367.817 177.301 367.113 178.048C366.43 178.795 365.588 179.371 364.585 179.776C363.582 180.181 362.462 180.384 361.225 180.384ZM361.225 177.248C362.398 177.248 363.326 176.896 364.009 176.192C364.692 175.467 365.033 174.411 365.033 173.024V170.464C365.033 169.077 364.692 168.032 364.009 167.328C363.326 166.603 362.398 166.24 361.225 166.24C360.052 166.24 359.124 166.603 358.441 167.328C357.758 168.032 357.417 169.077 357.417 170.464V173.024C357.417 174.411 357.758 175.467 358.441 176.192C359.124 176.896 360.052 177.248 361.225 177.248Z" fill="#F4E498"/>
<path d="M510.981 44.048C510.981 42.4907 511.152 40.9973 511.493 39.568C511.856 38.1173 512.336 36.7733 512.933 35.536C513.552 34.2987 514.266 33.1893 515.077 32.208C515.888 31.2053 516.741 30.3627 517.637 29.68H521.733C520.773 30.3627 519.856 31.1627 518.981 32.08C518.106 32.9973 517.338 34.0107 516.677 35.12C516.016 36.208 515.482 37.3813 515.077 38.64C514.693 39.8773 514.501 41.168 514.501 42.512V45.584C514.501 46.928 514.693 48.2293 515.077 49.488C515.482 50.7253 516.016 51.8987 516.677 53.008C517.338 54.096 518.106 55.0987 518.981 56.016C519.856 56.9333 520.773 57.7333 521.733 58.416H517.637C516.741 57.7547 515.888 56.9227 515.077 55.92C514.266 54.9173 513.552 53.7973 512.933 52.56C512.336 51.3227 511.856 49.9893 511.493 48.56C511.152 47.1093 510.981 45.6053 510.981 44.048ZM671.969 44.048C671.969 45.6053 671.788 47.1093 671.425 48.56C671.084 49.9893 670.604 51.3227 669.985 52.56C669.388 53.7973 668.684 54.9173 667.873 55.92C667.062 56.9227 666.209 57.7547 665.313 58.416H661.217C662.177 57.7333 663.094 56.9333 663.969 56.016C664.844 55.0987 665.612 54.096 666.273 53.008C666.934 51.8987 667.457 50.7253 667.841 49.488C668.246 48.2293 668.449 46.928 668.449 45.584V42.512C668.449 41.168 668.246 39.8773 667.841 38.64C667.457 37.3813 666.934 36.208 666.273 35.12C665.612 34.0107 664.844 32.9973 663.969 32.08C663.094 31.1627 662.177 30.3627 661.217 29.68H665.313C666.209 30.3627 667.062 31.2053 667.873 32.208C668.684 33.1893 669.388 34.2987 669.985 35.536C670.604 36.7733 671.084 38.1173 671.425 39.568C671.788 40.9973 671.969 42.4907 671.969 44.048ZM707.464 58.416C706.184 58.416 705.256 58.1173 704.68 57.52C704.104 56.9227 703.816 56.1547 703.816 55.216V53.616C703.816 53.0613 703.869 52.5813 703.976 52.176C704.104 51.7493 704.253 51.376 704.424 51.056C704.595 50.736 704.787 50.448 705 50.192C705.213 49.936 705.416 49.6907 705.608 49.456C705.971 49.0293 706.216 48.6667 706.344 48.368C706.493 48.048 706.568 47.7173 706.568 47.376C706.568 46.096 705.331 45.456 702.856 45.456H700.072V42.64H702.856C705.331 42.64 706.568 42 706.568 40.72C706.568 40.3787 706.493 40.0587 706.344 39.76C706.216 39.44 705.971 39.0667 705.608 38.64C705.416 38.4053 705.213 38.16 705 37.904C704.787 37.648 704.595 37.36 704.424 37.04C704.253 36.72 704.104 36.3573 703.976 35.952C703.869 35.5253 703.816 35.0347 703.816 34.48V32.88C703.816 31.9413 704.104 31.1733 704.68 30.576C705.256 29.9787 706.184 29.68 707.464 29.68H713.128V32.496H707.144V34.288C707.144 35.12 707.272 35.76 707.528 36.208C707.784 36.656 708.083 37.0933 708.424 37.52C708.787 37.968 709.128 38.448 709.448 38.96C709.768 39.472 709.928 40.0693 709.928 40.752C709.928 41.648 709.619 42.3733 709 42.928C708.381 43.4613 707.464 43.8027 706.248 43.952V44.144C707.464 44.2933 708.381 44.6453 709 45.2C709.619 45.7333 709.928 46.448 709.928 47.344C709.928 48.0267 709.768 48.624 709.448 49.136C709.128 49.648 708.787 50.128 708.424 50.576C708.083 51.0027 707.784 51.44 707.528 51.888C707.272 52.336 707.144 52.976 707.144 53.808V55.6H713.128V58.416H707.464ZM338.294 86.048C338.294 84.4907 338.464 82.9973 338.806 81.568C339.168 80.1173 339.648 78.7733 340.246 77.536C340.864 76.2987 341.579 75.1893 342.39 74.208C343.2 73.2053 344.054 72.3627 344.95 71.68H349.046C348.086 72.3627 347.168 73.1627 346.294 74.08C345.419 74.9973 344.651 76.0107 343.99 77.12C343.328 78.208 342.795 79.3813 342.39 80.64C342.006 81.8773 341.814 83.168 341.814 84.512V87.584C341.814 88.928 342.006 90.2293 342.39 91.488C342.795 92.7253 343.328 93.8987 343.99 95.008C344.651 96.096 345.419 97.0987 346.294 98.016C347.168 98.9333 348.086 99.7333 349.046 100.416H344.95C344.054 99.7547 343.2 98.9227 342.39 97.92C341.579 96.9173 340.864 95.7973 340.246 94.56C339.648 93.3227 339.168 91.9893 338.806 90.56C338.464 89.1093 338.294 87.6053 338.294 86.048ZM781.558 94.016V87.872H775.734V84.576H781.558V78.432H785.142V84.576H790.966V87.872H785.142V94.016H781.558ZM959.782 86.048C959.782 87.6053 959.6 89.1093 959.238 90.56C958.896 91.9893 958.416 93.3227 957.798 94.56C957.2 95.7973 956.496 96.9173 955.686 97.92C954.875 98.9227 954.022 99.7547 953.126 100.416H949.03C949.99 99.7333 950.907 98.9333 951.782 98.016C952.656 97.0987 953.424 96.096 954.086 95.008C954.747 93.8987 955.27 92.7253 955.654 91.488C956.059 90.2293 956.262 88.928 956.262 87.584V84.512C956.262 83.168 956.059 81.8773 955.654 80.64C955.27 79.3813 954.747 78.208 954.086 77.12C953.424 76.0107 952.656 74.9973 951.782 74.08C950.907 73.1627 949.99 72.3627 949.03 71.68H953.126C954.022 72.3627 954.875 73.2053 955.686 74.208C956.496 75.1893 957.2 76.2987 957.798 77.536C958.416 78.7733 958.896 80.1173 959.238 81.568C959.6 82.9973 959.782 84.4907 959.782 86.048ZM973.177 90.784H978.681L974.489 100.736H971.385L973.177 90.784ZM975.225 84.992C974.116 84.992 973.326 84.7573 972.857 84.288C972.388 83.8187 972.153 83.2427 972.153 82.56V81.6C972.153 80.9173 972.388 80.3413 972.857 79.872C973.326 79.4027 974.116 79.168 975.225 79.168C976.334 79.168 977.124 79.4027 977.593 79.872C978.062 80.3413 978.297 80.9173 978.297 81.6V82.56C978.297 83.2427 978.062 83.8187 977.593 84.288C977.124 84.7573 976.334 84.992 975.225 84.992ZM130.111 113.68C131.391 113.68 132.319 113.979 132.895 114.576C133.471 115.173 133.759 115.941 133.759 116.88V118.48C133.759 119.035 133.695 119.525 133.567 119.952C133.46 120.357 133.322 120.72 133.151 121.04C132.98 121.36 132.788 121.648 132.575 121.904C132.362 122.16 132.159 122.405 131.967 122.64C131.604 123.067 131.348 123.44 131.199 123.76C131.071 124.059 131.007 124.379 131.007 124.72C131.007 126 132.244 126.64 134.719 126.64H137.503V129.456H134.719C132.244 129.456 131.007 130.096 131.007 131.376C131.007 131.717 131.071 132.048 131.199 132.368C131.348 132.667 131.604 133.029 131.967 133.456C132.159 133.691 132.362 133.936 132.575 134.192C132.788 134.448 132.98 134.736 133.151 135.056C133.322 135.376 133.46 135.749 133.567 136.176C133.695 136.581 133.759 137.061 133.759 137.616V139.216C133.759 140.155 133.471 140.923 132.895 141.52C132.319 142.117 131.391 142.416 130.111 142.416H124.447V139.6H130.431V137.808C130.431 136.976 130.303 136.336 130.047 135.888C129.791 135.44 129.492 135.003 129.151 134.576C128.788 134.128 128.447 133.648 128.127 133.136C127.807 132.624 127.647 132.027 127.647 131.344C127.647 130.448 127.956 129.733 128.575 129.2C129.194 128.645 130.111 128.293 131.327 128.144V127.952C130.111 127.803 129.194 127.461 128.575 126.928C127.956 126.373 127.647 125.648 127.647 124.752C127.647 124.069 127.807 123.472 128.127 122.96C128.447 122.448 128.788 121.968 129.151 121.52C129.492 121.093 129.791 120.656 130.047 120.208C130.303 119.76 130.431 119.12 130.431 118.288V116.496H124.447V113.68H130.111ZM376.669 170.048C376.669 168.491 376.839 166.997 377.181 165.568C377.543 164.117 378.023 162.773 378.621 161.536C379.239 160.299 379.954 159.189 380.765 158.208C381.575 157.205 382.429 156.363 383.325 155.68H387.421C386.461 156.363 385.543 157.163 384.669 158.08C383.794 158.997 383.026 160.011 382.365 161.12C381.703 162.208 381.17 163.381 380.765 164.64C380.381 165.877 380.189 167.168 380.189 168.512V171.584C380.189 172.928 380.381 174.229 380.765 175.488C381.17 176.725 381.703 177.899 382.365 179.008C383.026 180.096 383.794 181.099 384.669 182.016C385.543 182.933 386.461 183.733 387.421 184.416H383.325C382.429 183.755 381.575 182.923 380.765 181.92C379.954 180.917 379.239 179.797 378.621 178.56C378.023 177.323 377.543 175.989 377.181 174.56C376.839 173.109 376.669 171.605 376.669 170.048ZM671.969 170.048C671.969 171.605 671.788 173.109 671.425 174.56C671.084 175.989 670.604 177.323 669.985 178.56C669.388 179.797 668.684 180.917 667.873 181.92C667.062 182.923 666.209 183.755 665.313 184.416H661.217C662.177 183.733 663.094 182.933 663.969 182.016C664.844 181.099 665.612 180.096 666.273 179.008C666.934 177.899 667.457 176.725 667.841 175.488C668.246 174.229 668.449 172.928 668.449 171.584V168.512C668.449 167.168 668.246 165.877 667.841 164.64C667.457 163.381 666.934 162.208 666.273 161.12C665.612 160.011 664.844 158.997 663.969 158.08C663.094 157.163 662.177 156.363 661.217 155.68H665.313C666.209 156.363 667.062 157.205 667.873 158.208C668.684 159.189 669.388 160.299 669.985 161.536C670.604 162.773 671.084 164.117 671.425 165.568C671.788 166.997 671.969 168.491 671.969 170.048ZM685.365 174.784H690.869L686.677 184.736H683.573L685.365 174.784ZM687.413 168.992C686.303 168.992 685.514 168.757 685.045 168.288C684.575 167.819 684.341 167.243 684.341 166.56V165.6C684.341 164.917 684.575 164.341 685.045 163.872C685.514 163.403 686.303 163.168 687.413 163.168C688.522 163.168 689.311 163.403 689.781 163.872C690.25 164.341 690.485 164.917 690.485 165.6V166.56C690.485 167.243 690.25 167.819 689.781 168.288C689.311 168.757 688.522 168.992 687.413 168.992Z" fill="white"/>
<path d="M526.713 50.768H531.769V40.72H526.393V37.488H531.769V34.8C531.769 34.1387 531.854 33.5413 532.025 33.008C532.217 32.4533 532.505 31.984 532.889 31.6C533.273 31.1947 533.753 30.8853 534.329 30.672C534.926 30.4373 535.619 30.32 536.409 30.32H541.977V33.552H535.865V37.488H541.977V40.72H535.865V50.768H541.241V54H526.713V50.768ZM553.484 54.384C552.161 54.384 550.988 54.1813 549.964 53.776C548.94 53.3707 548.076 52.7947 547.372 52.048C546.689 51.3013 546.167 50.4053 545.804 49.36C545.441 48.2933 545.26 47.0987 545.26 45.776C545.26 44.432 545.441 43.2267 545.804 42.16C546.188 41.0933 546.721 40.1867 547.404 39.44C548.087 38.6933 548.908 38.1173 549.868 37.712C550.849 37.3067 551.948 37.104 553.164 37.104C554.359 37.104 555.436 37.3067 556.396 37.712C557.356 38.096 558.167 38.6507 558.828 39.376C559.511 40.1013 560.033 40.976 560.396 42C560.759 43.024 560.94 44.1547 560.94 45.392V46.736H549.356V47.152C549.356 48.3467 549.729 49.3173 550.476 50.064C551.223 50.7893 552.268 51.152 553.612 51.152C554.636 51.152 555.511 50.9493 556.236 50.544C556.983 50.1173 557.601 49.5627 558.092 48.88L560.428 51.216C559.831 52.0907 558.956 52.8373 557.804 53.456C556.673 54.0747 555.233 54.384 553.484 54.384ZM553.196 40.112C552.044 40.112 551.116 40.4747 550.412 41.2C549.708 41.9253 549.356 42.8853 549.356 44.08V44.304H556.844V44.016C556.844 42.8213 556.513 41.872 555.852 41.168C555.212 40.464 554.327 40.112 553.196 40.112ZM573.312 34.928C572.352 34.928 571.669 34.7253 571.264 34.32C570.88 33.9147 570.688 33.424 570.688 32.848V32.08C570.688 31.504 570.88 31.0133 571.264 30.608C571.669 30.2027 572.352 30 573.312 30C574.272 30 574.944 30.2027 575.328 30.608C575.733 31.0133 575.936 31.504 575.936 32.08V32.848C575.936 33.424 575.733 33.9147 575.328 34.32C574.944 34.7253 574.272 34.928 573.312 34.928ZM565.824 50.768H571.264V40.72H565.824V37.488H575.36V50.768H580.416V54H565.824V50.768ZM592.595 54C591.016 54 589.854 53.584 589.107 52.752C588.36 51.92 587.987 50.8427 587.987 49.52V40.72H583.187V37.488H586.451C587.112 37.488 587.582 37.36 587.859 37.104C588.136 36.8267 588.275 36.3467 588.275 35.664V31.664H592.083V37.488H598.803V40.72H592.083V50.768H598.803V54H592.595ZM611.687 34.928C610.727 34.928 610.044 34.7253 609.639 34.32C609.255 33.9147 609.062 33.424 609.062 32.848V32.08C609.062 31.504 609.255 31.0133 609.639 30.608C610.044 30.2027 610.727 30 611.687 30C612.647 30 613.319 30.2027 613.703 30.608C614.108 31.0133 614.311 31.504 614.311 32.08V32.848C614.311 33.424 614.108 33.9147 613.703 34.32C613.319 34.7253 612.647 34.928 611.687 34.928ZM604.199 50.768H609.639V40.72H604.199V37.488H613.735V50.768H618.791V54H604.199V50.768ZM630.49 54.384C629.231 54.384 628.101 54.1813 627.098 53.776C626.095 53.3707 625.242 52.7947 624.538 52.048C623.855 51.3013 623.322 50.3947 622.938 49.328C622.575 48.2613 622.394 47.0667 622.394 45.744C622.394 44.4213 622.575 43.2267 622.938 42.16C623.322 41.0933 623.855 40.1867 624.538 39.44C625.242 38.6933 626.085 38.1173 627.066 37.712C628.069 37.3067 629.199 37.104 630.458 37.104C632.207 37.104 633.615 37.4667 634.682 38.192C635.749 38.9173 636.559 39.8773 637.114 41.072L633.946 42.8C633.647 42.096 633.221 41.5307 632.666 41.104C632.133 40.656 631.397 40.432 630.458 40.432C629.242 40.432 628.303 40.784 627.642 41.488C627.002 42.192 626.682 43.152 626.682 44.368V47.12C626.682 48.3147 627.002 49.2747 627.642 50C628.303 50.704 629.263 51.056 630.522 51.056C631.503 51.056 632.282 50.832 632.858 50.384C633.455 49.936 633.935 49.3387 634.298 48.592L637.37 50.416C636.815 51.5893 635.973 52.5493 634.842 53.296C633.733 54.0213 632.282 54.384 630.49 54.384ZM649.038 54.384C647.779 54.384 646.648 54.1813 645.646 53.776C644.664 53.3707 643.822 52.7947 643.118 52.048C642.435 51.3013 641.902 50.3947 641.518 49.328C641.155 48.2613 640.974 47.0667 640.974 45.744C640.974 44.4213 641.155 43.2267 641.518 42.16C641.902 41.0933 642.435 40.1867 643.118 39.44C643.822 38.6933 644.664 38.1173 645.646 37.712C646.648 37.3067 647.779 37.104 649.038 37.104C650.275 37.104 651.395 37.3067 652.398 37.712C653.4 38.1173 654.243 38.6933 654.926 39.44C655.63 40.1867 656.163 41.0933 656.526 42.16C656.91 43.2267 657.102 44.4213 657.102 45.744C657.102 47.0667 656.91 48.2613 656.526 49.328C656.163 50.3947 655.63 51.3013 654.926 52.048C654.243 52.7947 653.4 53.3707 652.398 53.776C651.395 54.1813 650.275 54.384 649.038 54.384ZM649.038 51.248C650.211 51.248 651.139 50.896 651.822 50.192C652.504 49.4667 652.846 48.4107 652.846 47.024V44.464C652.846 43.0773 652.504 42.032 651.822 41.328C651.139 40.6027 650.211 40.24 649.038 40.24C647.864 40.24 646.936 40.6027 646.254 41.328C645.571 42.032 645.23 43.0773 645.23 44.464V47.024C645.23 48.4107 645.571 49.4667 646.254 50.192C646.936 50.896 647.864 51.248 649.038 51.248ZM131.615 96.384C130.356 96.384 129.226 96.1813 128.223 95.776C127.22 95.3707 126.367 94.7947 125.663 94.048C124.98 93.3013 124.447 92.3947 124.063 91.328C123.7 90.2613 123.519 89.0667 123.519 87.744C123.519 86.4213 123.7 85.2267 124.063 84.16C124.447 83.0933 124.98 82.1867 125.663 81.44C126.367 80.6933 127.21 80.1173 128.191 79.712C129.194 79.3067 130.324 79.104 131.583 79.104C133.332 79.104 134.74 79.4667 135.807 80.192C136.874 80.9173 137.684 81.8773 138.239 83.072L135.071 84.8C134.772 84.096 134.346 83.5307 133.791 83.104C133.258 82.656 132.522 82.432 131.583 82.432C130.367 82.432 129.428 82.784 128.767 83.488C128.127 84.192 127.807 85.152 127.807 86.368V89.12C127.807 90.3147 128.127 91.2747 128.767 92C129.428 92.704 130.388 93.056 131.647 93.056C132.628 93.056 133.407 92.832 133.983 92.384C134.58 91.936 135.06 91.3387 135.423 90.592L138.495 92.416C137.94 93.5893 137.098 94.5493 135.967 95.296C134.858 96.0213 133.407 96.384 131.615 96.384ZM150.163 96.384C148.904 96.384 147.773 96.1813 146.771 95.776C145.789 95.3707 144.947 94.7947 144.243 94.048C143.56 93.3013 143.027 92.3947 142.643 91.328C142.28 90.2613 142.099 89.0667 142.099 87.744C142.099 86.4213 142.28 85.2267 142.643 84.16C143.027 83.0933 143.56 82.1867 144.243 81.44C144.947 80.6933 145.789 80.1173 146.771 79.712C147.773 79.3067 148.904 79.104 150.163 79.104C151.4 79.104 152.52 79.3067 153.523 79.712C154.525 80.1173 155.368 80.6933 156.051 81.44C156.755 82.1867 157.288 83.0933 157.651 84.16C158.035 85.2267 158.227 86.4213 158.227 87.744C158.227 89.0667 158.035 90.2613 157.651 91.328C157.288 92.3947 156.755 93.3013 156.051 94.048C155.368 94.7947 154.525 95.3707 153.523 95.776C152.52 96.1813 151.4 96.384 150.163 96.384ZM150.163 93.248C151.336 93.248 152.264 92.896 152.947 92.192C153.629 91.4667 153.971 90.4107 153.971 89.024V86.464C153.971 85.0773 153.629 84.032 152.947 83.328C152.264 82.6027 151.336 82.24 150.163 82.24C148.989 82.24 148.061 82.6027 147.379 83.328C146.696 84.032 146.355 85.0773 146.355 86.464V89.024C146.355 90.4107 146.696 91.4667 147.379 92.192C148.061 92.896 148.989 93.248 150.163 93.248ZM162.15 96V79.488H166.246V82.4H166.406C166.769 81.504 167.323 80.736 168.07 80.096C168.838 79.4347 169.894 79.104 171.238 79.104C172.859 79.104 174.171 79.648 175.174 80.736C176.198 81.8027 176.71 83.3387 176.71 85.344V96H172.614V85.92C172.614 83.5307 171.579 82.336 169.51 82.336C169.083 82.336 168.678 82.3893 168.294 82.496C167.91 82.6027 167.558 82.7733 167.238 83.008C166.939 83.2213 166.694 83.488 166.502 83.808C166.331 84.128 166.246 84.512 166.246 84.96V96H162.15ZM188.474 96.384C186.66 96.384 185.092 96.1067 183.77 95.552C182.447 94.976 181.412 94.208 180.666 93.248L183.066 91.072C183.748 91.8187 184.527 92.3947 185.402 92.8C186.298 93.2053 187.332 93.408 188.506 93.408C189.53 93.408 190.351 93.2373 190.97 92.896C191.588 92.5547 191.898 92.032 191.898 91.328C191.898 90.7307 191.684 90.3253 191.258 90.112C190.852 89.8987 190.308 89.7387 189.626 89.632L186.97 89.216C186.287 89.1093 185.615 88.96 184.954 88.768C184.314 88.5547 183.738 88.2667 183.226 87.904C182.735 87.5413 182.34 87.0827 182.042 86.528C181.743 85.952 181.594 85.2587 181.594 84.448C181.594 82.72 182.234 81.3973 183.514 80.48C184.815 79.5627 186.596 79.104 188.858 79.104C190.458 79.104 191.812 79.328 192.922 79.776C194.052 80.224 194.98 80.8533 195.706 81.664L193.562 84.032C193.092 83.52 192.463 83.072 191.674 82.688C190.906 82.2827 189.924 82.08 188.73 82.08C186.639 82.08 185.594 82.7307 185.594 84.032C185.594 84.6293 185.807 85.0453 186.234 85.28C186.66 85.4933 187.215 85.6533 187.898 85.76L190.522 86.176C191.226 86.2827 191.898 86.4427 192.538 86.656C193.199 86.848 193.775 87.1253 194.266 87.488C194.778 87.8507 195.183 88.3093 195.482 88.864C195.78 89.4187 195.93 90.1013 195.93 90.912C195.93 92.6187 195.268 93.9627 193.946 94.944C192.644 95.904 190.82 96.384 188.474 96.384ZM207.725 96.384C206.466 96.384 205.336 96.1813 204.333 95.776C203.352 95.3707 202.509 94.7947 201.805 94.048C201.122 93.3013 200.589 92.3947 200.205 91.328C199.842 90.2613 199.661 89.0667 199.661 87.744C199.661 86.4213 199.842 85.2267 200.205 84.16C200.589 83.0933 201.122 82.1867 201.805 81.44C202.509 80.6933 203.352 80.1173 204.333 79.712C205.336 79.3067 206.466 79.104 207.725 79.104C208.962 79.104 210.082 79.3067 211.085 79.712C212.088 80.1173 212.93 80.6933 213.613 81.44C214.317 82.1867 214.85 83.0933 215.213 84.16C215.597 85.2267 215.789 86.4213 215.789 87.744C215.789 89.0667 215.597 90.2613 215.213 91.328C214.85 92.3947 214.317 93.3013 213.613 94.048C212.93 94.7947 212.088 95.3707 211.085 95.776C210.082 96.1813 208.962 96.384 207.725 96.384ZM207.725 93.248C208.898 93.248 209.826 92.896 210.509 92.192C211.192 91.4667 211.533 90.4107 211.533 89.024V86.464C211.533 85.0773 211.192 84.032 210.509 83.328C209.826 82.6027 208.898 82.24 207.725 82.24C206.552 82.24 205.624 82.6027 204.941 83.328C204.258 84.032 203.917 85.0773 203.917 86.464V89.024C203.917 90.4107 204.258 91.4667 204.941 92.192C205.624 92.896 206.552 93.248 207.725 93.248ZM219.617 92.768H224.865V75.552H219.617V72.32H228.961V92.768H234.241V96H219.617V92.768ZM246.484 96.384C245.161 96.384 243.988 96.1813 242.964 95.776C241.94 95.3707 241.076 94.7947 240.372 94.048C239.689 93.3013 239.167 92.4053 238.804 91.36C238.441 90.2933 238.26 89.0987 238.26 87.776C238.26 86.432 238.441 85.2267 238.804 84.16C239.188 83.0933 239.721 82.1867 240.404 81.44C241.087 80.6933 241.908 80.1173 242.868 79.712C243.849 79.3067 244.948 79.104 246.164 79.104C247.359 79.104 248.436 79.3067 249.396 79.712C250.356 80.096 251.167 80.6507 251.828 81.376C252.511 82.1013 253.033 82.976 253.396 84C253.759 85.024 253.94 86.1547 253.94 87.392V88.736H242.356V89.152C242.356 90.3467 242.729 91.3173 243.476 92.064C244.223 92.7893 245.268 93.152 246.612 93.152C247.636 93.152 248.511 92.9493 249.236 92.544C249.983 92.1173 250.601 91.5627 251.092 90.88L253.428 93.216C252.831 94.0907 251.956 94.8373 250.804 95.456C249.673 96.0747 248.233 96.384 246.484 96.384ZM246.196 82.112C245.044 82.112 244.116 82.4747 243.412 83.2C242.708 83.9253 242.356 84.8853 242.356 86.08V86.304H249.844V86.016C249.844 84.8213 249.513 83.872 248.852 83.168C248.212 82.464 247.327 82.112 246.196 82.112ZM814.525 92.768H819.581V82.72H814.205V79.488H819.581V76.8C819.581 76.1387 819.666 75.5413 819.837 75.008C820.029 74.4533 820.317 73.984 820.701 73.6C821.085 73.1947 821.565 72.8853 822.141 72.672C822.738 72.4373 823.432 72.32 824.221 72.32H829.789V75.552H823.677V79.488H829.789V82.72H823.677V92.768H829.053V96H814.525V92.768ZM841.297 96.384C839.974 96.384 838.801 96.1813 837.777 95.776C836.753 95.3707 835.889 94.7947 835.185 94.048C834.502 93.3013 833.979 92.4053 833.617 91.36C833.254 90.2933 833.073 89.0987 833.073 87.776C833.073 86.432 833.254 85.2267 833.617 84.16C834.001 83.0933 834.534 82.1867 835.217 81.44C835.899 80.6933 836.721 80.1173 837.681 79.712C838.662 79.3067 839.761 79.104 840.977 79.104C842.171 79.104 843.249 79.3067 844.209 79.712C845.169 80.096 845.979 80.6507 846.641 81.376C847.323 82.1013 847.846 82.976 848.208 84C848.571 85.024 848.753 86.1547 848.753 87.392V88.736H837.169V89.152C837.169 90.3467 837.542 91.3173 838.289 92.064C839.035 92.7893 840.081 93.152 841.425 93.152C842.449 93.152 843.323 92.9493 844.049 92.544C844.795 92.1173 845.414 91.5627 845.905 90.88L848.241 93.216C847.643 94.0907 846.769 94.8373 845.617 95.456C844.486 96.0747 843.046 96.384 841.297 96.384ZM841.009 82.112C839.857 82.112 838.929 82.4747 838.225 83.2C837.521 83.9253 837.169 84.8853 837.169 86.08V86.304H844.657V86.016C844.657 84.8213 844.326 83.872 843.665 83.168C843.025 82.464 842.139 82.112 841.009 82.112ZM861.124 76.928C860.164 76.928 859.481 76.7253 859.076 76.32C858.692 75.9147 858.5 75.424 858.5 74.848V74.08C858.5 73.504 858.692 73.0133 859.076 72.608C859.481 72.2027 860.164 72 861.124 72C862.084 72 862.756 72.2027 863.14 72.608C863.545 73.0133 863.748 73.504 863.748 74.08V74.848C863.748 75.424 863.545 75.9147 863.14 76.32C862.756 76.7253 862.084 76.928 861.124 76.928ZM853.636 92.768H859.076V82.72H853.636V79.488H863.172V92.768H868.228V96H853.636V92.768ZM880.408 96C878.829 96 877.666 95.584 876.92 94.752C876.173 93.92 875.8 92.8427 875.8 91.52V82.72H871V79.488H874.264C874.925 79.488 875.394 79.36 875.672 79.104C875.949 78.8267 876.088 78.3467 876.088 77.664V73.664H879.896V79.488H886.616V82.72H879.896V92.768H886.616V96H880.408ZM899.499 76.928C898.539 76.928 897.856 76.7253 897.451 76.32C897.067 75.9147 896.875 75.424 896.875 74.848V74.08C896.875 73.504 897.067 73.0133 897.451 72.608C897.856 72.2027 898.539 72 899.499 72C900.459 72 901.131 72.2027 901.515 72.608C901.92 73.0133 902.123 73.504 902.123 74.08V74.848C902.123 75.424 901.92 75.9147 901.515 76.32C901.131 76.7253 900.459 76.928 899.499 76.928ZM892.011 92.768H897.451V82.72H892.011V79.488H901.547V92.768H906.603V96H892.011V92.768ZM918.303 96.384C917.044 96.384 915.913 96.1813 914.911 95.776C913.908 95.3707 913.055 94.7947 912.351 94.048C911.668 93.3013 911.135 92.3947 910.751 91.328C910.388 90.2613 910.207 89.0667 910.207 87.744C910.207 86.4213 910.388 85.2267 910.751 84.16C911.135 83.0933 911.668 82.1867 912.351 81.44C913.055 80.6933 913.897 80.1173 914.879 79.712C915.881 79.3067 917.012 79.104 918.271 79.104C920.02 79.104 921.428 79.4667 922.495 80.192C923.561 80.9173 924.372 81.8773 924.927 83.072L921.759 84.8C921.46 84.096 921.033 83.5307 920.479 83.104C919.945 82.656 919.209 82.432 918.271 82.432C917.055 82.432 916.116 82.784 915.455 83.488C914.815 84.192 914.495 85.152 914.495 86.368V89.12C914.495 90.3147 914.815 91.2747 915.455 92C916.116 92.704 917.076 93.056 918.335 93.056C919.316 93.056 920.095 92.832 920.671 92.384C921.268 91.936 921.748 91.3387 922.111 90.592L925.183 92.416C924.628 93.5893 923.785 94.5493 922.655 95.296C921.545 96.0213 920.095 96.384 918.303 96.384ZM936.85 96.384C935.591 96.384 934.461 96.1813 933.458 95.776C932.477 95.3707 931.634 94.7947 930.93 94.048C930.247 93.3013 929.714 92.3947 929.33 91.328C928.967 90.2613 928.786 89.0667 928.786 87.744C928.786 86.4213 928.967 85.2267 929.33 84.16C929.714 83.0933 930.247 82.1867 930.93 81.44C931.634 80.6933 932.477 80.1173 933.458 79.712C934.461 79.3067 935.591 79.104 936.85 79.104C938.087 79.104 939.207 79.3067 940.21 79.712C941.213 80.1173 942.055 80.6933 942.738 81.44C943.442 82.1867 943.975 83.0933 944.338 84.16C944.722 85.2267 944.914 86.4213 944.914 87.744C944.914 89.0667 944.722 90.2613 944.338 91.328C943.975 92.3947 943.442 93.3013 942.738 94.048C942.055 94.7947 941.213 95.3707 940.21 95.776C939.207 96.1813 938.087 96.384 936.85 96.384ZM936.85 93.248C938.023 93.248 938.951 92.896 939.634 92.192C940.317 91.4667 940.658 90.4107 940.658 89.024V86.464C940.658 85.0773 940.317 84.032 939.634 83.328C938.951 82.6027 938.023 82.24 936.85 82.24C935.677 82.24 934.749 82.6027 934.066 83.328C933.383 84.032 933.042 85.0773 933.042 86.464V89.024C933.042 90.4107 933.383 91.4667 934.066 92.192C934.749 92.896 935.677 93.248 936.85 93.248Z" fill="#B2D1FF"/>
<path d="M356.041 82.304V72.32H359.753V82.304H356.041ZM362.729 82.304V72.32H366.441V82.304H362.729ZM374.013 96V73.664H378.205V92.544H388.093V96H374.013ZM405.68 96C404.677 96 403.899 95.7547 403.344 95.264C402.811 94.752 402.491 94.048 402.384 93.152H402.224C401.925 94.176 401.339 94.976 400.464 95.552C399.589 96.1067 398.512 96.384 397.232 96.384C395.568 96.384 394.245 95.9467 393.264 95.072C392.283 94.1973 391.792 92.9813 391.792 91.424C391.792 88.096 394.235 86.432 399.12 86.432H402.032V85.344C402.032 84.2987 401.776 83.5093 401.264 82.976C400.752 82.4427 399.92 82.176 398.768 82.176C397.723 82.176 396.88 82.3787 396.24 82.784C395.6 83.1893 395.056 83.712 394.608 84.352L392.272 82.368C392.784 81.4507 393.605 80.6827 394.736 80.064C395.888 79.424 397.371 79.104 399.184 79.104C401.36 79.104 403.056 79.616 404.272 80.64C405.509 81.6427 406.128 83.1467 406.128 85.152V92.928H408.08V96H405.68ZM398.608 93.568C399.589 93.568 400.4 93.344 401.04 92.896C401.701 92.4267 402.032 91.7973 402.032 91.008V88.8H399.216C396.976 88.8 395.856 89.504 395.856 90.912V91.552C395.856 92.2133 396.101 92.7147 396.592 93.056C397.083 93.3973 397.755 93.568 398.608 93.568ZM411.588 96V79.488H415.684V82.4H415.844C416.206 81.504 416.761 80.736 417.508 80.096C418.276 79.4347 419.332 79.104 420.676 79.104C422.297 79.104 423.609 79.648 424.612 80.736C425.636 81.8027 426.148 83.3387 426.148 85.344V96H422.052V85.92C422.052 83.5307 421.017 82.336 418.948 82.336C418.521 82.336 418.116 82.3893 417.732 82.496C417.348 82.6027 416.996 82.7733 416.676 83.008C416.377 83.2213 416.132 83.488 415.94 83.808C415.769 84.128 415.684 84.512 415.684 84.96V96H411.588ZM438.583 79.104C440.332 79.104 441.74 79.4667 442.807 80.192C443.874 80.9173 444.684 81.8773 445.239 83.072L442.071 84.8C441.772 84.096 441.346 83.5307 440.791 83.104C440.258 82.656 439.522 82.432 438.583 82.432C437.367 82.432 436.428 82.784 435.767 83.488C435.127 84.192 434.807 85.152 434.807 86.368V89.12C434.807 90.3147 435.127 91.2747 435.767 92C436.428 92.704 437.388 93.056 438.647 93.056C439.628 93.056 440.407 92.832 440.983 92.384C441.58 91.936 442.06 91.3387 442.423 90.592L445.495 92.416C444.94 93.568 444.13 94.5067 443.063 95.232C441.996 95.9573 440.61 96.3413 438.903 96.384L438.615 97.824L438.743 97.952C438.978 97.888 439.212 97.8347 439.447 97.792C439.703 97.7493 439.948 97.728 440.183 97.728C440.823 97.728 441.367 97.8987 441.815 98.24C442.263 98.6027 442.487 99.1573 442.487 99.904C442.487 100.416 442.37 100.853 442.135 101.216C441.922 101.579 441.623 101.867 441.239 102.08C440.876 102.315 440.45 102.475 439.959 102.56C439.468 102.667 438.967 102.72 438.455 102.72C437.431 102.72 436.62 102.571 436.023 102.272C435.426 101.973 434.999 101.664 434.743 101.344L436.119 99.712C436.332 99.968 436.61 100.181 436.951 100.352C437.292 100.544 437.708 100.64 438.199 100.64C438.604 100.64 438.935 100.565 439.191 100.416C439.468 100.288 439.607 100.075 439.607 99.776C439.607 99.52 439.458 99.264 439.159 99.008C438.86 98.7733 438.231 98.6027 437.271 98.496L436.535 98.4L436.983 96.256C434.935 95.936 433.346 95.0293 432.215 93.536C431.084 92.0427 430.519 90.112 430.519 87.744C430.519 86.4213 430.7 85.2267 431.063 84.16C431.447 83.0933 431.98 82.1867 432.663 81.44C433.367 80.6933 434.21 80.1173 435.191 79.712C436.194 79.3067 437.324 79.104 438.583 79.104ZM463.243 96C462.24 96 461.461 95.7547 460.907 95.264C460.373 94.752 460.053 94.048 459.947 93.152H459.787C459.488 94.176 458.901 94.976 458.027 95.552C457.152 96.1067 456.075 96.384 454.795 96.384C453.131 96.384 451.808 95.9467 450.827 95.072C449.845 94.1973 449.355 92.9813 449.355 91.424C449.355 88.096 451.797 86.432 456.683 86.432H459.595V85.344C459.595 84.2987 459.339 83.5093 458.827 82.976C458.315 82.4427 457.483 82.176 456.331 82.176C455.285 82.176 454.443 82.3787 453.803 82.784C453.163 83.1893 452.619 83.712 452.171 84.352L449.835 82.368C450.347 81.4507 451.168 80.6827 452.299 80.064C453.451 79.424 454.933 79.104 456.747 79.104C458.923 79.104 460.619 79.616 461.835 80.64C463.072 81.6427 463.691 83.1467 463.691 85.152V92.928H465.642V96H463.243ZM456.171 93.568C457.152 93.568 457.963 93.344 458.603 92.896C459.264 92.4267 459.595 91.7973 459.595 91.008V88.8H456.779C454.539 88.8 453.419 89.504 453.419 90.912V91.552C453.419 92.2133 453.664 92.7147 454.155 93.056C454.645 93.3973 455.317 93.568 456.171 93.568ZM469.15 96V79.488H473.246V82.4H473.406C473.769 81.504 474.323 80.736 475.07 80.096C475.838 79.4347 476.894 79.104 478.238 79.104C479.859 79.104 481.171 79.648 482.174 80.736C483.198 81.8027 483.71 83.3387 483.71 85.344V96H479.614V85.92C479.614 83.5307 478.579 82.336 476.51 82.336C476.083 82.336 475.678 82.3893 475.294 82.496C474.91 82.6027 474.558 82.7733 474.238 83.008C473.939 83.2213 473.694 83.488 473.502 83.808C473.331 84.128 473.246 84.512 473.246 84.96V96H469.15ZM498.834 93.088H498.61C498.162 94.0907 497.543 94.8907 496.754 95.488C495.986 96.0853 494.962 96.384 493.682 96.384C492.743 96.384 491.879 96.2133 491.09 95.872C490.322 95.5093 489.66 94.976 489.106 94.272C488.551 93.5467 488.124 92.64 487.826 91.552C487.527 90.464 487.378 89.1947 487.378 87.744C487.378 84.8427 487.954 82.6773 489.106 81.248C490.258 79.8187 491.783 79.104 493.682 79.104C494.962 79.104 495.986 79.4027 496.754 80C497.543 80.5973 498.162 81.3973 498.61 82.4H498.834V72.32H502.93V96H498.834V93.088ZM495.41 93.12C495.879 93.12 496.316 93.0667 496.722 92.96C497.148 92.832 497.511 92.6613 497.81 92.448C498.13 92.2133 498.375 91.9253 498.546 91.584C498.738 91.2213 498.834 90.8053 498.834 90.336V85.152C498.834 84.6827 498.738 84.2773 498.546 83.936C498.375 83.5733 498.13 83.2853 497.81 83.072C497.511 82.8373 497.148 82.6667 496.722 82.56C496.316 82.432 495.879 82.368 495.41 82.368C494.215 82.368 493.287 82.7307 492.626 83.456C491.986 84.1813 491.666 85.1733 491.666 86.432V89.056C491.666 90.3147 491.986 91.3067 492.626 92.032C493.287 92.7573 494.215 93.12 495.41 93.12ZM514.725 96.384C513.466 96.384 512.336 96.1813 511.333 95.776C510.352 95.3707 509.509 94.7947 508.805 94.048C508.122 93.3013 507.589 92.3947 507.205 91.328C506.842 90.2613 506.661 89.0667 506.661 87.744C506.661 86.4213 506.842 85.2267 507.205 84.16C507.589 83.0933 508.122 82.1867 508.805 81.44C509.509 80.6933 510.352 80.1173 511.333 79.712C512.336 79.3067 513.466 79.104 514.725 79.104C515.962 79.104 517.082 79.3067 518.085 79.712C519.088 80.1173 519.93 80.6933 520.613 81.44C521.317 82.1867 521.85 83.0933 522.213 84.16C522.597 85.2267 522.789 86.4213 522.789 87.744C522.789 89.0667 522.597 90.2613 522.213 91.328C521.85 92.3947 521.317 93.3013 520.613 94.048C519.93 94.7947 519.088 95.3707 518.085 95.776C517.082 96.1813 515.962 96.384 514.725 96.384ZM514.725 93.248C515.898 93.248 516.826 92.896 517.509 92.192C518.192 91.4667 518.533 90.4107 518.533 89.024V86.464C518.533 85.0773 518.192 84.032 517.509 83.328C516.826 82.6027 515.898 82.24 514.725 82.24C513.552 82.24 512.624 82.6027 511.941 83.328C511.258 84.032 510.917 85.0773 510.917 86.464V89.024C510.917 90.4107 511.258 91.4667 511.941 92.192C512.624 92.896 513.552 93.248 514.725 93.248ZM553.1 96.384C551.841 96.384 550.711 96.1813 549.708 95.776C548.727 95.3707 547.884 94.7947 547.18 94.048C546.497 93.3013 545.964 92.3947 545.58 91.328C545.217 90.2613 545.036 89.0667 545.036 87.744C545.036 86.4213 545.217 85.2267 545.58 84.16C545.964 83.0933 546.497 82.1867 547.18 81.44C547.884 80.6933 548.727 80.1173 549.708 79.712C550.711 79.3067 551.841 79.104 553.1 79.104C554.337 79.104 555.457 79.3067 556.46 79.712C557.463 80.1173 558.305 80.6933 558.988 81.44C559.692 82.1867 560.225 83.0933 560.588 84.16C560.972 85.2267 561.164 86.4213 561.164 87.744C561.164 89.0667 560.972 90.2613 560.588 91.328C560.225 92.3947 559.692 93.3013 558.988 94.048C558.305 94.7947 557.463 95.3707 556.46 95.776C555.457 96.1813 554.337 96.384 553.1 96.384ZM553.1 93.248C554.273 93.248 555.201 92.896 555.884 92.192C556.567 91.4667 556.908 90.4107 556.908 89.024V86.464C556.908 85.0773 556.567 84.032 555.884 83.328C555.201 82.6027 554.273 82.24 553.1 82.24C551.927 82.24 550.999 82.6027 550.316 83.328C549.633 84.032 549.292 85.0773 549.292 86.464V89.024C549.292 90.4107 549.633 91.4667 550.316 92.192C550.999 92.896 551.927 93.248 553.1 93.248ZM584.275 92.768H589.331V82.72H583.955V79.488H589.331V76.8C589.331 76.1387 589.416 75.5413 589.587 75.008C589.779 74.4533 590.067 73.984 590.451 73.6C590.835 73.1947 591.315 72.8853 591.891 72.672C592.488 72.4373 593.182 72.32 593.971 72.32H599.539V75.552H593.427V79.488H599.539V82.72H593.427V92.768H598.803V96H584.275V92.768ZM611.047 96.384C609.724 96.384 608.551 96.1813 607.527 95.776C606.503 95.3707 605.639 94.7947 604.935 94.048C604.252 93.3013 603.729 92.4053 603.367 91.36C603.004 90.2933 602.823 89.0987 602.823 87.776C602.823 86.432 603.004 85.2267 603.367 84.16C603.751 83.0933 604.284 82.1867 604.967 81.44C605.649 80.6933 606.471 80.1173 607.431 79.712C608.412 79.3067 609.511 79.104 610.727 79.104C611.921 79.104 612.999 79.3067 613.959 79.712C614.919 80.096 615.729 80.6507 616.391 81.376C617.073 82.1013 617.596 82.976 617.958 84C618.321 85.024 618.503 86.1547 618.503 87.392V88.736H606.919V89.152C606.919 90.3467 607.292 91.3173 608.039 92.064C608.785 92.7893 609.831 93.152 611.175 93.152C612.199 93.152 613.073 92.9493 613.799 92.544C614.545 92.1173 615.164 91.5627 615.655 90.88L617.991 93.216C617.393 94.0907 616.519 94.8373 615.367 95.456C614.236 96.0747 612.796 96.384 611.047 96.384ZM610.759 82.112C609.607 82.112 608.679 82.4747 607.975 83.2C607.271 83.9253 606.919 84.8853 606.919 86.08V86.304H614.407V86.016C614.407 84.8213 614.076 83.872 613.415 83.168C612.775 82.464 611.889 82.112 610.759 82.112ZM630.874 76.928C629.914 76.928 629.231 76.7253 628.826 76.32C628.442 75.9147 628.25 75.424 628.25 74.848V74.08C628.25 73.504 628.442 73.0133 628.826 72.608C629.231 72.2027 629.914 72 630.874 72C631.834 72 632.506 72.2027 632.89 72.608C633.295 73.0133 633.498 73.504 633.498 74.08V74.848C633.498 75.424 633.295 75.9147 632.89 76.32C632.506 76.7253 631.834 76.928 630.874 76.928ZM623.386 92.768H628.826V82.72H623.386V79.488H632.922V92.768H637.978V96H623.386V92.768ZM650.158 96C648.579 96 647.416 95.584 646.67 94.752C645.923 93.92 645.55 92.8427 645.55 91.52V82.72H640.75V79.488H644.014C644.675 79.488 645.144 79.36 645.422 79.104C645.699 78.8267 645.838 78.3467 645.838 77.664V73.664H649.646V79.488H656.366V82.72H649.646V92.768H656.366V96H650.158ZM669.249 76.928C668.289 76.928 667.606 76.7253 667.201 76.32C666.817 75.9147 666.625 75.424 666.625 74.848V74.08C666.625 73.504 666.817 73.0133 667.201 72.608C667.606 72.2027 668.289 72 669.249 72C670.209 72 670.881 72.2027 671.265 72.608C671.67 73.0133 671.873 73.504 671.873 74.08V74.848C671.873 75.424 671.67 75.9147 671.265 76.32C670.881 76.7253 670.209 76.928 669.249 76.928ZM661.761 92.768H667.201V82.72H661.761V79.488H671.297V92.768H676.353V96H661.761V92.768ZM688.021 79.104C689.77 79.104 691.178 79.4667 692.245 80.192C693.311 80.9173 694.122 81.8773 694.677 83.072L691.509 84.8C691.21 84.096 690.783 83.5307 690.229 83.104C689.695 82.656 688.959 82.432 688.021 82.432C686.805 82.432 685.866 82.784 685.205 83.488C684.565 84.192 684.245 85.152 684.245 86.368V89.12C684.245 90.3147 684.565 91.2747 685.205 92C685.866 92.704 686.826 93.056 688.085 93.056C689.066 93.056 689.845 92.832 690.421 92.384C691.018 91.936 691.498 91.3387 691.861 90.592L694.933 92.416C694.378 93.568 693.567 94.5067 692.501 95.232C691.434 95.9573 690.047 96.3413 688.341 96.384L688.053 97.824L688.181 97.952C688.415 97.888 688.65 97.8347 688.885 97.792C689.141 97.7493 689.386 97.728 689.621 97.728C690.261 97.728 690.805 97.8987 691.253 98.24C691.701 98.6027 691.925 99.1573 691.925 99.904C691.925 100.416 691.807 100.853 691.573 101.216C691.359 101.579 691.061 101.867 690.677 102.08C690.314 102.315 689.887 102.475 689.397 102.56C688.906 102.667 688.405 102.72 687.893 102.72C686.869 102.72 686.058 102.571 685.461 102.272C684.863 101.973 684.437 101.664 684.181 101.344L685.557 99.712C685.77 99.968 686.047 100.181 686.389 100.352C686.73 100.544 687.146 100.64 687.637 100.64C688.042 100.64 688.373 100.565 688.629 100.416C688.906 100.288 689.045 100.075 689.045 99.776C689.045 99.52 688.895 99.264 688.597 99.008C688.298 98.7733 687.669 98.6027 686.709 98.496L685.973 98.4L686.421 96.256C684.373 95.936 682.783 95.0293 681.653 93.536C680.522 92.0427 679.957 90.112 679.957 87.744C679.957 86.4213 680.138 85.2267 680.501 84.16C680.885 83.0933 681.418 82.1867 682.101 81.44C682.805 80.6933 683.647 80.1173 684.629 79.712C685.631 79.3067 686.762 79.104 688.021 79.104ZM706.6 96.384C705.341 96.384 704.211 96.1813 703.208 95.776C702.227 95.3707 701.384 94.7947 700.68 94.048C699.997 93.3013 699.464 92.3947 699.08 91.328C698.717 90.2613 698.536 89.0667 698.536 87.744C698.536 86.4213 698.717 85.2267 699.08 84.16C699.464 83.0933 699.997 82.1867 700.68 81.44C701.384 80.6933 702.227 80.1173 703.208 79.712C704.211 79.3067 705.341 79.104 706.6 79.104C707.837 79.104 708.957 79.3067 709.96 79.712C710.963 80.1173 711.805 80.6933 712.488 81.44C713.192 82.1867 713.725 83.0933 714.088 84.16C714.472 85.2267 714.664 86.4213 714.664 87.744C714.664 89.0667 714.472 90.2613 714.088 91.328C713.725 92.3947 713.192 93.3013 712.488 94.048C711.805 94.7947 710.963 95.3707 709.96 95.776C708.957 96.1813 707.837 96.384 706.6 96.384ZM706.6 93.248C707.773 93.248 708.701 92.896 709.384 92.192C710.067 91.4667 710.408 90.4107 710.408 89.024V86.464C710.408 85.0773 710.067 84.032 709.384 83.328C708.701 82.6027 707.773 82.24 706.6 82.24C705.427 82.24 704.499 82.6027 703.816 83.328C703.133 84.032 702.792 85.0773 702.792 86.464V89.024C702.792 90.4107 703.133 91.4667 703.816 92.192C704.499 92.896 705.427 93.248 706.6 93.248ZM739.791 82.304V72.32H743.503V82.304H739.791ZM746.479 82.304V72.32H750.191V82.304H746.479ZM394.416 166.304V156.32H398.128V166.304H394.416ZM401.104 166.304V156.32H404.816V166.304H401.104ZM411.844 180V157.664H425.956V161.12H416.036V166.944H425.604V170.4H416.036V176.544H425.956V180H411.844ZM429.463 180L435.639 171.616L429.815 163.488H434.519L436.503 166.4L438.039 168.704H438.263L439.799 166.4L441.783 163.488H446.135L440.311 171.424L446.487 180H441.751L439.479 176.672L437.911 174.336H437.687L436.119 176.672L433.847 180H429.463ZM449.771 163.488H453.867V166.4H454.091C454.539 165.397 455.147 164.597 455.915 164C456.704 163.403 457.739 163.104 459.019 163.104C459.957 163.104 460.811 163.285 461.579 163.648C462.368 163.989 463.04 164.523 463.595 165.248C464.149 165.952 464.576 166.848 464.875 167.936C465.173 169.024 465.323 170.293 465.323 171.744C465.323 173.195 465.173 174.464 464.875 175.552C464.576 176.64 464.149 177.547 463.595 178.272C463.04 178.976 462.368 179.509 461.579 179.872C460.811 180.213 459.957 180.384 459.019 180.384C457.739 180.384 456.704 180.085 455.915 179.488C455.147 178.891 454.539 178.091 454.091 177.088H453.867V186.4H449.771V163.488ZM457.291 177.12C458.485 177.12 459.403 176.757 460.043 176.032C460.704 175.307 461.035 174.315 461.035 173.056V170.432C461.035 169.173 460.704 168.181 460.043 167.456C459.403 166.731 458.485 166.368 457.291 166.368C456.352 166.368 455.541 166.603 454.859 167.072C454.197 167.52 453.867 168.213 453.867 169.152V174.336C453.867 175.275 454.197 175.979 454.859 176.448C455.541 176.896 456.352 177.12 457.291 177.12ZM476.734 180.384C475.411 180.384 474.238 180.181 473.214 179.776C472.19 179.371 471.326 178.795 470.622 178.048C469.939 177.301 469.417 176.405 469.054 175.36C468.691 174.293 468.51 173.099 468.51 171.776C468.51 170.432 468.691 169.227 469.054 168.16C469.438 167.093 469.971 166.187 470.654 165.44C471.337 164.693 472.158 164.117 473.118 163.712C474.099 163.307 475.198 163.104 476.414 163.104C477.609 163.104 478.686 163.307 479.646 163.712C480.606 164.096 481.417 164.651 482.078 165.376C482.761 166.101 483.283 166.976 483.646 168C484.009 169.024 484.19 170.155 484.19 171.392V172.736H472.606V173.152C472.606 174.347 472.979 175.317 473.726 176.064C474.473 176.789 475.518 177.152 476.862 177.152C477.886 177.152 478.761 176.949 479.486 176.544C480.233 176.117 480.851 175.563 481.342 174.88L483.678 177.216C483.081 178.091 482.206 178.837 481.054 179.456C479.923 180.075 478.483 180.384 476.734 180.384ZM476.446 166.112C475.294 166.112 474.366 166.475 473.662 167.2C472.958 167.925 472.606 168.885 472.606 170.08V170.304H480.094V170.016C480.094 168.821 479.763 167.872 479.102 167.168C478.462 166.464 477.577 166.112 476.446 166.112ZM488.242 176.768H493.49V159.552H488.242V156.32H497.586V176.768H502.866V180H488.242V176.768ZM507.429 176.768H512.677V159.552H507.429V156.32H516.773V176.768H522.053V180H507.429V176.768ZM534.937 160.928C533.977 160.928 533.294 160.725 532.889 160.32C532.505 159.915 532.312 159.424 532.312 158.848V158.08C532.312 157.504 532.505 157.013 532.889 156.608C533.294 156.203 533.977 156 534.937 156C535.897 156 536.569 156.203 536.953 156.608C537.358 157.013 537.561 157.504 537.561 158.08V158.848C537.561 159.424 537.358 159.915 536.953 160.32C536.569 160.725 535.897 160.928 534.937 160.928ZM527.449 176.768H532.889V166.72H527.449V163.488H536.985V176.768H542.041V180H527.449V176.768ZM559.18 180C558.177 180 557.399 179.755 556.844 179.264C556.311 178.752 555.991 178.048 555.884 177.152H555.724C555.425 178.176 554.839 178.976 553.964 179.552C553.089 180.107 552.012 180.384 550.732 180.384C549.068 180.384 547.745 179.947 546.764 179.072C545.783 178.197 545.292 176.981 545.292 175.424C545.292 172.096 547.735 170.432 552.62 170.432H555.532V169.344C555.532 168.299 555.276 167.509 554.764 166.976C554.252 166.443 553.42 166.176 552.268 166.176C551.223 166.176 550.38 166.379 549.74 166.784C549.1 167.189 548.556 167.712 548.108 168.352L545.772 166.368C546.284 165.451 547.105 164.683 548.236 164.064C549.388 163.424 550.871 163.104 552.684 163.104C554.86 163.104 556.556 163.616 557.772 164.64C559.009 165.643 559.628 167.147 559.628 169.152V176.928H561.58V180H559.18ZM552.108 177.568C553.089 177.568 553.9 177.344 554.54 176.896C555.201 176.427 555.532 175.797 555.532 175.008V172.8H552.716C550.476 172.8 549.356 173.504 549.356 174.912V175.552C549.356 176.213 549.601 176.715 550.092 177.056C550.583 177.397 551.255 177.568 552.108 177.568ZM565.088 176.768H569.184V166.72H565.088V163.488H573.28V168H573.536C573.685 167.424 573.888 166.869 574.144 166.336C574.421 165.781 574.762 165.301 575.168 164.896C575.594 164.469 576.106 164.128 576.704 163.872C577.301 163.616 578.016 163.488 578.847 163.488H580.64V167.328H577.248C576.01 167.328 575.04 167.691 574.336 168.416C573.632 169.141 573.28 170.069 573.28 171.2V176.768H579.008V180H565.088V176.768ZM583.059 180V163.488H586.451V165.76H586.643C586.899 165.035 587.262 164.416 587.731 163.904C588.222 163.371 588.904 163.104 589.779 163.104C590.611 163.104 591.272 163.349 591.763 163.84C592.254 164.309 592.574 164.981 592.723 165.856H592.883C593.16 165.109 593.566 164.469 594.099 163.936C594.654 163.381 595.432 163.104 596.435 163.104C597.651 163.104 598.526 163.541 599.059 164.416C599.592 165.291 599.859 166.581 599.859 168.288V180H596.499V168.768C596.499 167.808 596.36 167.136 596.083 166.752C595.827 166.368 595.432 166.176 594.899 166.176C594.408 166.176 593.992 166.336 593.651 166.656C593.331 166.976 593.171 167.467 593.171 168.128V180H589.779V168.768C589.779 167.808 589.651 167.136 589.395 166.752C589.139 166.368 588.744 166.176 588.211 166.176C587.699 166.176 587.272 166.336 586.931 166.656C586.611 166.976 586.451 167.467 586.451 168.128V180H583.059ZM613.767 177.088H613.607C613.244 177.984 612.679 178.763 611.911 179.424C611.164 180.064 610.119 180.384 608.775 180.384C607.153 180.384 605.831 179.851 604.807 178.784C603.804 177.696 603.303 176.149 603.303 174.144V163.488H607.399V173.568C607.399 175.957 608.433 177.152 610.503 177.152C610.908 177.152 611.303 177.099 611.687 176.992C612.092 176.885 612.444 176.725 612.743 176.512C613.063 176.277 613.308 176 613.479 175.68C613.671 175.36 613.767 174.976 613.767 174.528V163.488H617.863V180H613.767V177.088ZM629.786 180.384C627.973 180.384 626.405 180.107 625.082 179.552C623.759 178.976 622.725 178.208 621.978 177.248L624.378 175.072C625.061 175.819 625.839 176.395 626.714 176.8C627.61 177.205 628.645 177.408 629.818 177.408C630.842 177.408 631.663 177.237 632.282 176.896C632.901 176.555 633.21 176.032 633.21 175.328C633.21 174.731 632.997 174.325 632.57 174.112C632.165 173.899 631.621 173.739 630.938 173.632L628.282 173.216C627.599 173.109 626.927 172.96 626.266 172.768C625.626 172.555 625.05 172.267 624.538 171.904C624.047 171.541 623.653 171.083 623.354 170.528C623.055 169.952 622.906 169.259 622.906 168.448C622.906 166.72 623.546 165.397 624.826 164.48C626.127 163.563 627.909 163.104 630.17 163.104C631.77 163.104 633.125 163.328 634.234 163.776C635.365 164.224 636.293 164.853 637.018 165.664L634.874 168.032C634.405 167.52 633.775 167.072 632.986 166.688C632.218 166.283 631.237 166.08 630.042 166.08C627.951 166.08 626.906 166.731 626.906 168.032C626.906 168.629 627.119 169.045 627.546 169.28C627.973 169.493 628.527 169.653 629.21 169.76L631.834 170.176C632.538 170.283 633.21 170.443 633.85 170.656C634.511 170.848 635.087 171.125 635.578 171.488C636.09 171.851 636.495 172.309 636.794 172.864C637.093 173.419 637.242 174.101 637.242 174.912C637.242 176.619 636.581 177.963 635.258 178.944C633.957 179.904 632.133 180.384 629.786 180.384ZM643.854 166.304V156.32H647.566V166.304H643.854ZM650.542 166.304V156.32H654.254V166.304H650.542Z" fill="#F5A476"/>
<path d="M34.6625 46.4084V43.8404H39.2705V31.9364H39.0545L35.4065 36.2564L33.4385 34.6004L37.5905 29.6564H42.4145V43.8404H46.2065V46.4084H34.6625Z" fill="white"/>
<path d="M45.6785 87.8873H33.8705V84.9593L39.2465 80.3753C40.1425 79.6073 40.8065 78.9113 41.2385 78.2873C41.6705 77.6473 41.8865 76.9673 41.8865 76.2473V76.0073C41.8865 75.2073 41.6625 74.5993 41.2145 74.1833C40.7665 73.7673 40.1425 73.5593 39.3425 73.5593C38.4625 73.5593 37.7905 73.7993 37.3265 74.2793C36.8625 74.7593 36.5265 75.3513 36.3185 76.0553L33.5825 75.0233C33.7585 74.4793 34.0065 73.9593 34.3265 73.4633C34.6625 72.9513 35.0705 72.5033 35.5505 72.1193C36.0465 71.7353 36.6305 71.4313 37.3025 71.2073C37.9745 70.9673 38.7425 70.8473 39.6065 70.8473C40.5025 70.8473 41.2945 70.9753 41.9825 71.2313C42.6865 71.4713 43.2785 71.8153 43.7585 72.2633C44.2385 72.6953 44.5985 73.2153 44.8385 73.8233C45.0945 74.4313 45.2225 75.0953 45.2225 75.8153C45.2225 76.5033 45.1105 77.1353 44.8865 77.7113C44.6785 78.2873 44.3825 78.8393 43.9985 79.3673C43.6145 79.8793 43.1585 80.3753 42.6305 80.8553C42.1185 81.3353 41.5585 81.8153 40.9505 82.2953L37.3025 85.2473H45.6785V87.8873Z" fill="white"/>
<path d="M39.0065 123.396C40.0145 123.396 40.7505 123.196 41.2145 122.796C41.6945 122.396 41.9345 121.892 41.9345 121.284V121.116C41.9345 120.428 41.7025 119.892 41.2385 119.508C40.7905 119.124 40.1665 118.932 39.3665 118.932C38.5985 118.932 37.9265 119.108 37.3505 119.46C36.7745 119.812 36.2785 120.308 35.8625 120.948L33.8225 119.124C34.1105 118.74 34.4305 118.38 34.7825 118.044C35.1505 117.692 35.5585 117.396 36.0065 117.156C36.4705 116.9 36.9825 116.7 37.5425 116.556C38.1025 116.412 38.7425 116.34 39.4625 116.34C40.3105 116.34 41.0865 116.444 41.7905 116.652C42.5105 116.844 43.1185 117.132 43.6145 117.516C44.1265 117.9 44.5185 118.364 44.7905 118.908C45.0785 119.436 45.2225 120.036 45.2225 120.708C45.2225 121.236 45.1345 121.716 44.9585 122.148C44.7825 122.58 44.5425 122.956 44.2385 123.276C43.9505 123.596 43.6065 123.86 43.2065 124.068C42.8225 124.276 42.4065 124.428 41.9585 124.524V124.644C42.4545 124.74 42.9185 124.9 43.3505 125.124C43.7825 125.332 44.1585 125.604 44.4785 125.94C44.7985 126.276 45.0545 126.684 45.2465 127.164C45.4385 127.628 45.5345 128.156 45.5345 128.748C45.5345 129.484 45.3825 130.156 45.0785 130.764C44.7745 131.372 44.3425 131.892 43.7825 132.324C43.2385 132.756 42.5745 133.092 41.7905 133.332C41.0225 133.556 40.1585 133.668 39.1985 133.668C38.3985 133.668 37.6865 133.58 37.0625 133.404C36.4385 133.244 35.8865 133.02 35.4065 132.732C34.9265 132.444 34.5105 132.116 34.1585 131.748C33.8065 131.364 33.4945 130.972 33.2225 130.572L35.5505 128.772C35.9505 129.444 36.4225 129.996 36.9665 130.428C37.5265 130.86 38.2865 131.076 39.2465 131.076C40.2065 131.076 40.9425 130.86 41.4545 130.428C41.9825 129.98 42.2465 129.364 42.2465 128.58V128.388C42.2465 127.62 41.9665 127.036 41.4065 126.636C40.8465 126.22 40.0545 126.012 39.0305 126.012H37.3505V123.396H39.0065Z" fill="white"/>
<path d="M42.2404 174.859V171.619H34.4884V168.931L41.3284 158.107H45.2404V169.171H47.4964V171.619H45.2404V174.859H42.2404ZM37.0564 169.171H42.2404V161.179H42.0484L37.0564 169.171Z" fill="white"/>
<path d="M46.432 201.984H38.752L38.344 207.6H38.536C38.728 207.248 38.936 206.928 39.16 206.64C39.384 206.336 39.64 206.08 39.928 205.872C40.232 205.664 40.568 205.504 40.936 205.392C41.32 205.28 41.76 205.224 42.256 205.224C42.96 205.224 43.624 205.344 44.248 205.584C44.872 205.824 45.416 206.168 45.88 206.616C46.344 207.064 46.704 207.616 46.96 208.272C47.232 208.928 47.368 209.672 47.368 210.504C47.368 211.336 47.224 212.104 46.936 212.808C46.664 213.512 46.256 214.128 45.712 214.656C45.184 215.168 44.528 215.568 43.744 215.856C42.976 216.144 42.088 216.288 41.08 216.288C40.296 216.288 39.592 216.2 38.968 216.024C38.36 215.864 37.824 215.64 37.36 215.352C36.896 215.064 36.488 214.736 36.136 214.368C35.784 213.984 35.48 213.592 35.224 213.192L37.504 211.392C37.696 211.712 37.904 212.016 38.128 212.304C38.368 212.576 38.632 212.816 38.92 213.024C39.208 213.232 39.528 213.4 39.88 213.528C40.248 213.64 40.664 213.696 41.128 213.696C42.088 213.696 42.816 213.44 43.312 212.928C43.824 212.4 44.08 211.68 44.08 210.768V210.576C44.08 209.696 43.824 209.008 43.312 208.512C42.8 208.016 42.08 207.768 41.152 207.768C40.448 207.768 39.872 207.904 39.424 208.176C38.992 208.432 38.64 208.712 38.368 209.016L35.8 208.656L36.424 199.248H46.432V201.984Z" fill="white"/>
</svg>
