<svg width="1477" height="236" viewBox="0 0 1477 236" fill="none" xmlns="http://www.w3.org/2000/svg">
<path d="M0 4.99999C0 2.23857 2.23858 0 5 0H1462C1470.28 0 1477 6.71573 1477 15V211C1477 224.807 1465.81 236 1452 236H35C15.67 236 0 220.33 0 201V4.99999Z" fill="#373538"/>
<path d="M98.68 46C97.6773 46 96.8987 45.7547 96.344 45.264C95.8107 44.752 95.4907 44.048 95.384 43.152H95.224C94.9253 44.176 94.3387 44.976 93.464 45.552C92.5893 46.1067 91.512 46.384 90.232 46.384C88.568 46.384 87.2453 45.9467 86.264 45.072C85.2827 44.1973 84.792 42.9813 84.792 41.424C84.792 38.096 87.2347 36.432 92.12 36.432H95.032V35.344C95.032 34.2987 94.776 33.5093 94.264 32.976C93.752 32.4427 92.92 32.176 91.768 32.176C90.7227 32.176 89.88 32.3787 89.24 32.784C88.6 33.1893 88.056 33.712 87.608 34.352L85.272 32.368C85.784 31.4507 86.6053 30.6827 87.736 30.064C88.888 29.424 90.3707 29.104 92.184 29.104C94.36 29.104 96.056 29.616 97.272 30.64C98.5093 31.6427 99.128 33.1467 99.128 35.152V42.928H101.08V46H98.68ZM91.608 43.568C92.5893 43.568 93.4 43.344 94.04 42.896C94.7013 42.4267 95.032 41.7973 95.032 41.008V38.8H92.216C89.976 38.8 88.856 39.504 88.856 40.912V41.552C88.856 42.2133 89.1013 42.7147 89.592 43.056C90.0827 43.3973 90.7547 43.568 91.608 43.568ZM111.724 46.384C109.91 46.384 108.342 46.1067 107.02 45.552C105.697 44.976 104.662 44.208 103.916 43.248L106.316 41.072C106.998 41.8187 107.777 42.3947 108.652 42.8C109.548 43.2053 110.582 43.408 111.756 43.408C112.78 43.408 113.601 43.2373 114.22 42.896C114.838 42.5547 115.148 42.032 115.148 41.328C115.148 40.7307 114.934 40.3253 114.508 40.112C114.102 39.8987 113.558 39.7387 112.876 39.632L110.22 39.216C109.537 39.1093 108.865 38.96 108.204 38.768C107.564 38.5547 106.988 38.2667 106.476 37.904C105.985 37.5413 105.59 37.0827 105.292 36.528C104.993 35.952 104.844 35.2587 104.844 34.448C104.844 32.72 105.484 31.3973 106.764 30.48C108.065 29.5627 109.846 29.104 112.108 29.104C113.708 29.104 115.062 29.328 116.172 29.776C117.302 30.224 118.23 30.8533 118.956 31.664L116.812 34.032C116.342 33.52 115.713 33.072 114.924 32.688C114.156 32.2827 113.174 32.08 111.98 32.08C109.889 32.08 108.844 32.7307 108.844 34.032C108.844 34.6293 109.057 35.0453 109.484 35.28C109.91 35.4933 110.465 35.6533 111.148 35.76L113.772 36.176C114.476 36.2827 115.148 36.4427 115.788 36.656C116.449 36.848 117.025 37.1253 117.516 37.488C118.028 37.8507 118.433 38.3093 118.732 38.864C119.03 39.4187 119.18 40.1013 119.18 40.912C119.18 42.6187 118.518 43.9627 117.196 44.944C115.894 45.904 114.07 46.384 111.724 46.384ZM135.487 29.488H139.647L131.743 48.944C131.295 50.0747 130.698 50.928 129.951 51.504C129.204 52.1013 128.148 52.4 126.783 52.4H123.775V49.168H127.711L128.959 45.84L122.303 29.488H126.655L129.183 36.4L130.943 41.648H131.167L132.927 36.4L135.487 29.488ZM142.963 46V29.488H147.059V32.4H147.219C147.581 31.504 148.136 30.736 148.883 30.096C149.651 29.4347 150.707 29.104 152.051 29.104C153.672 29.104 154.984 29.648 155.987 30.736C157.011 31.8027 157.523 33.3387 157.523 35.344V46H153.427V35.92C153.427 33.5307 152.392 32.336 150.323 32.336C149.896 32.336 149.491 32.3893 149.107 32.496C148.723 32.6027 148.371 32.7733 148.051 33.008C147.752 33.2213 147.507 33.488 147.315 33.808C147.144 34.128 147.059 34.512 147.059 34.96V46H142.963ZM169.99 46.384C168.731 46.384 167.601 46.1813 166.598 45.776C165.595 45.3707 164.742 44.7947 164.038 44.048C163.355 43.3013 162.822 42.3947 162.438 41.328C162.075 40.2613 161.894 39.0667 161.894 37.744C161.894 36.4213 162.075 35.2267 162.438 34.16C162.822 33.0933 163.355 32.1867 164.038 31.44C164.742 30.6933 165.585 30.1173 166.566 29.712C167.569 29.3067 168.699 29.104 169.958 29.104C171.707 29.104 173.115 29.4667 174.182 30.192C175.249 30.9173 176.059 31.8773 176.614 33.072L173.446 34.8C173.147 34.096 172.721 33.5307 172.166 33.104C171.633 32.656 170.897 32.432 169.958 32.432C168.742 32.432 167.803 32.784 167.142 33.488C166.502 34.192 166.182 35.152 166.182 36.368V39.12C166.182 40.3147 166.502 41.2747 167.142 42C167.803 42.704 168.763 43.056 170.022 43.056C171.003 43.056 171.782 42.832 172.358 42.384C172.955 41.936 173.435 41.3387 173.798 40.592L176.87 42.416C176.315 43.5893 175.473 44.5493 174.342 45.296C173.233 46.0213 171.782 46.384 169.99 46.384ZM200.525 42.768H205.581V32.72H200.205V29.488H205.581V26.8C205.581 26.1387 205.666 25.5413 205.837 25.008C206.029 24.4533 206.317 23.984 206.701 23.6C207.085 23.1947 207.565 22.8853 208.141 22.672C208.738 22.4373 209.432 22.32 210.221 22.32H215.789V25.552H209.677V29.488H215.789V32.72H209.677V42.768H215.053V46H200.525V42.768ZM230.017 43.088H229.857C229.494 43.984 228.929 44.7627 228.161 45.424C227.414 46.064 226.369 46.384 225.025 46.384C223.403 46.384 222.081 45.8507 221.057 44.784C220.054 43.696 219.553 42.1493 219.553 40.144V29.488H223.649V39.568C223.649 41.9573 224.683 43.152 226.753 43.152C227.158 43.152 227.553 43.0987 227.937 42.992C228.342 42.8853 228.694 42.7253 228.993 42.512C229.313 42.2773 229.558 42 229.729 41.68C229.921 41.36 230.017 40.976 230.017 40.528V29.488H234.113V46H230.017V43.088ZM238.9 46V29.488H242.996V32.4H243.156C243.519 31.504 244.073 30.736 244.82 30.096C245.588 29.4347 246.644 29.104 247.988 29.104C249.609 29.104 250.921 29.648 251.924 30.736C252.948 31.8027 253.46 33.3387 253.46 35.344V46H249.364V35.92C249.364 33.5307 248.329 32.336 246.26 32.336C245.833 32.336 245.428 32.3893 245.044 32.496C244.66 32.6027 244.308 32.7733 243.988 33.008C243.689 33.2213 243.444 33.488 243.252 33.808C243.081 34.128 242.996 34.512 242.996 34.96V46H238.9ZM265.928 46.384C264.669 46.384 263.538 46.1813 262.536 45.776C261.533 45.3707 260.68 44.7947 259.976 44.048C259.293 43.3013 258.76 42.3947 258.376 41.328C258.013 40.2613 257.832 39.0667 257.832 37.744C257.832 36.4213 258.013 35.2267 258.376 34.16C258.76 33.0933 259.293 32.1867 259.976 31.44C260.68 30.6933 261.522 30.1173 262.504 29.712C263.506 29.3067 264.637 29.104 265.896 29.104C267.645 29.104 269.053 29.4667 270.12 30.192C271.186 30.9173 271.997 31.8773 272.552 33.072L269.384 34.8C269.085 34.096 268.658 33.5307 268.104 33.104C267.57 32.656 266.834 32.432 265.896 32.432C264.68 32.432 263.741 32.784 263.08 33.488C262.44 34.192 262.12 35.152 262.12 36.368V39.12C262.12 40.3147 262.44 41.2747 263.08 42C263.741 42.704 264.701 43.056 265.96 43.056C266.941 43.056 267.72 42.832 268.296 42.384C268.893 41.936 269.373 41.3387 269.736 40.592L272.808 42.416C272.253 43.5893 271.41 44.5493 270.28 45.296C269.17 46.0213 267.72 46.384 265.928 46.384ZM285.595 46C284.016 46 282.854 45.584 282.107 44.752C281.36 43.92 280.987 42.8427 280.987 41.52V32.72H276.187V29.488H279.451C280.112 29.488 280.582 29.36 280.859 29.104C281.136 28.8267 281.275 28.3467 281.275 27.664V23.664H285.083V29.488H291.803V32.72H285.083V42.768H291.803V46H285.595ZM304.687 26.928C303.727 26.928 303.044 26.7253 302.639 26.32C302.255 25.9147 302.062 25.424 302.062 24.848V24.08C302.062 23.504 302.255 23.0133 302.639 22.608C303.044 22.2027 303.727 22 304.687 22C305.647 22 306.319 22.2027 306.703 22.608C307.108 23.0133 307.311 23.504 307.311 24.08V24.848C307.311 25.424 307.108 25.9147 306.703 26.32C306.319 26.7253 305.647 26.928 304.687 26.928ZM297.199 42.768H302.639V32.72H297.199V29.488H306.735V42.768H311.791V46H297.199V42.768ZM322.85 46.384C321.591 46.384 320.461 46.1813 319.458 45.776C318.477 45.3707 317.634 44.7947 316.93 44.048C316.247 43.3013 315.714 42.3947 315.33 41.328C314.967 40.2613 314.786 39.0667 314.786 37.744C314.786 36.4213 314.967 35.2267 315.33 34.16C315.714 33.0933 316.247 32.1867 316.93 31.44C317.634 30.6933 318.477 30.1173 319.458 29.712C320.461 29.3067 321.591 29.104 322.85 29.104C324.087 29.104 325.207 29.3067 326.21 29.712C327.213 30.1173 328.055 30.6933 328.738 31.44C329.442 32.1867 329.975 33.0933 330.338 34.16C330.722 35.2267 330.914 36.4213 330.914 37.744C330.914 39.0667 330.722 40.2613 330.338 41.328C329.975 42.3947 329.442 43.3013 328.738 44.048C328.055 44.7947 327.213 45.3707 326.21 45.776C325.207 46.1813 324.087 46.384 322.85 46.384ZM322.85 43.248C324.023 43.248 324.951 42.896 325.634 42.192C326.317 41.4667 326.658 40.4107 326.658 39.024V36.464C326.658 35.0773 326.317 34.032 325.634 33.328C324.951 32.6027 324.023 32.24 322.85 32.24C321.677 32.24 320.749 32.6027 320.066 33.328C319.383 34.032 319.042 35.0773 319.042 36.464V39.024C319.042 40.4107 319.383 41.4667 320.066 42.192C320.749 42.896 321.677 43.248 322.85 43.248ZM334.838 46V29.488H338.934V32.4H339.094C339.456 31.504 340.011 30.736 340.758 30.096C341.526 29.4347 342.582 29.104 343.926 29.104C345.547 29.104 346.859 29.648 347.862 30.736C348.886 31.8027 349.398 33.3387 349.398 35.344V46H345.302V35.92C345.302 33.5307 344.267 32.336 342.198 32.336C341.771 32.336 341.366 32.3893 340.982 32.496C340.598 32.6027 340.246 32.7733 339.926 33.008C339.627 33.2213 339.382 33.488 339.19 33.808C339.019 34.128 338.934 34.512 338.934 34.96V46H334.838ZM123.679 84.768H128.927V67.552H123.679V64.32H133.023V84.768H138.303V88H123.679V84.768ZM150.547 88.384C149.224 88.384 148.051 88.1813 147.027 87.776C146.003 87.3707 145.139 86.7947 144.435 86.048C143.752 85.3013 143.229 84.4053 142.867 83.36C142.504 82.2933 142.323 81.0987 142.323 79.776C142.323 78.432 142.504 77.2267 142.867 76.16C143.251 75.0933 143.784 74.1867 144.467 73.44C145.149 72.6933 145.971 72.1173 146.931 71.712C147.912 71.3067 149.011 71.104 150.227 71.104C151.421 71.104 152.499 71.3067 153.459 71.712C154.419 72.096 155.229 72.6507 155.891 73.376C156.573 74.1013 157.096 74.976 157.458 76C157.821 77.024 158.003 78.1547 158.003 79.392V80.736H146.419V81.152C146.419 82.3467 146.792 83.3173 147.539 84.064C148.285 84.7893 149.331 85.152 150.675 85.152C151.699 85.152 152.573 84.9493 153.299 84.544C154.045 84.1173 154.664 83.5627 155.155 82.88L157.491 85.216C156.893 86.0907 156.019 86.8373 154.867 87.456C153.736 88.0747 152.296 88.384 150.547 88.384ZM150.259 74.112C149.107 74.112 148.179 74.4747 147.475 75.2C146.771 75.9253 146.419 76.8853 146.419 78.08V78.304H153.907V78.016C153.907 76.8213 153.576 75.872 152.915 75.168C152.275 74.464 151.389 74.112 150.259 74.112ZM170.47 88C168.891 88 167.729 87.584 166.982 86.752C166.235 85.92 165.862 84.8427 165.862 83.52V74.72H161.062V71.488H164.326C164.987 71.488 165.457 71.36 165.734 71.104C166.011 70.8267 166.15 70.3467 166.15 69.664V65.664H169.958V71.488H176.678V74.72H169.958V84.768H176.678V88H170.47Z" fill="#438ADD"/>
<path d="M373.213 42.768H377.309V32.72H373.213V29.488H381.405V34H381.661C381.81 33.424 382.013 32.8693 382.269 32.336C382.546 31.7813 382.887 31.3013 383.293 30.896C383.719 30.4693 384.231 30.128 384.829 29.872C385.426 29.616 386.141 29.488 386.972 29.488H388.765V33.328H385.373C384.135 33.328 383.165 33.6907 382.461 34.416C381.757 35.1413 381.405 36.0693 381.405 37.2V42.768H387.133V46H373.213V42.768ZM399.984 46.384C398.661 46.384 397.488 46.1813 396.464 45.776C395.44 45.3707 394.576 44.7947 393.872 44.048C393.189 43.3013 392.667 42.4053 392.304 41.36C391.941 40.2933 391.76 39.0987 391.76 37.776C391.76 36.432 391.941 35.2267 392.304 34.16C392.688 33.0933 393.221 32.1867 393.904 31.44C394.587 30.6933 395.408 30.1173 396.368 29.712C397.349 29.3067 398.448 29.104 399.664 29.104C400.859 29.104 401.936 29.3067 402.896 29.712C403.856 30.096 404.667 30.6507 405.328 31.376C406.011 32.1013 406.533 32.976 406.896 34C407.259 35.024 407.44 36.1547 407.44 37.392V38.736H395.856V39.152C395.856 40.3467 396.229 41.3173 396.976 42.064C397.723 42.7893 398.768 43.152 400.112 43.152C401.136 43.152 402.011 42.9493 402.736 42.544C403.483 42.1173 404.101 41.5627 404.592 40.88L406.928 43.216C406.331 44.0907 405.456 44.8373 404.304 45.456C403.173 46.0747 401.733 46.384 399.984 46.384ZM399.696 32.112C398.544 32.112 397.616 32.4747 396.912 33.2C396.208 33.9253 395.856 34.8853 395.856 36.08V36.304H403.344V36.016C403.344 34.8213 403.013 33.872 402.352 33.168C401.712 32.464 400.827 32.112 399.696 32.112ZM424.868 46C423.865 46 423.086 45.7547 422.532 45.264C421.998 44.752 421.678 44.048 421.572 43.152H421.412C421.113 44.176 420.526 44.976 419.652 45.552C418.777 46.1067 417.7 46.384 416.42 46.384C414.756 46.384 413.433 45.9467 412.452 45.072C411.47 44.1973 410.98 42.9813 410.98 41.424C410.98 38.096 413.422 36.432 418.308 36.432H421.22V35.344C421.22 34.2987 420.964 33.5093 420.452 32.976C419.94 32.4427 419.108 32.176 417.956 32.176C416.91 32.176 416.068 32.3787 415.428 32.784C414.788 33.1893 414.244 33.712 413.796 34.352L411.46 32.368C411.972 31.4507 412.793 30.6827 413.924 30.064C415.076 29.424 416.558 29.104 418.372 29.104C420.548 29.104 422.244 29.616 423.46 30.64C424.697 31.6427 425.316 33.1467 425.316 35.152V42.928H427.267V46H424.868ZM417.796 43.568C418.777 43.568 419.588 43.344 420.228 42.896C420.889 42.4267 421.22 41.7973 421.22 41.008V38.8H418.404C416.164 38.8 415.044 39.504 415.044 40.912V41.552C415.044 42.2133 415.289 42.7147 415.78 43.056C416.27 43.3973 416.942 43.568 417.796 43.568ZM430.679 42.768H435.927V25.552H430.679V22.32H440.023V42.768H445.303V46H430.679V42.768ZM458.187 26.928C457.227 26.928 456.544 26.7253 456.139 26.32C455.755 25.9147 455.562 25.424 455.562 24.848V24.08C455.562 23.504 455.755 23.0133 456.139 22.608C456.544 22.2027 457.227 22 458.187 22C459.147 22 459.819 22.2027 460.203 22.608C460.608 23.0133 460.811 23.504 460.811 24.08V24.848C460.811 25.424 460.608 25.9147 460.203 26.32C459.819 26.7253 459.147 26.928 458.187 26.928ZM450.699 42.768H456.139V32.72H450.699V29.488H460.235V42.768H465.291V46H450.699V42.768ZM469.054 46V42.512L478.654 32.72H469.374V29.488H483.326V32.976L473.726 42.768H483.646V46H469.054ZM501.618 46C500.615 46 499.836 45.7547 499.282 45.264C498.748 44.752 498.428 44.048 498.322 43.152H498.162C497.863 44.176 497.276 44.976 496.402 45.552C495.527 46.1067 494.45 46.384 493.17 46.384C491.506 46.384 490.183 45.9467 489.202 45.072C488.22 44.1973 487.73 42.9813 487.73 41.424C487.73 38.096 490.172 36.432 495.058 36.432H497.97V35.344C497.97 34.2987 497.714 33.5093 497.202 32.976C496.69 32.4427 495.858 32.176 494.706 32.176C493.66 32.176 492.818 32.3787 492.178 32.784C491.538 33.1893 490.994 33.712 490.546 34.352L488.21 32.368C488.722 31.4507 489.543 30.6827 490.674 30.064C491.826 29.424 493.308 29.104 495.122 29.104C497.298 29.104 498.994 29.616 500.21 30.64C501.447 31.6427 502.066 33.1467 502.066 35.152V42.928H504.017V46H501.618ZM494.546 43.568C495.527 43.568 496.338 43.344 496.978 42.896C497.639 42.4267 497.97 41.7973 497.97 41.008V38.8H495.154C492.914 38.8 491.794 39.504 491.794 40.912V41.552C491.794 42.2133 492.039 42.7147 492.53 43.056C493.02 43.3973 493.692 43.568 494.546 43.568ZM507.525 42.768H511.621V32.72H507.525V29.488H515.717V34H515.973C516.122 33.424 516.325 32.8693 516.581 32.336C516.858 31.7813 517.2 31.3013 517.605 30.896C518.032 30.4693 518.544 30.128 519.141 29.872C519.738 29.616 520.453 29.488 521.285 29.488H523.077V33.328H519.685C518.448 33.328 517.477 33.6907 516.773 34.416C516.069 35.1413 515.717 36.0693 515.717 37.2V42.768H521.445V46H507.525V42.768ZM538.329 35.664L538.521 29.2H538.233L533.913 40.688L529.593 29.2H529.305L529.497 35.664V46H525.849V23.664H530.841L533.945 31.888H534.169L537.305 23.664H541.977V46H538.329V35.664ZM559.18 46C558.177 46 557.399 45.7547 556.844 45.264C556.311 44.752 555.991 44.048 555.884 43.152H555.724C555.425 44.176 554.839 44.976 553.964 45.552C553.089 46.1067 552.012 46.384 550.732 46.384C549.068 46.384 547.745 45.9467 546.764 45.072C545.783 44.1973 545.292 42.9813 545.292 41.424C545.292 38.096 547.735 36.432 552.62 36.432H555.532V35.344C555.532 34.2987 555.276 33.5093 554.764 32.976C554.252 32.4427 553.42 32.176 552.268 32.176C551.223 32.176 550.38 32.3787 549.74 32.784C549.1 33.1893 548.556 33.712 548.108 34.352L545.772 32.368C546.284 31.4507 547.105 30.6827 548.236 30.064C549.388 29.424 550.871 29.104 552.684 29.104C554.86 29.104 556.556 29.616 557.772 30.64C559.009 31.6427 559.628 33.1467 559.628 35.152V42.928H561.58V46H559.18ZM552.108 43.568C553.089 43.568 553.9 43.344 554.54 42.896C555.201 42.4267 555.532 41.7973 555.532 41.008V38.8H552.716C550.476 38.8 549.356 39.504 549.356 40.912V41.552C549.356 42.2133 549.601 42.7147 550.092 43.056C550.583 43.3973 551.255 43.568 552.108 43.568ZM581.12 47.728C581.12 49.456 580.394 50.7253 578.944 51.536C577.514 52.368 575.274 52.784 572.224 52.784C570.73 52.784 569.482 52.688 568.48 52.496C567.477 52.3253 566.666 52.0693 566.048 51.728C565.45 51.3867 565.024 50.9707 564.768 50.48C564.512 50.0107 564.384 49.4773 564.384 48.88C564.384 47.9627 564.65 47.2587 565.184 46.768C565.717 46.2773 566.464 45.9147 567.424 45.68V45.424C566.784 45.2107 566.272 44.912 565.888 44.528C565.525 44.144 565.344 43.6107 565.344 42.928C565.344 42.1173 565.61 41.5093 566.144 41.104C566.698 40.6987 567.424 40.3893 568.32 40.176V40.016C567.338 39.5467 566.57 38.8853 566.016 38.032C565.461 37.1787 565.184 36.144 565.184 34.928C565.184 34.0107 565.344 33.2 565.664 32.496C566.005 31.7707 566.474 31.1627 567.072 30.672C567.69 30.16 568.426 29.776 569.28 29.52C570.133 29.2427 571.082 29.104 572.128 29.104C573.237 29.104 574.24 29.2533 575.136 29.552V28.848C575.136 28.208 575.338 27.6747 575.744 27.248C576.17 26.8213 576.757 26.608 577.504 26.608H580.48V29.68H576.576V30.224C577.386 30.7147 578.005 31.3547 578.432 32.144C578.88 32.912 579.104 33.84 579.104 34.928C579.104 35.8453 578.933 36.6667 578.592 37.392C578.272 38.1173 577.802 38.7253 577.184 39.216C576.586 39.7067 575.85 40.0907 574.976 40.368C574.122 40.624 573.173 40.752 572.128 40.752C571.701 40.752 571.285 40.7413 570.88 40.72C570.496 40.6773 570.122 40.6027 569.76 40.496C569.461 40.6027 569.173 40.7733 568.896 41.008C568.618 41.2427 568.48 41.552 568.48 41.936C568.48 42.448 568.725 42.768 569.216 42.896C569.706 43.0027 570.293 43.056 570.976 43.056H574.72C575.872 43.056 576.853 43.1733 577.664 43.408C578.474 43.6213 579.136 43.9413 579.648 44.368C580.16 44.7733 580.533 45.264 580.767 45.84C581.002 46.416 581.12 47.0453 581.12 47.728ZM577.28 48.016C577.28 47.5253 577.077 47.1307 576.672 46.832C576.288 46.5547 575.562 46.416 574.496 46.416H568.8C568.16 46.7787 567.84 47.312 567.84 48.016C567.84 48.592 568.074 49.072 568.544 49.456C569.034 49.84 569.856 50.032 571.008 50.032H573.664C576.074 50.032 577.28 49.36 577.28 48.016ZM572.128 38.064C573.173 38.064 573.941 37.8187 574.432 37.328C574.922 36.816 575.168 36.1547 575.168 35.344V34.512C575.168 33.7013 574.922 33.0507 574.432 32.56C573.941 32.048 573.173 31.792 572.128 31.792C571.104 31.792 570.346 32.048 569.856 32.56C569.365 33.0507 569.12 33.7013 569.12 34.512V35.344C569.12 36.1547 569.365 36.816 569.856 37.328C570.346 37.8187 571.104 38.064 572.128 38.064ZM592.499 26.928C591.539 26.928 590.856 26.7253 590.451 26.32C590.067 25.9147 589.875 25.424 589.875 24.848V24.08C589.875 23.504 590.067 23.0133 590.451 22.608C590.856 22.2027 591.539 22 592.499 22C593.459 22 594.131 22.2027 594.515 22.608C594.92 23.0133 595.123 23.504 595.123 24.08V24.848C595.123 25.424 594.92 25.9147 594.515 26.32C594.131 26.7253 593.459 26.928 592.499 26.928ZM585.011 42.768H590.451V32.72H585.011V29.488H594.547V42.768H599.603V46H585.011V42.768ZM616.743 46C615.74 46 614.961 45.7547 614.407 45.264C613.873 44.752 613.553 44.048 613.447 43.152H613.287C612.988 44.176 612.401 44.976 611.527 45.552C610.652 46.1067 609.575 46.384 608.295 46.384C606.631 46.384 605.308 45.9467 604.327 45.072C603.345 44.1973 602.855 42.9813 602.855 41.424C602.855 38.096 605.297 36.432 610.183 36.432H613.095V35.344C613.095 34.2987 612.839 33.5093 612.327 32.976C611.815 32.4427 610.983 32.176 609.831 32.176C608.785 32.176 607.943 32.3787 607.303 32.784C606.663 33.1893 606.119 33.712 605.671 34.352L603.335 32.368C603.847 31.4507 604.668 30.6827 605.799 30.064C606.951 29.424 608.433 29.104 610.247 29.104C612.423 29.104 614.119 29.616 615.335 30.64C616.572 31.6427 617.191 33.1467 617.191 35.152V42.928H619.142V46H616.743ZM609.671 43.568C610.652 43.568 611.463 43.344 612.103 42.896C612.764 42.4267 613.095 41.7973 613.095 41.008V38.8H610.279C608.039 38.8 606.919 39.504 606.919 40.912V41.552C606.919 42.2133 607.164 42.7147 607.655 43.056C608.145 43.3973 608.817 43.568 609.671 43.568ZM545.708 71.488H549.804V74.4H550.028C550.476 73.3973 551.084 72.5973 551.852 72C552.641 71.4027 553.676 71.104 554.956 71.104C555.895 71.104 556.748 71.2853 557.516 71.648C558.305 71.9893 558.977 72.5227 559.532 73.248C560.087 73.952 560.513 74.848 560.812 75.936C561.111 77.024 561.26 78.2933 561.26 79.744C561.26 81.1947 561.111 82.464 560.812 83.552C560.513 84.64 560.087 85.5467 559.532 86.272C558.977 86.976 558.305 87.5093 557.516 87.872C556.748 88.2133 555.895 88.384 554.956 88.384C553.676 88.384 552.641 88.0853 551.852 87.488C551.084 86.8907 550.476 86.0907 550.028 85.088H549.804V94.4H545.708V71.488ZM553.228 85.12C554.423 85.12 555.34 84.7573 555.98 84.032C556.641 83.3067 556.972 82.3147 556.972 81.056V78.432C556.972 77.1733 556.641 76.1813 555.98 75.456C555.34 74.7307 554.423 74.368 553.228 74.368C552.289 74.368 551.479 74.6027 550.796 75.072C550.135 75.52 549.804 76.2133 549.804 77.152V82.336C549.804 83.2747 550.135 83.9787 550.796 84.448C551.479 84.896 552.289 85.12 553.228 85.12ZM565.088 84.768H569.184V74.72H565.088V71.488H573.28V76H573.536C573.685 75.424 573.888 74.8693 574.144 74.336C574.421 73.7813 574.762 73.3013 575.168 72.896C575.594 72.4693 576.106 72.128 576.704 71.872C577.301 71.616 578.016 71.488 578.847 71.488H580.64V75.328H577.248C576.01 75.328 575.04 75.6907 574.336 76.416C573.632 77.1413 573.28 78.0693 573.28 79.2V84.768H579.008V88H565.088V84.768ZM591.475 88.384C590.216 88.384 589.086 88.1813 588.083 87.776C587.102 87.3707 586.259 86.7947 585.555 86.048C584.872 85.3013 584.339 84.3947 583.955 83.328C583.592 82.2613 583.411 81.0667 583.411 79.744C583.411 78.4213 583.592 77.2267 583.955 76.16C584.339 75.0933 584.872 74.1867 585.555 73.44C586.259 72.6933 587.102 72.1173 588.083 71.712C589.086 71.3067 590.216 71.104 591.475 71.104C592.712 71.104 593.832 71.3067 594.835 71.712C595.838 72.1173 596.68 72.6933 597.363 73.44C598.067 74.1867 598.6 75.0933 598.963 76.16C599.347 77.2267 599.539 78.4213 599.539 79.744C599.539 81.0667 599.347 82.2613 598.963 83.328C598.6 84.3947 598.067 85.3013 597.363 86.048C596.68 86.7947 595.838 87.3707 594.835 87.776C593.832 88.1813 592.712 88.384 591.475 88.384ZM591.475 85.248C592.648 85.248 593.576 84.896 594.259 84.192C594.942 83.4667 595.283 82.4107 595.283 81.024V78.464C595.283 77.0773 594.942 76.032 594.259 75.328C593.576 74.6027 592.648 74.24 591.475 74.24C590.302 74.24 589.374 74.6027 588.691 75.328C588.008 76.032 587.667 77.0773 587.667 78.464V81.024C587.667 82.4107 588.008 83.4667 588.691 84.192C589.374 84.896 590.302 85.248 591.475 85.248ZM602.247 88V71.488H605.639V73.76H605.831C606.087 73.0347 606.449 72.416 606.919 71.904C607.409 71.3707 608.092 71.104 608.967 71.104C609.799 71.104 610.46 71.3493 610.951 71.84C611.441 72.3093 611.761 72.9813 611.911 73.856H612.071C612.348 73.1093 612.753 72.4693 613.287 71.936C613.841 71.3813 614.62 71.104 615.623 71.104C616.839 71.104 617.713 71.5413 618.247 72.416C618.78 73.2907 619.047 74.5813 619.047 76.288V88H615.687V76.768C615.687 75.808 615.548 75.136 615.271 74.752C615.015 74.368 614.62 74.176 614.087 74.176C613.596 74.176 613.18 74.336 612.839 74.656C612.519 74.976 612.359 75.4667 612.359 76.128V88H608.967V76.768C608.967 75.808 608.839 75.136 608.583 74.752C608.327 74.368 607.932 74.176 607.399 74.176C606.887 74.176 606.46 74.336 606.119 74.656C605.799 74.976 605.639 75.4667 605.639 76.128V88H602.247ZM630.234 88.384C628.911 88.384 627.738 88.1813 626.714 87.776C625.69 87.3707 624.826 86.7947 624.122 86.048C623.439 85.3013 622.917 84.4053 622.554 83.36C622.191 82.2933 622.01 81.0987 622.01 79.776C622.01 78.432 622.191 77.2267 622.554 76.16C622.938 75.0933 623.471 74.1867 624.154 73.44C624.837 72.6933 625.658 72.1173 626.618 71.712C627.599 71.3067 628.698 71.104 629.914 71.104C631.109 71.104 632.186 71.3067 633.146 71.712C634.106 72.096 634.917 72.6507 635.578 73.376C636.261 74.1013 636.783 74.976 637.146 76C637.509 77.024 637.69 78.1547 637.69 79.392V80.736H626.106V81.152C626.106 82.3467 626.479 83.3173 627.226 84.064C627.973 84.7893 629.018 85.152 630.362 85.152C631.386 85.152 632.261 84.9493 632.986 84.544C633.733 84.1173 634.351 83.5627 634.842 82.88L637.178 85.216C636.581 86.0907 635.706 86.8373 634.554 87.456C633.423 88.0747 631.983 88.384 630.234 88.384ZM629.946 74.112C628.794 74.112 627.866 74.4747 627.162 75.2C626.458 75.9253 626.106 76.8853 626.106 78.08V78.304H633.594V78.016C633.594 76.8213 633.263 75.872 632.602 75.168C631.962 74.464 631.077 74.112 629.946 74.112ZM648.974 88.384C647.16 88.384 645.592 88.1067 644.27 87.552C642.947 86.976 641.912 86.208 641.166 85.248L643.566 83.072C644.248 83.8187 645.027 84.3947 645.902 84.8C646.798 85.2053 647.832 85.408 649.006 85.408C650.03 85.408 650.851 85.2373 651.47 84.896C652.088 84.5547 652.398 84.032 652.398 83.328C652.398 82.7307 652.184 82.3253 651.758 82.112C651.352 81.8987 650.808 81.7387 650.126 81.632L647.47 81.216C646.787 81.1093 646.115 80.96 645.454 80.768C644.814 80.5547 644.238 80.2667 643.726 79.904C643.235 79.5413 642.84 79.0827 642.542 78.528C642.243 77.952 642.094 77.2587 642.094 76.448C642.094 74.72 642.734 73.3973 644.014 72.48C645.315 71.5627 647.096 71.104 649.358 71.104C650.958 71.104 652.312 71.328 653.422 71.776C654.552 72.224 655.48 72.8533 656.206 73.664L654.062 76.032C653.592 75.52 652.963 75.072 652.174 74.688C651.406 74.2827 650.424 74.08 649.23 74.08C647.139 74.08 646.094 74.7307 646.094 76.032C646.094 76.6293 646.307 77.0453 646.734 77.28C647.16 77.4933 647.715 77.6533 648.398 77.76L651.022 78.176C651.726 78.2827 652.398 78.4427 653.038 78.656C653.699 78.848 654.275 79.1253 654.766 79.488C655.278 79.8507 655.683 80.3093 655.982 80.864C656.28 81.4187 656.43 82.1013 656.43 82.912C656.43 84.6187 655.768 85.9627 654.446 86.944C653.144 87.904 651.32 88.384 648.974 88.384ZM668.161 88.384C666.348 88.384 664.78 88.1067 663.457 87.552C662.134 86.976 661.1 86.208 660.353 85.248L662.753 83.072C663.436 83.8187 664.214 84.3947 665.089 84.8C665.985 85.2053 667.02 85.408 668.193 85.408C669.217 85.408 670.038 85.2373 670.657 84.896C671.276 84.5547 671.585 84.032 671.585 83.328C671.585 82.7307 671.372 82.3253 670.945 82.112C670.54 81.8987 669.996 81.7387 669.313 81.632L666.657 81.216C665.974 81.1093 665.302 80.96 664.641 80.768C664.001 80.5547 663.425 80.2667 662.913 79.904C662.422 79.5413 662.028 79.0827 661.729 78.528C661.43 77.952 661.281 77.2587 661.281 76.448C661.281 74.72 661.921 73.3973 663.201 72.48C664.502 71.5627 666.284 71.104 668.545 71.104C670.145 71.104 671.5 71.328 672.609 71.776C673.74 72.224 674.668 72.8533 675.393 73.664L673.249 76.032C672.78 75.52 672.15 75.072 671.361 74.688C670.593 74.2827 669.612 74.08 668.417 74.08C666.326 74.08 665.281 74.7307 665.281 76.032C665.281 76.6293 665.494 77.0453 665.921 77.28C666.348 77.4933 666.902 77.6533 667.585 77.76L670.209 78.176C670.913 78.2827 671.585 78.4427 672.225 78.656C672.886 78.848 673.462 79.1253 673.953 79.488C674.465 79.8507 674.87 80.3093 675.169 80.864C675.468 81.4187 675.617 82.1013 675.617 82.912C675.617 84.6187 674.956 85.9627 673.633 86.944C672.332 87.904 670.508 88.384 668.161 88.384ZM693.493 88C692.49 88 691.711 87.7547 691.157 87.264C690.623 86.752 690.303 86.048 690.197 85.152H690.037C689.738 86.176 689.151 86.976 688.277 87.552C687.402 88.1067 686.325 88.384 685.045 88.384C683.381 88.384 682.058 87.9467 681.077 87.072C680.095 86.1973 679.605 84.9813 679.605 83.424C679.605 80.096 682.047 78.432 686.933 78.432H689.845V77.344C689.845 76.2987 689.589 75.5093 689.077 74.976C688.565 74.4427 687.733 74.176 686.581 74.176C685.535 74.176 684.693 74.3787 684.053 74.784C683.413 75.1893 682.869 75.712 682.421 76.352L680.085 74.368C680.597 73.4507 681.418 72.6827 682.549 72.064C683.701 71.424 685.183 71.104 686.997 71.104C689.173 71.104 690.869 71.616 692.085 72.64C693.322 73.6427 693.941 75.1467 693.941 77.152V84.928H695.892V88H693.493ZM686.421 85.568C687.402 85.568 688.213 85.344 688.853 84.896C689.514 84.4267 689.845 83.7973 689.845 83.008V80.8H687.029C684.789 80.8 683.669 81.504 683.669 82.912V83.552C683.669 84.2133 683.914 84.7147 684.405 85.056C684.895 85.3973 685.567 85.568 686.421 85.568ZM711.016 77.664L711.208 71.2H710.92L706.6 82.688L702.28 71.2H701.992L702.184 77.664V88H698.536V65.664H703.528L706.632 73.888H706.856L709.992 65.664H714.664V88H711.016V77.664ZM731.868 88C730.865 88 730.086 87.7547 729.532 87.264C728.998 86.752 728.678 86.048 728.572 85.152H728.412C728.113 86.176 727.526 86.976 726.652 87.552C725.777 88.1067 724.7 88.384 723.42 88.384C721.756 88.384 720.433 87.9467 719.452 87.072C718.47 86.1973 717.98 84.9813 717.98 83.424C717.98 80.096 720.422 78.432 725.308 78.432H728.22V77.344C728.22 76.2987 727.964 75.5093 727.452 74.976C726.94 74.4427 726.108 74.176 724.956 74.176C723.91 74.176 723.068 74.3787 722.428 74.784C721.788 75.1893 721.244 75.712 720.796 76.352L718.46 74.368C718.972 73.4507 719.793 72.6827 720.924 72.064C722.076 71.424 723.558 71.104 725.372 71.104C727.548 71.104 729.244 71.616 730.46 72.64C731.697 73.6427 732.316 75.1467 732.316 77.152V84.928H734.267V88H731.868ZM724.796 85.568C725.777 85.568 726.588 85.344 727.228 84.896C727.889 84.4267 728.22 83.7973 728.22 83.008V80.8H725.404C723.164 80.8 722.044 81.504 722.044 82.912V83.552C722.044 84.2133 722.289 84.7147 722.78 85.056C723.27 85.3973 723.942 85.568 724.796 85.568ZM753.807 89.728C753.807 91.456 753.082 92.7253 751.631 93.536C750.202 94.368 747.962 94.784 744.911 94.784C743.418 94.784 742.17 94.688 741.167 94.496C740.164 94.3253 739.354 94.0693 738.735 93.728C738.138 93.3867 737.711 92.9707 737.455 92.48C737.199 92.0107 737.071 91.4773 737.071 90.88C737.071 89.9627 737.338 89.2587 737.871 88.768C738.404 88.2773 739.151 87.9147 740.111 87.68V87.424C739.471 87.2107 738.959 86.912 738.575 86.528C738.212 86.144 738.031 85.6107 738.031 84.928C738.031 84.1173 738.298 83.5093 738.831 83.104C739.386 82.6987 740.111 82.3893 741.007 82.176V82.016C740.026 81.5467 739.258 80.8853 738.703 80.032C738.148 79.1787 737.871 78.144 737.871 76.928C737.871 76.0107 738.031 75.2 738.351 74.496C738.692 73.7707 739.162 73.1627 739.759 72.672C740.378 72.16 741.114 71.776 741.967 71.52C742.82 71.2427 743.77 71.104 744.815 71.104C745.924 71.104 746.927 71.2533 747.823 71.552V70.848C747.823 70.208 748.026 69.6747 748.431 69.248C748.858 68.8213 749.444 68.608 750.191 68.608H753.167V71.68H749.263V72.224C750.074 72.7147 750.692 73.3547 751.119 74.144C751.567 74.912 751.791 75.84 751.791 76.928C751.791 77.8453 751.62 78.6667 751.279 79.392C750.959 80.1173 750.49 80.7253 749.871 81.216C749.274 81.7067 748.538 82.0907 747.663 82.368C746.81 82.624 745.86 82.752 744.815 82.752C744.388 82.752 743.972 82.7413 743.567 82.72C743.183 82.6773 742.81 82.6027 742.447 82.496C742.148 82.6027 741.86 82.7733 741.583 83.008C741.306 83.2427 741.167 83.552 741.167 83.936C741.167 84.448 741.412 84.768 741.903 84.896C742.394 85.0027 742.98 85.056 743.663 85.056H747.407C748.559 85.056 749.54 85.1733 750.351 85.408C751.162 85.6213 751.823 85.9413 752.335 86.368C752.847 86.7733 753.22 87.264 753.455 87.84C753.69 88.416 753.807 89.0453 753.807 89.728ZM749.967 90.016C749.967 89.5253 749.764 89.1307 749.359 88.832C748.975 88.5547 748.25 88.416 747.183 88.416H741.487C740.847 88.7787 740.527 89.312 740.527 90.016C740.527 90.592 740.762 91.072 741.231 91.456C741.722 91.84 742.543 92.032 743.695 92.032H746.351C748.762 92.032 749.967 91.36 749.967 90.016ZM744.815 80.064C745.86 80.064 746.628 79.8187 747.119 79.328C747.61 78.816 747.855 78.1547 747.855 77.344V76.512C747.855 75.7013 747.61 75.0507 747.119 74.56C746.628 74.048 745.86 73.792 744.815 73.792C743.791 73.792 743.034 74.048 742.543 74.56C742.052 75.0507 741.807 75.7013 741.807 76.512V77.344C741.807 78.1547 742.052 78.816 742.543 79.328C743.034 79.8187 743.791 80.064 744.815 80.064ZM765.187 68.928C764.227 68.928 763.544 68.7253 763.139 68.32C762.755 67.9147 762.562 67.424 762.562 66.848V66.08C762.562 65.504 762.755 65.0133 763.139 64.608C763.544 64.2027 764.227 64 765.187 64C766.147 64 766.819 64.2027 767.203 64.608C767.608 65.0133 767.811 65.504 767.811 66.08V66.848C767.811 67.424 767.608 67.9147 767.203 68.32C766.819 68.7253 766.147 68.928 765.187 68.928ZM757.699 84.768H763.139V74.72H757.699V71.488H767.235V84.768H772.291V88H757.699V84.768ZM783.99 88.384C782.731 88.384 781.601 88.1813 780.598 87.776C779.595 87.3707 778.742 86.7947 778.038 86.048C777.355 85.3013 776.822 84.3947 776.438 83.328C776.075 82.2613 775.894 81.0667 775.894 79.744C775.894 78.4213 776.075 77.2267 776.438 76.16C776.822 75.0933 777.355 74.1867 778.038 73.44C778.742 72.6933 779.585 72.1173 780.566 71.712C781.569 71.3067 782.699 71.104 783.958 71.104C785.707 71.104 787.115 71.4667 788.182 72.192C789.249 72.9173 790.059 73.8773 790.614 75.072L787.446 76.8C787.147 76.096 786.721 75.5307 786.166 75.104C785.633 74.656 784.897 74.432 783.958 74.432C782.742 74.432 781.803 74.784 781.142 75.488C780.502 76.192 780.182 77.152 780.182 78.368V81.12C780.182 82.3147 780.502 83.2747 781.142 84C781.803 84.704 782.763 85.056 784.022 85.056C785.003 85.056 785.782 84.832 786.358 84.384C786.955 83.936 787.435 83.3387 787.798 82.592L790.87 84.416C790.315 85.5893 789.473 86.5493 788.342 87.296C787.233 88.0213 785.782 88.384 783.99 88.384ZM808.618 88C807.615 88 806.836 87.7547 806.282 87.264C805.748 86.752 805.428 86.048 805.322 85.152H805.162C804.863 86.176 804.276 86.976 803.402 87.552C802.527 88.1067 801.45 88.384 800.17 88.384C798.506 88.384 797.183 87.9467 796.202 87.072C795.22 86.1973 794.73 84.9813 794.73 83.424C794.73 80.096 797.172 78.432 802.058 78.432H804.97V77.344C804.97 76.2987 804.714 75.5093 804.202 74.976C803.69 74.4427 802.858 74.176 801.706 74.176C800.66 74.176 799.818 74.3787 799.178 74.784C798.538 75.1893 797.994 75.712 797.546 76.352L795.21 74.368C795.722 73.4507 796.543 72.6827 797.674 72.064C798.826 71.424 800.308 71.104 802.122 71.104C804.298 71.104 805.994 71.616 807.21 72.64C808.447 73.6427 809.066 75.1467 809.066 77.152V84.928H811.017V88H808.618ZM801.546 85.568C802.527 85.568 803.338 85.344 803.978 84.896C804.639 84.4267 804.97 83.7973 804.97 83.008V80.8H802.154C799.914 80.8 798.794 81.504 798.794 82.912V83.552C798.794 84.2133 799.039 84.7147 799.53 85.056C800.02 85.3973 800.692 85.568 801.546 85.568ZM277.179 126.768H282.427V109.552H277.179V106.32H286.523V126.768H291.803V130H277.179V126.768ZM303.663 130.384C302.404 130.384 301.273 130.181 300.271 129.776C299.289 129.371 298.447 128.795 297.743 128.048C297.06 127.301 296.527 126.395 296.143 125.328C295.78 124.261 295.599 123.067 295.599 121.744C295.599 120.421 295.78 119.227 296.143 118.16C296.527 117.093 297.06 116.187 297.743 115.44C298.447 114.693 299.289 114.117 300.271 113.712C301.273 113.307 302.404 113.104 303.663 113.104C304.9 113.104 306.02 113.307 307.023 113.712C308.025 114.117 308.868 114.693 309.551 115.44C310.255 116.187 310.788 117.093 311.151 118.16C311.535 119.227 311.727 120.421 311.727 121.744C311.727 123.067 311.535 124.261 311.151 125.328C310.788 126.395 310.255 127.301 309.551 128.048C308.868 128.795 308.025 129.371 307.023 129.776C306.02 130.181 304.9 130.384 303.663 130.384ZM303.663 127.248C304.836 127.248 305.764 126.896 306.447 126.192C307.129 125.467 307.471 124.411 307.471 123.024V120.464C307.471 119.077 307.129 118.032 306.447 117.328C305.764 116.603 304.836 116.24 303.663 116.24C302.489 116.24 301.561 116.603 300.879 117.328C300.196 118.032 299.855 119.077 299.855 120.464V123.024C299.855 124.411 300.196 125.467 300.879 126.192C301.561 126.896 302.489 127.248 303.663 127.248ZM331.682 131.728C331.682 133.456 330.957 134.725 329.506 135.536C328.077 136.368 325.837 136.784 322.786 136.784C321.293 136.784 320.045 136.688 319.042 136.496C318.039 136.325 317.229 136.069 316.61 135.728C316.013 135.387 315.586 134.971 315.33 134.48C315.074 134.011 314.946 133.477 314.946 132.88C314.946 131.963 315.213 131.259 315.746 130.768C316.279 130.277 317.026 129.915 317.986 129.68V129.424C317.346 129.211 316.834 128.912 316.45 128.528C316.087 128.144 315.906 127.611 315.906 126.928C315.906 126.117 316.173 125.509 316.706 125.104C317.261 124.699 317.986 124.389 318.882 124.176V124.016C317.901 123.547 317.133 122.885 316.578 122.032C316.023 121.179 315.746 120.144 315.746 118.928C315.746 118.011 315.906 117.2 316.226 116.496C316.567 115.771 317.037 115.163 317.634 114.672C318.253 114.16 318.989 113.776 319.842 113.52C320.695 113.243 321.645 113.104 322.69 113.104C323.799 113.104 324.802 113.253 325.698 113.552V112.848C325.698 112.208 325.901 111.675 326.306 111.248C326.733 110.821 327.319 110.608 328.066 110.608H331.042V113.68H327.138V114.224C327.949 114.715 328.567 115.355 328.994 116.144C329.442 116.912 329.666 117.84 329.666 118.928C329.666 119.845 329.495 120.667 329.154 121.392C328.834 122.117 328.365 122.725 327.746 123.216C327.149 123.707 326.413 124.091 325.538 124.368C324.685 124.624 323.735 124.752 322.69 124.752C322.263 124.752 321.847 124.741 321.442 124.72C321.058 124.677 320.685 124.603 320.322 124.496C320.023 124.603 319.735 124.773 319.458 125.008C319.181 125.243 319.042 125.552 319.042 125.936C319.042 126.448 319.287 126.768 319.778 126.896C320.269 127.003 320.855 127.056 321.538 127.056H325.282C326.434 127.056 327.415 127.173 328.226 127.408C329.037 127.621 329.698 127.941 330.21 128.368C330.722 128.773 331.095 129.264 331.33 129.84C331.565 130.416 331.682 131.045 331.682 131.728ZM327.842 132.016C327.842 131.525 327.639 131.131 327.234 130.832C326.85 130.555 326.125 130.416 325.058 130.416H319.362C318.722 130.779 318.402 131.312 318.402 132.016C318.402 132.592 318.637 133.072 319.106 133.456C319.597 133.84 320.418 134.032 321.57 134.032H324.226C326.637 134.032 327.842 133.36 327.842 132.016ZM322.69 122.064C323.735 122.064 324.503 121.819 324.994 121.328C325.485 120.816 325.73 120.155 325.73 119.344V118.512C325.73 117.701 325.485 117.051 324.994 116.56C324.503 116.048 323.735 115.792 322.69 115.792C321.666 115.792 320.909 116.048 320.418 116.56C319.927 117.051 319.682 117.701 319.682 118.512V119.344C319.682 120.155 319.927 120.816 320.418 121.328C320.909 121.819 321.666 122.064 322.69 122.064Z" fill="#F4E498"/>
<path d="M626.106 36.048C626.106 34.4907 626.277 32.9973 626.618 31.568C626.981 30.1173 627.461 28.7733 628.058 27.536C628.677 26.2987 629.391 25.1893 630.202 24.208C631.013 23.2053 631.866 22.3627 632.762 21.68H636.858C635.898 22.3627 634.981 23.1627 634.106 24.08C633.231 24.9973 632.463 26.0107 631.802 27.12C631.141 28.208 630.607 29.3813 630.202 30.64C629.818 31.8773 629.626 33.168 629.626 34.512V37.584C629.626 38.928 629.818 40.2293 630.202 41.488C630.607 42.7253 631.141 43.8987 631.802 45.008C632.463 46.096 633.231 47.0987 634.106 48.016C634.981 48.9333 635.898 49.7333 636.858 50.416H632.762C631.866 49.7547 631.013 48.9227 630.202 47.92C629.391 46.9173 628.677 45.7973 628.058 44.56C627.461 43.3227 626.981 41.9893 626.618 40.56C626.277 39.1093 626.106 37.6053 626.106 36.048ZM652.782 36.048C652.782 37.6053 652.6 39.1093 652.238 40.56C651.896 41.9893 651.416 43.3227 650.798 44.56C650.2 45.7973 649.496 46.9173 648.686 47.92C647.875 48.9227 647.022 49.7547 646.126 50.416H642.03C642.99 49.7333 643.907 48.9333 644.782 48.016C645.656 47.0987 646.424 46.096 647.086 45.008C647.747 43.8987 648.27 42.7253 648.654 41.488C649.059 40.2293 649.262 38.928 649.262 37.584V34.512C649.262 33.168 649.059 31.8773 648.654 30.64C648.27 29.3813 647.747 28.208 647.086 27.12C646.424 26.0107 645.656 24.9973 644.782 24.08C643.907 23.1627 642.99 22.3627 642.03 21.68H646.126C647.022 22.3627 647.875 23.2053 648.686 24.208C649.496 25.1893 650.2 26.2987 650.798 27.536C651.416 28.7733 651.896 30.1173 652.238 31.568C652.6 32.9973 652.782 34.4907 652.782 36.048ZM688.277 50.416C686.997 50.416 686.069 50.1173 685.493 49.52C684.917 48.9227 684.629 48.1547 684.629 47.216V45.616C684.629 45.0613 684.682 44.5813 684.789 44.176C684.917 43.7493 685.066 43.376 685.237 43.056C685.407 42.736 685.599 42.448 685.812 42.192C686.026 41.936 686.229 41.6907 686.421 41.456C686.783 41.0293 687.029 40.6667 687.157 40.368C687.306 40.048 687.381 39.7173 687.381 39.376C687.381 38.096 686.143 37.456 683.669 37.456H680.885V34.64H683.669C686.143 34.64 687.381 34 687.381 32.72C687.381 32.3787 687.306 32.0587 687.157 31.76C687.029 31.44 686.783 31.0667 686.421 30.64C686.229 30.4053 686.026 30.16 685.812 29.904C685.599 29.648 685.407 29.36 685.237 29.04C685.066 28.72 684.917 28.3573 684.789 27.952C684.682 27.5253 684.629 27.0347 684.629 26.48V24.88C684.629 23.9413 684.917 23.1733 685.493 22.576C686.069 21.9787 686.997 21.68 688.277 21.68H693.941V24.496H687.957V26.288C687.957 27.12 688.085 27.76 688.341 28.208C688.597 28.656 688.895 29.0933 689.237 29.52C689.599 29.968 689.941 30.448 690.261 30.96C690.581 31.472 690.741 32.0693 690.741 32.752C690.741 33.648 690.431 34.3733 689.813 34.928C689.194 35.4613 688.277 35.8027 687.061 35.952V36.144C688.277 36.2933 689.194 36.6453 689.813 37.2C690.431 37.7333 690.741 38.448 690.741 39.344C690.741 40.0267 690.581 40.624 690.261 41.136C689.941 41.648 689.599 42.128 689.237 42.576C688.895 43.0027 688.597 43.44 688.341 43.888C688.085 44.336 687.957 44.976 687.957 45.808V47.6H693.941V50.416H688.277ZM391.984 76.352V73.056H407.216V76.352H391.984ZM391.984 83.424V80.128H407.216V83.424H391.984ZM817.981 78.048C817.981 76.4907 818.152 74.9973 818.493 73.568C818.856 72.1173 819.336 70.7733 819.933 69.536C820.552 68.2987 821.266 67.1893 822.077 66.208C822.888 65.2053 823.741 64.3627 824.637 63.68H828.733C827.773 64.3627 826.856 65.1627 825.981 66.08C825.106 66.9973 824.338 68.0107 823.677 69.12C823.016 70.208 822.482 71.3813 822.077 72.64C821.693 73.8773 821.501 75.168 821.501 76.512V79.584C821.501 80.928 821.693 82.2293 822.077 83.488C822.482 84.7253 823.016 85.8987 823.677 87.008C824.338 88.096 825.106 89.0987 825.981 90.016C826.856 90.9333 827.773 91.7333 828.733 92.416H824.637C823.741 91.7547 822.888 90.9227 822.077 89.92C821.266 88.9173 820.552 87.7973 819.933 86.56C819.336 85.3227 818.856 83.9893 818.493 82.56C818.152 81.1093 817.981 79.6053 817.981 78.048ZM844.657 78.048C844.657 79.6053 844.475 81.1093 844.113 82.56C843.771 83.9893 843.291 85.3227 842.673 86.56C842.075 87.7973 841.371 88.9173 840.561 89.92C839.75 90.9227 838.897 91.7547 838.001 92.416H833.905C834.865 91.7333 835.782 90.9333 836.657 90.016C837.531 89.0987 838.299 88.096 838.961 87.008C839.622 85.8987 840.145 84.7253 840.529 83.488C840.934 82.2293 841.137 80.928 841.137 79.584V76.512C841.137 75.168 840.934 73.8773 840.529 72.64C840.145 71.3813 839.622 70.208 838.961 69.12C838.299 68.0107 837.531 66.9973 836.657 66.08C835.782 65.1627 834.865 64.3627 833.905 63.68H838.001C838.897 64.3627 839.75 65.2053 840.561 66.208C841.371 67.1893 842.075 68.2987 842.673 69.536C843.291 70.7733 843.771 72.1173 844.113 73.568C844.475 74.9973 844.657 76.4907 844.657 78.048ZM858.052 82.784H863.556L859.364 92.736H856.26L858.052 82.784ZM860.1 76.992C858.991 76.992 858.201 76.7573 857.732 76.288C857.263 75.8187 857.028 75.2427 857.028 74.56V73.6C857.028 72.9173 857.263 72.3413 857.732 71.872C858.201 71.4027 858.991 71.168 860.1 71.168C861.209 71.168 861.999 71.4027 862.468 71.872C862.937 72.3413 863.172 72.9173 863.172 73.6V74.56C863.172 75.2427 862.937 75.8187 862.468 76.288C861.999 76.7573 861.209 76.992 860.1 76.992ZM265.288 130.352C264.178 130.352 263.389 130.117 262.92 129.648C262.45 129.179 262.216 128.603 262.216 127.92V126.96C262.216 126.277 262.45 125.701 262.92 125.232C263.389 124.763 264.178 124.528 265.288 124.528C266.397 124.528 267.186 124.763 267.656 125.232C268.125 125.701 268.36 126.277 268.36 126.96V127.92C268.36 128.603 268.125 129.179 267.656 129.648C267.186 130.117 266.397 130.352 265.288 130.352ZM338.294 120.048C338.294 118.491 338.464 116.997 338.806 115.568C339.168 114.117 339.648 112.773 340.246 111.536C340.864 110.299 341.579 109.189 342.39 108.208C343.2 107.205 344.054 106.363 344.95 105.68H349.046C348.086 106.363 347.168 107.163 346.294 108.08C345.419 108.997 344.651 110.011 343.99 111.12C343.328 112.208 342.795 113.381 342.39 114.64C342.006 115.877 341.814 117.168 341.814 118.512V121.584C341.814 122.928 342.006 124.229 342.39 125.488C342.795 126.725 343.328 127.899 343.99 129.008C344.651 130.096 345.419 131.099 346.294 132.016C347.168 132.933 348.086 133.733 349.046 134.416H344.95C344.054 133.755 343.2 132.923 342.39 131.92C341.579 130.917 340.864 129.797 340.246 128.56C339.648 127.323 339.168 125.989 338.806 124.56C338.464 123.109 338.294 121.605 338.294 120.048ZM537.657 120.048C537.657 121.605 537.475 123.109 537.113 124.56C536.771 125.989 536.291 127.323 535.673 128.56C535.075 129.797 534.371 130.917 533.561 131.92C532.75 132.923 531.897 133.755 531.001 134.416H526.905C527.865 133.733 528.782 132.933 529.657 132.016C530.531 131.099 531.299 130.096 531.961 129.008C532.622 127.899 533.145 126.725 533.529 125.488C533.934 124.229 534.137 122.928 534.137 121.584V118.512C534.137 117.168 533.934 115.877 533.529 114.64C533.145 113.381 532.622 112.208 531.961 111.12C531.299 110.011 530.531 108.997 529.657 108.08C528.782 107.163 527.865 106.363 526.905 105.68H531.001C531.897 106.363 532.75 107.205 533.561 108.208C534.371 109.189 535.075 110.299 535.673 111.536C536.291 112.773 536.771 114.117 537.113 115.568C537.475 116.997 537.657 118.491 537.657 120.048ZM551.052 124.784H556.556L552.364 134.736H549.26L551.052 124.784ZM553.1 118.992C551.991 118.992 551.201 118.757 550.732 118.288C550.263 117.819 550.028 117.243 550.028 116.56V115.6C550.028 114.917 550.263 114.341 550.732 113.872C551.201 113.403 551.991 113.168 553.1 113.168C554.209 113.168 554.999 113.403 555.468 113.872C555.937 114.341 556.172 114.917 556.172 115.6V116.56C556.172 117.243 555.937 117.819 555.468 118.288C554.999 118.757 554.209 118.992 553.1 118.992ZM130.111 147.68C131.391 147.68 132.319 147.979 132.895 148.576C133.471 149.173 133.759 149.941 133.759 150.88V152.48C133.759 153.035 133.695 153.525 133.567 153.952C133.46 154.357 133.322 154.72 133.151 155.04C132.98 155.36 132.788 155.648 132.575 155.904C132.362 156.16 132.159 156.405 131.967 156.64C131.604 157.067 131.348 157.44 131.199 157.76C131.071 158.059 131.007 158.379 131.007 158.72C131.007 160 132.244 160.64 134.719 160.64H137.503V163.456H134.719C132.244 163.456 131.007 164.096 131.007 165.376C131.007 165.717 131.071 166.048 131.199 166.368C131.348 166.667 131.604 167.029 131.967 167.456C132.159 167.691 132.362 167.936 132.575 168.192C132.788 168.448 132.98 168.736 133.151 169.056C133.322 169.376 133.46 169.749 133.567 170.176C133.695 170.581 133.759 171.061 133.759 171.616V173.216C133.759 174.155 133.471 174.923 132.895 175.52C132.319 176.117 131.391 176.416 130.111 176.416H124.447V173.6H130.431V171.808C130.431 170.976 130.303 170.336 130.047 169.888C129.791 169.44 129.492 169.003 129.151 168.576C128.788 168.128 128.447 167.648 128.127 167.136C127.807 166.624 127.647 166.027 127.647 165.344C127.647 164.448 127.956 163.733 128.575 163.2C129.194 162.645 130.111 162.293 131.327 162.144V161.952C130.111 161.803 129.194 161.461 128.575 160.928C127.956 160.373 127.647 159.648 127.647 158.752C127.647 158.069 127.807 157.472 128.127 156.96C128.447 156.448 128.788 155.968 129.151 155.52C129.492 155.093 129.791 154.656 130.047 154.208C130.303 153.76 130.431 153.12 130.431 152.288V150.496H124.447V147.68H130.111Z" fill="white"/>
<path d="M200.525 84.768H204.621V74.72H200.525V71.488H208.717V76H208.973C209.122 75.424 209.325 74.8693 209.581 74.336C209.858 73.7813 210.2 73.3013 210.605 72.896C211.032 72.4693 211.544 72.128 212.141 71.872C212.738 71.616 213.453 71.488 214.285 71.488H216.077V75.328H212.685C211.448 75.328 210.477 75.6907 209.773 76.416C209.069 77.1413 208.717 78.0693 208.717 79.2V84.768H214.445V88H200.525V84.768ZM227.297 88.384C225.974 88.384 224.801 88.1813 223.777 87.776C222.753 87.3707 221.889 86.7947 221.185 86.048C220.502 85.3013 219.979 84.4053 219.617 83.36C219.254 82.2933 219.073 81.0987 219.073 79.776C219.073 78.432 219.254 77.2267 219.617 76.16C220.001 75.0933 220.534 74.1867 221.217 73.44C221.899 72.6933 222.721 72.1173 223.681 71.712C224.662 71.3067 225.761 71.104 226.977 71.104C228.171 71.104 229.249 71.3067 230.209 71.712C231.169 72.096 231.979 72.6507 232.641 73.376C233.323 74.1013 233.846 74.976 234.208 76C234.571 77.024 234.753 78.1547 234.753 79.392V80.736H223.169V81.152C223.169 82.3467 223.542 83.3173 224.289 84.064C225.035 84.7893 226.081 85.152 227.425 85.152C228.449 85.152 229.323 84.9493 230.049 84.544C230.795 84.1173 231.414 83.5627 231.905 82.88L234.241 85.216C233.643 86.0907 232.769 86.8373 231.617 87.456C230.486 88.0747 229.046 88.384 227.297 88.384ZM227.009 74.112C225.857 74.112 224.929 74.4747 224.225 75.2C223.521 75.9253 223.169 76.8853 223.169 78.08V78.304H230.657V78.016C230.657 76.8213 230.326 75.872 229.665 75.168C229.025 74.464 228.139 74.112 227.009 74.112ZM246.036 88.384C244.223 88.384 242.655 88.1067 241.332 87.552C240.009 86.976 238.975 86.208 238.228 85.248L240.628 83.072C241.311 83.8187 242.089 84.3947 242.964 84.8C243.86 85.2053 244.895 85.408 246.068 85.408C247.092 85.408 247.913 85.2373 248.532 84.896C249.151 84.5547 249.46 84.032 249.46 83.328C249.46 82.7307 249.247 82.3253 248.82 82.112C248.415 81.8987 247.871 81.7387 247.188 81.632L244.532 81.216C243.849 81.1093 243.177 80.96 242.516 80.768C241.876 80.5547 241.3 80.2667 240.788 79.904C240.297 79.5413 239.903 79.0827 239.604 78.528C239.305 77.952 239.156 77.2587 239.156 76.448C239.156 74.72 239.796 73.3973 241.076 72.48C242.377 71.5627 244.159 71.104 246.42 71.104C248.02 71.104 249.375 71.328 250.484 71.776C251.615 72.224 252.543 72.8533 253.268 73.664L251.124 76.032C250.655 75.52 250.025 75.072 249.236 74.688C248.468 74.2827 247.487 74.08 246.292 74.08C244.201 74.08 243.156 74.7307 243.156 76.032C243.156 76.6293 243.369 77.0453 243.796 77.28C244.223 77.4933 244.777 77.6533 245.46 77.76L248.084 78.176C248.788 78.2827 249.46 78.4427 250.1 78.656C250.761 78.848 251.337 79.1253 251.828 79.488C252.34 79.8507 252.745 80.3093 253.044 80.864C253.343 81.4187 253.492 82.1013 253.492 82.912C253.492 84.6187 252.831 85.9627 251.508 86.944C250.207 87.904 248.383 88.384 246.036 88.384ZM268.392 85.088H268.232C267.869 85.984 267.304 86.7627 266.536 87.424C265.789 88.064 264.744 88.384 263.4 88.384C261.778 88.384 260.456 87.8507 259.432 86.784C258.429 85.696 257.928 84.1493 257.928 82.144V71.488H262.024V81.568C262.024 83.9573 263.058 85.152 265.128 85.152C265.533 85.152 265.928 85.0987 266.312 84.992C266.717 84.8853 267.069 84.7253 267.368 84.512C267.688 84.2773 267.933 84 268.104 83.68C268.296 83.36 268.392 82.976 268.392 82.528V71.488H272.488V88H268.392V85.088ZM277.179 84.768H282.427V67.552H277.179V64.32H286.523V84.768H291.803V88H277.179V84.768ZM304.783 88C303.204 88 302.041 87.584 301.295 86.752C300.548 85.92 300.175 84.8427 300.175 83.52V74.72H295.375V71.488H298.639C299.3 71.488 299.769 71.36 300.047 71.104C300.324 70.8267 300.463 70.3467 300.463 69.664V65.664H304.271V71.488H310.991V74.72H304.271V84.768H310.991V88H304.783ZM328.93 88C327.927 88 327.149 87.7547 326.594 87.264C326.061 86.752 325.741 86.048 325.634 85.152H325.474C325.175 86.176 324.589 86.976 323.714 87.552C322.839 88.1067 321.762 88.384 320.482 88.384C318.818 88.384 317.495 87.9467 316.514 87.072C315.533 86.1973 315.042 84.9813 315.042 83.424C315.042 80.096 317.485 78.432 322.37 78.432H325.282V77.344C325.282 76.2987 325.026 75.5093 324.514 74.976C324.002 74.4427 323.17 74.176 322.018 74.176C320.973 74.176 320.13 74.3787 319.49 74.784C318.85 75.1893 318.306 75.712 317.858 76.352L315.522 74.368C316.034 73.4507 316.855 72.6827 317.986 72.064C319.138 71.424 320.621 71.104 322.434 71.104C324.61 71.104 326.306 71.616 327.522 72.64C328.759 73.6427 329.378 75.1467 329.378 77.152V84.928H331.33V88H328.93ZM321.858 85.568C322.839 85.568 323.65 85.344 324.29 84.896C324.951 84.4267 325.282 83.7973 325.282 83.008V80.8H322.466C320.226 80.8 319.106 81.504 319.106 82.912V83.552C319.106 84.2133 319.351 84.7147 319.842 85.056C320.333 85.3973 321.005 85.568 321.858 85.568ZM345.334 85.088H345.11C344.662 86.0907 344.043 86.8907 343.254 87.488C342.486 88.0853 341.462 88.384 340.182 88.384C339.243 88.384 338.379 88.2133 337.59 87.872C336.822 87.5093 336.16 86.976 335.606 86.272C335.051 85.5467 334.624 84.64 334.326 83.552C334.027 82.464 333.878 81.1947 333.878 79.744C333.878 76.8427 334.454 74.6773 335.606 73.248C336.758 71.8187 338.283 71.104 340.182 71.104C341.462 71.104 342.486 71.4027 343.254 72C344.043 72.5973 344.662 73.3973 345.11 74.4H345.334V64.32H349.43V88H345.334V85.088ZM341.91 85.12C342.379 85.12 342.816 85.0667 343.222 84.96C343.648 84.832 344.011 84.6613 344.31 84.448C344.63 84.2133 344.875 83.9253 345.046 83.584C345.238 83.2213 345.334 82.8053 345.334 82.336V77.152C345.334 76.6827 345.238 76.2773 345.046 75.936C344.875 75.5733 344.63 75.2853 344.31 75.072C344.011 74.8373 343.648 74.6667 343.222 74.56C342.816 74.432 342.379 74.368 341.91 74.368C340.715 74.368 339.787 74.7307 339.126 75.456C338.486 76.1813 338.166 77.1733 338.166 78.432V81.056C338.166 82.3147 338.486 83.3067 339.126 84.032C339.787 84.7573 340.715 85.12 341.91 85.12ZM361.225 88.384C359.966 88.384 358.836 88.1813 357.833 87.776C356.852 87.3707 356.009 86.7947 355.305 86.048C354.622 85.3013 354.089 84.3947 353.705 83.328C353.342 82.2613 353.161 81.0667 353.161 79.744C353.161 78.4213 353.342 77.2267 353.705 76.16C354.089 75.0933 354.622 74.1867 355.305 73.44C356.009 72.6933 356.852 72.1173 357.833 71.712C358.836 71.3067 359.966 71.104 361.225 71.104C362.462 71.104 363.582 71.3067 364.585 71.712C365.588 72.1173 366.43 72.6933 367.113 73.44C367.817 74.1867 368.35 75.0933 368.713 76.16C369.097 77.2267 369.289 78.4213 369.289 79.744C369.289 81.0667 369.097 82.2613 368.713 83.328C368.35 84.3947 367.817 85.3013 367.113 86.048C366.43 86.7947 365.588 87.3707 364.585 87.776C363.582 88.1813 362.462 88.384 361.225 88.384ZM361.225 85.248C362.398 85.248 363.326 84.896 364.009 84.192C364.692 83.4667 365.033 82.4107 365.033 81.024V78.464C365.033 77.0773 364.692 76.032 364.009 75.328C363.326 74.6027 362.398 74.24 361.225 74.24C360.052 74.24 359.124 74.6027 358.441 75.328C357.758 76.032 357.417 77.0773 357.417 78.464V81.024C357.417 82.4107 357.758 83.4667 358.441 84.192C359.124 84.896 360.052 85.248 361.225 85.248ZM131.615 130.384C130.356 130.384 129.226 130.181 128.223 129.776C127.22 129.371 126.367 128.795 125.663 128.048C124.98 127.301 124.447 126.395 124.063 125.328C123.7 124.261 123.519 123.067 123.519 121.744C123.519 120.421 123.7 119.227 124.063 118.16C124.447 117.093 124.98 116.187 125.663 115.44C126.367 114.693 127.21 114.117 128.191 113.712C129.194 113.307 130.324 113.104 131.583 113.104C133.332 113.104 134.74 113.467 135.807 114.192C136.874 114.917 137.684 115.877 138.239 117.072L135.071 118.8C134.772 118.096 134.346 117.531 133.791 117.104C133.258 116.656 132.522 116.432 131.583 116.432C130.367 116.432 129.428 116.784 128.767 117.488C128.127 118.192 127.807 119.152 127.807 120.368V123.12C127.807 124.315 128.127 125.275 128.767 126C129.428 126.704 130.388 127.056 131.647 127.056C132.628 127.056 133.407 126.832 133.983 126.384C134.58 125.936 135.06 125.339 135.423 124.592L138.495 126.416C137.94 127.589 137.098 128.549 135.967 129.296C134.858 130.021 133.407 130.384 131.615 130.384ZM150.163 130.384C148.904 130.384 147.773 130.181 146.771 129.776C145.789 129.371 144.947 128.795 144.243 128.048C143.56 127.301 143.027 126.395 142.643 125.328C142.28 124.261 142.099 123.067 142.099 121.744C142.099 120.421 142.28 119.227 142.643 118.16C143.027 117.093 143.56 116.187 144.243 115.44C144.947 114.693 145.789 114.117 146.771 113.712C147.773 113.307 148.904 113.104 150.163 113.104C151.4 113.104 152.52 113.307 153.523 113.712C154.525 114.117 155.368 114.693 156.051 115.44C156.755 116.187 157.288 117.093 157.651 118.16C158.035 119.227 158.227 120.421 158.227 121.744C158.227 123.067 158.035 124.261 157.651 125.328C157.288 126.395 156.755 127.301 156.051 128.048C155.368 128.795 154.525 129.371 153.523 129.776C152.52 130.181 151.4 130.384 150.163 130.384ZM150.163 127.248C151.336 127.248 152.264 126.896 152.947 126.192C153.629 125.467 153.971 124.411 153.971 123.024V120.464C153.971 119.077 153.629 118.032 152.947 117.328C152.264 116.603 151.336 116.24 150.163 116.24C148.989 116.24 148.061 116.603 147.379 117.328C146.696 118.032 146.355 119.077 146.355 120.464V123.024C146.355 124.411 146.696 125.467 147.379 126.192C148.061 126.896 148.989 127.248 150.163 127.248ZM162.15 130V113.488H166.246V116.4H166.406C166.769 115.504 167.323 114.736 168.07 114.096C168.838 113.435 169.894 113.104 171.238 113.104C172.859 113.104 174.171 113.648 175.174 114.736C176.198 115.803 176.71 117.339 176.71 119.344V130H172.614V119.92C172.614 117.531 171.579 116.336 169.51 116.336C169.083 116.336 168.678 116.389 168.294 116.496C167.91 116.603 167.558 116.773 167.238 117.008C166.939 117.221 166.694 117.488 166.502 117.808C166.331 118.128 166.246 118.512 166.246 118.96V130H162.15ZM188.474 130.384C186.66 130.384 185.092 130.107 183.77 129.552C182.447 128.976 181.412 128.208 180.666 127.248L183.066 125.072C183.748 125.819 184.527 126.395 185.402 126.8C186.298 127.205 187.332 127.408 188.506 127.408C189.53 127.408 190.351 127.237 190.97 126.896C191.588 126.555 191.898 126.032 191.898 125.328C191.898 124.731 191.684 124.325 191.258 124.112C190.852 123.899 190.308 123.739 189.626 123.632L186.97 123.216C186.287 123.109 185.615 122.96 184.954 122.768C184.314 122.555 183.738 122.267 183.226 121.904C182.735 121.541 182.34 121.083 182.042 120.528C181.743 119.952 181.594 119.259 181.594 118.448C181.594 116.72 182.234 115.397 183.514 114.48C184.815 113.563 186.596 113.104 188.858 113.104C190.458 113.104 191.812 113.328 192.922 113.776C194.052 114.224 194.98 114.853 195.706 115.664L193.562 118.032C193.092 117.52 192.463 117.072 191.674 116.688C190.906 116.283 189.924 116.08 188.73 116.08C186.639 116.08 185.594 116.731 185.594 118.032C185.594 118.629 185.807 119.045 186.234 119.28C186.66 119.493 187.215 119.653 187.898 119.76L190.522 120.176C191.226 120.283 191.898 120.443 192.538 120.656C193.199 120.848 193.775 121.125 194.266 121.488C194.778 121.851 195.183 122.309 195.482 122.864C195.78 123.419 195.93 124.101 195.93 124.912C195.93 126.619 195.268 127.963 193.946 128.944C192.644 129.904 190.82 130.384 188.474 130.384ZM207.725 130.384C206.466 130.384 205.336 130.181 204.333 129.776C203.352 129.371 202.509 128.795 201.805 128.048C201.122 127.301 200.589 126.395 200.205 125.328C199.842 124.261 199.661 123.067 199.661 121.744C199.661 120.421 199.842 119.227 200.205 118.16C200.589 117.093 201.122 116.187 201.805 115.44C202.509 114.693 203.352 114.117 204.333 113.712C205.336 113.307 206.466 113.104 207.725 113.104C208.962 113.104 210.082 113.307 211.085 113.712C212.088 114.117 212.93 114.693 213.613 115.44C214.317 116.187 214.85 117.093 215.213 118.16C215.597 119.227 215.789 120.421 215.789 121.744C215.789 123.067 215.597 124.261 215.213 125.328C214.85 126.395 214.317 127.301 213.613 128.048C212.93 128.795 212.088 129.371 211.085 129.776C210.082 130.181 208.962 130.384 207.725 130.384ZM207.725 127.248C208.898 127.248 209.826 126.896 210.509 126.192C211.192 125.467 211.533 124.411 211.533 123.024V120.464C211.533 119.077 211.192 118.032 210.509 117.328C209.826 116.603 208.898 116.24 207.725 116.24C206.552 116.24 205.624 116.603 204.941 117.328C204.258 118.032 203.917 119.077 203.917 120.464V123.024C203.917 124.411 204.258 125.467 204.941 126.192C205.624 126.896 206.552 127.248 207.725 127.248ZM219.617 126.768H224.865V109.552H219.617V106.32H228.961V126.768H234.241V130H219.617V126.768ZM246.484 130.384C245.161 130.384 243.988 130.181 242.964 129.776C241.94 129.371 241.076 128.795 240.372 128.048C239.689 127.301 239.167 126.405 238.804 125.36C238.441 124.293 238.26 123.099 238.26 121.776C238.26 120.432 238.441 119.227 238.804 118.16C239.188 117.093 239.721 116.187 240.404 115.44C241.087 114.693 241.908 114.117 242.868 113.712C243.849 113.307 244.948 113.104 246.164 113.104C247.359 113.104 248.436 113.307 249.396 113.712C250.356 114.096 251.167 114.651 251.828 115.376C252.511 116.101 253.033 116.976 253.396 118C253.759 119.024 253.94 120.155 253.94 121.392V122.736H242.356V123.152C242.356 124.347 242.729 125.317 243.476 126.064C244.223 126.789 245.268 127.152 246.612 127.152C247.636 127.152 248.511 126.949 249.236 126.544C249.983 126.117 250.601 125.563 251.092 124.88L253.428 127.216C252.831 128.091 251.956 128.837 250.804 129.456C249.673 130.075 248.233 130.384 246.484 130.384ZM246.196 116.112C245.044 116.112 244.116 116.475 243.412 117.2C242.708 117.925 242.356 118.885 242.356 120.08V120.304H249.844V120.016C249.844 118.821 249.513 117.872 248.852 117.168C248.212 116.464 247.327 116.112 246.196 116.112ZM354.025 126.768H358.121V116.72H354.025V113.488H362.217V118H362.473C362.622 117.424 362.825 116.869 363.081 116.336C363.358 115.781 363.7 115.301 364.105 114.896C364.532 114.469 365.044 114.128 365.641 113.872C366.238 113.616 366.953 113.488 367.785 113.488H369.577V117.328H366.185C364.948 117.328 363.977 117.691 363.273 118.416C362.569 119.141 362.217 120.069 362.217 121.2V126.768H367.945V130H354.025V126.768ZM380.797 130.384C379.474 130.384 378.301 130.181 377.277 129.776C376.253 129.371 375.389 128.795 374.685 128.048C374.002 127.301 373.479 126.405 373.117 125.36C372.754 124.293 372.573 123.099 372.573 121.776C372.573 120.432 372.754 119.227 373.117 118.16C373.501 117.093 374.034 116.187 374.717 115.44C375.399 114.693 376.221 114.117 377.181 113.712C378.162 113.307 379.261 113.104 380.477 113.104C381.671 113.104 382.749 113.307 383.709 113.712C384.669 114.096 385.479 114.651 386.141 115.376C386.823 116.101 387.346 116.976 387.708 118C388.071 119.024 388.253 120.155 388.253 121.392V122.736H376.669V123.152C376.669 124.347 377.042 125.317 377.789 126.064C378.535 126.789 379.581 127.152 380.925 127.152C381.949 127.152 382.823 126.949 383.549 126.544C384.295 126.117 384.914 125.563 385.405 124.88L387.741 127.216C387.143 128.091 386.269 128.837 385.117 129.456C383.986 130.075 382.546 130.384 380.797 130.384ZM380.509 116.112C379.357 116.112 378.429 116.475 377.725 117.2C377.021 117.925 376.669 118.885 376.669 120.08V120.304H384.157V120.016C384.157 118.821 383.826 117.872 383.165 117.168C382.525 116.464 381.639 116.112 380.509 116.112ZM399.536 130.384C397.723 130.384 396.155 130.107 394.832 129.552C393.509 128.976 392.475 128.208 391.728 127.248L394.128 125.072C394.811 125.819 395.589 126.395 396.464 126.8C397.36 127.205 398.395 127.408 399.568 127.408C400.592 127.408 401.413 127.237 402.032 126.896C402.651 126.555 402.96 126.032 402.96 125.328C402.96 124.731 402.747 124.325 402.32 124.112C401.915 123.899 401.371 123.739 400.688 123.632L398.032 123.216C397.349 123.109 396.677 122.96 396.016 122.768C395.376 122.555 394.8 122.267 394.288 121.904C393.797 121.541 393.403 121.083 393.104 120.528C392.805 119.952 392.656 119.259 392.656 118.448C392.656 116.72 393.296 115.397 394.576 114.48C395.877 113.563 397.659 113.104 399.92 113.104C401.52 113.104 402.875 113.328 403.984 113.776C405.115 114.224 406.043 114.853 406.768 115.664L404.624 118.032C404.155 117.52 403.525 117.072 402.736 116.688C401.968 116.283 400.987 116.08 399.792 116.08C397.701 116.08 396.656 116.731 396.656 118.032C396.656 118.629 396.869 119.045 397.296 119.28C397.723 119.493 398.277 119.653 398.96 119.76L401.584 120.176C402.288 120.283 402.96 120.443 403.6 120.656C404.261 120.848 404.837 121.125 405.328 121.488C405.84 121.851 406.245 122.309 406.544 122.864C406.843 123.419 406.992 124.101 406.992 124.912C406.992 126.619 406.331 127.963 405.008 128.944C403.707 129.904 401.883 130.384 399.536 130.384ZM421.892 127.088H421.732C421.369 127.984 420.804 128.763 420.036 129.424C419.289 130.064 418.244 130.384 416.9 130.384C415.278 130.384 413.956 129.851 412.932 128.784C411.929 127.696 411.428 126.149 411.428 124.144V113.488H415.524V123.568C415.524 125.957 416.558 127.152 418.628 127.152C419.033 127.152 419.428 127.099 419.812 126.992C420.217 126.885 420.569 126.725 420.868 126.512C421.188 126.277 421.433 126 421.604 125.68C421.796 125.36 421.892 124.976 421.892 124.528V113.488H425.988V130H421.892V127.088ZM430.679 126.768H435.927V109.552H430.679V106.32H440.023V126.768H445.303V130H430.679V126.768ZM458.283 130C456.704 130 455.541 129.584 454.795 128.752C454.048 127.92 453.675 126.843 453.675 125.52V116.72H448.875V113.488H452.139C452.8 113.488 453.269 113.36 453.547 113.104C453.824 112.827 453.963 112.347 453.963 111.664V107.664H457.771V113.488H464.491V116.72H457.771V126.768H464.491V130H458.283ZM482.43 130C481.427 130 480.649 129.755 480.094 129.264C479.561 128.752 479.241 128.048 479.134 127.152H478.974C478.675 128.176 478.089 128.976 477.214 129.552C476.339 130.107 475.262 130.384 473.982 130.384C472.318 130.384 470.995 129.947 470.014 129.072C469.033 128.197 468.542 126.981 468.542 125.424C468.542 122.096 470.985 120.432 475.87 120.432H478.782V119.344C478.782 118.299 478.526 117.509 478.014 116.976C477.502 116.443 476.67 116.176 475.518 116.176C474.473 116.176 473.63 116.379 472.99 116.784C472.35 117.189 471.806 117.712 471.358 118.352L469.022 116.368C469.534 115.451 470.355 114.683 471.486 114.064C472.638 113.424 474.121 113.104 475.934 113.104C478.11 113.104 479.806 113.616 481.022 114.64C482.259 115.643 482.878 117.147 482.878 119.152V126.928H484.83V130H482.43ZM475.358 127.568C476.339 127.568 477.15 127.344 477.79 126.896C478.451 126.427 478.782 125.797 478.782 125.008V122.8H475.966C473.726 122.8 472.606 123.504 472.606 124.912V125.552C472.606 126.213 472.851 126.715 473.342 127.056C473.833 127.397 474.505 127.568 475.358 127.568ZM498.834 127.088H498.61C498.162 128.091 497.543 128.891 496.754 129.488C495.986 130.085 494.962 130.384 493.682 130.384C492.743 130.384 491.879 130.213 491.09 129.872C490.322 129.509 489.66 128.976 489.106 128.272C488.551 127.547 488.124 126.64 487.826 125.552C487.527 124.464 487.378 123.195 487.378 121.744C487.378 118.843 487.954 116.677 489.106 115.248C490.258 113.819 491.783 113.104 493.682 113.104C494.962 113.104 495.986 113.403 496.754 114C497.543 114.597 498.162 115.397 498.61 116.4H498.834V106.32H502.93V130H498.834V127.088ZM495.41 127.12C495.879 127.12 496.316 127.067 496.722 126.96C497.148 126.832 497.511 126.661 497.81 126.448C498.13 126.213 498.375 125.925 498.546 125.584C498.738 125.221 498.834 124.805 498.834 124.336V119.152C498.834 118.683 498.738 118.277 498.546 117.936C498.375 117.573 498.13 117.285 497.81 117.072C497.511 116.837 497.148 116.667 496.722 116.56C496.316 116.432 495.879 116.368 495.41 116.368C494.215 116.368 493.287 116.731 492.626 117.456C491.986 118.181 491.666 119.173 491.666 120.432V123.056C491.666 124.315 491.986 125.307 492.626 126.032C493.287 126.757 494.215 127.12 495.41 127.12ZM514.725 130.384C513.466 130.384 512.336 130.181 511.333 129.776C510.352 129.371 509.509 128.795 508.805 128.048C508.122 127.301 507.589 126.395 507.205 125.328C506.842 124.261 506.661 123.067 506.661 121.744C506.661 120.421 506.842 119.227 507.205 118.16C507.589 117.093 508.122 116.187 508.805 115.44C509.509 114.693 510.352 114.117 511.333 113.712C512.336 113.307 513.466 113.104 514.725 113.104C515.962 113.104 517.082 113.307 518.085 113.712C519.088 114.117 519.93 114.693 520.613 115.44C521.317 116.187 521.85 117.093 522.213 118.16C522.597 119.227 522.789 120.421 522.789 121.744C522.789 123.067 522.597 124.261 522.213 125.328C521.85 126.395 521.317 127.301 520.613 128.048C519.93 128.795 519.088 129.371 518.085 129.776C517.082 130.181 515.962 130.384 514.725 130.384ZM514.725 127.248C515.898 127.248 516.826 126.896 517.509 126.192C518.192 125.467 518.533 124.411 518.533 123.024V120.464C518.533 119.077 518.192 118.032 517.509 117.328C516.826 116.603 515.898 116.24 514.725 116.24C513.552 116.24 512.624 116.603 511.941 117.328C511.258 118.032 510.917 119.077 510.917 120.464V123.024C510.917 124.411 511.258 125.467 511.941 126.192C512.624 126.896 513.552 127.248 514.725 127.248Z" fill="#B2D1FF"/>
<path d="M444.055 88C443.052 88 442.274 87.7547 441.719 87.264C441.186 86.752 440.866 86.048 440.759 85.152H440.599C440.3 86.176 439.714 86.976 438.839 87.552C437.964 88.1067 436.887 88.384 435.607 88.384C433.943 88.384 432.62 87.9467 431.639 87.072C430.658 86.1973 430.167 84.9813 430.167 83.424C430.167 80.096 432.61 78.432 437.495 78.432H440.407V77.344C440.407 76.2987 440.151 75.5093 439.639 74.976C439.127 74.4427 438.295 74.176 437.143 74.176C436.098 74.176 435.255 74.3787 434.615 74.784C433.975 75.1893 433.431 75.712 432.983 76.352L430.647 74.368C431.159 73.4507 431.98 72.6827 433.111 72.064C434.263 71.424 435.746 71.104 437.559 71.104C439.735 71.104 441.431 71.616 442.647 72.64C443.884 73.6427 444.503 75.1467 444.503 77.152V84.928H446.455V88H444.055ZM436.983 85.568C437.964 85.568 438.775 85.344 439.415 84.896C440.076 84.4267 440.407 83.7973 440.407 83.008V80.8H437.591C435.351 80.8 434.231 81.504 434.231 82.912V83.552C434.231 84.2133 434.476 84.7147 434.967 85.056C435.458 85.3973 436.13 85.568 436.983 85.568ZM448.011 71.488H451.435L452.843 85.12H453.131L455.371 71.488H459.115L461.323 85.12H461.611L463.051 71.488H466.315L464.203 88H459.243L457.323 75.872H457.035L455.083 88H450.123L448.011 71.488ZM482.43 88C481.427 88 480.649 87.7547 480.094 87.264C479.561 86.752 479.241 86.048 479.134 85.152H478.974C478.675 86.176 478.089 86.976 477.214 87.552C476.339 88.1067 475.262 88.384 473.982 88.384C472.318 88.384 470.995 87.9467 470.014 87.072C469.033 86.1973 468.542 84.9813 468.542 83.424C468.542 80.096 470.985 78.432 475.87 78.432H478.782V77.344C478.782 76.2987 478.526 75.5093 478.014 74.976C477.502 74.4427 476.67 74.176 475.518 74.176C474.473 74.176 473.63 74.3787 472.99 74.784C472.35 75.1893 471.806 75.712 471.358 76.352L469.022 74.368C469.534 73.4507 470.355 72.6827 471.486 72.064C472.638 71.424 474.121 71.104 475.934 71.104C478.11 71.104 479.806 71.616 481.022 72.64C482.259 73.6427 482.878 75.1467 482.878 77.152V84.928H484.83V88H482.43ZM475.358 85.568C476.339 85.568 477.15 85.344 477.79 84.896C478.451 84.4267 478.782 83.7973 478.782 83.008V80.8H475.966C473.726 80.8 472.606 81.504 472.606 82.912V83.552C472.606 84.2133 472.851 84.7147 473.342 85.056C473.833 85.3973 474.505 85.568 475.358 85.568ZM496.562 68.928C495.602 68.928 494.919 68.7253 494.514 68.32C494.13 67.9147 493.938 67.424 493.938 66.848V66.08C493.938 65.504 494.13 65.0133 494.514 64.608C494.919 64.2027 495.602 64 496.562 64C497.522 64 498.194 64.2027 498.578 64.608C498.983 65.0133 499.186 65.504 499.186 66.08V66.848C499.186 67.424 498.983 67.9147 498.578 68.32C498.194 68.7253 497.522 68.928 496.562 68.928ZM489.074 84.768H494.514V74.72H489.074V71.488H498.61V84.768H503.666V88H489.074V84.768ZM515.845 88C514.266 88 513.104 87.584 512.357 86.752C511.61 85.92 511.237 84.8427 511.237 83.52V74.72H506.437V71.488H509.701C510.362 71.488 510.832 71.36 511.109 71.104C511.386 70.8267 511.525 70.3467 511.525 69.664V65.664H515.333V71.488H522.053V74.72H515.333V84.768H522.053V88H515.845Z" fill="#E262EE"/>
<path d="M34.6625 46.4084V43.8404H39.2705V31.9364H39.0545L35.4065 36.2564L33.4385 34.6004L37.5905 29.6564H42.4145V43.8404H46.2065V46.4084H34.6625Z" fill="white"/>
<path d="M45.6785 87.8872H33.8705V84.9592L39.2465 80.3752C40.1425 79.6072 40.8065 78.9112 41.2385 78.2872C41.6705 77.6472 41.8865 76.9672 41.8865 76.2472V76.0072C41.8865 75.2072 41.6625 74.5992 41.2145 74.1832C40.7665 73.7672 40.1425 73.5592 39.3425 73.5592C38.4625 73.5592 37.7905 73.7992 37.3265 74.2792C36.8625 74.7592 36.5265 75.3512 36.3185 76.0552L33.5825 75.0232C33.7585 74.4792 34.0065 73.9592 34.3265 73.4632C34.6625 72.9512 35.0705 72.5032 35.5505 72.1192C36.0465 71.7352 36.6305 71.4312 37.3025 71.2072C37.9745 70.9672 38.7425 70.8472 39.6065 70.8472C40.5025 70.8472 41.2945 70.9752 41.9825 71.2312C42.6865 71.4712 43.2785 71.8152 43.7585 72.2632C44.2385 72.6952 44.5985 73.2152 44.8385 73.8232C45.0945 74.4312 45.2225 75.0952 45.2225 75.8152C45.2225 76.5032 45.1105 77.1352 44.8865 77.7112C44.6785 78.2872 44.3825 78.8392 43.9985 79.3672C43.6145 79.8792 43.1585 80.3752 42.6305 80.8552C42.1185 81.3352 41.5585 81.8152 40.9505 82.2952L37.3025 85.2472H45.6785V87.8872Z" fill="white"/>
<path d="M39.0065 123.396C40.0145 123.396 40.7505 123.196 41.2145 122.796C41.6945 122.396 41.9345 121.892 41.9345 121.284V121.116C41.9345 120.428 41.7025 119.892 41.2385 119.508C40.7905 119.124 40.1665 118.932 39.3665 118.932C38.5985 118.932 37.9265 119.108 37.3505 119.46C36.7745 119.812 36.2785 120.308 35.8625 120.948L33.8225 119.124C34.1105 118.74 34.4305 118.38 34.7825 118.044C35.1505 117.692 35.5585 117.396 36.0065 117.156C36.4705 116.9 36.9825 116.7 37.5425 116.556C38.1025 116.412 38.7425 116.34 39.4625 116.34C40.3105 116.34 41.0865 116.444 41.7905 116.652C42.5105 116.844 43.1185 117.132 43.6145 117.516C44.1265 117.9 44.5185 118.364 44.7905 118.908C45.0785 119.436 45.2225 120.036 45.2225 120.708C45.2225 121.236 45.1345 121.716 44.9585 122.148C44.7825 122.58 44.5425 122.956 44.2385 123.276C43.9505 123.596 43.6065 123.86 43.2065 124.068C42.8225 124.276 42.4065 124.428 41.9585 124.524V124.644C42.4545 124.74 42.9185 124.9 43.3505 125.124C43.7825 125.332 44.1585 125.604 44.4785 125.94C44.7985 126.276 45.0545 126.684 45.2465 127.164C45.4385 127.628 45.5345 128.156 45.5345 128.748C45.5345 129.484 45.3825 130.156 45.0785 130.764C44.7745 131.372 44.3425 131.892 43.7825 132.324C43.2385 132.756 42.5745 133.092 41.7905 133.332C41.0225 133.556 40.1585 133.668 39.1985 133.668C38.3985 133.668 37.6865 133.58 37.0625 133.404C36.4385 133.244 35.8865 133.02 35.4065 132.732C34.9265 132.444 34.5105 132.116 34.1585 131.748C33.8065 131.364 33.4945 130.972 33.2225 130.572L35.5505 128.772C35.9505 129.444 36.4225 129.996 36.9665 130.428C37.5265 130.86 38.2865 131.076 39.2465 131.076C40.2065 131.076 40.9425 130.86 41.4545 130.428C41.9825 129.98 42.2465 129.364 42.2465 128.58V128.388C42.2465 127.62 41.9665 127.036 41.4065 126.636C40.8465 126.22 40.0545 126.012 39.0305 126.012H37.3505V123.396H39.0065Z" fill="white"/>
<path d="M42.2404 174.859V171.619H34.4884V168.931L41.3284 158.107H45.2404V169.171H47.4964V171.619H45.2404V174.859H42.2404ZM37.0564 169.171H42.2404V161.179H42.0484L37.0564 169.171Z" fill="white"/>
<path d="M46.432 201.984H38.752L38.344 207.6H38.536C38.728 207.248 38.936 206.928 39.16 206.64C39.384 206.336 39.64 206.08 39.928 205.872C40.232 205.664 40.568 205.504 40.936 205.392C41.32 205.28 41.76 205.224 42.256 205.224C42.96 205.224 43.624 205.344 44.248 205.584C44.872 205.824 45.416 206.168 45.88 206.616C46.344 207.064 46.704 207.616 46.96 208.272C47.232 208.928 47.368 209.672 47.368 210.504C47.368 211.336 47.224 212.104 46.936 212.808C46.664 213.512 46.256 214.128 45.712 214.656C45.184 215.168 44.528 215.568 43.744 215.856C42.976 216.144 42.088 216.288 41.08 216.288C40.296 216.288 39.592 216.2 38.968 216.024C38.36 215.864 37.824 215.64 37.36 215.352C36.896 215.064 36.488 214.736 36.136 214.368C35.784 213.984 35.48 213.592 35.224 213.192L37.504 211.392C37.696 211.712 37.904 212.016 38.128 212.304C38.368 212.576 38.632 212.816 38.92 213.024C39.208 213.232 39.528 213.4 39.88 213.528C40.248 213.64 40.664 213.696 41.128 213.696C42.088 213.696 42.816 213.44 43.312 212.928C43.824 212.4 44.08 211.68 44.08 210.768V210.576C44.08 209.696 43.824 209.008 43.312 208.512C42.8 208.016 42.08 207.768 41.152 207.768C40.448 207.768 39.872 207.904 39.424 208.176C38.992 208.432 38.64 208.712 38.368 209.016L35.8 208.656L36.424 199.248H46.432V201.984Z" fill="white"/>
</svg>
