<svg width="1477" height="614" viewBox="0 0 1477 614" fill="none" xmlns="http://www.w3.org/2000/svg">
<path d="M0 4.99999C0 2.23857 2.23858 0 5 0H1462C1470.28 0 1477 6.71573 1477 15V589C1477 602.807 1465.81 614 1452 614H35C15.67 614 0 598.33 0 579V4.99999Z" fill="#373538"/>
<path d="M85.72 46.16V42.32L99.48 34.768V38.672L89.432 44.112V44.368L99.48 49.808V53.712L85.72 46.16ZM124.095 49.808L134.143 44.368V44.112L124.095 38.672V34.768L137.855 42.32V46.16L124.095 53.712V49.808ZM546.22 46.16V42.32L559.98 34.768V38.672L549.932 44.112V44.368L559.98 49.808V53.712L546.22 46.16ZM565.184 58.416L575.712 29.68H579.392L568.864 58.416H565.184ZM603.783 49.808L613.831 44.368V44.112L603.783 38.672V34.768L617.543 42.32V46.16L603.783 53.712V49.808ZM85.72 130.16V126.32L99.48 118.768V122.672L89.432 128.112V128.368L99.48 133.808V137.712L85.72 130.16ZM143.283 133.808L153.331 128.368V128.112L143.283 122.672V118.768L157.043 126.32V130.16L143.283 137.712V133.808ZM104.908 172.16V168.32L118.668 160.768V164.672L108.62 170.112V170.368L118.668 175.808V179.712L104.908 172.16ZM162.47 175.808L172.518 170.368V170.112L162.47 164.672V160.768L176.23 168.32V172.16L162.47 179.712V175.808ZM296.783 172.16V168.32L310.543 160.768V164.672L300.495 170.112V170.368L310.543 175.808V179.712L296.783 172.16ZM315.746 184.416L326.274 155.68H329.954L319.426 184.416H315.746ZM373.533 175.808L383.581 170.368V170.112L373.533 164.672V160.768L387.293 168.32V172.16L373.533 179.712V175.808ZM104.908 214.16V210.32L118.668 202.768V206.672L108.62 212.112V212.368L118.668 217.808V221.712L104.908 214.16ZM162.47 217.808L172.518 212.368V212.112L162.47 206.672V202.768L176.23 210.32V214.16L162.47 221.712V217.808ZM296.783 214.16V210.32L310.543 202.768V206.672L300.495 212.112V212.368L310.543 217.808V221.712L296.783 214.16ZM315.746 226.416L326.274 197.68H329.954L319.426 226.416H315.746ZM373.533 217.808L383.581 212.368V212.112L373.533 206.672V202.768L387.293 210.32V214.16L373.533 221.712V217.808ZM85.72 256.16V252.32L99.48 244.768V248.672L89.432 254.112V254.368L99.48 259.808V263.712L85.72 256.16ZM104.684 268.416L115.212 239.68H118.892L108.364 268.416H104.684ZM162.47 259.808L172.518 254.368V254.112L162.47 248.672V244.768L176.23 252.32V256.16L162.47 263.712V259.808Z" fill="#CBC2C2"/>
<path d="M104.396 37.488H108.492V40.4H108.716C109.164 39.3973 109.772 38.5973 110.54 38C111.329 37.4027 112.364 37.104 113.644 37.104C114.582 37.104 115.436 37.2853 116.204 37.648C116.993 37.9893 117.665 38.5227 118.22 39.248C118.774 39.952 119.201 40.848 119.5 41.936C119.798 43.024 119.948 44.2933 119.948 45.744C119.948 47.1947 119.798 48.464 119.5 49.552C119.201 50.64 118.774 51.5467 118.22 52.272C117.665 52.976 116.993 53.5093 116.204 53.872C115.436 54.2133 114.582 54.384 113.644 54.384C112.364 54.384 111.329 54.0853 110.54 53.488C109.772 52.8907 109.164 52.0907 108.716 51.088H108.492V60.4H104.396V37.488ZM111.916 51.12C113.11 51.12 114.028 50.7573 114.668 50.032C115.329 49.3067 115.66 48.3147 115.66 47.056V44.432C115.66 43.1733 115.329 42.1813 114.668 41.456C114.028 40.7307 113.11 40.368 111.916 40.368C110.977 40.368 110.166 40.6027 109.484 41.072C108.822 41.52 108.492 42.2133 108.492 43.152V48.336C108.492 49.2747 108.822 49.9787 109.484 50.448C110.166 50.896 110.977 51.12 111.916 51.12ZM584.083 37.488H588.179V40.4H588.403C588.851 39.3973 589.459 38.5973 590.227 38C591.016 37.4027 592.051 37.104 593.331 37.104C594.27 37.104 595.123 37.2853 595.891 37.648C596.68 37.9893 597.352 38.5227 597.907 39.248C598.462 39.952 598.888 40.848 599.187 41.936C599.486 43.024 599.635 44.2933 599.635 45.744C599.635 47.1947 599.486 48.464 599.187 49.552C598.888 50.64 598.462 51.5467 597.907 52.272C597.352 52.976 596.68 53.5093 595.891 53.872C595.123 54.2133 594.27 54.384 593.331 54.384C592.051 54.384 591.016 54.0853 590.227 53.488C589.459 52.8907 588.851 52.0907 588.403 51.088H588.179V60.4H584.083V37.488ZM591.603 51.12C592.798 51.12 593.715 50.7573 594.355 50.032C595.016 49.3067 595.347 48.3147 595.347 47.056V44.432C595.347 43.1733 595.016 42.1813 594.355 41.456C593.715 40.7307 592.798 40.368 591.603 40.368C590.664 40.368 589.854 40.6027 589.171 41.072C588.51 41.52 588.179 42.2133 588.179 43.152V48.336C588.179 49.2747 588.51 49.9787 589.171 50.448C589.854 50.896 590.664 51.12 591.603 51.12ZM111.788 138.384C110.529 138.384 109.398 138.181 108.396 137.776C107.414 137.371 106.572 136.795 105.868 136.048C105.185 135.301 104.652 134.395 104.268 133.328C103.905 132.261 103.724 131.067 103.724 129.744C103.724 128.421 103.905 127.227 104.268 126.16C104.652 125.093 105.185 124.187 105.868 123.44C106.572 122.693 107.414 122.117 108.396 121.712C109.398 121.307 110.529 121.104 111.788 121.104C113.025 121.104 114.145 121.307 115.148 121.712C116.15 122.117 116.993 122.693 117.676 123.44C118.38 124.187 118.913 125.093 119.276 126.16C119.66 127.227 119.852 128.421 119.852 129.744C119.852 131.067 119.66 132.261 119.276 133.328C118.913 134.395 118.38 135.301 117.676 136.048C116.993 136.795 116.15 137.371 115.148 137.776C114.145 138.181 113.025 138.384 111.788 138.384ZM111.788 135.248C112.961 135.248 113.889 134.896 114.572 134.192C115.254 133.467 115.596 132.411 115.596 131.024V128.464C115.596 127.077 115.254 126.032 114.572 125.328C113.889 124.603 112.961 124.24 111.788 124.24C110.614 124.24 109.686 124.603 109.004 125.328C108.321 126.032 107.98 127.077 107.98 128.464V131.024C107.98 132.411 108.321 133.467 109.004 134.192C109.686 134.896 110.614 135.248 111.788 135.248ZM123.679 134.768H128.927V117.552H123.679V114.32H133.023V134.768H138.303V138H123.679V134.768ZM123.679 176.768H128.927V159.552H123.679V156.32H133.023V176.768H138.303V180H123.679V176.768ZM151.187 160.928C150.227 160.928 149.544 160.725 149.139 160.32C148.755 159.915 148.562 159.424 148.562 158.848V158.08C148.562 157.504 148.755 157.013 149.139 156.608C149.544 156.203 150.227 156 151.187 156C152.147 156 152.819 156.203 153.203 156.608C153.608 157.013 153.811 157.504 153.811 158.08V158.848C153.811 159.424 153.608 159.915 153.203 160.32C152.819 160.725 152.147 160.928 151.187 160.928ZM143.699 176.768H149.139V166.72H143.699V163.488H153.235V176.768H158.291V180H143.699V176.768ZM334.742 176.768H339.99V159.552H334.742V156.32H344.086V176.768H349.366V180H334.742V176.768ZM362.249 160.928C361.289 160.928 360.606 160.725 360.201 160.32C359.817 159.915 359.625 159.424 359.625 158.848V158.08C359.625 157.504 359.817 157.013 360.201 156.608C360.606 156.203 361.289 156 362.249 156C363.209 156 363.881 156.203 364.265 156.608C364.67 157.013 364.873 157.504 364.873 158.08V158.848C364.873 159.424 364.67 159.915 364.265 160.32C363.881 160.725 363.209 160.928 362.249 160.928ZM354.761 176.768H360.201V166.72H354.761V163.488H364.297V176.768H369.353V180H354.761V176.768ZM123.679 218.768H128.927V201.552H123.679V198.32H133.023V218.768H138.303V222H123.679V218.768ZM151.187 202.928C150.227 202.928 149.544 202.725 149.139 202.32C148.755 201.915 148.562 201.424 148.562 200.848V200.08C148.562 199.504 148.755 199.013 149.139 198.608C149.544 198.203 150.227 198 151.187 198C152.147 198 152.819 198.203 153.203 198.608C153.608 199.013 153.811 199.504 153.811 200.08V200.848C153.811 201.424 153.608 201.915 153.203 202.32C152.819 202.725 152.147 202.928 151.187 202.928ZM143.699 218.768H149.139V208.72H143.699V205.488H153.235V218.768H158.291V222H143.699V218.768ZM334.742 218.768H339.99V201.552H334.742V198.32H344.086V218.768H349.366V222H334.742V218.768ZM362.249 202.928C361.289 202.928 360.606 202.725 360.201 202.32C359.817 201.915 359.625 201.424 359.625 200.848V200.08C359.625 199.504 359.817 199.013 360.201 198.608C360.606 198.203 361.289 198 362.249 198C363.209 198 363.881 198.203 364.265 198.608C364.67 199.013 364.873 199.504 364.873 200.08V200.848C364.873 201.424 364.67 201.915 364.265 202.32C363.881 202.725 363.209 202.928 362.249 202.928ZM354.761 218.768H360.201V208.72H354.761V205.488H364.297V218.768H369.353V222H354.761V218.768ZM130.975 264.384C129.716 264.384 128.586 264.181 127.583 263.776C126.602 263.371 125.759 262.795 125.055 262.048C124.372 261.301 123.839 260.395 123.455 259.328C123.092 258.261 122.911 257.067 122.911 255.744C122.911 254.421 123.092 253.227 123.455 252.16C123.839 251.093 124.372 250.187 125.055 249.44C125.759 248.693 126.602 248.117 127.583 247.712C128.586 247.307 129.716 247.104 130.975 247.104C132.212 247.104 133.332 247.307 134.335 247.712C135.338 248.117 136.18 248.693 136.863 249.44C137.567 250.187 138.1 251.093 138.463 252.16C138.847 253.227 139.039 254.421 139.039 255.744C139.039 257.067 138.847 258.261 138.463 259.328C138.1 260.395 137.567 261.301 136.863 262.048C136.18 262.795 135.338 263.371 134.335 263.776C133.332 264.181 132.212 264.384 130.975 264.384ZM130.975 261.248C132.148 261.248 133.076 260.896 133.759 260.192C134.442 259.467 134.783 258.411 134.783 257.024V254.464C134.783 253.077 134.442 252.032 133.759 251.328C133.076 250.603 132.148 250.24 130.975 250.24C129.802 250.24 128.874 250.603 128.191 251.328C127.508 252.032 127.167 253.077 127.167 254.464V257.024C127.167 258.411 127.508 259.467 128.191 260.192C128.874 260.896 129.802 261.248 130.975 261.248ZM142.867 260.768H148.115V243.552H142.867V240.32H152.211V260.768H157.491V264H142.867V260.768Z" fill="#438ADD"/>
<path d="M154.579 43.664L154.771 37.2H154.483L150.163 48.688L145.843 37.2H145.555L145.747 43.664V54H142.099V31.664H147.091L150.195 39.888H150.419L153.555 31.664H158.227V54H154.579V43.664ZM170.374 34.928C169.414 34.928 168.731 34.7253 168.326 34.32C167.942 33.9147 167.75 33.424 167.75 32.848V32.08C167.75 31.504 167.942 31.0133 168.326 30.608C168.731 30.2027 169.414 30 170.374 30C171.334 30 172.006 30.2027 172.39 30.608C172.795 31.0133 172.998 31.504 172.998 32.08V32.848C172.998 33.424 172.795 33.9147 172.39 34.32C172.006 34.7253 171.334 34.928 170.374 34.928ZM162.886 50.768H168.326V40.72H162.886V37.488H172.422V50.768H177.478V54H162.886V50.768ZM181.338 54V37.488H185.434V40.4H185.594C185.956 39.504 186.511 38.736 187.258 38.096C188.026 37.4347 189.082 37.104 190.426 37.104C192.047 37.104 193.359 37.648 194.362 38.736C195.386 39.8027 195.898 41.3387 195.898 43.344V54H191.802V43.92C191.802 41.5307 190.767 40.336 188.698 40.336C188.271 40.336 187.866 40.3893 187.482 40.496C187.098 40.6027 186.746 40.7733 186.426 41.008C186.127 41.2213 185.882 41.488 185.69 41.808C185.519 42.128 185.434 42.512 185.434 42.96V54H181.338ZM200.525 30.32H204.621V40.4H204.781C205.144 39.504 205.698 38.736 206.445 38.096C207.213 37.4347 208.269 37.104 209.613 37.104C211.234 37.104 212.546 37.648 213.549 38.736C214.573 39.8027 215.085 41.3387 215.085 43.344V54H210.989V43.92C210.989 41.5307 209.954 40.336 207.885 40.336C207.458 40.336 207.053 40.3893 206.669 40.496C206.285 40.6027 205.933 40.7733 205.613 41.008C205.314 41.2213 205.069 41.488 204.877 41.808C204.706 42.128 204.621 42.512 204.621 42.96V54H200.525V30.32ZM232.993 54C231.99 54 231.211 53.7547 230.657 53.264C230.123 52.752 229.803 52.048 229.697 51.152H229.537C229.238 52.176 228.651 52.976 227.777 53.552C226.902 54.1067 225.825 54.384 224.545 54.384C222.881 54.384 221.558 53.9467 220.577 53.072C219.595 52.1973 219.105 50.9813 219.105 49.424C219.105 46.096 221.547 44.432 226.433 44.432H229.345V43.344C229.345 42.2987 229.089 41.5093 228.577 40.976C228.065 40.4427 227.233 40.176 226.081 40.176C225.035 40.176 224.193 40.3787 223.553 40.784C222.913 41.1893 222.369 41.712 221.921 42.352L219.585 40.368C220.097 39.4507 220.918 38.6827 222.049 38.064C223.201 37.424 224.683 37.104 226.497 37.104C228.673 37.104 230.369 37.616 231.585 38.64C232.822 39.6427 233.441 41.1467 233.441 43.152V50.928H235.392V54H232.993ZM225.921 51.568C226.902 51.568 227.713 51.344 228.353 50.896C229.014 50.4267 229.345 49.7973 229.345 49.008V46.8H226.529C224.289 46.8 223.169 47.504 223.169 48.912V49.552C223.169 50.2133 223.414 50.7147 223.905 51.056C224.395 51.3973 225.067 51.568 225.921 51.568ZM257.992 50.768H263.24V33.552H257.992V30.32H267.336V50.768H272.616V54H257.992V50.768ZM285.499 34.928C284.539 34.928 283.856 34.7253 283.451 34.32C283.067 33.9147 282.875 33.424 282.875 32.848V32.08C282.875 31.504 283.067 31.0133 283.451 30.608C283.856 30.2027 284.539 30 285.499 30C286.459 30 287.131 30.2027 287.515 30.608C287.92 31.0133 288.123 31.504 288.123 32.08V32.848C288.123 33.424 287.92 33.9147 287.515 34.32C287.131 34.7253 286.459 34.928 285.499 34.928ZM278.011 50.768H283.451V40.72H278.011V37.488H287.547V50.768H292.603V54H278.011V50.768ZM303.599 54.384C301.785 54.384 300.217 54.1067 298.895 53.552C297.572 52.976 296.537 52.208 295.791 51.248L298.191 49.072C298.873 49.8187 299.652 50.3947 300.527 50.8C301.423 51.2053 302.457 51.408 303.631 51.408C304.655 51.408 305.476 51.2373 306.095 50.896C306.713 50.5547 307.023 50.032 307.023 49.328C307.023 48.7307 306.809 48.3253 306.383 48.112C305.977 47.8987 305.433 47.7387 304.751 47.632L302.095 47.216C301.412 47.1093 300.74 46.96 300.079 46.768C299.439 46.5547 298.863 46.2667 298.351 45.904C297.86 45.5413 297.465 45.0827 297.167 44.528C296.868 43.952 296.719 43.2587 296.719 42.448C296.719 40.72 297.359 39.3973 298.639 38.48C299.94 37.5627 301.721 37.104 303.983 37.104C305.583 37.104 306.937 37.328 308.047 37.776C309.177 38.224 310.105 38.8533 310.831 39.664L308.687 42.032C308.217 41.52 307.588 41.072 306.799 40.688C306.031 40.2827 305.049 40.08 303.855 40.08C301.764 40.08 300.719 40.7307 300.719 42.032C300.719 42.6293 300.932 43.0453 301.359 43.28C301.785 43.4933 302.34 43.6533 303.023 43.76L305.647 44.176C306.351 44.2827 307.023 44.4427 307.663 44.656C308.324 44.848 308.9 45.1253 309.391 45.488C309.903 45.8507 310.308 46.3093 310.607 46.864C310.905 47.4187 311.055 48.1013 311.055 48.912C311.055 50.6187 310.393 51.9627 309.071 52.944C307.769 53.904 305.945 54.384 303.599 54.384ZM323.97 54C322.391 54 321.229 53.584 320.482 52.752C319.735 51.92 319.362 50.8427 319.362 49.52V40.72H314.562V37.488H317.826C318.487 37.488 318.957 37.36 319.234 37.104C319.511 36.8267 319.65 36.3467 319.65 35.664V31.664H323.458V37.488H330.178V40.72H323.458V50.768H330.178V54H323.97ZM348.118 54C347.115 54 346.336 53.7547 345.782 53.264C345.248 52.752 344.928 52.048 344.822 51.152H344.662C344.363 52.176 343.776 52.976 342.902 53.552C342.027 54.1067 340.95 54.384 339.67 54.384C338.006 54.384 336.683 53.9467 335.702 53.072C334.72 52.1973 334.23 50.9813 334.23 49.424C334.23 46.096 336.672 44.432 341.558 44.432H344.47V43.344C344.47 42.2987 344.214 41.5093 343.702 40.976C343.19 40.4427 342.358 40.176 341.206 40.176C340.16 40.176 339.318 40.3787 338.678 40.784C338.038 41.1893 337.494 41.712 337.046 42.352L334.71 40.368C335.222 39.4507 336.043 38.6827 337.174 38.064C338.326 37.424 339.808 37.104 341.622 37.104C343.798 37.104 345.494 37.616 346.71 38.64C347.947 39.6427 348.566 41.1467 348.566 43.152V50.928H350.517V54H348.118ZM341.046 51.568C342.027 51.568 342.838 51.344 343.478 50.896C344.139 50.4267 344.47 49.7973 344.47 49.008V46.8H341.654C339.414 46.8 338.294 47.504 338.294 48.912V49.552C338.294 50.2133 338.539 50.7147 339.03 51.056C339.52 51.3973 340.192 51.568 341.046 51.568ZM380.413 54.384C379.154 54.384 378.023 54.1813 377.021 53.776C376.039 53.3707 375.197 52.7947 374.493 52.048C373.81 51.3013 373.277 50.3947 372.893 49.328C372.53 48.2613 372.349 47.0667 372.349 45.744C372.349 44.4213 372.53 43.2267 372.893 42.16C373.277 41.0933 373.81 40.1867 374.493 39.44C375.197 38.6933 376.039 38.1173 377.021 37.712C378.023 37.3067 379.154 37.104 380.413 37.104C381.65 37.104 382.77 37.3067 383.773 37.712C384.775 38.1173 385.618 38.6933 386.301 39.44C387.005 40.1867 387.538 41.0933 387.901 42.16C388.285 43.2267 388.477 44.4213 388.477 45.744C388.477 47.0667 388.285 48.2613 387.901 49.328C387.538 50.3947 387.005 51.3013 386.301 52.048C385.618 52.7947 384.775 53.3707 383.773 53.776C382.77 54.1813 381.65 54.384 380.413 54.384ZM380.413 51.248C381.586 51.248 382.514 50.896 383.197 50.192C383.879 49.4667 384.221 48.4107 384.221 47.024V44.464C384.221 43.0773 383.879 42.032 383.197 41.328C382.514 40.6027 381.586 40.24 380.413 40.24C379.239 40.24 378.311 40.6027 377.629 41.328C376.946 42.032 376.605 43.0773 376.605 44.464V47.024C376.605 48.4107 376.946 49.4667 377.629 50.192C378.311 50.896 379.239 51.248 380.413 51.248ZM392.4 50.768H396.496V40.72H392.4V37.488H400.592V42H400.848C400.997 41.424 401.2 40.8693 401.456 40.336C401.733 39.7813 402.075 39.3013 402.48 38.896C402.907 38.4693 403.419 38.128 404.016 37.872C404.613 37.616 405.328 37.488 406.16 37.488H407.952V41.328H404.56C403.323 41.328 402.352 41.6907 401.648 42.416C400.944 43.1413 400.592 44.0693 400.592 45.2V50.768H406.32V54H392.4V50.768ZM422.084 51.088H421.86C421.412 52.0907 420.793 52.8907 420.004 53.488C419.236 54.0853 418.212 54.384 416.932 54.384C415.993 54.384 415.129 54.2133 414.34 53.872C413.572 53.5093 412.91 52.976 412.356 52.272C411.801 51.5467 411.374 50.64 411.076 49.552C410.777 48.464 410.628 47.1947 410.628 45.744C410.628 42.8427 411.204 40.6773 412.356 39.248C413.508 37.8187 415.033 37.104 416.932 37.104C418.212 37.104 419.236 37.4027 420.004 38C420.793 38.5973 421.412 39.3973 421.86 40.4H422.084V30.32H426.18V54H422.084V51.088ZM418.66 51.12C419.129 51.12 419.566 51.0667 419.972 50.96C420.398 50.832 420.761 50.6613 421.06 50.448C421.38 50.2133 421.625 49.9253 421.796 49.584C421.988 49.2213 422.084 48.8053 422.084 48.336V43.152C422.084 42.6827 421.988 42.2773 421.796 41.936C421.625 41.5733 421.38 41.2853 421.06 41.072C420.761 40.8373 420.398 40.6667 419.972 40.56C419.566 40.432 419.129 40.368 418.66 40.368C417.465 40.368 416.537 40.7307 415.876 41.456C415.236 42.1813 414.916 43.1733 414.916 44.432V47.056C414.916 48.3147 415.236 49.3067 415.876 50.032C416.537 50.7573 417.465 51.12 418.66 51.12ZM438.359 54.384C437.036 54.384 435.863 54.1813 434.839 53.776C433.815 53.3707 432.951 52.7947 432.247 52.048C431.564 51.3013 431.042 50.4053 430.679 49.36C430.316 48.2933 430.135 47.0987 430.135 45.776C430.135 44.432 430.316 43.2267 430.679 42.16C431.063 41.0933 431.596 40.1867 432.279 39.44C432.962 38.6933 433.783 38.1173 434.743 37.712C435.724 37.3067 436.823 37.104 438.039 37.104C439.234 37.104 440.311 37.3067 441.271 37.712C442.231 38.096 443.042 38.6507 443.703 39.376C444.386 40.1013 444.908 40.976 445.271 42C445.634 43.024 445.815 44.1547 445.815 45.392V46.736H434.231V47.152C434.231 48.3467 434.604 49.3173 435.351 50.064C436.098 50.7893 437.143 51.152 438.487 51.152C439.511 51.152 440.386 50.9493 441.111 50.544C441.858 50.1173 442.476 49.5627 442.967 48.88L445.303 51.216C444.706 52.0907 443.831 52.8373 442.679 53.456C441.548 54.0747 440.108 54.384 438.359 54.384ZM438.071 40.112C436.919 40.112 435.991 40.4747 435.287 41.2C434.583 41.9253 434.231 42.8853 434.231 44.08V44.304H441.719V44.016C441.719 42.8213 441.388 41.872 440.727 41.168C440.087 40.464 439.202 40.112 438.071 40.112ZM449.963 54V37.488H454.059V40.4H454.219C454.581 39.504 455.136 38.736 455.883 38.096C456.651 37.4347 457.707 37.104 459.051 37.104C460.672 37.104 461.984 37.648 462.987 38.736C464.011 39.8027 464.523 41.3387 464.523 43.344V54H460.427V43.92C460.427 41.5307 459.392 40.336 457.323 40.336C456.896 40.336 456.491 40.3893 456.107 40.496C455.723 40.6027 455.371 40.7733 455.051 41.008C454.752 41.2213 454.507 41.488 454.315 41.808C454.144 42.128 454.059 42.512 454.059 42.96V54H449.963ZM482.43 54C481.427 54 480.649 53.7547 480.094 53.264C479.561 52.752 479.241 52.048 479.134 51.152H478.974C478.675 52.176 478.089 52.976 477.214 53.552C476.339 54.1067 475.262 54.384 473.982 54.384C472.318 54.384 470.995 53.9467 470.014 53.072C469.033 52.1973 468.542 50.9813 468.542 49.424C468.542 46.096 470.985 44.432 475.87 44.432H478.782V43.344C478.782 42.2987 478.526 41.5093 478.014 40.976C477.502 40.4427 476.67 40.176 475.518 40.176C474.473 40.176 473.63 40.3787 472.99 40.784C472.35 41.1893 471.806 41.712 471.358 42.352L469.022 40.368C469.534 39.4507 470.355 38.6827 471.486 38.064C472.638 37.424 474.121 37.104 475.934 37.104C478.11 37.104 479.806 37.616 481.022 38.64C482.259 39.6427 482.878 41.1467 482.878 43.152V50.928H484.83V54H482.43ZM475.358 51.568C476.339 51.568 477.15 51.344 477.79 50.896C478.451 50.4267 478.782 49.7973 478.782 49.008V46.8H475.966C473.726 46.8 472.606 47.504 472.606 48.912V49.552C472.606 50.2133 472.851 50.7147 473.342 51.056C473.833 51.3973 474.505 51.568 475.358 51.568ZM498.834 51.088H498.61C498.162 52.0907 497.543 52.8907 496.754 53.488C495.986 54.0853 494.962 54.384 493.682 54.384C492.743 54.384 491.879 54.2133 491.09 53.872C490.322 53.5093 489.66 52.976 489.106 52.272C488.551 51.5467 488.124 50.64 487.826 49.552C487.527 48.464 487.378 47.1947 487.378 45.744C487.378 42.8427 487.954 40.6773 489.106 39.248C490.258 37.8187 491.783 37.104 493.682 37.104C494.962 37.104 495.986 37.4027 496.754 38C497.543 38.5973 498.162 39.3973 498.61 40.4H498.834V30.32H502.93V54H498.834V51.088ZM495.41 51.12C495.879 51.12 496.316 51.0667 496.722 50.96C497.148 50.832 497.511 50.6613 497.81 50.448C498.13 50.2133 498.375 49.9253 498.546 49.584C498.738 49.2213 498.834 48.8053 498.834 48.336V43.152C498.834 42.6827 498.738 42.2773 498.546 41.936C498.375 41.5733 498.13 41.2853 497.81 41.072C497.511 40.8373 497.148 40.6667 496.722 40.56C496.316 40.432 495.879 40.368 495.41 40.368C494.215 40.368 493.287 40.7307 492.626 41.456C491.986 42.1813 491.666 43.1733 491.666 44.432V47.056C491.666 48.3147 491.986 49.3067 492.626 50.032C493.287 50.7573 494.215 51.12 495.41 51.12ZM520.805 54C519.802 54 519.024 53.7547 518.469 53.264C517.936 52.752 517.616 52.048 517.509 51.152H517.349C517.05 52.176 516.464 52.976 515.589 53.552C514.714 54.1067 513.637 54.384 512.357 54.384C510.693 54.384 509.37 53.9467 508.389 53.072C507.408 52.1973 506.917 50.9813 506.917 49.424C506.917 46.096 509.36 44.432 514.245 44.432H517.157V43.344C517.157 42.2987 516.901 41.5093 516.389 40.976C515.877 40.4427 515.045 40.176 513.893 40.176C512.848 40.176 512.005 40.3787 511.365 40.784C510.725 41.1893 510.181 41.712 509.733 42.352L507.397 40.368C507.909 39.4507 508.73 38.6827 509.861 38.064C511.013 37.424 512.496 37.104 514.309 37.104C516.485 37.104 518.181 37.616 519.397 38.64C520.634 39.6427 521.253 41.1467 521.253 43.152V50.928H523.205V54H520.805ZM513.733 51.568C514.714 51.568 515.525 51.344 516.165 50.896C516.826 50.4267 517.157 49.7973 517.157 49.008V46.8H514.341C512.101 46.8 510.981 47.504 510.981 48.912V49.552C510.981 50.2133 511.226 50.7147 511.717 51.056C512.208 51.3973 512.88 51.568 513.733 51.568ZM533.913 54.352C532.803 54.352 532.014 54.1173 531.545 53.648C531.075 53.1787 530.841 52.6027 530.841 51.92V50.96C530.841 50.2773 531.075 49.7013 531.545 49.232C532.014 48.7627 532.803 48.528 533.913 48.528C535.022 48.528 535.811 48.7627 536.281 49.232C536.75 49.7013 536.985 50.2773 536.985 50.96V51.92C536.985 52.6027 536.75 53.1787 536.281 53.648C535.811 54.1173 535.022 54.352 533.913 54.352ZM533.913 42.992C532.803 42.992 532.014 42.7573 531.545 42.288C531.075 41.8187 530.841 41.2427 530.841 40.56V39.6C530.841 38.9173 531.075 38.3413 531.545 37.872C532.014 37.4027 532.803 37.168 533.913 37.168C535.022 37.168 535.811 37.4027 536.281 37.872C536.75 38.3413 536.985 38.9173 536.985 39.6V40.56C536.985 41.2427 536.75 41.8187 536.281 42.288C535.811 42.7573 535.022 42.992 533.913 42.992ZM189.562 160.928C188.602 160.928 187.919 160.725 187.514 160.32C187.13 159.915 186.938 159.424 186.938 158.848V158.08C186.938 157.504 187.13 157.013 187.514 156.608C187.919 156.203 188.602 156 189.562 156C190.522 156 191.194 156.203 191.578 156.608C191.983 157.013 192.186 157.504 192.186 158.08V158.848C192.186 159.424 191.983 159.915 191.578 160.32C191.194 160.725 190.522 160.928 189.562 160.928ZM182.074 176.768H187.514V166.72H182.074V163.488H191.61V176.768H196.666V180H182.074V176.768ZM208.845 180C207.266 180 206.104 179.584 205.357 178.752C204.61 177.92 204.237 176.843 204.237 175.52V166.72H199.437V163.488H202.701C203.362 163.488 203.832 163.36 204.109 163.104C204.386 162.827 204.525 162.347 204.525 161.664V157.664H208.333V163.488H215.053V166.72H208.333V176.768H215.053V180H208.845ZM227.297 180.384C225.974 180.384 224.801 180.181 223.777 179.776C222.753 179.371 221.889 178.795 221.185 178.048C220.502 177.301 219.979 176.405 219.617 175.36C219.254 174.293 219.073 173.099 219.073 171.776C219.073 170.432 219.254 169.227 219.617 168.16C220.001 167.093 220.534 166.187 221.217 165.44C221.899 164.693 222.721 164.117 223.681 163.712C224.662 163.307 225.761 163.104 226.977 163.104C228.171 163.104 229.249 163.307 230.209 163.712C231.169 164.096 231.979 164.651 232.641 165.376C233.323 166.101 233.846 166.976 234.208 168C234.571 169.024 234.753 170.155 234.753 171.392V172.736H223.169V173.152C223.169 174.347 223.542 175.317 224.289 176.064C225.035 176.789 226.081 177.152 227.425 177.152C228.449 177.152 229.323 176.949 230.049 176.544C230.795 176.117 231.414 175.563 231.905 174.88L234.241 177.216C233.643 178.091 232.769 178.837 231.617 179.456C230.486 180.075 229.046 180.384 227.297 180.384ZM227.009 166.112C225.857 166.112 224.929 166.475 224.225 167.2C223.521 167.925 223.169 168.885 223.169 170.08V170.304H230.657V170.016C230.657 168.821 230.326 167.872 229.665 167.168C229.025 166.464 228.139 166.112 227.009 166.112ZM237.684 180V163.488H241.076V165.76H241.268C241.524 165.035 241.887 164.416 242.356 163.904C242.847 163.371 243.529 163.104 244.404 163.104C245.236 163.104 245.897 163.349 246.388 163.84C246.879 164.309 247.199 164.981 247.348 165.856H247.508C247.785 165.109 248.191 164.469 248.724 163.936C249.279 163.381 250.057 163.104 251.06 163.104C252.276 163.104 253.151 163.541 253.684 164.416C254.217 165.291 254.484 166.581 254.484 168.288V180H251.124V168.768C251.124 167.808 250.985 167.136 250.708 166.752C250.452 166.368 250.057 166.176 249.524 166.176C249.033 166.176 248.617 166.336 248.276 166.656C247.956 166.976 247.796 167.467 247.796 168.128V180H244.404V168.768C244.404 167.808 244.276 167.136 244.02 166.752C243.764 166.368 243.369 166.176 242.836 166.176C242.324 166.176 241.897 166.336 241.556 166.656C241.236 166.976 241.076 167.467 241.076 168.128V180H237.684ZM277.787 180V176.576H283.931V160.704H283.643L278.779 166.464L276.155 164.256L281.691 157.664H288.123V176.576H293.179V180H277.787ZM189.562 202.928C188.602 202.928 187.919 202.725 187.514 202.32C187.13 201.915 186.938 201.424 186.938 200.848V200.08C186.938 199.504 187.13 199.013 187.514 198.608C187.919 198.203 188.602 198 189.562 198C190.522 198 191.194 198.203 191.578 198.608C191.983 199.013 192.186 199.504 192.186 200.08V200.848C192.186 201.424 191.983 201.915 191.578 202.32C191.194 202.725 190.522 202.928 189.562 202.928ZM182.074 218.768H187.514V208.72H182.074V205.488H191.61V218.768H196.666V222H182.074V218.768ZM208.845 222C207.266 222 206.104 221.584 205.357 220.752C204.61 219.92 204.237 218.843 204.237 217.52V208.72H199.437V205.488H202.701C203.362 205.488 203.832 205.36 204.109 205.104C204.386 204.827 204.525 204.347 204.525 203.664V199.664H208.333V205.488H215.053V208.72H208.333V218.768H215.053V222H208.845ZM227.297 222.384C225.974 222.384 224.801 222.181 223.777 221.776C222.753 221.371 221.889 220.795 221.185 220.048C220.502 219.301 219.979 218.405 219.617 217.36C219.254 216.293 219.073 215.099 219.073 213.776C219.073 212.432 219.254 211.227 219.617 210.16C220.001 209.093 220.534 208.187 221.217 207.44C221.899 206.693 222.721 206.117 223.681 205.712C224.662 205.307 225.761 205.104 226.977 205.104C228.171 205.104 229.249 205.307 230.209 205.712C231.169 206.096 231.979 206.651 232.641 207.376C233.323 208.101 233.846 208.976 234.208 210C234.571 211.024 234.753 212.155 234.753 213.392V214.736H223.169V215.152C223.169 216.347 223.542 217.317 224.289 218.064C225.035 218.789 226.081 219.152 227.425 219.152C228.449 219.152 229.323 218.949 230.049 218.544C230.795 218.117 231.414 217.563 231.905 216.88L234.241 219.216C233.643 220.091 232.769 220.837 231.617 221.456C230.486 222.075 229.046 222.384 227.297 222.384ZM227.009 208.112C225.857 208.112 224.929 208.475 224.225 209.2C223.521 209.925 223.169 210.885 223.169 212.08V212.304H230.657V212.016C230.657 210.821 230.326 209.872 229.665 209.168C229.025 208.464 228.139 208.112 227.009 208.112ZM237.684 222V205.488H241.076V207.76H241.268C241.524 207.035 241.887 206.416 242.356 205.904C242.847 205.371 243.529 205.104 244.404 205.104C245.236 205.104 245.897 205.349 246.388 205.84C246.879 206.309 247.199 206.981 247.348 207.856H247.508C247.785 207.109 248.191 206.469 248.724 205.936C249.279 205.381 250.057 205.104 251.06 205.104C252.276 205.104 253.151 205.541 253.684 206.416C254.217 207.291 254.484 208.581 254.484 210.288V222H251.124V210.768C251.124 209.808 250.985 209.136 250.708 208.752C250.452 208.368 250.057 208.176 249.524 208.176C249.033 208.176 248.617 208.336 248.276 208.656C247.956 208.976 247.796 209.467 247.796 210.128V222H244.404V210.768C244.404 209.808 244.276 209.136 244.02 208.752C243.764 208.368 243.369 208.176 242.836 208.176C242.324 208.176 241.897 208.336 241.556 208.656C241.236 208.976 241.076 209.467 241.076 210.128V222H237.684ZM292.475 222H276.731V218.096L283.899 211.984C285.094 210.96 285.979 210.032 286.555 209.2C287.131 208.347 287.419 207.44 287.419 206.48V206.16C287.419 205.093 287.12 204.283 286.523 203.728C285.926 203.173 285.094 202.896 284.027 202.896C282.854 202.896 281.958 203.216 281.339 203.856C280.72 204.496 280.272 205.285 279.995 206.224L276.347 204.848C276.582 204.123 276.912 203.429 277.339 202.768C277.787 202.085 278.331 201.488 278.971 200.976C279.632 200.464 280.411 200.059 281.307 199.76C282.203 199.44 283.227 199.28 284.379 199.28C285.574 199.28 286.63 199.451 287.547 199.792C288.486 200.112 289.275 200.571 289.915 201.168C290.555 201.744 291.035 202.437 291.355 203.248C291.696 204.059 291.867 204.944 291.867 205.904C291.867 206.821 291.718 207.664 291.419 208.432C291.142 209.2 290.747 209.936 290.235 210.64C289.723 211.323 289.115 211.984 288.411 212.624C287.728 213.264 286.982 213.904 286.171 214.544L281.307 218.48H292.475V222Z" fill="white"/>
<path d="M34.6625 46.4084V43.8404H39.2705V31.9364H39.0545L35.4065 36.2564L33.4385 34.6004L37.5905 29.6564H42.4145V43.8404H46.2065V46.4084H34.6625Z" fill="white"/>
<path d="M45.6785 87.8873H33.8705V84.9593L39.2465 80.3753C40.1425 79.6073 40.8065 78.9113 41.2385 78.2873C41.6705 77.6473 41.8865 76.9673 41.8865 76.2473V76.0073C41.8865 75.2073 41.6625 74.5993 41.2145 74.1833C40.7665 73.7673 40.1425 73.5593 39.3425 73.5593C38.4625 73.5593 37.7905 73.7993 37.3265 74.2793C36.8625 74.7593 36.5265 75.3513 36.3185 76.0553L33.5825 75.0233C33.7585 74.4793 34.0065 73.9593 34.3265 73.4633C34.6625 72.9513 35.0705 72.5033 35.5505 72.1193C36.0465 71.7353 36.6305 71.4313 37.3025 71.2073C37.9745 70.9673 38.7425 70.8473 39.6065 70.8473C40.5025 70.8473 41.2945 70.9753 41.9825 71.2313C42.6865 71.4713 43.2785 71.8153 43.7585 72.2633C44.2385 72.6953 44.5985 73.2153 44.8385 73.8233C45.0945 74.4313 45.2225 75.0953 45.2225 75.8153C45.2225 76.5033 45.1105 77.1353 44.8865 77.7113C44.6785 78.2873 44.3825 78.8393 43.9985 79.3673C43.6145 79.8793 43.1585 80.3753 42.6305 80.8553C42.1185 81.3353 41.5585 81.8153 40.9505 82.2953L37.3025 85.2473H45.6785V87.8873Z" fill="white"/>
<path d="M39.0065 123.396C40.0145 123.396 40.7505 123.196 41.2145 122.796C41.6945 122.396 41.9345 121.892 41.9345 121.284V121.116C41.9345 120.428 41.7025 119.892 41.2385 119.508C40.7905 119.124 40.1665 118.932 39.3665 118.932C38.5985 118.932 37.9265 119.108 37.3505 119.46C36.7745 119.812 36.2785 120.308 35.8625 120.948L33.8225 119.124C34.1105 118.74 34.4305 118.38 34.7825 118.044C35.1505 117.692 35.5585 117.396 36.0065 117.156C36.4705 116.9 36.9825 116.7 37.5425 116.556C38.1025 116.412 38.7425 116.34 39.4625 116.34C40.3105 116.34 41.0865 116.444 41.7905 116.652C42.5105 116.844 43.1185 117.132 43.6145 117.516C44.1265 117.9 44.5185 118.364 44.7905 118.908C45.0785 119.436 45.2225 120.036 45.2225 120.708C45.2225 121.236 45.1345 121.716 44.9585 122.148C44.7825 122.58 44.5425 122.956 44.2385 123.276C43.9505 123.596 43.6065 123.86 43.2065 124.068C42.8225 124.276 42.4065 124.428 41.9585 124.524V124.644C42.4545 124.74 42.9185 124.9 43.3505 125.124C43.7825 125.332 44.1585 125.604 44.4785 125.94C44.7985 126.276 45.0545 126.684 45.2465 127.164C45.4385 127.628 45.5345 128.156 45.5345 128.748C45.5345 129.484 45.3825 130.156 45.0785 130.764C44.7745 131.372 44.3425 131.892 43.7825 132.324C43.2385 132.756 42.5745 133.092 41.7905 133.332C41.0225 133.556 40.1585 133.668 39.1985 133.668C38.3985 133.668 37.6865 133.58 37.0625 133.404C36.4385 133.244 35.8865 133.02 35.4065 132.732C34.9265 132.444 34.5105 132.116 34.1585 131.748C33.8065 131.364 33.4945 130.972 33.2225 130.572L35.5505 128.772C35.9505 129.444 36.4225 129.996 36.9665 130.428C37.5265 130.86 38.2865 131.076 39.2465 131.076C40.2065 131.076 40.9425 130.86 41.4545 130.428C41.9825 129.98 42.2465 129.364 42.2465 128.58V128.388C42.2465 127.62 41.9665 127.036 41.4065 126.636C40.8465 126.22 40.0545 126.012 39.0305 126.012H37.3505V123.396H39.0065Z" fill="white"/>
<path d="M42.2404 174.859V171.619H34.4884V168.931L41.3284 158.107H45.2404V169.171H47.4964V171.619H45.2404V174.859H42.2404ZM37.0564 169.171H42.2404V161.179H42.0484L37.0564 169.171Z" fill="white"/>
<path d="M47.5883 202.322H39.9083L39.5003 207.938H39.6923C39.8843 207.586 40.0923 207.266 40.3163 206.978C40.5403 206.674 40.7963 206.418 41.0843 206.21C41.3883 206.002 41.7243 205.842 42.0923 205.73C42.4763 205.618 42.9163 205.562 43.4123 205.562C44.1163 205.562 44.7803 205.682 45.4043 205.922C46.0283 206.162 46.5723 206.506 47.0363 206.954C47.5003 207.402 47.8603 207.954 48.1163 208.61C48.3883 209.266 48.5243 210.01 48.5243 210.842C48.5243 211.674 48.3803 212.442 48.0923 213.146C47.8203 213.85 47.4123 214.466 46.8683 214.994C46.3403 215.506 45.6843 215.906 44.9003 216.194C44.1323 216.482 43.2443 216.626 42.2363 216.626C41.4523 216.626 40.7483 216.538 40.1243 216.362C39.5163 216.202 38.9803 215.978 38.5163 215.69C38.0523 215.402 37.6443 215.074 37.2923 214.706C36.9403 214.322 36.6363 213.93 36.3803 213.53L38.6603 211.73C38.8523 212.05 39.0603 212.354 39.2843 212.642C39.5243 212.914 39.7883 213.154 40.0763 213.362C40.3643 213.57 40.6843 213.738 41.0363 213.866C41.4043 213.978 41.8203 214.034 42.2843 214.034C43.2443 214.034 43.9723 213.778 44.4683 213.266C44.9803 212.738 45.2363 212.018 45.2363 211.106V210.914C45.2363 210.034 44.9803 209.346 44.4683 208.85C43.9563 208.354 43.2363 208.106 42.3083 208.106C41.6043 208.106 41.0283 208.242 40.5803 208.514C40.1483 208.77 39.7963 209.05 39.5243 209.354L36.9563 208.994L37.5803 199.586H47.5883V202.322Z" fill="white"/>
<path d="M42.4283 258.105C41.4523 258.105 40.5803 257.953 39.8123 257.649C39.0603 257.329 38.4203 256.889 37.8923 256.329C37.3643 255.753 36.9563 255.065 36.6683 254.265C36.3963 253.449 36.2603 252.537 36.2603 251.529C36.2603 250.329 36.4443 249.201 36.8123 248.145C37.1803 247.073 37.6523 246.097 38.2283 245.217C38.8203 244.321 39.4763 243.521 40.1963 242.817C40.9163 242.113 41.6363 241.529 42.3563 241.065H46.6283C45.6203 241.769 44.7163 242.449 43.9163 243.105C43.1323 243.745 42.4443 244.401 41.8523 245.073C41.2763 245.745 40.7883 246.449 40.3883 247.185C40.0043 247.905 39.7163 248.697 39.5243 249.561L39.7163 249.609C39.8763 249.289 40.0683 248.985 40.2923 248.697C40.5163 248.393 40.7803 248.129 41.0843 247.905C41.4043 247.665 41.7643 247.481 42.1643 247.353C42.5803 247.209 43.0603 247.137 43.6043 247.137C44.3083 247.137 44.9643 247.257 45.5723 247.497C46.1803 247.737 46.7003 248.089 47.1323 248.553C47.5803 249.001 47.9323 249.545 48.1883 250.185C48.4443 250.825 48.5723 251.545 48.5723 252.345C48.5723 253.193 48.4283 253.969 48.1403 254.673C47.8523 255.377 47.4363 255.985 46.8923 256.497C46.3643 257.009 45.7163 257.409 44.9483 257.697C44.1963 257.969 43.3563 258.105 42.4283 258.105ZM42.4043 255.633C43.3643 255.633 44.0923 255.385 44.5883 254.889C45.0843 254.377 45.3323 253.657 45.3323 252.729V252.441C45.3323 251.513 45.0763 250.801 44.5643 250.305C44.0683 249.809 43.3483 249.561 42.4043 249.561C41.4923 249.561 40.7803 249.809 40.2683 250.305C39.7563 250.801 39.5003 251.513 39.5003 252.441V252.729C39.5003 253.657 39.7483 254.377 40.2443 254.889C40.7403 255.385 41.4603 255.633 42.4043 255.633Z" fill="white"/>
<path d="M39.008 299L44.984 284.816H39.008V287.888H36.32V282.248H48.104V284.984L42.32 299H39.008Z" fill="white"/>
<path d="M41.2 340.288C40.208 340.288 39.328 340.168 38.56 339.928C37.792 339.672 37.144 339.328 36.616 338.896C36.088 338.464 35.688 337.952 35.416 337.36C35.144 336.768 35.008 336.12 35.008 335.416C35.008 334.312 35.312 333.424 35.92 332.752C36.544 332.08 37.36 331.608 38.368 331.336V331.144C37.504 330.84 36.808 330.368 36.28 329.728C35.768 329.088 35.512 328.28 35.512 327.304C35.512 326.664 35.64 326.08 35.896 325.552C36.152 325.008 36.52 324.544 37 324.16C37.48 323.776 38.072 323.48 38.776 323.272C39.48 323.064 40.288 322.96 41.2 322.96C42.112 322.96 42.92 323.064 43.624 323.272C44.328 323.48 44.92 323.776 45.4 324.16C45.88 324.544 46.248 325.008 46.504 325.552C46.76 326.08 46.888 326.664 46.888 327.304C46.888 328.28 46.624 329.088 46.096 329.728C45.584 330.368 44.896 330.84 44.032 331.144V331.336C45.04 331.608 45.848 332.08 46.456 332.752C47.08 333.424 47.392 334.312 47.392 335.416C47.392 336.12 47.256 336.768 46.984 337.36C46.712 337.952 46.312 338.464 45.784 338.896C45.256 339.328 44.608 339.672 43.84 339.928C43.072 340.168 42.192 340.288 41.2 340.288ZM41.2 337.84C42.144 337.84 42.864 337.632 43.36 337.216C43.872 336.784 44.128 336.192 44.128 335.44V334.96C44.128 334.192 43.88 333.6 43.384 333.184C42.888 332.752 42.16 332.536 41.2 332.536C40.24 332.536 39.512 332.752 39.016 333.184C38.52 333.6 38.272 334.192 38.272 334.96V335.44C38.272 336.192 38.52 336.784 39.016 337.216C39.528 337.632 40.256 337.84 41.2 337.84ZM41.2 330.208C42.08 330.208 42.752 330.008 43.216 329.608C43.68 329.208 43.912 328.656 43.912 327.952V327.616C43.912 326.928 43.68 326.392 43.216 326.008C42.752 325.608 42.08 325.408 41.2 325.408C40.32 325.408 39.648 325.608 39.184 326.008C38.72 326.392 38.488 326.928 38.488 327.616V327.952C38.488 328.656 38.72 329.208 39.184 329.608C39.648 330.008 40.32 330.208 41.2 330.208Z" fill="white"/>
<path d="M47.296 370.536C47.296 371.736 47.112 372.872 46.744 373.944C46.376 375 45.896 375.976 45.304 376.872C44.728 377.752 44.08 378.544 43.36 379.248C42.64 379.952 41.92 380.536 41.2 381H36.928C37.936 380.296 38.832 379.624 39.616 378.984C40.416 378.328 41.104 377.664 41.68 376.992C42.272 376.32 42.76 375.624 43.144 374.904C43.544 374.168 43.84 373.368 44.032 372.504L43.84 372.456C43.68 372.776 43.488 373.088 43.264 373.392C43.04 373.696 42.768 373.96 42.448 374.184C42.144 374.408 41.784 374.592 41.368 374.736C40.968 374.864 40.496 374.928 39.952 374.928C39.248 374.928 38.592 374.808 37.984 374.568C37.376 374.328 36.848 373.984 36.4 373.536C35.952 373.072 35.6 372.52 35.344 371.88C35.104 371.24 34.984 370.52 34.984 369.72C34.984 368.872 35.128 368.096 35.416 367.392C35.704 366.688 36.112 366.08 36.64 365.568C37.184 365.056 37.832 364.664 38.584 364.392C39.352 364.104 40.2 363.96 41.128 363.96C42.104 363.96 42.968 364.12 43.72 364.44C44.488 364.744 45.136 365.184 45.664 365.76C46.192 366.32 46.592 367.008 46.864 367.824C47.152 368.624 47.296 369.528 47.296 370.536ZM41.152 372.504C42.064 372.504 42.776 372.256 43.288 371.76C43.8 371.264 44.056 370.552 44.056 369.624V369.336C44.056 368.408 43.808 367.696 43.312 367.2C42.816 366.688 42.096 366.432 41.152 366.432C40.192 366.432 39.464 366.688 38.968 367.2C38.472 367.696 38.224 368.408 38.224 369.336V369.624C38.224 370.552 38.472 371.264 38.968 371.76C39.48 372.256 40.208 372.504 41.152 372.504Z" fill="white"/>
<path d="M36.184 422V419.432H40.792V407.528H40.576L36.928 411.848L34.96 410.192L39.112 405.248H43.936V419.432H47.728V422H36.184ZM55.5906 422.288C54.5026 422.288 53.5586 422.096 52.7586 421.712C51.9586 421.312 51.2946 420.744 50.7666 420.008C50.2546 419.272 49.8706 418.368 49.6146 417.296C49.3746 416.224 49.2546 415 49.2546 413.624C49.2546 412.264 49.3746 411.048 49.6146 409.976C49.8706 408.888 50.2546 407.976 50.7666 407.24C51.2946 406.504 51.9586 405.944 52.7586 405.56C53.5586 405.16 54.5026 404.96 55.5906 404.96C57.7666 404.96 59.3666 405.72 60.3906 407.24C61.4146 408.76 61.9266 410.888 61.9266 413.624C61.9266 416.36 61.4146 418.488 60.3906 420.008C59.3666 421.528 57.7666 422.288 55.5906 422.288ZM55.5906 419.768C56.7426 419.768 57.5506 419.36 58.0146 418.544C58.4946 417.712 58.7346 416.568 58.7346 415.112V412.136C58.7346 410.68 58.4946 409.544 58.0146 408.728C57.5506 407.896 56.7426 407.48 55.5906 407.48C54.4386 407.48 53.6226 407.896 53.1426 408.728C52.6786 409.544 52.4466 410.68 52.4466 412.136V415.112C52.4466 416.568 52.6786 417.712 53.1426 418.544C53.6226 419.36 54.4386 419.768 55.5906 419.768ZM55.5906 415.04C55.0306 415.04 54.6386 414.928 54.4146 414.704C54.2066 414.48 54.1026 414.208 54.1026 413.888V413.36C54.1026 413.04 54.2066 412.768 54.4146 412.544C54.6386 412.32 55.0306 412.208 55.5906 412.208C56.1506 412.208 56.5346 412.32 56.7426 412.544C56.9666 412.768 57.0786 413.04 57.0786 413.36V413.888C57.0786 414.208 56.9666 414.48 56.7426 414.704C56.5346 414.928 56.1506 415.04 55.5906 415.04Z" fill="white"/>
<path d="M36.184 463V460.432H40.792V448.528H40.576L36.928 452.848L34.96 451.192L39.112 446.248H43.936V460.432H47.728V463H36.184ZM50.5746 463V460.432H55.1826V448.528H54.9666L51.3186 452.848L49.3506 451.192L53.5026 446.248H58.3266V460.432H62.1186V463H50.5746Z" fill="white"/>
<path d="M36.184 504V501.432H40.792V489.528H40.576L36.928 493.848L34.96 492.192L39.112 487.248H43.936V501.432H47.728V504H36.184ZM61.5906 504H49.7826V501.072L55.1586 496.488C56.0546 495.72 56.7186 495.024 57.1506 494.4C57.5826 493.76 57.7986 493.08 57.7986 492.36V492.12C57.7986 491.32 57.5746 490.712 57.1266 490.296C56.6786 489.88 56.0546 489.672 55.2546 489.672C54.3746 489.672 53.7026 489.912 53.2386 490.392C52.7746 490.872 52.4386 491.464 52.2306 492.168L49.4946 491.136C49.6706 490.592 49.9186 490.072 50.2386 489.576C50.5746 489.064 50.9826 488.616 51.4626 488.232C51.9586 487.848 52.5426 487.544 53.2146 487.32C53.8866 487.08 54.6546 486.96 55.5186 486.96C56.4146 486.96 57.2066 487.088 57.8946 487.344C58.5986 487.584 59.1906 487.928 59.6706 488.376C60.1506 488.808 60.5106 489.328 60.7506 489.936C61.0066 490.544 61.1346 491.208 61.1346 491.928C61.1346 492.616 61.0226 493.248 60.7986 493.824C60.5906 494.4 60.2946 494.952 59.9106 495.48C59.5266 495.992 59.0706 496.488 58.5426 496.968C58.0306 497.448 57.4706 497.928 56.8626 498.408L53.2146 501.36H61.5906V504Z" fill="white"/>
<path d="M36.184 545V542.432H40.792V530.528H40.576L36.928 534.848L34.96 533.192L39.112 528.248H43.936V542.432H47.728V545H36.184ZM54.9186 535.016C55.9266 535.016 56.6626 534.816 57.1266 534.416C57.6066 534.016 57.8466 533.512 57.8466 532.904V532.736C57.8466 532.048 57.6146 531.512 57.1506 531.128C56.7026 530.744 56.0786 530.552 55.2786 530.552C54.5106 530.552 53.8386 530.728 53.2626 531.08C52.6866 531.432 52.1906 531.928 51.7746 532.568L49.7346 530.744C50.0226 530.36 50.3426 530 50.6946 529.664C51.0626 529.312 51.4706 529.016 51.9186 528.776C52.3826 528.52 52.8946 528.32 53.4546 528.176C54.0146 528.032 54.6546 527.96 55.3746 527.96C56.2226 527.96 56.9986 528.064 57.7026 528.272C58.4226 528.464 59.0306 528.752 59.5266 529.136C60.0386 529.52 60.4306 529.984 60.7026 530.528C60.9906 531.056 61.1346 531.656 61.1346 532.328C61.1346 532.856 61.0466 533.336 60.8706 533.768C60.6946 534.2 60.4546 534.576 60.1506 534.896C59.8626 535.216 59.5186 535.48 59.1186 535.688C58.7346 535.896 58.3186 536.048 57.8706 536.144V536.264C58.3666 536.36 58.8306 536.52 59.2626 536.744C59.6946 536.952 60.0706 537.224 60.3906 537.56C60.7106 537.896 60.9666 538.304 61.1586 538.784C61.3506 539.248 61.4466 539.776 61.4466 540.368C61.4466 541.104 61.2946 541.776 60.9906 542.384C60.6866 542.992 60.2546 543.512 59.6946 543.944C59.1506 544.376 58.4866 544.712 57.7026 544.952C56.9346 545.176 56.0706 545.288 55.1106 545.288C54.3106 545.288 53.5986 545.2 52.9746 545.024C52.3506 544.864 51.7986 544.64 51.3186 544.352C50.8386 544.064 50.4226 543.736 50.0706 543.368C49.7186 542.984 49.4066 542.592 49.1346 542.192L51.4626 540.392C51.8626 541.064 52.3346 541.616 52.8786 542.048C53.4386 542.48 54.1986 542.696 55.1586 542.696C56.1186 542.696 56.8546 542.48 57.3666 542.048C57.8946 541.6 58.1586 540.984 58.1586 540.2V540.008C58.1586 539.24 57.8786 538.656 57.3186 538.256C56.7586 537.84 55.9666 537.632 54.9426 537.632H53.2626V535.016H54.9186Z" fill="white"/>
<path d="M36.184 586V583.432H40.792V571.528H40.576L36.928 575.848L34.96 574.192L39.112 569.248H43.936V583.432H47.728V586H36.184ZM56.8146 586V582.76H49.0626V580.072L55.9026 569.248H59.8146V580.312H62.0706V582.76H59.8146V586H56.8146ZM51.6306 580.312H56.8146V572.32H56.6226L51.6306 580.312Z" fill="white"/>
<path d="M85.72 337.16V333.32L99.48 325.768V329.672L89.432 335.112V335.368L99.48 340.808V344.712L85.72 337.16ZM124.095 340.808L134.143 335.368V335.112L124.095 329.672V325.768L137.855 333.32V337.16L124.095 344.712V340.808ZM622.97 337.16V333.32L636.73 325.768V329.672L626.682 335.112V335.368L636.73 340.808V344.712L622.97 337.16ZM641.934 349.416L652.462 320.68H656.142L645.614 349.416H641.934ZM680.533 340.808L690.581 335.368V335.112L680.533 329.672V325.768L694.293 333.32V337.16L680.533 344.712V340.808ZM85.72 421.16V417.32L99.48 409.768V413.672L89.432 419.112V419.368L99.48 424.808V428.712L85.72 421.16ZM143.283 424.808L153.331 419.368V419.112L143.283 413.672V409.768L157.043 417.32V421.16L143.283 428.712V424.808ZM104.908 463.16V459.32L118.668 451.768V455.672L108.62 461.112V461.368L118.668 466.808V470.712L104.908 463.16ZM162.47 466.808L172.518 461.368V461.112L162.47 455.672V451.768L176.23 459.32V463.16L162.47 470.712V466.808ZM296.783 463.16V459.32L310.543 451.768V455.672L300.495 461.112V461.368L310.543 466.808V470.712L296.783 463.16ZM315.746 475.416L326.274 446.68H329.954L319.426 475.416H315.746ZM373.533 466.808L383.581 461.368V461.112L373.533 455.672V451.768L387.293 459.32V463.16L373.533 470.712V466.808ZM104.908 505.16V501.32L118.668 493.768V497.672L108.62 503.112V503.368L118.668 508.808V512.712L104.908 505.16ZM162.47 508.808L172.518 503.368V503.112L162.47 497.672V493.768L176.23 501.32V505.16L162.47 512.712V508.808ZM296.783 505.16V501.32L310.543 493.768V497.672L300.495 503.112V503.368L310.543 508.808V512.712L296.783 505.16ZM315.746 517.416L326.274 488.68H329.954L319.426 517.416H315.746ZM373.533 508.808L383.581 503.368V503.112L373.533 497.672V493.768L387.293 501.32V505.16L373.533 512.712V508.808ZM85.72 547.16V543.32L99.48 535.768V539.672L89.432 545.112V545.368L99.48 550.808V554.712L85.72 547.16ZM104.684 559.416L115.212 530.68H118.892L108.364 559.416H104.684ZM162.47 550.808L172.518 545.368V545.112L162.47 539.672V535.768L176.23 543.32V547.16L162.47 554.712V550.808Z" fill="#CBC2C2"/>
<path d="M104.396 328.488H108.492V331.4H108.716C109.164 330.397 109.772 329.597 110.54 329C111.329 328.403 112.364 328.104 113.644 328.104C114.582 328.104 115.436 328.285 116.204 328.648C116.993 328.989 117.665 329.523 118.22 330.248C118.774 330.952 119.201 331.848 119.5 332.936C119.798 334.024 119.948 335.293 119.948 336.744C119.948 338.195 119.798 339.464 119.5 340.552C119.201 341.64 118.774 342.547 118.22 343.272C117.665 343.976 116.993 344.509 116.204 344.872C115.436 345.213 114.582 345.384 113.644 345.384C112.364 345.384 111.329 345.085 110.54 344.488C109.772 343.891 109.164 343.091 108.716 342.088H108.492V351.4H104.396V328.488ZM111.916 342.12C113.11 342.12 114.028 341.757 114.668 341.032C115.329 340.307 115.66 339.315 115.66 338.056V335.432C115.66 334.173 115.329 333.181 114.668 332.456C114.028 331.731 113.11 331.368 111.916 331.368C110.977 331.368 110.166 331.603 109.484 332.072C108.822 332.52 108.492 333.213 108.492 334.152V339.336C108.492 340.275 108.822 340.979 109.484 341.448C110.166 341.896 110.977 342.12 111.916 342.12ZM660.833 328.488H664.929V331.4H665.153C665.601 330.397 666.209 329.597 666.977 329C667.766 328.403 668.801 328.104 670.081 328.104C671.02 328.104 671.873 328.285 672.641 328.648C673.43 328.989 674.102 329.523 674.657 330.248C675.212 330.952 675.638 331.848 675.937 332.936C676.236 334.024 676.385 335.293 676.385 336.744C676.385 338.195 676.236 339.464 675.937 340.552C675.638 341.64 675.212 342.547 674.657 343.272C674.102 343.976 673.43 344.509 672.641 344.872C671.873 345.213 671.02 345.384 670.081 345.384C668.801 345.384 667.766 345.085 666.977 344.488C666.209 343.891 665.601 343.091 665.153 342.088H664.929V351.4H660.833V328.488ZM668.353 342.12C669.548 342.12 670.465 341.757 671.105 341.032C671.766 340.307 672.097 339.315 672.097 338.056V335.432C672.097 334.173 671.766 333.181 671.105 332.456C670.465 331.731 669.548 331.368 668.353 331.368C667.414 331.368 666.604 331.603 665.921 332.072C665.26 332.52 664.929 333.213 664.929 334.152V339.336C664.929 340.275 665.26 340.979 665.921 341.448C666.604 341.896 667.414 342.12 668.353 342.12ZM114.892 426.088H114.732C114.369 426.984 113.804 427.763 113.036 428.424C112.289 429.064 111.244 429.384 109.9 429.384C108.278 429.384 106.956 428.851 105.932 427.784C104.929 426.696 104.428 425.149 104.428 423.144V412.488H108.524V422.568C108.524 424.957 109.558 426.152 111.628 426.152C112.033 426.152 112.428 426.099 112.812 425.992C113.217 425.885 113.569 425.725 113.868 425.512C114.188 425.277 114.433 425 114.604 424.68C114.796 424.36 114.892 423.976 114.892 423.528V412.488H118.988V429H114.892V426.088ZM123.679 425.768H128.927V408.552H123.679V405.32H133.023V425.768H138.303V429H123.679V425.768ZM123.679 467.768H128.927V450.552H123.679V447.32H133.023V467.768H138.303V471H123.679V467.768ZM151.187 451.928C150.227 451.928 149.544 451.725 149.139 451.32C148.755 450.915 148.562 450.424 148.562 449.848V449.08C148.562 448.504 148.755 448.013 149.139 447.608C149.544 447.203 150.227 447 151.187 447C152.147 447 152.819 447.203 153.203 447.608C153.608 448.013 153.811 448.504 153.811 449.08V449.848C153.811 450.424 153.608 450.915 153.203 451.32C152.819 451.725 152.147 451.928 151.187 451.928ZM143.699 467.768H149.139V457.72H143.699V454.488H153.235V467.768H158.291V471H143.699V467.768ZM334.742 467.768H339.99V450.552H334.742V447.32H344.086V467.768H349.366V471H334.742V467.768ZM362.249 451.928C361.289 451.928 360.606 451.725 360.201 451.32C359.817 450.915 359.625 450.424 359.625 449.848V449.08C359.625 448.504 359.817 448.013 360.201 447.608C360.606 447.203 361.289 447 362.249 447C363.209 447 363.881 447.203 364.265 447.608C364.67 448.013 364.873 448.504 364.873 449.08V449.848C364.873 450.424 364.67 450.915 364.265 451.32C363.881 451.725 363.209 451.928 362.249 451.928ZM354.761 467.768H360.201V457.72H354.761V454.488H364.297V467.768H369.353V471H354.761V467.768ZM123.679 509.768H128.927V492.552H123.679V489.32H133.023V509.768H138.303V513H123.679V509.768ZM151.187 493.928C150.227 493.928 149.544 493.725 149.139 493.32C148.755 492.915 148.562 492.424 148.562 491.848V491.08C148.562 490.504 148.755 490.013 149.139 489.608C149.544 489.203 150.227 489 151.187 489C152.147 489 152.819 489.203 153.203 489.608C153.608 490.013 153.811 490.504 153.811 491.08V491.848C153.811 492.424 153.608 492.915 153.203 493.32C152.819 493.725 152.147 493.928 151.187 493.928ZM143.699 509.768H149.139V499.72H143.699V496.488H153.235V509.768H158.291V513H143.699V509.768ZM334.742 509.768H339.99V492.552H334.742V489.32H344.086V509.768H349.366V513H334.742V509.768ZM362.249 493.928C361.289 493.928 360.606 493.725 360.201 493.32C359.817 492.915 359.625 492.424 359.625 491.848V491.08C359.625 490.504 359.817 490.013 360.201 489.608C360.606 489.203 361.289 489 362.249 489C363.209 489 363.881 489.203 364.265 489.608C364.67 490.013 364.873 490.504 364.873 491.08V491.848C364.873 492.424 364.67 492.915 364.265 493.32C363.881 493.725 363.209 493.928 362.249 493.928ZM354.761 509.768H360.201V499.72H354.761V496.488H364.297V509.768H369.353V513H354.761V509.768ZM134.079 552.088H133.919C133.556 552.984 132.991 553.763 132.223 554.424C131.476 555.064 130.431 555.384 129.087 555.384C127.466 555.384 126.143 554.851 125.119 553.784C124.116 552.696 123.615 551.149 123.615 549.144V538.488H127.711V548.568C127.711 550.957 128.746 552.152 130.815 552.152C131.22 552.152 131.615 552.099 131.999 551.992C132.404 551.885 132.756 551.725 133.055 551.512C133.375 551.277 133.62 551 133.791 550.68C133.983 550.36 134.079 549.976 134.079 549.528V538.488H138.175V555H134.079V552.088ZM142.867 551.768H148.115V534.552H142.867V531.32H152.211V551.768H157.491V555H142.867V551.768Z" fill="#438ADD"/>
<path d="M154.579 334.664L154.771 328.2H154.483L150.163 339.688L145.843 328.2H145.555L145.747 334.664V345H142.099V322.664H147.091L150.195 330.888H150.419L153.555 322.664H158.227V345H154.579V334.664ZM170.374 325.928C169.414 325.928 168.731 325.725 168.326 325.32C167.942 324.915 167.75 324.424 167.75 323.848V323.08C167.75 322.504 167.942 322.013 168.326 321.608C168.731 321.203 169.414 321 170.374 321C171.334 321 172.006 321.203 172.39 321.608C172.795 322.013 172.998 322.504 172.998 323.08V323.848C172.998 324.424 172.795 324.915 172.39 325.32C172.006 325.725 171.334 325.928 170.374 325.928ZM162.886 341.768H168.326V331.72H162.886V328.488H172.422V341.768H177.478V345H162.886V341.768ZM181.338 345V328.488H185.434V331.4H185.594C185.956 330.504 186.511 329.736 187.258 329.096C188.026 328.435 189.082 328.104 190.426 328.104C192.047 328.104 193.359 328.648 194.362 329.736C195.386 330.803 195.898 332.339 195.898 334.344V345H191.802V334.92C191.802 332.531 190.767 331.336 188.698 331.336C188.271 331.336 187.866 331.389 187.482 331.496C187.098 331.603 186.746 331.773 186.426 332.008C186.127 332.221 185.882 332.488 185.69 332.808C185.519 333.128 185.434 333.512 185.434 333.96V345H181.338ZM200.525 321.32H204.621V331.4H204.781C205.144 330.504 205.698 329.736 206.445 329.096C207.213 328.435 208.269 328.104 209.613 328.104C211.234 328.104 212.546 328.648 213.549 329.736C214.573 330.803 215.085 332.339 215.085 334.344V345H210.989V334.92C210.989 332.531 209.954 331.336 207.885 331.336C207.458 331.336 207.053 331.389 206.669 331.496C206.285 331.603 205.933 331.773 205.613 332.008C205.314 332.221 205.069 332.488 204.877 332.808C204.706 333.128 204.621 333.512 204.621 333.96V345H200.525V321.32ZM232.993 345C231.99 345 231.211 344.755 230.657 344.264C230.123 343.752 229.803 343.048 229.697 342.152H229.537C229.238 343.176 228.651 343.976 227.777 344.552C226.902 345.107 225.825 345.384 224.545 345.384C222.881 345.384 221.558 344.947 220.577 344.072C219.595 343.197 219.105 341.981 219.105 340.424C219.105 337.096 221.547 335.432 226.433 335.432H229.345V334.344C229.345 333.299 229.089 332.509 228.577 331.976C228.065 331.443 227.233 331.176 226.081 331.176C225.035 331.176 224.193 331.379 223.553 331.784C222.913 332.189 222.369 332.712 221.921 333.352L219.585 331.368C220.097 330.451 220.918 329.683 222.049 329.064C223.201 328.424 224.683 328.104 226.497 328.104C228.673 328.104 230.369 328.616 231.585 329.64C232.822 330.643 233.441 332.147 233.441 334.152V341.928H235.392V345H232.993ZM225.921 342.568C226.902 342.568 227.713 342.344 228.353 341.896C229.014 341.427 229.345 340.797 229.345 340.008V337.8H226.529C224.289 337.8 223.169 338.504 223.169 339.912V340.552C223.169 341.213 223.414 341.715 223.905 342.056C224.395 342.397 225.067 342.568 225.921 342.568ZM257.992 341.768H263.24V324.552H257.992V321.32H267.336V341.768H272.616V345H257.992V341.768ZM285.499 325.928C284.539 325.928 283.856 325.725 283.451 325.32C283.067 324.915 282.875 324.424 282.875 323.848V323.08C282.875 322.504 283.067 322.013 283.451 321.608C283.856 321.203 284.539 321 285.499 321C286.459 321 287.131 321.203 287.515 321.608C287.92 322.013 288.123 322.504 288.123 323.08V323.848C288.123 324.424 287.92 324.915 287.515 325.32C287.131 325.725 286.459 325.928 285.499 325.928ZM278.011 341.768H283.451V331.72H278.011V328.488H287.547V341.768H292.603V345H278.011V341.768ZM303.599 345.384C301.785 345.384 300.217 345.107 298.895 344.552C297.572 343.976 296.537 343.208 295.791 342.248L298.191 340.072C298.873 340.819 299.652 341.395 300.527 341.8C301.423 342.205 302.457 342.408 303.631 342.408C304.655 342.408 305.476 342.237 306.095 341.896C306.713 341.555 307.023 341.032 307.023 340.328C307.023 339.731 306.809 339.325 306.383 339.112C305.977 338.899 305.433 338.739 304.751 338.632L302.095 338.216C301.412 338.109 300.74 337.96 300.079 337.768C299.439 337.555 298.863 337.267 298.351 336.904C297.86 336.541 297.465 336.083 297.167 335.528C296.868 334.952 296.719 334.259 296.719 333.448C296.719 331.72 297.359 330.397 298.639 329.48C299.94 328.563 301.721 328.104 303.983 328.104C305.583 328.104 306.937 328.328 308.047 328.776C309.177 329.224 310.105 329.853 310.831 330.664L308.687 333.032C308.217 332.52 307.588 332.072 306.799 331.688C306.031 331.283 305.049 331.08 303.855 331.08C301.764 331.08 300.719 331.731 300.719 333.032C300.719 333.629 300.932 334.045 301.359 334.28C301.785 334.493 302.34 334.653 303.023 334.76L305.647 335.176C306.351 335.283 307.023 335.443 307.663 335.656C308.324 335.848 308.9 336.125 309.391 336.488C309.903 336.851 310.308 337.309 310.607 337.864C310.905 338.419 311.055 339.101 311.055 339.912C311.055 341.619 310.393 342.963 309.071 343.944C307.769 344.904 305.945 345.384 303.599 345.384ZM323.97 345C322.391 345 321.229 344.584 320.482 343.752C319.735 342.92 319.362 341.843 319.362 340.52V331.72H314.562V328.488H317.826C318.487 328.488 318.957 328.36 319.234 328.104C319.511 327.827 319.65 327.347 319.65 326.664V322.664H323.458V328.488H330.178V331.72H323.458V341.768H330.178V345H323.97ZM348.118 345C347.115 345 346.336 344.755 345.782 344.264C345.248 343.752 344.928 343.048 344.822 342.152H344.662C344.363 343.176 343.776 343.976 342.902 344.552C342.027 345.107 340.95 345.384 339.67 345.384C338.006 345.384 336.683 344.947 335.702 344.072C334.72 343.197 334.23 341.981 334.23 340.424C334.23 337.096 336.672 335.432 341.558 335.432H344.47V334.344C344.47 333.299 344.214 332.509 343.702 331.976C343.19 331.443 342.358 331.176 341.206 331.176C340.16 331.176 339.318 331.379 338.678 331.784C338.038 332.189 337.494 332.712 337.046 333.352L334.71 331.368C335.222 330.451 336.043 329.683 337.174 329.064C338.326 328.424 339.808 328.104 341.622 328.104C343.798 328.104 345.494 328.616 346.71 329.64C347.947 330.643 348.566 332.147 348.566 334.152V341.928H350.517V345H348.118ZM341.046 342.568C342.027 342.568 342.838 342.344 343.478 341.896C344.139 341.427 344.47 340.797 344.47 340.008V337.8H341.654C339.414 337.8 338.294 338.504 338.294 339.912V340.552C338.294 341.213 338.539 341.715 339.03 342.056C339.52 342.397 340.192 342.568 341.046 342.568ZM373.213 345V328.488H377.309V331.4H377.469C377.831 330.504 378.386 329.736 379.133 329.096C379.901 328.435 380.957 328.104 382.301 328.104C383.922 328.104 385.234 328.648 386.237 329.736C387.261 330.803 387.773 332.339 387.773 334.344V345H383.677V334.92C383.677 332.531 382.642 331.336 380.573 331.336C380.146 331.336 379.741 331.389 379.357 331.496C378.973 331.603 378.621 331.773 378.301 332.008C378.002 332.221 377.757 332.488 377.565 332.808C377.394 333.128 377.309 333.512 377.309 333.96V345H373.213ZM405.68 345C404.677 345 403.899 344.755 403.344 344.264C402.811 343.752 402.491 343.048 402.384 342.152H402.224C401.925 343.176 401.339 343.976 400.464 344.552C399.589 345.107 398.512 345.384 397.232 345.384C395.568 345.384 394.245 344.947 393.264 344.072C392.283 343.197 391.792 341.981 391.792 340.424C391.792 337.096 394.235 335.432 399.12 335.432H402.032V334.344C402.032 333.299 401.776 332.509 401.264 331.976C400.752 331.443 399.92 331.176 398.768 331.176C397.723 331.176 396.88 331.379 396.24 331.784C395.6 332.189 395.056 332.712 394.608 333.352L392.272 331.368C392.784 330.451 393.605 329.683 394.736 329.064C395.888 328.424 397.371 328.104 399.184 328.104C401.36 328.104 403.056 328.616 404.272 329.64C405.509 330.643 406.128 332.147 406.128 334.152V341.928H408.08V345H405.68ZM398.608 342.568C399.589 342.568 400.4 342.344 401.04 341.896C401.701 341.427 402.032 340.797 402.032 340.008V337.8H399.216C396.976 337.8 395.856 338.504 395.856 339.912V340.552C395.856 341.213 396.101 341.715 396.592 342.056C397.083 342.397 397.755 342.568 398.608 342.568ZM401.712 325.864C401.2 325.864 400.752 325.789 400.368 325.64C399.984 325.491 399.6 325.331 399.216 325.16C398.747 324.947 398.32 324.776 397.936 324.648C397.552 324.52 397.179 324.456 396.816 324.456C396.453 324.456 396.133 324.52 395.856 324.648C395.579 324.776 395.269 324.979 394.928 325.256L393.456 323.368C393.819 322.813 394.277 322.355 394.832 321.992C395.408 321.608 396.101 321.416 396.912 321.416C397.424 321.416 397.872 321.491 398.256 321.64C398.64 321.789 399.024 321.949 399.408 322.12C399.877 322.333 400.304 322.504 400.688 322.632C401.072 322.76 401.445 322.824 401.808 322.824C402.171 322.824 402.491 322.76 402.768 322.632C403.045 322.504 403.355 322.301 403.696 322.024L405.168 323.912C404.805 324.467 404.336 324.936 403.76 325.32C403.205 325.683 402.523 325.864 401.712 325.864ZM418.788 345.384C417.529 345.384 416.398 345.181 415.396 344.776C414.414 344.371 413.572 343.795 412.868 343.048C412.185 342.301 411.652 341.395 411.268 340.328C410.905 339.261 410.724 338.067 410.724 336.744C410.724 335.421 410.905 334.227 411.268 333.16C411.652 332.093 412.185 331.187 412.868 330.44C413.572 329.693 414.414 329.117 415.396 328.712C416.398 328.307 417.529 328.104 418.788 328.104C420.025 328.104 421.145 328.307 422.148 328.712C423.15 329.117 423.993 329.693 424.676 330.44C425.38 331.187 425.913 332.093 426.276 333.16C426.66 334.227 426.852 335.421 426.852 336.744C426.852 338.067 426.66 339.261 426.276 340.328C425.913 341.395 425.38 342.301 424.676 343.048C423.993 343.795 423.15 344.371 422.148 344.776C421.145 345.181 420.025 345.384 418.788 345.384ZM418.788 342.248C419.961 342.248 420.889 341.896 421.572 341.192C422.254 340.467 422.596 339.411 422.596 338.024V335.464C422.596 334.077 422.254 333.032 421.572 332.328C420.889 331.603 419.961 331.24 418.788 331.24C417.614 331.24 416.686 331.603 416.004 332.328C415.321 333.032 414.98 334.077 414.98 335.464V338.024C414.98 339.411 415.321 340.467 416.004 341.192C416.686 341.896 417.614 342.248 418.788 342.248ZM457.163 345.384C455.904 345.384 454.773 345.181 453.771 344.776C452.789 344.371 451.947 343.795 451.243 343.048C450.56 342.301 450.027 341.395 449.643 340.328C449.28 339.261 449.099 338.067 449.099 336.744C449.099 335.421 449.28 334.227 449.643 333.16C450.027 332.093 450.56 331.187 451.243 330.44C451.947 329.693 452.789 329.117 453.771 328.712C454.773 328.307 455.904 328.104 457.163 328.104C458.4 328.104 459.52 328.307 460.523 328.712C461.525 329.117 462.368 329.693 463.051 330.44C463.755 331.187 464.288 332.093 464.651 333.16C465.035 334.227 465.227 335.421 465.227 336.744C465.227 338.067 465.035 339.261 464.651 340.328C464.288 341.395 463.755 342.301 463.051 343.048C462.368 343.795 461.525 344.371 460.523 344.776C459.52 345.181 458.4 345.384 457.163 345.384ZM457.163 342.248C458.336 342.248 459.264 341.896 459.947 341.192C460.629 340.467 460.971 339.411 460.971 338.024V335.464C460.971 334.077 460.629 333.032 459.947 332.328C459.264 331.603 458.336 331.24 457.163 331.24C455.989 331.24 455.061 331.603 454.379 332.328C453.696 333.032 453.355 334.077 453.355 335.464V338.024C453.355 339.411 453.696 340.467 454.379 341.192C455.061 341.896 455.989 342.248 457.163 342.248ZM469.15 341.768H473.246V331.72H469.15V328.488H477.342V333H477.598C477.747 332.424 477.95 331.869 478.206 331.336C478.483 330.781 478.825 330.301 479.23 329.896C479.657 329.469 480.169 329.128 480.766 328.872C481.363 328.616 482.078 328.488 482.91 328.488H484.702V332.328H481.31C480.073 332.328 479.102 332.691 478.398 333.416C477.694 334.141 477.342 335.069 477.342 336.2V341.768H483.07V345H469.15V341.768ZM498.834 342.088H498.61C498.162 343.091 497.543 343.891 496.754 344.488C495.986 345.085 494.962 345.384 493.682 345.384C492.743 345.384 491.879 345.213 491.09 344.872C490.322 344.509 489.66 343.976 489.106 343.272C488.551 342.547 488.124 341.64 487.826 340.552C487.527 339.464 487.378 338.195 487.378 336.744C487.378 333.843 487.954 331.677 489.106 330.248C490.258 328.819 491.783 328.104 493.682 328.104C494.962 328.104 495.986 328.403 496.754 329C497.543 329.597 498.162 330.397 498.61 331.4H498.834V321.32H502.93V345H498.834V342.088ZM495.41 342.12C495.879 342.12 496.316 342.067 496.722 341.96C497.148 341.832 497.511 341.661 497.81 341.448C498.13 341.213 498.375 340.925 498.546 340.584C498.738 340.221 498.834 339.805 498.834 339.336V334.152C498.834 333.683 498.738 333.277 498.546 332.936C498.375 332.573 498.13 332.285 497.81 332.072C497.511 331.837 497.148 331.667 496.722 331.56C496.316 331.432 495.879 331.368 495.41 331.368C494.215 331.368 493.287 331.731 492.626 332.456C491.986 333.181 491.666 334.173 491.666 335.432V338.056C491.666 339.315 491.986 340.307 492.626 341.032C493.287 341.757 494.215 342.12 495.41 342.12ZM515.109 345.384C513.786 345.384 512.613 345.181 511.589 344.776C510.565 344.371 509.701 343.795 508.997 343.048C508.314 342.301 507.792 341.405 507.429 340.36C507.066 339.293 506.885 338.099 506.885 336.776C506.885 335.432 507.066 334.227 507.429 333.16C507.813 332.093 508.346 331.187 509.029 330.44C509.712 329.693 510.533 329.117 511.493 328.712C512.474 328.307 513.573 328.104 514.789 328.104C515.984 328.104 517.061 328.307 518.021 328.712C518.981 329.096 519.792 329.651 520.453 330.376C521.136 331.101 521.658 331.976 522.021 333C522.384 334.024 522.565 335.155 522.565 336.392V337.736H510.981V338.152C510.981 339.347 511.354 340.317 512.101 341.064C512.848 341.789 513.893 342.152 515.237 342.152C516.261 342.152 517.136 341.949 517.861 341.544C518.608 341.117 519.226 340.563 519.717 339.88L522.053 342.216C521.456 343.091 520.581 343.837 519.429 344.456C518.298 345.075 516.858 345.384 515.109 345.384ZM514.821 331.112C513.669 331.112 512.741 331.475 512.037 332.2C511.333 332.925 510.981 333.885 510.981 335.08V335.304H518.469V335.016C518.469 333.821 518.138 332.872 517.477 332.168C516.837 331.464 515.952 331.112 514.821 331.112ZM526.713 345V328.488H530.809V331.4H530.969C531.331 330.504 531.886 329.736 532.633 329.096C533.401 328.435 534.457 328.104 535.801 328.104C537.422 328.104 538.734 328.648 539.737 329.736C540.761 330.803 541.273 332.339 541.273 334.344V345H537.177V334.92C537.177 332.531 536.142 331.336 534.073 331.336C533.646 331.336 533.241 331.389 532.857 331.496C532.473 331.603 532.121 331.773 531.801 332.008C531.502 332.221 531.257 332.488 531.065 332.808C530.894 333.128 530.809 333.512 530.809 333.96V345H526.713ZM559.18 345C558.177 345 557.399 344.755 556.844 344.264C556.311 343.752 555.991 343.048 555.884 342.152H555.724C555.425 343.176 554.839 343.976 553.964 344.552C553.089 345.107 552.012 345.384 550.732 345.384C549.068 345.384 547.745 344.947 546.764 344.072C545.783 343.197 545.292 341.981 545.292 340.424C545.292 337.096 547.735 335.432 552.62 335.432H555.532V334.344C555.532 333.299 555.276 332.509 554.764 331.976C554.252 331.443 553.42 331.176 552.268 331.176C551.223 331.176 550.38 331.379 549.74 331.784C549.1 332.189 548.556 332.712 548.108 333.352L545.772 331.368C546.284 330.451 547.105 329.683 548.236 329.064C549.388 328.424 550.871 328.104 552.684 328.104C554.86 328.104 556.556 328.616 557.772 329.64C559.009 330.643 559.628 332.147 559.628 334.152V341.928H561.58V345H559.18ZM552.108 342.568C553.089 342.568 553.9 342.344 554.54 341.896C555.201 341.427 555.532 340.797 555.532 340.008V337.8H552.716C550.476 337.8 549.356 338.504 549.356 339.912V340.552C549.356 341.213 549.601 341.715 550.092 342.056C550.583 342.397 551.255 342.568 552.108 342.568ZM575.584 342.088H575.36C574.912 343.091 574.293 343.891 573.504 344.488C572.736 345.085 571.712 345.384 570.432 345.384C569.493 345.384 568.629 345.213 567.84 344.872C567.072 344.509 566.41 343.976 565.856 343.272C565.301 342.547 564.874 341.64 564.576 340.552C564.277 339.464 564.128 338.195 564.128 336.744C564.128 333.843 564.704 331.677 565.856 330.248C567.008 328.819 568.533 328.104 570.432 328.104C571.712 328.104 572.736 328.403 573.504 329C574.293 329.597 574.912 330.397 575.36 331.4H575.584V321.32H579.68V345H575.584V342.088ZM572.16 342.12C572.629 342.12 573.066 342.067 573.472 341.96C573.898 341.832 574.261 341.661 574.56 341.448C574.88 341.213 575.125 340.925 575.296 340.584C575.488 340.221 575.584 339.805 575.584 339.336V334.152C575.584 333.683 575.488 333.277 575.296 332.936C575.125 332.573 574.88 332.285 574.56 332.072C574.261 331.837 573.898 331.667 573.472 331.56C573.066 331.432 572.629 331.368 572.16 331.368C570.965 331.368 570.037 331.731 569.376 332.456C568.736 333.181 568.416 334.173 568.416 335.432V338.056C568.416 339.315 568.736 340.307 569.376 341.032C570.037 341.757 570.965 342.12 572.16 342.12ZM597.555 345C596.552 345 595.774 344.755 595.219 344.264C594.686 343.752 594.366 343.048 594.259 342.152H594.099C593.8 343.176 593.214 343.976 592.339 344.552C591.464 345.107 590.387 345.384 589.107 345.384C587.443 345.384 586.12 344.947 585.139 344.072C584.158 343.197 583.667 341.981 583.667 340.424C583.667 337.096 586.11 335.432 590.995 335.432H593.907V334.344C593.907 333.299 593.651 332.509 593.139 331.976C592.627 331.443 591.795 331.176 590.643 331.176C589.598 331.176 588.755 331.379 588.115 331.784C587.475 332.189 586.931 332.712 586.483 333.352L584.147 331.368C584.659 330.451 585.48 329.683 586.611 329.064C587.763 328.424 589.246 328.104 591.059 328.104C593.235 328.104 594.931 328.616 596.147 329.64C597.384 330.643 598.003 332.147 598.003 334.152V341.928H599.955V345H597.555ZM590.483 342.568C591.464 342.568 592.275 342.344 592.915 341.896C593.576 341.427 593.907 340.797 593.907 340.008V337.8H591.091C588.851 337.8 587.731 338.504 587.731 339.912V340.552C587.731 341.213 587.976 341.715 588.467 342.056C588.958 342.397 589.63 342.568 590.483 342.568ZM610.663 345.352C609.553 345.352 608.764 345.117 608.295 344.648C607.825 344.179 607.591 343.603 607.591 342.92V341.96C607.591 341.277 607.825 340.701 608.295 340.232C608.764 339.763 609.553 339.528 610.663 339.528C611.772 339.528 612.561 339.763 613.031 340.232C613.5 340.701 613.735 341.277 613.735 341.96V342.92C613.735 343.603 613.5 344.179 613.031 344.648C612.561 345.117 611.772 345.352 610.663 345.352ZM610.663 333.992C609.553 333.992 608.764 333.757 608.295 333.288C607.825 332.819 607.591 332.243 607.591 331.56V330.6C607.591 329.917 607.825 329.341 608.295 328.872C608.764 328.403 609.553 328.168 610.663 328.168C611.772 328.168 612.561 328.403 613.031 328.872C613.5 329.341 613.735 329.917 613.735 330.6V331.56C613.735 332.243 613.5 332.819 613.031 333.288C612.561 333.757 611.772 333.992 610.663 333.992ZM189.562 451.928C188.602 451.928 187.919 451.725 187.514 451.32C187.13 450.915 186.938 450.424 186.938 449.848V449.08C186.938 448.504 187.13 448.013 187.514 447.608C187.919 447.203 188.602 447 189.562 447C190.522 447 191.194 447.203 191.578 447.608C191.983 448.013 192.186 448.504 192.186 449.08V449.848C192.186 450.424 191.983 450.915 191.578 451.32C191.194 451.725 190.522 451.928 189.562 451.928ZM182.074 467.768H187.514V457.72H182.074V454.488H191.61V467.768H196.666V471H182.074V467.768ZM208.845 471C207.266 471 206.104 470.584 205.357 469.752C204.61 468.92 204.237 467.843 204.237 466.52V457.72H199.437V454.488H202.701C203.362 454.488 203.832 454.36 204.109 454.104C204.386 453.827 204.525 453.347 204.525 452.664V448.664H208.333V454.488H215.053V457.72H208.333V467.768H215.053V471H208.845ZM227.297 471.384C225.974 471.384 224.801 471.181 223.777 470.776C222.753 470.371 221.889 469.795 221.185 469.048C220.502 468.301 219.979 467.405 219.617 466.36C219.254 465.293 219.073 464.099 219.073 462.776C219.073 461.432 219.254 460.227 219.617 459.16C220.001 458.093 220.534 457.187 221.217 456.44C221.899 455.693 222.721 455.117 223.681 454.712C224.662 454.307 225.761 454.104 226.977 454.104C228.171 454.104 229.249 454.307 230.209 454.712C231.169 455.096 231.979 455.651 232.641 456.376C233.323 457.101 233.846 457.976 234.208 459C234.571 460.024 234.753 461.155 234.753 462.392V463.736H223.169V464.152C223.169 465.347 223.542 466.317 224.289 467.064C225.035 467.789 226.081 468.152 227.425 468.152C228.449 468.152 229.323 467.949 230.049 467.544C230.795 467.117 231.414 466.563 231.905 465.88L234.241 468.216C233.643 469.091 232.769 469.837 231.617 470.456C230.486 471.075 229.046 471.384 227.297 471.384ZM227.009 457.112C225.857 457.112 224.929 457.475 224.225 458.2C223.521 458.925 223.169 459.885 223.169 461.08V461.304H230.657V461.016C230.657 459.821 230.326 458.872 229.665 458.168C229.025 457.464 228.139 457.112 227.009 457.112ZM237.684 471V454.488H241.076V456.76H241.268C241.524 456.035 241.887 455.416 242.356 454.904C242.847 454.371 243.529 454.104 244.404 454.104C245.236 454.104 245.897 454.349 246.388 454.84C246.879 455.309 247.199 455.981 247.348 456.856H247.508C247.785 456.109 248.191 455.469 248.724 454.936C249.279 454.381 250.057 454.104 251.06 454.104C252.276 454.104 253.151 454.541 253.684 455.416C254.217 456.291 254.484 457.581 254.484 459.288V471H251.124V459.768C251.124 458.808 250.985 458.136 250.708 457.752C250.452 457.368 250.057 457.176 249.524 457.176C249.033 457.176 248.617 457.336 248.276 457.656C247.956 457.976 247.796 458.467 247.796 459.128V471H244.404V459.768C244.404 458.808 244.276 458.136 244.02 457.752C243.764 457.368 243.369 457.176 242.836 457.176C242.324 457.176 241.897 457.336 241.556 457.656C241.236 457.976 241.076 458.467 241.076 459.128V471H237.684ZM277.787 471V467.576H283.931V451.704H283.643L278.779 457.464L276.155 455.256L281.691 448.664H288.123V467.576H293.179V471H277.787ZM189.562 493.928C188.602 493.928 187.919 493.725 187.514 493.32C187.13 492.915 186.938 492.424 186.938 491.848V491.08C186.938 490.504 187.13 490.013 187.514 489.608C187.919 489.203 188.602 489 189.562 489C190.522 489 191.194 489.203 191.578 489.608C191.983 490.013 192.186 490.504 192.186 491.08V491.848C192.186 492.424 191.983 492.915 191.578 493.32C191.194 493.725 190.522 493.928 189.562 493.928ZM182.074 509.768H187.514V499.72H182.074V496.488H191.61V509.768H196.666V513H182.074V509.768ZM208.845 513C207.266 513 206.104 512.584 205.357 511.752C204.61 510.92 204.237 509.843 204.237 508.52V499.72H199.437V496.488H202.701C203.362 496.488 203.832 496.36 204.109 496.104C204.386 495.827 204.525 495.347 204.525 494.664V490.664H208.333V496.488H215.053V499.72H208.333V509.768H215.053V513H208.845ZM227.297 513.384C225.974 513.384 224.801 513.181 223.777 512.776C222.753 512.371 221.889 511.795 221.185 511.048C220.502 510.301 219.979 509.405 219.617 508.36C219.254 507.293 219.073 506.099 219.073 504.776C219.073 503.432 219.254 502.227 219.617 501.16C220.001 500.093 220.534 499.187 221.217 498.44C221.899 497.693 222.721 497.117 223.681 496.712C224.662 496.307 225.761 496.104 226.977 496.104C228.171 496.104 229.249 496.307 230.209 496.712C231.169 497.096 231.979 497.651 232.641 498.376C233.323 499.101 233.846 499.976 234.208 501C234.571 502.024 234.753 503.155 234.753 504.392V505.736H223.169V506.152C223.169 507.347 223.542 508.317 224.289 509.064C225.035 509.789 226.081 510.152 227.425 510.152C228.449 510.152 229.323 509.949 230.049 509.544C230.795 509.117 231.414 508.563 231.905 507.88L234.241 510.216C233.643 511.091 232.769 511.837 231.617 512.456C230.486 513.075 229.046 513.384 227.297 513.384ZM227.009 499.112C225.857 499.112 224.929 499.475 224.225 500.2C223.521 500.925 223.169 501.885 223.169 503.08V503.304H230.657V503.016C230.657 501.821 230.326 500.872 229.665 500.168C229.025 499.464 228.139 499.112 227.009 499.112ZM237.684 513V496.488H241.076V498.76H241.268C241.524 498.035 241.887 497.416 242.356 496.904C242.847 496.371 243.529 496.104 244.404 496.104C245.236 496.104 245.897 496.349 246.388 496.84C246.879 497.309 247.199 497.981 247.348 498.856H247.508C247.785 498.109 248.191 497.469 248.724 496.936C249.279 496.381 250.057 496.104 251.06 496.104C252.276 496.104 253.151 496.541 253.684 497.416C254.217 498.291 254.484 499.581 254.484 501.288V513H251.124V501.768C251.124 500.808 250.985 500.136 250.708 499.752C250.452 499.368 250.057 499.176 249.524 499.176C249.033 499.176 248.617 499.336 248.276 499.656C247.956 499.976 247.796 500.467 247.796 501.128V513H244.404V501.768C244.404 500.808 244.276 500.136 244.02 499.752C243.764 499.368 243.369 499.176 242.836 499.176C242.324 499.176 241.897 499.336 241.556 499.656C241.236 499.976 241.076 500.467 241.076 501.128V513H237.684ZM292.475 513H276.731V509.096L283.899 502.984C285.094 501.96 285.979 501.032 286.555 500.2C287.131 499.347 287.419 498.44 287.419 497.48V497.16C287.419 496.093 287.12 495.283 286.523 494.728C285.926 494.173 285.094 493.896 284.027 493.896C282.854 493.896 281.958 494.216 281.339 494.856C280.72 495.496 280.272 496.285 279.995 497.224L276.347 495.848C276.582 495.123 276.912 494.429 277.339 493.768C277.787 493.085 278.331 492.488 278.971 491.976C279.632 491.464 280.411 491.059 281.307 490.76C282.203 490.44 283.227 490.28 284.379 490.28C285.574 490.28 286.63 490.451 287.547 490.792C288.486 491.112 289.275 491.571 289.915 492.168C290.555 492.744 291.035 493.437 291.355 494.248C291.696 495.059 291.867 495.944 291.867 496.904C291.867 497.821 291.718 498.664 291.419 499.432C291.142 500.2 290.747 500.936 290.235 501.64C289.723 502.323 289.115 502.984 288.411 503.624C287.728 504.264 286.982 504.904 286.171 505.544L281.307 509.48H292.475V513Z" fill="white"/>
</svg>
