<svg width="281" height="181" viewBox="0 0 281 181" fill="none" xmlns="http://www.w3.org/2000/svg">
<path d="M81.9825 89.7432C77.5678 114.166 61.1025 111.46 41.6618 111.229L50.4242 68.0306C72.2213 68.2898 86.3899 65.948 81.9825 89.7432ZM12.2804 154.182L33.4885 154.434L38.5297 126.881C61.505 127.154 76.7996 129.218 89.9167 116.195C104.824 101.311 109.253 75.6334 98.7985 62.9577C92.9895 55.9854 84.7867 52.1224 72.4153 51.9753L31.7666 51.492L12.2804 154.182ZM120.454 25.5611L141.073 25.8063L136.032 53.3593C153.705 53.5695 170.797 53.1452 178.955 60.773C187.098 69.6558 182.855 79.6464 174.011 129.747L152.213 129.488C161.028 81.8972 162.848 77.5258 160.536 73.7329C158.224 69.94 148.798 69.8279 132.303 69.6318L120.99 129.116L100.372 128.871L120.454 25.5611ZM245.756 91.6906C241.341 116.113 224.876 113.407 205.435 113.176L214.197 69.978C235.995 70.2372 250.163 67.8954 245.756 91.6906ZM176.054 156.129L196.673 156.374L201.699 130.076C226.442 130.37 239.969 132.414 253.086 119.391C267.993 104.506 272.422 78.8288 261.968 66.1531C256.159 59.1808 247.956 55.3178 235.584 55.1707L194.936 54.6873L176.054 156.129Z" fill="#9FA8FA"/>
</svg>
