<svg width="254" height="212" viewBox="0 0 254 212" fill="none" xmlns="http://www.w3.org/2000/svg">
<path d="M111.552 138.197C111.821 172.625 92.7013 188.578 64.9066 188.795C40.3189 188.987 25.7813 175.554 18.166 158.681L43.6907 141.549C48.0416 151.11 52.9095 158.409 64.1343 158.322C74.8246 158.239 80.6734 154.242 80.5414 137.31L79.6784 26.6887L110.68 26.4469L111.552 138.197ZM185.707 187.853C156.843 188.078 138.016 172.985 128.254 155L153.788 138.996C160.824 150.23 169.977 158.625 184.943 158.508C197.772 158.408 205.741 152.137 205.657 141.414C205.569 130.126 197.521 126.238 183.036 119.578L175.526 116.25C153.002 106.83 137.93 93.4013 137.719 66.3104C137.525 41.477 154.488 23.283 182.818 23.062C202.595 22.9077 216.549 30.1364 226.855 49.2466L202.934 66.3661C197.514 56.8131 192.133 52.3396 182.512 52.4147C173.425 52.4856 167.594 58.7398 167.656 66.6413C167.731 76.236 173.641 80.1409 186.518 86.2492L194.028 89.5771C220.311 101.225 235.905 112.956 236.125 141.176C236.893 171.085 215.105 187.623 185.707 187.853Z" fill="#F6F3A6"/>
</svg>
