<svg width="254" height="212" viewBox="0 0 254 212" fill="none" xmlns="http://www.w3.org/2000/svg">
<path d="M111.615 138.197C111.884 172.625 92.7646 188.578 64.9698 188.795C40.3821 188.987 25.8446 175.554 18.2293 158.681L43.7539 141.549C48.1049 151.11 52.9727 158.409 64.1975 158.322C74.8878 158.239 80.7367 154.242 80.6046 137.31L79.7416 26.6888L110.743 26.4469L111.615 138.197ZM185.77 187.853C156.906 188.078 138.079 172.985 128.317 155L153.851 138.996C160.887 150.23 170.04 158.625 185.007 158.508C197.835 158.408 205.804 152.137 205.721 141.414C205.633 130.126 197.584 126.238 183.099 119.578L175.59 116.25C153.065 106.83 137.993 93.4014 137.782 66.3104C137.588 41.4771 154.552 23.283 182.881 23.062C202.658 22.9077 216.613 30.1365 226.918 49.2467L202.997 66.3661C197.577 56.8131 192.197 52.3397 182.575 52.4147C173.489 52.4856 167.657 58.7398 167.719 66.6413C167.794 76.236 173.704 80.1409 186.581 86.2492L194.091 89.5772C220.374 101.225 235.968 112.957 236.188 141.176C236.956 171.085 215.168 187.623 185.77 187.853Z" fill="#F6F3A6"/>
</svg>
