<svg width="235" height="231" viewBox="0 0 235 231" fill="none" xmlns="http://www.w3.org/2000/svg">
<path d="M213.88 28.2369C209.419 22.9863 203.218 20.5927 196.417 20.4961L33.7617 18.1852C26.9607 18.0886 20.6447 23.7625 20.5383 31.2537C20.4318 38.7449 26.0174 44.5879 33.3851 44.6926L193.207 46.9632L186.481 81.4495L47.6292 79.4768C40.8283 79.3802 34.5122 85.0541 34.4058 92.5453C34.2993 100.037 39.8849 105.88 47.2526 105.984L182.138 107.901L170.493 169.406L121.5 186.577L73.0299 166.869L67.246 135.086C66.2107 128.155 59.4753 123.449 52.0913 124.497C45.274 125.552 40.6418 132.403 41.6689 139.91L47.9786 174.582C49.0138 181.513 54.0326 187.348 60.8008 189.749L113.796 210.099C116.055 210.707 118.314 211.316 120.581 211.348C122.848 211.38 125.123 210.836 127.398 210.292L180.95 191.456C187.784 189.248 192.975 182.982 194.207 176.083L215.756 48.9053C216.987 42.0065 218.324 34.64 213.871 28.8132L213.88 28.2369Z" fill="#A5CCF0"/>
</svg>
