<svg width="234" height="231" viewBox="0 0 234 231" fill="none" xmlns="http://www.w3.org/2000/svg">
<path d="M213.412 28.2847C208.952 23.034 202.75 20.6405 195.949 20.5438L33.2941 18.233C26.4932 18.1363 20.1772 23.8102 20.0707 31.3015C19.9643 38.7927 25.5499 44.6357 32.9175 44.7403L192.739 47.011L186.014 81.4973L47.1617 79.5246C40.3607 79.4279 34.0447 85.1018 33.9382 92.5931C33.8318 100.084 39.4174 105.927 46.7851 106.032L181.67 107.948L170.026 169.454L121.032 186.625L72.5624 166.916L66.7785 135.134C65.7432 128.203 59.0078 123.497 51.6238 124.544C44.8065 125.6 40.1743 132.451 41.2013 139.958L47.511 174.63C48.5463 181.561 53.5651 187.396 60.3333 189.797L113.329 210.146C115.588 210.755 117.846 211.363 120.113 211.396C122.38 211.428 124.655 210.884 126.931 210.34L180.483 191.504C187.317 189.296 192.507 183.03 193.739 176.131L215.288 48.9531C216.52 42.0542 217.856 34.6878 213.404 28.8609L213.412 28.2847Z" fill="#A5CCF0"/>
</svg>
