<svg width="230" height="252" viewBox="0 0 230 252" fill="none" xmlns="http://www.w3.org/2000/svg">
<path d="M123.645 242.451C119.455 242.01 116.178 240.937 112.977 239.142L48.3535 209.019C38.6751 204.356 32.7281 196.44 31.9614 187.61L28.2081 150.761C27.4414 141.931 35.0558 133.983 45.2647 133.597C55.4737 133.212 64.9247 140.038 65.6914 148.868L68.9856 182.024L127.132 209.279L189.75 193.987L208.848 131.105L54.0161 114.831C39.7682 113.334 28.106 103.359 26.9559 90.1144L21.2859 31.1907C20.4434 23.0821 23.8672 21.5196 30.4162 15.6461C38.9885 13.8429 48.7256 14.5642 59.001 14.5642L162.686 14.5642C173.145 16.0067 198.029 29.7109 198.029 38.7268C191.177 29.7109 203.078 37.2842 201.635 45.5789L59.001 35.1547L64.0559 83.8064L207.405 98.2316C209.569 98.2316 208.848 96.7891 208.848 109.772C208.848 116.624 208.848 123.115 208.848 131.105L208.848 206.422C208.848 215.078 209.569 221.569 206.07 224.137L136.52 240.888C132.102 242.611 127.836 242.891 123.645 242.451Z" fill="#F3CBB4"/>
</svg>
