<svg width="281" height="180" viewBox="0 0 281 180" fill="none" xmlns="http://www.w3.org/2000/svg">
<path d="M81.6771 88.9173C77.2623 113.34 60.797 110.634 41.3563 110.403L50.1187 67.2047C71.9159 67.4639 86.0844 65.1221 81.6771 88.9173ZM11.975 153.356L33.183 153.608L38.2242 126.055C61.1996 126.328 76.4941 128.393 89.6113 115.37C104.518 100.485 108.948 74.8075 98.4931 62.1318C92.684 55.1595 84.4812 51.2965 72.1099 51.1494L31.4611 50.6661L11.975 153.356ZM120.149 24.7352L140.768 24.9804L135.727 52.5335C153.4 52.7436 170.492 52.3193 178.65 59.9471C186.793 68.8299 182.55 78.8206 173.705 128.921L151.908 128.662C160.723 81.0713 162.542 76.7 160.23 72.9071C157.919 69.1142 148.493 69.0021 131.998 68.8059L120.685 128.29L100.066 128.045L120.149 24.7352ZM245.45 90.8648C241.036 115.287 224.57 112.581 205.13 112.35L213.892 69.1522C235.689 69.4114 249.858 67.0696 245.45 90.8648ZM175.748 155.303L196.367 155.548L201.393 129.25C226.136 129.544 239.663 131.588 252.781 118.565C267.687 103.681 272.117 78.0029 261.662 65.3272C255.853 58.3549 247.65 54.4919 235.279 54.3448L194.63 53.8615L175.748 155.303Z" fill="#9FA8FA"/>
</svg>
