<svg width="230" height="252" viewBox="0 0 230 252" fill="none" xmlns="http://www.w3.org/2000/svg">
<path d="M123.852 242.569C119.661 242.128 116.384 241.055 113.183 239.26L48.5598 209.137C38.8814 204.474 32.9344 196.558 32.1677 187.728L28.4144 150.879C27.6477 142.049 35.2621 134.1 45.471 133.715C55.68 133.33 65.131 140.156 65.8977 148.986L69.1919 182.141L127.338 209.397L189.956 194.105L209.054 131.223L54.2224 114.949C39.9745 113.452 28.3123 103.477 27.1622 90.2322L21.4922 31.3085C20.6497 23.1998 24.0735 21.6374 30.6225 15.7639C39.1948 13.9607 48.9319 14.682 59.2073 14.682L162.893 14.682C173.351 16.1245 198.235 29.8286 198.235 38.8445C191.383 29.8286 203.284 37.402 201.841 45.6966L59.2073 35.2725L64.2622 83.9242L207.612 98.3494C209.775 98.3494 209.054 96.9069 209.054 109.89C209.054 116.742 209.054 123.233 209.054 131.223L209.054 206.54C209.054 215.195 209.775 221.687 206.277 224.255L136.726 241.005C132.308 242.728 128.042 243.009 123.852 242.569Z" fill="#F3CBB4"/>
</svg>
