<svg width="88" height="88" viewBox="0 0 88 88" fill="none" xmlns="http://www.w3.org/2000/svg">
<g clip-path="url(#clip0_181_68)">
<path d="M44 88C68.3005 88 88 68.3005 88 44C88 19.6995 68.3005 0 44 0C19.6995 0 0 19.6995 0 44C0 68.3005 19.6995 88 44 88Z" fill="white"/>
<path d="M65.2214 69.1714C65.2214 70.3714 64.8499 70.9714 64.1071 70.9714H55.2856C54.5428 70.9714 52.6142 68.25 49.4999 62.8071C46.8642 58.2071 45.1142 54.8857 44.2499 52.8357C43.3785 50.8714 42.8785 49.7714 42.7571 49.5357C41.9928 48.2571 41.0928 47.5786 40.0714 47.5C39.7642 47.4714 38.9071 47.4643 37.4999 47.4643C34.2785 47.4643 32.6714 47.8643 32.6714 48.65C32.6714 51 32.7571 54.5143 32.9214 59.1928C33.0856 63.8714 33.1714 67.3714 33.1714 69.7C33.1714 70.5428 32.8499 70.9643 32.2142 70.9643C31.7285 70.9643 30.9999 70.9286 30.0285 70.85C29.0571 70.7714 28.3285 70.7357 27.8428 70.7357C27.3856 70.7357 26.6999 70.7714 25.7928 70.85C24.8856 70.9286 24.1999 70.9643 23.7428 70.9643C23.1071 70.9643 22.7856 70.6714 22.7856 70.0857C22.7856 67.2714 22.9214 63.05 23.1856 57.4143C23.4571 51.7786 23.5856 47.5571 23.5856 44.7428C23.5856 41.7786 23.4499 37.3214 23.1856 31.3786C22.9142 25.4357 22.7856 20.9857 22.7856 18.0143C22.7856 17.45 23.1071 17.1714 23.7428 17.1714C24.1999 17.1714 24.9071 17.2071 25.8499 17.2857C26.7928 17.3643 27.5142 17.4 27.9999 17.4C28.4571 17.4 29.1499 17.3643 30.0714 17.2857C30.9928 17.2071 31.6785 17.1714 32.1428 17.1714C32.7285 17.1714 33.0214 17.4 33.0214 17.8643C33.0214 20.0357 32.9499 23.3071 32.8142 27.6786C32.6714 32.05 32.5999 35.3357 32.5999 37.5286C32.5999 38.5286 32.6642 39.15 32.7928 39.4071C32.9999 39.8643 33.5214 40.1 34.3642 40.1C39.3214 40.1 42.9499 39.1786 45.2499 37.3428C47.2142 35.7071 49.0856 32.7071 50.8499 28.3357C52.1285 24.9143 53.4071 21.4857 54.6856 18.0643C54.8642 17.6286 55.2642 17.3357 55.8714 17.1857C56.2785 17.0857 57.6356 17.0357 59.9356 17.0357C62.7499 17.0357 64.1499 17.4357 64.1499 18.2214C64.1499 18.6786 63.5642 20.75 62.3856 24.4357C61.0071 28.7286 59.2142 32.5143 57.0214 35.7857C55.5642 38.0071 53.6356 40.2428 51.2356 42.4928C50.6214 43.0286 50.3142 43.5143 50.3142 43.95C50.3142 44.4071 51.3499 46.7 53.4214 50.8143C55.2071 54.3643 56.8356 57.2143 58.2928 59.3643C59.8999 61.3357 62.1499 64.3643 65.0428 68.45C65.1714 68.6786 65.2356 68.9214 65.2356 69.1786L65.2214 69.1714Z" fill="url(#paint0_linear_181_68)"/>
</g>
<defs>
<linearGradient id="paint0_linear_181_68" x1="12.2428" y1="8.51428" x2="72.3356" y2="77.2643" gradientUnits="userSpaceOnUse">
<stop offset="0.18" stop-color="#3FFF51"/>
<stop offset="0.34" stop-color="#36DB74"/>
<stop offset="0.8" stop-color="#1E79D7"/>
<stop offset="1" stop-color="#1552FF"/>
</linearGradient>
<clipPath id="clip0_181_68">
<rect width="88" height="88" fill="white"/>
</clipPath>
</defs>
</svg>
