<svg width="338" height="145" viewBox="0 0 338 145" fill="none" xmlns="http://www.w3.org/2000/svg">
<path d="M0 5C0 2.23858 2.23858 0 5 0H169V145H5C2.23857 145 0 142.761 0 140V5Z" fill="#811CD7"/>
<path d="M169 0H333C335.761 0 338 2.23858 338 5V140C338 142.761 335.761 145 333 145H169V0Z" fill="#EE9765"/>
<rect x="188" y="12" width="32" height="32" rx="5" fill="#55B265"/>
<rect x="188" y="56" width="32" height="32" rx="5" fill="#55B265"/>
<rect x="188" y="100" width="32" height="32" rx="5" fill="#55B265"/>
<rect x="238" y="12" width="32" height="32" rx="5" fill="#1E79D8"/>
<rect x="238" y="56" width="32" height="32" rx="5" fill="#1E79D8"/>
<rect x="238" y="100" width="32" height="32" rx="5" fill="#1E79D8"/>
<rect x="289" y="12" width="32" height="32" rx="5" fill="#BB5E7E"/>
<rect x="289" y="56" width="32" height="32" rx="5" fill="#BB5E7E"/>
<rect x="289" y="100" width="32" height="32" rx="5" fill="#BB5E7E"/>
<rect x="15" y="62" width="140" height="64" fill="#373538"/>
<path d="M18.455 72V71.465H19.415V68.985H19.37L18.61 69.885L18.2 69.54L19.065 68.51H20.07V71.465H20.86V72H18.455Z" fill="white"/>
<path d="M20.75 79H18.29V78.39L19.41 77.435C19.5967 77.275 19.735 77.13 19.825 77C19.915 76.8667 19.96 76.725 19.96 76.575V76.525C19.96 76.3583 19.9133 76.2317 19.82 76.145C19.7267 76.0583 19.5967 76.015 19.43 76.015C19.2467 76.015 19.1067 76.065 19.01 76.165C18.9133 76.265 18.8433 76.3883 18.8 76.535L18.23 76.32C18.2667 76.2067 18.3183 76.0983 18.385 75.995C18.455 75.8883 18.54 75.795 18.64 75.715C18.7433 75.635 18.865 75.5717 19.005 75.525C19.145 75.475 19.305 75.45 19.485 75.45C19.6717 75.45 19.8367 75.4767 19.98 75.53C20.1267 75.58 20.25 75.6517 20.35 75.745C20.45 75.835 20.525 75.9433 20.575 76.07C20.6283 76.1967 20.655 76.335 20.655 76.485C20.655 76.6283 20.6317 76.76 20.585 76.88C20.5417 77 20.48 77.115 20.4 77.225C20.32 77.3317 20.225 77.435 20.115 77.535C20.0083 77.635 19.8917 77.735 19.765 77.835L19.005 78.45H20.75V79Z" fill="white"/>
<path d="M19.36 83.92C19.57 83.92 19.7233 83.8783 19.82 83.795C19.92 83.7117 19.97 83.6067 19.97 83.48V83.445C19.97 83.3017 19.9217 83.19 19.825 83.11C19.7317 83.03 19.6017 82.99 19.435 82.99C19.275 82.99 19.135 83.0267 19.015 83.1C18.895 83.1733 18.7917 83.2767 18.705 83.41L18.28 83.03C18.34 82.95 18.4067 82.875 18.48 82.805C18.5567 82.7317 18.6417 82.67 18.735 82.62C18.8317 82.5667 18.9383 82.525 19.055 82.495C19.1717 82.465 19.305 82.45 19.455 82.45C19.6317 82.45 19.7933 82.4717 19.94 82.515C20.09 82.555 20.2167 82.615 20.32 82.695C20.4267 82.775 20.5083 82.8717 20.565 82.985C20.625 83.095 20.655 83.22 20.655 83.36C20.655 83.47 20.6367 83.57 20.6 83.66C20.5633 83.75 20.5133 83.8283 20.45 83.895C20.39 83.9617 20.3183 84.0167 20.235 84.06C20.155 84.1033 20.0683 84.135 19.975 84.155V84.18C20.0783 84.2 20.175 84.2333 20.265 84.28C20.355 84.3233 20.4333 84.38 20.5 84.45C20.5667 84.52 20.62 84.605 20.66 84.705C20.7 84.8017 20.72 84.9117 20.72 85.035C20.72 85.1883 20.6883 85.3283 20.625 85.455C20.5617 85.5817 20.4717 85.69 20.355 85.78C20.2417 85.87 20.1033 85.94 19.94 85.99C19.78 86.0367 19.6 86.06 19.4 86.06C19.2333 86.06 19.085 86.0417 18.955 86.005C18.825 85.9717 18.71 85.925 18.61 85.865C18.51 85.805 18.4233 85.7367 18.35 85.66C18.2767 85.58 18.2117 85.4983 18.155 85.415L18.64 85.04C18.7233 85.18 18.8217 85.295 18.935 85.385C19.0517 85.475 19.21 85.52 19.41 85.52C19.61 85.52 19.7633 85.475 19.87 85.385C19.98 85.2917 20.035 85.1633 20.035 85V84.96C20.035 84.8 19.9767 84.6783 19.86 84.595C19.7433 84.5083 19.5783 84.465 19.365 84.465H19.015V83.92H19.36Z" fill="white"/>
<path d="M19.755 93V92.325H18.14V91.765L19.565 89.51H20.38V91.815H20.85V92.325H20.38V93H19.755ZM18.675 91.815H19.755V90.15H19.715L18.675 91.815Z" fill="white"/>
<path d="M20.59 97.08H18.99L18.905 98.25H18.945C18.985 98.1767 19.0283 98.11 19.075 98.05C19.1217 97.9867 19.175 97.9333 19.235 97.89C19.2983 97.8467 19.3683 97.8133 19.445 97.79C19.525 97.7667 19.6167 97.755 19.72 97.755C19.8667 97.755 20.005 97.78 20.135 97.83C20.265 97.88 20.3783 97.9517 20.475 98.045C20.5717 98.1383 20.6467 98.2533 20.7 98.39C20.7567 98.5267 20.785 98.6817 20.785 98.855C20.785 99.0283 20.755 99.1883 20.695 99.335C20.6383 99.4817 20.5533 99.61 20.44 99.72C20.33 99.8267 20.1933 99.91 20.03 99.97C19.87 100.03 19.685 100.06 19.475 100.06C19.3117 100.06 19.165 100.042 19.035 100.005C18.9083 99.9717 18.7967 99.925 18.7 99.865C18.6033 99.805 18.5183 99.7367 18.445 99.66C18.3717 99.58 18.3083 99.4983 18.255 99.415L18.73 99.04C18.77 99.1067 18.8133 99.17 18.86 99.23C18.91 99.2867 18.965 99.3367 19.025 99.38C19.085 99.4233 19.1517 99.4583 19.225 99.485C19.3017 99.5083 19.3883 99.52 19.485 99.52C19.685 99.52 19.8367 99.4667 19.94 99.36C20.0467 99.25 20.1 99.1 20.1 98.91V98.87C20.1 98.6867 20.0467 98.5433 19.94 98.44C19.8333 98.3367 19.6833 98.285 19.49 98.285C19.3433 98.285 19.2233 98.3133 19.13 98.37C19.04 98.4233 18.9667 98.4817 18.91 98.545L18.375 98.47L18.505 96.51H20.59V97.08Z" fill="white"/>
<path d="M19.515 107.06C19.3117 107.06 19.13 107.028 18.97 106.965C18.8133 106.898 18.68 106.807 18.57 106.69C18.46 106.57 18.375 106.427 18.315 106.26C18.2583 106.09 18.23 105.9 18.23 105.69C18.23 105.44 18.2683 105.205 18.345 104.985C18.4217 104.762 18.52 104.558 18.64 104.375C18.7633 104.188 18.9 104.022 19.05 103.875C19.2 103.728 19.35 103.607 19.5 103.51H20.39C20.18 103.657 19.9917 103.798 19.825 103.935C19.6617 104.068 19.5183 104.205 19.395 104.345C19.275 104.485 19.1733 104.632 19.09 104.785C19.01 104.935 18.95 105.1 18.91 105.28L18.95 105.29C18.9833 105.223 19.0233 105.16 19.07 105.1C19.1167 105.037 19.1717 104.982 19.235 104.935C19.3017 104.885 19.3767 104.847 19.46 104.82C19.5467 104.79 19.6467 104.775 19.76 104.775C19.9067 104.775 20.0433 104.8 20.17 104.85C20.2967 104.9 20.405 104.973 20.495 105.07C20.5883 105.163 20.6617 105.277 20.715 105.41C20.7683 105.543 20.795 105.693 20.795 105.86C20.795 106.037 20.765 106.198 20.705 106.345C20.645 106.492 20.5583 106.618 20.445 106.725C20.335 106.832 20.2 106.915 20.04 106.975C19.8833 107.032 19.7083 107.06 19.515 107.06ZM19.51 106.545C19.71 106.545 19.8617 106.493 19.965 106.39C20.0683 106.283 20.12 106.133 20.12 105.94V105.88C20.12 105.687 20.0667 105.538 19.96 105.435C19.8567 105.332 19.7067 105.28 19.51 105.28C19.32 105.28 19.1717 105.332 19.065 105.435C18.9583 105.538 18.905 105.687 18.905 105.88V105.94C18.905 106.133 18.9567 106.283 19.06 106.39C19.1633 106.493 19.3133 106.545 19.51 106.545Z" fill="white"/>
<path d="M18.835 114L20.08 111.045H18.835V111.685H18.275V110.51H20.73V111.08L19.525 114H18.835Z" fill="white"/>
<path d="M19.5 121.06C19.2933 121.06 19.11 121.035 18.95 120.985C18.79 120.932 18.655 120.86 18.545 120.77C18.435 120.68 18.3517 120.573 18.295 120.45C18.2383 120.327 18.21 120.192 18.21 120.045C18.21 119.815 18.2733 119.63 18.4 119.49C18.53 119.35 18.7 119.252 18.91 119.195V119.155C18.73 119.092 18.585 118.993 18.475 118.86C18.3683 118.727 18.315 118.558 18.315 118.355C18.315 118.222 18.3417 118.1 18.395 117.99C18.4483 117.877 18.525 117.78 18.625 117.7C18.725 117.62 18.8483 117.558 18.995 117.515C19.1417 117.472 19.31 117.45 19.5 117.45C19.69 117.45 19.8583 117.472 20.005 117.515C20.1517 117.558 20.275 117.62 20.375 117.7C20.475 117.78 20.5517 117.877 20.605 117.99C20.6583 118.1 20.685 118.222 20.685 118.355C20.685 118.558 20.63 118.727 20.52 118.86C20.4133 118.993 20.27 119.092 20.09 119.155V119.195C20.3 119.252 20.4683 119.35 20.595 119.49C20.725 119.63 20.79 119.815 20.79 120.045C20.79 120.192 20.7617 120.327 20.705 120.45C20.6483 120.573 20.565 120.68 20.455 120.77C20.345 120.86 20.21 120.932 20.05 120.985C19.89 121.035 19.7067 121.06 19.5 121.06ZM19.5 120.55C19.6967 120.55 19.8467 120.507 19.95 120.42C20.0567 120.33 20.11 120.207 20.11 120.05V119.95C20.11 119.79 20.0583 119.667 19.955 119.58C19.8517 119.49 19.7 119.445 19.5 119.445C19.3 119.445 19.1483 119.49 19.045 119.58C18.9417 119.667 18.89 119.79 18.89 119.95V120.05C18.89 120.207 18.9417 120.33 19.045 120.42C19.1517 120.507 19.3033 120.55 19.5 120.55ZM19.5 118.96C19.6833 118.96 19.8233 118.918 19.92 118.835C20.0167 118.752 20.065 118.637 20.065 118.49V118.42C20.065 118.277 20.0167 118.165 19.92 118.085C19.8233 118.002 19.6833 117.96 19.5 117.96C19.3167 117.96 19.1767 118.002 19.08 118.085C18.9833 118.165 18.935 118.277 18.935 118.42V118.49C18.935 118.637 18.9833 118.752 19.08 118.835C19.1767 118.918 19.3167 118.96 19.5 118.96Z" fill="white"/>
<rect x="28" y="80" width="113" height="9" fill="#E4DADA"/>
</svg>
