<svg width="313" height="106" viewBox="0 0 313 106" fill="none" xmlns="http://www.w3.org/2000/svg">
<path d="M166 24L302.5 24M113 25.5L123.5 25.5M128 25.5L130.625 25.5L133.25 25.5L138.5 25.5M144 25.5L154.5 25.5" stroke="#F9DBDB"/>
<rect y="77.0005" width="55" height="21" rx="4" fill="#9A4DD6"/>
<rect x="68" y="77.0005" width="42" height="21" rx="4" fill="#EE9765"/>
<rect x="44" width="42" height="21" rx="4" fill="#EE9765"/>
<rect x="123" y="77.0005" width="48" height="21" rx="4" fill="#BB5E7E"/>
<rect x="184" y="77.0005" width="61" height="21" rx="4" fill="#1E79D8"/>
<rect x="171" width="61" height="21" rx="4" fill="#1E79D8"/>
<rect x="258" y="77.0005" width="55" height="21" rx="4" fill="#55B365"/>
<rect x="245" width="55" height="21" rx="4" fill="#55B365"/>
<path d="M40 96.4375V99.8125C40 99.9209 39.9873 100.029 39.962 100.135L38.8192 104.916C38.6674 105.551 38.0915 106 37.4286 106H30C29.7747 106 29.5525 105.948 29.3517 105.847C29.1509 105.746 28.9772 105.6 28.8446 105.421L24.2733 99.2334C23.8093 98.6053 23.9504 97.7258 24.5884 97.269C25.2265 96.8122 26.12 96.9511 26.584 97.5792L27.7143 99.1091V89.4062C27.7143 88.6296 28.3539 88 29.1429 88C29.9319 88 30.5714 88.6296 30.5714 89.4062V96.4375H30.8571V95.0312C30.8571 94.2546 31.4967 93.625 32.2857 93.625C33.0747 93.625 33.7143 94.2546 33.7143 95.0312V96.4375H34V95.5938C34 94.8171 34.6396 94.1875 35.4286 94.1875C36.2176 94.1875 36.8571 94.8171 36.8571 95.5938V96.4375H37.1429C37.1429 95.6609 37.7824 95.0312 38.5714 95.0312C39.3604 95.0312 40 95.6609 40 96.4375ZM30.8571 99.25H30.5714V102.625H30.8571V99.25ZM34 99.25H33.7143V102.625H34V99.25ZM37.1429 99.25H36.8571V102.625H37.1429V99.25Z" fill="white"/>
<line x1="33" y1="24.5" x2="97" y2="24.5" stroke="#F9DBDB"/>
</svg>
