<svg width="356" height="183" viewBox="0 0 356 183" fill="none" xmlns="http://www.w3.org/2000/svg">
<g filter="url(#filter0_d_768_398)">
<rect x="4" width="348" height="175" rx="5" fill="#F9F1FF"/>
</g>
<path d="M17.7 91.1V88.7L26.3 83.98V86.42L20.02 89.82V89.98L26.3 93.38V95.82L17.7 91.1ZM29.3722 85.68H31.9322V87.5H32.0722C32.3522 86.8733 32.7322 86.3733 33.2122 86C33.7055 85.6267 34.3522 85.44 35.1522 85.44C35.7389 85.44 36.2722 85.5533 36.7522 85.78C37.2455 85.9933 37.6655 86.3267 38.0122 86.78C38.3589 87.22 38.6255 87.78 38.8122 88.46C38.9989 89.14 39.0922 89.9333 39.0922 90.84C39.0922 91.7467 38.9989 92.54 38.8122 93.22C38.6255 93.9 38.3589 94.4667 38.0122 94.92C37.6655 95.36 37.2455 95.6933 36.7522 95.92C36.2722 96.1333 35.7389 96.24 35.1522 96.24C34.3522 96.24 33.7055 96.0533 33.2122 95.68C32.7322 95.3067 32.3522 94.8067 32.0722 94.18H31.9322V100H29.3722V85.68ZM34.0722 94.2C34.8189 94.2 35.3922 93.9733 35.7922 93.52C36.2055 93.0667 36.4122 92.4467 36.4122 91.66V90.02C36.4122 89.2333 36.2055 88.6133 35.7922 88.16C35.3922 87.7067 34.8189 87.48 34.0722 87.48C33.4855 87.48 32.9789 87.6267 32.5522 87.92C32.1389 88.2 31.9322 88.6333 31.9322 89.22V92.46C31.9322 93.0467 32.1389 93.4867 32.5522 93.78C32.9789 94.06 33.4855 94.2 34.0722 94.2ZM41.6844 93.38L47.9644 89.98V89.82L41.6844 86.42V83.98L50.2844 88.7V91.1L41.6844 95.82V93.38ZM53.5366 96V94.04H56.6766V84H53.5366V82.04H62.4166V84H59.2766V94.04H62.4166V96H53.5366ZM69.9288 96.24C68.7954 96.24 67.8154 96.0667 66.9888 95.72C66.1621 95.36 65.5154 94.88 65.0488 94.28L66.5488 92.92C66.9754 93.3867 67.4621 93.7467 68.0088 94C68.5688 94.2533 69.2154 94.38 69.9488 94.38C70.5888 94.38 71.1021 94.2733 71.4888 94.06C71.8754 93.8467 72.0688 93.52 72.0688 93.08C72.0688 92.7067 71.9354 92.4533 71.6688 92.32C71.4154 92.1867 71.0754 92.0867 70.6488 92.02L68.9888 91.76C68.5621 91.6933 68.1421 91.6 67.7288 91.48C67.3288 91.3467 66.9688 91.1667 66.6488 90.94C66.3421 90.7133 66.0954 90.4267 65.9088 90.08C65.7221 89.72 65.6288 89.2867 65.6288 88.78C65.6288 87.7 66.0288 86.8733 66.8288 86.3C67.6421 85.7267 68.7554 85.44 70.1688 85.44C71.1688 85.44 72.0154 85.58 72.7088 85.86C73.4154 86.14 73.9954 86.5333 74.4488 87.04L73.1088 88.52C72.8154 88.2 72.4221 87.92 71.9288 87.68C71.4488 87.4267 70.8354 87.3 70.0888 87.3C68.7821 87.3 68.1288 87.7067 68.1288 88.52C68.1288 88.8933 68.2621 89.1533 68.5288 89.3C68.7954 89.4333 69.1421 89.5333 69.5688 89.6L71.2088 89.86C71.6488 89.9267 72.0688 90.0267 72.4688 90.16C72.8821 90.28 73.2421 90.4533 73.5488 90.68C73.8688 90.9067 74.1221 91.1933 74.3088 91.54C74.4954 91.8867 74.5888 92.3133 74.5888 92.82C74.5888 93.8867 74.1754 94.7267 73.3488 95.34C72.5354 95.94 71.3954 96.24 69.9288 96.24ZM81.9209 96.24C80.7876 96.24 79.8076 96.0667 78.9809 95.72C78.1543 95.36 77.5076 94.88 77.0409 94.28L78.5409 92.92C78.9676 93.3867 79.4543 93.7467 80.0009 94C80.5609 94.2533 81.2076 94.38 81.9409 94.38C82.5809 94.38 83.0943 94.2733 83.4809 94.06C83.8676 93.8467 84.0609 93.52 84.0609 93.08C84.0609 92.7067 83.9276 92.4533 83.6609 92.32C83.4076 92.1867 83.0676 92.0867 82.6409 92.02L80.9809 91.76C80.5543 91.6933 80.1343 91.6 79.7209 91.48C79.3209 91.3467 78.9609 91.1667 78.6409 90.94C78.3343 90.7133 78.0876 90.4267 77.9009 90.08C77.7143 89.72 77.6209 89.2867 77.6209 88.78C77.6209 87.7 78.0209 86.8733 78.8209 86.3C79.6343 85.7267 80.7476 85.44 82.1609 85.44C83.1609 85.44 84.0076 85.58 84.7009 85.86C85.4076 86.14 85.9876 86.5333 86.4409 87.04L85.1009 88.52C84.8076 88.2 84.4143 87.92 83.9209 87.68C83.4409 87.4267 82.8276 87.3 82.0809 87.3C80.7743 87.3 80.1209 87.7067 80.1209 88.52C80.1209 88.8933 80.2543 89.1533 80.5209 89.3C80.7876 89.4333 81.1343 89.5333 81.5609 89.6L83.2009 89.86C83.6409 89.9267 84.0609 90.0267 84.4609 90.16C84.8743 90.28 85.2343 90.4533 85.5409 90.68C85.8609 90.9067 86.1143 91.1933 86.3009 91.54C86.4876 91.8867 86.5809 92.3133 86.5809 92.82C86.5809 93.8867 86.1676 94.7267 85.3409 95.34C84.5276 95.94 83.3876 96.24 81.9209 96.24ZM93.9531 96.24C93.1665 96.24 92.4598 96.1133 91.8331 95.86C91.2198 95.6067 90.6931 95.2467 90.2531 94.78C89.8265 94.3133 89.4931 93.7467 89.2531 93.08C89.0265 92.4133 88.9131 91.6667 88.9131 90.84C88.9131 90.0133 89.0265 89.2667 89.2531 88.6C89.4931 87.9333 89.8265 87.3667 90.2531 86.9C90.6931 86.4333 91.2198 86.0733 91.8331 85.82C92.4598 85.5667 93.1665 85.44 93.9531 85.44C94.7265 85.44 95.4265 85.5667 96.0531 85.82C96.6798 86.0733 97.2065 86.4333 97.6331 86.9C98.0731 87.3667 98.4065 87.9333 98.6331 88.6C98.8731 89.2667 98.9931 90.0133 98.9931 90.84C98.9931 91.6667 98.8731 92.4133 98.6331 93.08C98.4065 93.7467 98.0731 94.3133 97.6331 94.78C97.2065 95.2467 96.6798 95.6067 96.0531 95.86C95.4265 96.1133 94.7265 96.24 93.9531 96.24ZM93.9531 94.28C94.6865 94.28 95.2665 94.06 95.6931 93.62C96.1198 93.1667 96.3331 92.5067 96.3331 91.64V90.04C96.3331 89.1733 96.1198 88.52 95.6931 88.08C95.2665 87.6267 94.6865 87.4 93.9531 87.4C93.2198 87.4 92.6398 87.6267 92.2131 88.08C91.7865 88.52 91.5731 89.1733 91.5731 90.04V91.64C91.5731 92.5067 91.7865 93.1667 92.2131 93.62C92.6398 94.06 93.2198 94.28 93.9531 94.28ZM118.218 84.5L116.678 83.76L118.578 80.02L120.738 81.1L118.218 84.5ZM118.178 96.24C117.351 96.24 116.618 96.1133 115.978 95.86C115.338 95.6067 114.798 95.2467 114.358 94.78C113.931 94.3133 113.604 93.7533 113.378 93.1C113.151 92.4333 113.038 91.6867 113.038 90.86C113.038 90.02 113.151 89.2667 113.378 88.6C113.618 87.9333 113.951 87.3667 114.378 86.9C114.804 86.4333 115.318 86.0733 115.918 85.82C116.531 85.5667 117.218 85.44 117.978 85.44C118.724 85.44 119.398 85.5667 119.998 85.82C120.598 86.06 121.104 86.4067 121.518 86.86C121.944 87.3133 122.271 87.86 122.497 88.5C122.724 89.14 122.838 89.8467 122.838 90.62V91.46H115.598V91.72C115.598 92.4667 115.831 93.0733 116.298 93.54C116.764 93.9933 117.418 94.22 118.258 94.22C118.898 94.22 119.444 94.0933 119.898 93.84C120.364 93.5733 120.751 93.2267 121.058 92.8L122.518 94.26C122.144 94.8067 121.598 95.2733 120.878 95.66C120.171 96.0467 119.271 96.24 118.178 96.24ZM117.998 87.32C117.278 87.32 116.698 87.5467 116.258 88C115.818 88.4533 115.598 89.0533 115.598 89.8V89.94H120.278V89.76C120.278 89.0133 120.071 88.42 119.658 87.98C119.258 87.54 118.704 87.32 117.998 87.32ZM143.862 94.18H143.762C143.535 94.74 143.182 95.2267 142.702 95.64C142.235 96.04 141.582 96.24 140.742 96.24C139.729 96.24 138.902 95.9067 138.262 95.24C137.635 94.56 137.322 93.5933 137.322 92.34V85.68H139.882V91.98C139.882 93.4733 140.529 94.22 141.822 94.22C142.075 94.22 142.322 94.1867 142.562 94.12C142.815 94.0533 143.035 93.9533 143.222 93.82C143.422 93.6733 143.575 93.5 143.682 93.3C143.802 93.1 143.862 92.86 143.862 92.58V85.68H146.422V96H143.862V94.18ZM148.654 96V85.68H150.774V87.1H150.894C151.054 86.6467 151.281 86.26 151.574 85.94C151.881 85.6067 152.307 85.44 152.854 85.44C153.374 85.44 153.787 85.5933 154.094 85.9C154.401 86.1933 154.601 86.6133 154.694 87.16H154.794C154.967 86.6933 155.221 86.2933 155.554 85.96C155.901 85.6133 156.387 85.44 157.014 85.44C157.774 85.44 158.321 85.7133 158.654 86.26C158.987 86.8067 159.154 87.6133 159.154 88.68V96H157.054V88.98C157.054 88.38 156.967 87.96 156.794 87.72C156.634 87.48 156.387 87.36 156.054 87.36C155.747 87.36 155.487 87.46 155.274 87.66C155.074 87.86 154.974 88.1667 154.974 88.58V96H152.854V88.98C152.854 88.38 152.774 87.96 152.614 87.72C152.454 87.48 152.207 87.36 151.874 87.36C151.554 87.36 151.287 87.46 151.074 87.66C150.874 87.86 150.774 88.1667 150.774 88.58V96H148.654ZM173.278 85.68H175.838V87.5H175.978C176.258 86.8733 176.638 86.3733 177.118 86C177.612 85.6267 178.258 85.44 179.058 85.44C179.645 85.44 180.178 85.5533 180.658 85.78C181.152 85.9933 181.572 86.3267 181.918 86.78C182.265 87.22 182.532 87.78 182.718 88.46C182.905 89.14 182.998 89.9333 182.998 90.84C182.998 91.7467 182.905 92.54 182.718 93.22C182.532 93.9 182.265 94.4667 181.918 94.92C181.572 95.36 181.152 95.6933 180.658 95.92C180.178 96.1333 179.645 96.24 179.058 96.24C178.258 96.24 177.612 96.0533 177.118 95.68C176.638 95.3067 176.258 94.8067 175.978 94.18H175.838V100H173.278V85.68ZM177.978 94.2C178.725 94.2 179.298 93.9733 179.698 93.52C180.112 93.0667 180.318 92.4467 180.318 91.66V90.02C180.318 89.2333 180.112 88.6133 179.698 88.16C179.298 87.7067 178.725 87.48 177.978 87.48C177.392 87.48 176.885 87.6267 176.458 87.92C176.045 88.2 175.838 88.6333 175.838 89.22V92.46C175.838 93.0467 176.045 93.4867 176.458 93.78C176.885 94.06 177.392 94.2 177.978 94.2ZM193.691 96C193.064 96 192.577 95.8467 192.231 95.54C191.897 95.22 191.697 94.78 191.631 94.22H191.531C191.344 94.86 190.977 95.36 190.431 95.72C189.884 96.0667 189.211 96.24 188.411 96.24C187.371 96.24 186.544 95.9667 185.931 95.42C185.317 94.8733 185.011 94.1133 185.011 93.14C185.011 91.06 186.537 90.02 189.591 90.02H191.411V89.34C191.411 88.6867 191.251 88.1933 190.931 87.86C190.611 87.5267 190.091 87.36 189.371 87.36C188.717 87.36 188.191 87.4867 187.791 87.74C187.391 87.9933 187.051 88.32 186.771 88.72L185.311 87.48C185.631 86.9067 186.144 86.4267 186.851 86.04C187.571 85.64 188.497 85.44 189.631 85.44C190.991 85.44 192.051 85.76 192.811 86.4C193.584 87.0267 193.971 87.9667 193.971 89.22V94.08H195.191V96H193.691ZM189.271 94.48C189.884 94.48 190.391 94.34 190.791 94.06C191.204 93.7667 191.411 93.3733 191.411 92.88V91.5H189.651C188.251 91.5 187.551 91.94 187.551 92.82V93.22C187.551 93.6333 187.704 93.9467 188.011 94.16C188.317 94.3733 188.737 94.48 189.271 94.48ZM197.383 93.98H199.943V87.7H197.383V85.68H202.503V88.5H202.663C202.756 88.14 202.883 87.7933 203.043 87.46C203.216 87.1133 203.429 86.8133 203.683 86.56C203.949 86.2933 204.269 86.08 204.643 85.92C205.016 85.76 205.463 85.68 205.983 85.68H207.103V88.08H204.983C204.209 88.08 203.603 88.3067 203.163 88.76C202.723 89.2133 202.503 89.7933 202.503 90.5V93.98H206.083V96H197.383V93.98ZM217.675 96C217.048 96 216.562 95.8467 216.215 95.54C215.882 95.22 215.682 94.78 215.615 94.22H215.515C215.328 94.86 214.962 95.36 214.415 95.72C213.868 96.0667 213.195 96.24 212.395 96.24C211.355 96.24 210.528 95.9667 209.915 95.42C209.302 94.8733 208.995 94.1133 208.995 93.14C208.995 91.06 210.522 90.02 213.575 90.02H215.395V89.34C215.395 88.6867 215.235 88.1933 214.915 87.86C214.595 87.5267 214.075 87.36 213.355 87.36C212.702 87.36 212.175 87.4867 211.775 87.74C211.375 87.9933 211.035 88.32 210.755 88.72L209.295 87.48C209.615 86.9067 210.128 86.4267 210.835 86.04C211.555 85.64 212.482 85.44 213.615 85.44C214.975 85.44 216.035 85.76 216.795 86.4C217.568 87.0267 217.955 87.9667 217.955 89.22V94.08H219.175V96H217.675ZM213.255 94.48C213.868 94.48 214.375 94.34 214.775 94.06C215.188 93.7667 215.395 93.3733 215.395 92.88V91.5H213.635C212.235 91.5 211.535 91.94 211.535 92.82V93.22C211.535 93.6333 211.688 93.9467 211.995 94.16C212.302 94.3733 212.722 94.48 213.255 94.48ZM213.955 84.5L212.415 83.76L214.315 80.02L216.475 81.1L213.955 84.5ZM231.387 97.08C231.387 98.16 230.934 98.9533 230.027 99.46C229.134 99.98 227.734 100.24 225.827 100.24C224.894 100.24 224.114 100.18 223.487 100.06C222.861 99.9533 222.354 99.7933 221.967 99.58C221.594 99.3667 221.327 99.1067 221.167 98.8C221.007 98.5067 220.927 98.1733 220.927 97.8C220.927 97.2267 221.094 96.7867 221.427 96.48C221.761 96.1733 222.227 95.9467 222.827 95.8V95.64C222.427 95.5067 222.107 95.32 221.867 95.08C221.641 94.84 221.527 94.5067 221.527 94.08C221.527 93.5733 221.694 93.1933 222.027 92.94C222.374 92.6867 222.827 92.4933 223.387 92.36V92.26C222.774 91.9667 222.294 91.5533 221.947 91.02C221.601 90.4867 221.427 89.84 221.427 89.08C221.427 88.5067 221.527 88 221.727 87.56C221.941 87.1067 222.234 86.7267 222.607 86.42C222.994 86.1 223.454 85.86 223.987 85.7C224.521 85.5267 225.114 85.44 225.767 85.44C226.461 85.44 227.087 85.5333 227.647 85.72V85.28C227.647 84.88 227.774 84.5467 228.027 84.28C228.294 84.0133 228.661 83.88 229.127 83.88H230.987V85.8H228.547V86.14C229.054 86.4467 229.441 86.8467 229.707 87.34C229.987 87.82 230.127 88.4 230.127 89.08C230.127 89.6533 230.021 90.1667 229.807 90.62C229.607 91.0733 229.314 91.4533 228.927 91.76C228.554 92.0667 228.094 92.3067 227.547 92.48C227.014 92.64 226.421 92.72 225.767 92.72C225.501 92.72 225.241 92.7133 224.987 92.7C224.747 92.6733 224.514 92.6267 224.287 92.56C224.101 92.6267 223.921 92.7333 223.747 92.88C223.574 93.0267 223.487 93.22 223.487 93.46C223.487 93.78 223.641 93.98 223.947 94.06C224.254 94.1267 224.621 94.16 225.047 94.16H227.387C228.107 94.16 228.721 94.2333 229.227 94.38C229.734 94.5133 230.147 94.7133 230.467 94.98C230.787 95.2333 231.021 95.54 231.167 95.9C231.314 96.26 231.387 96.6533 231.387 97.08ZM228.987 97.26C228.987 96.9533 228.861 96.7067 228.607 96.52C228.367 96.3467 227.914 96.26 227.247 96.26H223.687C223.287 96.4867 223.087 96.82 223.087 97.26C223.087 97.62 223.234 97.92 223.527 98.16C223.834 98.4 224.347 98.52 225.067 98.52H226.727C228.234 98.52 228.987 98.1 228.987 97.26ZM225.767 91.04C226.421 91.04 226.901 90.8867 227.207 90.58C227.514 90.26 227.667 89.8467 227.667 89.34V88.82C227.667 88.3133 227.514 87.9067 227.207 87.6C226.901 87.28 226.421 87.12 225.767 87.12C225.127 87.12 224.654 87.28 224.347 87.6C224.041 87.9067 223.887 88.3133 223.887 88.82V89.34C223.887 89.8467 224.041 90.26 224.347 90.58C224.654 90.8867 225.127 91.04 225.767 91.04ZM233.359 93.98H235.919V87.7H233.359V85.68H238.479V88.5H238.639C238.733 88.14 238.859 87.7933 239.019 87.46C239.193 87.1133 239.406 86.8133 239.659 86.56C239.926 86.2933 240.246 86.08 240.619 85.92C240.993 85.76 241.439 85.68 241.959 85.68H243.079V88.08H240.959C240.186 88.08 239.579 88.3067 239.139 88.76C238.699 89.2133 238.479 89.7933 238.479 90.5V93.98H242.059V96H233.359V93.98ZM253.652 96C253.025 96 252.538 95.8467 252.192 95.54C251.858 95.22 251.658 94.78 251.592 94.22H251.492C251.305 94.86 250.938 95.36 250.392 95.72C249.845 96.0667 249.172 96.24 248.372 96.24C247.332 96.24 246.505 95.9667 245.892 95.42C245.278 94.8733 244.972 94.1133 244.972 93.14C244.972 91.06 246.498 90.02 249.552 90.02H251.372V89.34C251.372 88.6867 251.212 88.1933 250.892 87.86C250.572 87.5267 250.052 87.36 249.332 87.36C248.678 87.36 248.152 87.4867 247.752 87.74C247.352 87.9933 247.012 88.32 246.732 88.72L245.272 87.48C245.592 86.9067 246.105 86.4267 246.812 86.04C247.532 85.64 248.458 85.44 249.592 85.44C250.952 85.44 252.012 85.76 252.772 86.4C253.545 87.0267 253.932 87.9667 253.932 89.22V94.08H255.152V96H253.652ZM249.232 94.48C249.845 94.48 250.352 94.34 250.752 94.06C251.165 93.7667 251.372 93.3733 251.372 92.88V91.5H249.612C248.212 91.5 247.512 91.94 247.512 92.82V93.22C247.512 93.6333 247.665 93.9467 247.972 94.16C248.278 94.3733 248.698 94.48 249.232 94.48ZM257.344 93.98H260.504V87.7H257.144V85.68H260.504V84C260.504 83.5867 260.557 83.2133 260.664 82.88C260.784 82.5333 260.964 82.24 261.204 82C261.444 81.7467 261.744 81.5533 262.104 81.42C262.477 81.2733 262.91 81.2 263.404 81.2H266.884V83.22H263.064V85.68H266.884V87.7H263.064V93.98H266.424V96H257.344V93.98ZM273.836 96.24C273.049 96.24 272.343 96.1133 271.716 95.86C271.103 95.6067 270.576 95.2467 270.136 94.78C269.709 94.3133 269.376 93.7467 269.136 93.08C268.909 92.4133 268.796 91.6667 268.796 90.84C268.796 90.0133 268.909 89.2667 269.136 88.6C269.376 87.9333 269.709 87.3667 270.136 86.9C270.576 86.4333 271.103 86.0733 271.716 85.82C272.343 85.5667 273.049 85.44 273.836 85.44C274.609 85.44 275.309 85.5667 275.936 85.82C276.563 86.0733 277.089 86.4333 277.516 86.9C277.956 87.3667 278.289 87.9333 278.516 88.6C278.756 89.2667 278.876 90.0133 278.876 90.84C278.876 91.6667 278.756 92.4133 278.516 93.08C278.289 93.7467 277.956 94.3133 277.516 94.78C277.089 95.2467 276.563 95.6067 275.936 95.86C275.309 96.1133 274.609 96.24 273.836 96.24ZM273.836 94.28C274.569 94.28 275.149 94.06 275.576 93.62C276.003 93.1667 276.216 92.5067 276.216 91.64V90.04C276.216 89.1733 276.003 88.52 275.576 88.08C275.149 87.6267 274.569 87.4 273.836 87.4C273.103 87.4 272.523 87.6267 272.096 88.08C271.669 88.52 271.456 89.1733 271.456 90.04V91.64C271.456 92.5067 271.669 93.1667 272.096 93.62C272.523 94.06 273.103 94.28 273.836 94.28ZM285.828 96.22C285.135 96.22 284.641 96.0733 284.348 95.78C284.055 95.4867 283.908 95.1267 283.908 94.7V94.1C283.908 93.6733 284.055 93.3133 284.348 93.02C284.641 92.7267 285.135 92.58 285.828 92.58C286.521 92.58 287.015 92.7267 287.308 93.02C287.601 93.3133 287.748 93.6733 287.748 94.1V94.7C287.748 95.1267 287.601 95.4867 287.308 95.78C287.015 96.0733 286.521 96.22 285.828 96.22ZM293.52 91.1V88.7L302.12 83.98V86.42L295.84 89.82V89.98L302.12 93.38V95.82L293.52 91.1ZM305.373 98.76L311.953 80.8H314.253L307.673 98.76H305.373ZM317.185 85.68H319.745V87.5H319.885C320.165 86.8733 320.545 86.3733 321.025 86C321.518 85.6267 322.165 85.44 322.965 85.44C323.551 85.44 324.085 85.5533 324.565 85.78C325.058 85.9933 325.478 86.3267 325.825 86.78C326.171 87.22 326.438 87.78 326.625 88.46C326.811 89.14 326.905 89.9333 326.905 90.84C326.905 91.7467 326.811 92.54 326.625 93.22C326.438 93.9 326.171 94.4667 325.825 94.92C325.478 95.36 325.058 95.6933 324.565 95.92C324.085 96.1333 323.551 96.24 322.965 96.24C322.165 96.24 321.518 96.0533 321.025 95.68C320.545 95.3067 320.165 94.8067 319.885 94.18H319.745V100H317.185V85.68ZM321.885 94.2C322.631 94.2 323.205 93.9733 323.605 93.52C324.018 93.0667 324.225 92.4467 324.225 91.66V90.02C324.225 89.2333 324.018 88.6133 323.605 88.16C323.205 87.7067 322.631 87.48 321.885 87.48C321.298 87.48 320.791 87.6267 320.365 87.92C319.951 88.2 319.745 88.6333 319.745 89.22V92.46C319.745 93.0467 319.951 93.4867 320.365 93.78C320.791 94.06 321.298 94.2 321.885 94.2ZM329.497 93.38L335.777 89.98V89.82L329.497 86.42V83.98L338.097 88.7V91.1L329.497 95.82V93.38Z" fill="black"/>
<defs>
<filter id="filter0_d_768_398" x="0" y="0" width="356" height="183" filterUnits="userSpaceOnUse" color-interpolation-filters="sRGB">
<feFlood flood-opacity="0" result="BackgroundImageFix"/>
<feColorMatrix in="SourceAlpha" type="matrix" values="0 0 0 0 0 0 0 0 0 0 0 0 0 0 0 0 0 0 127 0" result="hardAlpha"/>
<feOffset dy="4"/>
<feGaussianBlur stdDeviation="2"/>
<feComposite in2="hardAlpha" operator="out"/>
<feColorMatrix type="matrix" values="0 0 0 0 0 0 0 0 0 0 0 0 0 0 0 0 0 0 0.25 0"/>
<feBlend mode="normal" in2="BackgroundImageFix" result="effect1_dropShadow_768_398"/>
<feBlend mode="normal" in="SourceGraphic" in2="effect1_dropShadow_768_398" result="shape"/>
</filter>
</defs>
</svg>
