<svg width="382" height="169" viewBox="0 0 382 169" fill="none" xmlns="http://www.w3.org/2000/svg">
<rect y="83" width="58" height="76" rx="10" fill="#1E79D8"/>
<rect x="162" y="83" width="58" height="76" rx="10" fill="#55B265"/>
<rect x="243" y="83" width="58" height="76" rx="10" fill="#9A4DD6"/>
<rect x="324" y="83" width="58" height="76" rx="10" fill="#BB5E7E"/>
<path d="M190.55 0C182.157 0 176.721 3.44914 172.454 9.6004C171.68 10.7163 171.918 12.2462 172.998 13.0676L177.534 16.5174C178.625 17.3469 180.176 17.1529 181.03 16.0799C183.664 12.7702 185.618 10.8645 189.731 10.8645C192.966 10.8645 196.967 12.9527 196.967 16.0991C196.967 18.4776 195.009 19.6991 191.816 21.4953C188.091 23.5899 183.163 26.1966 183.163 32.7177V33.75C183.163 35.148 184.292 36.2812 185.686 36.2812H193.306C194.699 36.2812 195.829 35.148 195.829 33.75V33.1411C195.829 28.6207 209 28.4325 209 16.2C209 6.98794 199.474 0 190.55 0ZM189.496 39.3883C185.48 39.3883 182.213 42.6657 182.213 46.6942C182.213 50.7226 185.48 54 189.496 54C193.512 54 196.779 50.7226 196.779 46.6941C196.779 42.6656 193.512 39.3883 189.496 39.3883Z" fill="white"/>
<path d="M100.55 0C92.1572 0 86.7215 3.44914 82.4539 9.6004C81.6797 10.7163 81.9184 12.2462 82.9983 13.0676L87.5339 16.5174C88.6245 17.3469 90.1763 17.1529 91.0302 16.0799C93.6639 12.7702 95.6175 10.8645 99.7314 10.8645C102.966 10.8645 106.967 12.9527 106.967 16.0991C106.967 18.4776 105.009 19.6991 101.816 21.4953C98.0912 23.5899 93.1626 26.1966 93.1626 32.7177V33.75C93.1626 35.148 94.2923 36.2812 95.686 36.2812H103.306C104.699 36.2812 105.829 35.148 105.829 33.75V33.1411C105.829 28.6207 119 28.4325 119 16.2C119 6.98794 109.474 0 100.55 0ZM99.4959 39.3883C95.4799 39.3883 92.2126 42.6657 92.2126 46.6942C92.2126 50.7226 95.4799 54 99.4959 54C103.512 54 106.779 50.7226 106.779 46.6941C106.779 42.6656 103.512 39.3883 99.4959 39.3883Z" fill="white"/>
<path d="M280.55 0C272.157 0 266.721 3.44914 262.454 9.6004C261.68 10.7163 261.918 12.2462 262.998 13.0676L267.534 16.5174C268.625 17.3469 270.176 17.1529 271.03 16.0799C273.664 12.7702 275.618 10.8645 279.731 10.8645C282.966 10.8645 286.967 12.9527 286.967 16.0991C286.967 18.4776 285.009 19.6991 281.816 21.4953C278.091 23.5899 273.163 26.1966 273.163 32.7177V33.75C273.163 35.148 274.292 36.2812 275.686 36.2812H283.306C284.699 36.2812 285.829 35.148 285.829 33.75V33.1411C285.829 28.6207 299 28.4325 299 16.2C299 6.98794 289.474 0 280.55 0ZM279.496 39.3883C275.48 39.3883 272.213 42.6657 272.213 46.6942C272.213 50.7226 275.48 54 279.496 54C283.512 54 286.779 50.7226 286.779 46.6941C286.779 42.6656 283.512 39.3883 279.496 39.3883Z" fill="white"/>
<rect x="81" y="83" width="58" height="76" rx="10" fill="#EE9765"/>
<path d="M134 158.375V162.125C134 162.245 133.986 162.366 133.957 162.483L132.672 167.795C132.501 168.501 131.853 169 131.107 169H122.75C122.497 169 122.247 168.942 122.021 168.83C121.795 168.718 121.599 168.556 121.45 168.357L116.307 161.482C115.785 160.784 115.944 159.806 116.662 159.299C117.38 158.791 118.385 158.946 118.907 159.644L120.179 161.343V150.562C120.179 149.7 120.898 149 121.786 149C122.673 149 123.393 149.7 123.393 150.562V158.375H123.714V156.812C123.714 155.95 124.434 155.25 125.321 155.25C126.209 155.25 126.929 155.95 126.929 156.812V158.375H127.25V157.438C127.25 156.575 127.97 155.875 128.857 155.875C129.745 155.875 130.464 156.575 130.464 157.438V158.375H130.786C130.786 157.512 131.505 156.812 132.393 156.812C133.28 156.812 134 157.512 134 158.375ZM123.714 161.5H123.393V165.25H123.714V161.5ZM127.25 161.5H126.929V165.25H127.25V161.5ZM130.786 161.5H130.464V165.25H130.786V161.5Z" fill="white"/>
</svg>
