<svg width="332" height="108" viewBox="0 0 332 108" fill="none" xmlns="http://www.w3.org/2000/svg">
<line y1="25.5" x2="332" y2="25.5" stroke="#F9DBDB" stroke-width="3"/>
<rect x="9" y="80" width="55" height="21" rx="4" fill="#9A4DD6"/>
<rect x="185" width="55" height="21" rx="4" fill="#9A4DD6"/>
<rect x="77" y="80" width="42" height="21" rx="4" fill="#EE9765"/>
<rect x="56" width="42" height="21" rx="4" fill="#EE9765"/>
<rect x="132" y="80" width="48" height="21" rx="4" fill="#BB5E7E"/>
<rect x="193" y="80" width="61" height="21" rx="4" fill="#1E79D8"/>
<rect x="111" width="61" height="21" rx="4" fill="#1E79D8"/>
<rect x="267" y="80" width="55" height="21" rx="4" fill="#55B365"/>
<path d="M168 98.4375V101.812C168 101.921 167.987 102.029 167.962 102.135L166.819 106.916C166.667 107.551 166.092 108 165.429 108H158C157.775 108 157.553 107.948 157.352 107.847C157.151 107.746 156.977 107.6 156.845 107.421L152.273 101.233C151.809 100.605 151.95 99.7258 152.588 99.269C153.227 98.8122 154.12 98.9511 154.584 99.5792L155.714 101.109V91.4062C155.714 90.6296 156.354 90 157.143 90C157.932 90 158.571 90.6296 158.571 91.4062V98.4375H158.857V97.0312C158.857 96.2546 159.497 95.625 160.286 95.625C161.075 95.625 161.714 96.2546 161.714 97.0312V98.4375H162V97.5938C162 96.8171 162.64 96.1875 163.429 96.1875C164.218 96.1875 164.857 96.8171 164.857 97.5938V98.4375H165.143C165.143 97.6609 165.782 97.0312 166.571 97.0312C167.36 97.0312 168 97.6609 168 98.4375ZM158.857 101.25H158.571V104.625H158.857V101.25ZM162 101.25H161.714V104.625H162V101.25ZM165.143 101.25H164.857V104.625H165.143V101.25Z" fill="white"/>
</svg>
