<svg width="1474" height="162" viewBox="0 0 1474 162" fill="none" xmlns="http://www.w3.org/2000/svg">
<path d="M0 5C0 2.23857 2.23858 0 5 0H1459C1467.28 0 1474 6.71573 1474 15V137C1474 150.807 1462.81 162 1449 162H35C15.6701 162 0 146.33 0 127V5Z" fill="#373538"/>
<path d="M80.72 41.16V37.32L94.48 29.768V33.672L84.432 39.112V39.368L94.48 44.808V48.712L80.72 41.16ZM119.095 44.808L129.143 39.368V39.112L119.095 33.672V29.768L132.855 37.32V41.16L119.095 48.712V44.808ZM99.9075 83.16V79.32L113.668 71.768V75.672L103.62 81.112V81.368L113.668 86.808V90.712L99.9075 83.16ZM233.484 79.352V76.056H248.716V79.352H233.484ZM233.484 86.424V83.128H248.716V86.424H233.484ZM713.908 86.808L723.956 81.368V81.112L713.908 75.672V71.768L727.668 79.32V83.16L713.908 90.712V86.808ZM963.345 83.16V79.32L977.105 71.768V75.672L967.057 81.112V81.368L977.105 86.808V90.712L963.345 83.16ZM982.309 95.416L992.837 66.68H996.517L985.989 95.416H982.309ZM1020.91 86.808L1030.96 81.368V81.112L1020.91 75.672V71.768L1034.67 79.32V83.16L1020.91 90.712V86.808ZM80.72 125.16V121.32L94.48 113.768V117.672L84.432 123.112V123.368L94.48 128.808V132.712L80.72 125.16ZM99.6835 137.416L110.212 108.68H113.892L103.364 137.416H99.6835ZM138.283 128.808L148.331 123.368V123.112L138.283 117.672V113.768L152.043 121.32V125.16L138.283 132.712V128.808Z" fill="#CBC2C2"/>
<path d="M99.3955 32.488H103.492V35.4H103.716C104.164 34.3973 104.772 33.5973 105.54 33C106.329 32.4027 107.364 32.104 108.644 32.104C109.582 32.104 110.436 32.2853 111.204 32.648C111.993 32.9893 112.665 33.5227 113.22 34.248C113.774 34.952 114.201 35.848 114.5 36.936C114.798 38.024 114.948 39.2933 114.948 40.744C114.948 42.1947 114.798 43.464 114.5 44.552C114.201 45.64 113.774 46.5467 113.22 47.272C112.665 47.976 111.993 48.5093 111.204 48.872C110.436 49.2133 109.582 49.384 108.644 49.384C107.364 49.384 106.329 49.0853 105.54 48.488C104.772 47.8907 104.164 47.0907 103.716 46.088H103.492V55.4H99.3955V32.488ZM106.916 46.12C108.11 46.12 109.028 45.7573 109.668 45.032C110.329 44.3067 110.66 43.3147 110.66 42.056V39.432C110.66 38.1733 110.329 37.1813 109.668 36.456C109.028 35.7307 108.11 35.368 106.916 35.368C105.977 35.368 105.166 35.6027 104.484 36.072C103.822 36.52 103.492 37.2133 103.492 38.152V43.336C103.492 44.2747 103.822 44.9787 104.484 45.448C105.166 45.896 105.977 46.12 106.916 46.12ZM132.055 91C131.052 91 130.274 90.7547 129.719 90.264C129.186 89.752 128.866 89.048 128.759 88.152H128.599C128.3 89.176 127.714 89.976 126.839 90.552C125.964 91.1067 124.887 91.384 123.607 91.384C121.943 91.384 120.62 90.9467 119.639 90.072C118.658 89.1973 118.167 87.9813 118.167 86.424C118.167 83.096 120.61 81.432 125.495 81.432H128.407V80.344C128.407 79.2987 128.151 78.5093 127.639 77.976C127.127 77.4427 126.295 77.176 125.143 77.176C124.098 77.176 123.255 77.3787 122.615 77.784C121.975 78.1893 121.431 78.712 120.983 79.352L118.647 77.368C119.159 76.4507 119.98 75.6827 121.111 75.064C122.263 74.424 123.746 74.104 125.559 74.104C127.735 74.104 129.431 74.616 130.647 75.64C131.884 76.6427 132.503 78.1467 132.503 80.152V87.928H134.455V91H132.055ZM124.983 88.568C125.964 88.568 126.775 88.344 127.415 87.896C128.076 87.4267 128.407 86.7973 128.407 86.008V83.8H125.591C123.351 83.8 122.231 84.504 122.231 85.912V86.552C122.231 87.2133 122.476 87.7147 122.967 88.056C123.458 88.3973 124.13 88.568 124.983 88.568ZM1014.68 91C1013.68 91 1012.9 90.7547 1012.34 90.264C1011.81 89.752 1011.49 89.048 1011.38 88.152H1011.22C1010.93 89.176 1010.34 89.976 1009.46 90.552C1008.59 91.1067 1007.51 91.384 1006.23 91.384C1004.57 91.384 1003.25 90.9467 1002.26 90.072C1001.28 89.1973 1000.79 87.9813 1000.79 86.424C1000.79 83.096 1003.23 81.432 1008.12 81.432H1011.03V80.344C1011.03 79.2987 1010.78 78.5093 1010.26 77.976C1009.75 77.4427 1008.92 77.176 1007.77 77.176C1006.72 77.176 1005.88 77.3787 1005.24 77.784C1004.6 78.1893 1004.06 78.712 1003.61 79.352L1001.27 77.368C1001.78 76.4507 1002.61 75.6827 1003.74 75.064C1004.89 74.424 1006.37 74.104 1008.18 74.104C1010.36 74.104 1012.06 74.616 1013.27 75.64C1014.51 76.6427 1015.13 78.1467 1015.13 80.152V87.928H1017.08V91H1014.68ZM1007.61 88.568C1008.59 88.568 1009.4 88.344 1010.04 87.896C1010.7 87.4267 1011.03 86.7973 1011.03 86.008V83.8H1008.22C1005.98 83.8 1004.86 84.504 1004.86 85.912V86.552C1004.86 87.2133 1005.1 87.7147 1005.59 88.056C1006.08 88.3973 1006.75 88.568 1007.61 88.568ZM118.583 116.488H122.679V119.4H122.903C123.351 118.397 123.959 117.597 124.727 117C125.516 116.403 126.551 116.104 127.831 116.104C128.77 116.104 129.623 116.285 130.391 116.648C131.18 116.989 131.852 117.523 132.407 118.248C132.962 118.952 133.388 119.848 133.687 120.936C133.986 122.024 134.135 123.293 134.135 124.744C134.135 126.195 133.986 127.464 133.687 128.552C133.388 129.64 132.962 130.547 132.407 131.272C131.852 131.976 131.18 132.509 130.391 132.872C129.623 133.213 128.77 133.384 127.831 133.384C126.551 133.384 125.516 133.085 124.727 132.488C123.959 131.891 123.351 131.091 122.903 130.088H122.679V139.4H118.583V116.488ZM126.103 130.12C127.298 130.12 128.215 129.757 128.855 129.032C129.516 128.307 129.847 127.315 129.847 126.056V123.432C129.847 122.173 129.516 121.181 128.855 120.456C128.215 119.731 127.298 119.368 126.103 119.368C125.164 119.368 124.354 119.603 123.671 120.072C123.01 120.52 122.679 121.213 122.679 122.152V127.336C122.679 128.275 123.01 128.979 123.671 129.448C124.354 129.896 125.164 130.12 126.103 130.12Z" fill="#438ADD"/>
<path d="M138.123 49V26.664H146.603C148.779 26.664 150.443 27.2827 151.595 28.52C152.747 29.7573 153.323 31.4427 153.323 33.576C153.323 35.7093 152.747 37.3947 151.595 38.632C150.443 39.8693 148.779 40.488 146.603 40.488H142.315V49H138.123ZM142.315 37.064H145.739C146.869 37.064 147.68 36.84 148.171 36.392C148.661 35.9227 148.907 35.1867 148.907 34.184V32.968C148.907 31.9653 148.661 31.24 148.171 30.792C147.68 30.3227 146.869 30.088 145.739 30.088H142.315V37.064ZM170.43 49C169.427 49 168.649 48.7547 168.094 48.264C167.561 47.752 167.241 47.048 167.134 46.152H166.974C166.675 47.176 166.089 47.976 165.214 48.552C164.339 49.1067 163.262 49.384 161.982 49.384C160.318 49.384 158.995 48.9467 158.014 48.072C157.033 47.1973 156.542 45.9813 156.542 44.424C156.542 41.096 158.985 39.432 163.87 39.432H166.782V38.344C166.782 37.2987 166.526 36.5093 166.014 35.976C165.502 35.4427 164.67 35.176 163.518 35.176C162.473 35.176 161.63 35.3787 160.99 35.784C160.35 36.1893 159.806 36.712 159.358 37.352L157.022 35.368C157.534 34.4507 158.355 33.6827 159.486 33.064C160.638 32.424 162.121 32.104 163.934 32.104C166.11 32.104 167.806 32.616 169.022 33.64C170.259 34.6427 170.878 36.1467 170.878 38.152V45.928H172.83V49H170.43ZM163.358 46.568C164.339 46.568 165.15 46.344 165.79 45.896C166.451 45.4267 166.782 44.7973 166.782 44.008V41.8H163.966C161.726 41.8 160.606 42.504 160.606 43.912V44.552C160.606 45.2133 160.851 45.7147 161.342 46.056C161.833 46.3973 162.505 46.568 163.358 46.568ZM176.338 45.768H180.434V35.72H176.338V32.488H184.53V37H184.786C184.935 36.424 185.138 35.8693 185.394 35.336C185.671 34.7813 186.012 34.3013 186.418 33.896C186.844 33.4693 187.356 33.128 187.954 32.872C188.551 32.616 189.266 32.488 190.097 32.488H191.89V36.328H188.498C187.26 36.328 186.29 36.6907 185.586 37.416C184.882 38.1413 184.53 39.0693 184.53 40.2V45.768H190.258V49H176.338V45.768ZM208.805 49C207.802 49 207.024 48.7547 206.469 48.264C205.936 47.752 205.616 47.048 205.509 46.152H205.349C205.05 47.176 204.464 47.976 203.589 48.552C202.714 49.1067 201.637 49.384 200.357 49.384C198.693 49.384 197.37 48.9467 196.389 48.072C195.408 47.1973 194.917 45.9813 194.917 44.424C194.917 41.096 197.36 39.432 202.245 39.432H205.157V38.344C205.157 37.2987 204.901 36.5093 204.389 35.976C203.877 35.4427 203.045 35.176 201.893 35.176C200.848 35.176 200.005 35.3787 199.365 35.784C198.725 36.1893 198.181 36.712 197.733 37.352L195.397 35.368C195.909 34.4507 196.73 33.6827 197.861 33.064C199.013 32.424 200.496 32.104 202.309 32.104C204.485 32.104 206.181 32.616 207.397 33.64C208.634 34.6427 209.253 36.1467 209.253 38.152V45.928H211.205V49H208.805ZM201.733 46.568C202.714 46.568 203.525 46.344 204.165 45.896C204.826 45.4267 205.157 44.7973 205.157 44.008V41.8H202.341C200.101 41.8 198.981 42.504 198.981 43.912V44.552C198.981 45.2133 199.226 45.7147 199.717 46.056C200.208 46.3973 200.88 46.568 201.733 46.568ZM247.18 49C246.177 49 245.399 48.7547 244.844 48.264C244.311 47.752 243.991 47.048 243.884 46.152H243.724C243.425 47.176 242.839 47.976 241.964 48.552C241.089 49.1067 240.012 49.384 238.732 49.384C237.068 49.384 235.745 48.9467 234.764 48.072C233.783 47.1973 233.292 45.9813 233.292 44.424C233.292 41.096 235.735 39.432 240.62 39.432H243.532V38.344C243.532 37.2987 243.276 36.5093 242.764 35.976C242.252 35.4427 241.42 35.176 240.268 35.176C239.223 35.176 238.38 35.3787 237.74 35.784C237.1 36.1893 236.556 36.712 236.108 37.352L233.772 35.368C234.284 34.4507 235.105 33.6827 236.236 33.064C237.388 32.424 238.871 32.104 240.684 32.104C242.86 32.104 244.556 32.616 245.772 33.64C247.009 34.6427 247.628 36.1467 247.628 38.152V45.928H249.58V49H247.18ZM240.108 46.568C241.089 46.568 241.9 46.344 242.54 45.896C243.201 45.4267 243.532 44.7973 243.532 44.008V41.8H240.716C238.476 41.8 237.356 42.504 237.356 43.912V44.552C237.356 45.2133 237.601 45.7147 238.092 46.056C238.583 46.3973 239.255 46.568 240.108 46.568ZM260.928 49.384C259.669 49.384 258.538 49.1813 257.536 48.776C256.533 48.3707 255.68 47.7947 254.976 47.048C254.293 46.3013 253.76 45.3947 253.376 44.328C253.013 43.2613 252.832 42.0667 252.832 40.744C252.832 39.4213 253.013 38.2267 253.376 37.16C253.76 36.0933 254.293 35.1867 254.976 34.44C255.68 33.6933 256.522 33.1173 257.504 32.712C258.506 32.3067 259.637 32.104 260.896 32.104C262.645 32.104 264.053 32.4667 265.12 33.192C266.186 33.9173 266.997 34.8773 267.552 36.072L264.384 37.8C264.085 37.096 263.658 36.5307 263.104 36.104C262.57 35.656 261.834 35.432 260.896 35.432C259.68 35.432 258.741 35.784 258.08 36.488C257.44 37.192 257.12 38.152 257.12 39.368V42.12C257.12 43.3147 257.44 44.2747 258.08 45C258.741 45.704 259.701 46.056 260.96 46.056C261.941 46.056 262.72 45.832 263.296 45.384C263.893 44.936 264.373 44.3387 264.736 43.592L267.808 45.416C267.253 46.5893 266.41 47.5493 265.28 48.296C264.17 49.0213 262.72 49.384 260.928 49.384ZM279.859 49.384C278.536 49.384 277.363 49.1813 276.339 48.776C275.315 48.3707 274.451 47.7947 273.747 47.048C273.064 46.3013 272.542 45.4053 272.179 44.36C271.816 43.2933 271.635 42.0987 271.635 40.776C271.635 39.432 271.816 38.2267 272.179 37.16C272.563 36.0933 273.096 35.1867 273.779 34.44C274.462 33.6933 275.283 33.1173 276.243 32.712C277.224 32.3067 278.323 32.104 279.539 32.104C280.734 32.104 281.811 32.3067 282.771 32.712C283.731 33.096 284.542 33.6507 285.203 34.376C285.886 35.1013 286.408 35.976 286.771 37C287.134 38.024 287.315 39.1547 287.315 40.392V41.736H275.731V42.152C275.731 43.3467 276.104 44.3173 276.851 45.064C277.598 45.7893 278.643 46.152 279.987 46.152C281.011 46.152 281.886 45.9493 282.611 45.544C283.358 45.1173 283.976 44.5627 284.467 43.88L286.803 46.216C286.206 47.0907 285.331 47.8373 284.179 48.456C283.048 49.0747 281.608 49.384 279.859 49.384ZM279.571 35.112C278.419 35.112 277.491 35.4747 276.787 36.2C276.083 36.9253 275.731 37.8853 275.731 39.08V39.304H283.219V39.016C283.219 37.8213 282.888 36.872 282.227 36.168C281.587 35.464 280.702 35.112 279.571 35.112ZM298.599 49.384C296.785 49.384 295.217 49.1067 293.895 48.552C292.572 47.976 291.537 47.208 290.791 46.248L293.191 44.072C293.873 44.8187 294.652 45.3947 295.527 45.8C296.423 46.2053 297.457 46.408 298.631 46.408C299.655 46.408 300.476 46.2373 301.095 45.896C301.713 45.5547 302.023 45.032 302.023 44.328C302.023 43.7307 301.809 43.3253 301.383 43.112C300.977 42.8987 300.433 42.7387 299.751 42.632L297.095 42.216C296.412 42.1093 295.74 41.96 295.079 41.768C294.439 41.5547 293.863 41.2667 293.351 40.904C292.86 40.5413 292.465 40.0827 292.167 39.528C291.868 38.952 291.719 38.2587 291.719 37.448C291.719 35.72 292.359 34.3973 293.639 33.48C294.94 32.5627 296.721 32.104 298.983 32.104C300.583 32.104 301.937 32.328 303.047 32.776C304.177 33.224 305.105 33.8533 305.831 34.664L303.687 37.032C303.217 36.52 302.588 36.072 301.799 35.688C301.031 35.2827 300.049 35.08 298.855 35.08C296.764 35.08 295.719 35.7307 295.719 37.032C295.719 37.6293 295.932 38.0453 296.359 38.28C296.785 38.4933 297.34 38.6533 298.023 38.76L300.647 39.176C301.351 39.2827 302.023 39.4427 302.663 39.656C303.324 39.848 303.9 40.1253 304.391 40.488C304.903 40.8507 305.308 41.3093 305.607 41.864C305.905 42.4187 306.055 43.1013 306.055 43.912C306.055 45.6187 305.393 46.9627 304.071 47.944C302.769 48.904 300.945 49.384 298.599 49.384ZM317.786 49.384C315.973 49.384 314.405 49.1067 313.082 48.552C311.759 47.976 310.725 47.208 309.978 46.248L312.378 44.072C313.061 44.8187 313.839 45.3947 314.714 45.8C315.61 46.2053 316.645 46.408 317.818 46.408C318.842 46.408 319.663 46.2373 320.282 45.896C320.901 45.5547 321.21 45.032 321.21 44.328C321.21 43.7307 320.997 43.3253 320.57 43.112C320.165 42.8987 319.621 42.7387 318.938 42.632L316.282 42.216C315.599 42.1093 314.927 41.96 314.266 41.768C313.626 41.5547 313.05 41.2667 312.538 40.904C312.047 40.5413 311.653 40.0827 311.354 39.528C311.055 38.952 310.906 38.2587 310.906 37.448C310.906 35.72 311.546 34.3973 312.826 33.48C314.127 32.5627 315.909 32.104 318.17 32.104C319.77 32.104 321.125 32.328 322.234 32.776C323.365 33.224 324.293 33.8533 325.018 34.664L322.874 37.032C322.405 36.52 321.775 36.072 320.986 35.688C320.218 35.2827 319.237 35.08 318.042 35.08C315.951 35.08 314.906 35.7307 314.906 37.032C314.906 37.6293 315.119 38.0453 315.546 38.28C315.973 38.4933 316.527 38.6533 317.21 38.76L319.834 39.176C320.538 39.2827 321.21 39.4427 321.85 39.656C322.511 39.848 323.087 40.1253 323.578 40.488C324.09 40.8507 324.495 41.3093 324.794 41.864C325.093 42.4187 325.242 43.1013 325.242 43.912C325.242 45.6187 324.581 46.9627 323.258 47.944C321.957 48.904 320.133 49.384 317.786 49.384ZM343.118 49C342.115 49 341.336 48.7547 340.782 48.264C340.248 47.752 339.928 47.048 339.822 46.152H339.662C339.363 47.176 338.776 47.976 337.902 48.552C337.027 49.1067 335.95 49.384 334.67 49.384C333.006 49.384 331.683 48.9467 330.702 48.072C329.72 47.1973 329.23 45.9813 329.23 44.424C329.23 41.096 331.672 39.432 336.558 39.432H339.47V38.344C339.47 37.2987 339.214 36.5093 338.702 35.976C338.19 35.4427 337.358 35.176 336.206 35.176C335.16 35.176 334.318 35.3787 333.678 35.784C333.038 36.1893 332.494 36.712 332.046 37.352L329.71 35.368C330.222 34.4507 331.043 33.6827 332.174 33.064C333.326 32.424 334.808 32.104 336.622 32.104C338.798 32.104 340.494 32.616 341.71 33.64C342.947 34.6427 343.566 36.1467 343.566 38.152V45.928H345.517V49H343.118ZM336.046 46.568C337.027 46.568 337.838 46.344 338.478 45.896C339.139 45.4267 339.47 44.7973 339.47 44.008V41.8H336.654C334.414 41.8 333.294 42.504 333.294 43.912V44.552C333.294 45.2133 333.539 45.7147 334.03 46.056C334.52 46.3973 335.192 46.568 336.046 46.568ZM349.025 45.768H353.121V35.72H349.025V32.488H357.217V37H357.473C357.622 36.424 357.825 35.8693 358.081 35.336C358.358 34.7813 358.7 34.3013 359.105 33.896C359.532 33.4693 360.044 33.128 360.641 32.872C361.238 32.616 361.953 32.488 362.785 32.488H364.577V36.328H361.185C359.948 36.328 358.977 36.6907 358.273 37.416C357.569 38.1413 357.217 39.0693 357.217 40.2V45.768H362.945V49H349.025V45.768ZM394.6 49.384C393.341 49.384 392.211 49.1813 391.208 48.776C390.227 48.3707 389.384 47.7947 388.68 47.048C387.997 46.3013 387.464 45.3947 387.08 44.328C386.717 43.2613 386.536 42.0667 386.536 40.744C386.536 39.4213 386.717 38.2267 387.08 37.16C387.464 36.0933 387.997 35.1867 388.68 34.44C389.384 33.6933 390.227 33.1173 391.208 32.712C392.211 32.3067 393.341 32.104 394.6 32.104C395.837 32.104 396.957 32.3067 397.96 32.712C398.963 33.1173 399.805 33.6933 400.488 34.44C401.192 35.1867 401.725 36.0933 402.088 37.16C402.472 38.2267 402.664 39.4213 402.664 40.744C402.664 42.0667 402.472 43.2613 402.088 44.328C401.725 45.3947 401.192 46.3013 400.488 47.048C399.805 47.7947 398.963 48.3707 397.96 48.776C396.957 49.1813 395.837 49.384 394.6 49.384ZM394.6 46.248C395.773 46.248 396.701 45.896 397.384 45.192C398.067 44.4667 398.408 43.4107 398.408 42.024V39.464C398.408 38.0773 398.067 37.032 397.384 36.328C396.701 35.6027 395.773 35.24 394.6 35.24C393.427 35.24 392.499 35.6027 391.816 36.328C391.133 37.032 390.792 38.0773 390.792 39.464V42.024C390.792 43.4107 391.133 44.4667 391.816 45.192C392.499 45.896 393.427 46.248 394.6 46.248ZM436.847 45.896H436.591C436.399 46.344 436.164 46.7813 435.887 47.208C435.61 47.6347 435.268 48.008 434.863 48.328C434.458 48.648 433.978 48.904 433.423 49.096C432.89 49.288 432.271 49.384 431.567 49.384C429.306 49.384 427.588 48.392 426.415 46.408C425.263 44.4027 424.687 41.5973 424.687 37.992C424.687 34.1947 425.37 31.2933 426.735 29.288C428.1 27.2827 430.202 26.28 433.039 26.28C434.148 26.28 435.119 26.4293 435.951 26.728C436.804 27.0267 437.53 27.4427 438.127 27.976C438.746 28.5093 439.247 29.1493 439.631 29.896C440.036 30.6213 440.356 31.4107 440.591 32.264L436.751 33.352C436.602 32.8827 436.431 32.424 436.239 31.976C436.068 31.528 435.834 31.144 435.535 30.824C435.258 30.4827 434.916 30.216 434.511 30.024C434.106 29.8107 433.604 29.704 433.007 29.704C431.62 29.704 430.628 30.2587 430.031 31.368C429.434 32.4773 429.135 33.992 429.135 35.912V39.496C429.135 40.456 429.199 41.3413 429.327 42.152C429.476 42.9413 429.711 43.624 430.031 44.2C430.351 44.776 430.767 45.224 431.279 45.544C431.791 45.8427 432.431 45.992 433.199 45.992C434.394 45.992 435.3 45.64 435.919 44.936C436.538 44.2107 436.847 43.2933 436.847 42.184V40.36H432.783V37.32H440.591V49H436.847V45.896ZM452.163 49.384C450.904 49.384 449.773 49.1813 448.771 48.776C447.789 48.3707 446.947 47.7947 446.243 47.048C445.56 46.3013 445.027 45.3947 444.643 44.328C444.28 43.2613 444.099 42.0667 444.099 40.744C444.099 39.4213 444.28 38.2267 444.643 37.16C445.027 36.0933 445.56 35.1867 446.243 34.44C446.947 33.6933 447.789 33.1173 448.771 32.712C449.773 32.3067 450.904 32.104 452.163 32.104C453.4 32.104 454.52 32.3067 455.523 32.712C456.525 33.1173 457.368 33.6933 458.051 34.44C458.755 35.1867 459.288 36.0933 459.651 37.16C460.035 38.2267 460.227 39.4213 460.227 40.744C460.227 42.0667 460.035 43.2613 459.651 44.328C459.288 45.3947 458.755 46.3013 458.051 47.048C457.368 47.7947 456.525 48.3707 455.523 48.776C454.52 49.1813 453.4 49.384 452.163 49.384ZM452.163 46.248C453.336 46.248 454.264 45.896 454.947 45.192C455.629 44.4667 455.971 43.4107 455.971 42.024V39.464C455.971 38.0773 455.629 37.032 454.947 36.328C454.264 35.6027 453.336 35.24 452.163 35.24C450.989 35.24 450.061 35.6027 449.379 36.328C448.696 37.032 448.355 38.0773 448.355 39.464V42.024C448.355 43.4107 448.696 44.4667 449.379 45.192C450.061 45.896 450.989 46.248 452.163 46.248ZM471.35 49.384C470.091 49.384 468.961 49.1813 467.958 48.776C466.977 48.3707 466.134 47.7947 465.43 47.048C464.747 46.3013 464.214 45.3947 463.83 44.328C463.467 43.2613 463.286 42.0667 463.286 40.744C463.286 39.4213 463.467 38.2267 463.83 37.16C464.214 36.0933 464.747 35.1867 465.43 34.44C466.134 33.6933 466.977 33.1173 467.958 32.712C468.961 32.3067 470.091 32.104 471.35 32.104C472.587 32.104 473.707 32.3067 474.71 32.712C475.713 33.1173 476.555 33.6933 477.238 34.44C477.942 35.1867 478.475 36.0933 478.838 37.16C479.222 38.2267 479.414 39.4213 479.414 40.744C479.414 42.0667 479.222 43.2613 478.838 44.328C478.475 45.3947 477.942 46.3013 477.238 47.048C476.555 47.7947 475.713 48.3707 474.71 48.776C473.707 49.1813 472.587 49.384 471.35 49.384ZM471.35 46.248C472.523 46.248 473.451 45.896 474.134 45.192C474.817 44.4667 475.158 43.4107 475.158 42.024V39.464C475.158 38.0773 474.817 37.032 474.134 36.328C473.451 35.6027 472.523 35.24 471.35 35.24C470.177 35.24 469.249 35.6027 468.566 36.328C467.883 37.032 467.542 38.0773 467.542 39.464V42.024C467.542 43.4107 467.883 44.4667 468.566 45.192C469.249 45.896 470.177 46.248 471.35 46.248ZM499.37 50.728C499.37 52.456 498.644 53.7253 497.194 54.536C495.764 55.368 493.524 55.784 490.474 55.784C488.98 55.784 487.732 55.688 486.73 55.496C485.727 55.3253 484.916 55.0693 484.298 54.728C483.7 54.3867 483.274 53.9707 483.018 53.48C482.762 53.0107 482.634 52.4773 482.634 51.88C482.634 50.9627 482.9 50.2587 483.434 49.768C483.967 49.2773 484.714 48.9147 485.674 48.68V48.424C485.034 48.2107 484.522 47.912 484.138 47.528C483.775 47.144 483.594 46.6107 483.594 45.928C483.594 45.1173 483.86 44.5093 484.394 44.104C484.948 43.6987 485.674 43.3893 486.57 43.176V43.016C485.588 42.5467 484.82 41.8853 484.266 41.032C483.711 40.1787 483.434 39.144 483.434 37.928C483.434 37.0107 483.594 36.2 483.914 35.496C484.255 34.7707 484.724 34.1627 485.322 33.672C485.94 33.16 486.676 32.776 487.53 32.52C488.383 32.2427 489.332 32.104 490.378 32.104C491.487 32.104 492.49 32.2533 493.386 32.552V31.848C493.386 31.208 493.588 30.6747 493.994 30.248C494.42 29.8213 495.007 29.608 495.754 29.608H498.73V32.68H494.826V33.224C495.636 33.7147 496.255 34.3547 496.682 35.144C497.13 35.912 497.354 36.84 497.354 37.928C497.354 38.8453 497.183 39.6667 496.842 40.392C496.522 41.1173 496.052 41.7253 495.434 42.216C494.836 42.7067 494.1 43.0907 493.226 43.368C492.372 43.624 491.423 43.752 490.378 43.752C489.951 43.752 489.535 43.7413 489.13 43.72C488.746 43.6773 488.372 43.6027 488.01 43.496C487.711 43.6027 487.423 43.7733 487.146 44.008C486.868 44.2427 486.73 44.552 486.73 44.936C486.73 45.448 486.975 45.768 487.466 45.896C487.956 46.0027 488.543 46.056 489.226 46.056H492.97C494.122 46.056 495.103 46.1733 495.914 46.408C496.724 46.6213 497.386 46.9413 497.898 47.368C498.41 47.7733 498.783 48.264 499.017 48.84C499.252 49.416 499.37 50.0453 499.37 50.728ZM495.53 51.016C495.53 50.5253 495.327 50.1307 494.922 49.832C494.538 49.5547 493.812 49.416 492.746 49.416H487.05C486.41 49.7787 486.09 50.312 486.09 51.016C486.09 51.592 486.324 52.072 486.794 52.456C487.284 52.84 488.106 53.032 489.258 53.032H491.914C494.324 53.032 495.53 52.36 495.53 51.016ZM490.378 41.064C491.423 41.064 492.191 40.8187 492.682 40.328C493.172 39.816 493.418 39.1547 493.418 38.344V37.512C493.418 36.7013 493.172 36.0507 492.682 35.56C492.191 35.048 491.423 34.792 490.378 34.792C489.354 34.792 488.596 35.048 488.106 35.56C487.615 36.0507 487.37 36.7013 487.37 37.512V38.344C487.37 39.1547 487.615 39.816 488.106 40.328C488.596 40.8187 489.354 41.064 490.378 41.064ZM502.429 45.768H507.677V28.552H502.429V25.32H511.773V45.768H517.053V49H502.429V45.768ZM529.297 49.384C527.974 49.384 526.801 49.1813 525.777 48.776C524.753 48.3707 523.889 47.7947 523.185 47.048C522.502 46.3013 521.979 45.4053 521.617 44.36C521.254 43.2933 521.073 42.0987 521.073 40.776C521.073 39.432 521.254 38.2267 521.617 37.16C522.001 36.0933 522.534 35.1867 523.217 34.44C523.899 33.6933 524.721 33.1173 525.681 32.712C526.662 32.3067 527.761 32.104 528.977 32.104C530.171 32.104 531.249 32.3067 532.209 32.712C533.169 33.096 533.979 33.6507 534.641 34.376C535.323 35.1013 535.846 35.976 536.208 37C536.571 38.024 536.753 39.1547 536.753 40.392V41.736H525.169V42.152C525.169 43.3467 525.542 44.3173 526.289 45.064C527.035 45.7893 528.081 46.152 529.425 46.152C530.449 46.152 531.323 45.9493 532.049 45.544C532.795 45.1173 533.414 44.5627 533.905 43.88L536.241 46.216C535.643 47.0907 534.769 47.8373 533.617 48.456C532.486 49.0747 531.046 49.384 529.297 49.384ZM529.009 35.112C527.857 35.112 526.929 35.4747 526.225 36.2C525.521 36.9253 525.169 37.8853 525.169 39.08V39.304H532.657V39.016C532.657 37.8213 532.326 36.872 531.665 36.168C531.025 35.464 530.139 35.112 529.009 35.112ZM546.052 43.784H551.556L547.364 53.736H544.26L546.052 43.784ZM740.615 91.384C739.356 91.384 738.226 91.1813 737.223 90.776C736.22 90.3707 735.367 89.7947 734.663 89.048C733.98 88.3013 733.447 87.3947 733.063 86.328C732.7 85.2613 732.519 84.0667 732.519 82.744C732.519 81.4213 732.7 80.2267 733.063 79.16C733.447 78.0933 733.98 77.1867 734.663 76.44C735.367 75.6933 736.21 75.1173 737.191 74.712C738.194 74.3067 739.324 74.104 740.583 74.104C742.332 74.104 743.74 74.4667 744.807 75.192C745.874 75.9173 746.684 76.8773 747.239 78.072L744.071 79.8C743.772 79.096 743.346 78.5307 742.791 78.104C742.258 77.656 741.522 77.432 740.583 77.432C739.367 77.432 738.428 77.784 737.767 78.488C737.127 79.192 736.807 80.152 736.807 81.368V84.12C736.807 85.3147 737.127 86.2747 737.767 87C738.428 87.704 739.388 88.056 740.647 88.056C741.628 88.056 742.407 87.832 742.983 87.384C743.58 86.936 744.06 86.3387 744.423 85.592L747.495 87.416C746.94 88.5893 746.098 89.5493 744.967 90.296C743.858 91.0213 742.407 91.384 740.615 91.384ZM751.867 87.768H757.115V70.552H751.867V67.32H761.211V87.768H766.491V91H751.867V87.768ZM779.374 71.928C778.414 71.928 777.731 71.7253 777.326 71.32C776.942 70.9147 776.75 70.424 776.75 69.848V69.08C776.75 68.504 776.942 68.0133 777.326 67.608C777.731 67.2027 778.414 67 779.374 67C780.334 67 781.006 67.2027 781.39 67.608C781.795 68.0133 781.998 68.504 781.998 69.08V69.848C781.998 70.424 781.795 70.9147 781.39 71.32C781.006 71.7253 780.334 71.928 779.374 71.928ZM771.886 87.768H777.326V77.72H771.886V74.488H781.422V87.768H786.478V91H771.886V87.768ZM800.834 88.088H800.61C800.162 89.0907 799.543 89.8907 798.754 90.488C797.986 91.0853 796.962 91.384 795.682 91.384C794.743 91.384 793.879 91.2133 793.09 90.872C792.322 90.5093 791.66 89.976 791.106 89.272C790.551 88.5467 790.124 87.64 789.826 86.552C789.527 85.464 789.378 84.1947 789.378 82.744C789.378 79.8427 789.954 77.6773 791.106 76.248C792.258 74.8187 793.783 74.104 795.682 74.104C796.962 74.104 797.986 74.4027 798.754 75C799.543 75.5973 800.162 76.3973 800.61 77.4H800.834V74.488H804.93V97.4H800.834V88.088ZM797.41 88.12C797.879 88.12 798.316 88.0667 798.722 87.96C799.148 87.832 799.511 87.6613 799.81 87.448C800.13 87.2133 800.375 86.9253 800.546 86.584C800.738 86.2213 800.834 85.8053 800.834 85.336V80.152C800.834 79.6827 800.738 79.2773 800.546 78.936C800.375 78.5733 800.13 78.2853 799.81 78.072C799.511 77.8373 799.148 77.6667 798.722 77.56C798.316 77.432 797.879 77.368 797.41 77.368C796.215 77.368 795.287 77.7307 794.626 78.456C793.986 79.1813 793.666 80.1733 793.666 81.432V84.056C793.666 85.3147 793.986 86.3067 794.626 87.032C795.287 87.7573 796.215 88.12 797.41 88.12ZM819.829 88.088H819.669C819.306 88.984 818.741 89.7627 817.973 90.424C817.226 91.064 816.181 91.384 814.837 91.384C813.216 91.384 811.893 90.8507 810.869 89.784C809.866 88.696 809.365 87.1493 809.365 85.144V74.488H813.461V84.568C813.461 86.9573 814.496 88.152 816.565 88.152C816.97 88.152 817.365 88.0987 817.749 87.992C818.154 87.8853 818.506 87.7253 818.805 87.512C819.125 87.2773 819.37 87 819.541 86.68C819.733 86.36 819.829 85.976 819.829 85.528V74.488H823.925V91H819.829V88.088ZM836.297 91.384C834.974 91.384 833.801 91.1813 832.777 90.776C831.753 90.3707 830.889 89.7947 830.185 89.048C829.502 88.3013 828.979 87.4053 828.617 86.36C828.254 85.2933 828.073 84.0987 828.073 82.776C828.073 81.432 828.254 80.2267 828.617 79.16C829.001 78.0933 829.534 77.1867 830.217 76.44C830.899 75.6933 831.721 75.1173 832.681 74.712C833.662 74.3067 834.761 74.104 835.977 74.104C837.171 74.104 838.249 74.3067 839.209 74.712C840.169 75.096 840.979 75.6507 841.641 76.376C842.323 77.1013 842.846 77.976 843.208 79C843.571 80.024 843.753 81.1547 843.753 82.392V83.736H832.169V84.152C832.169 85.3467 832.542 86.3173 833.289 87.064C834.035 87.7893 835.081 88.152 836.425 88.152C837.449 88.152 838.323 87.9493 839.049 87.544C839.795 87.1173 840.414 86.5627 840.905 85.88L843.241 88.216C842.643 89.0907 841.769 89.8373 840.617 90.456C839.486 91.0747 838.046 91.384 836.297 91.384ZM836.009 77.112C834.857 77.112 833.929 77.4747 833.225 78.2C832.521 78.9253 832.169 79.8853 832.169 81.08V81.304H839.657V81.016C839.657 79.8213 839.326 78.872 838.665 78.168C838.025 77.464 837.139 77.112 836.009 77.112ZM880.368 91C879.365 91 878.586 90.7547 878.032 90.264C877.498 89.752 877.178 89.048 877.072 88.152H876.912C876.613 89.176 876.026 89.976 875.152 90.552C874.277 91.1067 873.2 91.384 871.92 91.384C870.256 91.384 868.933 90.9467 867.952 90.072C866.97 89.1973 866.48 87.9813 866.48 86.424C866.48 83.096 868.922 81.432 873.808 81.432H876.72V80.344C876.72 79.2987 876.464 78.5093 875.952 77.976C875.44 77.4427 874.608 77.176 873.456 77.176C872.41 77.176 871.568 77.3787 870.928 77.784C870.288 78.1893 869.744 78.712 869.296 79.352L866.96 77.368C867.472 76.4507 868.293 75.6827 869.424 75.064C870.576 74.424 872.058 74.104 873.872 74.104C876.048 74.104 877.744 74.616 878.96 75.64C880.197 76.6427 880.816 78.1467 880.816 80.152V87.928H882.767V91H880.368ZM873.296 88.568C874.277 88.568 875.088 88.344 875.728 87.896C876.389 87.4267 876.72 86.7973 876.72 86.008V83.8H873.904C871.664 83.8 870.544 84.504 870.544 85.912V86.552C870.544 87.2133 870.789 87.7147 871.28 88.056C871.77 88.3973 872.442 88.568 873.296 88.568ZM896.771 88.088H896.547C896.099 89.0907 895.48 89.8907 894.691 90.488C893.923 91.0853 892.899 91.384 891.619 91.384C890.68 91.384 889.816 91.2133 889.027 90.872C888.259 90.5093 887.598 89.976 887.043 89.272C886.488 88.5467 886.062 87.64 885.763 86.552C885.464 85.464 885.315 84.1947 885.315 82.744C885.315 79.8427 885.891 77.6773 887.043 76.248C888.195 74.8187 889.72 74.104 891.619 74.104C892.899 74.104 893.923 74.4027 894.691 75C895.48 75.5973 896.099 76.3973 896.547 77.4H896.771V74.488H900.867V97.4H896.771V88.088ZM893.347 88.12C893.816 88.12 894.254 88.0667 894.659 87.96C895.086 87.832 895.448 87.6613 895.747 87.448C896.067 87.2133 896.312 86.9253 896.483 86.584C896.675 86.2213 896.771 85.8053 896.771 85.336V80.152C896.771 79.6827 896.675 79.2773 896.483 78.936C896.312 78.5733 896.067 78.2853 895.747 78.072C895.448 77.8373 895.086 77.6667 894.659 77.56C894.254 77.432 893.816 77.368 893.347 77.368C892.152 77.368 891.224 77.7307 890.563 78.456C889.923 79.1813 889.603 80.1733 889.603 81.432V84.056C889.603 85.3147 889.923 86.3067 890.563 87.032C891.224 87.7573 892.152 88.12 893.347 88.12ZM915.767 88.088H915.607C915.244 88.984 914.679 89.7627 913.911 90.424C913.164 91.064 912.119 91.384 910.775 91.384C909.153 91.384 907.831 90.8507 906.807 89.784C905.804 88.696 905.303 87.1493 905.303 85.144V74.488H909.399V84.568C909.399 86.9573 910.433 88.152 912.503 88.152C912.908 88.152 913.303 88.0987 913.687 87.992C914.092 87.8853 914.444 87.7253 914.743 87.512C915.063 87.2773 915.308 87 915.479 86.68C915.671 86.36 915.767 85.976 915.767 85.528V74.488H919.863V91H915.767V88.088ZM932.874 71.928C931.914 71.928 931.231 71.7253 930.826 71.32C930.442 70.9147 930.25 70.424 930.25 69.848V69.08C930.25 68.504 930.442 68.0133 930.826 67.608C931.231 67.2027 931.914 67 932.874 67C933.834 67 934.506 67.2027 934.89 67.608C935.295 68.0133 935.498 68.504 935.498 69.08V69.848C935.498 70.424 935.295 70.9147 934.89 71.32C934.506 71.7253 933.834 71.928 932.874 71.928ZM925.386 87.768H930.826V77.72H925.386V74.488H934.922V87.768H939.978V91H925.386V87.768ZM951.038 91.352C949.928 91.352 949.139 91.1173 948.67 90.648C948.2 90.1787 947.966 89.6027 947.966 88.92V87.96C947.966 87.2773 948.2 86.7013 948.67 86.232C949.139 85.7627 949.928 85.528 951.038 85.528C952.147 85.528 952.936 85.7627 953.406 86.232C953.875 86.7013 954.11 87.2773 954.11 87.96V88.92C954.11 89.6027 953.875 90.1787 953.406 90.648C952.936 91.1173 952.147 91.352 951.038 91.352Z" fill="white"/>
<path d="M157.15 67.32H161.246V77.4H161.406C161.769 76.504 162.323 75.736 163.07 75.096C163.838 74.4347 164.894 74.104 166.238 74.104C167.859 74.104 169.171 74.648 170.174 75.736C171.198 76.8027 171.71 78.3387 171.71 80.344V91H167.614V80.92C167.614 78.5307 166.579 77.336 164.51 77.336C164.083 77.336 163.678 77.3893 163.294 77.496C162.91 77.6027 162.558 77.7733 162.238 78.008C161.939 78.2213 161.694 78.488 161.502 78.808C161.331 79.128 161.246 79.512 161.246 79.96V91H157.15V67.32ZM176.338 87.768H180.434V77.72H176.338V74.488H184.53V79H184.786C184.935 78.424 185.138 77.8693 185.394 77.336C185.671 76.7813 186.012 76.3013 186.418 75.896C186.844 75.4693 187.356 75.128 187.954 74.872C188.551 74.616 189.266 74.488 190.097 74.488H191.89V78.328H188.498C187.26 78.328 186.29 78.6907 185.586 79.416C184.882 80.1413 184.53 81.0693 184.53 82.2V87.768H190.258V91H176.338V87.768ZM203.109 91.384C201.786 91.384 200.613 91.1813 199.589 90.776C198.565 90.3707 197.701 89.7947 196.997 89.048C196.314 88.3013 195.792 87.4053 195.429 86.36C195.066 85.2933 194.885 84.0987 194.885 82.776C194.885 81.432 195.066 80.2267 195.429 79.16C195.813 78.0933 196.346 77.1867 197.029 76.44C197.712 75.6933 198.533 75.1173 199.493 74.712C200.474 74.3067 201.573 74.104 202.789 74.104C203.984 74.104 205.061 74.3067 206.021 74.712C206.981 75.096 207.792 75.6507 208.453 76.376C209.136 77.1013 209.658 77.976 210.021 79C210.384 80.024 210.565 81.1547 210.565 82.392V83.736H198.981V84.152C198.981 85.3467 199.354 86.3173 200.101 87.064C200.848 87.7893 201.893 88.152 203.237 88.152C204.261 88.152 205.136 87.9493 205.861 87.544C206.608 87.1173 207.226 86.5627 207.717 85.88L210.053 88.216C209.456 89.0907 208.581 89.8373 207.429 90.456C206.298 91.0747 204.858 91.384 203.109 91.384ZM202.821 77.112C201.669 77.112 200.741 77.4747 200.037 78.2C199.333 78.9253 198.981 79.8853 198.981 81.08V81.304H206.469V81.016C206.469 79.8213 206.138 78.872 205.477 78.168C204.837 77.464 203.952 77.112 202.821 77.112ZM214.713 87.768H219.769V77.72H214.393V74.488H219.769V71.8C219.769 71.1387 219.854 70.5413 220.025 70.008C220.217 69.4533 220.505 68.984 220.889 68.6C221.273 68.1947 221.753 67.8853 222.329 67.672C222.926 67.4373 223.619 67.32 224.409 67.32H229.977V70.552H223.865V74.488H229.977V77.72H223.865V87.768H229.241V91H214.713V87.768Z" fill="#8EB7F5"/>
<path d="M255.104 77.304V67.32H258.816V77.304H255.104ZM261.792 77.304V67.32H265.504V77.304H261.792ZM272.275 67.32H276.371V77.4H276.531C276.894 76.504 277.448 75.736 278.195 75.096C278.963 74.4347 280.019 74.104 281.363 74.104C282.984 74.104 284.296 74.648 285.299 75.736C286.323 76.8027 286.835 78.3387 286.835 80.344V91H282.739V80.92C282.739 78.5307 281.704 77.336 279.635 77.336C279.208 77.336 278.803 77.3893 278.419 77.496C278.035 77.6027 277.683 77.7733 277.363 78.008C277.064 78.2213 276.819 78.488 276.627 78.808C276.456 79.128 276.371 79.512 276.371 79.96V91H272.275V67.32ZM299.783 91C298.204 91 297.041 90.584 296.295 89.752C295.548 88.92 295.175 87.8427 295.175 86.52V77.72H290.375V74.488H293.639C294.3 74.488 294.769 74.36 295.047 74.104C295.324 73.8267 295.463 73.3467 295.463 72.664V68.664H299.271V74.488H305.991V77.72H299.271V87.768H305.991V91H299.783ZM318.97 91C317.391 91 316.229 90.584 315.482 89.752C314.735 88.92 314.362 87.8427 314.362 86.52V77.72H309.562V74.488H312.826C313.487 74.488 313.957 74.36 314.234 74.104C314.511 73.8267 314.65 73.3467 314.65 72.664V68.664H318.458V74.488H325.178V77.72H318.458V87.768H325.178V91H318.97ZM329.646 74.488H333.742V77.4H333.966C334.414 76.3973 335.022 75.5973 335.79 75C336.579 74.4027 337.614 74.104 338.894 74.104C339.832 74.104 340.686 74.2853 341.454 74.648C342.243 74.9893 342.915 75.5227 343.47 76.248C344.024 76.952 344.451 77.848 344.75 78.936C345.048 80.024 345.198 81.2933 345.198 82.744C345.198 84.1947 345.048 85.464 344.75 86.552C344.451 87.64 344.024 88.5467 343.47 89.272C342.915 89.976 342.243 90.5093 341.454 90.872C340.686 91.2133 339.832 91.384 338.894 91.384C337.614 91.384 336.579 91.0853 335.79 90.488C335.022 89.8907 334.414 89.0907 333.966 88.088H333.742V97.4H329.646V74.488ZM337.166 88.12C338.36 88.12 339.278 87.7573 339.918 87.032C340.579 86.3067 340.91 85.3147 340.91 84.056V81.432C340.91 80.1733 340.579 79.1813 339.918 78.456C339.278 77.7307 338.36 77.368 337.166 77.368C336.227 77.368 335.416 77.6027 334.734 78.072C334.072 78.52 333.742 79.2133 333.742 80.152V85.336C333.742 86.2747 334.072 86.9787 334.734 87.448C335.416 87.896 336.227 88.12 337.166 88.12ZM356.161 91.384C354.348 91.384 352.78 91.1067 351.457 90.552C350.134 89.976 349.1 89.208 348.353 88.248L350.753 86.072C351.436 86.8187 352.214 87.3947 353.089 87.8C353.985 88.2053 355.02 88.408 356.193 88.408C357.217 88.408 358.038 88.2373 358.657 87.896C359.276 87.5547 359.585 87.032 359.585 86.328C359.585 85.7307 359.372 85.3253 358.945 85.112C358.54 84.8987 357.996 84.7387 357.313 84.632L354.657 84.216C353.974 84.1093 353.302 83.96 352.641 83.768C352.001 83.5547 351.425 83.2667 350.913 82.904C350.422 82.5413 350.028 82.0827 349.729 81.528C349.43 80.952 349.281 80.2587 349.281 79.448C349.281 77.72 349.921 76.3973 351.201 75.48C352.502 74.5627 354.284 74.104 356.545 74.104C358.145 74.104 359.5 74.328 360.609 74.776C361.74 75.224 362.668 75.8533 363.393 76.664L361.249 79.032C360.78 78.52 360.15 78.072 359.361 77.688C358.593 77.2827 357.612 77.08 356.417 77.08C354.326 77.08 353.281 77.7307 353.281 79.032C353.281 79.6293 353.494 80.0453 353.921 80.28C354.348 80.4933 354.902 80.6533 355.585 80.76L358.209 81.176C358.913 81.2827 359.585 81.4427 360.225 81.656C360.886 81.848 361.462 82.1253 361.953 82.488C362.465 82.8507 362.87 83.3093 363.169 83.864C363.468 84.4187 363.617 85.1013 363.617 85.912C363.617 87.6187 362.956 88.9627 361.633 89.944C360.332 90.904 358.508 91.384 356.161 91.384ZM375.413 91.352C374.303 91.352 373.514 91.1173 373.045 90.648C372.575 90.1787 372.341 89.6027 372.341 88.92V87.96C372.341 87.2773 372.575 86.7013 373.045 86.232C373.514 85.7627 374.303 85.528 375.413 85.528C376.522 85.528 377.311 85.7627 377.781 86.232C378.25 86.7013 378.485 87.2773 378.485 87.96V88.92C378.485 89.6027 378.25 90.1787 377.781 90.648C377.311 91.1173 376.522 91.352 375.413 91.352ZM375.413 79.992C374.303 79.992 373.514 79.7573 373.045 79.288C372.575 78.8187 372.341 78.2427 372.341 77.56V76.6C372.341 75.9173 372.575 75.3413 373.045 74.872C373.514 74.4027 374.303 74.168 375.413 74.168C376.522 74.168 377.311 74.4027 377.781 74.872C378.25 75.3413 378.485 75.9173 378.485 76.6V77.56C378.485 78.2427 378.25 78.8187 377.781 79.288C377.311 79.7573 376.522 79.992 375.413 79.992ZM387.496 95.416L398.024 66.68H401.704L391.176 95.416H387.496ZM406.684 95.416L417.212 66.68H420.892L410.364 95.416H406.684ZM423.823 74.488H427.247L428.655 88.12H428.943L431.183 74.488H434.927L437.135 88.12H437.423L438.863 74.488H442.127L440.015 91H435.055L433.135 78.872H432.847L430.895 91H425.935L423.823 74.488ZM443.011 74.488H446.435L447.843 88.12H448.131L450.371 74.488H454.115L456.323 88.12H456.611L458.051 74.488H461.315L459.203 91H454.243L452.323 78.872H452.035L450.083 91H445.123L443.011 74.488ZM462.198 74.488H465.622L467.03 88.12H467.318L469.558 74.488H473.302L475.51 88.12H475.798L477.238 74.488H480.502L478.39 91H473.43L471.51 78.872H471.222L469.27 91H464.31L462.198 74.488ZM490.538 91.352C489.428 91.352 488.639 91.1173 488.17 90.648C487.7 90.1787 487.466 89.6027 487.466 88.92V87.96C487.466 87.2773 487.7 86.7013 488.17 86.232C488.639 85.7627 489.428 85.528 490.538 85.528C491.647 85.528 492.436 85.7627 492.906 86.232C493.375 86.7013 493.61 87.2773 493.61 87.96V88.92C493.61 89.6027 493.375 90.1787 492.906 90.648C492.436 91.1173 491.647 91.352 490.538 91.352ZM518.557 92.728C518.557 94.456 517.832 95.7253 516.381 96.536C514.952 97.368 512.712 97.784 509.661 97.784C508.168 97.784 506.92 97.688 505.917 97.496C504.914 97.3253 504.104 97.0693 503.485 96.728C502.888 96.3867 502.461 95.9707 502.205 95.48C501.949 95.0107 501.821 94.4773 501.821 93.88C501.821 92.9627 502.088 92.2587 502.621 91.768C503.154 91.2773 503.901 90.9147 504.861 90.68V90.424C504.221 90.2107 503.709 89.912 503.325 89.528C502.962 89.144 502.781 88.6107 502.781 87.928C502.781 87.1173 503.048 86.5093 503.581 86.104C504.136 85.6987 504.861 85.3893 505.757 85.176V85.016C504.776 84.5467 504.008 83.8853 503.453 83.032C502.898 82.1787 502.621 81.144 502.621 79.928C502.621 79.0107 502.781 78.2 503.101 77.496C503.442 76.7707 503.912 76.1627 504.509 75.672C505.128 75.16 505.864 74.776 506.717 74.52C507.57 74.2427 508.52 74.104 509.565 74.104C510.674 74.104 511.677 74.2533 512.573 74.552V73.848C512.573 73.208 512.776 72.6747 513.181 72.248C513.608 71.8213 514.194 71.608 514.941 71.608H517.917V74.68H514.013V75.224C514.824 75.7147 515.442 76.3547 515.869 77.144C516.317 77.912 516.541 78.84 516.541 79.928C516.541 80.8453 516.37 81.6667 516.029 82.392C515.709 83.1173 515.24 83.7253 514.621 84.216C514.024 84.7067 513.288 85.0907 512.413 85.368C511.56 85.624 510.61 85.752 509.565 85.752C509.138 85.752 508.722 85.7413 508.317 85.72C507.933 85.6773 507.56 85.6027 507.197 85.496C506.898 85.6027 506.61 85.7733 506.333 86.008C506.056 86.2427 505.917 86.552 505.917 86.936C505.917 87.448 506.162 87.768 506.653 87.896C507.144 88.0027 507.73 88.056 508.413 88.056H512.157C513.309 88.056 514.29 88.1733 515.101 88.408C515.912 88.6213 516.573 88.9413 517.085 89.368C517.597 89.7733 517.97 90.264 518.205 90.84C518.44 91.416 518.557 92.0453 518.557 92.728ZM514.717 93.016C514.717 92.5253 514.514 92.1307 514.109 91.832C513.725 91.5547 513 91.416 511.933 91.416H506.237C505.597 91.7787 505.277 92.312 505.277 93.016C505.277 93.592 505.512 94.072 505.981 94.456C506.472 94.84 507.293 95.032 508.445 95.032H511.101C513.512 95.032 514.717 94.36 514.717 93.016ZM509.565 83.064C510.61 83.064 511.378 82.8187 511.869 82.328C512.36 81.816 512.605 81.1547 512.605 80.344V79.512C512.605 78.7013 512.36 78.0507 511.869 77.56C511.378 77.048 510.61 76.792 509.565 76.792C508.541 76.792 507.784 77.048 507.293 77.56C506.802 78.0507 506.557 78.7013 506.557 79.512V80.344C506.557 81.1547 506.802 81.816 507.293 82.328C507.784 82.8187 508.541 83.064 509.565 83.064ZM528.913 91.384C527.654 91.384 526.523 91.1813 525.521 90.776C524.539 90.3707 523.697 89.7947 522.993 89.048C522.31 88.3013 521.777 87.3947 521.393 86.328C521.03 85.2613 520.849 84.0667 520.849 82.744C520.849 81.4213 521.03 80.2267 521.393 79.16C521.777 78.0933 522.31 77.1867 522.993 76.44C523.697 75.6933 524.539 75.1173 525.521 74.712C526.523 74.3067 527.654 74.104 528.913 74.104C530.15 74.104 531.27 74.3067 532.273 74.712C533.275 75.1173 534.118 75.6933 534.801 76.44C535.505 77.1867 536.038 78.0933 536.401 79.16C536.785 80.2267 536.977 81.4213 536.977 82.744C536.977 84.0667 536.785 85.2613 536.401 86.328C536.038 87.3947 535.505 88.3013 534.801 89.048C534.118 89.7947 533.275 90.3707 532.273 90.776C531.27 91.1813 530.15 91.384 528.913 91.384ZM528.913 88.248C530.086 88.248 531.014 87.896 531.697 87.192C532.379 86.4667 532.721 85.4107 532.721 84.024V81.464C532.721 80.0773 532.379 79.032 531.697 78.328C531.014 77.6027 530.086 77.24 528.913 77.24C527.739 77.24 526.811 77.6027 526.129 78.328C525.446 79.032 525.105 80.0773 525.105 81.464V84.024C525.105 85.4107 525.446 86.4667 526.129 87.192C526.811 87.896 527.739 88.248 528.913 88.248ZM548.1 91.384C546.841 91.384 545.711 91.1813 544.708 90.776C543.727 90.3707 542.884 89.7947 542.18 89.048C541.497 88.3013 540.964 87.3947 540.58 86.328C540.217 85.2613 540.036 84.0667 540.036 82.744C540.036 81.4213 540.217 80.2267 540.58 79.16C540.964 78.0933 541.497 77.1867 542.18 76.44C542.884 75.6933 543.727 75.1173 544.708 74.712C545.711 74.3067 546.841 74.104 548.1 74.104C549.337 74.104 550.457 74.3067 551.46 74.712C552.463 75.1173 553.305 75.6933 553.988 76.44C554.692 77.1867 555.225 78.0933 555.588 79.16C555.972 80.2267 556.164 81.4213 556.164 82.744C556.164 84.0667 555.972 85.2613 555.588 86.328C555.225 87.3947 554.692 88.3013 553.988 89.048C553.305 89.7947 552.463 90.3707 551.46 90.776C550.457 91.1813 549.337 91.384 548.1 91.384ZM548.1 88.248C549.273 88.248 550.201 87.896 550.884 87.192C551.567 86.4667 551.908 85.4107 551.908 84.024V81.464C551.908 80.0773 551.567 79.032 550.884 78.328C550.201 77.6027 549.273 77.24 548.1 77.24C546.927 77.24 545.999 77.6027 545.316 78.328C544.633 79.032 544.292 80.0773 544.292 81.464V84.024C544.292 85.4107 544.633 86.4667 545.316 87.192C545.999 87.896 546.927 88.248 548.1 88.248ZM576.12 92.728C576.12 94.456 575.394 95.7253 573.944 96.536C572.514 97.368 570.274 97.784 567.224 97.784C565.73 97.784 564.482 97.688 563.48 97.496C562.477 97.3253 561.666 97.0693 561.048 96.728C560.45 96.3867 560.024 95.9707 559.768 95.48C559.512 95.0107 559.384 94.4773 559.384 93.88C559.384 92.9627 559.65 92.2587 560.184 91.768C560.717 91.2773 561.464 90.9147 562.424 90.68V90.424C561.784 90.2107 561.272 89.912 560.888 89.528C560.525 89.144 560.344 88.6107 560.344 87.928C560.344 87.1173 560.61 86.5093 561.144 86.104C561.698 85.6987 562.424 85.3893 563.32 85.176V85.016C562.338 84.5467 561.57 83.8853 561.016 83.032C560.461 82.1787 560.184 81.144 560.184 79.928C560.184 79.0107 560.344 78.2 560.664 77.496C561.005 76.7707 561.474 76.1627 562.072 75.672C562.69 75.16 563.426 74.776 564.28 74.52C565.133 74.2427 566.082 74.104 567.128 74.104C568.237 74.104 569.24 74.2533 570.136 74.552V73.848C570.136 73.208 570.338 72.6747 570.744 72.248C571.17 71.8213 571.757 71.608 572.504 71.608H575.48V74.68H571.576V75.224C572.386 75.7147 573.005 76.3547 573.432 77.144C573.88 77.912 574.104 78.84 574.104 79.928C574.104 80.8453 573.933 81.6667 573.592 82.392C573.272 83.1173 572.802 83.7253 572.184 84.216C571.586 84.7067 570.85 85.0907 569.976 85.368C569.122 85.624 568.173 85.752 567.128 85.752C566.701 85.752 566.285 85.7413 565.88 85.72C565.496 85.6773 565.122 85.6027 564.76 85.496C564.461 85.6027 564.173 85.7733 563.896 86.008C563.618 86.2427 563.48 86.552 563.48 86.936C563.48 87.448 563.725 87.768 564.216 87.896C564.706 88.0027 565.293 88.056 565.976 88.056H569.72C570.872 88.056 571.853 88.1733 572.664 88.408C573.474 88.6213 574.136 88.9413 574.648 89.368C575.16 89.7733 575.533 90.264 575.767 90.84C576.002 91.416 576.12 92.0453 576.12 92.728ZM572.28 93.016C572.28 92.5253 572.077 92.1307 571.672 91.832C571.288 91.5547 570.562 91.416 569.496 91.416H563.8C563.16 91.7787 562.84 92.312 562.84 93.016C562.84 93.592 563.074 94.072 563.544 94.456C564.034 94.84 564.856 95.032 566.008 95.032H568.664C571.074 95.032 572.28 94.36 572.28 93.016ZM567.128 83.064C568.173 83.064 568.941 82.8187 569.432 82.328C569.922 81.816 570.168 81.1547 570.168 80.344V79.512C570.168 78.7013 569.922 78.0507 569.432 77.56C568.941 77.048 568.173 76.792 567.128 76.792C566.104 76.792 565.346 77.048 564.856 77.56C564.365 78.0507 564.12 78.7013 564.12 79.512V80.344C564.12 81.1547 564.365 81.816 564.856 82.328C565.346 82.8187 566.104 83.064 567.128 83.064ZM579.179 87.768H584.427V70.552H579.179V67.32H588.523V87.768H593.803V91H579.179V87.768ZM606.047 91.384C604.724 91.384 603.551 91.1813 602.527 90.776C601.503 90.3707 600.639 89.7947 599.935 89.048C599.252 88.3013 598.729 87.4053 598.367 86.36C598.004 85.2933 597.823 84.0987 597.823 82.776C597.823 81.432 598.004 80.2267 598.367 79.16C598.751 78.0933 599.284 77.1867 599.967 76.44C600.649 75.6933 601.471 75.1173 602.431 74.712C603.412 74.3067 604.511 74.104 605.727 74.104C606.921 74.104 607.999 74.3067 608.959 74.712C609.919 75.096 610.729 75.6507 611.391 76.376C612.073 77.1013 612.596 77.976 612.958 79C613.321 80.024 613.503 81.1547 613.503 82.392V83.736H601.919V84.152C601.919 85.3467 602.292 86.3173 603.039 87.064C603.785 87.7893 604.831 88.152 606.175 88.152C607.199 88.152 608.073 87.9493 608.799 87.544C609.545 87.1173 610.164 86.5627 610.655 85.88L612.991 88.216C612.393 89.0907 611.519 89.8373 610.367 90.456C609.236 91.0747 607.796 91.384 606.047 91.384ZM605.759 77.112C604.607 77.112 603.679 77.4747 602.975 78.2C602.271 78.9253 601.919 79.8853 601.919 81.08V81.304H609.407V81.016C609.407 79.8213 609.076 78.872 608.415 78.168C607.775 77.464 606.889 77.112 605.759 77.112ZM624.85 91.352C623.741 91.352 622.951 91.1173 622.482 90.648C622.013 90.1787 621.778 89.6027 621.778 88.92V87.96C621.778 87.2773 622.013 86.7013 622.482 86.232C622.951 85.7627 623.741 85.528 624.85 85.528C625.959 85.528 626.749 85.7627 627.218 86.232C627.687 86.7013 627.922 87.2773 627.922 87.96V88.92C627.922 89.6027 627.687 90.1787 627.218 90.648C626.749 91.1173 625.959 91.352 624.85 91.352ZM644.678 91.384C643.419 91.384 642.288 91.1813 641.286 90.776C640.283 90.3707 639.43 89.7947 638.726 89.048C638.043 88.3013 637.51 87.3947 637.126 86.328C636.763 85.2613 636.582 84.0667 636.582 82.744C636.582 81.4213 636.763 80.2267 637.126 79.16C637.51 78.0933 638.043 77.1867 638.726 76.44C639.43 75.6933 640.272 75.1173 641.254 74.712C642.256 74.3067 643.387 74.104 644.646 74.104C646.395 74.104 647.803 74.4667 648.87 75.192C649.936 75.9173 650.747 76.8773 651.302 78.072L648.134 79.8C647.835 79.096 647.408 78.5307 646.854 78.104C646.32 77.656 645.584 77.432 644.646 77.432C643.43 77.432 642.491 77.784 641.83 78.488C641.19 79.192 640.87 80.152 640.87 81.368V84.12C640.87 85.3147 641.19 86.2747 641.83 87C642.491 87.704 643.451 88.056 644.71 88.056C645.691 88.056 646.47 87.832 647.046 87.384C647.643 86.936 648.123 86.3387 648.486 85.592L651.558 87.416C651.003 88.5893 650.16 89.5493 649.03 90.296C647.92 91.0213 646.47 91.384 644.678 91.384ZM663.225 91.384C661.966 91.384 660.836 91.1813 659.833 90.776C658.852 90.3707 658.009 89.7947 657.305 89.048C656.622 88.3013 656.089 87.3947 655.705 86.328C655.342 85.2613 655.161 84.0667 655.161 82.744C655.161 81.4213 655.342 80.2267 655.705 79.16C656.089 78.0933 656.622 77.1867 657.305 76.44C658.009 75.6933 658.852 75.1173 659.833 74.712C660.836 74.3067 661.966 74.104 663.225 74.104C664.462 74.104 665.582 74.3067 666.585 74.712C667.588 75.1173 668.43 75.6933 669.113 76.44C669.817 77.1867 670.35 78.0933 670.713 79.16C671.097 80.2267 671.289 81.4213 671.289 82.744C671.289 84.0667 671.097 85.2613 670.713 86.328C670.35 87.3947 669.817 88.3013 669.113 89.048C668.43 89.7947 667.588 90.3707 666.585 90.776C665.582 91.1813 664.462 91.384 663.225 91.384ZM663.225 88.248C664.398 88.248 665.326 87.896 666.009 87.192C666.692 86.4667 667.033 85.4107 667.033 84.024V81.464C667.033 80.0773 666.692 79.032 666.009 78.328C665.326 77.6027 664.398 77.24 663.225 77.24C662.052 77.24 661.124 77.6027 660.441 78.328C659.758 79.032 659.417 80.0773 659.417 81.464V84.024C659.417 85.4107 659.758 86.4667 660.441 87.192C661.124 87.896 662.052 88.248 663.225 88.248ZM673.997 91V74.488H677.389V76.76H677.581C677.837 76.0347 678.199 75.416 678.669 74.904C679.159 74.3707 679.842 74.104 680.717 74.104C681.549 74.104 682.21 74.3493 682.701 74.84C683.191 75.3093 683.511 75.9813 683.661 76.856H683.821C684.098 76.1093 684.503 75.4693 685.037 74.936C685.591 74.3813 686.37 74.104 687.373 74.104C688.589 74.104 689.463 74.5413 689.997 75.416C690.53 76.2907 690.797 77.5813 690.797 79.288V91H687.437V79.768C687.437 78.808 687.298 78.136 687.021 77.752C686.765 77.368 686.37 77.176 685.837 77.176C685.346 77.176 684.93 77.336 684.589 77.656C684.269 77.976 684.109 78.4667 684.109 79.128V91H680.717V79.768C680.717 78.808 680.589 78.136 680.333 77.752C680.077 77.368 679.682 77.176 679.149 77.176C678.637 77.176 678.21 77.336 677.869 77.656C677.549 77.976 677.389 78.4667 677.389 79.128V91H673.997ZM696.416 77.304V67.32H700.128V77.304H696.416ZM703.104 77.304V67.32H706.816V77.304H703.104Z" fill="#F5A476"/>
<path d="M34.6625 46.4084V43.8404H39.2705V31.9364H39.0545L35.4065 36.2564L33.4385 34.6004L37.5905 29.6564H42.4145V43.8404H46.2065V46.4084H34.6625Z" fill="white"/>
<path d="M45.6785 87.8873H33.8705V84.9593L39.2465 80.3753C40.1425 79.6073 40.8065 78.9113 41.2385 78.2873C41.6705 77.6473 41.8865 76.9673 41.8865 76.2473V76.0073C41.8865 75.2073 41.6625 74.5993 41.2145 74.1833C40.7665 73.7673 40.1425 73.5593 39.3425 73.5593C38.4625 73.5593 37.7905 73.7993 37.3265 74.2793C36.8625 74.7593 36.5265 75.3513 36.3185 76.0553L33.5825 75.0233C33.7585 74.4793 34.0065 73.9593 34.3265 73.4633C34.6625 72.9513 35.0705 72.5033 35.5505 72.1193C36.0465 71.7353 36.6305 71.4313 37.3025 71.2073C37.9745 70.9673 38.7425 70.8473 39.6065 70.8473C40.5025 70.8473 41.2945 70.9753 41.9825 71.2313C42.6865 71.4713 43.2785 71.8153 43.7585 72.2633C44.2385 72.6953 44.5985 73.2153 44.8385 73.8233C45.0945 74.4313 45.2225 75.0953 45.2225 75.8153C45.2225 76.5033 45.1105 77.1353 44.8865 77.7113C44.6785 78.2873 44.3825 78.8393 43.9985 79.3673C43.6145 79.8793 43.1585 80.3753 42.6305 80.8553C42.1185 81.3353 41.5585 81.8153 40.9505 82.2953L37.3025 85.2473H45.6785V87.8873Z" fill="white"/>
<path d="M39.0065 123.396C40.0145 123.396 40.7505 123.196 41.2145 122.796C41.6945 122.396 41.9345 121.892 41.9345 121.284V121.116C41.9345 120.428 41.7025 119.892 41.2385 119.508C40.7905 119.124 40.1665 118.932 39.3665 118.932C38.5985 118.932 37.9265 119.108 37.3505 119.46C36.7745 119.812 36.2785 120.308 35.8625 120.948L33.8225 119.124C34.1105 118.74 34.4305 118.38 34.7825 118.044C35.1505 117.692 35.5585 117.396 36.0065 117.156C36.4705 116.9 36.9825 116.7 37.5425 116.556C38.1025 116.412 38.7425 116.34 39.4625 116.34C40.3105 116.34 41.0865 116.444 41.7905 116.652C42.5105 116.844 43.1185 117.132 43.6145 117.516C44.1265 117.9 44.5185 118.364 44.7905 118.908C45.0785 119.436 45.2225 120.036 45.2225 120.708C45.2225 121.236 45.1345 121.716 44.9585 122.148C44.7825 122.58 44.5425 122.956 44.2385 123.276C43.9505 123.596 43.6065 123.86 43.2065 124.068C42.8225 124.276 42.4065 124.428 41.9585 124.524V124.644C42.4545 124.74 42.9185 124.9 43.3505 125.124C43.7825 125.332 44.1585 125.604 44.4785 125.94C44.7985 126.276 45.0545 126.684 45.2465 127.164C45.4385 127.628 45.5345 128.156 45.5345 128.748C45.5345 129.484 45.3825 130.156 45.0785 130.764C44.7745 131.372 44.3425 131.892 43.7825 132.324C43.2385 132.756 42.5745 133.092 41.7905 133.332C41.0225 133.556 40.1585 133.668 39.1985 133.668C38.3985 133.668 37.6865 133.58 37.0625 133.404C36.4385 133.244 35.8865 133.02 35.4065 132.732C34.9265 132.444 34.5105 132.116 34.1585 131.748C33.8065 131.364 33.4945 130.972 33.2225 130.572L35.5505 128.772C35.9505 129.444 36.4225 129.996 36.9665 130.428C37.5265 130.86 38.2865 131.076 39.2465 131.076C40.2065 131.076 40.9425 130.86 41.4545 130.428C41.9825 129.98 42.2465 129.364 42.2465 128.58V128.388C42.2465 127.62 41.9665 127.036 41.4065 126.636C40.8465 126.22 40.0545 126.012 39.0305 126.012H37.3505V123.396H39.0065Z" fill="white"/>
</svg>
