<svg width="1477" height="192" viewBox="0 0 1477 192" fill="none" xmlns="http://www.w3.org/2000/svg">
<path d="M0 5C0 2.23857 2.23858 0 5 0H1462C1470.28 0 1477 6.71573 1477 15V166C1477 179.807 1465.81 191 1452 191H35C15.67 191 0 175.33 0 156V5Z" fill="#373538"/>
<path d="M85.72 46.16V42.32L99.48 34.768V38.672L89.432 44.112V44.368L99.48 49.808V53.712L85.72 46.16ZM109.132 46.704V41.776C110.796 41.712 112.108 41.4027 113.068 40.848C114.049 40.272 114.54 39.344 114.54 38.064V37.616C114.54 36.656 114.252 35.952 113.676 35.504C113.1 35.0347 112.364 34.8 111.468 34.8C110.465 34.8 109.654 35.088 109.036 35.664C108.417 36.2187 107.99 36.944 107.756 37.84L104.299 36.432C104.492 35.7707 104.78 35.1307 105.164 34.512C105.548 33.8933 106.028 33.3493 106.604 32.88C107.201 32.3893 107.905 32.0053 108.716 31.728C109.548 31.4293 110.508 31.28 111.595 31.28C112.684 31.28 113.676 31.44 114.572 31.76C115.468 32.0587 116.236 32.496 116.876 33.072C117.516 33.6267 118.006 34.2987 118.347 35.088C118.71 35.856 118.892 36.72 118.892 37.68C118.892 38.6187 118.732 39.4613 118.412 40.208C118.092 40.9333 117.654 41.5733 117.1 42.128C116.566 42.6613 115.948 43.0987 115.244 43.44C114.54 43.7813 113.804 44.016 113.036 44.144V46.704H109.132ZM111.18 54.352C110.113 54.352 109.356 54.128 108.908 53.68C108.481 53.232 108.268 52.688 108.268 52.048V51.152C108.268 50.512 108.481 49.968 108.908 49.52C109.356 49.072 110.113 48.848 111.18 48.848C112.246 48.848 112.993 49.072 113.42 49.52C113.868 49.968 114.092 50.512 114.092 51.152V52.048C114.092 52.688 113.868 53.232 113.42 53.68C112.993 54.128 112.246 54.352 111.18 54.352ZM123.583 37.488H127.679V40.4H127.903C128.351 39.3973 128.959 38.5973 129.727 38C130.516 37.4027 131.551 37.104 132.831 37.104C133.77 37.104 134.623 37.2853 135.391 37.648C136.18 37.9893 136.852 38.5227 137.407 39.248C137.962 39.952 138.388 40.848 138.687 41.936C138.986 43.024 139.135 44.2933 139.135 45.744C139.135 47.1947 138.986 48.464 138.687 49.552C138.388 50.64 137.962 51.5467 137.407 52.272C136.852 52.976 136.18 53.5093 135.391 53.872C134.623 54.2133 133.77 54.384 132.831 54.384C131.551 54.384 130.516 54.0853 129.727 53.488C128.959 52.8907 128.351 52.0907 127.903 51.088H127.679V60.4H123.583V37.488ZM131.103 51.12C132.298 51.12 133.215 50.7573 133.855 50.032C134.516 49.3067 134.847 48.3147 134.847 47.056V44.432C134.847 43.1733 134.516 42.1813 133.855 41.456C133.215 40.7307 132.298 40.368 131.103 40.368C130.164 40.368 129.354 40.6027 128.671 41.072C128.01 41.52 127.679 42.2133 127.679 43.152V48.336C127.679 49.2747 128.01 49.9787 128.671 50.448C129.354 50.896 130.164 51.12 131.103 51.12ZM142.963 30.32H147.059V40.4H147.219C147.581 39.504 148.136 38.736 148.883 38.096C149.651 37.4347 150.707 37.104 152.051 37.104C153.672 37.104 154.984 37.648 155.987 38.736C157.011 39.8027 157.523 41.3387 157.523 43.344V54H153.427V43.92C153.427 41.5307 152.392 40.336 150.323 40.336C149.896 40.336 149.491 40.3893 149.107 40.496C148.723 40.6027 148.371 40.7733 148.051 41.008C147.752 41.2213 147.507 41.488 147.315 41.808C147.144 42.128 147.059 42.512 147.059 42.96V54H142.963V30.32ZM161.958 37.488H166.054V40.4H166.278C166.726 39.3973 167.334 38.5973 168.102 38C168.891 37.4027 169.926 37.104 171.206 37.104C172.145 37.104 172.998 37.2853 173.766 37.648C174.555 37.9893 175.227 38.5227 175.782 39.248C176.337 39.952 176.763 40.848 177.062 41.936C177.361 43.024 177.51 44.2933 177.51 45.744C177.51 47.1947 177.361 48.464 177.062 49.552C176.763 50.64 176.337 51.5467 175.782 52.272C175.227 52.976 174.555 53.5093 173.766 53.872C172.998 54.2133 172.145 54.384 171.206 54.384C169.926 54.384 168.891 54.0853 168.102 53.488C167.334 52.8907 166.726 52.0907 166.278 51.088H166.054V60.4H161.958V37.488ZM169.478 51.12C170.673 51.12 171.59 50.7573 172.23 50.032C172.891 49.3067 173.222 48.3147 173.222 47.056V44.432C173.222 43.1733 172.891 42.1813 172.23 41.456C171.59 40.7307 170.673 40.368 169.478 40.368C168.539 40.368 167.729 40.6027 167.046 41.072C166.385 41.52 166.054 42.2133 166.054 43.152V48.336C166.054 49.2747 166.385 49.9787 167.046 50.448C167.729 50.896 168.539 51.12 169.478 51.12ZM89.944 130.704V125.776C91.608 125.712 92.92 125.403 93.88 124.848C94.8613 124.272 95.352 123.344 95.352 122.064V121.616C95.352 120.656 95.064 119.952 94.488 119.504C93.912 119.035 93.176 118.8 92.28 118.8C91.2773 118.8 90.4667 119.088 89.848 119.664C89.2293 120.219 88.8027 120.944 88.568 121.84L85.112 120.432C85.304 119.771 85.592 119.131 85.976 118.512C86.36 117.893 86.84 117.349 87.416 116.88C88.0133 116.389 88.7173 116.005 89.528 115.728C90.36 115.429 91.32 115.28 92.408 115.28C93.496 115.28 94.488 115.44 95.384 115.76C96.28 116.059 97.048 116.496 97.688 117.072C98.328 117.627 98.8187 118.299 99.16 119.088C99.5227 119.856 99.704 120.72 99.704 121.68C99.704 122.619 99.544 123.461 99.224 124.208C98.904 124.933 98.4667 125.573 97.912 126.128C97.3787 126.661 96.76 127.099 96.056 127.44C95.352 127.781 94.616 128.016 93.848 128.144V130.704H89.944ZM91.992 138.352C90.9253 138.352 90.168 138.128 89.72 137.68C89.2933 137.232 89.08 136.688 89.08 136.048V135.152C89.08 134.512 89.2933 133.968 89.72 133.52C90.168 133.072 90.9253 132.848 91.992 132.848C93.0587 132.848 93.8053 133.072 94.232 133.52C94.68 133.968 94.904 134.512 94.904 135.152V136.048C94.904 136.688 94.68 137.232 94.232 137.68C93.8053 138.128 93.0587 138.352 91.992 138.352ZM104.908 133.808L114.956 128.368V128.112L104.908 122.672V118.768L118.668 126.32V130.16L104.908 137.712V133.808Z" fill="#438ADD"/>
<path d="M131.359 96.384C130.036 96.384 128.863 96.1813 127.839 95.776C126.815 95.3707 125.951 94.7947 125.247 94.048C124.564 93.3013 124.042 92.4053 123.679 91.36C123.316 90.2933 123.135 89.0987 123.135 87.776C123.135 86.432 123.316 85.2267 123.679 84.16C124.063 83.0933 124.596 82.1867 125.279 81.44C125.962 80.6933 126.783 80.1173 127.743 79.712C128.724 79.3067 129.823 79.104 131.039 79.104C132.234 79.104 133.311 79.3067 134.271 79.712C135.231 80.096 136.042 80.6507 136.703 81.376C137.386 82.1013 137.908 82.976 138.271 84C138.634 85.024 138.815 86.1547 138.815 87.392V88.736H127.231V89.152C127.231 90.3467 127.604 91.3173 128.351 92.064C129.098 92.7893 130.143 93.152 131.487 93.152C132.511 93.152 133.386 92.9493 134.111 92.544C134.858 92.1173 135.476 91.5627 135.967 90.88L138.303 93.216C137.706 94.0907 136.831 94.8373 135.679 95.456C134.548 96.0747 133.108 96.384 131.359 96.384ZM131.071 82.112C129.919 82.112 128.991 82.4747 128.287 83.2C127.583 83.9253 127.231 84.8853 127.231 86.08V86.304H134.719V86.016C134.719 84.8213 134.388 83.872 133.727 83.168C133.087 82.464 132.202 82.112 131.071 82.112ZM150.803 96.384C149.544 96.384 148.413 96.1813 147.411 95.776C146.408 95.3707 145.555 94.7947 144.851 94.048C144.168 93.3013 143.635 92.3947 143.251 91.328C142.888 90.2613 142.707 89.0667 142.707 87.744C142.707 86.4213 142.888 85.2267 143.251 84.16C143.635 83.0933 144.168 82.1867 144.851 81.44C145.555 80.6933 146.397 80.1173 147.379 79.712C148.381 79.3067 149.512 79.104 150.771 79.104C152.52 79.104 153.928 79.4667 154.995 80.192C156.061 80.9173 156.872 81.8773 157.427 83.072L154.259 84.8C153.96 84.096 153.533 83.5307 152.979 83.104C152.445 82.656 151.709 82.432 150.771 82.432C149.555 82.432 148.616 82.784 147.955 83.488C147.315 84.192 146.995 85.152 146.995 86.368V89.12C146.995 90.3147 147.315 91.2747 147.955 92C148.616 92.704 149.576 93.056 150.835 93.056C151.816 93.056 152.595 92.832 153.171 92.384C153.768 91.936 154.248 91.3387 154.611 90.592L157.683 92.416C157.128 93.5893 156.285 94.5493 155.155 95.296C154.045 96.0213 152.595 96.384 150.803 96.384ZM162.15 72.32H166.246V82.4H166.406C166.769 81.504 167.323 80.736 168.07 80.096C168.838 79.4347 169.894 79.104 171.238 79.104C172.859 79.104 174.171 79.648 175.174 80.736C176.198 81.8027 176.71 83.3387 176.71 85.344V96H172.614V85.92C172.614 83.5307 171.579 82.336 169.51 82.336C169.083 82.336 168.678 82.3893 168.294 82.496C167.91 82.6027 167.558 82.7733 167.238 83.008C166.939 83.2213 166.694 83.488 166.502 83.808C166.331 84.128 166.246 84.512 166.246 84.96V96H162.15V72.32ZM188.538 96.384C187.279 96.384 186.148 96.1813 185.146 95.776C184.164 95.3707 183.322 94.7947 182.618 94.048C181.935 93.3013 181.402 92.3947 181.018 91.328C180.655 90.2613 180.474 89.0667 180.474 87.744C180.474 86.4213 180.655 85.2267 181.018 84.16C181.402 83.0933 181.935 82.1867 182.618 81.44C183.322 80.6933 184.164 80.1173 185.146 79.712C186.148 79.3067 187.279 79.104 188.538 79.104C189.775 79.104 190.895 79.3067 191.898 79.712C192.9 80.1173 193.743 80.6933 194.426 81.44C195.13 82.1867 195.663 83.0933 196.026 84.16C196.41 85.2267 196.602 86.4213 196.602 87.744C196.602 89.0667 196.41 90.2613 196.026 91.328C195.663 92.3947 195.13 93.3013 194.426 94.048C193.743 94.7947 192.9 95.3707 191.898 95.776C190.895 96.1813 189.775 96.384 188.538 96.384ZM188.538 93.248C189.711 93.248 190.639 92.896 191.322 92.192C192.004 91.4667 192.346 90.4107 192.346 89.024V86.464C192.346 85.0773 192.004 84.032 191.322 83.328C190.639 82.6027 189.711 82.24 188.538 82.24C187.364 82.24 186.436 82.6027 185.754 83.328C185.071 84.032 184.73 85.0773 184.73 86.464V89.024C184.73 90.4107 185.071 91.4667 185.754 92.192C186.436 92.896 187.364 93.248 188.538 93.248Z" fill="#F4E498"/>
<path d="M221.729 82.304V72.32H225.441V82.304H221.729ZM228.417 82.304V72.32H232.129V82.304H228.417ZM246.1 96.384C244.649 96.384 243.391 96.128 242.324 95.616C241.257 95.0827 240.372 94.3253 239.668 93.344C238.985 92.3627 238.473 91.1573 238.132 89.728C237.812 88.2987 237.652 86.6667 237.652 84.832C237.652 83.0187 237.812 81.3973 238.132 79.968C238.473 78.5173 238.985 77.3013 239.668 76.32C240.372 75.3387 241.257 74.592 242.324 74.08C243.391 73.5467 244.649 73.28 246.1 73.28C249.001 73.28 251.135 74.2933 252.5 76.32C253.865 78.3467 254.548 81.184 254.548 84.832C254.548 88.48 253.865 91.3173 252.5 93.344C251.135 95.3707 249.001 96.384 246.1 96.384ZM246.1 92.96C246.847 92.96 247.476 92.8213 247.988 92.544C248.5 92.2453 248.905 91.8293 249.204 91.296C249.524 90.7627 249.748 90.112 249.876 89.344C250.025 88.5547 250.1 87.68 250.1 86.72V82.912C250.1 80.992 249.801 79.4773 249.204 78.368C248.628 77.2587 247.593 76.704 246.1 76.704C244.607 76.704 243.561 77.2587 242.964 78.368C242.388 79.4773 242.1 80.992 242.1 82.912V86.752C242.1 88.672 242.388 90.1867 242.964 91.296C243.561 92.4053 244.607 92.96 246.1 92.96ZM257.992 92.768H263.24V75.552H257.992V72.32H267.336V92.768H272.616V96H257.992V92.768ZM290.555 96C289.552 96 288.774 95.7547 288.219 95.264C287.686 94.752 287.366 94.048 287.259 93.152H287.099C286.8 94.176 286.214 94.976 285.339 95.552C284.464 96.1067 283.387 96.384 282.107 96.384C280.443 96.384 279.12 95.9467 278.139 95.072C277.158 94.1973 276.667 92.9813 276.667 91.424C276.667 88.096 279.11 86.432 283.995 86.432H286.907V85.344C286.907 84.2987 286.651 83.5093 286.139 82.976C285.627 82.4427 284.795 82.176 283.643 82.176C282.598 82.176 281.755 82.3787 281.115 82.784C280.475 83.1893 279.931 83.712 279.483 84.352L277.147 82.368C277.659 81.4507 278.48 80.6827 279.611 80.064C280.763 79.424 282.246 79.104 284.059 79.104C286.235 79.104 287.931 79.616 289.147 80.64C290.384 81.6427 291.003 83.1467 291.003 85.152V92.928H292.955V96H290.555ZM283.483 93.568C284.464 93.568 285.275 93.344 285.915 92.896C286.576 92.4267 286.907 91.7973 286.907 91.008V88.8H284.091C281.851 88.8 280.731 89.504 280.731 90.912V91.552C280.731 92.2133 280.976 92.7147 281.467 93.056C281.958 93.3973 282.63 93.568 283.483 93.568ZM284.603 77.6L282.139 76.416L285.179 70.432L288.635 72.16L284.603 77.6ZM301.615 90.784H307.119L302.927 100.736H299.823L301.615 90.784ZM333.622 96V79.488H337.014V81.76H337.206C337.462 81.0347 337.824 80.416 338.294 79.904C338.784 79.3707 339.467 79.104 340.342 79.104C341.174 79.104 341.835 79.3493 342.326 79.84C342.816 80.3093 343.136 80.9813 343.286 81.856H343.446C343.723 81.1093 344.128 80.4693 344.662 79.936C345.216 79.3813 345.995 79.104 346.998 79.104C348.214 79.104 349.088 79.5413 349.622 80.416C350.155 81.2907 350.422 82.5813 350.422 84.288V96H347.062V84.768C347.062 83.808 346.923 83.136 346.646 82.752C346.39 82.368 345.995 82.176 345.462 82.176C344.971 82.176 344.555 82.336 344.214 82.656C343.894 82.976 343.734 83.4667 343.734 84.128V96H340.342V84.768C340.342 83.808 340.214 83.136 339.958 82.752C339.702 82.368 339.307 82.176 338.774 82.176C338.262 82.176 337.835 82.336 337.494 82.656C337.174 82.976 337.014 83.4667 337.014 84.128V96H333.622ZM364.329 93.088H364.169C363.806 93.984 363.241 94.7627 362.473 95.424C361.726 96.064 360.681 96.384 359.337 96.384C357.716 96.384 356.393 95.8507 355.369 94.784C354.366 93.696 353.865 92.1493 353.865 90.144V79.488H357.961V89.568C357.961 91.9573 358.996 93.152 361.065 93.152C361.47 93.152 361.865 93.0987 362.249 92.992C362.654 92.8853 363.006 92.7253 363.305 92.512C363.625 92.2773 363.87 92 364.041 91.68C364.233 91.36 364.329 90.976 364.329 90.528V79.488H368.425V96H364.329V93.088ZM373.213 96V79.488H377.309V82.4H377.469C377.831 81.504 378.386 80.736 379.133 80.096C379.901 79.4347 380.957 79.104 382.301 79.104C383.922 79.104 385.234 79.648 386.237 80.736C387.261 81.8027 387.773 83.3387 387.773 85.344V96H383.677V85.92C383.677 83.5307 382.642 82.336 380.573 82.336C380.146 82.336 379.741 82.3893 379.357 82.496C378.973 82.6027 378.621 82.7733 378.301 83.008C378.002 83.2213 377.757 83.488 377.565 83.808C377.394 84.128 377.309 84.512 377.309 84.96V96H373.213ZM402.896 93.088H402.672C402.224 94.0907 401.605 94.8907 400.816 95.488C400.048 96.0853 399.024 96.384 397.744 96.384C396.805 96.384 395.941 96.2133 395.152 95.872C394.384 95.5093 393.723 94.976 393.168 94.272C392.613 93.5467 392.187 92.64 391.888 91.552C391.589 90.464 391.44 89.1947 391.44 87.744C391.44 84.8427 392.016 82.6773 393.168 81.248C394.32 79.8187 395.845 79.104 397.744 79.104C399.024 79.104 400.048 79.4027 400.816 80C401.605 80.5973 402.224 81.3973 402.672 82.4H402.896V72.32H406.992V96H402.896V93.088ZM399.472 93.12C399.941 93.12 400.379 93.0667 400.784 92.96C401.211 92.832 401.573 92.6613 401.872 92.448C402.192 92.2133 402.437 91.9253 402.608 91.584C402.8 91.2213 402.896 90.8053 402.896 90.336V85.152C402.896 84.6827 402.8 84.2773 402.608 83.936C402.437 83.5733 402.192 83.2853 401.872 83.072C401.573 82.8373 401.211 82.6667 400.784 82.56C400.379 82.432 399.941 82.368 399.472 82.368C398.277 82.368 397.349 82.7307 396.688 83.456C396.048 84.1813 395.728 85.1733 395.728 86.432V89.056C395.728 90.3147 396.048 91.3067 396.688 92.032C397.349 92.7573 398.277 93.12 399.472 93.12ZM418.788 96.384C417.529 96.384 416.398 96.1813 415.396 95.776C414.414 95.3707 413.572 94.7947 412.868 94.048C412.185 93.3013 411.652 92.3947 411.268 91.328C410.905 90.2613 410.724 89.0667 410.724 87.744C410.724 86.4213 410.905 85.2267 411.268 84.16C411.652 83.0933 412.185 82.1867 412.868 81.44C413.572 80.6933 414.414 80.1173 415.396 79.712C416.398 79.3067 417.529 79.104 418.788 79.104C420.025 79.104 421.145 79.3067 422.148 79.712C423.15 80.1173 423.993 80.6933 424.676 81.44C425.38 82.1867 425.913 83.0933 426.276 84.16C426.66 85.2267 426.852 86.4213 426.852 87.744C426.852 89.0667 426.66 90.2613 426.276 91.328C425.913 92.3947 425.38 93.3013 424.676 94.048C423.993 94.7947 423.15 95.3707 422.148 95.776C421.145 96.1813 420.025 96.384 418.788 96.384ZM418.788 93.248C419.961 93.248 420.889 92.896 421.572 92.192C422.254 91.4667 422.596 90.4107 422.596 89.024V86.464C422.596 85.0773 422.254 84.032 421.572 83.328C420.889 82.6027 419.961 82.24 418.788 82.24C417.614 82.24 416.686 82.6027 416.004 83.328C415.321 84.032 414.98 85.0773 414.98 86.464V89.024C414.98 90.4107 415.321 91.4667 416.004 92.192C416.686 92.896 417.614 93.248 418.788 93.248ZM448.747 96V79.488H452.139V81.76H452.331C452.587 81.0347 452.949 80.416 453.419 79.904C453.909 79.3707 454.592 79.104 455.467 79.104C456.299 79.104 456.96 79.3493 457.451 79.84C457.941 80.3093 458.261 80.9813 458.411 81.856H458.571C458.848 81.1093 459.253 80.4693 459.787 79.936C460.341 79.3813 461.12 79.104 462.123 79.104C463.339 79.104 464.213 79.5413 464.747 80.416C465.28 81.2907 465.547 82.5813 465.547 84.288V96H462.187V84.768C462.187 83.808 462.048 83.136 461.771 82.752C461.515 82.368 461.12 82.176 460.587 82.176C460.096 82.176 459.68 82.336 459.339 82.656C459.019 82.976 458.859 83.4667 458.859 84.128V96H455.467V84.768C455.467 83.808 455.339 83.136 455.083 82.752C454.827 82.368 454.432 82.176 453.899 82.176C453.387 82.176 452.96 82.336 452.619 82.656C452.299 82.976 452.139 83.4667 452.139 84.128V96H448.747ZM482.43 96C481.427 96 480.649 95.7547 480.094 95.264C479.561 94.752 479.241 94.048 479.134 93.152H478.974C478.675 94.176 478.089 94.976 477.214 95.552C476.339 96.1067 475.262 96.384 473.982 96.384C472.318 96.384 470.995 95.9467 470.014 95.072C469.033 94.1973 468.542 92.9813 468.542 91.424C468.542 88.096 470.985 86.432 475.87 86.432H478.782V85.344C478.782 84.2987 478.526 83.5093 478.014 82.976C477.502 82.4427 476.67 82.176 475.518 82.176C474.473 82.176 473.63 82.3787 472.99 82.784C472.35 83.1893 471.806 83.712 471.358 84.352L469.022 82.368C469.534 81.4507 470.355 80.6827 471.486 80.064C472.638 79.424 474.121 79.104 475.934 79.104C478.11 79.104 479.806 79.616 481.022 80.64C482.259 81.6427 482.878 83.1467 482.878 85.152V92.928H484.83V96H482.43ZM475.358 93.568C476.339 93.568 477.15 93.344 477.79 92.896C478.451 92.4267 478.782 91.7973 478.782 91.008V88.8H475.966C473.726 88.8 472.606 89.504 472.606 90.912V91.552C472.606 92.2133 472.851 92.7147 473.342 93.056C473.833 93.3973 474.505 93.568 475.358 93.568ZM476.478 77.6L474.014 76.416L477.054 70.432L480.51 72.16L476.478 77.6ZM504.37 97.728C504.37 99.456 503.644 100.725 502.194 101.536C500.764 102.368 498.524 102.784 495.474 102.784C493.98 102.784 492.732 102.688 491.73 102.496C490.727 102.325 489.916 102.069 489.298 101.728C488.7 101.387 488.274 100.971 488.018 100.48C487.762 100.011 487.634 99.4773 487.634 98.88C487.634 97.9627 487.9 97.2587 488.434 96.768C488.967 96.2773 489.714 95.9147 490.674 95.68V95.424C490.034 95.2107 489.522 94.912 489.138 94.528C488.775 94.144 488.594 93.6107 488.594 92.928C488.594 92.1173 488.86 91.5093 489.394 91.104C489.948 90.6987 490.674 90.3893 491.57 90.176V90.016C490.588 89.5467 489.82 88.8853 489.266 88.032C488.711 87.1787 488.434 86.144 488.434 84.928C488.434 84.0107 488.594 83.2 488.914 82.496C489.255 81.7707 489.724 81.1627 490.322 80.672C490.94 80.16 491.676 79.776 492.53 79.52C493.383 79.2427 494.332 79.104 495.378 79.104C496.487 79.104 497.49 79.2533 498.386 79.552V78.848C498.386 78.208 498.588 77.6747 498.994 77.248C499.42 76.8213 500.007 76.608 500.754 76.608H503.73V79.68H499.826V80.224C500.636 80.7147 501.255 81.3547 501.682 82.144C502.13 82.912 502.354 83.84 502.354 84.928C502.354 85.8453 502.183 86.6667 501.842 87.392C501.522 88.1173 501.052 88.7253 500.434 89.216C499.836 89.7067 499.1 90.0907 498.226 90.368C497.372 90.624 496.423 90.752 495.378 90.752C494.951 90.752 494.535 90.7413 494.13 90.72C493.746 90.6773 493.372 90.6027 493.01 90.496C492.711 90.6027 492.423 90.7733 492.146 91.008C491.868 91.2427 491.73 91.552 491.73 91.936C491.73 92.448 491.975 92.768 492.466 92.896C492.956 93.0027 493.543 93.056 494.226 93.056H497.97C499.122 93.056 500.103 93.1733 500.914 93.408C501.724 93.6213 502.386 93.9413 502.898 94.368C503.41 94.7733 503.783 95.264 504.017 95.84C504.252 96.416 504.37 97.0453 504.37 97.728ZM500.53 98.016C500.53 97.5253 500.327 97.1307 499.922 96.832C499.538 96.5547 498.812 96.416 497.746 96.416H492.05C491.41 96.7787 491.09 97.312 491.09 98.016C491.09 98.592 491.324 99.072 491.794 99.456C492.284 99.84 493.106 100.032 494.258 100.032H496.914C499.324 100.032 500.53 99.36 500.53 98.016ZM495.378 88.064C496.423 88.064 497.191 87.8187 497.682 87.328C498.172 86.816 498.418 86.1547 498.418 85.344V84.512C498.418 83.7013 498.172 83.0507 497.682 82.56C497.191 82.048 496.423 81.792 495.378 81.792C494.354 81.792 493.596 82.048 493.106 82.56C492.615 83.0507 492.37 83.7013 492.37 84.512V85.344C492.37 86.1547 492.615 86.816 493.106 87.328C493.596 87.8187 494.354 88.064 495.378 88.064ZM515.749 76.928C514.789 76.928 514.106 76.7253 513.701 76.32C513.317 75.9147 513.125 75.424 513.125 74.848V74.08C513.125 73.504 513.317 73.0133 513.701 72.608C514.106 72.2027 514.789 72 515.749 72C516.709 72 517.381 72.2027 517.765 72.608C518.17 73.0133 518.373 73.504 518.373 74.08V74.848C518.373 75.424 518.17 75.9147 517.765 76.32C517.381 76.7253 516.709 76.928 515.749 76.928ZM508.261 92.768H513.701V82.72H508.261V79.488H517.797V92.768H522.853V96H508.261V92.768ZM534.553 96.384C533.294 96.384 532.163 96.1813 531.161 95.776C530.158 95.3707 529.305 94.7947 528.601 94.048C527.918 93.3013 527.385 92.3947 527.001 91.328C526.638 90.2613 526.457 89.0667 526.457 87.744C526.457 86.4213 526.638 85.2267 527.001 84.16C527.385 83.0933 527.918 82.1867 528.601 81.44C529.305 80.6933 530.147 80.1173 531.129 79.712C532.131 79.3067 533.262 79.104 534.521 79.104C536.27 79.104 537.678 79.4667 538.745 80.192C539.811 80.9173 540.622 81.8773 541.177 83.072L538.009 84.8C537.71 84.096 537.283 83.5307 536.729 83.104C536.195 82.656 535.459 82.432 534.521 82.432C533.305 82.432 532.366 82.784 531.705 83.488C531.065 84.192 530.745 85.152 530.745 86.368V89.12C530.745 90.3147 531.065 91.2747 531.705 92C532.366 92.704 533.326 93.056 534.585 93.056C535.566 93.056 536.345 92.832 536.921 92.384C537.518 91.936 537.998 91.3387 538.361 90.592L541.433 92.416C540.878 93.5893 540.035 94.5493 538.905 95.296C537.795 96.0213 536.345 96.384 534.553 96.384ZM553.1 96.384C551.841 96.384 550.711 96.1813 549.708 95.776C548.727 95.3707 547.884 94.7947 547.18 94.048C546.497 93.3013 545.964 92.3947 545.58 91.328C545.217 90.2613 545.036 89.0667 545.036 87.744C545.036 86.4213 545.217 85.2267 545.58 84.16C545.964 83.0933 546.497 82.1867 547.18 81.44C547.884 80.6933 548.727 80.1173 549.708 79.712C550.711 79.3067 551.841 79.104 553.1 79.104C554.337 79.104 555.457 79.3067 556.46 79.712C557.463 80.1173 558.305 80.6933 558.988 81.44C559.692 82.1867 560.225 83.0933 560.588 84.16C560.972 85.2267 561.164 86.4213 561.164 87.744C561.164 89.0667 560.972 90.2613 560.588 91.328C560.225 92.3947 559.692 93.3013 558.988 94.048C558.305 94.7947 557.463 95.3707 556.46 95.776C555.457 96.1813 554.337 96.384 553.1 96.384ZM553.1 93.248C554.273 93.248 555.201 92.896 555.884 92.192C556.567 91.4667 556.908 90.4107 556.908 89.024V86.464C556.908 85.0773 556.567 84.032 555.884 83.328C555.201 82.6027 554.273 82.24 553.1 82.24C551.927 82.24 550.999 82.6027 550.316 83.328C549.633 84.032 549.292 85.0773 549.292 86.464V89.024C549.292 90.4107 549.633 91.4667 550.316 92.192C550.999 92.896 551.927 93.248 553.1 93.248ZM571.616 88.32L570.048 80.16V73.664H574.528V80.16L572.96 88.32H571.616ZM572.288 96.352C571.221 96.352 570.464 96.128 570.016 95.68C569.589 95.232 569.376 94.688 569.376 94.048V93.152C569.376 92.512 569.589 91.968 570.016 91.52C570.464 91.072 571.221 90.848 572.288 90.848C573.354 90.848 574.101 91.072 574.528 91.52C574.976 91.968 575.2 92.512 575.2 93.152V94.048C575.2 94.688 574.976 95.232 574.528 95.68C574.101 96.128 573.354 96.352 572.288 96.352ZM586.291 82.304V72.32H590.003V82.304H586.291ZM592.979 82.304V72.32H596.691V82.304H592.979Z" fill="#F5A476"/>
<path d="M608.615 90.784H614.119L609.927 100.736H606.823L608.615 90.784ZM610.663 84.992C609.553 84.992 608.764 84.7573 608.295 84.288C607.825 83.8187 607.591 83.2427 607.591 82.56V81.6C607.591 80.9173 607.825 80.3413 608.295 79.872C608.764 79.4027 609.553 79.168 610.663 79.168C611.772 79.168 612.561 79.4027 613.031 79.872C613.5 80.3413 613.735 80.9173 613.735 81.6V82.56C613.735 83.2427 613.5 83.8187 613.031 84.288C612.561 84.7573 611.772 84.992 610.663 84.992Z" fill="white"/>
<path d="M34.6625 46.4084V43.8404H39.2705V31.9364H39.0545L35.4065 36.2564L33.4385 34.6004L37.5905 29.6564H42.4145V43.8404H46.2065V46.4084H34.6625Z" fill="white"/>
<path d="M45.6785 87.8873H33.8705V84.9593L39.2465 80.3753C40.1425 79.6073 40.8065 78.9113 41.2385 78.2873C41.6705 77.6473 41.8865 76.9673 41.8865 76.2473V76.0073C41.8865 75.2073 41.6625 74.5993 41.2145 74.1833C40.7665 73.7673 40.1425 73.5593 39.3425 73.5593C38.4625 73.5593 37.7905 73.7993 37.3265 74.2793C36.8625 74.7593 36.5265 75.3513 36.3185 76.0553L33.5825 75.0233C33.7585 74.4793 34.0065 73.9593 34.3265 73.4633C34.6625 72.9513 35.0705 72.5033 35.5505 72.1193C36.0465 71.7353 36.6305 71.4313 37.3025 71.2073C37.9745 70.9673 38.7425 70.8473 39.6065 70.8473C40.5025 70.8473 41.2945 70.9753 41.9825 71.2313C42.6865 71.4713 43.2785 71.8153 43.7585 72.2633C44.2385 72.6953 44.5985 73.2153 44.8385 73.8233C45.0945 74.4313 45.2225 75.0953 45.2225 75.8153C45.2225 76.5033 45.1105 77.1353 44.8865 77.7113C44.6785 78.2873 44.3825 78.8393 43.9985 79.3673C43.6145 79.8793 43.1585 80.3753 42.6305 80.8553C42.1185 81.3353 41.5585 81.8153 40.9505 82.2953L37.3025 85.2473H45.6785V87.8873Z" fill="white"/>
<path d="M39.0065 123.396C40.0145 123.396 40.7505 123.196 41.2145 122.796C41.6945 122.396 41.9345 121.892 41.9345 121.284V121.116C41.9345 120.428 41.7025 119.892 41.2385 119.508C40.7905 119.124 40.1665 118.932 39.3665 118.932C38.5985 118.932 37.9265 119.108 37.3505 119.46C36.7745 119.812 36.2785 120.308 35.8625 120.948L33.8225 119.124C34.1105 118.74 34.4305 118.38 34.7825 118.044C35.1505 117.692 35.5585 117.396 36.0065 117.156C36.4705 116.9 36.9825 116.7 37.5425 116.556C38.1025 116.412 38.7425 116.34 39.4625 116.34C40.3105 116.34 41.0865 116.444 41.7905 116.652C42.5105 116.844 43.1185 117.132 43.6145 117.516C44.1265 117.9 44.5185 118.364 44.7905 118.908C45.0785 119.436 45.2225 120.036 45.2225 120.708C45.2225 121.236 45.1345 121.716 44.9585 122.148C44.7825 122.58 44.5425 122.956 44.2385 123.276C43.9505 123.596 43.6065 123.86 43.2065 124.068C42.8225 124.276 42.4065 124.428 41.9585 124.524V124.644C42.4545 124.74 42.9185 124.9 43.3505 125.124C43.7825 125.332 44.1585 125.604 44.4785 125.94C44.7985 126.276 45.0545 126.684 45.2465 127.164C45.4385 127.628 45.5345 128.156 45.5345 128.748C45.5345 129.484 45.3825 130.156 45.0785 130.764C44.7745 131.372 44.3425 131.892 43.7825 132.324C43.2385 132.756 42.5745 133.092 41.7905 133.332C41.0225 133.556 40.1585 133.668 39.1985 133.668C38.3985 133.668 37.6865 133.58 37.0625 133.404C36.4385 133.244 35.8865 133.02 35.4065 132.732C34.9265 132.444 34.5105 132.116 34.1585 131.748C33.8065 131.364 33.4945 130.972 33.2225 130.572L35.5505 128.772C35.9505 129.444 36.4225 129.996 36.9665 130.428C37.5265 130.86 38.2865 131.076 39.2465 131.076C40.2065 131.076 40.9425 130.86 41.4545 130.428C41.9825 129.98 42.2465 129.364 42.2465 128.58V128.388C42.2465 127.62 41.9665 127.036 41.4065 126.636C40.8465 126.22 40.0545 126.012 39.0305 126.012H37.3505V123.396H39.0065Z" fill="white"/>
<path d="M42.2404 174.859V171.619H34.4884V168.931L41.3284 158.107H45.2404V169.171H47.4964V171.619H45.2404V174.859H42.2404ZM37.0564 169.171H42.2404V161.179H42.0484L37.0564 169.171Z" fill="white"/>
</svg>
