<svg width="1477" height="397" viewBox="0 0 1477 397" fill="none" xmlns="http://www.w3.org/2000/svg">
<path d="M0 5.00001C0 2.23859 2.23858 0 5 0H1462C1470.28 0 1477 6.71573 1477 15V371C1477 384.807 1465.81 396 1452 396H35C15.67 396 0 380.33 0 361V5.00001Z" fill="#373538"/>
<path d="M85.72 46.16V42.32L99.48 34.768V38.672L89.432 44.112V44.368L99.48 49.808V53.712L85.72 46.16ZM109.132 46.704V41.776C110.796 41.712 112.108 41.4027 113.068 40.848C114.049 40.272 114.54 39.344 114.54 38.064V37.616C114.54 36.656 114.252 35.952 113.676 35.504C113.1 35.0347 112.364 34.8 111.468 34.8C110.465 34.8 109.654 35.088 109.036 35.664C108.417 36.2187 107.99 36.944 107.756 37.84L104.299 36.432C104.492 35.7707 104.78 35.1307 105.164 34.512C105.548 33.8933 106.028 33.3493 106.604 32.88C107.201 32.3893 107.905 32.0053 108.716 31.728C109.548 31.4293 110.508 31.28 111.595 31.28C112.684 31.28 113.676 31.44 114.572 31.76C115.468 32.0587 116.236 32.496 116.876 33.072C117.516 33.6267 118.006 34.2987 118.347 35.088C118.71 35.856 118.892 36.72 118.892 37.68C118.892 38.6187 118.732 39.4613 118.412 40.208C118.092 40.9333 117.654 41.5733 117.1 42.128C116.566 42.6613 115.948 43.0987 115.244 43.44C114.54 43.7813 113.804 44.016 113.036 44.144V46.704H109.132ZM111.18 54.352C110.113 54.352 109.356 54.128 108.908 53.68C108.481 53.232 108.268 52.688 108.268 52.048V51.152C108.268 50.512 108.481 49.968 108.908 49.52C109.356 49.072 110.113 48.848 111.18 48.848C112.246 48.848 112.993 49.072 113.42 49.52C113.868 49.968 114.092 50.512 114.092 51.152V52.048C114.092 52.688 113.868 53.232 113.42 53.68C112.993 54.128 112.246 54.352 111.18 54.352ZM123.583 37.488H127.679V40.4H127.903C128.351 39.3973 128.959 38.5973 129.727 38C130.516 37.4027 131.551 37.104 132.831 37.104C133.77 37.104 134.623 37.2853 135.391 37.648C136.18 37.9893 136.852 38.5227 137.407 39.248C137.962 39.952 138.388 40.848 138.687 41.936C138.986 43.024 139.135 44.2933 139.135 45.744C139.135 47.1947 138.986 48.464 138.687 49.552C138.388 50.64 137.962 51.5467 137.407 52.272C136.852 52.976 136.18 53.5093 135.391 53.872C134.623 54.2133 133.77 54.384 132.831 54.384C131.551 54.384 130.516 54.0853 129.727 53.488C128.959 52.8907 128.351 52.0907 127.903 51.088H127.679V60.4H123.583V37.488ZM131.103 51.12C132.298 51.12 133.215 50.7573 133.855 50.032C134.516 49.3067 134.847 48.3147 134.847 47.056V44.432C134.847 43.1733 134.516 42.1813 133.855 41.456C133.215 40.7307 132.298 40.368 131.103 40.368C130.164 40.368 129.354 40.6027 128.671 41.072C128.01 41.52 127.679 42.2133 127.679 43.152V48.336C127.679 49.2747 128.01 49.9787 128.671 50.448C129.354 50.896 130.164 51.12 131.103 51.12ZM142.963 30.32H147.059V40.4H147.219C147.581 39.504 148.136 38.736 148.883 38.096C149.651 37.4347 150.707 37.104 152.051 37.104C153.672 37.104 154.984 37.648 155.987 38.736C157.011 39.8027 157.523 41.3387 157.523 43.344V54H153.427V43.92C153.427 41.5307 152.392 40.336 150.323 40.336C149.896 40.336 149.491 40.3893 149.107 40.496C148.723 40.6027 148.371 40.7733 148.051 41.008C147.752 41.2213 147.507 41.488 147.315 41.808C147.144 42.128 147.059 42.512 147.059 42.96V54H142.963V30.32ZM161.958 37.488H166.054V40.4H166.278C166.726 39.3973 167.334 38.5973 168.102 38C168.891 37.4027 169.926 37.104 171.206 37.104C172.145 37.104 172.998 37.2853 173.766 37.648C174.555 37.9893 175.227 38.5227 175.782 39.248C176.337 39.952 176.763 40.848 177.062 41.936C177.361 43.024 177.51 44.2933 177.51 45.744C177.51 47.1947 177.361 48.464 177.062 49.552C176.763 50.64 176.337 51.5467 175.782 52.272C175.227 52.976 174.555 53.5093 173.766 53.872C172.998 54.2133 172.145 54.384 171.206 54.384C169.926 54.384 168.891 54.0853 168.102 53.488C167.334 52.8907 166.726 52.0907 166.278 51.088H166.054V60.4H161.958V37.488ZM169.478 51.12C170.673 51.12 171.59 50.7573 172.23 50.032C172.891 49.3067 173.222 48.3147 173.222 47.056V44.432C173.222 43.1733 172.891 42.1813 172.23 41.456C171.59 40.7307 170.673 40.368 169.478 40.368C168.539 40.368 167.729 40.6027 167.046 41.072C166.385 41.52 166.054 42.2133 166.054 43.152V48.336C166.054 49.2747 166.385 49.9787 167.046 50.448C167.729 50.896 168.539 51.12 169.478 51.12ZM89.944 340.704V335.776C91.608 335.712 92.92 335.403 93.88 334.848C94.8613 334.272 95.352 333.344 95.352 332.064V331.616C95.352 330.656 95.064 329.952 94.488 329.504C93.912 329.035 93.176 328.8 92.28 328.8C91.2773 328.8 90.4667 329.088 89.848 329.664C89.2293 330.219 88.8027 330.944 88.568 331.84L85.112 330.432C85.304 329.771 85.592 329.131 85.976 328.512C86.36 327.893 86.84 327.349 87.416 326.88C88.0133 326.389 88.7173 326.005 89.528 325.728C90.36 325.429 91.32 325.28 92.408 325.28C93.496 325.28 94.488 325.44 95.384 325.76C96.28 326.059 97.048 326.496 97.688 327.072C98.328 327.627 98.8187 328.299 99.16 329.088C99.5227 329.856 99.704 330.72 99.704 331.68C99.704 332.619 99.544 333.461 99.224 334.208C98.904 334.933 98.4667 335.573 97.912 336.128C97.3787 336.661 96.76 337.099 96.056 337.44C95.352 337.781 94.616 338.016 93.848 338.144V340.704H89.944ZM91.992 348.352C90.9253 348.352 90.168 348.128 89.72 347.68C89.2933 347.232 89.08 346.688 89.08 346.048V345.152C89.08 344.512 89.2933 343.968 89.72 343.52C90.168 343.072 90.9253 342.848 91.992 342.848C93.0587 342.848 93.8053 343.072 94.232 343.52C94.68 343.968 94.904 344.512 94.904 345.152V346.048C94.904 346.688 94.68 347.232 94.232 347.68C93.8053 348.128 93.0587 348.352 91.992 348.352ZM104.908 343.808L114.956 338.368V338.112L104.908 332.672V328.768L118.668 336.32V340.16L104.908 347.712V343.808Z" fill="#438ADD"/>
<path d="M129.727 96.352C128.063 96.224 126.634 95.8507 125.439 95.232C124.266 94.592 123.306 93.7707 122.559 92.768L125.087 90.176C126.495 91.7547 128.116 92.6507 129.951 92.864V86.24L129.215 86.112C128.17 85.92 127.263 85.632 126.495 85.248C125.748 84.864 125.13 84.3947 124.639 83.84C124.17 83.2853 123.818 82.6667 123.583 81.984C123.37 81.3013 123.263 80.5653 123.263 79.776C123.263 77.9627 123.818 76.5013 124.927 75.392C126.058 74.2827 127.658 73.6107 129.727 73.376V70.048H132.863V73.344C134.25 73.5147 135.434 73.8667 136.415 74.4C137.418 74.9333 138.26 75.6267 138.943 76.48L136.415 79.072C135.434 77.8987 134.175 77.184 132.639 76.928V83.008L133.439 83.136C135.53 83.52 137.044 84.2667 137.983 85.376C138.922 86.464 139.391 87.808 139.391 89.408C139.391 91.2213 138.826 92.736 137.695 93.952C136.586 95.1467 134.975 95.904 132.863 96.224V99.616H129.727V96.352ZM127.199 79.648C127.199 80.4373 127.412 81.0453 127.839 81.472C128.266 81.8987 128.97 82.2293 129.951 82.464V76.832C128.116 77.088 127.199 78.0267 127.199 79.648ZM135.487 89.664C135.487 88.8107 135.263 88.1707 134.815 87.744C134.367 87.296 133.642 86.9653 132.639 86.752V92.832C133.599 92.6613 134.314 92.3093 134.783 91.776C135.252 91.2427 135.487 90.5387 135.487 89.664ZM151.187 76.928C150.227 76.928 149.544 76.7253 149.139 76.32C148.755 75.9147 148.562 75.424 148.562 74.848V74.08C148.562 73.504 148.755 73.0133 149.139 72.608C149.544 72.2027 150.227 72 151.187 72C152.147 72 152.819 72.2027 153.203 72.608C153.608 73.0133 153.811 73.504 153.811 74.08V74.848C153.811 75.424 153.608 75.9147 153.203 76.32C152.819 76.7253 152.147 76.928 151.187 76.928ZM143.699 92.768H149.139V82.72H143.699V79.488H153.235V92.768H158.291V96H143.699V92.768ZM172.646 93.088H172.422C171.974 94.0907 171.355 94.8907 170.566 95.488C169.798 96.0853 168.774 96.384 167.494 96.384C166.555 96.384 165.691 96.2133 164.902 95.872C164.134 95.5093 163.473 94.976 162.918 94.272C162.363 93.5467 161.937 92.64 161.638 91.552C161.339 90.464 161.19 89.1947 161.19 87.744C161.19 84.8427 161.766 82.6773 162.918 81.248C164.07 79.8187 165.595 79.104 167.494 79.104C168.774 79.104 169.798 79.4027 170.566 80C171.355 80.5973 171.974 81.3973 172.422 82.4H172.646V72.32H176.742V96H172.646V93.088ZM169.222 93.12C169.691 93.12 170.129 93.0667 170.534 92.96C170.961 92.832 171.323 92.6613 171.622 92.448C171.942 92.2133 172.187 91.9253 172.358 91.584C172.55 91.2213 172.646 90.8053 172.646 90.336V85.152C172.646 84.6827 172.55 84.2773 172.358 83.936C172.187 83.5733 171.942 83.2853 171.622 83.072C171.323 82.8373 170.961 82.6667 170.534 82.56C170.129 82.432 169.691 82.368 169.222 82.368C168.027 82.368 167.099 82.7307 166.438 83.456C165.798 84.1813 165.478 85.1733 165.478 86.432V89.056C165.478 90.3147 165.798 91.3067 166.438 92.032C167.099 92.7573 168.027 93.12 169.222 93.12ZM194.618 96C193.615 96 192.836 95.7547 192.282 95.264C191.748 94.752 191.428 94.048 191.322 93.152H191.162C190.863 94.176 190.276 94.976 189.402 95.552C188.527 96.1067 187.45 96.384 186.17 96.384C184.506 96.384 183.183 95.9467 182.202 95.072C181.22 94.1973 180.73 92.9813 180.73 91.424C180.73 88.096 183.172 86.432 188.058 86.432H190.97V85.344C190.97 84.2987 190.714 83.5093 190.202 82.976C189.69 82.4427 188.858 82.176 187.706 82.176C186.66 82.176 185.818 82.3787 185.178 82.784C184.538 83.1893 183.994 83.712 183.546 84.352L181.21 82.368C181.722 81.4507 182.543 80.6827 183.674 80.064C184.826 79.424 186.308 79.104 188.122 79.104C190.298 79.104 191.994 79.616 193.21 80.64C194.447 81.6427 195.066 83.1467 195.066 85.152V92.928H197.017V96H194.618ZM187.546 93.568C188.527 93.568 189.338 93.344 189.978 92.896C190.639 92.4267 190.97 91.7973 190.97 91.008V88.8H188.154C185.914 88.8 184.794 89.504 184.794 90.912V91.552C184.794 92.2133 185.039 92.7147 185.53 93.056C186.02 93.3973 186.692 93.568 187.546 93.568ZM211.021 93.088H210.797C210.349 94.0907 209.73 94.8907 208.941 95.488C208.173 96.0853 207.149 96.384 205.869 96.384C204.93 96.384 204.066 96.2133 203.277 95.872C202.509 95.5093 201.848 94.976 201.293 94.272C200.738 93.5467 200.312 92.64 200.013 91.552C199.714 90.464 199.565 89.1947 199.565 87.744C199.565 84.8427 200.141 82.6773 201.293 81.248C202.445 79.8187 203.97 79.104 205.869 79.104C207.149 79.104 208.173 79.4027 208.941 80C209.73 80.5973 210.349 81.3973 210.797 82.4H211.021V72.32H215.117V96H211.021V93.088ZM207.597 93.12C208.066 93.12 208.504 93.0667 208.909 92.96C209.336 92.832 209.698 92.6613 209.997 92.448C210.317 92.2133 210.562 91.9253 210.733 91.584C210.925 91.2213 211.021 90.8053 211.021 90.336V85.152C211.021 84.6827 210.925 84.2773 210.733 83.936C210.562 83.5733 210.317 83.2853 209.997 83.072C209.698 82.8373 209.336 82.6667 208.909 82.56C208.504 82.432 208.066 82.368 207.597 82.368C206.402 82.368 205.474 82.7307 204.813 83.456C204.173 84.1813 203.853 85.1733 203.853 86.432V89.056C203.853 90.3147 204.173 91.3067 204.813 92.032C205.474 92.7573 206.402 93.12 207.597 93.12ZM227.297 96.384C225.974 96.384 224.801 96.1813 223.777 95.776C222.753 95.3707 221.889 94.7947 221.185 94.048C220.502 93.3013 219.979 92.4053 219.617 91.36C219.254 90.2933 219.073 89.0987 219.073 87.776C219.073 86.432 219.254 85.2267 219.617 84.16C220.001 83.0933 220.534 82.1867 221.217 81.44C221.899 80.6933 222.721 80.1173 223.681 79.712C224.662 79.3067 225.761 79.104 226.977 79.104C228.171 79.104 229.249 79.3067 230.209 79.712C231.169 80.096 231.979 80.6507 232.641 81.376C233.323 82.1013 233.846 82.976 234.208 84C234.571 85.024 234.753 86.1547 234.753 87.392V88.736H223.169V89.152C223.169 90.3467 223.542 91.3173 224.289 92.064C225.035 92.7893 226.081 93.152 227.425 93.152C228.449 93.152 229.323 92.9493 230.049 92.544C230.795 92.1173 231.414 91.5627 231.905 90.88L234.241 93.216C233.643 94.0907 232.769 94.8373 231.617 95.456C230.486 96.0747 229.046 96.384 227.297 96.384ZM227.009 82.112C225.857 82.112 224.929 82.4747 224.225 83.2C223.521 83.9253 223.169 84.8853 223.169 86.08V86.304H230.657V86.016C230.657 84.8213 230.326 83.872 229.665 83.168C229.025 82.464 228.139 82.112 227.009 82.112ZM206.477 138.352C204.813 138.224 203.384 137.851 202.189 137.232C201.016 136.592 200.056 135.771 199.309 134.768L201.837 132.176C203.245 133.755 204.866 134.651 206.701 134.864V128.24L205.965 128.112C204.92 127.92 204.013 127.632 203.245 127.248C202.498 126.864 201.88 126.395 201.389 125.84C200.92 125.285 200.568 124.667 200.333 123.984C200.12 123.301 200.013 122.565 200.013 121.776C200.013 119.963 200.568 118.501 201.677 117.392C202.808 116.283 204.408 115.611 206.477 115.376V112.048H209.613V115.344C211 115.515 212.184 115.867 213.165 116.4C214.168 116.933 215.01 117.627 215.693 118.48L213.165 121.072C212.184 119.899 210.925 119.184 209.389 118.928V125.008L210.189 125.136C212.28 125.52 213.794 126.267 214.733 127.376C215.672 128.464 216.141 129.808 216.141 131.408C216.141 133.221 215.576 134.736 214.445 135.952C213.336 137.147 211.725 137.904 209.613 138.224V141.616H206.477V138.352ZM203.949 121.648C203.949 122.437 204.162 123.045 204.589 123.472C205.016 123.899 205.72 124.229 206.701 124.464V118.832C204.866 119.088 203.949 120.027 203.949 121.648ZM212.237 131.664C212.237 130.811 212.013 130.171 211.565 129.744C211.117 129.296 210.392 128.965 209.389 128.752V134.832C210.349 134.661 211.064 134.309 211.533 133.776C212.002 133.243 212.237 132.539 212.237 131.664ZM227.937 118.928C226.977 118.928 226.294 118.725 225.889 118.32C225.505 117.915 225.312 117.424 225.312 116.848V116.08C225.312 115.504 225.505 115.013 225.889 114.608C226.294 114.203 226.977 114 227.937 114C228.897 114 229.569 114.203 229.953 114.608C230.358 115.013 230.561 115.504 230.561 116.08V116.848C230.561 117.424 230.358 117.915 229.953 118.32C229.569 118.725 228.897 118.928 227.937 118.928ZM220.449 134.768H225.889V124.72H220.449V121.488H229.985V134.768H235.041V138H220.449V134.768ZM249.396 135.088H249.172C248.724 136.091 248.105 136.891 247.316 137.488C246.548 138.085 245.524 138.384 244.244 138.384C243.305 138.384 242.441 138.213 241.652 137.872C240.884 137.509 240.223 136.976 239.668 136.272C239.113 135.547 238.687 134.64 238.388 133.552C238.089 132.464 237.94 131.195 237.94 129.744C237.94 126.843 238.516 124.677 239.668 123.248C240.82 121.819 242.345 121.104 244.244 121.104C245.524 121.104 246.548 121.403 247.316 122C248.105 122.597 248.724 123.397 249.172 124.4H249.396V114.32H253.492V138H249.396V135.088ZM245.972 135.12C246.441 135.12 246.879 135.067 247.284 134.96C247.711 134.832 248.073 134.661 248.372 134.448C248.692 134.213 248.937 133.925 249.108 133.584C249.3 133.221 249.396 132.805 249.396 132.336V127.152C249.396 126.683 249.3 126.277 249.108 125.936C248.937 125.573 248.692 125.285 248.372 125.072C248.073 124.837 247.711 124.667 247.284 124.56C246.879 124.432 246.441 124.368 245.972 124.368C244.777 124.368 243.849 124.731 243.188 125.456C242.548 126.181 242.228 127.173 242.228 128.432V131.056C242.228 132.315 242.548 133.307 243.188 134.032C243.849 134.757 244.777 135.12 245.972 135.12ZM271.368 138C270.365 138 269.586 137.755 269.032 137.264C268.498 136.752 268.178 136.048 268.072 135.152H267.912C267.613 136.176 267.026 136.976 266.152 137.552C265.277 138.107 264.2 138.384 262.92 138.384C261.256 138.384 259.933 137.947 258.952 137.072C257.97 136.197 257.48 134.981 257.48 133.424C257.48 130.096 259.922 128.432 264.808 128.432H267.72V127.344C267.72 126.299 267.464 125.509 266.952 124.976C266.44 124.443 265.608 124.176 264.456 124.176C263.41 124.176 262.568 124.379 261.928 124.784C261.288 125.189 260.744 125.712 260.296 126.352L257.96 124.368C258.472 123.451 259.293 122.683 260.424 122.064C261.576 121.424 263.058 121.104 264.872 121.104C267.048 121.104 268.744 121.616 269.96 122.64C271.197 123.643 271.816 125.147 271.816 127.152V134.928H273.767V138H271.368ZM264.296 135.568C265.277 135.568 266.088 135.344 266.728 134.896C267.389 134.427 267.72 133.797 267.72 133.008V130.8H264.904C262.664 130.8 261.544 131.504 261.544 132.912V133.552C261.544 134.213 261.789 134.715 262.28 135.056C262.77 135.397 263.442 135.568 264.296 135.568ZM287.771 135.088H287.547C287.099 136.091 286.48 136.891 285.691 137.488C284.923 138.085 283.899 138.384 282.619 138.384C281.68 138.384 280.816 138.213 280.027 137.872C279.259 137.509 278.598 136.976 278.043 136.272C277.488 135.547 277.062 134.64 276.763 133.552C276.464 132.464 276.315 131.195 276.315 129.744C276.315 126.843 276.891 124.677 278.043 123.248C279.195 121.819 280.72 121.104 282.619 121.104C283.899 121.104 284.923 121.403 285.691 122C286.48 122.597 287.099 123.397 287.547 124.4H287.771V114.32H291.867V138H287.771V135.088ZM284.347 135.12C284.816 135.12 285.254 135.067 285.659 134.96C286.086 134.832 286.448 134.661 286.747 134.448C287.067 134.213 287.312 133.925 287.483 133.584C287.675 133.221 287.771 132.805 287.771 132.336V127.152C287.771 126.683 287.675 126.277 287.483 125.936C287.312 125.573 287.067 125.285 286.747 125.072C286.448 124.837 286.086 124.667 285.659 124.56C285.254 124.432 284.816 124.368 284.347 124.368C283.152 124.368 282.224 124.731 281.563 125.456C280.923 126.181 280.603 127.173 280.603 128.432V131.056C280.603 132.315 280.923 133.307 281.563 134.032C282.224 134.757 283.152 135.12 284.347 135.12ZM304.047 138.384C302.724 138.384 301.551 138.181 300.527 137.776C299.503 137.371 298.639 136.795 297.935 136.048C297.252 135.301 296.729 134.405 296.367 133.36C296.004 132.293 295.823 131.099 295.823 129.776C295.823 128.432 296.004 127.227 296.367 126.16C296.751 125.093 297.284 124.187 297.967 123.44C298.649 122.693 299.471 122.117 300.431 121.712C301.412 121.307 302.511 121.104 303.727 121.104C304.921 121.104 305.999 121.307 306.959 121.712C307.919 122.096 308.729 122.651 309.391 123.376C310.073 124.101 310.596 124.976 310.958 126C311.321 127.024 311.503 128.155 311.503 129.392V130.736H299.919V131.152C299.919 132.347 300.292 133.317 301.039 134.064C301.785 134.789 302.831 135.152 304.175 135.152C305.199 135.152 306.073 134.949 306.799 134.544C307.545 134.117 308.164 133.563 308.655 132.88L310.991 135.216C310.393 136.091 309.519 136.837 308.367 137.456C307.236 138.075 305.796 138.384 304.047 138.384ZM303.759 124.112C302.607 124.112 301.679 124.475 300.975 125.2C300.271 125.925 299.919 126.885 299.919 128.08V128.304H307.407V128.016C307.407 126.821 307.076 125.872 306.415 125.168C305.775 124.464 304.889 124.112 303.759 124.112Z" fill="#B2D1FF"/>
<path d="M257.672 84.352V81.056H272.904V84.352H257.672ZM257.672 91.424V88.128H272.904V91.424H257.672ZM339.99 90.784H345.494L341.302 100.736H338.198L339.99 90.784ZM342.038 84.992C340.928 84.992 340.139 84.7573 339.67 84.288C339.2 83.8187 338.966 83.2427 338.966 82.56V81.6C338.966 80.9173 339.2 80.3413 339.67 79.872C340.139 79.4027 340.928 79.168 342.038 79.168C343.147 79.168 343.936 79.4027 344.406 79.872C344.875 80.3413 345.11 80.9173 345.11 81.6V82.56C345.11 83.2427 344.875 83.8187 344.406 84.288C343.936 84.7573 343.147 84.992 342.038 84.992ZM335.158 133.808L345.206 128.368V128.112L335.158 122.672V118.768L348.918 126.32V130.16L335.158 137.712V133.808ZM353.609 126.352V123.056H368.841V126.352H353.609ZM353.609 133.424V130.128H368.841V133.424H353.609ZM915.615 174.784H921.119L916.927 184.736H913.823L915.615 174.784ZM917.663 168.992C916.553 168.992 915.764 168.757 915.295 168.288C914.825 167.819 914.591 167.243 914.591 166.56V165.6C914.591 164.917 914.825 164.341 915.295 163.872C915.764 163.403 916.553 163.168 917.663 163.168C918.772 163.168 919.561 163.403 920.031 163.872C920.5 164.341 920.735 164.917 920.735 165.6V166.56C920.735 167.243 920.5 167.819 920.031 168.288C919.561 168.757 918.772 168.992 917.663 168.992ZM819.677 258.784H825.181L820.989 268.736H817.885L819.677 258.784ZM821.725 252.992C820.616 252.992 819.826 252.757 819.357 252.288C818.888 251.819 818.653 251.243 818.653 250.56V249.6C818.653 248.917 818.888 248.341 819.357 247.872C819.826 247.403 820.616 247.168 821.725 247.168C822.834 247.168 823.624 247.403 824.093 247.872C824.562 248.341 824.797 248.917 824.797 249.6V250.56C824.797 251.243 824.562 251.819 824.093 252.288C823.624 252.757 822.834 252.992 821.725 252.992Z" fill="white"/>
<path d="M296.975 96V92.576H303.119V76.704H302.831L297.967 82.464L295.343 80.256L300.879 73.664H307.311V92.576H312.367V96H296.975ZM322.85 96.384C321.527 96.384 320.354 96.224 319.33 95.904C318.306 95.5627 317.442 95.104 316.738 94.528C316.034 93.952 315.501 93.2693 315.138 92.48C314.775 91.6907 314.594 90.8267 314.594 89.888C314.594 88.416 314.999 87.232 315.81 86.336C316.642 85.44 317.73 84.8107 319.074 84.448V84.192C317.922 83.7867 316.994 83.1573 316.29 82.304C315.607 81.4507 315.266 80.3733 315.266 79.072C315.266 78.2187 315.437 77.44 315.778 76.736C316.119 76.0107 316.61 75.392 317.25 74.88C317.89 74.368 318.679 73.9733 319.618 73.696C320.557 73.4187 321.634 73.28 322.85 73.28C324.066 73.28 325.143 73.4187 326.082 73.696C327.021 73.9733 327.81 74.368 328.45 74.88C329.09 75.392 329.581 76.0107 329.922 76.736C330.263 77.44 330.434 78.2187 330.434 79.072C330.434 80.3733 330.082 81.4507 329.378 82.304C328.695 83.1573 327.778 83.7867 326.626 84.192V84.448C327.97 84.8107 329.047 85.44 329.858 86.336C330.69 87.232 331.106 88.416 331.106 89.888C331.106 90.8267 330.925 91.6907 330.562 92.48C330.199 93.2693 329.666 93.952 328.962 94.528C328.258 95.104 327.394 95.5627 326.37 95.904C325.346 96.224 324.173 96.384 322.85 96.384ZM322.85 93.12C324.109 93.12 325.069 92.8427 325.73 92.288C326.413 91.712 326.754 90.9227 326.754 89.92V89.28C326.754 88.256 326.423 87.4667 325.762 86.912C325.101 86.336 324.13 86.048 322.85 86.048C321.57 86.048 320.599 86.336 319.938 86.912C319.277 87.4667 318.946 88.256 318.946 89.28V89.92C318.946 90.9227 319.277 91.712 319.938 92.288C320.621 92.8427 321.591 93.12 322.85 93.12ZM322.85 82.944C324.023 82.944 324.919 82.6773 325.538 82.144C326.157 81.6107 326.466 80.8747 326.466 79.936V79.488C326.466 78.5707 326.157 77.856 325.538 77.344C324.919 76.8107 324.023 76.544 322.85 76.544C321.677 76.544 320.781 76.8107 320.162 77.344C319.543 77.856 319.234 78.5707 319.234 79.488V79.936C319.234 80.8747 319.543 81.6107 320.162 82.144C320.781 82.6773 321.677 82.944 322.85 82.944ZM392.912 138V134.576H399.056V118.704H398.768L393.904 124.464L391.28 122.256L396.816 115.664H403.248V134.576H408.304V138H392.912ZM418.788 138.384C417.465 138.384 416.292 138.224 415.268 137.904C414.244 137.563 413.38 137.104 412.676 136.528C411.972 135.952 411.438 135.269 411.076 134.48C410.713 133.691 410.532 132.827 410.532 131.888C410.532 130.416 410.937 129.232 411.748 128.336C412.58 127.44 413.668 126.811 415.012 126.448V126.192C413.86 125.787 412.932 125.157 412.228 124.304C411.545 123.451 411.204 122.373 411.204 121.072C411.204 120.219 411.374 119.44 411.716 118.736C412.057 118.011 412.548 117.392 413.188 116.88C413.828 116.368 414.617 115.973 415.556 115.696C416.494 115.419 417.572 115.28 418.788 115.28C420.004 115.28 421.081 115.419 422.02 115.696C422.958 115.973 423.748 116.368 424.388 116.88C425.028 117.392 425.518 118.011 425.86 118.736C426.201 119.44 426.372 120.219 426.372 121.072C426.372 122.373 426.02 123.451 425.316 124.304C424.633 125.157 423.716 125.787 422.564 126.192V126.448C423.908 126.811 424.985 127.44 425.796 128.336C426.628 129.232 427.044 130.416 427.044 131.888C427.044 132.827 426.862 133.691 426.5 134.48C426.137 135.269 425.604 135.952 424.9 136.528C424.196 137.104 423.332 137.563 422.308 137.904C421.284 138.224 420.11 138.384 418.788 138.384ZM418.788 135.12C420.046 135.12 421.006 134.843 421.668 134.288C422.35 133.712 422.692 132.923 422.692 131.92V131.28C422.692 130.256 422.361 129.467 421.7 128.912C421.038 128.336 420.068 128.048 418.788 128.048C417.508 128.048 416.537 128.336 415.876 128.912C415.214 129.467 414.884 130.256 414.884 131.28V131.92C414.884 132.923 415.214 133.712 415.876 134.288C416.558 134.843 417.529 135.12 418.788 135.12ZM418.788 124.944C419.961 124.944 420.857 124.677 421.476 124.144C422.094 123.611 422.404 122.875 422.404 121.936V121.488C422.404 120.571 422.094 119.856 421.476 119.344C420.857 118.811 419.961 118.544 418.788 118.544C417.614 118.544 416.718 118.811 416.1 119.344C415.481 119.856 415.172 120.571 415.172 121.488V121.936C415.172 122.875 415.481 123.611 416.1 124.144C416.718 124.677 417.614 124.944 418.788 124.944Z" fill="#78F6AB"/>
<path d="M131.999 118.928C131.039 118.928 130.356 118.725 129.951 118.32C129.567 117.915 129.375 117.424 129.375 116.848V116.08C129.375 115.504 129.567 115.013 129.951 114.608C130.356 114.203 131.039 114 131.999 114C132.959 114 133.631 114.203 134.015 114.608C134.42 115.013 134.623 115.504 134.623 116.08V116.848C134.623 117.424 134.42 117.915 134.015 118.32C133.631 118.725 132.959 118.928 131.999 118.928ZM124.511 134.768H129.951V124.72H124.511V121.488H134.047V134.768H139.103V138H124.511V134.768ZM142.963 134.768H148.019V124.72H142.643V121.488H148.019V118.8C148.019 118.139 148.104 117.541 148.275 117.008C148.467 116.453 148.755 115.984 149.139 115.6C149.523 115.195 150.003 114.885 150.579 114.672C151.176 114.437 151.869 114.32 152.659 114.32H158.227V117.552H152.115V121.488H158.227V124.72H152.115V134.768H157.491V138H142.963V134.768ZM188.922 222.384C187.599 222.384 186.426 222.181 185.402 221.776C184.378 221.371 183.514 220.795 182.81 220.048C182.127 219.301 181.604 218.405 181.242 217.36C180.879 216.293 180.698 215.099 180.698 213.776C180.698 212.432 180.879 211.227 181.242 210.16C181.626 209.093 182.159 208.187 182.842 207.44C183.524 206.693 184.346 206.117 185.306 205.712C186.287 205.307 187.386 205.104 188.602 205.104C189.796 205.104 190.874 205.307 191.834 205.712C192.794 206.096 193.604 206.651 194.266 207.376C194.948 208.101 195.471 208.976 195.833 210C196.196 211.024 196.378 212.155 196.378 213.392V214.736H184.794V215.152C184.794 216.347 185.167 217.317 185.914 218.064C186.66 218.789 187.706 219.152 189.05 219.152C190.074 219.152 190.948 218.949 191.674 218.544C192.42 218.117 193.039 217.563 193.53 216.88L195.866 219.216C195.268 220.091 194.394 220.837 193.242 221.456C192.111 222.075 190.671 222.384 188.922 222.384ZM188.634 208.112C187.482 208.112 186.554 208.475 185.85 209.2C185.146 209.925 184.794 210.885 184.794 212.08V212.304H192.282V212.016C192.282 210.821 191.951 209.872 191.29 209.168C190.65 208.464 189.764 208.112 188.634 208.112ZM200.429 218.768H205.677V201.552H200.429V198.32H209.773V218.768H215.053V222H200.429V218.768ZM226.849 222.384C225.035 222.384 223.467 222.107 222.145 221.552C220.822 220.976 219.787 220.208 219.041 219.248L221.441 217.072C222.123 217.819 222.902 218.395 223.777 218.8C224.673 219.205 225.707 219.408 226.881 219.408C227.905 219.408 228.726 219.237 229.345 218.896C229.963 218.555 230.273 218.032 230.273 217.328C230.273 216.731 230.059 216.325 229.633 216.112C229.227 215.899 228.683 215.739 228.001 215.632L225.345 215.216C224.662 215.109 223.99 214.96 223.329 214.768C222.689 214.555 222.113 214.267 221.601 213.904C221.11 213.541 220.715 213.083 220.417 212.528C220.118 211.952 219.969 211.259 219.969 210.448C219.969 208.72 220.609 207.397 221.889 206.48C223.19 205.563 224.971 205.104 227.233 205.104C228.833 205.104 230.187 205.328 231.297 205.776C232.427 206.224 233.355 206.853 234.081 207.664L231.937 210.032C231.467 209.52 230.838 209.072 230.049 208.688C229.281 208.283 228.299 208.08 227.105 208.08C225.014 208.08 223.969 208.731 223.969 210.032C223.969 210.629 224.182 211.045 224.609 211.28C225.035 211.493 225.59 211.653 226.273 211.76L228.897 212.176C229.601 212.283 230.273 212.443 230.913 212.656C231.574 212.848 232.15 213.125 232.641 213.488C233.153 213.851 233.558 214.309 233.857 214.864C234.155 215.419 234.305 216.101 234.305 216.912C234.305 218.619 233.643 219.963 232.321 220.944C231.019 221.904 229.195 222.384 226.849 222.384ZM246.484 222.384C245.161 222.384 243.988 222.181 242.964 221.776C241.94 221.371 241.076 220.795 240.372 220.048C239.689 219.301 239.167 218.405 238.804 217.36C238.441 216.293 238.26 215.099 238.26 213.776C238.26 212.432 238.441 211.227 238.804 210.16C239.188 209.093 239.721 208.187 240.404 207.44C241.087 206.693 241.908 206.117 242.868 205.712C243.849 205.307 244.948 205.104 246.164 205.104C247.359 205.104 248.436 205.307 249.396 205.712C250.356 206.096 251.167 206.651 251.828 207.376C252.511 208.101 253.033 208.976 253.396 210C253.759 211.024 253.94 212.155 253.94 213.392V214.736H242.356V215.152C242.356 216.347 242.729 217.317 243.476 218.064C244.223 218.789 245.268 219.152 246.612 219.152C247.636 219.152 248.511 218.949 249.236 218.544C249.983 218.117 250.601 217.563 251.092 216.88L253.428 219.216C252.831 220.091 251.956 220.837 250.804 221.456C249.673 222.075 248.233 222.384 246.484 222.384ZM246.196 208.112C245.044 208.112 244.116 208.475 243.412 209.2C242.708 209.925 242.356 210.885 242.356 212.08V212.304H249.844V212.016C249.844 210.821 249.513 209.872 248.852 209.168C248.212 208.464 247.327 208.112 246.196 208.112Z" fill="#E262EE"/>
<path d="M184.794 128.048C184.794 126.491 184.964 124.997 185.306 123.568C185.668 122.117 186.148 120.773 186.746 119.536C187.364 118.299 188.079 117.189 188.89 116.208C189.7 115.205 190.554 114.363 191.45 113.68H195.546C194.586 114.363 193.668 115.163 192.794 116.08C191.919 116.997 191.151 118.011 190.49 119.12C189.828 120.208 189.295 121.381 188.89 122.64C188.506 123.877 188.314 125.168 188.314 126.512V129.584C188.314 130.928 188.506 132.229 188.89 133.488C189.295 134.725 189.828 135.899 190.49 137.008C191.151 138.096 191.919 139.099 192.794 140.016C193.668 140.933 194.586 141.733 195.546 142.416H191.45C190.554 141.755 189.7 140.923 188.89 139.92C188.079 138.917 187.364 137.797 186.746 136.56C186.148 135.323 185.668 133.989 185.306 132.56C184.964 131.109 184.794 129.605 184.794 128.048ZM441.719 128.048C441.719 129.605 441.538 131.109 441.175 132.56C440.834 133.989 440.354 135.323 439.735 136.56C439.138 137.797 438.434 138.917 437.623 139.92C436.812 140.923 435.959 141.755 435.063 142.416H430.967C431.927 141.733 432.844 140.933 433.719 140.016C434.594 139.099 435.362 138.096 436.023 137.008C436.684 135.899 437.207 134.725 437.591 133.488C437.996 132.229 438.199 130.928 438.199 129.584V126.512C438.199 125.168 437.996 123.877 437.591 122.64C437.207 121.381 436.684 120.208 436.023 119.12C435.362 118.011 434.594 116.997 433.719 116.08C432.844 115.163 431.927 114.363 430.967 113.68H435.063C435.959 114.363 436.812 115.205 437.623 116.208C438.434 117.189 439.138 118.299 439.735 119.536C440.354 120.773 440.834 122.117 441.175 123.568C441.538 124.997 441.719 126.491 441.719 128.048ZM477.214 142.416C475.934 142.416 475.006 142.117 474.43 141.52C473.854 140.923 473.566 140.155 473.566 139.216V137.616C473.566 137.061 473.619 136.581 473.726 136.176C473.854 135.749 474.003 135.376 474.174 135.056C474.345 134.736 474.537 134.448 474.75 134.192C474.963 133.936 475.166 133.691 475.358 133.456C475.721 133.029 475.966 132.667 476.094 132.368C476.243 132.048 476.318 131.717 476.318 131.376C476.318 130.096 475.081 129.456 472.606 129.456H469.822V126.64H472.606C475.081 126.64 476.318 126 476.318 124.72C476.318 124.379 476.243 124.059 476.094 123.76C475.966 123.44 475.721 123.067 475.358 122.64C475.166 122.405 474.963 122.16 474.75 121.904C474.537 121.648 474.345 121.36 474.174 121.04C474.003 120.72 473.854 120.357 473.726 119.952C473.619 119.525 473.566 119.035 473.566 118.48V116.88C473.566 115.941 473.854 115.173 474.43 114.576C475.006 113.979 475.934 113.68 477.214 113.68H482.878V116.496H476.894V118.288C476.894 119.12 477.022 119.76 477.278 120.208C477.534 120.656 477.833 121.093 478.174 121.52C478.537 121.968 478.878 122.448 479.198 122.96C479.518 123.472 479.678 124.069 479.678 124.752C479.678 125.648 479.369 126.373 478.75 126.928C478.131 127.461 477.214 127.803 475.998 127.952V128.144C477.214 128.293 478.131 128.645 478.75 129.2C479.369 129.733 479.678 130.448 479.678 131.344C479.678 132.027 479.518 132.624 479.198 133.136C478.878 133.648 478.537 134.128 478.174 134.576C477.833 135.003 477.534 135.44 477.278 135.888C477.022 136.336 476.894 136.976 476.894 137.808V139.6H482.878V142.416H477.214ZM149.299 197.68C150.579 197.68 151.507 197.979 152.083 198.576C152.659 199.173 152.947 199.941 152.947 200.88V202.48C152.947 203.035 152.883 203.525 152.755 203.952C152.648 204.357 152.509 204.72 152.339 205.04C152.168 205.36 151.976 205.648 151.763 205.904C151.549 206.16 151.347 206.405 151.155 206.64C150.792 207.067 150.536 207.44 150.387 207.76C150.259 208.059 150.195 208.379 150.195 208.72C150.195 210 151.432 210.64 153.907 210.64H156.691V213.456H153.907C151.432 213.456 150.195 214.096 150.195 215.376C150.195 215.717 150.259 216.048 150.387 216.368C150.536 216.667 150.792 217.029 151.155 217.456C151.347 217.691 151.549 217.936 151.763 218.192C151.976 218.448 152.168 218.736 152.339 219.056C152.509 219.376 152.648 219.749 152.755 220.176C152.883 220.581 152.947 221.061 152.947 221.616V223.216C152.947 224.155 152.659 224.923 152.083 225.52C151.507 226.117 150.579 226.416 149.299 226.416H143.635V223.6H149.619V221.808C149.619 220.976 149.491 220.336 149.235 219.888C148.979 219.44 148.68 219.003 148.339 218.576C147.976 218.128 147.635 217.648 147.315 217.136C146.995 216.624 146.835 216.027 146.835 215.344C146.835 214.448 147.144 213.733 147.763 213.2C148.381 212.645 149.299 212.293 150.515 212.144V211.952C149.299 211.803 148.381 211.461 147.763 210.928C147.144 210.373 146.835 209.648 146.835 208.752C146.835 208.069 146.995 207.472 147.315 206.96C147.635 206.448 147.976 205.968 148.339 205.52C148.68 205.093 148.979 204.656 149.235 204.208C149.491 203.76 149.619 203.12 149.619 202.288V200.496H143.635V197.68H149.299ZM285.339 226.416C284.059 226.416 283.131 226.117 282.555 225.52C281.979 224.923 281.691 224.155 281.691 223.216V221.616C281.691 221.061 281.744 220.581 281.851 220.176C281.979 219.749 282.128 219.376 282.299 219.056C282.47 218.736 282.662 218.448 282.875 218.192C283.088 217.936 283.291 217.691 283.483 217.456C283.846 217.029 284.091 216.667 284.219 216.368C284.368 216.048 284.443 215.717 284.443 215.376C284.443 214.096 283.206 213.456 280.731 213.456H277.947V210.64H280.731C283.206 210.64 284.443 210 284.443 208.72C284.443 208.379 284.368 208.059 284.219 207.76C284.091 207.44 283.846 207.067 283.483 206.64C283.291 206.405 283.088 206.16 282.875 205.904C282.662 205.648 282.47 205.36 282.299 205.04C282.128 204.72 281.979 204.357 281.851 203.952C281.744 203.525 281.691 203.035 281.691 202.48V200.88C281.691 199.941 281.979 199.173 282.555 198.576C283.131 197.979 284.059 197.68 285.339 197.68H291.003V200.496H285.019V202.288C285.019 203.12 285.147 203.76 285.403 204.208C285.659 204.656 285.958 205.093 286.299 205.52C286.662 205.968 287.003 206.448 287.323 206.96C287.643 207.472 287.803 208.069 287.803 208.752C287.803 209.648 287.494 210.373 286.875 210.928C286.256 211.461 285.339 211.803 284.123 211.952V212.144C285.339 212.293 286.256 212.645 286.875 213.2C287.494 213.733 287.803 214.448 287.803 215.344C287.803 216.027 287.643 216.624 287.323 217.136C287.003 217.648 286.662 218.128 286.299 218.576C285.958 219.003 285.659 219.44 285.403 219.888C285.147 220.336 285.019 220.976 285.019 221.808V223.6H291.003V226.416H285.339Z" fill="#EECE32"/>
<path d="M150.547 180.384C149.224 180.384 148.051 180.181 147.027 179.776C146.003 179.371 145.139 178.795 144.435 178.048C143.752 177.301 143.229 176.405 142.867 175.36C142.504 174.293 142.323 173.099 142.323 171.776C142.323 170.432 142.504 169.227 142.867 168.16C143.251 167.093 143.784 166.187 144.467 165.44C145.149 164.693 145.971 164.117 146.931 163.712C147.912 163.307 149.011 163.104 150.227 163.104C151.421 163.104 152.499 163.307 153.459 163.712C154.419 164.096 155.229 164.651 155.891 165.376C156.573 166.101 157.096 166.976 157.458 168C157.821 169.024 158.003 170.155 158.003 171.392V172.736H146.419V173.152C146.419 174.347 146.792 175.317 147.539 176.064C148.285 176.789 149.331 177.152 150.675 177.152C151.699 177.152 152.573 176.949 153.299 176.544C154.045 176.117 154.664 175.563 155.155 174.88L157.491 177.216C156.893 178.091 156.019 178.837 154.867 179.456C153.736 180.075 152.296 180.384 150.547 180.384ZM150.259 166.112C149.107 166.112 148.179 166.475 147.475 167.2C146.771 167.925 146.419 168.885 146.419 170.08V170.304H153.907V170.016C153.907 168.821 153.576 167.872 152.915 167.168C152.275 166.464 151.389 166.112 150.259 166.112ZM169.99 180.384C168.731 180.384 167.601 180.181 166.598 179.776C165.595 179.371 164.742 178.795 164.038 178.048C163.355 177.301 162.822 176.395 162.438 175.328C162.075 174.261 161.894 173.067 161.894 171.744C161.894 170.421 162.075 169.227 162.438 168.16C162.822 167.093 163.355 166.187 164.038 165.44C164.742 164.693 165.585 164.117 166.566 163.712C167.569 163.307 168.699 163.104 169.958 163.104C171.707 163.104 173.115 163.467 174.182 164.192C175.249 164.917 176.059 165.877 176.614 167.072L173.446 168.8C173.147 168.096 172.721 167.531 172.166 167.104C171.633 166.656 170.897 166.432 169.958 166.432C168.742 166.432 167.803 166.784 167.142 167.488C166.502 168.192 166.182 169.152 166.182 170.368V173.12C166.182 174.315 166.502 175.275 167.142 176C167.803 176.704 168.763 177.056 170.022 177.056C171.003 177.056 171.782 176.832 172.358 176.384C172.955 175.936 173.435 175.339 173.798 174.592L176.87 176.416C176.315 177.589 175.473 178.549 174.342 179.296C173.233 180.021 171.782 180.384 169.99 180.384ZM181.338 156.32H185.434V166.4H185.594C185.956 165.504 186.511 164.736 187.258 164.096C188.026 163.435 189.082 163.104 190.426 163.104C192.047 163.104 193.359 163.648 194.362 164.736C195.386 165.803 195.898 167.339 195.898 169.344V180H191.802V169.92C191.802 167.531 190.767 166.336 188.698 166.336C188.271 166.336 187.866 166.389 187.482 166.496C187.098 166.603 186.746 166.773 186.426 167.008C186.127 167.221 185.882 167.488 185.69 167.808C185.519 168.128 185.434 168.512 185.434 168.96V180H181.338V156.32ZM207.725 180.384C206.466 180.384 205.336 180.181 204.333 179.776C203.352 179.371 202.509 178.795 201.805 178.048C201.122 177.301 200.589 176.395 200.205 175.328C199.842 174.261 199.661 173.067 199.661 171.744C199.661 170.421 199.842 169.227 200.205 168.16C200.589 167.093 201.122 166.187 201.805 165.44C202.509 164.693 203.352 164.117 204.333 163.712C205.336 163.307 206.466 163.104 207.725 163.104C208.962 163.104 210.082 163.307 211.085 163.712C212.088 164.117 212.93 164.693 213.613 165.44C214.317 166.187 214.85 167.093 215.213 168.16C215.597 169.227 215.789 170.421 215.789 171.744C215.789 173.067 215.597 174.261 215.213 175.328C214.85 176.395 214.317 177.301 213.613 178.048C212.93 178.795 212.088 179.371 211.085 179.776C210.082 180.181 208.962 180.384 207.725 180.384ZM207.725 177.248C208.898 177.248 209.826 176.896 210.509 176.192C211.192 175.467 211.533 174.411 211.533 173.024V170.464C211.533 169.077 211.192 168.032 210.509 167.328C209.826 166.603 208.898 166.24 207.725 166.24C206.552 166.24 205.624 166.603 204.941 167.328C204.258 168.032 203.917 169.077 203.917 170.464V173.024C203.917 174.411 204.258 175.467 204.941 176.192C205.624 176.896 206.552 177.248 207.725 177.248ZM169.734 264.384C168.411 264.384 167.238 264.181 166.214 263.776C165.19 263.371 164.326 262.795 163.622 262.048C162.939 261.301 162.417 260.405 162.054 259.36C161.691 258.293 161.51 257.099 161.51 255.776C161.51 254.432 161.691 253.227 162.054 252.16C162.438 251.093 162.971 250.187 163.654 249.44C164.337 248.693 165.158 248.117 166.118 247.712C167.099 247.307 168.198 247.104 169.414 247.104C170.609 247.104 171.686 247.307 172.646 247.712C173.606 248.096 174.417 248.651 175.078 249.376C175.761 250.101 176.283 250.976 176.646 252C177.009 253.024 177.19 254.155 177.19 255.392V256.736H165.606V257.152C165.606 258.347 165.979 259.317 166.726 260.064C167.473 260.789 168.518 261.152 169.862 261.152C170.886 261.152 171.761 260.949 172.486 260.544C173.233 260.117 173.851 259.563 174.342 258.88L176.678 261.216C176.081 262.091 175.206 262.837 174.054 263.456C172.923 264.075 171.483 264.384 169.734 264.384ZM169.446 250.112C168.294 250.112 167.366 250.475 166.662 251.2C165.958 251.925 165.606 252.885 165.606 254.08V254.304H173.094V254.016C173.094 252.821 172.763 251.872 172.102 251.168C171.462 250.464 170.577 250.112 169.446 250.112ZM189.178 264.384C187.919 264.384 186.788 264.181 185.786 263.776C184.783 263.371 183.93 262.795 183.226 262.048C182.543 261.301 182.01 260.395 181.626 259.328C181.263 258.261 181.082 257.067 181.082 255.744C181.082 254.421 181.263 253.227 181.626 252.16C182.01 251.093 182.543 250.187 183.226 249.44C183.93 248.693 184.772 248.117 185.754 247.712C186.756 247.307 187.887 247.104 189.146 247.104C190.895 247.104 192.303 247.467 193.37 248.192C194.436 248.917 195.247 249.877 195.802 251.072L192.634 252.8C192.335 252.096 191.908 251.531 191.354 251.104C190.82 250.656 190.084 250.432 189.146 250.432C187.93 250.432 186.991 250.784 186.33 251.488C185.69 252.192 185.37 253.152 185.37 254.368V257.12C185.37 258.315 185.69 259.275 186.33 260C186.991 260.704 187.951 261.056 189.21 261.056C190.191 261.056 190.97 260.832 191.546 260.384C192.143 259.936 192.623 259.339 192.986 258.592L196.058 260.416C195.503 261.589 194.66 262.549 193.53 263.296C192.42 264.021 190.97 264.384 189.178 264.384ZM200.525 240.32H204.621V250.4H204.781C205.144 249.504 205.698 248.736 206.445 248.096C207.213 247.435 208.269 247.104 209.613 247.104C211.234 247.104 212.546 247.648 213.549 248.736C214.573 249.803 215.085 251.339 215.085 253.344V264H210.989V253.92C210.989 251.531 209.954 250.336 207.885 250.336C207.458 250.336 207.053 250.389 206.669 250.496C206.285 250.603 205.933 250.773 205.613 251.008C205.314 251.221 205.069 251.488 204.877 251.808C204.706 252.128 204.621 252.512 204.621 252.96V264H200.525V240.32ZM226.913 264.384C225.654 264.384 224.523 264.181 223.521 263.776C222.539 263.371 221.697 262.795 220.993 262.048C220.31 261.301 219.777 260.395 219.393 259.328C219.03 258.261 218.849 257.067 218.849 255.744C218.849 254.421 219.03 253.227 219.393 252.16C219.777 251.093 220.31 250.187 220.993 249.44C221.697 248.693 222.539 248.117 223.521 247.712C224.523 247.307 225.654 247.104 226.913 247.104C228.15 247.104 229.27 247.307 230.273 247.712C231.275 248.117 232.118 248.693 232.801 249.44C233.505 250.187 234.038 251.093 234.401 252.16C234.785 253.227 234.977 254.421 234.977 255.744C234.977 257.067 234.785 258.261 234.401 259.328C234.038 260.395 233.505 261.301 232.801 262.048C232.118 262.795 231.275 263.371 230.273 263.776C229.27 264.181 228.15 264.384 226.913 264.384ZM226.913 261.248C228.086 261.248 229.014 260.896 229.697 260.192C230.379 259.467 230.721 258.411 230.721 257.024V254.464C230.721 253.077 230.379 252.032 229.697 251.328C229.014 250.603 228.086 250.24 226.913 250.24C225.739 250.24 224.811 250.603 224.129 251.328C223.446 252.032 223.105 253.077 223.105 254.464V257.024C223.105 258.411 223.446 259.467 224.129 260.192C224.811 260.896 225.739 261.248 226.913 261.248Z" fill="#F4E498"/>
<path d="M240.916 166.304V156.32H244.628V166.304H240.916ZM247.604 166.304V156.32H251.316V166.304H247.604ZM262.344 180L256.232 157.664H260.84L263.624 168.96L265.256 176H265.48L267.144 168.96L269.96 157.664H274.344L268.232 180H262.344ZM284.475 180.384C283.216 180.384 282.086 180.181 281.083 179.776C280.102 179.371 279.259 178.795 278.555 178.048C277.872 177.301 277.339 176.395 276.955 175.328C276.592 174.261 276.411 173.067 276.411 171.744C276.411 170.421 276.592 169.227 276.955 168.16C277.339 167.093 277.872 166.187 278.555 165.44C279.259 164.693 280.102 164.117 281.083 163.712C282.086 163.307 283.216 163.104 284.475 163.104C285.712 163.104 286.832 163.307 287.835 163.712C288.838 164.117 289.68 164.693 290.363 165.44C291.067 166.187 291.6 167.093 291.963 168.16C292.347 169.227 292.539 170.421 292.539 171.744C292.539 173.067 292.347 174.261 291.963 175.328C291.6 176.395 291.067 177.301 290.363 178.048C289.68 178.795 288.838 179.371 287.835 179.776C286.832 180.181 285.712 180.384 284.475 180.384ZM284.475 177.248C285.648 177.248 286.576 176.896 287.259 176.192C287.942 175.467 288.283 174.411 288.283 173.024V170.464C288.283 169.077 287.942 168.032 287.259 167.328C286.576 166.603 285.648 166.24 284.475 166.24C283.302 166.24 282.374 166.603 281.691 167.328C281.008 168.032 280.667 169.077 280.667 170.464V173.024C280.667 174.411 281.008 175.467 281.691 176.192C282.374 176.896 283.302 177.248 284.475 177.248ZM304.303 180.384C303.044 180.384 301.913 180.181 300.911 179.776C299.908 179.371 299.055 178.795 298.351 178.048C297.668 177.301 297.135 176.395 296.751 175.328C296.388 174.261 296.207 173.067 296.207 171.744C296.207 170.421 296.388 169.227 296.751 168.16C297.135 167.093 297.668 166.187 298.351 165.44C299.055 164.693 299.897 164.117 300.879 163.712C301.881 163.307 303.012 163.104 304.271 163.104C306.02 163.104 307.428 163.467 308.495 164.192C309.561 164.917 310.372 165.877 310.927 167.072L307.759 168.8C307.46 168.096 307.033 167.531 306.479 167.104C305.945 166.656 305.209 166.432 304.271 166.432C303.055 166.432 302.116 166.784 301.455 167.488C300.815 168.192 300.495 169.152 300.495 170.368V173.12C300.495 174.315 300.815 175.275 301.455 176C302.116 176.704 303.076 177.056 304.335 177.056C305.316 177.056 306.095 176.832 306.671 176.384C307.268 175.936 307.748 175.339 308.111 174.592L311.183 176.416C310.628 177.589 309.785 178.549 308.655 179.296C307.545 180.021 306.095 180.384 304.303 180.384ZM324.738 155.04L328.77 160L326.658 161.568L322.818 157.888L318.978 161.568L316.994 160L321.026 155.04H324.738ZM323.234 180.384C321.911 180.384 320.738 180.181 319.714 179.776C318.69 179.371 317.826 178.795 317.122 178.048C316.439 177.301 315.917 176.405 315.554 175.36C315.191 174.293 315.01 173.099 315.01 171.776C315.01 170.432 315.191 169.227 315.554 168.16C315.938 167.093 316.471 166.187 317.154 165.44C317.837 164.693 318.658 164.117 319.618 163.712C320.599 163.307 321.698 163.104 322.914 163.104C324.109 163.104 325.186 163.307 326.146 163.712C327.106 164.096 327.917 164.651 328.578 165.376C329.261 166.101 329.783 166.976 330.146 168C330.509 169.024 330.69 170.155 330.69 171.392V172.736H319.106V173.152C319.106 174.347 319.479 175.317 320.226 176.064C320.973 176.789 322.018 177.152 323.362 177.152C324.386 177.152 325.261 176.949 325.986 176.544C326.733 176.117 327.351 175.563 327.842 174.88L330.178 177.216C329.581 178.091 328.706 178.837 327.554 179.456C326.423 180.075 324.983 180.384 323.234 180.384ZM322.946 166.112C321.794 166.112 320.866 166.475 320.162 167.2C319.458 167.925 319.106 168.885 319.106 170.08V170.304H326.594V170.016C326.594 168.821 326.263 167.872 325.602 167.168C324.962 166.464 324.077 166.112 322.946 166.112ZM354.665 183.168H361.481V166.72H354.537V163.488H365.577V181.92C365.577 183.243 365.204 184.32 364.457 185.152C363.71 185.984 362.548 186.4 360.969 186.4H354.665V183.168ZM363.561 160.928C362.601 160.928 361.918 160.725 361.513 160.32C361.129 159.915 360.937 159.424 360.937 158.848V158.08C360.937 157.504 361.129 157.013 361.513 156.608C361.918 156.203 362.601 156 363.561 156C364.521 156 365.193 156.203 365.577 156.608C365.982 157.013 366.185 157.504 366.185 158.08V158.848C366.185 159.424 365.982 159.915 365.577 160.32C365.193 160.725 364.521 160.928 363.561 160.928ZM386.493 180C385.49 180 384.711 179.755 384.157 179.264C383.623 178.752 383.303 178.048 383.197 177.152H383.037C382.738 178.176 382.151 178.976 381.277 179.552C380.402 180.107 379.325 180.384 378.045 180.384C376.381 180.384 375.058 179.947 374.077 179.072C373.095 178.197 372.605 176.981 372.605 175.424C372.605 172.096 375.047 170.432 379.933 170.432H382.845V169.344C382.845 168.299 382.589 167.509 382.077 166.976C381.565 166.443 380.733 166.176 379.581 166.176C378.535 166.176 377.693 166.379 377.053 166.784C376.413 167.189 375.869 167.712 375.421 168.352L373.085 166.368C373.597 165.451 374.418 164.683 375.549 164.064C376.701 163.424 378.183 163.104 379.997 163.104C382.173 163.104 383.869 163.616 385.085 164.64C386.322 165.643 386.941 167.147 386.941 169.152V176.928H388.892V180H386.493ZM379.421 177.568C380.402 177.568 381.213 177.344 381.853 176.896C382.514 176.427 382.845 175.797 382.845 175.008V172.8H380.029C377.789 172.8 376.669 173.504 376.669 174.912V175.552C376.669 176.213 376.914 176.715 377.405 177.056C377.895 177.397 378.567 177.568 379.421 177.568ZM380.541 161.6L378.077 160.416L381.117 154.432L384.573 156.16L380.541 161.6ZM411.396 163.488H415.492V166.4H415.716C416.164 165.397 416.772 164.597 417.54 164C418.329 163.403 419.364 163.104 420.644 163.104C421.582 163.104 422.436 163.285 423.204 163.648C423.993 163.989 424.665 164.523 425.22 165.248C425.774 165.952 426.201 166.848 426.5 167.936C426.798 169.024 426.948 170.293 426.948 171.744C426.948 173.195 426.798 174.464 426.5 175.552C426.201 176.64 425.774 177.547 425.22 178.272C424.665 178.976 423.993 179.509 423.204 179.872C422.436 180.213 421.582 180.384 420.644 180.384C419.364 180.384 418.329 180.085 417.54 179.488C416.772 178.891 416.164 178.091 415.716 177.088H415.492V186.4H411.396V163.488ZM418.916 177.12C420.11 177.12 421.028 176.757 421.668 176.032C422.329 175.307 422.66 174.315 422.66 173.056V170.432C422.66 169.173 422.329 168.181 421.668 167.456C421.028 166.731 420.11 166.368 418.916 166.368C417.977 166.368 417.166 166.603 416.484 167.072C415.822 167.52 415.492 168.213 415.492 169.152V174.336C415.492 175.275 415.822 175.979 416.484 176.448C417.166 176.896 417.977 177.12 418.916 177.12ZM437.975 180.384C436.716 180.384 435.586 180.181 434.583 179.776C433.602 179.371 432.759 178.795 432.055 178.048C431.372 177.301 430.839 176.395 430.455 175.328C430.092 174.261 429.911 173.067 429.911 171.744C429.911 170.421 430.092 169.227 430.455 168.16C430.839 167.093 431.372 166.187 432.055 165.44C432.759 164.693 433.602 164.117 434.583 163.712C435.586 163.307 436.716 163.104 437.975 163.104C439.212 163.104 440.332 163.307 441.335 163.712C442.338 164.117 443.18 164.693 443.863 165.44C444.567 166.187 445.1 167.093 445.463 168.16C445.847 169.227 446.039 170.421 446.039 171.744C446.039 173.067 445.847 174.261 445.463 175.328C445.1 176.395 444.567 177.301 443.863 178.048C443.18 178.795 442.338 179.371 441.335 179.776C440.332 180.181 439.212 180.384 437.975 180.384ZM437.975 177.248C439.148 177.248 440.076 176.896 440.759 176.192C441.442 175.467 441.783 174.411 441.783 173.024V170.464C441.783 169.077 441.442 168.032 440.759 167.328C440.076 166.603 439.148 166.24 437.975 166.24C436.802 166.24 435.874 166.603 435.191 167.328C434.508 168.032 434.167 169.077 434.167 170.464V173.024C434.167 174.411 434.508 175.467 435.191 176.192C435.874 176.896 436.802 177.248 437.975 177.248ZM460.459 177.088H460.235C459.787 178.091 459.168 178.891 458.379 179.488C457.611 180.085 456.587 180.384 455.307 180.384C454.368 180.384 453.504 180.213 452.715 179.872C451.947 179.509 451.285 178.976 450.731 178.272C450.176 177.547 449.749 176.64 449.451 175.552C449.152 174.464 449.003 173.195 449.003 171.744C449.003 168.843 449.579 166.677 450.731 165.248C451.883 163.819 453.408 163.104 455.307 163.104C456.587 163.104 457.611 163.403 458.379 164C459.168 164.597 459.787 165.397 460.235 166.4H460.459V156.32H464.555V180H460.459V177.088ZM457.035 177.12C457.504 177.12 457.941 177.067 458.347 176.96C458.773 176.832 459.136 176.661 459.435 176.448C459.755 176.213 460 175.925 460.171 175.584C460.363 175.221 460.459 174.805 460.459 174.336V169.152C460.459 168.683 460.363 168.277 460.171 167.936C460 167.573 459.755 167.285 459.435 167.072C459.136 166.837 458.773 166.667 458.347 166.56C457.941 166.432 457.504 166.368 457.035 166.368C455.84 166.368 454.912 166.731 454.251 167.456C453.611 168.181 453.291 169.173 453.291 170.432V173.056C453.291 174.315 453.611 175.307 454.251 176.032C454.912 176.757 455.84 177.12 457.035 177.12ZM476.734 180.384C475.411 180.384 474.238 180.181 473.214 179.776C472.19 179.371 471.326 178.795 470.622 178.048C469.939 177.301 469.417 176.405 469.054 175.36C468.691 174.293 468.51 173.099 468.51 171.776C468.51 170.432 468.691 169.227 469.054 168.16C469.438 167.093 469.971 166.187 470.654 165.44C471.337 164.693 472.158 164.117 473.118 163.712C474.099 163.307 475.198 163.104 476.414 163.104C477.609 163.104 478.686 163.307 479.646 163.712C480.606 164.096 481.417 164.651 482.078 165.376C482.761 166.101 483.283 166.976 483.646 168C484.009 169.024 484.19 170.155 484.19 171.392V172.736H472.606V173.152C472.606 174.347 472.979 175.317 473.726 176.064C474.473 176.789 475.518 177.152 476.862 177.152C477.886 177.152 478.761 176.949 479.486 176.544C480.233 176.117 480.851 175.563 481.342 174.88L483.678 177.216C483.081 178.091 482.206 178.837 481.054 179.456C479.923 180.075 478.483 180.384 476.734 180.384ZM476.446 166.112C475.294 166.112 474.366 166.475 473.662 167.2C472.958 167.925 472.606 168.885 472.606 170.08V170.304H480.094V170.016C480.094 168.821 479.763 167.872 479.102 167.168C478.462 166.464 477.577 166.112 476.446 166.112ZM517.829 177.088H517.669C517.306 177.984 516.741 178.763 515.973 179.424C515.226 180.064 514.181 180.384 512.837 180.384C511.216 180.384 509.893 179.851 508.869 178.784C507.866 177.696 507.365 176.149 507.365 174.144V163.488H511.461V173.568C511.461 175.957 512.496 177.152 514.565 177.152C514.97 177.152 515.365 177.099 515.749 176.992C516.154 176.885 516.506 176.725 516.805 176.512C517.125 176.277 517.37 176 517.541 175.68C517.733 175.36 517.829 174.976 517.829 174.528V163.488H521.925V180H517.829V177.088ZM533.849 180.384C532.035 180.384 530.467 180.107 529.145 179.552C527.822 178.976 526.787 178.208 526.041 177.248L528.441 175.072C529.123 175.819 529.902 176.395 530.777 176.8C531.673 177.205 532.707 177.408 533.881 177.408C534.905 177.408 535.726 177.237 536.345 176.896C536.963 176.555 537.273 176.032 537.273 175.328C537.273 174.731 537.059 174.325 536.633 174.112C536.227 173.899 535.683 173.739 535.001 173.632L532.345 173.216C531.662 173.109 530.99 172.96 530.329 172.768C529.689 172.555 529.113 172.267 528.601 171.904C528.11 171.541 527.715 171.083 527.417 170.528C527.118 169.952 526.969 169.259 526.969 168.448C526.969 166.72 527.609 165.397 528.889 164.48C530.19 163.563 531.971 163.104 534.233 163.104C535.833 163.104 537.187 163.328 538.297 163.776C539.427 164.224 540.355 164.853 541.081 165.664L538.937 168.032C538.467 167.52 537.838 167.072 537.049 166.688C536.281 166.283 535.299 166.08 534.105 166.08C532.014 166.08 530.969 166.731 530.969 168.032C530.969 168.629 531.182 169.045 531.609 169.28C532.035 169.493 532.59 169.653 533.273 169.76L535.897 170.176C536.601 170.283 537.273 170.443 537.913 170.656C538.574 170.848 539.15 171.125 539.641 171.488C540.153 171.851 540.558 172.309 540.857 172.864C541.155 173.419 541.305 174.101 541.305 174.912C541.305 176.619 540.643 177.963 539.321 178.944C538.019 179.904 536.195 180.384 533.849 180.384ZM559.18 180C558.177 180 557.399 179.755 556.844 179.264C556.311 178.752 555.991 178.048 555.884 177.152H555.724C555.425 178.176 554.839 178.976 553.964 179.552C553.089 180.107 552.012 180.384 550.732 180.384C549.068 180.384 547.745 179.947 546.764 179.072C545.783 178.197 545.292 176.981 545.292 175.424C545.292 172.096 547.735 170.432 552.62 170.432H555.532V169.344C555.532 168.299 555.276 167.509 554.764 166.976C554.252 166.443 553.42 166.176 552.268 166.176C551.223 166.176 550.38 166.379 549.74 166.784C549.1 167.189 548.556 167.712 548.108 168.352L545.772 166.368C546.284 165.451 547.105 164.683 548.236 164.064C549.388 163.424 550.871 163.104 552.684 163.104C554.86 163.104 556.556 163.616 557.772 164.64C559.009 165.643 559.628 167.147 559.628 169.152V176.928H561.58V180H559.18ZM552.108 177.568C553.089 177.568 553.9 177.344 554.54 176.896C555.201 176.427 555.532 175.797 555.532 175.008V172.8H552.716C550.476 172.8 549.356 173.504 549.356 174.912V175.552C549.356 176.213 549.601 176.715 550.092 177.056C550.583 177.397 551.255 177.568 552.108 177.568ZM565.088 176.768H569.184V166.72H565.088V163.488H573.28V168H573.536C573.685 167.424 573.888 166.869 574.144 166.336C574.421 165.781 574.762 165.301 575.168 164.896C575.594 164.469 576.106 164.128 576.704 163.872C577.301 163.616 578.016 163.488 578.847 163.488H580.64V167.328H577.248C576.01 167.328 575.04 167.691 574.336 168.416C573.632 169.141 573.28 170.069 573.28 171.2V176.768H579.008V180H565.088V176.768ZM602.247 180V163.488H605.639V165.76H605.831C606.087 165.035 606.449 164.416 606.919 163.904C607.409 163.371 608.092 163.104 608.967 163.104C609.799 163.104 610.46 163.349 610.951 163.84C611.441 164.309 611.761 164.981 611.911 165.856H612.071C612.348 165.109 612.753 164.469 613.287 163.936C613.841 163.381 614.62 163.104 615.623 163.104C616.839 163.104 617.713 163.541 618.247 164.416C618.78 165.291 619.047 166.581 619.047 168.288V180H615.687V168.768C615.687 167.808 615.548 167.136 615.271 166.752C615.015 166.368 614.62 166.176 614.087 166.176C613.596 166.176 613.18 166.336 612.839 166.656C612.519 166.976 612.359 167.467 612.359 168.128V180H608.967V168.768C608.967 167.808 608.839 167.136 608.583 166.752C608.327 166.368 607.932 166.176 607.399 166.176C606.887 166.176 606.46 166.336 606.119 166.656C605.799 166.976 605.639 167.467 605.639 168.128V180H602.247ZM635.93 180C634.927 180 634.149 179.755 633.594 179.264C633.061 178.752 632.741 178.048 632.634 177.152H632.474C632.175 178.176 631.589 178.976 630.714 179.552C629.839 180.107 628.762 180.384 627.482 180.384C625.818 180.384 624.495 179.947 623.514 179.072C622.533 178.197 622.042 176.981 622.042 175.424C622.042 172.096 624.485 170.432 629.37 170.432H632.282V169.344C632.282 168.299 632.026 167.509 631.514 166.976C631.002 166.443 630.17 166.176 629.018 166.176C627.973 166.176 627.13 166.379 626.49 166.784C625.85 167.189 625.306 167.712 624.858 168.352L622.522 166.368C623.034 165.451 623.855 164.683 624.986 164.064C626.138 163.424 627.621 163.104 629.434 163.104C631.61 163.104 633.306 163.616 634.522 164.64C635.759 165.643 636.378 167.147 636.378 169.152V176.928H638.33V180H635.93ZM628.858 177.568C629.839 177.568 630.65 177.344 631.29 176.896C631.951 176.427 632.282 175.797 632.282 175.008V172.8H629.466C627.226 172.8 626.106 173.504 626.106 174.912V175.552C626.106 176.213 626.351 176.715 626.842 177.056C627.333 177.397 628.005 177.568 628.858 177.568ZM657.87 181.728C657.87 183.456 657.144 184.725 655.694 185.536C654.264 186.368 652.024 186.784 648.974 186.784C647.48 186.784 646.232 186.688 645.23 186.496C644.227 186.325 643.416 186.069 642.798 185.728C642.2 185.387 641.774 184.971 641.518 184.48C641.262 184.011 641.134 183.477 641.134 182.88C641.134 181.963 641.4 181.259 641.934 180.768C642.467 180.277 643.214 179.915 644.174 179.68V179.424C643.534 179.211 643.022 178.912 642.638 178.528C642.275 178.144 642.094 177.611 642.094 176.928C642.094 176.117 642.36 175.509 642.894 175.104C643.448 174.699 644.174 174.389 645.07 174.176V174.016C644.088 173.547 643.32 172.885 642.766 172.032C642.211 171.179 641.934 170.144 641.934 168.928C641.934 168.011 642.094 167.2 642.414 166.496C642.755 165.771 643.224 165.163 643.822 164.672C644.44 164.16 645.176 163.776 646.03 163.52C646.883 163.243 647.832 163.104 648.878 163.104C649.987 163.104 650.99 163.253 651.886 163.552V162.848C651.886 162.208 652.088 161.675 652.494 161.248C652.92 160.821 653.507 160.608 654.254 160.608H657.23V163.68H653.326V164.224C654.136 164.715 654.755 165.355 655.182 166.144C655.63 166.912 655.854 167.84 655.854 168.928C655.854 169.845 655.683 170.667 655.342 171.392C655.022 172.117 654.552 172.725 653.934 173.216C653.336 173.707 652.6 174.091 651.726 174.368C650.872 174.624 649.923 174.752 648.878 174.752C648.451 174.752 648.035 174.741 647.63 174.72C647.246 174.677 646.872 174.603 646.51 174.496C646.211 174.603 645.923 174.773 645.646 175.008C645.368 175.243 645.23 175.552 645.23 175.936C645.23 176.448 645.475 176.768 645.966 176.896C646.456 177.003 647.043 177.056 647.726 177.056H651.47C652.622 177.056 653.603 177.173 654.414 177.408C655.224 177.621 655.886 177.941 656.398 178.368C656.91 178.773 657.283 179.264 657.517 179.84C657.752 180.416 657.87 181.045 657.87 181.728ZM654.03 182.016C654.03 181.525 653.827 181.131 653.422 180.832C653.038 180.555 652.312 180.416 651.246 180.416H645.55C644.91 180.779 644.59 181.312 644.59 182.016C644.59 182.592 644.824 183.072 645.294 183.456C645.784 183.84 646.606 184.032 647.758 184.032H650.414C652.824 184.032 654.03 183.36 654.03 182.016ZM648.878 172.064C649.923 172.064 650.691 171.819 651.182 171.328C651.672 170.816 651.918 170.155 651.918 169.344V168.512C651.918 167.701 651.672 167.051 651.182 166.56C650.691 166.048 649.923 165.792 648.878 165.792C647.854 165.792 647.096 166.048 646.606 166.56C646.115 167.051 645.87 167.701 645.87 168.512V169.344C645.87 170.155 646.115 170.816 646.606 171.328C647.096 171.819 647.854 172.064 648.878 172.064ZM669.249 160.928C668.289 160.928 667.606 160.725 667.201 160.32C666.817 159.915 666.625 159.424 666.625 158.848V158.08C666.625 157.504 666.817 157.013 667.201 156.608C667.606 156.203 668.289 156 669.249 156C670.209 156 670.881 156.203 671.265 156.608C671.67 157.013 671.873 157.504 671.873 158.08V158.848C671.873 159.424 671.67 159.915 671.265 160.32C670.881 160.725 670.209 160.928 669.249 160.928ZM661.761 176.768H667.201V166.72H661.761V163.488H671.297V176.768H676.353V180H661.761V176.768ZM693.493 180C692.49 180 691.711 179.755 691.157 179.264C690.623 178.752 690.303 178.048 690.197 177.152H690.037C689.738 178.176 689.151 178.976 688.277 179.552C687.402 180.107 686.325 180.384 685.045 180.384C683.381 180.384 682.058 179.947 681.077 179.072C680.095 178.197 679.605 176.981 679.605 175.424C679.605 172.096 682.047 170.432 686.933 170.432H689.845V169.344C689.845 168.299 689.589 167.509 689.077 166.976C688.565 166.443 687.733 166.176 686.581 166.176C685.535 166.176 684.693 166.379 684.053 166.784C683.413 167.189 682.869 167.712 682.421 168.352L680.085 166.368C680.597 165.451 681.418 164.683 682.549 164.064C683.701 163.424 685.183 163.104 686.997 163.104C689.173 163.104 690.869 163.616 692.085 164.64C693.322 165.643 693.941 167.147 693.941 169.152V176.928H695.892V180H693.493ZM686.421 177.568C687.402 177.568 688.213 177.344 688.853 176.896C689.514 176.427 689.845 175.797 689.845 175.008V172.8H687.029C684.789 172.8 683.669 173.504 683.669 174.912V175.552C683.669 176.213 683.914 176.715 684.405 177.056C684.895 177.397 685.567 177.568 686.421 177.568ZM706.536 180.384C704.723 180.384 703.155 180.107 701.832 179.552C700.509 178.976 699.475 178.208 698.728 177.248L701.128 175.072C701.811 175.819 702.589 176.395 703.464 176.8C704.36 177.205 705.395 177.408 706.568 177.408C707.592 177.408 708.413 177.237 709.032 176.896C709.651 176.555 709.96 176.032 709.96 175.328C709.96 174.731 709.747 174.325 709.32 174.112C708.915 173.899 708.371 173.739 707.688 173.632L705.032 173.216C704.349 173.109 703.677 172.96 703.016 172.768C702.376 172.555 701.8 172.267 701.288 171.904C700.797 171.541 700.403 171.083 700.104 170.528C699.805 169.952 699.656 169.259 699.656 168.448C699.656 166.72 700.296 165.397 701.576 164.48C702.877 163.563 704.659 163.104 706.92 163.104C708.52 163.104 709.875 163.328 710.984 163.776C712.115 164.224 713.043 164.853 713.768 165.664L711.624 168.032C711.155 167.52 710.525 167.072 709.736 166.688C708.968 166.283 707.987 166.08 706.792 166.08C704.701 166.08 703.656 166.731 703.656 168.032C703.656 168.629 703.869 169.045 704.296 169.28C704.723 169.493 705.277 169.653 705.96 169.76L708.584 170.176C709.288 170.283 709.96 170.443 710.6 170.656C711.261 170.848 711.837 171.125 712.328 171.488C712.84 171.851 713.245 172.309 713.544 172.864C713.843 173.419 713.992 174.101 713.992 174.912C713.992 176.619 713.331 177.963 712.008 178.944C710.707 179.904 708.883 180.384 706.536 180.384ZM751.055 180C750.052 180 749.274 179.755 748.719 179.264C748.186 178.752 747.866 178.048 747.759 177.152H747.599C747.3 178.176 746.714 178.976 745.839 179.552C744.964 180.107 743.887 180.384 742.607 180.384C740.943 180.384 739.62 179.947 738.639 179.072C737.658 178.197 737.167 176.981 737.167 175.424C737.167 172.096 739.61 170.432 744.495 170.432H747.407V169.344C747.407 168.299 747.151 167.509 746.639 166.976C746.127 166.443 745.295 166.176 744.143 166.176C743.098 166.176 742.255 166.379 741.615 166.784C740.975 167.189 740.431 167.712 739.983 168.352L737.647 166.368C738.159 165.451 738.98 164.683 740.111 164.064C741.263 163.424 742.746 163.104 744.559 163.104C746.735 163.104 748.431 163.616 749.647 164.64C750.884 165.643 751.503 167.147 751.503 169.152V176.928H753.455V180H751.055ZM743.983 177.568C744.964 177.568 745.775 177.344 746.415 176.896C747.076 176.427 747.407 175.797 747.407 175.008V172.8H744.591C742.351 172.8 741.231 173.504 741.231 174.912V175.552C741.231 176.213 741.476 176.715 741.967 177.056C742.458 177.397 743.13 177.568 743.983 177.568ZM767.459 177.088H767.235C766.787 178.091 766.168 178.891 765.379 179.488C764.611 180.085 763.587 180.384 762.307 180.384C761.368 180.384 760.504 180.213 759.715 179.872C758.947 179.509 758.285 178.976 757.731 178.272C757.176 177.547 756.749 176.64 756.451 175.552C756.152 174.464 756.003 173.195 756.003 171.744C756.003 168.843 756.579 166.677 757.731 165.248C758.883 163.819 760.408 163.104 762.307 163.104C763.587 163.104 764.611 163.403 765.379 164C766.168 164.597 766.787 165.397 767.235 166.4H767.459V156.32H771.555V180H767.459V177.088ZM764.035 177.12C764.504 177.12 764.941 177.067 765.347 176.96C765.773 176.832 766.136 176.661 766.435 176.448C766.755 176.213 767 175.925 767.171 175.584C767.363 175.221 767.459 174.805 767.459 174.336V169.152C767.459 168.683 767.363 168.277 767.171 167.936C767 167.573 766.755 167.285 766.435 167.072C766.136 166.837 765.773 166.667 765.347 166.56C764.941 166.432 764.504 166.368 764.035 166.368C762.84 166.368 761.912 166.731 761.251 167.456C760.611 168.181 760.291 169.173 760.291 170.432V173.056C760.291 174.315 760.611 175.307 761.251 176.032C761.912 176.757 762.84 177.12 764.035 177.12ZM786.454 177.088H786.294C785.931 177.984 785.366 178.763 784.598 179.424C783.851 180.064 782.806 180.384 781.462 180.384C779.841 180.384 778.518 179.851 777.494 178.784C776.491 177.696 775.99 176.149 775.99 174.144V163.488H780.086V173.568C780.086 175.957 781.121 177.152 783.19 177.152C783.595 177.152 783.99 177.099 784.374 176.992C784.779 176.885 785.131 176.725 785.43 176.512C785.75 176.277 785.995 176 786.166 175.68C786.358 175.36 786.454 174.976 786.454 174.528V163.488H790.55V180H786.454V177.088ZM795.242 176.768H800.49V159.552H795.242V156.32H804.586V176.768H809.866V180H795.242V176.768ZM822.845 180C821.266 180 820.104 179.584 819.357 178.752C818.61 177.92 818.237 176.843 818.237 175.52V166.72H813.437V163.488H816.701C817.362 163.488 817.832 163.36 818.109 163.104C818.386 162.827 818.525 162.347 818.525 161.664V157.664H822.333V163.488H829.053V166.72H822.333V176.768H829.053V180H822.845ZM846.993 180C845.99 180 845.211 179.755 844.657 179.264C844.123 178.752 843.803 178.048 843.697 177.152H843.537C843.238 178.176 842.651 178.976 841.777 179.552C840.902 180.107 839.825 180.384 838.545 180.384C836.881 180.384 835.558 179.947 834.577 179.072C833.595 178.197 833.105 176.981 833.105 175.424C833.105 172.096 835.547 170.432 840.433 170.432H843.345V169.344C843.345 168.299 843.089 167.509 842.577 166.976C842.065 166.443 841.233 166.176 840.081 166.176C839.035 166.176 838.193 166.379 837.553 166.784C836.913 167.189 836.369 167.712 835.921 168.352L833.585 166.368C834.097 165.451 834.918 164.683 836.049 164.064C837.201 163.424 838.683 163.104 840.497 163.104C842.673 163.104 844.369 163.616 845.585 164.64C846.822 165.643 847.441 167.147 847.441 169.152V176.928H849.392V180H846.993ZM839.921 177.568C840.902 177.568 841.713 177.344 842.353 176.896C843.014 176.427 843.345 175.797 843.345 175.008V172.8H840.529C838.289 172.8 837.169 173.504 837.169 174.912V175.552C837.169 176.213 837.414 176.715 837.905 177.056C838.395 177.397 839.067 177.568 839.921 177.568ZM860.036 180.384C858.223 180.384 856.655 180.107 855.332 179.552C854.009 178.976 852.975 178.208 852.228 177.248L854.628 175.072C855.311 175.819 856.089 176.395 856.964 176.8C857.86 177.205 858.895 177.408 860.068 177.408C861.092 177.408 861.913 177.237 862.532 176.896C863.151 176.555 863.46 176.032 863.46 175.328C863.46 174.731 863.247 174.325 862.82 174.112C862.415 173.899 861.871 173.739 861.188 173.632L858.532 173.216C857.849 173.109 857.177 172.96 856.516 172.768C855.876 172.555 855.3 172.267 854.788 171.904C854.297 171.541 853.903 171.083 853.604 170.528C853.305 169.952 853.156 169.259 853.156 168.448C853.156 166.72 853.796 165.397 855.076 164.48C856.377 163.563 858.159 163.104 860.42 163.104C862.02 163.104 863.375 163.328 864.484 163.776C865.615 164.224 866.543 164.853 867.268 165.664L865.124 168.032C864.655 167.52 864.025 167.072 863.236 166.688C862.468 166.283 861.487 166.08 860.292 166.08C858.201 166.08 857.156 166.731 857.156 168.032C857.156 168.629 857.369 169.045 857.796 169.28C858.223 169.493 858.777 169.653 859.46 169.76L862.084 170.176C862.788 170.283 863.46 170.443 864.1 170.656C864.761 170.848 865.337 171.125 865.828 171.488C866.34 171.851 866.745 172.309 867.044 172.864C867.343 173.419 867.492 174.101 867.492 174.912C867.492 176.619 866.831 177.963 865.508 178.944C864.207 179.904 862.383 180.384 860.036 180.384ZM878.616 172.32L877.048 164.16V157.664H881.528V164.16L879.96 172.32H878.616ZM879.288 180.352C878.221 180.352 877.464 180.128 877.016 179.68C876.589 179.232 876.376 178.688 876.376 178.048V177.152C876.376 176.512 876.589 175.968 877.016 175.52C877.464 175.072 878.221 174.848 879.288 174.848C880.354 174.848 881.101 175.072 881.528 175.52C881.976 175.968 882.2 176.512 882.2 177.152V178.048C882.2 178.688 881.976 179.232 881.528 179.68C881.101 180.128 880.354 180.352 879.288 180.352ZM893.291 166.304V156.32H897.003V166.304H893.291ZM899.979 166.304V156.32H903.691V166.304H899.979ZM260.104 250.304V240.32H263.816V250.304H260.104ZM266.792 250.304V240.32H270.504V250.304H266.792ZM289.243 264L287.675 258.336H281.051L279.515 264H275.291L281.563 241.664H287.387L293.691 264H289.243ZM284.507 245.792H284.251L281.787 254.912H286.971L284.507 245.792ZM304.687 244.928C303.727 244.928 303.044 244.725 302.639 244.32C302.255 243.915 302.062 243.424 302.062 242.848V242.08C302.062 241.504 302.255 241.013 302.639 240.608C303.044 240.203 303.727 240 304.687 240C305.647 240 306.319 240.203 306.703 240.608C307.108 241.013 307.311 241.504 307.311 242.08V242.848C307.311 243.424 307.108 243.915 306.703 244.32C306.319 244.725 305.647 244.928 304.687 244.928ZM297.199 260.768H302.639V250.72H297.199V247.488H306.735V260.768H311.791V264H297.199V260.768ZM315.65 264V247.488H319.746V250.4H319.906C320.269 249.504 320.823 248.736 321.57 248.096C322.338 247.435 323.394 247.104 324.738 247.104C326.359 247.104 327.671 247.648 328.674 248.736C329.698 249.803 330.21 251.339 330.21 253.344V264H326.114V253.92C326.114 251.531 325.079 250.336 323.01 250.336C322.583 250.336 322.178 250.389 321.794 250.496C321.41 250.603 321.058 250.773 320.738 251.008C320.439 251.221 320.194 251.488 320.002 251.808C319.831 252.128 319.746 252.512 319.746 252.96V264H315.65ZM345.334 261.088H345.11C344.662 262.091 344.043 262.891 343.254 263.488C342.486 264.085 341.462 264.384 340.182 264.384C339.243 264.384 338.379 264.213 337.59 263.872C336.822 263.509 336.16 262.976 335.606 262.272C335.051 261.547 334.624 260.64 334.326 259.552C334.027 258.464 333.878 257.195 333.878 255.744C333.878 252.843 334.454 250.677 335.606 249.248C336.758 247.819 338.283 247.104 340.182 247.104C341.462 247.104 342.486 247.403 343.254 248C344.043 248.597 344.662 249.397 345.11 250.4H345.334V240.32H349.43V264H345.334V261.088ZM341.91 261.12C342.379 261.12 342.816 261.067 343.222 260.96C343.648 260.832 344.011 260.661 344.31 260.448C344.63 260.213 344.875 259.925 345.046 259.584C345.238 259.221 345.334 258.805 345.334 258.336V253.152C345.334 252.683 345.238 252.277 345.046 251.936C344.875 251.573 344.63 251.285 344.31 251.072C344.011 250.837 343.648 250.667 343.222 250.56C342.816 250.432 342.379 250.368 341.91 250.368C340.715 250.368 339.787 250.731 339.126 251.456C338.486 252.181 338.166 253.173 338.166 254.432V257.056C338.166 258.315 338.486 259.307 339.126 260.032C339.787 260.757 340.715 261.12 341.91 261.12ZM367.305 264C366.302 264 365.524 263.755 364.969 263.264C364.436 262.752 364.116 262.048 364.009 261.152H363.849C363.55 262.176 362.964 262.976 362.089 263.552C361.214 264.107 360.137 264.384 358.857 264.384C357.193 264.384 355.87 263.947 354.889 263.072C353.908 262.197 353.417 260.981 353.417 259.424C353.417 256.096 355.86 254.432 360.745 254.432H363.657V253.344C363.657 252.299 363.401 251.509 362.889 250.976C362.377 250.443 361.545 250.176 360.393 250.176C359.348 250.176 358.505 250.379 357.865 250.784C357.225 251.189 356.681 251.712 356.233 252.352L353.897 250.368C354.409 249.451 355.23 248.683 356.361 248.064C357.513 247.424 358.996 247.104 360.809 247.104C362.985 247.104 364.681 247.616 365.897 248.64C367.134 249.643 367.753 251.147 367.753 253.152V260.928H369.705V264H367.305ZM360.233 261.568C361.214 261.568 362.025 261.344 362.665 260.896C363.326 260.427 363.657 259.797 363.657 259.008V256.8H360.841C358.601 256.8 357.481 257.504 357.481 258.912V259.552C357.481 260.213 357.726 260.715 358.217 261.056C358.708 261.397 359.38 261.568 360.233 261.568ZM400.048 245.6L397.584 244.416L400.624 238.432L404.08 240.16L400.048 245.6ZM399.984 264.384C398.661 264.384 397.488 264.181 396.464 263.776C395.44 263.371 394.576 262.795 393.872 262.048C393.189 261.301 392.667 260.405 392.304 259.36C391.941 258.293 391.76 257.099 391.76 255.776C391.76 254.432 391.941 253.227 392.304 252.16C392.688 251.093 393.221 250.187 393.904 249.44C394.587 248.693 395.408 248.117 396.368 247.712C397.349 247.307 398.448 247.104 399.664 247.104C400.859 247.104 401.936 247.307 402.896 247.712C403.856 248.096 404.667 248.651 405.328 249.376C406.011 250.101 406.533 250.976 406.896 252C407.259 253.024 407.44 254.155 407.44 255.392V256.736H395.856V257.152C395.856 258.347 396.229 259.317 396.976 260.064C397.723 260.789 398.768 261.152 400.112 261.152C401.136 261.152 402.011 260.949 402.736 260.544C403.483 260.117 404.101 259.563 404.592 258.88L406.928 261.216C406.331 262.091 405.456 262.837 404.304 263.456C403.173 264.075 401.733 264.384 399.984 264.384ZM399.696 250.112C398.544 250.112 397.616 250.475 396.912 251.2C396.208 251.925 395.856 252.885 395.856 254.08V254.304H403.344V254.016C403.344 252.821 403.013 251.872 402.352 251.168C401.712 250.464 400.827 250.112 399.696 250.112ZM441.079 261.088H440.919C440.556 261.984 439.991 262.763 439.223 263.424C438.476 264.064 437.431 264.384 436.087 264.384C434.466 264.384 433.143 263.851 432.119 262.784C431.116 261.696 430.615 260.149 430.615 258.144V247.488H434.711V257.568C434.711 259.957 435.746 261.152 437.815 261.152C438.22 261.152 438.615 261.099 438.999 260.992C439.404 260.885 439.756 260.725 440.055 260.512C440.375 260.277 440.62 260 440.791 259.68C440.983 259.36 441.079 258.976 441.079 258.528V247.488H445.175V264H441.079V261.088ZM448.747 264V247.488H452.139V249.76H452.331C452.587 249.035 452.949 248.416 453.419 247.904C453.909 247.371 454.592 247.104 455.467 247.104C456.299 247.104 456.96 247.349 457.451 247.84C457.941 248.309 458.261 248.981 458.411 249.856H458.571C458.848 249.109 459.253 248.469 459.787 247.936C460.341 247.381 461.12 247.104 462.123 247.104C463.339 247.104 464.213 247.541 464.747 248.416C465.28 249.291 465.547 250.581 465.547 252.288V264H462.187V252.768C462.187 251.808 462.048 251.136 461.771 250.752C461.515 250.368 461.12 250.176 460.587 250.176C460.096 250.176 459.68 250.336 459.339 250.656C459.019 250.976 458.859 251.467 458.859 252.128V264H455.467V252.768C455.467 251.808 455.339 251.136 455.083 250.752C454.827 250.368 454.432 250.176 453.899 250.176C453.387 250.176 452.96 250.336 452.619 250.656C452.299 250.976 452.139 251.467 452.139 252.128V264H448.747ZM501.618 264C500.615 264 499.836 263.755 499.282 263.264C498.748 262.752 498.428 262.048 498.322 261.152H498.162C497.863 262.176 497.276 262.976 496.402 263.552C495.527 264.107 494.45 264.384 493.17 264.384C491.506 264.384 490.183 263.947 489.202 263.072C488.22 262.197 487.73 260.981 487.73 259.424C487.73 256.096 490.172 254.432 495.058 254.432H497.97V253.344C497.97 252.299 497.714 251.509 497.202 250.976C496.69 250.443 495.858 250.176 494.706 250.176C493.66 250.176 492.818 250.379 492.178 250.784C491.538 251.189 490.994 251.712 490.546 252.352L488.21 250.368C488.722 249.451 489.543 248.683 490.674 248.064C491.826 247.424 493.308 247.104 495.122 247.104C497.298 247.104 498.994 247.616 500.21 248.64C501.447 249.643 502.066 251.147 502.066 253.152V260.928H504.017V264H501.618ZM494.546 261.568C495.527 261.568 496.338 261.344 496.978 260.896C497.639 260.427 497.97 259.797 497.97 259.008V256.8H495.154C492.914 256.8 491.794 257.504 491.794 258.912V259.552C491.794 260.213 492.039 260.715 492.53 261.056C493.02 261.397 493.692 261.568 494.546 261.568ZM507.333 247.488H511.429V250.4H511.653C512.101 249.397 512.709 248.597 513.477 248C514.266 247.403 515.301 247.104 516.581 247.104C517.52 247.104 518.373 247.285 519.141 247.648C519.93 247.989 520.602 248.523 521.157 249.248C521.712 249.952 522.138 250.848 522.437 251.936C522.736 253.024 522.885 254.293 522.885 255.744C522.885 257.195 522.736 258.464 522.437 259.552C522.138 260.64 521.712 261.547 521.157 262.272C520.602 262.976 519.93 263.509 519.141 263.872C518.373 264.213 517.52 264.384 516.581 264.384C515.301 264.384 514.266 264.085 513.477 263.488C512.709 262.891 512.101 262.091 511.653 261.088H511.429V270.4H507.333V247.488ZM514.853 261.12C516.048 261.12 516.965 260.757 517.605 260.032C518.266 259.307 518.597 258.315 518.597 257.056V254.432C518.597 253.173 518.266 252.181 517.605 251.456C516.965 250.731 516.048 250.368 514.853 250.368C513.914 250.368 513.104 250.603 512.421 251.072C511.76 251.52 511.429 252.213 511.429 253.152V258.336C511.429 259.275 511.76 259.979 512.421 260.448C513.104 260.896 513.914 261.12 514.853 261.12ZM526.713 260.768H530.809V250.72H526.713V247.488H534.905V252H535.161C535.31 251.424 535.513 250.869 535.769 250.336C536.046 249.781 536.387 249.301 536.793 248.896C537.219 248.469 537.731 248.128 538.329 247.872C538.926 247.616 539.641 247.488 540.472 247.488H542.265V251.328H538.873C537.635 251.328 536.665 251.691 535.961 252.416C535.257 253.141 534.905 254.069 534.905 255.2V260.768H540.633V264H526.713V260.768ZM553.484 264.384C552.161 264.384 550.988 264.181 549.964 263.776C548.94 263.371 548.076 262.795 547.372 262.048C546.689 261.301 546.167 260.405 545.804 259.36C545.441 258.293 545.26 257.099 545.26 255.776C545.26 254.432 545.441 253.227 545.804 252.16C546.188 251.093 546.721 250.187 547.404 249.44C548.087 248.693 548.908 248.117 549.868 247.712C550.849 247.307 551.948 247.104 553.164 247.104C554.359 247.104 555.436 247.307 556.396 247.712C557.356 248.096 558.167 248.651 558.828 249.376C559.511 250.101 560.033 250.976 560.396 252C560.759 253.024 560.94 254.155 560.94 255.392V256.736H549.356V257.152C549.356 258.347 549.729 259.317 550.476 260.064C551.223 260.789 552.268 261.152 553.612 261.152C554.636 261.152 555.511 260.949 556.236 260.544C556.983 260.117 557.601 259.563 558.092 258.88L560.428 261.216C559.831 262.091 558.956 262.837 557.804 263.456C556.673 264.075 555.233 264.384 553.484 264.384ZM553.196 250.112C552.044 250.112 551.116 250.475 550.412 251.2C549.708 251.925 549.356 252.885 549.356 254.08V254.304H556.844V254.016C556.844 252.821 556.513 251.872 555.852 251.168C555.212 250.464 554.327 250.112 553.196 250.112ZM565.088 264V247.488H569.184V250.4H569.344C569.706 249.504 570.261 248.736 571.008 248.096C571.776 247.435 572.832 247.104 574.176 247.104C575.797 247.104 577.109 247.648 578.112 248.736C579.136 249.803 579.648 251.339 579.648 253.344V264H575.552V253.92C575.552 251.531 574.517 250.336 572.448 250.336C572.021 250.336 571.616 250.389 571.232 250.496C570.848 250.603 570.496 250.773 570.176 251.008C569.877 251.221 569.632 251.488 569.44 251.808C569.269 252.128 569.184 252.512 569.184 252.96V264H565.088ZM594.771 261.088H594.547C594.099 262.091 593.48 262.891 592.691 263.488C591.923 264.085 590.899 264.384 589.619 264.384C588.68 264.384 587.816 264.213 587.027 263.872C586.259 263.509 585.598 262.976 585.043 262.272C584.488 261.547 584.062 260.64 583.763 259.552C583.464 258.464 583.315 257.195 583.315 255.744C583.315 252.843 583.891 250.677 585.043 249.248C586.195 247.819 587.72 247.104 589.619 247.104C590.899 247.104 591.923 247.403 592.691 248C593.48 248.597 594.099 249.397 594.547 250.4H594.771V240.32H598.867V264H594.771V261.088ZM591.347 261.12C591.816 261.12 592.254 261.067 592.659 260.96C593.086 260.832 593.448 260.661 593.747 260.448C594.067 260.213 594.312 259.925 594.483 259.584C594.675 259.221 594.771 258.805 594.771 258.336V253.152C594.771 252.683 594.675 252.277 594.483 251.936C594.312 251.573 594.067 251.285 593.747 251.072C593.448 250.837 593.086 250.667 592.659 250.56C592.254 250.432 591.816 250.368 591.347 250.368C590.152 250.368 589.224 250.731 588.563 251.456C587.923 252.181 587.603 253.173 587.603 254.432V257.056C587.603 258.315 587.923 259.307 588.563 260.032C589.224 260.757 590.152 261.12 591.347 261.12ZM611.687 244.928C610.727 244.928 610.044 244.725 609.639 244.32C609.255 243.915 609.062 243.424 609.062 242.848V242.08C609.062 241.504 609.255 241.013 609.639 240.608C610.044 240.203 610.727 240 611.687 240C612.647 240 613.319 240.203 613.703 240.608C614.108 241.013 614.311 241.504 614.311 242.08V242.848C614.311 243.424 614.108 243.915 613.703 244.32C613.319 244.725 612.647 244.928 611.687 244.928ZM604.199 260.768H609.639V250.72H604.199V247.488H613.735V260.768H618.791V264H604.199V260.768ZM622.554 264V260.512L632.154 250.72H622.874V247.488H636.826V250.976L627.226 260.768H637.146V264H622.554ZM659.809 264V247.488H663.201V249.76H663.393C663.649 249.035 664.012 248.416 664.481 247.904C664.972 247.371 665.654 247.104 666.529 247.104C667.361 247.104 668.022 247.349 668.513 247.84C669.004 248.309 669.324 248.981 669.473 249.856H669.633C669.91 249.109 670.316 248.469 670.849 247.936C671.404 247.381 672.182 247.104 673.185 247.104C674.401 247.104 675.276 247.541 675.809 248.416C676.342 249.291 676.609 250.581 676.609 252.288V264H673.249V252.768C673.249 251.808 673.11 251.136 672.833 250.752C672.577 250.368 672.182 250.176 671.649 250.176C671.158 250.176 670.742 250.336 670.401 250.656C670.081 250.976 669.921 251.467 669.921 252.128V264H666.529V252.768C666.529 251.808 666.401 251.136 666.145 250.752C665.889 250.368 665.494 250.176 664.961 250.176C664.449 250.176 664.022 250.336 663.681 250.656C663.361 250.976 663.201 251.467 663.201 252.128V264H659.809ZM693.493 264C692.49 264 691.711 263.755 691.157 263.264C690.623 262.752 690.303 262.048 690.197 261.152H690.037C689.738 262.176 689.151 262.976 688.277 263.552C687.402 264.107 686.325 264.384 685.045 264.384C683.381 264.384 682.058 263.947 681.077 263.072C680.095 262.197 679.605 260.981 679.605 259.424C679.605 256.096 682.047 254.432 686.933 254.432H689.845V253.344C689.845 252.299 689.589 251.509 689.077 250.976C688.565 250.443 687.733 250.176 686.581 250.176C685.535 250.176 684.693 250.379 684.053 250.784C683.413 251.189 682.869 251.712 682.421 252.352L680.085 250.368C680.597 249.451 681.418 248.683 682.549 248.064C683.701 247.424 685.183 247.104 686.997 247.104C689.173 247.104 690.869 247.616 692.085 248.64C693.322 249.643 693.941 251.147 693.941 253.152V260.928H695.892V264H693.493ZM686.421 261.568C687.402 261.568 688.213 261.344 688.853 260.896C689.514 260.427 689.845 259.797 689.845 259.008V256.8H687.029C684.789 256.8 683.669 257.504 683.669 258.912V259.552C683.669 260.213 683.914 260.715 684.405 261.056C684.895 261.397 685.567 261.568 686.421 261.568ZM687.541 245.6L685.077 244.416L688.117 238.432L691.573 240.16L687.541 245.6ZM715.432 265.728C715.432 267.456 714.707 268.725 713.256 269.536C711.827 270.368 709.587 270.784 706.536 270.784C705.043 270.784 703.795 270.688 702.792 270.496C701.789 270.325 700.979 270.069 700.36 269.728C699.763 269.387 699.336 268.971 699.08 268.48C698.824 268.011 698.696 267.477 698.696 266.88C698.696 265.963 698.963 265.259 699.496 264.768C700.029 264.277 700.776 263.915 701.736 263.68V263.424C701.096 263.211 700.584 262.912 700.2 262.528C699.837 262.144 699.656 261.611 699.656 260.928C699.656 260.117 699.923 259.509 700.456 259.104C701.011 258.699 701.736 258.389 702.632 258.176V258.016C701.651 257.547 700.883 256.885 700.328 256.032C699.773 255.179 699.496 254.144 699.496 252.928C699.496 252.011 699.656 251.2 699.976 250.496C700.317 249.771 700.787 249.163 701.384 248.672C702.003 248.16 702.739 247.776 703.592 247.52C704.445 247.243 705.395 247.104 706.44 247.104C707.549 247.104 708.552 247.253 709.448 247.552V246.848C709.448 246.208 709.651 245.675 710.056 245.248C710.483 244.821 711.069 244.608 711.816 244.608H714.792V247.68H710.888V248.224C711.699 248.715 712.317 249.355 712.744 250.144C713.192 250.912 713.416 251.84 713.416 252.928C713.416 253.845 713.245 254.667 712.904 255.392C712.584 256.117 712.115 256.725 711.496 257.216C710.899 257.707 710.163 258.091 709.288 258.368C708.435 258.624 707.485 258.752 706.44 258.752C706.013 258.752 705.597 258.741 705.192 258.72C704.808 258.677 704.435 258.603 704.072 258.496C703.773 258.603 703.485 258.773 703.208 259.008C702.931 259.243 702.792 259.552 702.792 259.936C702.792 260.448 703.037 260.768 703.528 260.896C704.019 261.003 704.605 261.056 705.288 261.056H709.032C710.184 261.056 711.165 261.173 711.976 261.408C712.787 261.621 713.448 261.941 713.96 262.368C714.472 262.773 714.845 263.264 715.08 263.84C715.315 264.416 715.432 265.045 715.432 265.728ZM711.592 266.016C711.592 265.525 711.389 265.131 710.984 264.832C710.6 264.555 709.875 264.416 708.808 264.416H703.112C702.472 264.779 702.152 265.312 702.152 266.016C702.152 266.592 702.387 267.072 702.856 267.456C703.347 267.84 704.168 268.032 705.32 268.032H707.976C710.387 268.032 711.592 267.36 711.592 266.016ZM706.44 256.064C707.485 256.064 708.253 255.819 708.744 255.328C709.235 254.816 709.48 254.155 709.48 253.344V252.512C709.48 251.701 709.235 251.051 708.744 250.56C708.253 250.048 707.485 249.792 706.44 249.792C705.416 249.792 704.659 250.048 704.168 250.56C703.677 251.051 703.432 251.701 703.432 252.512V253.344C703.432 254.155 703.677 254.816 704.168 255.328C704.659 255.819 705.416 256.064 706.44 256.064ZM726.812 244.928C725.852 244.928 725.169 244.725 724.764 244.32C724.38 243.915 724.188 243.424 724.188 242.848V242.08C724.188 241.504 724.38 241.013 724.764 240.608C725.169 240.203 725.852 240 726.812 240C727.772 240 728.444 240.203 728.828 240.608C729.233 241.013 729.436 241.504 729.436 242.08V242.848C729.436 243.424 729.233 243.915 728.828 244.32C728.444 244.725 727.772 244.928 726.812 244.928ZM719.324 260.768H724.764V250.72H719.324V247.488H728.86V260.768H733.916V264H719.324V260.768ZM745.615 264.384C744.356 264.384 743.226 264.181 742.223 263.776C741.22 263.371 740.367 262.795 739.663 262.048C738.98 261.301 738.447 260.395 738.063 259.328C737.7 258.261 737.519 257.067 737.519 255.744C737.519 254.421 737.7 253.227 738.063 252.16C738.447 251.093 738.98 250.187 739.663 249.44C740.367 248.693 741.21 248.117 742.191 247.712C743.194 247.307 744.324 247.104 745.583 247.104C747.332 247.104 748.74 247.467 749.807 248.192C750.874 248.917 751.684 249.877 752.239 251.072L749.071 252.8C748.772 252.096 748.346 251.531 747.791 251.104C747.258 250.656 746.522 250.432 745.583 250.432C744.367 250.432 743.428 250.784 742.767 251.488C742.127 252.192 741.807 253.152 741.807 254.368V257.12C741.807 258.315 742.127 259.275 742.767 260C743.428 260.704 744.388 261.056 745.647 261.056C746.628 261.056 747.407 260.832 747.983 260.384C748.58 259.936 749.06 259.339 749.423 258.592L752.495 260.416C751.94 261.589 751.098 262.549 749.967 263.296C748.858 264.021 747.407 264.384 745.615 264.384ZM764.163 264.384C762.904 264.384 761.773 264.181 760.771 263.776C759.789 263.371 758.947 262.795 758.243 262.048C757.56 261.301 757.027 260.395 756.643 259.328C756.28 258.261 756.099 257.067 756.099 255.744C756.099 254.421 756.28 253.227 756.643 252.16C757.027 251.093 757.56 250.187 758.243 249.44C758.947 248.693 759.789 248.117 760.771 247.712C761.773 247.307 762.904 247.104 764.163 247.104C765.4 247.104 766.52 247.307 767.523 247.712C768.525 248.117 769.368 248.693 770.051 249.44C770.755 250.187 771.288 251.093 771.651 252.16C772.035 253.227 772.227 254.421 772.227 255.744C772.227 257.067 772.035 258.261 771.651 259.328C771.288 260.395 770.755 261.301 770.051 262.048C769.368 262.795 768.525 263.371 767.523 263.776C766.52 264.181 765.4 264.384 764.163 264.384ZM764.163 261.248C765.336 261.248 766.264 260.896 766.947 260.192C767.629 259.467 767.971 258.411 767.971 257.024V254.464C767.971 253.077 767.629 252.032 766.947 251.328C766.264 250.603 765.336 250.24 764.163 250.24C762.989 250.24 762.061 250.603 761.379 251.328C760.696 252.032 760.355 253.077 760.355 254.464V257.024C760.355 258.411 760.696 259.467 761.379 260.192C762.061 260.896 762.989 261.248 764.163 261.248ZM782.678 256.32L781.11 248.16V241.664H785.59V248.16L784.022 256.32H782.678ZM783.35 264.352C782.283 264.352 781.526 264.128 781.078 263.68C780.651 263.232 780.438 262.688 780.438 262.048V261.152C780.438 260.512 780.651 259.968 781.078 259.52C781.526 259.072 782.283 258.848 783.35 258.848C784.417 258.848 785.163 259.072 785.59 259.52C786.038 259.968 786.262 260.512 786.262 261.152V262.048C786.262 262.688 786.038 263.232 785.59 263.68C785.163 264.128 784.417 264.352 783.35 264.352ZM797.354 250.304V240.32H801.066V250.304H797.354ZM804.042 250.304V240.32H807.754V250.304H804.042Z" fill="#F5A476"/>
<path d="M130.111 281.68C131.391 281.68 132.319 281.979 132.895 282.576C133.471 283.173 133.759 283.941 133.759 284.88V286.48C133.759 287.035 133.695 287.525 133.567 287.952C133.46 288.357 133.322 288.72 133.151 289.04C132.98 289.36 132.788 289.648 132.575 289.904C132.362 290.16 132.159 290.405 131.967 290.64C131.604 291.067 131.348 291.44 131.199 291.76C131.071 292.059 131.007 292.379 131.007 292.72C131.007 294 132.244 294.64 134.719 294.64H137.503V297.456H134.719C132.244 297.456 131.007 298.096 131.007 299.376C131.007 299.717 131.071 300.048 131.199 300.368C131.348 300.667 131.604 301.029 131.967 301.456C132.159 301.691 132.362 301.936 132.575 302.192C132.788 302.448 132.98 302.736 133.151 303.056C133.322 303.376 133.46 303.749 133.567 304.176C133.695 304.581 133.759 305.061 133.759 305.616V307.216C133.759 308.155 133.471 308.923 132.895 309.52C132.319 310.117 131.391 310.416 130.111 310.416H124.447V307.6H130.431V305.808C130.431 304.976 130.303 304.336 130.047 303.888C129.791 303.44 129.492 303.003 129.151 302.576C128.788 302.128 128.447 301.648 128.127 301.136C127.807 300.624 127.647 300.027 127.647 299.344C127.647 298.448 127.956 297.733 128.575 297.2C129.194 296.645 130.111 296.293 131.327 296.144V295.952C130.111 295.803 129.194 295.461 128.575 294.928C127.956 294.373 127.647 293.648 127.647 292.752C127.647 292.069 127.807 291.472 128.127 290.96C128.447 290.448 128.788 289.968 129.151 289.52C129.492 289.093 129.791 288.656 130.047 288.208C130.303 287.76 130.431 287.12 130.431 286.288V284.496H124.447V281.68H130.111Z" fill="#EECE32"/>
<path d="M34.6625 46.4084V43.8404H39.2705V31.9364H39.0545L35.4065 36.2564L33.4385 34.6004L37.5905 29.6564H42.4145V43.8404H46.2065V46.4084H34.6625Z" fill="white"/>
<path d="M45.6785 87.8873H33.8705V84.9593L39.2465 80.3753C40.1425 79.6073 40.8065 78.9113 41.2385 78.2873C41.6705 77.6473 41.8865 76.9673 41.8865 76.2473V76.0073C41.8865 75.2073 41.6625 74.5993 41.2145 74.1833C40.7665 73.7673 40.1425 73.5593 39.3425 73.5593C38.4625 73.5593 37.7905 73.7993 37.3265 74.2793C36.8625 74.7593 36.5265 75.3513 36.3185 76.0553L33.5825 75.0233C33.7585 74.4793 34.0065 73.9593 34.3265 73.4633C34.6625 72.9513 35.0705 72.5033 35.5505 72.1193C36.0465 71.7353 36.6305 71.4313 37.3025 71.2073C37.9745 70.9673 38.7425 70.8473 39.6065 70.8473C40.5025 70.8473 41.2945 70.9753 41.9825 71.2313C42.6865 71.4713 43.2785 71.8153 43.7585 72.2633C44.2385 72.6953 44.5985 73.2153 44.8385 73.8233C45.0945 74.4313 45.2225 75.0953 45.2225 75.8153C45.2225 76.5033 45.1105 77.1353 44.8865 77.7113C44.6785 78.2873 44.3825 78.8393 43.9985 79.3673C43.6145 79.8793 43.1585 80.3753 42.6305 80.8553C42.1185 81.3353 41.5585 81.8153 40.9505 82.2953L37.3025 85.2473H45.6785V87.8873Z" fill="white"/>
<path d="M39.0065 123.396C40.0145 123.396 40.7505 123.196 41.2145 122.796C41.6945 122.396 41.9345 121.892 41.9345 121.284V121.116C41.9345 120.428 41.7025 119.892 41.2385 119.508C40.7905 119.124 40.1665 118.932 39.3665 118.932C38.5985 118.932 37.9265 119.108 37.3505 119.46C36.7745 119.812 36.2785 120.308 35.8625 120.948L33.8225 119.124C34.1105 118.74 34.4305 118.38 34.7825 118.044C35.1505 117.692 35.5585 117.396 36.0065 117.156C36.4705 116.9 36.9825 116.7 37.5425 116.556C38.1025 116.412 38.7425 116.34 39.4625 116.34C40.3105 116.34 41.0865 116.444 41.7905 116.652C42.5105 116.844 43.1185 117.132 43.6145 117.516C44.1265 117.9 44.5185 118.364 44.7905 118.908C45.0785 119.436 45.2225 120.036 45.2225 120.708C45.2225 121.236 45.1345 121.716 44.9585 122.148C44.7825 122.58 44.5425 122.956 44.2385 123.276C43.9505 123.596 43.6065 123.86 43.2065 124.068C42.8225 124.276 42.4065 124.428 41.9585 124.524V124.644C42.4545 124.74 42.9185 124.9 43.3505 125.124C43.7825 125.332 44.1585 125.604 44.4785 125.94C44.7985 126.276 45.0545 126.684 45.2465 127.164C45.4385 127.628 45.5345 128.156 45.5345 128.748C45.5345 129.484 45.3825 130.156 45.0785 130.764C44.7745 131.372 44.3425 131.892 43.7825 132.324C43.2385 132.756 42.5745 133.092 41.7905 133.332C41.0225 133.556 40.1585 133.668 39.1985 133.668C38.3985 133.668 37.6865 133.58 37.0625 133.404C36.4385 133.244 35.8865 133.02 35.4065 132.732C34.9265 132.444 34.5105 132.116 34.1585 131.748C33.8065 131.364 33.4945 130.972 33.2225 130.572L35.5505 128.772C35.9505 129.444 36.4225 129.996 36.9665 130.428C37.5265 130.86 38.2865 131.076 39.2465 131.076C40.2065 131.076 40.9425 130.86 41.4545 130.428C41.9825 129.98 42.2465 129.364 42.2465 128.58V128.388C42.2465 127.62 41.9665 127.036 41.4065 126.636C40.8465 126.22 40.0545 126.012 39.0305 126.012H37.3505V123.396H39.0065Z" fill="white"/>
<path d="M42.2404 174.859V171.619H34.4884V168.931L41.3284 158.107H45.2404V169.171H47.4964V171.619H45.2404V174.859H42.2404ZM37.0564 169.171H42.2404V161.179H42.0484L37.0564 169.171Z" fill="white"/>
<path d="M46.432 201.984H38.752L38.344 207.6H38.536C38.728 207.248 38.936 206.928 39.16 206.64C39.384 206.336 39.64 206.08 39.928 205.872C40.232 205.664 40.568 205.504 40.936 205.392C41.32 205.28 41.76 205.224 42.256 205.224C42.96 205.224 43.624 205.344 44.248 205.584C44.872 205.824 45.416 206.168 45.88 206.616C46.344 207.064 46.704 207.616 46.96 208.272C47.232 208.928 47.368 209.672 47.368 210.504C47.368 211.336 47.224 212.104 46.936 212.808C46.664 213.512 46.256 214.128 45.712 214.656C45.184 215.168 44.528 215.568 43.744 215.856C42.976 216.144 42.088 216.288 41.08 216.288C40.296 216.288 39.592 216.2 38.968 216.024C38.36 215.864 37.824 215.64 37.36 215.352C36.896 215.064 36.488 214.736 36.136 214.368C35.784 213.984 35.48 213.592 35.224 213.192L37.504 211.392C37.696 211.712 37.904 212.016 38.128 212.304C38.368 212.576 38.632 212.816 38.92 213.024C39.208 213.232 39.528 213.4 39.88 213.528C40.248 213.64 40.664 213.696 41.128 213.696C42.088 213.696 42.816 213.44 43.312 212.928C43.824 212.4 44.08 211.68 44.08 210.768V210.576C44.08 209.696 43.824 209.008 43.312 208.512C42.8 208.016 42.08 207.768 41.152 207.768C40.448 207.768 39.872 207.904 39.424 208.176C38.992 208.432 38.64 208.712 38.368 209.016L35.8 208.656L36.424 199.248H46.432V201.984Z" fill="white"/>
<path d="M41.272 257.288C40.296 257.288 39.424 257.136 38.656 256.832C37.904 256.512 37.264 256.072 36.736 255.512C36.208 254.936 35.8 254.248 35.512 253.448C35.24 252.632 35.104 251.72 35.104 250.712C35.104 249.512 35.288 248.384 35.656 247.328C36.024 246.256 36.496 245.28 37.072 244.4C37.664 243.504 38.32 242.704 39.04 242C39.76 241.296 40.48 240.712 41.2 240.248H45.472C44.464 240.952 43.56 241.632 42.76 242.288C41.976 242.928 41.288 243.584 40.696 244.256C40.12 244.928 39.632 245.632 39.232 246.368C38.848 247.088 38.56 247.88 38.368 248.744L38.56 248.792C38.72 248.472 38.912 248.168 39.136 247.88C39.36 247.576 39.624 247.312 39.928 247.088C40.248 246.848 40.608 246.664 41.008 246.536C41.424 246.392 41.904 246.32 42.448 246.32C43.152 246.32 43.808 246.44 44.416 246.68C45.024 246.92 45.544 247.272 45.976 247.736C46.424 248.184 46.776 248.728 47.032 249.368C47.288 250.008 47.416 250.728 47.416 251.528C47.416 252.376 47.272 253.152 46.984 253.856C46.696 254.56 46.28 255.168 45.736 255.68C45.208 256.192 44.56 256.592 43.792 256.88C43.04 257.152 42.2 257.288 41.272 257.288ZM41.248 254.816C42.208 254.816 42.936 254.568 43.432 254.072C43.928 253.56 44.176 252.84 44.176 251.912V251.624C44.176 250.696 43.92 249.984 43.408 249.488C42.912 248.992 42.192 248.744 41.248 248.744C40.336 248.744 39.624 248.992 39.112 249.488C38.6 249.984 38.344 250.696 38.344 251.624V251.912C38.344 252.84 38.592 253.56 39.088 254.072C39.584 254.568 40.304 254.816 41.248 254.816Z" fill="white"/>
<path d="M38.008 298L43.984 283.816H38.008V286.888H35.32V281.248H47.104V283.984L41.32 298H38.008Z" fill="white"/>
<path d="M41.2 339.288C40.208 339.288 39.328 339.168 38.56 338.928C37.792 338.672 37.144 338.328 36.616 337.896C36.088 337.464 35.688 336.952 35.416 336.36C35.144 335.768 35.008 335.12 35.008 334.416C35.008 333.312 35.312 332.424 35.92 331.752C36.544 331.08 37.36 330.608 38.368 330.336V330.144C37.504 329.84 36.808 329.368 36.28 328.728C35.768 328.088 35.512 327.28 35.512 326.304C35.512 325.664 35.64 325.08 35.896 324.552C36.152 324.008 36.52 323.544 37 323.16C37.48 322.776 38.072 322.48 38.776 322.272C39.48 322.064 40.288 321.96 41.2 321.96C42.112 321.96 42.92 322.064 43.624 322.272C44.328 322.48 44.92 322.776 45.4 323.16C45.88 323.544 46.248 324.008 46.504 324.552C46.76 325.08 46.888 325.664 46.888 326.304C46.888 327.28 46.624 328.088 46.096 328.728C45.584 329.368 44.896 329.84 44.032 330.144V330.336C45.04 330.608 45.848 331.08 46.456 331.752C47.08 332.424 47.392 333.312 47.392 334.416C47.392 335.12 47.256 335.768 46.984 336.36C46.712 336.952 46.312 337.464 45.784 337.896C45.256 338.328 44.608 338.672 43.84 338.928C43.072 339.168 42.192 339.288 41.2 339.288ZM41.2 336.84C42.144 336.84 42.864 336.632 43.36 336.216C43.872 335.784 44.128 335.192 44.128 334.44V333.96C44.128 333.192 43.88 332.6 43.384 332.184C42.888 331.752 42.16 331.536 41.2 331.536C40.24 331.536 39.512 331.752 39.016 332.184C38.52 332.6 38.272 333.192 38.272 333.96V334.44C38.272 335.192 38.52 335.784 39.016 336.216C39.528 336.632 40.256 336.84 41.2 336.84ZM41.2 329.208C42.08 329.208 42.752 329.008 43.216 328.608C43.68 328.208 43.912 327.656 43.912 326.952V326.616C43.912 325.928 43.68 325.392 43.216 325.008C42.752 324.608 42.08 324.408 41.2 324.408C40.32 324.408 39.648 324.608 39.184 325.008C38.72 325.392 38.488 325.928 38.488 326.616V326.952C38.488 327.656 38.72 328.208 39.184 328.608C39.648 329.008 40.32 329.208 41.2 329.208Z" fill="white"/>
<path d="M47.296 369.536C47.296 370.736 47.112 371.872 46.744 372.944C46.376 374 45.896 374.976 45.304 375.872C44.728 376.752 44.08 377.544 43.36 378.248C42.64 378.952 41.92 379.536 41.2 380H36.928C37.936 379.296 38.832 378.624 39.616 377.984C40.416 377.328 41.104 376.664 41.68 375.992C42.272 375.32 42.76 374.624 43.144 373.904C43.544 373.168 43.84 372.368 44.032 371.504L43.84 371.456C43.68 371.776 43.488 372.088 43.264 372.392C43.04 372.696 42.768 372.96 42.448 373.184C42.144 373.408 41.784 373.592 41.368 373.736C40.968 373.864 40.496 373.928 39.952 373.928C39.248 373.928 38.592 373.808 37.984 373.568C37.376 373.328 36.848 372.984 36.4 372.536C35.952 372.072 35.6 371.52 35.344 370.88C35.104 370.24 34.984 369.52 34.984 368.72C34.984 367.872 35.128 367.096 35.416 366.392C35.704 365.688 36.112 365.08 36.64 364.568C37.184 364.056 37.832 363.664 38.584 363.392C39.352 363.104 40.2 362.96 41.128 362.96C42.104 362.96 42.968 363.12 43.72 363.44C44.488 363.744 45.136 364.184 45.664 364.76C46.192 365.32 46.592 366.008 46.864 366.824C47.152 367.624 47.296 368.528 47.296 369.536ZM41.152 371.504C42.064 371.504 42.776 371.256 43.288 370.76C43.8 370.264 44.056 369.552 44.056 368.624V368.336C44.056 367.408 43.808 366.696 43.312 366.2C42.816 365.688 42.096 365.432 41.152 365.432C40.192 365.432 39.464 365.688 38.968 366.2C38.472 366.696 38.224 367.408 38.224 368.336V368.624C38.224 369.552 38.472 370.264 38.968 370.76C39.48 371.256 40.208 371.504 41.152 371.504Z" fill="white"/>
</svg>
