<svg width="1477" height="315" viewBox="0 0 1477 315" fill="none" xmlns="http://www.w3.org/2000/svg">
<path d="M0 5C0 2.23857 2.23858 0 5 0H1462C1470.28 0 1477 6.71573 1477 15V289C1477 302.807 1465.81 314 1452 314H35C15.67 314 0 298.33 0 279V5Z" fill="#373538"/>
<path d="M85.72 46.16V42.32L99.48 34.768V38.672L89.432 44.112V44.368L99.48 49.808V53.712L85.72 46.16ZM109.132 46.704V41.776C110.796 41.712 112.108 41.4027 113.068 40.848C114.049 40.272 114.54 39.344 114.54 38.064V37.616C114.54 36.656 114.252 35.952 113.676 35.504C113.1 35.0347 112.364 34.8 111.468 34.8C110.465 34.8 109.654 35.088 109.036 35.664C108.417 36.2187 107.99 36.944 107.756 37.84L104.299 36.432C104.492 35.7707 104.78 35.1307 105.164 34.512C105.548 33.8933 106.028 33.3493 106.604 32.88C107.201 32.3893 107.905 32.0053 108.716 31.728C109.548 31.4293 110.508 31.28 111.595 31.28C112.684 31.28 113.676 31.44 114.572 31.76C115.468 32.0587 116.236 32.496 116.876 33.072C117.516 33.6267 118.006 34.2987 118.347 35.088C118.71 35.856 118.892 36.72 118.892 37.68C118.892 38.6187 118.732 39.4613 118.412 40.208C118.092 40.9333 117.654 41.5733 117.1 42.128C116.566 42.6613 115.948 43.0987 115.244 43.44C114.54 43.7813 113.804 44.016 113.036 44.144V46.704H109.132ZM111.18 54.352C110.113 54.352 109.356 54.128 108.908 53.68C108.481 53.232 108.268 52.688 108.268 52.048V51.152C108.268 50.512 108.481 49.968 108.908 49.52C109.356 49.072 110.113 48.848 111.18 48.848C112.246 48.848 112.993 49.072 113.42 49.52C113.868 49.968 114.092 50.512 114.092 51.152V52.048C114.092 52.688 113.868 53.232 113.42 53.68C112.993 54.128 112.246 54.352 111.18 54.352ZM123.583 37.488H127.679V40.4H127.903C128.351 39.3973 128.959 38.5973 129.727 38C130.516 37.4027 131.551 37.104 132.831 37.104C133.77 37.104 134.623 37.2853 135.391 37.648C136.18 37.9893 136.852 38.5227 137.407 39.248C137.962 39.952 138.388 40.848 138.687 41.936C138.986 43.024 139.135 44.2933 139.135 45.744C139.135 47.1947 138.986 48.464 138.687 49.552C138.388 50.64 137.962 51.5467 137.407 52.272C136.852 52.976 136.18 53.5093 135.391 53.872C134.623 54.2133 133.77 54.384 132.831 54.384C131.551 54.384 130.516 54.0853 129.727 53.488C128.959 52.8907 128.351 52.0907 127.903 51.088H127.679V60.4H123.583V37.488ZM131.103 51.12C132.298 51.12 133.215 50.7573 133.855 50.032C134.516 49.3067 134.847 48.3147 134.847 47.056V44.432C134.847 43.1733 134.516 42.1813 133.855 41.456C133.215 40.7307 132.298 40.368 131.103 40.368C130.164 40.368 129.354 40.6027 128.671 41.072C128.01 41.52 127.679 42.2133 127.679 43.152V48.336C127.679 49.2747 128.01 49.9787 128.671 50.448C129.354 50.896 130.164 51.12 131.103 51.12ZM142.963 30.32H147.059V40.4H147.219C147.581 39.504 148.136 38.736 148.883 38.096C149.651 37.4347 150.707 37.104 152.051 37.104C153.672 37.104 154.984 37.648 155.987 38.736C157.011 39.8027 157.523 41.3387 157.523 43.344V54H153.427V43.92C153.427 41.5307 152.392 40.336 150.323 40.336C149.896 40.336 149.491 40.3893 149.107 40.496C148.723 40.6027 148.371 40.7733 148.051 41.008C147.752 41.2213 147.507 41.488 147.315 41.808C147.144 42.128 147.059 42.512 147.059 42.96V54H142.963V30.32ZM161.958 37.488H166.054V40.4H166.278C166.726 39.3973 167.334 38.5973 168.102 38C168.891 37.4027 169.926 37.104 171.206 37.104C172.145 37.104 172.998 37.2853 173.766 37.648C174.555 37.9893 175.227 38.5227 175.782 39.248C176.337 39.952 176.763 40.848 177.062 41.936C177.361 43.024 177.51 44.2933 177.51 45.744C177.51 47.1947 177.361 48.464 177.062 49.552C176.763 50.64 176.337 51.5467 175.782 52.272C175.227 52.976 174.555 53.5093 173.766 53.872C172.998 54.2133 172.145 54.384 171.206 54.384C169.926 54.384 168.891 54.0853 168.102 53.488C167.334 52.8907 166.726 52.0907 166.278 51.088H166.054V60.4H161.958V37.488ZM169.478 51.12C170.673 51.12 171.59 50.7573 172.23 50.032C172.891 49.3067 173.222 48.3147 173.222 47.056V44.432C173.222 43.1733 172.891 42.1813 172.23 41.456C171.59 40.7307 170.673 40.368 169.478 40.368C168.539 40.368 167.729 40.6027 167.046 41.072C166.385 41.52 166.054 42.2133 166.054 43.152V48.336C166.054 49.2747 166.385 49.9787 167.046 50.448C167.729 50.896 168.539 51.12 169.478 51.12ZM89.944 256.704V251.776C91.608 251.712 92.92 251.403 93.88 250.848C94.8613 250.272 95.352 249.344 95.352 248.064V247.616C95.352 246.656 95.064 245.952 94.488 245.504C93.912 245.035 93.176 244.8 92.28 244.8C91.2773 244.8 90.4667 245.088 89.848 245.664C89.2293 246.219 88.8027 246.944 88.568 247.84L85.112 246.432C85.304 245.771 85.592 245.131 85.976 244.512C86.36 243.893 86.84 243.349 87.416 242.88C88.0133 242.389 88.7173 242.005 89.528 241.728C90.36 241.429 91.32 241.28 92.408 241.28C93.496 241.28 94.488 241.44 95.384 241.76C96.28 242.059 97.048 242.496 97.688 243.072C98.328 243.627 98.8187 244.299 99.16 245.088C99.5227 245.856 99.704 246.72 99.704 247.68C99.704 248.619 99.544 249.461 99.224 250.208C98.904 250.933 98.4667 251.573 97.912 252.128C97.3787 252.661 96.76 253.099 96.056 253.44C95.352 253.781 94.616 254.016 93.848 254.144V256.704H89.944ZM91.992 264.352C90.9253 264.352 90.168 264.128 89.72 263.68C89.2933 263.232 89.08 262.688 89.08 262.048V261.152C89.08 260.512 89.2933 259.968 89.72 259.52C90.168 259.072 90.9253 258.848 91.992 258.848C93.0587 258.848 93.8053 259.072 94.232 259.52C94.68 259.968 94.904 260.512 94.904 261.152V262.048C94.904 262.688 94.68 263.232 94.232 263.68C93.8053 264.128 93.0587 264.352 91.992 264.352ZM104.908 259.808L114.956 254.368V254.112L104.908 248.672V244.768L118.668 252.32V256.16L104.908 263.712V259.808Z" fill="#438ADD"/>
<path d="M131.999 76.928C131.039 76.928 130.356 76.7253 129.951 76.32C129.567 75.9147 129.375 75.424 129.375 74.848V74.08C129.375 73.504 129.567 73.0133 129.951 72.608C130.356 72.2027 131.039 72 131.999 72C132.959 72 133.631 72.2027 134.015 72.608C134.42 73.0133 134.623 73.504 134.623 74.08V74.848C134.623 75.424 134.42 75.9147 134.015 76.32C133.631 76.7253 132.959 76.928 131.999 76.928ZM124.511 92.768H129.951V82.72H124.511V79.488H134.047V92.768H139.103V96H124.511V92.768ZM142.963 92.768H148.019V82.72H142.643V79.488H148.019V76.8C148.019 76.1387 148.104 75.5413 148.275 75.008C148.467 74.4533 148.755 73.984 149.139 73.6C149.523 73.1947 150.003 72.8853 150.579 72.672C151.176 72.4373 151.869 72.32 152.659 72.32H158.227V75.552H152.115V79.488H158.227V82.72H152.115V92.768H157.491V96H142.963V92.768ZM357.865 100.416V71.68H367.817V74.496H361.193V97.6H367.817V100.416H357.865ZM690.773 71.68V100.416H680.821V97.6H687.445V74.496H680.821V71.68H690.773ZM415.428 142.416V113.68H425.38V116.496H418.756V139.6H425.38V142.416H415.428ZM556.46 113.68V142.416H546.508V139.6H553.132V116.496H546.508V113.68H556.46Z" fill="#E262EE"/>
<path d="M184.794 86.048C184.794 84.4907 184.964 82.9973 185.306 81.568C185.668 80.1173 186.148 78.7733 186.746 77.536C187.364 76.2987 188.079 75.1893 188.89 74.208C189.7 73.2053 190.554 72.3627 191.45 71.68H195.546C194.586 72.3627 193.668 73.1627 192.794 74.08C191.919 74.9973 191.151 76.0107 190.49 77.12C189.828 78.208 189.295 79.3813 188.89 80.64C188.506 81.8773 188.314 83.168 188.314 84.512V87.584C188.314 88.928 188.506 90.2293 188.89 91.488C189.295 92.7253 189.828 93.8987 190.49 95.008C191.151 96.096 191.919 97.0987 192.794 98.016C193.668 98.9333 194.586 99.7333 195.546 100.416H191.45C190.554 99.7547 189.7 98.9227 188.89 97.92C188.079 96.9173 187.364 95.7973 186.746 94.56C186.148 93.3227 185.668 91.9893 185.306 90.56C184.964 89.1093 184.794 87.6053 184.794 86.048ZM902.219 86.048C902.219 87.6053 902.038 89.1093 901.675 90.56C901.334 91.9893 900.854 93.3227 900.235 94.56C899.638 95.7973 898.934 96.9173 898.123 97.92C897.312 98.9227 896.459 99.7547 895.563 100.416H891.467C892.427 99.7333 893.344 98.9333 894.219 98.016C895.094 97.0987 895.862 96.096 896.523 95.008C897.184 93.8987 897.707 92.7253 898.091 91.488C898.496 90.2293 898.699 88.928 898.699 87.584V84.512C898.699 83.168 898.496 81.8773 898.091 80.64C897.707 79.3813 897.184 78.208 896.523 77.12C895.862 76.0107 895.094 74.9973 894.219 74.08C893.344 73.1627 892.427 72.3627 891.467 71.68H895.563C896.459 72.3627 897.312 73.2053 898.123 74.208C898.934 75.1893 899.638 76.2987 900.235 77.536C900.854 78.7733 901.334 80.1173 901.675 81.568C902.038 82.9973 902.219 84.4907 902.219 86.048ZM937.714 100.416C936.434 100.416 935.506 100.117 934.93 99.52C934.354 98.9227 934.066 98.1547 934.066 97.216V95.616C934.066 95.0613 934.119 94.5813 934.226 94.176C934.354 93.7493 934.503 93.376 934.674 93.056C934.845 92.736 935.037 92.448 935.25 92.192C935.463 91.936 935.666 91.6907 935.858 91.456C936.221 91.0293 936.466 90.6667 936.594 90.368C936.743 90.048 936.818 89.7173 936.818 89.376C936.818 88.096 935.581 87.456 933.106 87.456H930.322V84.64H933.106C935.581 84.64 936.818 84 936.818 82.72C936.818 82.3787 936.743 82.0587 936.594 81.76C936.466 81.44 936.221 81.0667 935.858 80.64C935.666 80.4053 935.463 80.16 935.25 79.904C935.037 79.648 934.845 79.36 934.674 79.04C934.503 78.72 934.354 78.3573 934.226 77.952C934.119 77.5253 934.066 77.0347 934.066 76.48V74.88C934.066 73.9413 934.354 73.1733 934.93 72.576C935.506 71.9787 936.434 71.68 937.714 71.68H943.378V74.496H937.394V76.288C937.394 77.12 937.522 77.76 937.778 78.208C938.034 78.656 938.333 79.0933 938.674 79.52C939.037 79.968 939.378 80.448 939.698 80.96C940.018 81.472 940.178 82.0693 940.178 82.752C940.178 83.648 939.869 84.3733 939.25 84.928C938.631 85.4613 937.714 85.8027 936.498 85.952V86.144C937.714 86.2933 938.631 86.6453 939.25 87.2C939.869 87.7333 940.178 88.448 940.178 89.344C940.178 90.0267 940.018 90.624 939.698 91.136C939.378 91.648 939.037 92.128 938.674 92.576C938.333 93.0027 938.034 93.44 937.778 93.888C937.522 94.336 937.394 94.976 937.394 95.808V97.6H943.378V100.416H937.714ZM110.924 197.68C112.204 197.68 113.132 197.979 113.708 198.576C114.284 199.173 114.572 199.941 114.572 200.88V202.48C114.572 203.035 114.508 203.525 114.38 203.952C114.273 204.357 114.134 204.72 113.964 205.04C113.793 205.36 113.601 205.648 113.388 205.904C113.174 206.16 112.972 206.405 112.78 206.64C112.417 207.067 112.161 207.44 112.012 207.76C111.884 208.059 111.82 208.379 111.82 208.72C111.82 210 113.057 210.64 115.532 210.64H118.316V213.456H115.532C113.057 213.456 111.82 214.096 111.82 215.376C111.82 215.717 111.884 216.048 112.012 216.368C112.161 216.667 112.417 217.029 112.78 217.456C112.972 217.691 113.174 217.936 113.388 218.192C113.601 218.448 113.793 218.736 113.964 219.056C114.134 219.376 114.273 219.749 114.38 220.176C114.508 220.581 114.572 221.061 114.572 221.616V223.216C114.572 224.155 114.284 224.923 113.708 225.52C113.132 226.117 112.204 226.416 110.924 226.416H105.26V223.6H111.244V221.808C111.244 220.976 111.116 220.336 110.86 219.888C110.604 219.44 110.305 219.003 109.964 218.576C109.601 218.128 109.26 217.648 108.94 217.136C108.62 216.624 108.46 216.027 108.46 215.344C108.46 214.448 108.769 213.733 109.388 213.2C110.006 212.645 110.924 212.293 112.14 212.144V211.952C110.924 211.803 110.006 211.461 109.388 210.928C108.769 210.373 108.46 209.648 108.46 208.752C108.46 208.069 108.62 207.472 108.94 206.96C109.26 206.448 109.601 205.968 109.964 205.52C110.305 205.093 110.604 204.656 110.86 204.208C111.116 203.76 111.244 203.12 111.244 202.288V200.496H105.26V197.68H110.924Z" fill="#EECE32"/>
<path d="M206.477 96.352C204.813 96.224 203.384 95.8507 202.189 95.232C201.016 94.592 200.056 93.7707 199.309 92.768L201.837 90.176C203.245 91.7547 204.866 92.6507 206.701 92.864V86.24L205.965 86.112C204.92 85.92 204.013 85.632 203.245 85.248C202.498 84.864 201.88 84.3947 201.389 83.84C200.92 83.2853 200.568 82.6667 200.333 81.984C200.12 81.3013 200.013 80.5653 200.013 79.776C200.013 77.9627 200.568 76.5013 201.677 75.392C202.808 74.2827 204.408 73.6107 206.477 73.376V70.048H209.613V73.344C211 73.5147 212.184 73.8667 213.165 74.4C214.168 74.9333 215.01 75.6267 215.693 76.48L213.165 79.072C212.184 77.8987 210.925 77.184 209.389 76.928V83.008L210.189 83.136C212.28 83.52 213.794 84.2667 214.733 85.376C215.672 86.464 216.141 87.808 216.141 89.408C216.141 91.2213 215.576 92.736 214.445 93.952C213.336 95.1467 211.725 95.904 209.613 96.224V99.616H206.477V96.352ZM203.949 79.648C203.949 80.4373 204.162 81.0453 204.589 81.472C205.016 81.8987 205.72 82.2293 206.701 82.464V76.832C204.866 77.088 203.949 78.0267 203.949 79.648ZM212.237 89.664C212.237 88.8107 212.013 88.1707 211.565 87.744C211.117 87.296 210.392 86.9653 209.389 86.752V92.832C210.349 92.6613 211.064 92.3093 211.533 91.776C212.002 91.2427 212.237 90.5387 212.237 89.664ZM219.233 101.92V98.496H234.593V101.92H219.233ZM245.844 96.384C243.924 96.384 242.281 96.0533 240.916 95.392C239.572 94.7307 238.473 93.856 237.62 92.768L240.148 90.144C240.98 91.104 241.876 91.8187 242.836 92.288C243.817 92.736 244.863 92.96 245.972 92.96C247.252 92.96 248.233 92.672 248.916 92.096C249.599 91.52 249.94 90.688 249.94 89.6C249.94 88.704 249.684 88.032 249.172 87.584C248.66 87.1147 247.796 86.784 246.58 86.592L244.212 86.208C242.143 85.8453 240.671 85.0987 239.796 83.968C238.921 82.816 238.484 81.4613 238.484 79.904C238.484 77.7707 239.177 76.1387 240.564 75.008C241.951 73.856 243.871 73.28 246.324 73.28C248.073 73.28 249.577 73.5573 250.836 74.112C252.116 74.6667 253.14 75.424 253.908 76.384L251.444 79.008C250.847 78.304 250.132 77.7493 249.3 77.344C248.468 76.9173 247.487 76.704 246.356 76.704C243.924 76.704 242.708 77.7067 242.708 79.712C242.708 80.5653 242.964 81.216 243.476 81.664C243.988 82.112 244.863 82.4427 246.1 82.656L248.436 83.072C250.377 83.4347 251.817 84.1493 252.756 85.216C253.695 86.2827 254.164 87.648 254.164 89.312C254.164 90.3573 253.983 91.3173 253.62 92.192C253.257 93.0453 252.724 93.792 252.02 94.432C251.316 95.0507 250.441 95.5307 249.396 95.872C248.372 96.2133 247.188 96.384 245.844 96.384ZM258.344 96V73.664H272.456V77.12H262.536V82.944H272.104V86.4H262.536V92.544H272.456V96H258.344ZM281.627 96H277.435V73.664H285.915C288.091 73.664 289.755 74.2827 290.907 75.52C292.059 76.7573 292.635 78.4427 292.635 80.576C292.635 82.2187 292.251 83.6053 291.483 84.736C290.736 85.8453 289.659 86.5493 288.251 86.848L293.019 96H288.411L284.155 87.328H281.627V96ZM285.051 84.064C286.182 84.064 286.992 83.84 287.483 83.392C287.974 82.9227 288.219 82.1867 288.219 81.184V79.968C288.219 78.9653 287.974 78.24 287.483 77.792C286.992 77.3227 286.182 77.088 285.051 77.088H281.627V84.064H285.051ZM300.719 96L294.607 73.664H299.215L301.999 84.96L303.631 92H303.855L305.519 84.96L308.335 73.664H312.719L306.607 96H300.719ZM315.906 96V73.664H330.018V77.12H320.098V82.944H329.666V86.4H320.098V92.544H330.018V96H315.906ZM339.19 96H334.998V73.664H343.478C345.654 73.664 347.318 74.2827 348.47 75.52C349.622 76.7573 350.198 78.4427 350.198 80.576C350.198 82.2187 349.814 83.6053 349.046 84.736C348.299 85.8453 347.222 86.5493 345.814 86.848L350.582 96H345.974L341.718 87.328H339.19V96ZM342.614 84.064C343.744 84.064 344.555 83.84 345.046 83.392C345.536 82.9227 345.782 82.1867 345.782 81.184V79.968C345.782 78.9653 345.536 78.24 345.046 77.792C344.555 77.3227 343.744 77.088 342.614 77.088H339.19V84.064H342.614ZM148.915 138.352C147.251 138.224 145.821 137.851 144.627 137.232C143.453 136.592 142.493 135.771 141.747 134.768L144.275 132.176C145.683 133.755 147.304 134.651 149.139 134.864V128.24L148.403 128.112C147.357 127.92 146.451 127.632 145.683 127.248C144.936 126.864 144.317 126.395 143.827 125.84C143.357 125.285 143.005 124.667 142.771 123.984C142.557 123.301 142.451 122.565 142.451 121.776C142.451 119.963 143.005 118.501 144.115 117.392C145.245 116.283 146.845 115.611 148.915 115.376V112.048H152.051V115.344C153.437 115.515 154.621 115.867 155.603 116.4C156.605 116.933 157.448 117.627 158.131 118.48L155.603 121.072C154.621 119.899 153.363 119.184 151.827 118.928V125.008L152.627 125.136C154.717 125.52 156.232 126.267 157.171 127.376C158.109 128.464 158.579 129.808 158.579 131.408C158.579 133.221 158.013 134.736 156.883 135.952C155.773 137.147 154.163 137.904 152.051 138.224V141.616H148.915V138.352ZM146.387 121.648C146.387 122.437 146.6 123.045 147.027 123.472C147.453 123.899 148.157 124.229 149.139 124.464V118.832C147.304 119.088 146.387 120.027 146.387 121.648ZM154.675 131.664C154.675 130.811 154.451 130.171 154.003 129.744C153.555 129.296 152.829 128.965 151.827 128.752V134.832C152.787 134.661 153.501 134.309 153.971 133.776C154.44 133.243 154.675 132.539 154.675 131.664ZM162.15 138V121.488H166.246V124.4H166.406C166.769 123.504 167.323 122.736 168.07 122.096C168.838 121.435 169.894 121.104 171.238 121.104C172.859 121.104 174.171 121.648 175.174 122.736C176.198 123.803 176.71 125.339 176.71 127.344V138H172.614V127.92C172.614 125.531 171.579 124.336 169.51 124.336C169.083 124.336 168.678 124.389 168.294 124.496C167.91 124.603 167.558 124.773 167.238 125.008C166.939 125.221 166.694 125.488 166.502 125.808C166.331 126.128 166.246 126.512 166.246 126.96V138H162.15ZM188.538 138.384C187.279 138.384 186.148 138.181 185.146 137.776C184.164 137.371 183.322 136.795 182.618 136.048C181.935 135.301 181.402 134.395 181.018 133.328C180.655 132.261 180.474 131.067 180.474 129.744C180.474 128.421 180.655 127.227 181.018 126.16C181.402 125.093 181.935 124.187 182.618 123.44C183.322 122.693 184.164 122.117 185.146 121.712C186.148 121.307 187.279 121.104 188.538 121.104C189.775 121.104 190.895 121.307 191.898 121.712C192.9 122.117 193.743 122.693 194.426 123.44C195.13 124.187 195.663 125.093 196.026 126.16C196.41 127.227 196.602 128.421 196.602 129.744C196.602 131.067 196.41 132.261 196.026 133.328C195.663 134.395 195.13 135.301 194.426 136.048C193.743 136.795 192.9 137.371 191.898 137.776C190.895 138.181 189.775 138.384 188.538 138.384ZM188.538 135.248C189.711 135.248 190.639 134.896 191.322 134.192C192.004 133.467 192.346 132.411 192.346 131.024V128.464C192.346 127.077 192.004 126.032 191.322 125.328C190.639 124.603 189.711 124.24 188.538 124.24C187.364 124.24 186.436 124.603 185.754 125.328C185.071 126.032 184.73 127.077 184.73 128.464V131.024C184.73 132.411 185.071 133.467 185.754 134.192C186.436 134.896 187.364 135.248 188.538 135.248ZM199.309 138V121.488H202.701V123.76H202.893C203.149 123.035 203.512 122.416 203.981 121.904C204.472 121.371 205.154 121.104 206.029 121.104C206.861 121.104 207.522 121.349 208.013 121.84C208.504 122.309 208.824 122.981 208.973 123.856H209.133C209.41 123.109 209.816 122.469 210.349 121.936C210.904 121.381 211.682 121.104 212.685 121.104C213.901 121.104 214.776 121.541 215.309 122.416C215.842 123.291 216.109 124.581 216.109 126.288V138H212.749V126.768C212.749 125.808 212.61 125.136 212.333 124.752C212.077 124.368 211.682 124.176 211.149 124.176C210.658 124.176 210.242 124.336 209.901 124.656C209.581 124.976 209.421 125.467 209.421 126.128V138H206.029V126.768C206.029 125.808 205.901 125.136 205.645 124.752C205.389 124.368 204.994 124.176 204.461 124.176C203.949 124.176 203.522 124.336 203.181 124.656C202.861 124.976 202.701 125.467 202.701 126.128V138H199.309ZM227.297 138.384C225.974 138.384 224.801 138.181 223.777 137.776C222.753 137.371 221.889 136.795 221.185 136.048C220.502 135.301 219.979 134.405 219.617 133.36C219.254 132.293 219.073 131.099 219.073 129.776C219.073 128.432 219.254 127.227 219.617 126.16C220.001 125.093 220.534 124.187 221.217 123.44C221.899 122.693 222.721 122.117 223.681 121.712C224.662 121.307 225.761 121.104 226.977 121.104C228.171 121.104 229.249 121.307 230.209 121.712C231.169 122.096 231.979 122.651 232.641 123.376C233.323 124.101 233.846 124.976 234.208 126C234.571 127.024 234.753 128.155 234.753 129.392V130.736H223.169V131.152C223.169 132.347 223.542 133.317 224.289 134.064C225.035 134.789 226.081 135.152 227.425 135.152C228.449 135.152 229.323 134.949 230.049 134.544C230.795 134.117 231.414 133.563 231.905 132.88L234.241 135.216C233.643 136.091 232.769 136.837 231.617 137.456C230.486 138.075 229.046 138.384 227.297 138.384ZM227.009 124.112C225.857 124.112 224.929 124.475 224.225 125.2C223.521 125.925 223.169 126.885 223.169 128.08V128.304H230.657V128.016C230.657 126.821 230.326 125.872 229.665 125.168C229.025 124.464 228.139 124.112 227.009 124.112ZM302.415 138.352C300.751 138.224 299.321 137.851 298.127 137.232C296.953 136.592 295.993 135.771 295.247 134.768L297.775 132.176C299.183 133.755 300.804 134.651 302.639 134.864V128.24L301.903 128.112C300.857 127.92 299.951 127.632 299.183 127.248C298.436 126.864 297.817 126.395 297.327 125.84C296.857 125.285 296.505 124.667 296.271 123.984C296.057 123.301 295.951 122.565 295.951 121.776C295.951 119.963 296.505 118.501 297.615 117.392C298.745 116.283 300.345 115.611 302.415 115.376V112.048H305.551V115.344C306.937 115.515 308.121 115.867 309.103 116.4C310.105 116.933 310.948 117.627 311.631 118.48L309.103 121.072C308.121 119.899 306.863 119.184 305.327 118.928V125.008L306.127 125.136C308.217 125.52 309.732 126.267 310.671 127.376C311.609 128.464 312.079 129.808 312.079 131.408C312.079 133.221 311.513 134.736 310.383 135.952C309.273 137.147 307.663 137.904 305.551 138.224V141.616H302.415V138.352ZM299.887 121.648C299.887 122.437 300.1 123.045 300.527 123.472C300.953 123.899 301.657 124.229 302.639 124.464V118.832C300.804 119.088 299.887 120.027 299.887 121.648ZM308.175 131.664C308.175 130.811 307.951 130.171 307.503 129.744C307.055 129.296 306.329 128.965 305.327 128.752V134.832C306.287 134.661 307.001 134.309 307.471 133.776C307.94 133.243 308.175 132.539 308.175 131.664ZM315.17 143.92V140.496H330.53V143.92H315.17ZM334.998 138V115.664H343.478C345.654 115.664 347.318 116.283 348.47 117.52C349.622 118.757 350.198 120.443 350.198 122.576C350.198 124.709 349.622 126.395 348.47 127.632C347.318 128.869 345.654 129.488 343.478 129.488H339.19V138H334.998ZM339.19 126.064H342.614C343.744 126.064 344.555 125.84 345.046 125.392C345.536 124.923 345.782 124.187 345.782 123.184V121.968C345.782 120.965 345.536 120.24 345.046 119.792C344.555 119.323 343.744 119.088 342.614 119.088H339.19V126.064ZM361.225 138.384C359.774 138.384 358.516 138.128 357.449 137.616C356.382 137.083 355.497 136.325 354.793 135.344C354.11 134.363 353.598 133.157 353.257 131.728C352.937 130.299 352.777 128.667 352.777 126.832C352.777 125.019 352.937 123.397 353.257 121.968C353.598 120.517 354.11 119.301 354.793 118.32C355.497 117.339 356.382 116.592 357.449 116.08C358.516 115.547 359.774 115.28 361.225 115.28C364.126 115.28 366.26 116.293 367.625 118.32C368.99 120.347 369.673 123.184 369.673 126.832C369.673 130.48 368.99 133.317 367.625 135.344C366.26 137.371 364.126 138.384 361.225 138.384ZM361.225 134.96C361.972 134.96 362.601 134.821 363.113 134.544C363.625 134.245 364.03 133.829 364.329 133.296C364.649 132.763 364.873 132.112 365.001 131.344C365.15 130.555 365.225 129.68 365.225 128.72V124.912C365.225 122.992 364.926 121.477 364.329 120.368C363.753 119.259 362.718 118.704 361.225 118.704C359.732 118.704 358.686 119.259 358.089 120.368C357.513 121.477 357.225 122.992 357.225 124.912V128.752C357.225 130.672 357.513 132.187 358.089 133.296C358.686 134.405 359.732 134.96 361.225 134.96ZM380.157 138.384C378.237 138.384 376.594 138.053 375.229 137.392C373.885 136.731 372.786 135.856 371.933 134.768L374.461 132.144C375.293 133.104 376.189 133.819 377.149 134.288C378.13 134.736 379.175 134.96 380.285 134.96C381.565 134.96 382.546 134.672 383.229 134.096C383.911 133.52 384.253 132.688 384.253 131.6C384.253 130.704 383.997 130.032 383.485 129.584C382.973 129.115 382.109 128.784 380.893 128.592L378.525 128.208C376.455 127.845 374.983 127.099 374.109 125.968C373.234 124.816 372.797 123.461 372.797 121.904C372.797 119.771 373.49 118.139 374.877 117.008C376.263 115.856 378.183 115.28 380.637 115.28C382.386 115.28 383.89 115.557 385.149 116.112C386.429 116.667 387.453 117.424 388.221 118.384L385.757 121.008C385.159 120.304 384.445 119.749 383.613 119.344C382.781 118.917 381.799 118.704 380.669 118.704C378.237 118.704 377.021 119.707 377.021 121.712C377.021 122.565 377.277 123.216 377.789 123.664C378.301 124.112 379.175 124.443 380.413 124.656L382.749 125.072C384.69 125.435 386.13 126.149 387.069 127.216C388.007 128.283 388.477 129.648 388.477 131.312C388.477 132.357 388.295 133.317 387.933 134.192C387.57 135.045 387.037 135.792 386.333 136.432C385.629 137.051 384.754 137.531 383.709 137.872C382.685 138.213 381.501 138.384 380.157 138.384ZM401.68 119.12V138H397.52V119.12H390.8V115.664H408.4V119.12H401.68ZM359.977 180.352C358.313 180.224 356.884 179.851 355.689 179.232C354.516 178.592 353.556 177.771 352.809 176.768L355.337 174.176C356.745 175.755 358.366 176.651 360.201 176.864V170.24L359.465 170.112C358.42 169.92 357.513 169.632 356.745 169.248C355.998 168.864 355.38 168.395 354.889 167.84C354.42 167.285 354.068 166.667 353.833 165.984C353.62 165.301 353.513 164.565 353.513 163.776C353.513 161.963 354.068 160.501 355.177 159.392C356.308 158.283 357.908 157.611 359.977 157.376V154.048H363.113V157.344C364.5 157.515 365.684 157.867 366.665 158.4C367.668 158.933 368.51 159.627 369.193 160.48L366.665 163.072C365.684 161.899 364.425 161.184 362.889 160.928V167.008L363.689 167.136C365.78 167.52 367.294 168.267 368.233 169.376C369.172 170.464 369.641 171.808 369.641 173.408C369.641 175.221 369.076 176.736 367.945 177.952C366.836 179.147 365.225 179.904 363.113 180.224V183.616H359.977V180.352ZM357.449 163.648C357.449 164.437 357.662 165.045 358.089 165.472C358.516 165.899 359.22 166.229 360.201 166.464V160.832C358.366 161.088 357.449 162.027 357.449 163.648ZM365.737 173.664C365.737 172.811 365.513 172.171 365.065 171.744C364.617 171.296 363.892 170.965 362.889 170.752V176.832C363.849 176.661 364.564 176.309 365.033 175.776C365.502 175.243 365.737 174.539 365.737 173.664ZM373.213 180V163.488H377.309V166.4H377.469C377.831 165.504 378.386 164.736 379.133 164.096C379.901 163.435 380.957 163.104 382.301 163.104C383.922 163.104 385.234 163.648 386.237 164.736C387.261 165.803 387.773 167.339 387.773 169.344V180H383.677V169.92C383.677 167.531 382.642 166.336 380.573 166.336C380.146 166.336 379.741 166.389 379.357 166.496C378.973 166.603 378.621 166.773 378.301 167.008C378.002 167.221 377.757 167.488 377.565 167.808C377.394 168.128 377.309 168.512 377.309 168.96V180H373.213ZM399.6 180.384C398.341 180.384 397.211 180.181 396.208 179.776C395.227 179.371 394.384 178.795 393.68 178.048C392.997 177.301 392.464 176.395 392.08 175.328C391.717 174.261 391.536 173.067 391.536 171.744C391.536 170.421 391.717 169.227 392.08 168.16C392.464 167.093 392.997 166.187 393.68 165.44C394.384 164.693 395.227 164.117 396.208 163.712C397.211 163.307 398.341 163.104 399.6 163.104C400.837 163.104 401.957 163.307 402.96 163.712C403.963 164.117 404.805 164.693 405.488 165.44C406.192 166.187 406.725 167.093 407.088 168.16C407.472 169.227 407.664 170.421 407.664 171.744C407.664 173.067 407.472 174.261 407.088 175.328C406.725 176.395 406.192 177.301 405.488 178.048C404.805 178.795 403.963 179.371 402.96 179.776C401.957 180.181 400.837 180.384 399.6 180.384ZM399.6 177.248C400.773 177.248 401.701 176.896 402.384 176.192C403.067 175.467 403.408 174.411 403.408 173.024V170.464C403.408 169.077 403.067 168.032 402.384 167.328C401.701 166.603 400.773 166.24 399.6 166.24C398.427 166.24 397.499 166.603 396.816 167.328C396.133 168.032 395.792 169.077 395.792 170.464V173.024C395.792 174.411 396.133 175.467 396.816 176.192C397.499 176.896 398.427 177.248 399.6 177.248ZM410.372 180V163.488H413.764V165.76H413.956C414.212 165.035 414.574 164.416 415.044 163.904C415.534 163.371 416.217 163.104 417.092 163.104C417.924 163.104 418.585 163.349 419.076 163.84C419.566 164.309 419.886 164.981 420.036 165.856H420.196C420.473 165.109 420.878 164.469 421.412 163.936C421.966 163.381 422.745 163.104 423.748 163.104C424.964 163.104 425.838 163.541 426.372 164.416C426.905 165.291 427.172 166.581 427.172 168.288V180H423.812V168.768C423.812 167.808 423.673 167.136 423.396 166.752C423.14 166.368 422.745 166.176 422.212 166.176C421.721 166.176 421.305 166.336 420.964 166.656C420.644 166.976 420.484 167.467 420.484 168.128V180H417.092V168.768C417.092 167.808 416.964 167.136 416.708 166.752C416.452 166.368 416.057 166.176 415.524 166.176C415.012 166.176 414.585 166.336 414.244 166.656C413.924 166.976 413.764 167.467 413.764 168.128V180H410.372ZM438.359 180.384C437.036 180.384 435.863 180.181 434.839 179.776C433.815 179.371 432.951 178.795 432.247 178.048C431.564 177.301 431.042 176.405 430.679 175.36C430.316 174.293 430.135 173.099 430.135 171.776C430.135 170.432 430.316 169.227 430.679 168.16C431.063 167.093 431.596 166.187 432.279 165.44C432.962 164.693 433.783 164.117 434.743 163.712C435.724 163.307 436.823 163.104 438.039 163.104C439.234 163.104 440.311 163.307 441.271 163.712C442.231 164.096 443.042 164.651 443.703 165.376C444.386 166.101 444.908 166.976 445.271 168C445.634 169.024 445.815 170.155 445.815 171.392V172.736H434.231V173.152C434.231 174.347 434.604 175.317 435.351 176.064C436.098 176.789 437.143 177.152 438.487 177.152C439.511 177.152 440.386 176.949 441.111 176.544C441.858 176.117 442.476 175.563 442.967 174.88L445.303 177.216C444.706 178.091 443.831 178.837 442.679 179.456C441.548 180.075 440.108 180.384 438.359 180.384ZM438.071 166.112C436.919 166.112 435.991 166.475 435.287 167.2C434.583 167.925 434.231 168.885 434.231 170.08V170.304H441.719V170.016C441.719 168.821 441.388 167.872 440.727 167.168C440.087 166.464 439.202 166.112 438.071 166.112Z" fill="#B2D1FF"/>
<path d="M375.229 82.304V72.32H378.941V82.304H375.229ZM381.917 82.304V72.32H385.629V82.304H381.917ZM396.752 96H392.56V73.664H401.04C403.216 73.664 404.88 74.2827 406.032 75.52C407.184 76.7573 407.76 78.4427 407.76 80.576C407.76 82.2187 407.376 83.6053 406.608 84.736C405.861 85.8453 404.784 86.5493 403.376 86.848L408.144 96H403.536L399.28 87.328H396.752V96ZM400.176 84.064C401.307 84.064 402.117 83.84 402.608 83.392C403.099 82.9227 403.344 82.1867 403.344 81.184V79.968C403.344 78.9653 403.099 78.24 402.608 77.792C402.117 77.3227 401.307 77.088 400.176 77.088H396.752V84.064H400.176ZM411.844 96V73.664H425.956V77.12H416.036V82.944H425.604V86.4H416.036V92.544H425.956V96H411.844ZM444.887 101.856H440.567C438.988 101.856 437.858 101.451 437.175 100.64C436.492 99.8507 436.151 98.7947 436.151 97.472V96.224C433.868 95.8187 432.194 94.6347 431.127 92.672C430.06 90.7093 429.527 88.096 429.527 84.832C429.527 83.0187 429.687 81.3973 430.007 79.968C430.348 78.5173 430.86 77.3013 431.543 76.32C432.247 75.3387 433.132 74.592 434.199 74.08C435.266 73.5467 436.524 73.28 437.975 73.28C440.876 73.28 443.01 74.2933 444.375 76.32C445.74 78.3467 446.423 81.184 446.423 84.832C446.423 88.096 445.89 90.7093 444.823 92.672C443.756 94.6347 442.082 95.8187 439.799 96.224V98.816H444.887V101.856ZM437.975 92.96C438.722 92.96 439.351 92.8213 439.863 92.544C440.375 92.2453 440.78 91.8293 441.079 91.296C441.399 90.7627 441.623 90.112 441.751 89.344C441.9 88.5547 441.975 87.68 441.975 86.72V82.912C441.975 80.992 441.676 79.4773 441.079 78.368C440.503 77.2587 439.468 76.704 437.975 76.704C436.482 76.704 435.436 77.2587 434.839 78.368C434.263 79.4773 433.975 80.992 433.975 82.912V86.752C433.975 88.672 434.263 90.1867 434.839 91.296C435.436 92.4053 436.482 92.96 437.975 92.96ZM453.739 73.664V87.584C453.739 88.416 453.76 89.1627 453.803 89.824C453.867 90.4853 454.005 91.0507 454.219 91.52C454.453 91.968 454.795 92.32 455.243 92.576C455.712 92.832 456.352 92.96 457.163 92.96C457.973 92.96 458.603 92.832 459.051 92.576C459.52 92.32 459.861 91.968 460.075 91.52C460.309 91.0507 460.448 90.4853 460.491 89.824C460.555 89.1627 460.587 88.416 460.587 87.584V73.664H464.779V86.944C464.779 88.5227 464.683 89.8987 464.491 91.072C464.299 92.2453 463.925 93.2267 463.371 94.016C462.816 94.8053 462.037 95.4027 461.035 95.808C460.053 96.192 458.763 96.384 457.163 96.384C455.563 96.384 454.261 96.192 453.259 95.808C452.277 95.4027 451.509 94.8053 450.955 94.016C450.4 93.2267 450.027 92.2453 449.835 91.072C449.643 89.8987 449.547 88.5227 449.547 86.944V73.664H453.739ZM469.406 96V73.664H483.518V77.12H473.598V82.944H483.166V86.4H473.598V92.544H483.518V96H469.406ZM495.282 96.384C493.362 96.384 491.719 96.0533 490.354 95.392C489.01 94.7307 487.911 93.856 487.058 92.768L489.586 90.144C490.418 91.104 491.314 91.8187 492.274 92.288C493.255 92.736 494.3 92.96 495.41 92.96C496.69 92.96 497.671 92.672 498.354 92.096C499.036 91.52 499.378 90.688 499.378 89.6C499.378 88.704 499.122 88.032 498.61 87.584C498.098 87.1147 497.234 86.784 496.018 86.592L493.65 86.208C491.58 85.8453 490.108 85.0987 489.234 83.968C488.359 82.816 487.922 81.4613 487.922 79.904C487.922 77.7707 488.615 76.1387 490.002 75.008C491.388 73.856 493.308 73.28 495.762 73.28C497.511 73.28 499.015 73.5573 500.274 74.112C501.554 74.6667 502.578 75.424 503.346 76.384L500.882 79.008C500.284 78.304 499.57 77.7493 498.738 77.344C497.906 76.9173 496.924 76.704 495.794 76.704C493.362 76.704 492.146 77.7067 492.146 79.712C492.146 80.5653 492.402 81.216 492.914 81.664C493.426 82.112 494.3 82.4427 495.538 82.656L497.874 83.072C499.815 83.4347 501.255 84.1493 502.194 85.216C503.132 86.2827 503.602 87.648 503.602 89.312C503.602 90.3573 503.42 91.3173 503.058 92.192C502.695 93.0453 502.162 93.792 501.458 94.432C500.754 95.0507 499.879 95.5307 498.834 95.872C497.81 96.2133 496.626 96.384 495.282 96.384ZM516.805 77.12V96H512.645V77.12H505.925V73.664H523.525V77.12H516.805ZM526.233 101.92V98.496H541.593V101.92H526.233ZM557.516 85.664L557.708 79.2H557.42L553.1 90.688L548.78 79.2H548.492L548.684 85.664V96H545.036V73.664H550.028L553.132 81.888H553.356L556.492 73.664H561.164V96H557.516V85.664ZM565.344 96V73.664H579.456V77.12H569.536V82.944H579.104V86.4H569.536V92.544H579.456V96H565.344ZM593.555 77.12V96H589.395V77.12H582.675V73.664H600.275V77.12H593.555ZM613.927 86.4H607.399V96H603.207V73.664H607.399V82.944H613.927V73.664H618.119V96H613.927V86.4ZM629.85 96.384C628.399 96.384 627.141 96.128 626.074 95.616C625.007 95.0827 624.122 94.3253 623.418 93.344C622.735 92.3627 622.223 91.1573 621.882 89.728C621.562 88.2987 621.402 86.6667 621.402 84.832C621.402 83.0187 621.562 81.3973 621.882 79.968C622.223 78.5173 622.735 77.3013 623.418 76.32C624.122 75.3387 625.007 74.592 626.074 74.08C627.141 73.5467 628.399 73.28 629.85 73.28C632.751 73.28 634.885 74.2933 636.25 76.32C637.615 78.3467 638.298 81.184 638.298 84.832C638.298 88.48 637.615 91.3173 636.25 93.344C634.885 95.3707 632.751 96.384 629.85 96.384ZM629.85 92.96C630.597 92.96 631.226 92.8213 631.738 92.544C632.25 92.2453 632.655 91.8293 632.954 91.296C633.274 90.7627 633.498 90.112 633.626 89.344C633.775 88.5547 633.85 87.68 633.85 86.72V82.912C633.85 80.992 633.551 79.4773 632.954 78.368C632.378 77.2587 631.343 76.704 629.85 76.704C628.357 76.704 627.311 77.2587 626.714 78.368C626.138 79.4773 625.85 80.992 625.85 82.912V86.752C625.85 88.672 626.138 90.1867 626.714 91.296C627.311 92.4053 628.357 92.96 629.85 92.96ZM641.774 73.664H648.718C651.619 73.664 653.774 74.624 655.182 76.544C656.611 78.464 657.326 81.2267 657.326 84.832C657.326 88.4587 656.611 91.232 655.182 93.152C653.774 95.0507 651.619 96 648.718 96H641.774V73.664ZM648.43 92.64C649.966 92.64 651.096 92.1387 651.822 91.136C652.568 90.1333 652.942 88.672 652.942 86.752V82.88C652.942 80.9813 652.568 79.5307 651.822 78.528C651.096 77.5253 649.966 77.024 648.43 77.024H645.902V92.64H648.43ZM663.041 82.304V72.32H666.753V82.304H663.041ZM669.729 82.304V72.32H673.441V82.304H669.729ZM778.166 82.304V72.32H781.878V82.304H778.166ZM784.854 82.304V72.32H788.566V82.304H784.854ZM795.498 96V73.664H803.978C806.154 73.664 807.818 74.2827 808.97 75.52C810.122 76.7573 810.698 78.4427 810.698 80.576C810.698 82.7093 810.122 84.3947 808.97 85.632C807.818 86.8693 806.154 87.488 803.978 87.488H799.69V96H795.498ZM799.69 84.064H803.114C804.244 84.064 805.055 83.84 805.546 83.392C806.036 82.9227 806.282 82.1867 806.282 81.184V79.968C806.282 78.9653 806.036 78.24 805.546 77.792C805.055 77.3227 804.244 77.088 803.114 77.088H799.69V84.064ZM821.725 96.384C820.274 96.384 819.016 96.128 817.949 95.616C816.882 95.0827 815.997 94.3253 815.293 93.344C814.61 92.3627 814.098 91.1573 813.757 89.728C813.437 88.2987 813.277 86.6667 813.277 84.832C813.277 83.0187 813.437 81.3973 813.757 79.968C814.098 78.5173 814.61 77.3013 815.293 76.32C815.997 75.3387 816.882 74.592 817.949 74.08C819.016 73.5467 820.274 73.28 821.725 73.28C824.626 73.28 826.76 74.2933 828.125 76.32C829.49 78.3467 830.173 81.184 830.173 84.832C830.173 88.48 829.49 91.3173 828.125 93.344C826.76 95.3707 824.626 96.384 821.725 96.384ZM821.725 92.96C822.472 92.96 823.101 92.8213 823.613 92.544C824.125 92.2453 824.53 91.8293 824.829 91.296C825.149 90.7627 825.373 90.112 825.501 89.344C825.65 88.5547 825.725 87.68 825.725 86.72V82.912C825.725 80.992 825.426 79.4773 824.829 78.368C824.253 77.2587 823.218 76.704 821.725 76.704C820.232 76.704 819.186 77.2587 818.589 78.368C818.013 79.4773 817.725 80.992 817.725 82.912V86.752C817.725 88.672 818.013 90.1867 818.589 91.296C819.186 92.4053 820.232 92.96 821.725 92.96ZM840.657 96.384C838.737 96.384 837.094 96.0533 835.729 95.392C834.385 94.7307 833.286 93.856 832.433 92.768L834.961 90.144C835.793 91.104 836.689 91.8187 837.649 92.288C838.63 92.736 839.675 92.96 840.785 92.96C842.065 92.96 843.046 92.672 843.729 92.096C844.411 91.52 844.753 90.688 844.753 89.6C844.753 88.704 844.497 88.032 843.985 87.584C843.473 87.1147 842.609 86.784 841.393 86.592L839.025 86.208C836.955 85.8453 835.483 85.0987 834.609 83.968C833.734 82.816 833.297 81.4613 833.297 79.904C833.297 77.7707 833.99 76.1387 835.377 75.008C836.763 73.856 838.683 73.28 841.137 73.28C842.886 73.28 844.39 73.5573 845.649 74.112C846.929 74.6667 847.953 75.424 848.721 76.384L846.257 79.008C845.659 78.304 844.945 77.7493 844.113 77.344C843.281 76.9173 842.299 76.704 841.169 76.704C838.737 76.704 837.521 77.7067 837.521 79.712C837.521 80.5653 837.777 81.216 838.289 81.664C838.801 82.112 839.675 82.4427 840.913 82.656L843.249 83.072C845.19 83.4347 846.63 84.1493 847.569 85.216C848.507 86.2827 848.977 87.648 848.977 89.312C848.977 90.3573 848.795 91.3173 848.433 92.192C848.07 93.0453 847.537 93.792 846.833 94.432C846.129 95.0507 845.254 95.5307 844.209 95.872C843.185 96.2133 842.001 96.384 840.657 96.384ZM862.18 77.12V96H858.02V77.12H851.3V73.664H868.9V77.12H862.18ZM874.104 82.304V72.32H877.816V82.304H874.104ZM880.792 82.304V72.32H884.504V82.304H880.792ZM432.791 124.304V114.32H436.503V124.304H432.791ZM439.479 124.304V114.32H443.191V124.304H439.479ZM449.963 138V121.488H454.059V124.4H454.219C454.581 123.504 455.136 122.736 455.883 122.096C456.651 121.435 457.707 121.104 459.051 121.104C460.672 121.104 461.984 121.648 462.987 122.736C464.011 123.803 464.523 125.339 464.523 127.344V138H460.427V127.92C460.427 125.531 459.392 124.336 457.323 124.336C456.896 124.336 456.491 124.389 456.107 124.496C455.723 124.603 455.371 124.773 455.051 125.008C454.752 125.221 454.507 125.488 454.315 125.808C454.144 126.128 454.059 126.512 454.059 126.96V138H449.963ZM476.35 138.384C475.091 138.384 473.961 138.181 472.958 137.776C471.977 137.371 471.134 136.795 470.43 136.048C469.747 135.301 469.214 134.395 468.83 133.328C468.467 132.261 468.286 131.067 468.286 129.744C468.286 128.421 468.467 127.227 468.83 126.16C469.214 125.093 469.747 124.187 470.43 123.44C471.134 122.693 471.977 122.117 472.958 121.712C473.961 121.307 475.091 121.104 476.35 121.104C477.587 121.104 478.707 121.307 479.71 121.712C480.713 122.117 481.555 122.693 482.238 123.44C482.942 124.187 483.475 125.093 483.838 126.16C484.222 127.227 484.414 128.421 484.414 129.744C484.414 131.067 484.222 132.261 483.838 133.328C483.475 134.395 482.942 135.301 482.238 136.048C481.555 136.795 480.713 137.371 479.71 137.776C478.707 138.181 477.587 138.384 476.35 138.384ZM476.35 135.248C477.523 135.248 478.451 134.896 479.134 134.192C479.817 133.467 480.158 132.411 480.158 131.024V128.464C480.158 127.077 479.817 126.032 479.134 125.328C478.451 124.603 477.523 124.24 476.35 124.24C475.177 124.24 474.249 124.603 473.566 125.328C472.883 126.032 472.542 127.077 472.542 128.464V131.024C472.542 132.411 472.883 133.467 473.566 134.192C474.249 134.896 475.177 135.248 476.35 135.248ZM487.122 138V121.488H490.514V123.76H490.706C490.962 123.035 491.324 122.416 491.794 121.904C492.284 121.371 492.967 121.104 493.842 121.104C494.674 121.104 495.335 121.349 495.826 121.84C496.316 122.309 496.636 122.981 496.786 123.856H496.946C497.223 123.109 497.628 122.469 498.162 121.936C498.716 121.381 499.495 121.104 500.498 121.104C501.714 121.104 502.588 121.541 503.122 122.416C503.655 123.291 503.922 124.581 503.922 126.288V138H500.562V126.768C500.562 125.808 500.423 125.136 500.146 124.752C499.89 124.368 499.495 124.176 498.962 124.176C498.471 124.176 498.055 124.336 497.714 124.656C497.394 124.976 497.234 125.467 497.234 126.128V138H493.842V126.768C493.842 125.808 493.714 125.136 493.458 124.752C493.202 124.368 492.807 124.176 492.274 124.176C491.762 124.176 491.335 124.336 490.994 124.656C490.674 124.976 490.514 125.467 490.514 126.128V138H487.122ZM515.109 138.384C513.786 138.384 512.613 138.181 511.589 137.776C510.565 137.371 509.701 136.795 508.997 136.048C508.314 135.301 507.792 134.405 507.429 133.36C507.066 132.293 506.885 131.099 506.885 129.776C506.885 128.432 507.066 127.227 507.429 126.16C507.813 125.093 508.346 124.187 509.029 123.44C509.712 122.693 510.533 122.117 511.493 121.712C512.474 121.307 513.573 121.104 514.789 121.104C515.984 121.104 517.061 121.307 518.021 121.712C518.981 122.096 519.792 122.651 520.453 123.376C521.136 124.101 521.658 124.976 522.021 126C522.384 127.024 522.565 128.155 522.565 129.392V130.736H510.981V131.152C510.981 132.347 511.354 133.317 512.101 134.064C512.848 134.789 513.893 135.152 515.237 135.152C516.261 135.152 517.136 134.949 517.861 134.544C518.608 134.117 519.226 133.563 519.717 132.88L522.053 135.216C521.456 136.091 520.581 136.837 519.429 137.456C518.298 138.075 516.858 138.384 515.109 138.384ZM514.821 124.112C513.669 124.112 512.741 124.475 512.037 125.2C511.333 125.925 510.981 126.885 510.981 128.08V128.304H518.469V128.016C518.469 126.821 518.138 125.872 517.477 125.168C516.837 124.464 515.952 124.112 514.821 124.112ZM528.729 124.304V114.32H532.441V124.304H528.729ZM535.417 124.304V114.32H539.129V124.304H535.417ZM240.916 166.304V156.32H244.628V166.304H240.916ZM247.604 166.304V156.32H251.316V166.304H247.604ZM265.288 180.384C263.837 180.384 262.578 180.128 261.512 179.616C260.445 179.083 259.56 178.325 258.856 177.344C258.173 176.363 257.661 175.157 257.32 173.728C257 172.299 256.84 170.667 256.84 168.832C256.84 167.019 257 165.397 257.32 163.968C257.661 162.517 258.173 161.301 258.856 160.32C259.56 159.339 260.445 158.592 261.512 158.08C262.578 157.547 263.837 157.28 265.288 157.28C268.189 157.28 270.322 158.293 271.688 160.32C273.053 162.347 273.736 165.184 273.736 168.832C273.736 172.48 273.053 175.317 271.688 177.344C270.322 179.371 268.189 180.384 265.288 180.384ZM265.288 176.96C266.034 176.96 266.664 176.821 267.176 176.544C267.688 176.245 268.093 175.829 268.392 175.296C268.712 174.763 268.936 174.112 269.064 173.344C269.213 172.555 269.288 171.68 269.288 170.72V166.912C269.288 164.992 268.989 163.477 268.392 162.368C267.816 161.259 266.781 160.704 265.288 160.704C263.794 160.704 262.749 161.259 262.152 162.368C261.576 163.477 261.288 164.992 261.288 166.912V170.752C261.288 172.672 261.576 174.187 262.152 175.296C262.749 176.405 263.794 176.96 265.288 176.96ZM277.179 176.768H282.427V159.552H277.179V156.32H286.523V176.768H291.803V180H277.179V176.768ZM309.743 180C308.74 180 307.961 179.755 307.407 179.264C306.873 178.752 306.553 178.048 306.447 177.152H306.287C305.988 178.176 305.401 178.976 304.527 179.552C303.652 180.107 302.575 180.384 301.295 180.384C299.631 180.384 298.308 179.947 297.327 179.072C296.345 178.197 295.855 176.981 295.855 175.424C295.855 172.096 298.297 170.432 303.183 170.432H306.095V169.344C306.095 168.299 305.839 167.509 305.327 166.976C304.815 166.443 303.983 166.176 302.831 166.176C301.785 166.176 300.943 166.379 300.303 166.784C299.663 167.189 299.119 167.712 298.671 168.352L296.335 166.368C296.847 165.451 297.668 164.683 298.799 164.064C299.951 163.424 301.433 163.104 303.247 163.104C305.423 163.104 307.119 163.616 308.335 164.64C309.572 165.643 310.191 167.147 310.191 169.152V176.928H312.142V180H309.743ZM302.671 177.568C303.652 177.568 304.463 177.344 305.103 176.896C305.764 176.427 306.095 175.797 306.095 175.008V172.8H303.279C301.039 172.8 299.919 173.504 299.919 174.912V175.552C299.919 176.213 300.164 176.715 300.655 177.056C301.145 177.397 301.817 177.568 302.671 177.568ZM303.791 161.6L301.327 160.416L304.367 154.432L307.823 156.16L303.791 161.6ZM320.802 174.784H326.306L322.114 184.736H319.01L320.802 174.784ZM456.491 172.32L454.923 164.16V157.664H459.403V164.16L457.835 172.32H456.491ZM457.163 180.352C456.096 180.352 455.339 180.128 454.891 179.68C454.464 179.232 454.251 178.688 454.251 178.048V177.152C454.251 176.512 454.464 175.968 454.891 175.52C455.339 175.072 456.096 174.848 457.163 174.848C458.229 174.848 458.976 175.072 459.403 175.52C459.851 175.968 460.075 176.512 460.075 177.152V178.048C460.075 178.688 459.851 179.232 459.403 179.68C458.976 180.128 458.229 180.352 457.163 180.352ZM471.166 166.304V156.32H474.878V166.304H471.166ZM477.854 166.304V156.32H481.566V166.304H477.854Z" fill="#F5A476"/>
<path d="M718.172 84.352V81.056H733.404V84.352H718.172ZM718.172 91.424V88.128H733.404V91.424H718.172ZM737.359 84.352V81.056H752.591V84.352H737.359ZM737.359 91.424V88.128H752.591V91.424H737.359ZM257.672 126.352V123.056H272.904V126.352H257.672ZM257.672 133.424V130.128H272.904V133.424H257.672ZM570.24 132.784H575.744L571.552 142.736H568.448L570.24 132.784ZM572.288 126.992C571.178 126.992 570.389 126.757 569.92 126.288C569.45 125.819 569.216 125.243 569.216 124.56V123.6C569.216 122.917 569.45 122.341 569.92 121.872C570.389 121.403 571.178 121.168 572.288 121.168C573.397 121.168 574.186 121.403 574.656 121.872C575.125 122.341 575.36 122.917 575.36 123.6V124.56C575.36 125.243 575.125 125.819 574.656 126.288C574.186 126.757 573.397 126.992 572.288 126.992ZM493.49 174.784H498.994L494.802 184.736H491.698L493.49 174.784ZM495.538 168.992C494.428 168.992 493.639 168.757 493.17 168.288C492.7 167.819 492.466 167.243 492.466 166.56V165.6C492.466 164.917 492.7 164.341 493.17 163.872C493.639 163.403 494.428 163.168 495.538 163.168C496.647 163.168 497.436 163.403 497.906 163.872C498.375 164.341 498.61 164.917 498.61 165.6V166.56C498.61 167.243 498.375 167.819 497.906 168.288C497.436 168.757 496.647 168.992 495.538 168.992Z" fill="white"/>
<path d="M150.547 180.384C149.224 180.384 148.051 180.181 147.027 179.776C146.003 179.371 145.139 178.795 144.435 178.048C143.752 177.301 143.229 176.405 142.867 175.36C142.504 174.293 142.323 173.099 142.323 171.776C142.323 170.432 142.504 169.227 142.867 168.16C143.251 167.093 143.784 166.187 144.467 165.44C145.149 164.693 145.971 164.117 146.931 163.712C147.912 163.307 149.011 163.104 150.227 163.104C151.421 163.104 152.499 163.307 153.459 163.712C154.419 164.096 155.229 164.651 155.891 165.376C156.573 166.101 157.096 166.976 157.458 168C157.821 169.024 158.003 170.155 158.003 171.392V172.736H146.419V173.152C146.419 174.347 146.792 175.317 147.539 176.064C148.285 176.789 149.331 177.152 150.675 177.152C151.699 177.152 152.573 176.949 153.299 176.544C154.045 176.117 154.664 175.563 155.155 174.88L157.491 177.216C156.893 178.091 156.019 178.837 154.867 179.456C153.736 180.075 152.296 180.384 150.547 180.384ZM150.259 166.112C149.107 166.112 148.179 166.475 147.475 167.2C146.771 167.925 146.419 168.885 146.419 170.08V170.304H153.907V170.016C153.907 168.821 153.576 167.872 152.915 167.168C152.275 166.464 151.389 166.112 150.259 166.112ZM169.99 180.384C168.731 180.384 167.601 180.181 166.598 179.776C165.595 179.371 164.742 178.795 164.038 178.048C163.355 177.301 162.822 176.395 162.438 175.328C162.075 174.261 161.894 173.067 161.894 171.744C161.894 170.421 162.075 169.227 162.438 168.16C162.822 167.093 163.355 166.187 164.038 165.44C164.742 164.693 165.585 164.117 166.566 163.712C167.569 163.307 168.699 163.104 169.958 163.104C171.707 163.104 173.115 163.467 174.182 164.192C175.249 164.917 176.059 165.877 176.614 167.072L173.446 168.8C173.147 168.096 172.721 167.531 172.166 167.104C171.633 166.656 170.897 166.432 169.958 166.432C168.742 166.432 167.803 166.784 167.142 167.488C166.502 168.192 166.182 169.152 166.182 170.368V173.12C166.182 174.315 166.502 175.275 167.142 176C167.803 176.704 168.763 177.056 170.022 177.056C171.003 177.056 171.782 176.832 172.358 176.384C172.955 175.936 173.435 175.339 173.798 174.592L176.87 176.416C176.315 177.589 175.473 178.549 174.342 179.296C173.233 180.021 171.782 180.384 169.99 180.384ZM181.338 156.32H185.434V166.4H185.594C185.956 165.504 186.511 164.736 187.258 164.096C188.026 163.435 189.082 163.104 190.426 163.104C192.047 163.104 193.359 163.648 194.362 164.736C195.386 165.803 195.898 167.339 195.898 169.344V180H191.802V169.92C191.802 167.531 190.767 166.336 188.698 166.336C188.271 166.336 187.866 166.389 187.482 166.496C187.098 166.603 186.746 166.773 186.426 167.008C186.127 167.221 185.882 167.488 185.69 167.808C185.519 168.128 185.434 168.512 185.434 168.96V180H181.338V156.32ZM207.725 180.384C206.466 180.384 205.336 180.181 204.333 179.776C203.352 179.371 202.509 178.795 201.805 178.048C201.122 177.301 200.589 176.395 200.205 175.328C199.842 174.261 199.661 173.067 199.661 171.744C199.661 170.421 199.842 169.227 200.205 168.16C200.589 167.093 201.122 166.187 201.805 165.44C202.509 164.693 203.352 164.117 204.333 163.712C205.336 163.307 206.466 163.104 207.725 163.104C208.962 163.104 210.082 163.307 211.085 163.712C212.088 164.117 212.93 164.693 213.613 165.44C214.317 166.187 214.85 167.093 215.213 168.16C215.597 169.227 215.789 170.421 215.789 171.744C215.789 173.067 215.597 174.261 215.213 175.328C214.85 176.395 214.317 177.301 213.613 178.048C212.93 178.795 212.088 179.371 211.085 179.776C210.082 180.181 208.962 180.384 207.725 180.384ZM207.725 177.248C208.898 177.248 209.826 176.896 210.509 176.192C211.192 175.467 211.533 174.411 211.533 173.024V170.464C211.533 169.077 211.192 168.032 210.509 167.328C209.826 166.603 208.898 166.24 207.725 166.24C206.552 166.24 205.624 166.603 204.941 167.328C204.258 168.032 203.917 169.077 203.917 170.464V173.024C203.917 174.411 204.258 175.467 204.941 176.192C205.624 176.896 206.552 177.248 207.725 177.248Z" fill="#F4E498"/>
<path d="M34.6625 46.4084V43.8404H39.2705V31.9364H39.0545L35.4065 36.2564L33.4385 34.6004L37.5905 29.6564H42.4145V43.8404H46.2065V46.4084H34.6625Z" fill="white"/>
<path d="M45.6785 87.8873H33.8705V84.9593L39.2465 80.3753C40.1425 79.6073 40.8065 78.9113 41.2385 78.2873C41.6705 77.6473 41.8865 76.9673 41.8865 76.2473V76.0073C41.8865 75.2073 41.6625 74.5993 41.2145 74.1833C40.7665 73.7673 40.1425 73.5593 39.3425 73.5593C38.4625 73.5593 37.7905 73.7993 37.3265 74.2793C36.8625 74.7593 36.5265 75.3513 36.3185 76.0553L33.5825 75.0233C33.7585 74.4793 34.0065 73.9593 34.3265 73.4633C34.6625 72.9513 35.0705 72.5033 35.5505 72.1193C36.0465 71.7353 36.6305 71.4313 37.3025 71.2073C37.9745 70.9673 38.7425 70.8473 39.6065 70.8473C40.5025 70.8473 41.2945 70.9753 41.9825 71.2313C42.6865 71.4713 43.2785 71.8153 43.7585 72.2633C44.2385 72.6953 44.5985 73.2153 44.8385 73.8233C45.0945 74.4313 45.2225 75.0953 45.2225 75.8153C45.2225 76.5033 45.1105 77.1353 44.8865 77.7113C44.6785 78.2873 44.3825 78.8393 43.9985 79.3673C43.6145 79.8793 43.1585 80.3753 42.6305 80.8553C42.1185 81.3353 41.5585 81.8153 40.9505 82.2953L37.3025 85.2473H45.6785V87.8873Z" fill="white"/>
<path d="M39.0065 123.396C40.0145 123.396 40.7505 123.196 41.2145 122.796C41.6945 122.396 41.9345 121.892 41.9345 121.284V121.116C41.9345 120.428 41.7025 119.892 41.2385 119.508C40.7905 119.124 40.1665 118.932 39.3665 118.932C38.5985 118.932 37.9265 119.108 37.3505 119.46C36.7745 119.812 36.2785 120.308 35.8625 120.948L33.8225 119.124C34.1105 118.74 34.4305 118.38 34.7825 118.044C35.1505 117.692 35.5585 117.396 36.0065 117.156C36.4705 116.9 36.9825 116.7 37.5425 116.556C38.1025 116.412 38.7425 116.34 39.4625 116.34C40.3105 116.34 41.0865 116.444 41.7905 116.652C42.5105 116.844 43.1185 117.132 43.6145 117.516C44.1265 117.9 44.5185 118.364 44.7905 118.908C45.0785 119.436 45.2225 120.036 45.2225 120.708C45.2225 121.236 45.1345 121.716 44.9585 122.148C44.7825 122.58 44.5425 122.956 44.2385 123.276C43.9505 123.596 43.6065 123.86 43.2065 124.068C42.8225 124.276 42.4065 124.428 41.9585 124.524V124.644C42.4545 124.74 42.9185 124.9 43.3505 125.124C43.7825 125.332 44.1585 125.604 44.4785 125.94C44.7985 126.276 45.0545 126.684 45.2465 127.164C45.4385 127.628 45.5345 128.156 45.5345 128.748C45.5345 129.484 45.3825 130.156 45.0785 130.764C44.7745 131.372 44.3425 131.892 43.7825 132.324C43.2385 132.756 42.5745 133.092 41.7905 133.332C41.0225 133.556 40.1585 133.668 39.1985 133.668C38.3985 133.668 37.6865 133.58 37.0625 133.404C36.4385 133.244 35.8865 133.02 35.4065 132.732C34.9265 132.444 34.5105 132.116 34.1585 131.748C33.8065 131.364 33.4945 130.972 33.2225 130.572L35.5505 128.772C35.9505 129.444 36.4225 129.996 36.9665 130.428C37.5265 130.86 38.2865 131.076 39.2465 131.076C40.2065 131.076 40.9425 130.86 41.4545 130.428C41.9825 129.98 42.2465 129.364 42.2465 128.58V128.388C42.2465 127.62 41.9665 127.036 41.4065 126.636C40.8465 126.22 40.0545 126.012 39.0305 126.012H37.3505V123.396H39.0065Z" fill="white"/>
<path d="M42.2404 174.859V171.619H34.4884V168.931L41.3284 158.107H45.2404V169.171H47.4964V171.619H45.2404V174.859H42.2404ZM37.0564 169.171H42.2404V161.179H42.0484L37.0564 169.171Z" fill="white"/>
<path d="M46.432 201.984H38.752L38.344 207.6H38.536C38.728 207.248 38.936 206.928 39.16 206.64C39.384 206.336 39.64 206.08 39.928 205.872C40.232 205.664 40.568 205.504 40.936 205.392C41.32 205.28 41.76 205.224 42.256 205.224C42.96 205.224 43.624 205.344 44.248 205.584C44.872 205.824 45.416 206.168 45.88 206.616C46.344 207.064 46.704 207.616 46.96 208.272C47.232 208.928 47.368 209.672 47.368 210.504C47.368 211.336 47.224 212.104 46.936 212.808C46.664 213.512 46.256 214.128 45.712 214.656C45.184 215.168 44.528 215.568 43.744 215.856C42.976 216.144 42.088 216.288 41.08 216.288C40.296 216.288 39.592 216.2 38.968 216.024C38.36 215.864 37.824 215.64 37.36 215.352C36.896 215.064 36.488 214.736 36.136 214.368C35.784 213.984 35.48 213.592 35.224 213.192L37.504 211.392C37.696 211.712 37.904 212.016 38.128 212.304C38.368 212.576 38.632 212.816 38.92 213.024C39.208 213.232 39.528 213.4 39.88 213.528C40.248 213.64 40.664 213.696 41.128 213.696C42.088 213.696 42.816 213.44 43.312 212.928C43.824 212.4 44.08 211.68 44.08 210.768V210.576C44.08 209.696 43.824 209.008 43.312 208.512C42.8 208.016 42.08 207.768 41.152 207.768C40.448 207.768 39.872 207.904 39.424 208.176C38.992 208.432 38.64 208.712 38.368 209.016L35.8 208.656L36.424 199.248H46.432V201.984Z" fill="white"/>
<path d="M41.272 257.288C40.296 257.288 39.424 257.136 38.656 256.832C37.904 256.512 37.264 256.072 36.736 255.512C36.208 254.936 35.8 254.248 35.512 253.448C35.24 252.632 35.104 251.72 35.104 250.712C35.104 249.512 35.288 248.384 35.656 247.328C36.024 246.256 36.496 245.28 37.072 244.4C37.664 243.504 38.32 242.704 39.04 242C39.76 241.296 40.48 240.712 41.2 240.248H45.472C44.464 240.952 43.56 241.632 42.76 242.288C41.976 242.928 41.288 243.584 40.696 244.256C40.12 244.928 39.632 245.632 39.232 246.368C38.848 247.088 38.56 247.88 38.368 248.744L38.56 248.792C38.72 248.472 38.912 248.168 39.136 247.88C39.36 247.576 39.624 247.312 39.928 247.088C40.248 246.848 40.608 246.664 41.008 246.536C41.424 246.392 41.904 246.32 42.448 246.32C43.152 246.32 43.808 246.44 44.416 246.68C45.024 246.92 45.544 247.272 45.976 247.736C46.424 248.184 46.776 248.728 47.032 249.368C47.288 250.008 47.416 250.728 47.416 251.528C47.416 252.376 47.272 253.152 46.984 253.856C46.696 254.56 46.28 255.168 45.736 255.68C45.208 256.192 44.56 256.592 43.792 256.88C43.04 257.152 42.2 257.288 41.272 257.288ZM41.248 254.816C42.208 254.816 42.936 254.568 43.432 254.072C43.928 253.56 44.176 252.84 44.176 251.912V251.624C44.176 250.696 43.92 249.984 43.408 249.488C42.912 248.992 42.192 248.744 41.248 248.744C40.336 248.744 39.624 248.992 39.112 249.488C38.6 249.984 38.344 250.696 38.344 251.624V251.912C38.344 252.84 38.592 253.56 39.088 254.072C39.584 254.568 40.304 254.816 41.248 254.816Z" fill="white"/>
<path d="M38.008 298L43.984 283.816H38.008V286.888H35.32V281.248H47.104V283.984L41.32 298H38.008Z" fill="white"/>
</svg>
