<svg width="1477" height="233" viewBox="0 0 1477 233" fill="none" xmlns="http://www.w3.org/2000/svg">
<path d="M0 5C0 2.23858 2.23858 0 5 0H1462C1470.28 0 1477 6.71573 1477 15V207C1477 220.807 1465.81 232 1452 232H35C15.67 232 0 216.33 0 197V5Z" fill="#373538"/>
<path d="M85.72 46.16V42.32L99.48 34.768V38.672L89.432 44.112V44.368L99.48 49.808V53.712L85.72 46.16ZM109.132 46.704V41.776C110.796 41.712 112.108 41.4027 113.068 40.848C114.049 40.272 114.54 39.344 114.54 38.064V37.616C114.54 36.656 114.252 35.952 113.676 35.504C113.1 35.0347 112.364 34.8 111.468 34.8C110.465 34.8 109.654 35.088 109.036 35.664C108.417 36.2187 107.99 36.944 107.756 37.84L104.299 36.432C104.492 35.7707 104.78 35.1307 105.164 34.512C105.548 33.8933 106.028 33.3493 106.604 32.88C107.201 32.3893 107.905 32.0053 108.716 31.728C109.548 31.4293 110.508 31.28 111.595 31.28C112.684 31.28 113.676 31.44 114.572 31.76C115.468 32.0587 116.236 32.496 116.876 33.072C117.516 33.6267 118.006 34.2987 118.347 35.088C118.71 35.856 118.892 36.72 118.892 37.68C118.892 38.6187 118.732 39.4613 118.412 40.208C118.092 40.9333 117.654 41.5733 117.1 42.128C116.566 42.6613 115.948 43.0987 115.244 43.44C114.54 43.7813 113.804 44.016 113.036 44.144V46.704H109.132ZM111.18 54.352C110.113 54.352 109.356 54.128 108.908 53.68C108.481 53.232 108.268 52.688 108.268 52.048V51.152C108.268 50.512 108.481 49.968 108.908 49.52C109.356 49.072 110.113 48.848 111.18 48.848C112.246 48.848 112.993 49.072 113.42 49.52C113.868 49.968 114.092 50.512 114.092 51.152V52.048C114.092 52.688 113.868 53.232 113.42 53.68C112.993 54.128 112.246 54.352 111.18 54.352ZM123.583 37.488H127.679V40.4H127.903C128.351 39.3973 128.959 38.5973 129.727 38C130.516 37.4027 131.551 37.104 132.831 37.104C133.77 37.104 134.623 37.2853 135.391 37.648C136.18 37.9893 136.852 38.5227 137.407 39.248C137.962 39.952 138.388 40.848 138.687 41.936C138.986 43.024 139.135 44.2933 139.135 45.744C139.135 47.1947 138.986 48.464 138.687 49.552C138.388 50.64 137.962 51.5467 137.407 52.272C136.852 52.976 136.18 53.5093 135.391 53.872C134.623 54.2133 133.77 54.384 132.831 54.384C131.551 54.384 130.516 54.0853 129.727 53.488C128.959 52.8907 128.351 52.0907 127.903 51.088H127.679V60.4H123.583V37.488ZM131.103 51.12C132.298 51.12 133.215 50.7573 133.855 50.032C134.516 49.3067 134.847 48.3147 134.847 47.056V44.432C134.847 43.1733 134.516 42.1813 133.855 41.456C133.215 40.7307 132.298 40.368 131.103 40.368C130.164 40.368 129.354 40.6027 128.671 41.072C128.01 41.52 127.679 42.2133 127.679 43.152V48.336C127.679 49.2747 128.01 49.9787 128.671 50.448C129.354 50.896 130.164 51.12 131.103 51.12ZM142.963 30.32H147.059V40.4H147.219C147.581 39.504 148.136 38.736 148.883 38.096C149.651 37.4347 150.707 37.104 152.051 37.104C153.672 37.104 154.984 37.648 155.987 38.736C157.011 39.8027 157.523 41.3387 157.523 43.344V54H153.427V43.92C153.427 41.5307 152.392 40.336 150.323 40.336C149.896 40.336 149.491 40.3893 149.107 40.496C148.723 40.6027 148.371 40.7733 148.051 41.008C147.752 41.2213 147.507 41.488 147.315 41.808C147.144 42.128 147.059 42.512 147.059 42.96V54H142.963V30.32ZM161.958 37.488H166.054V40.4H166.278C166.726 39.3973 167.334 38.5973 168.102 38C168.891 37.4027 169.926 37.104 171.206 37.104C172.145 37.104 172.998 37.2853 173.766 37.648C174.555 37.9893 175.227 38.5227 175.782 39.248C176.337 39.952 176.763 40.848 177.062 41.936C177.361 43.024 177.51 44.2933 177.51 45.744C177.51 47.1947 177.361 48.464 177.062 49.552C176.763 50.64 176.337 51.5467 175.782 52.272C175.227 52.976 174.555 53.5093 173.766 53.872C172.998 54.2133 172.145 54.384 171.206 54.384C169.926 54.384 168.891 54.0853 168.102 53.488C167.334 52.8907 166.726 52.0907 166.278 51.088H166.054V60.4H161.958V37.488ZM169.478 51.12C170.673 51.12 171.59 50.7573 172.23 50.032C172.891 49.3067 173.222 48.3147 173.222 47.056V44.432C173.222 43.1733 172.891 42.1813 172.23 41.456C171.59 40.7307 170.673 40.368 169.478 40.368C168.539 40.368 167.729 40.6027 167.046 41.072C166.385 41.52 166.054 42.2133 166.054 43.152V48.336C166.054 49.2747 166.385 49.9787 167.046 50.448C167.729 50.896 168.539 51.12 169.478 51.12ZM89.944 172.704V167.776C91.608 167.712 92.92 167.403 93.88 166.848C94.8613 166.272 95.352 165.344 95.352 164.064V163.616C95.352 162.656 95.064 161.952 94.488 161.504C93.912 161.035 93.176 160.8 92.28 160.8C91.2773 160.8 90.4667 161.088 89.848 161.664C89.2293 162.219 88.8027 162.944 88.568 163.84L85.112 162.432C85.304 161.771 85.592 161.131 85.976 160.512C86.36 159.893 86.84 159.349 87.416 158.88C88.0133 158.389 88.7173 158.005 89.528 157.728C90.36 157.429 91.32 157.28 92.408 157.28C93.496 157.28 94.488 157.44 95.384 157.76C96.28 158.059 97.048 158.496 97.688 159.072C98.328 159.627 98.8187 160.299 99.16 161.088C99.5227 161.856 99.704 162.72 99.704 163.68C99.704 164.619 99.544 165.461 99.224 166.208C98.904 166.933 98.4667 167.573 97.912 168.128C97.3787 168.661 96.76 169.099 96.056 169.44C95.352 169.781 94.616 170.016 93.848 170.144V172.704H89.944ZM91.992 180.352C90.9253 180.352 90.168 180.128 89.72 179.68C89.2933 179.232 89.08 178.688 89.08 178.048V177.152C89.08 176.512 89.2933 175.968 89.72 175.52C90.168 175.072 90.9253 174.848 91.992 174.848C93.0587 174.848 93.8053 175.072 94.232 175.52C94.68 175.968 94.904 176.512 94.904 177.152V178.048C94.904 178.688 94.68 179.232 94.232 179.68C93.8053 180.128 93.0587 180.352 91.992 180.352ZM104.908 175.808L114.956 170.368V170.112L104.908 164.672V160.768L118.668 168.32V172.16L104.908 179.712V175.808Z" fill="#438ADD"/>
<path d="M91.352 96.352C89.688 96.224 88.2587 95.8507 87.064 95.232C85.8907 94.592 84.9307 93.7707 84.184 92.768L86.712 90.176C88.12 91.7547 89.7413 92.6507 91.576 92.864V86.24L90.84 86.112C89.7947 85.92 88.888 85.632 88.12 85.248C87.3733 84.864 86.7547 84.3947 86.264 83.84C85.7947 83.2853 85.4427 82.6667 85.208 81.984C84.9947 81.3013 84.888 80.5653 84.888 79.776C84.888 77.9627 85.4427 76.5013 86.552 75.392C87.6827 74.2827 89.2827 73.6107 91.352 73.376V70.048H94.488V73.344C95.8747 73.5147 97.0587 73.8667 98.04 74.4C99.0427 74.9333 99.8853 75.6267 100.568 76.48L98.04 79.072C97.0587 77.8987 95.8 77.184 94.264 76.928V83.008L95.064 83.136C97.1547 83.52 98.6693 84.2667 99.608 85.376C100.547 86.464 101.016 87.808 101.016 89.408C101.016 91.2213 100.451 92.736 99.32 93.952C98.2107 95.1467 96.6 95.904 94.488 96.224V99.616H91.352V96.352ZM88.824 79.648C88.824 80.4373 89.0373 81.0453 89.464 81.472C89.8907 81.8987 90.5947 82.2293 91.576 82.464V76.832C89.7413 77.088 88.824 78.0267 88.824 79.648ZM97.112 89.664C97.112 88.8107 96.888 88.1707 96.44 87.744C95.992 87.296 95.2667 86.9653 94.264 86.752V92.832C95.224 92.6613 95.9387 92.3093 96.408 91.776C96.8773 91.2427 97.112 90.5387 97.112 89.664ZM104.588 96V79.488H108.684V82.4H108.844C109.206 81.504 109.761 80.736 110.508 80.096C111.276 79.4347 112.332 79.104 113.676 79.104C115.297 79.104 116.609 79.648 117.612 80.736C118.636 81.8027 119.148 83.3387 119.148 85.344V96H115.052V85.92C115.052 83.5307 114.017 82.336 111.948 82.336C111.521 82.336 111.116 82.3893 110.732 82.496C110.348 82.6027 109.996 82.7733 109.676 83.008C109.377 83.2213 109.132 83.488 108.94 83.808C108.769 84.128 108.684 84.512 108.684 84.96V96H104.588ZM130.975 96.384C129.716 96.384 128.586 96.1813 127.583 95.776C126.602 95.3707 125.759 94.7947 125.055 94.048C124.372 93.3013 123.839 92.3947 123.455 91.328C123.092 90.2613 122.911 89.0667 122.911 87.744C122.911 86.4213 123.092 85.2267 123.455 84.16C123.839 83.0933 124.372 82.1867 125.055 81.44C125.759 80.6933 126.602 80.1173 127.583 79.712C128.586 79.3067 129.716 79.104 130.975 79.104C132.212 79.104 133.332 79.3067 134.335 79.712C135.338 80.1173 136.18 80.6933 136.863 81.44C137.567 82.1867 138.1 83.0933 138.463 84.16C138.847 85.2267 139.039 86.4213 139.039 87.744C139.039 89.0667 138.847 90.2613 138.463 91.328C138.1 92.3947 137.567 93.3013 136.863 94.048C136.18 94.7947 135.338 95.3707 134.335 95.776C133.332 96.1813 132.212 96.384 130.975 96.384ZM130.975 93.248C132.148 93.248 133.076 92.896 133.759 92.192C134.442 91.4667 134.783 90.4107 134.783 89.024V86.464C134.783 85.0773 134.442 84.032 133.759 83.328C133.076 82.6027 132.148 82.24 130.975 82.24C129.802 82.24 128.874 82.6027 128.191 83.328C127.508 84.032 127.167 85.0773 127.167 86.464V89.024C127.167 90.4107 127.508 91.4667 128.191 92.192C128.874 92.896 129.802 93.248 130.975 93.248ZM141.747 96V79.488H145.139V81.76H145.331C145.587 81.0347 145.949 80.416 146.419 79.904C146.909 79.3707 147.592 79.104 148.467 79.104C149.299 79.104 149.96 79.3493 150.451 79.84C150.941 80.3093 151.261 80.9813 151.411 81.856H151.571C151.848 81.1093 152.253 80.4693 152.787 79.936C153.341 79.3813 154.12 79.104 155.123 79.104C156.339 79.104 157.213 79.5413 157.747 80.416C158.28 81.2907 158.547 82.5813 158.547 84.288V96H155.187V84.768C155.187 83.808 155.048 83.136 154.771 82.752C154.515 82.368 154.12 82.176 153.587 82.176C153.096 82.176 152.68 82.336 152.339 82.656C152.019 82.976 151.859 83.4667 151.859 84.128V96H148.467V84.768C148.467 83.808 148.339 83.136 148.083 82.752C147.827 82.368 147.432 82.176 146.899 82.176C146.387 82.176 145.96 82.336 145.619 82.656C145.299 82.976 145.139 83.4667 145.139 84.128V96H141.747ZM169.734 96.384C168.411 96.384 167.238 96.1813 166.214 95.776C165.19 95.3707 164.326 94.7947 163.622 94.048C162.939 93.3013 162.417 92.4053 162.054 91.36C161.691 90.2933 161.51 89.0987 161.51 87.776C161.51 86.432 161.691 85.2267 162.054 84.16C162.438 83.0933 162.971 82.1867 163.654 81.44C164.337 80.6933 165.158 80.1173 166.118 79.712C167.099 79.3067 168.198 79.104 169.414 79.104C170.609 79.104 171.686 79.3067 172.646 79.712C173.606 80.096 174.417 80.6507 175.078 81.376C175.761 82.1013 176.283 82.976 176.646 84C177.009 85.024 177.19 86.1547 177.19 87.392V88.736H165.606V89.152C165.606 90.3467 165.979 91.3173 166.726 92.064C167.473 92.7893 168.518 93.152 169.862 93.152C170.886 93.152 171.761 92.9493 172.486 92.544C173.233 92.1173 173.851 91.5627 174.342 90.88L176.678 93.216C176.081 94.0907 175.206 94.8373 174.054 95.456C172.923 96.0747 171.483 96.384 169.734 96.384ZM169.446 82.112C168.294 82.112 167.366 82.4747 166.662 83.2C165.958 83.9253 165.606 84.8853 165.606 86.08V86.304H173.094V86.016C173.094 84.8213 172.763 83.872 172.102 83.168C171.462 82.464 170.577 82.112 169.446 82.112ZM571.04 138.352C569.376 138.224 567.946 137.851 566.752 137.232C565.578 136.592 564.618 135.771 563.872 134.768L566.4 132.176C567.808 133.755 569.429 134.651 571.264 134.864V128.24L570.528 128.112C569.482 127.92 568.576 127.632 567.808 127.248C567.061 126.864 566.442 126.395 565.952 125.84C565.482 125.285 565.13 124.667 564.896 123.984C564.682 123.301 564.576 122.565 564.576 121.776C564.576 119.963 565.13 118.501 566.24 117.392C567.37 116.283 568.97 115.611 571.04 115.376V112.048H574.176V115.344C575.562 115.515 576.746 115.867 577.728 116.4C578.73 116.933 579.573 117.627 580.256 118.48L577.728 121.072C576.746 119.899 575.488 119.184 573.952 118.928V125.008L574.752 125.136C576.842 125.52 578.357 126.267 579.296 127.376C580.234 128.464 580.704 129.808 580.704 131.408C580.704 133.221 580.138 134.736 579.008 135.952C577.898 137.147 576.288 137.904 574.176 138.224V141.616H571.04V138.352ZM568.512 121.648C568.512 122.437 568.725 123.045 569.152 123.472C569.578 123.899 570.282 124.229 571.264 124.464V118.832C569.429 119.088 568.512 120.027 568.512 121.648ZM576.8 131.664C576.8 130.811 576.576 130.171 576.128 129.744C575.68 129.296 574.954 128.965 573.952 128.752V134.832C574.912 134.661 575.626 134.309 576.096 133.776C576.565 133.243 576.8 132.539 576.8 131.664ZM584.275 138V121.488H588.371V124.4H588.531C588.894 123.504 589.448 122.736 590.195 122.096C590.963 121.435 592.019 121.104 593.363 121.104C594.984 121.104 596.296 121.648 597.299 122.736C598.323 123.803 598.835 125.339 598.835 127.344V138H594.739V127.92C594.739 125.531 593.704 124.336 591.635 124.336C591.208 124.336 590.803 124.389 590.419 124.496C590.035 124.603 589.683 124.773 589.363 125.008C589.064 125.221 588.819 125.488 588.627 125.808C588.456 126.128 588.371 126.512 588.371 126.96V138H584.275ZM610.663 138.384C609.404 138.384 608.273 138.181 607.271 137.776C606.289 137.371 605.447 136.795 604.743 136.048C604.06 135.301 603.527 134.395 603.143 133.328C602.78 132.261 602.599 131.067 602.599 129.744C602.599 128.421 602.78 127.227 603.143 126.16C603.527 125.093 604.06 124.187 604.743 123.44C605.447 122.693 606.289 122.117 607.271 121.712C608.273 121.307 609.404 121.104 610.663 121.104C611.9 121.104 613.02 121.307 614.023 121.712C615.025 122.117 615.868 122.693 616.551 123.44C617.255 124.187 617.788 125.093 618.151 126.16C618.535 127.227 618.727 128.421 618.727 129.744C618.727 131.067 618.535 132.261 618.151 133.328C617.788 134.395 617.255 135.301 616.551 136.048C615.868 136.795 615.025 137.371 614.023 137.776C613.02 138.181 611.9 138.384 610.663 138.384ZM610.663 135.248C611.836 135.248 612.764 134.896 613.447 134.192C614.129 133.467 614.471 132.411 614.471 131.024V128.464C614.471 127.077 614.129 126.032 613.447 125.328C612.764 124.603 611.836 124.24 610.663 124.24C609.489 124.24 608.561 124.603 607.879 125.328C607.196 126.032 606.855 127.077 606.855 128.464V131.024C606.855 132.411 607.196 133.467 607.879 134.192C608.561 134.896 609.489 135.248 610.663 135.248ZM621.434 138V121.488H624.826V123.76H625.018C625.274 123.035 625.637 122.416 626.106 121.904C626.597 121.371 627.279 121.104 628.154 121.104C628.986 121.104 629.647 121.349 630.138 121.84C630.629 122.309 630.949 122.981 631.098 123.856H631.258C631.535 123.109 631.941 122.469 632.474 121.936C633.029 121.381 633.807 121.104 634.81 121.104C636.026 121.104 636.901 121.541 637.434 122.416C637.967 123.291 638.234 124.581 638.234 126.288V138H634.874V126.768C634.874 125.808 634.735 125.136 634.458 124.752C634.202 124.368 633.807 124.176 633.274 124.176C632.783 124.176 632.367 124.336 632.026 124.656C631.706 124.976 631.546 125.467 631.546 126.128V138H628.154V126.768C628.154 125.808 628.026 125.136 627.77 124.752C627.514 124.368 627.119 124.176 626.586 124.176C626.074 124.176 625.647 124.336 625.306 124.656C624.986 124.976 624.826 125.467 624.826 126.128V138H621.434ZM649.422 138.384C648.099 138.384 646.926 138.181 645.902 137.776C644.878 137.371 644.014 136.795 643.31 136.048C642.627 135.301 642.104 134.405 641.742 133.36C641.379 132.293 641.198 131.099 641.198 129.776C641.198 128.432 641.379 127.227 641.742 126.16C642.126 125.093 642.659 124.187 643.342 123.44C644.024 122.693 644.846 122.117 645.806 121.712C646.787 121.307 647.886 121.104 649.102 121.104C650.296 121.104 651.374 121.307 652.334 121.712C653.294 122.096 654.104 122.651 654.766 123.376C655.448 124.101 655.971 124.976 656.333 126C656.696 127.024 656.878 128.155 656.878 129.392V130.736H645.294V131.152C645.294 132.347 645.667 133.317 646.414 134.064C647.16 134.789 648.206 135.152 649.55 135.152C650.574 135.152 651.448 134.949 652.174 134.544C652.92 134.117 653.539 133.563 654.03 132.88L656.366 135.216C655.768 136.091 654.894 136.837 653.742 137.456C652.611 138.075 651.171 138.384 649.422 138.384ZM649.134 124.112C647.982 124.112 647.054 124.475 646.35 125.2C645.646 125.925 645.294 126.885 645.294 128.08V128.304H652.782V128.016C652.782 126.821 652.451 125.872 651.79 125.168C651.15 124.464 650.264 124.112 649.134 124.112Z" fill="#B2D1FF"/>
<path d="M200.109 84.352V81.056H215.341V84.352H200.109ZM200.109 91.424V88.128H215.341V91.424H200.109ZM359.177 90.784H364.681L360.489 100.736H357.385L359.177 90.784ZM361.225 84.992C360.116 84.992 359.326 84.7573 358.857 84.288C358.388 83.8187 358.153 83.2427 358.153 82.56V81.6C358.153 80.9173 358.388 80.3413 358.857 79.872C359.326 79.4027 360.116 79.168 361.225 79.168C362.334 79.168 363.124 79.4027 363.593 79.872C364.062 80.3413 364.297 80.9173 364.297 81.6V82.56C364.297 83.2427 364.062 83.8187 363.593 84.288C363.124 84.7573 362.334 84.992 361.225 84.992ZM704.552 132.784H710.056L705.864 142.736H702.76L704.552 132.784ZM706.6 126.992C705.491 126.992 704.701 126.757 704.232 126.288C703.763 125.819 703.528 125.243 703.528 124.56V123.6C703.528 122.917 703.763 122.341 704.232 121.872C704.701 121.403 705.491 121.168 706.6 121.168C707.709 121.168 708.499 121.403 708.968 121.872C709.437 122.341 709.672 122.917 709.672 123.6V124.56C709.672 125.243 709.437 125.819 708.968 126.288C708.499 126.757 707.709 126.992 706.6 126.992Z" fill="white"/>
<path d="M240.916 82.304V72.32H244.628V82.304H240.916ZM247.604 82.304V72.32H251.316V82.304H247.604ZM271.752 73.664V89.888C271.752 90.8907 271.581 91.7973 271.24 92.608C270.898 93.3973 270.408 94.0693 269.768 94.624C269.149 95.1787 268.392 95.616 267.496 95.936C266.621 96.2347 265.64 96.384 264.552 96.384C262.44 96.384 260.776 95.8507 259.56 94.784C258.365 93.7173 257.597 92.2987 257.256 90.528L261.192 89.696C261.384 90.6347 261.725 91.4133 262.216 92.032C262.728 92.6293 263.506 92.928 264.552 92.928C265.512 92.928 266.248 92.6507 266.76 92.096C267.272 91.52 267.528 90.624 267.528 89.408V77.12H259.976V73.664H271.752ZM284.475 96.384C283.216 96.384 282.086 96.1813 281.083 95.776C280.102 95.3707 279.259 94.7947 278.555 94.048C277.872 93.3013 277.339 92.3947 276.955 91.328C276.592 90.2613 276.411 89.0667 276.411 87.744C276.411 86.4213 276.592 85.2267 276.955 84.16C277.339 83.0933 277.872 82.1867 278.555 81.44C279.259 80.6933 280.102 80.1173 281.083 79.712C282.086 79.3067 283.216 79.104 284.475 79.104C285.712 79.104 286.832 79.3067 287.835 79.712C288.838 80.1173 289.68 80.6933 290.363 81.44C291.067 82.1867 291.6 83.0933 291.963 84.16C292.347 85.2267 292.539 86.4213 292.539 87.744C292.539 89.0667 292.347 90.2613 291.963 91.328C291.6 92.3947 291.067 93.3013 290.363 94.048C289.68 94.7947 288.838 95.3707 287.835 95.776C286.832 96.1813 285.712 96.384 284.475 96.384ZM284.475 93.248C285.648 93.248 286.576 92.896 287.259 92.192C287.942 91.4667 288.283 90.4107 288.283 89.024V86.464C288.283 85.0773 287.942 84.032 287.259 83.328C286.576 82.6027 285.648 82.24 284.475 82.24C283.302 82.24 282.374 82.6027 281.691 83.328C281.008 84.032 280.667 85.0773 280.667 86.464V89.024C280.667 90.4107 281.008 91.4667 281.691 92.192C282.374 92.896 283.302 93.248 284.475 93.248ZM309.743 96C308.74 96 307.961 95.7547 307.407 95.264C306.873 94.752 306.553 94.048 306.447 93.152H306.287C305.988 94.176 305.401 94.976 304.527 95.552C303.652 96.1067 302.575 96.384 301.295 96.384C299.631 96.384 298.308 95.9467 297.327 95.072C296.345 94.1973 295.855 92.9813 295.855 91.424C295.855 88.096 298.297 86.432 303.183 86.432H306.095V85.344C306.095 84.2987 305.839 83.5093 305.327 82.976C304.815 82.4427 303.983 82.176 302.831 82.176C301.785 82.176 300.943 82.3787 300.303 82.784C299.663 83.1893 299.119 83.712 298.671 84.352L296.335 82.368C296.847 81.4507 297.668 80.6827 298.799 80.064C299.951 79.424 301.433 79.104 303.247 79.104C305.423 79.104 307.119 79.616 308.335 80.64C309.572 81.6427 310.191 83.1467 310.191 85.152V92.928H312.142V96H309.743ZM302.671 93.568C303.652 93.568 304.463 93.344 305.103 92.896C305.764 92.4267 306.095 91.7973 306.095 91.008V88.8H303.279C301.039 88.8 299.919 89.504 299.919 90.912V91.552C299.919 92.2133 300.164 92.7147 300.655 93.056C301.145 93.3973 301.817 93.568 302.671 93.568ZM305.775 76.864C305.263 76.864 304.815 76.7893 304.431 76.64C304.047 76.4907 303.663 76.3307 303.279 76.16C302.809 75.9467 302.383 75.776 301.999 75.648C301.615 75.52 301.241 75.456 300.879 75.456C300.516 75.456 300.196 75.52 299.919 75.648C299.641 75.776 299.332 75.9787 298.991 76.256L297.519 74.368C297.881 73.8133 298.34 73.3547 298.895 72.992C299.471 72.608 300.164 72.416 300.975 72.416C301.487 72.416 301.935 72.4907 302.319 72.64C302.703 72.7893 303.087 72.9493 303.47 73.12C303.94 73.3333 304.367 73.504 304.751 73.632C305.135 73.76 305.508 73.824 305.871 73.824C306.233 73.824 306.553 73.76 306.831 73.632C307.108 73.504 307.417 73.3013 307.759 73.024L309.231 74.912C308.868 75.4667 308.399 75.936 307.823 76.32C307.268 76.6827 306.585 76.864 305.775 76.864ZM322.85 96.384C321.591 96.384 320.461 96.1813 319.458 95.776C318.477 95.3707 317.634 94.7947 316.93 94.048C316.247 93.3013 315.714 92.3947 315.33 91.328C314.967 90.2613 314.786 89.0667 314.786 87.744C314.786 86.4213 314.967 85.2267 315.33 84.16C315.714 83.0933 316.247 82.1867 316.93 81.44C317.634 80.6933 318.477 80.1173 319.458 79.712C320.461 79.3067 321.591 79.104 322.85 79.104C324.087 79.104 325.207 79.3067 326.21 79.712C327.213 80.1173 328.055 80.6933 328.738 81.44C329.442 82.1867 329.975 83.0933 330.338 84.16C330.722 85.2267 330.914 86.4213 330.914 87.744C330.914 89.0667 330.722 90.2613 330.338 91.328C329.975 92.3947 329.442 93.3013 328.738 94.048C328.055 94.7947 327.213 95.3707 326.21 95.776C325.207 96.1813 324.087 96.384 322.85 96.384ZM322.85 93.248C324.023 93.248 324.951 92.896 325.634 92.192C326.317 91.4667 326.658 90.4107 326.658 89.024V86.464C326.658 85.0773 326.317 84.032 325.634 83.328C324.951 82.6027 324.023 82.24 322.85 82.24C321.677 82.24 320.749 82.6027 320.066 83.328C319.383 84.032 319.042 85.0773 319.042 86.464V89.024C319.042 90.4107 319.383 91.4667 320.066 92.192C320.749 92.896 321.677 93.248 322.85 93.248ZM336.854 82.304V72.32H340.566V82.304H336.854ZM343.542 82.304V72.32H347.254V82.304H343.542ZM183.354 124.304V114.32H187.066V124.304H183.354ZM190.042 124.304V114.32H193.754V124.304H190.042ZM212.141 127.664L212.333 121.2H212.045L207.725 132.688L203.405 121.2H203.117L203.309 127.664V138H199.661V115.664H204.653L207.757 123.888H207.981L211.117 115.664H215.789V138H212.141V127.664ZM227.297 138.384C225.974 138.384 224.801 138.181 223.777 137.776C222.753 137.371 221.889 136.795 221.185 136.048C220.502 135.301 219.979 134.405 219.617 133.36C219.254 132.293 219.073 131.099 219.073 129.776C219.073 128.432 219.254 127.227 219.617 126.16C220.001 125.093 220.534 124.187 221.217 123.44C221.899 122.693 222.721 122.117 223.681 121.712C224.662 121.307 225.761 121.104 226.977 121.104C228.171 121.104 229.249 121.307 230.209 121.712C231.169 122.096 231.979 122.651 232.641 123.376C233.323 124.101 233.846 124.976 234.208 126C234.571 127.024 234.753 128.155 234.753 129.392V130.736H223.169V131.152C223.169 132.347 223.542 133.317 224.289 134.064C225.035 134.789 226.081 135.152 227.425 135.152C228.449 135.152 229.323 134.949 230.049 134.544C230.795 134.117 231.414 133.563 231.905 132.88L234.241 135.216C233.643 136.091 232.769 136.837 231.617 137.456C230.486 138.075 229.046 138.384 227.297 138.384ZM227.009 124.112C225.857 124.112 224.929 124.475 224.225 125.2C223.521 125.925 223.169 126.885 223.169 128.08V128.304H230.657V128.016C230.657 126.821 230.326 125.872 229.665 125.168C229.025 124.464 228.139 124.112 227.009 124.112ZM249.204 135.088H249.044C248.681 135.984 248.116 136.763 247.348 137.424C246.601 138.064 245.556 138.384 244.212 138.384C242.591 138.384 241.268 137.851 240.244 136.784C239.241 135.696 238.74 134.149 238.74 132.144V121.488H242.836V131.568C242.836 133.957 243.871 135.152 245.94 135.152C246.345 135.152 246.74 135.099 247.124 134.992C247.529 134.885 247.881 134.725 248.18 134.512C248.5 134.277 248.745 134 248.916 133.68C249.108 133.36 249.204 132.976 249.204 132.528V121.488H253.3V138H249.204V135.088ZM290.555 138C289.552 138 288.774 137.755 288.219 137.264C287.686 136.752 287.366 136.048 287.259 135.152H287.099C286.8 136.176 286.214 136.976 285.339 137.552C284.464 138.107 283.387 138.384 282.107 138.384C280.443 138.384 279.12 137.947 278.139 137.072C277.158 136.197 276.667 134.981 276.667 133.424C276.667 130.096 279.11 128.432 283.995 128.432H286.907V127.344C286.907 126.299 286.651 125.509 286.139 124.976C285.627 124.443 284.795 124.176 283.643 124.176C282.598 124.176 281.755 124.379 281.115 124.784C280.475 125.189 279.931 125.712 279.483 126.352L277.147 124.368C277.659 123.451 278.48 122.683 279.611 122.064C280.763 121.424 282.246 121.104 284.059 121.104C286.235 121.104 287.931 121.616 289.147 122.64C290.384 123.643 291.003 125.147 291.003 127.152V134.928H292.955V138H290.555ZM283.483 135.568C284.464 135.568 285.275 135.344 285.915 134.896C286.576 134.427 286.907 133.797 286.907 133.008V130.8H284.091C281.851 130.8 280.731 131.504 280.731 132.912V133.552C280.731 134.213 280.976 134.715 281.467 135.056C281.958 135.397 282.63 135.568 283.483 135.568ZM295.247 138V121.488H298.639V123.76H298.831C299.087 123.035 299.449 122.416 299.919 121.904C300.409 121.371 301.092 121.104 301.967 121.104C302.799 121.104 303.46 121.349 303.951 121.84C304.441 122.309 304.761 122.981 304.911 123.856H305.071C305.348 123.109 305.753 122.469 306.287 121.936C306.841 121.381 307.62 121.104 308.623 121.104C309.839 121.104 310.713 121.541 311.247 122.416C311.78 123.291 312.047 124.581 312.047 126.288V138H308.687V126.768C308.687 125.808 308.548 125.136 308.271 124.752C308.015 124.368 307.62 124.176 307.087 124.176C306.596 124.176 306.18 124.336 305.839 124.656C305.519 124.976 305.359 125.467 305.359 126.128V138H301.967V126.768C301.967 125.808 301.839 125.136 301.583 124.752C301.327 124.368 300.932 124.176 300.399 124.176C299.887 124.176 299.46 124.336 299.119 124.656C298.799 124.976 298.639 125.467 298.639 126.128V138H295.247ZM323.874 118.928C322.914 118.928 322.231 118.725 321.826 118.32C321.442 117.915 321.25 117.424 321.25 116.848V116.08C321.25 115.504 321.442 115.013 321.826 114.608C322.231 114.203 322.914 114 323.874 114C324.834 114 325.506 114.203 325.89 114.608C326.295 115.013 326.498 115.504 326.498 116.08V116.848C326.498 117.424 326.295 117.915 325.89 118.32C325.506 118.725 324.834 118.928 323.874 118.928ZM316.386 134.768H321.826V124.72H316.386V121.488H325.922V134.768H330.978V138H316.386V134.768ZM350.87 139.728C350.87 141.456 350.144 142.725 348.694 143.536C347.264 144.368 345.024 144.784 341.974 144.784C340.48 144.784 339.232 144.688 338.23 144.496C337.227 144.325 336.416 144.069 335.798 143.728C335.2 143.387 334.774 142.971 334.518 142.48C334.262 142.011 334.134 141.477 334.134 140.88C334.134 139.963 334.4 139.259 334.934 138.768C335.467 138.277 336.214 137.915 337.174 137.68V137.424C336.534 137.211 336.022 136.912 335.638 136.528C335.275 136.144 335.094 135.611 335.094 134.928C335.094 134.117 335.36 133.509 335.894 133.104C336.448 132.699 337.174 132.389 338.07 132.176V132.016C337.088 131.547 336.32 130.885 335.766 130.032C335.211 129.179 334.934 128.144 334.934 126.928C334.934 126.011 335.094 125.2 335.414 124.496C335.755 123.771 336.224 123.163 336.822 122.672C337.44 122.16 338.176 121.776 339.03 121.52C339.883 121.243 340.832 121.104 341.878 121.104C342.987 121.104 343.99 121.253 344.886 121.552V120.848C344.886 120.208 345.088 119.675 345.494 119.248C345.92 118.821 346.507 118.608 347.254 118.608H350.23V121.68H346.326V122.224C347.136 122.715 347.755 123.355 348.182 124.144C348.63 124.912 348.854 125.84 348.854 126.928C348.854 127.845 348.683 128.667 348.342 129.392C348.022 130.117 347.552 130.725 346.934 131.216C346.336 131.707 345.6 132.091 344.726 132.368C343.872 132.624 342.923 132.752 341.878 132.752C341.451 132.752 341.035 132.741 340.63 132.72C340.246 132.677 339.872 132.603 339.51 132.496C339.211 132.603 338.923 132.773 338.646 133.008C338.368 133.243 338.23 133.552 338.23 133.936C338.23 134.448 338.475 134.768 338.966 134.896C339.456 135.003 340.043 135.056 340.726 135.056H344.47C345.622 135.056 346.603 135.173 347.414 135.408C348.224 135.621 348.886 135.941 349.398 136.368C349.91 136.773 350.283 137.264 350.517 137.84C350.752 138.416 350.87 139.045 350.87 139.728ZM347.03 140.016C347.03 139.525 346.827 139.131 346.422 138.832C346.038 138.555 345.312 138.416 344.246 138.416H338.55C337.91 138.779 337.59 139.312 337.59 140.016C337.59 140.592 337.824 141.072 338.294 141.456C338.784 141.84 339.606 142.032 340.758 142.032H343.414C345.824 142.032 347.03 141.36 347.03 140.016ZM341.878 130.064C342.923 130.064 343.691 129.819 344.182 129.328C344.672 128.816 344.918 128.155 344.918 127.344V126.512C344.918 125.701 344.672 125.051 344.182 124.56C343.691 124.048 342.923 123.792 341.878 123.792C340.854 123.792 340.096 124.048 339.606 124.56C339.115 125.051 338.87 125.701 338.87 126.512V127.344C338.87 128.155 339.115 128.816 339.606 129.328C340.096 129.819 340.854 130.064 341.878 130.064ZM361.225 138.384C359.966 138.384 358.836 138.181 357.833 137.776C356.852 137.371 356.009 136.795 355.305 136.048C354.622 135.301 354.089 134.395 353.705 133.328C353.342 132.261 353.161 131.067 353.161 129.744C353.161 128.421 353.342 127.227 353.705 126.16C354.089 125.093 354.622 124.187 355.305 123.44C356.009 122.693 356.852 122.117 357.833 121.712C358.836 121.307 359.966 121.104 361.225 121.104C362.462 121.104 363.582 121.307 364.585 121.712C365.588 122.117 366.43 122.693 367.113 123.44C367.817 124.187 368.35 125.093 368.713 126.16C369.097 127.227 369.289 128.421 369.289 129.744C369.289 131.067 369.097 132.261 368.713 133.328C368.35 134.395 367.817 135.301 367.113 136.048C366.43 136.795 365.588 137.371 364.585 137.776C363.582 138.181 362.462 138.384 361.225 138.384ZM361.225 135.248C362.398 135.248 363.326 134.896 364.009 134.192C364.692 133.467 365.033 132.411 365.033 131.024V128.464C365.033 127.077 364.692 126.032 364.009 125.328C363.326 124.603 362.398 124.24 361.225 124.24C360.052 124.24 359.124 124.603 358.441 125.328C357.758 126.032 357.417 127.077 357.417 128.464V131.024C357.417 132.411 357.758 133.467 358.441 134.192C359.124 134.896 360.052 135.248 361.225 135.248ZM399.536 138.384C397.723 138.384 396.155 138.107 394.832 137.552C393.509 136.976 392.475 136.208 391.728 135.248L394.128 133.072C394.811 133.819 395.589 134.395 396.464 134.8C397.36 135.205 398.395 135.408 399.568 135.408C400.592 135.408 401.413 135.237 402.032 134.896C402.651 134.555 402.96 134.032 402.96 133.328C402.96 132.731 402.747 132.325 402.32 132.112C401.915 131.899 401.371 131.739 400.688 131.632L398.032 131.216C397.349 131.109 396.677 130.96 396.016 130.768C395.376 130.555 394.8 130.267 394.288 129.904C393.797 129.541 393.403 129.083 393.104 128.528C392.805 127.952 392.656 127.259 392.656 126.448C392.656 124.72 393.296 123.397 394.576 122.48C395.877 121.563 397.659 121.104 399.92 121.104C401.52 121.104 402.875 121.328 403.984 121.776C405.115 122.224 406.043 122.853 406.768 123.664L404.624 126.032C404.155 125.52 403.525 125.072 402.736 124.688C401.968 124.283 400.987 124.08 399.792 124.08C397.701 124.08 396.656 124.731 396.656 126.032C396.656 126.629 396.869 127.045 397.296 127.28C397.723 127.493 398.277 127.653 398.96 127.76L401.584 128.176C402.288 128.283 402.96 128.443 403.6 128.656C404.261 128.848 404.837 129.125 405.328 129.488C405.84 129.851 406.245 130.309 406.544 130.864C406.843 131.419 406.992 132.101 406.992 132.912C406.992 134.619 406.331 135.963 405.008 136.944C403.707 137.904 401.883 138.384 399.536 138.384ZM419.172 138.384C417.849 138.384 416.676 138.181 415.652 137.776C414.628 137.371 413.764 136.795 413.06 136.048C412.377 135.301 411.854 134.405 411.492 133.36C411.129 132.293 410.948 131.099 410.948 129.776C410.948 128.432 411.129 127.227 411.492 126.16C411.876 125.093 412.409 124.187 413.092 123.44C413.774 122.693 414.596 122.117 415.556 121.712C416.537 121.307 417.636 121.104 418.852 121.104C420.046 121.104 421.124 121.307 422.084 121.712C423.044 122.096 423.854 122.651 424.516 123.376C425.198 124.101 425.721 124.976 426.083 126C426.446 127.024 426.628 128.155 426.628 129.392V130.736H415.044V131.152C415.044 132.347 415.417 133.317 416.164 134.064C416.91 134.789 417.956 135.152 419.3 135.152C420.324 135.152 421.198 134.949 421.924 134.544C422.67 134.117 423.289 133.563 423.78 132.88L426.116 135.216C425.518 136.091 424.644 136.837 423.492 137.456C422.361 138.075 420.921 138.384 419.172 138.384ZM418.884 124.112C417.732 124.112 416.804 124.475 416.1 125.2C415.396 125.925 415.044 126.885 415.044 128.08V128.304H422.532V128.016C422.532 126.821 422.201 125.872 421.54 125.168C420.9 124.464 420.014 124.112 418.884 124.112ZM457.803 138.384C456.544 138.384 455.413 138.181 454.411 137.776C453.408 137.371 452.555 136.795 451.851 136.048C451.168 135.301 450.635 134.395 450.251 133.328C449.888 132.261 449.707 131.067 449.707 129.744C449.707 128.421 449.888 127.227 450.251 126.16C450.635 125.093 451.168 124.187 451.851 123.44C452.555 122.693 453.397 122.117 454.379 121.712C455.381 121.307 456.512 121.104 457.771 121.104C459.52 121.104 460.928 121.467 461.995 122.192C463.061 122.917 463.872 123.877 464.427 125.072L461.259 126.8C460.96 126.096 460.533 125.531 459.979 125.104C459.445 124.656 458.709 124.432 457.771 124.432C456.555 124.432 455.616 124.784 454.955 125.488C454.315 126.192 453.995 127.152 453.995 128.368V131.12C453.995 132.315 454.315 133.275 454.955 134C455.616 134.704 456.576 135.056 457.835 135.056C458.816 135.056 459.595 134.832 460.171 134.384C460.768 133.936 461.248 133.339 461.611 132.592L464.683 134.416C464.128 135.589 463.285 136.549 462.155 137.296C461.045 138.021 459.595 138.384 457.803 138.384ZM469.15 114.32H473.246V124.4H473.406C473.769 123.504 474.323 122.736 475.07 122.096C475.838 121.435 476.894 121.104 478.238 121.104C479.859 121.104 481.171 121.648 482.174 122.736C483.198 123.803 483.71 125.339 483.71 127.344V138H479.614V127.92C479.614 125.531 478.579 124.336 476.51 124.336C476.083 124.336 475.678 124.389 475.294 124.496C474.91 124.603 474.558 124.773 474.238 125.008C473.939 125.221 473.694 125.488 473.502 125.808C473.331 126.128 473.246 126.512 473.246 126.96V138H469.15V114.32ZM501.618 138C500.615 138 499.836 137.755 499.282 137.264C498.748 136.752 498.428 136.048 498.322 135.152H498.162C497.863 136.176 497.276 136.976 496.402 137.552C495.527 138.107 494.45 138.384 493.17 138.384C491.506 138.384 490.183 137.947 489.202 137.072C488.22 136.197 487.73 134.981 487.73 133.424C487.73 130.096 490.172 128.432 495.058 128.432H497.97V127.344C497.97 126.299 497.714 125.509 497.202 124.976C496.69 124.443 495.858 124.176 494.706 124.176C493.66 124.176 492.818 124.379 492.178 124.784C491.538 125.189 490.994 125.712 490.546 126.352L488.21 124.368C488.722 123.451 489.543 122.683 490.674 122.064C491.826 121.424 493.308 121.104 495.122 121.104C497.298 121.104 498.994 121.616 500.21 122.64C501.447 123.643 502.066 125.147 502.066 127.152V134.928H504.017V138H501.618ZM494.546 135.568C495.527 135.568 496.338 135.344 496.978 134.896C497.639 134.427 497.97 133.797 497.97 133.008V130.8H495.154C492.914 130.8 491.794 131.504 491.794 132.912V133.552C491.794 134.213 492.039 134.715 492.53 135.056C493.02 135.397 493.692 135.568 494.546 135.568ZM506.309 138V121.488H509.701V123.76H509.893C510.149 123.035 510.512 122.416 510.981 121.904C511.472 121.371 512.154 121.104 513.029 121.104C513.861 121.104 514.522 121.349 515.013 121.84C515.504 122.309 515.824 122.981 515.973 123.856H516.133C516.41 123.109 516.816 122.469 517.349 121.936C517.904 121.381 518.682 121.104 519.685 121.104C520.901 121.104 521.776 121.541 522.309 122.416C522.842 123.291 523.109 124.581 523.109 126.288V138H519.749V126.768C519.749 125.808 519.61 125.136 519.333 124.752C519.077 124.368 518.682 124.176 518.149 124.176C517.658 124.176 517.242 124.336 516.901 124.656C516.581 124.976 516.421 125.467 516.421 126.128V138H513.029V126.768C513.029 125.808 512.901 125.136 512.645 124.752C512.389 124.368 511.994 124.176 511.461 124.176C510.949 124.176 510.522 124.336 510.181 124.656C509.861 124.976 509.701 125.467 509.701 126.128V138H506.309ZM539.993 138C538.99 138 538.211 137.755 537.657 137.264C537.123 136.752 536.803 136.048 536.697 135.152H536.537C536.238 136.176 535.651 136.976 534.777 137.552C533.902 138.107 532.825 138.384 531.545 138.384C529.881 138.384 528.558 137.947 527.577 137.072C526.595 136.197 526.105 134.981 526.105 133.424C526.105 130.096 528.547 128.432 533.433 128.432H536.345V127.344C536.345 126.299 536.089 125.509 535.577 124.976C535.065 124.443 534.233 124.176 533.081 124.176C532.035 124.176 531.193 124.379 530.553 124.784C529.913 125.189 529.369 125.712 528.921 126.352L526.585 124.368C527.097 123.451 527.918 122.683 529.049 122.064C530.201 121.424 531.683 121.104 533.497 121.104C535.673 121.104 537.369 121.616 538.585 122.64C539.822 123.643 540.441 125.147 540.441 127.152V134.928H542.392V138H539.993ZM532.921 135.568C533.902 135.568 534.713 135.344 535.353 134.896C536.014 134.427 536.345 133.797 536.345 133.008V130.8H533.529C531.289 130.8 530.169 131.504 530.169 132.912V133.552C530.169 134.213 530.414 134.715 530.905 135.056C531.395 135.397 532.067 135.568 532.921 135.568ZM668.225 138.352C667.116 138.352 666.326 138.117 665.857 137.648C665.388 137.179 665.153 136.603 665.153 135.92V134.96C665.153 134.277 665.388 133.701 665.857 133.232C666.326 132.763 667.116 132.528 668.225 132.528C669.334 132.528 670.124 132.763 670.593 133.232C671.062 133.701 671.297 134.277 671.297 134.96V135.92C671.297 136.603 671.062 137.179 670.593 137.648C670.124 138.117 669.334 138.352 668.225 138.352ZM682.229 124.304V114.32H685.941V124.304H682.229ZM688.917 124.304V114.32H692.629V124.304H688.917Z" fill="#F5A476"/>
<path d="M92.984 138.384C91.6613 138.384 90.488 138.181 89.464 137.776C88.44 137.371 87.576 136.795 86.872 136.048C86.1893 135.301 85.6667 134.405 85.304 133.36C84.9413 132.293 84.76 131.099 84.76 129.776C84.76 128.432 84.9413 127.227 85.304 126.16C85.688 125.093 86.2213 124.187 86.904 123.44C87.5867 122.693 88.408 122.117 89.368 121.712C90.3493 121.307 91.448 121.104 92.664 121.104C93.8587 121.104 94.936 121.307 95.896 121.712C96.856 122.096 97.6667 122.651 98.328 123.376C99.0107 124.101 99.5333 124.976 99.896 126C100.259 127.024 100.44 128.155 100.44 129.392V130.736H88.856V131.152C88.856 132.347 89.2293 133.317 89.976 134.064C90.7227 134.789 91.768 135.152 93.112 135.152C94.136 135.152 95.0107 134.949 95.736 134.544C96.4827 134.117 97.1013 133.563 97.592 132.88L99.928 135.216C99.3307 136.091 98.456 136.837 97.304 137.456C96.1733 138.075 94.7333 138.384 92.984 138.384ZM92.696 124.112C91.544 124.112 90.616 124.475 89.912 125.2C89.208 125.925 88.856 126.885 88.856 128.08V128.304H96.344V128.016C96.344 126.821 96.0133 125.872 95.352 125.168C94.712 124.464 93.8267 124.112 92.696 124.112ZM112.428 138.384C111.169 138.384 110.038 138.181 109.036 137.776C108.033 137.371 107.18 136.795 106.476 136.048C105.793 135.301 105.26 134.395 104.876 133.328C104.513 132.261 104.332 131.067 104.332 129.744C104.332 128.421 104.513 127.227 104.876 126.16C105.26 125.093 105.793 124.187 106.476 123.44C107.18 122.693 108.022 122.117 109.004 121.712C110.006 121.307 111.137 121.104 112.396 121.104C114.145 121.104 115.553 121.467 116.62 122.192C117.686 122.917 118.497 123.877 119.052 125.072L115.884 126.8C115.585 126.096 115.158 125.531 114.604 125.104C114.07 124.656 113.334 124.432 112.396 124.432C111.18 124.432 110.241 124.784 109.58 125.488C108.94 126.192 108.62 127.152 108.62 128.368V131.12C108.62 132.315 108.94 133.275 109.58 134C110.241 134.704 111.201 135.056 112.46 135.056C113.441 135.056 114.22 134.832 114.796 134.384C115.393 133.936 115.873 133.339 116.236 132.592L119.308 134.416C118.753 135.589 117.91 136.549 116.78 137.296C115.67 138.021 114.22 138.384 112.428 138.384ZM123.775 114.32H127.871V124.4H128.031C128.394 123.504 128.948 122.736 129.695 122.096C130.463 121.435 131.519 121.104 132.863 121.104C134.484 121.104 135.796 121.648 136.799 122.736C137.823 123.803 138.335 125.339 138.335 127.344V138H134.239V127.92C134.239 125.531 133.204 124.336 131.135 124.336C130.708 124.336 130.303 124.389 129.919 124.496C129.535 124.603 129.183 124.773 128.863 125.008C128.564 125.221 128.319 125.488 128.127 125.808C127.956 126.128 127.871 126.512 127.871 126.96V138H123.775V114.32ZM150.163 138.384C148.904 138.384 147.773 138.181 146.771 137.776C145.789 137.371 144.947 136.795 144.243 136.048C143.56 135.301 143.027 134.395 142.643 133.328C142.28 132.261 142.099 131.067 142.099 129.744C142.099 128.421 142.28 127.227 142.643 126.16C143.027 125.093 143.56 124.187 144.243 123.44C144.947 122.693 145.789 122.117 146.771 121.712C147.773 121.307 148.904 121.104 150.163 121.104C151.4 121.104 152.52 121.307 153.523 121.712C154.525 122.117 155.368 122.693 156.051 123.44C156.755 124.187 157.288 125.093 157.651 126.16C158.035 127.227 158.227 128.421 158.227 129.744C158.227 131.067 158.035 132.261 157.651 133.328C157.288 134.395 156.755 135.301 156.051 136.048C155.368 136.795 154.525 137.371 153.523 137.776C152.52 138.181 151.4 138.384 150.163 138.384ZM150.163 135.248C151.336 135.248 152.264 134.896 152.947 134.192C153.629 133.467 153.971 132.411 153.971 131.024V128.464C153.971 127.077 153.629 126.032 152.947 125.328C152.264 124.603 151.336 124.24 150.163 124.24C148.989 124.24 148.061 124.603 147.379 125.328C146.696 126.032 146.355 127.077 146.355 128.464V131.024C146.355 132.411 146.696 133.467 147.379 134.192C148.061 134.896 148.989 135.248 150.163 135.248Z" fill="#F4E498"/>
<path d="M34.6625 46.4084V43.8404H39.2705V31.9364H39.0545L35.4065 36.2564L33.4385 34.6004L37.5905 29.6564H42.4145V43.8404H46.2065V46.4084H34.6625Z" fill="white"/>
<path d="M45.6785 87.8873H33.8705V84.9593L39.2465 80.3753C40.1425 79.6073 40.8065 78.9113 41.2385 78.2873C41.6705 77.6473 41.8865 76.9673 41.8865 76.2473V76.0073C41.8865 75.2073 41.6625 74.5993 41.2145 74.1833C40.7665 73.7673 40.1425 73.5593 39.3425 73.5593C38.4625 73.5593 37.7905 73.7993 37.3265 74.2793C36.8625 74.7593 36.5265 75.3513 36.3185 76.0553L33.5825 75.0233C33.7585 74.4793 34.0065 73.9593 34.3265 73.4633C34.6625 72.9513 35.0705 72.5033 35.5505 72.1193C36.0465 71.7353 36.6305 71.4313 37.3025 71.2073C37.9745 70.9673 38.7425 70.8473 39.6065 70.8473C40.5025 70.8473 41.2945 70.9753 41.9825 71.2313C42.6865 71.4713 43.2785 71.8153 43.7585 72.2633C44.2385 72.6953 44.5985 73.2153 44.8385 73.8233C45.0945 74.4313 45.2225 75.0953 45.2225 75.8153C45.2225 76.5033 45.1105 77.1353 44.8865 77.7113C44.6785 78.2873 44.3825 78.8393 43.9985 79.3673C43.6145 79.8793 43.1585 80.3753 42.6305 80.8553C42.1185 81.3353 41.5585 81.8153 40.9505 82.2953L37.3025 85.2473H45.6785V87.8873Z" fill="white"/>
<path d="M39.0065 123.396C40.0145 123.396 40.7505 123.196 41.2145 122.796C41.6945 122.396 41.9345 121.892 41.9345 121.284V121.116C41.9345 120.428 41.7025 119.892 41.2385 119.508C40.7905 119.124 40.1665 118.932 39.3665 118.932C38.5985 118.932 37.9265 119.108 37.3505 119.46C36.7745 119.812 36.2785 120.308 35.8625 120.948L33.8225 119.124C34.1105 118.74 34.4305 118.38 34.7825 118.044C35.1505 117.692 35.5585 117.396 36.0065 117.156C36.4705 116.9 36.9825 116.7 37.5425 116.556C38.1025 116.412 38.7425 116.34 39.4625 116.34C40.3105 116.34 41.0865 116.444 41.7905 116.652C42.5105 116.844 43.1185 117.132 43.6145 117.516C44.1265 117.9 44.5185 118.364 44.7905 118.908C45.0785 119.436 45.2225 120.036 45.2225 120.708C45.2225 121.236 45.1345 121.716 44.9585 122.148C44.7825 122.58 44.5425 122.956 44.2385 123.276C43.9505 123.596 43.6065 123.86 43.2065 124.068C42.8225 124.276 42.4065 124.428 41.9585 124.524V124.644C42.4545 124.74 42.9185 124.9 43.3505 125.124C43.7825 125.332 44.1585 125.604 44.4785 125.94C44.7985 126.276 45.0545 126.684 45.2465 127.164C45.4385 127.628 45.5345 128.156 45.5345 128.748C45.5345 129.484 45.3825 130.156 45.0785 130.764C44.7745 131.372 44.3425 131.892 43.7825 132.324C43.2385 132.756 42.5745 133.092 41.7905 133.332C41.0225 133.556 40.1585 133.668 39.1985 133.668C38.3985 133.668 37.6865 133.58 37.0625 133.404C36.4385 133.244 35.8865 133.02 35.4065 132.732C34.9265 132.444 34.5105 132.116 34.1585 131.748C33.8065 131.364 33.4945 130.972 33.2225 130.572L35.5505 128.772C35.9505 129.444 36.4225 129.996 36.9665 130.428C37.5265 130.86 38.2865 131.076 39.2465 131.076C40.2065 131.076 40.9425 130.86 41.4545 130.428C41.9825 129.98 42.2465 129.364 42.2465 128.58V128.388C42.2465 127.62 41.9665 127.036 41.4065 126.636C40.8465 126.22 40.0545 126.012 39.0305 126.012H37.3505V123.396H39.0065Z" fill="white"/>
<path d="M42.2404 174.859V171.619H34.4884V168.931L41.3284 158.107H45.2404V169.171H47.4964V171.619H45.2404V174.859H42.2404ZM37.0564 169.171H42.2404V161.179H42.0484L37.0564 169.171Z" fill="white"/>
<path d="M46.432 201.984H38.752L38.344 207.6H38.536C38.728 207.248 38.936 206.928 39.16 206.64C39.384 206.336 39.64 206.08 39.928 205.872C40.232 205.664 40.568 205.504 40.936 205.392C41.32 205.28 41.76 205.224 42.256 205.224C42.96 205.224 43.624 205.344 44.248 205.584C44.872 205.824 45.416 206.168 45.88 206.616C46.344 207.064 46.704 207.616 46.96 208.272C47.232 208.928 47.368 209.672 47.368 210.504C47.368 211.336 47.224 212.104 46.936 212.808C46.664 213.512 46.256 214.128 45.712 214.656C45.184 215.168 44.528 215.568 43.744 215.856C42.976 216.144 42.088 216.288 41.08 216.288C40.296 216.288 39.592 216.2 38.968 216.024C38.36 215.864 37.824 215.64 37.36 215.352C36.896 215.064 36.488 214.736 36.136 214.368C35.784 213.984 35.48 213.592 35.224 213.192L37.504 211.392C37.696 211.712 37.904 212.016 38.128 212.304C38.368 212.576 38.632 212.816 38.92 213.024C39.208 213.232 39.528 213.4 39.88 213.528C40.248 213.64 40.664 213.696 41.128 213.696C42.088 213.696 42.816 213.44 43.312 212.928C43.824 212.4 44.08 211.68 44.08 210.768V210.576C44.08 209.696 43.824 209.008 43.312 208.512C42.8 208.016 42.08 207.768 41.152 207.768C40.448 207.768 39.872 207.904 39.424 208.176C38.992 208.432 38.64 208.712 38.368 209.016L35.8 208.656L36.424 199.248H46.432V201.984Z" fill="white"/>
</svg>
