<svg width="1477" height="233" viewBox="0 0 1477 233" fill="none" xmlns="http://www.w3.org/2000/svg">
<path d="M0 5C0 2.23858 2.23858 0 5 0H1462C1470.28 0 1477 6.71573 1477 15V207C1477 220.807 1465.81 232 1452 232H35C15.67 232 0 216.33 0 197V5Z" fill="#373538"/>
<path d="M85.72 46.16V42.32L99.48 34.768V38.672L89.432 44.112V44.368L99.48 49.808V53.712L85.72 46.16ZM109.132 46.704V41.776C110.796 41.712 112.108 41.4027 113.068 40.848C114.049 40.272 114.54 39.344 114.54 38.064V37.616C114.54 36.656 114.252 35.952 113.676 35.504C113.1 35.0347 112.364 34.8 111.468 34.8C110.465 34.8 109.654 35.088 109.036 35.664C108.417 36.2187 107.99 36.944 107.756 37.84L104.299 36.432C104.492 35.7707 104.78 35.1307 105.164 34.512C105.548 33.8933 106.028 33.3493 106.604 32.88C107.201 32.3893 107.905 32.0053 108.716 31.728C109.548 31.4293 110.508 31.28 111.595 31.28C112.684 31.28 113.676 31.44 114.572 31.76C115.468 32.0587 116.236 32.496 116.876 33.072C117.516 33.6267 118.006 34.2987 118.347 35.088C118.71 35.856 118.892 36.72 118.892 37.68C118.892 38.6187 118.732 39.4613 118.412 40.208C118.092 40.9333 117.654 41.5733 117.1 42.128C116.566 42.6613 115.948 43.0987 115.244 43.44C114.54 43.7813 113.804 44.016 113.036 44.144V46.704H109.132ZM111.18 54.352C110.113 54.352 109.356 54.128 108.908 53.68C108.481 53.232 108.268 52.688 108.268 52.048V51.152C108.268 50.512 108.481 49.968 108.908 49.52C109.356 49.072 110.113 48.848 111.18 48.848C112.246 48.848 112.993 49.072 113.42 49.52C113.868 49.968 114.092 50.512 114.092 51.152V52.048C114.092 52.688 113.868 53.232 113.42 53.68C112.993 54.128 112.246 54.352 111.18 54.352ZM123.583 37.488H127.679V40.4H127.903C128.351 39.3973 128.959 38.5973 129.727 38C130.516 37.4027 131.551 37.104 132.831 37.104C133.77 37.104 134.623 37.2853 135.391 37.648C136.18 37.9893 136.852 38.5227 137.407 39.248C137.962 39.952 138.388 40.848 138.687 41.936C138.986 43.024 139.135 44.2933 139.135 45.744C139.135 47.1947 138.986 48.464 138.687 49.552C138.388 50.64 137.962 51.5467 137.407 52.272C136.852 52.976 136.18 53.5093 135.391 53.872C134.623 54.2133 133.77 54.384 132.831 54.384C131.551 54.384 130.516 54.0853 129.727 53.488C128.959 52.8907 128.351 52.0907 127.903 51.088H127.679V60.4H123.583V37.488ZM131.103 51.12C132.298 51.12 133.215 50.7573 133.855 50.032C134.516 49.3067 134.847 48.3147 134.847 47.056V44.432C134.847 43.1733 134.516 42.1813 133.855 41.456C133.215 40.7307 132.298 40.368 131.103 40.368C130.164 40.368 129.354 40.6027 128.671 41.072C128.01 41.52 127.679 42.2133 127.679 43.152V48.336C127.679 49.2747 128.01 49.9787 128.671 50.448C129.354 50.896 130.164 51.12 131.103 51.12ZM142.963 30.32H147.059V40.4H147.219C147.581 39.504 148.136 38.736 148.883 38.096C149.651 37.4347 150.707 37.104 152.051 37.104C153.672 37.104 154.984 37.648 155.987 38.736C157.011 39.8027 157.523 41.3387 157.523 43.344V54H153.427V43.92C153.427 41.5307 152.392 40.336 150.323 40.336C149.896 40.336 149.491 40.3893 149.107 40.496C148.723 40.6027 148.371 40.7733 148.051 41.008C147.752 41.2213 147.507 41.488 147.315 41.808C147.144 42.128 147.059 42.512 147.059 42.96V54H142.963V30.32ZM161.958 37.488H166.054V40.4H166.278C166.726 39.3973 167.334 38.5973 168.102 38C168.891 37.4027 169.926 37.104 171.206 37.104C172.145 37.104 172.998 37.2853 173.766 37.648C174.555 37.9893 175.227 38.5227 175.782 39.248C176.337 39.952 176.763 40.848 177.062 41.936C177.361 43.024 177.51 44.2933 177.51 45.744C177.51 47.1947 177.361 48.464 177.062 49.552C176.763 50.64 176.337 51.5467 175.782 52.272C175.227 52.976 174.555 53.5093 173.766 53.872C172.998 54.2133 172.145 54.384 171.206 54.384C169.926 54.384 168.891 54.0853 168.102 53.488C167.334 52.8907 166.726 52.0907 166.278 51.088H166.054V60.4H161.958V37.488ZM169.478 51.12C170.673 51.12 171.59 50.7573 172.23 50.032C172.891 49.3067 173.222 48.3147 173.222 47.056V44.432C173.222 43.1733 172.891 42.1813 172.23 41.456C171.59 40.7307 170.673 40.368 169.478 40.368C168.539 40.368 167.729 40.6027 167.046 41.072C166.385 41.52 166.054 42.2133 166.054 43.152V48.336C166.054 49.2747 166.385 49.9787 167.046 50.448C167.729 50.896 168.539 51.12 169.478 51.12ZM89.944 172.704V167.776C91.608 167.712 92.92 167.403 93.88 166.848C94.8613 166.272 95.352 165.344 95.352 164.064V163.616C95.352 162.656 95.064 161.952 94.488 161.504C93.912 161.035 93.176 160.8 92.28 160.8C91.2773 160.8 90.4667 161.088 89.848 161.664C89.2293 162.219 88.8027 162.944 88.568 163.84L85.112 162.432C85.304 161.771 85.592 161.131 85.976 160.512C86.36 159.893 86.84 159.349 87.416 158.88C88.0133 158.389 88.7173 158.005 89.528 157.728C90.36 157.429 91.32 157.28 92.408 157.28C93.496 157.28 94.488 157.44 95.384 157.76C96.28 158.059 97.048 158.496 97.688 159.072C98.328 159.627 98.8187 160.299 99.16 161.088C99.5227 161.856 99.704 162.72 99.704 163.68C99.704 164.619 99.544 165.461 99.224 166.208C98.904 166.933 98.4667 167.573 97.912 168.128C97.3787 168.661 96.76 169.099 96.056 169.44C95.352 169.781 94.616 170.016 93.848 170.144V172.704H89.944ZM91.992 180.352C90.9253 180.352 90.168 180.128 89.72 179.68C89.2933 179.232 89.08 178.688 89.08 178.048V177.152C89.08 176.512 89.2933 175.968 89.72 175.52C90.168 175.072 90.9253 174.848 91.992 174.848C93.0587 174.848 93.8053 175.072 94.232 175.52C94.68 175.968 94.904 176.512 94.904 177.152V178.048C94.904 178.688 94.68 179.232 94.232 179.68C93.8053 180.128 93.0587 180.352 91.992 180.352ZM104.908 175.808L114.956 170.368V170.112L104.908 164.672V160.768L118.668 168.32V172.16L104.908 179.712V175.808Z" fill="#438ADD"/>
<path d="M129.727 96.352C128.063 96.224 126.634 95.8507 125.439 95.232C124.266 94.592 123.306 93.7707 122.559 92.768L125.087 90.176C126.495 91.7547 128.116 92.6507 129.951 92.864V86.24L129.215 86.112C128.17 85.92 127.263 85.632 126.495 85.248C125.748 84.864 125.13 84.3947 124.639 83.84C124.17 83.2853 123.818 82.6667 123.583 81.984C123.37 81.3013 123.263 80.5653 123.263 79.776C123.263 77.9627 123.818 76.5013 124.927 75.392C126.058 74.2827 127.658 73.6107 129.727 73.376V70.048H132.863V73.344C134.25 73.5147 135.434 73.8667 136.415 74.4C137.418 74.9333 138.26 75.6267 138.943 76.48L136.415 79.072C135.434 77.8987 134.175 77.184 132.639 76.928V83.008L133.439 83.136C135.53 83.52 137.044 84.2667 137.983 85.376C138.922 86.464 139.391 87.808 139.391 89.408C139.391 91.2213 138.826 92.736 137.695 93.952C136.586 95.1467 134.975 95.904 132.863 96.224V99.616H129.727V96.352ZM127.199 79.648C127.199 80.4373 127.412 81.0453 127.839 81.472C128.266 81.8987 128.97 82.2293 129.951 82.464V76.832C128.116 77.088 127.199 78.0267 127.199 79.648ZM135.487 89.664C135.487 88.8107 135.263 88.1707 134.815 87.744C134.367 87.296 133.642 86.9653 132.639 86.752V92.832C133.599 92.6613 134.314 92.3093 134.783 91.776C135.252 91.2427 135.487 90.5387 135.487 89.664ZM150.803 96.384C149.544 96.384 148.413 96.1813 147.411 95.776C146.408 95.3707 145.555 94.7947 144.851 94.048C144.168 93.3013 143.635 92.3947 143.251 91.328C142.888 90.2613 142.707 89.0667 142.707 87.744C142.707 86.4213 142.888 85.2267 143.251 84.16C143.635 83.0933 144.168 82.1867 144.851 81.44C145.555 80.6933 146.397 80.1173 147.379 79.712C148.381 79.3067 149.512 79.104 150.771 79.104C152.52 79.104 153.928 79.4667 154.995 80.192C156.061 80.9173 156.872 81.8773 157.427 83.072L154.259 84.8C153.96 84.096 153.533 83.5307 152.979 83.104C152.445 82.656 151.709 82.432 150.771 82.432C149.555 82.432 148.616 82.784 147.955 83.488C147.315 84.192 146.995 85.152 146.995 86.368V89.12C146.995 90.3147 147.315 91.2747 147.955 92C148.616 92.704 149.576 93.056 150.835 93.056C151.816 93.056 152.595 92.832 153.171 92.384C153.768 91.936 154.248 91.3387 154.611 90.592L157.683 92.416C157.128 93.5893 156.285 94.5493 155.155 95.296C154.045 96.0213 152.595 96.384 150.803 96.384ZM169.35 96.384C168.091 96.384 166.961 96.1813 165.958 95.776C164.977 95.3707 164.134 94.7947 163.43 94.048C162.747 93.3013 162.214 92.3947 161.83 91.328C161.467 90.2613 161.286 89.0667 161.286 87.744C161.286 86.4213 161.467 85.2267 161.83 84.16C162.214 83.0933 162.747 82.1867 163.43 81.44C164.134 80.6933 164.977 80.1173 165.958 79.712C166.961 79.3067 168.091 79.104 169.35 79.104C170.587 79.104 171.707 79.3067 172.71 79.712C173.713 80.1173 174.555 80.6933 175.238 81.44C175.942 82.1867 176.475 83.0933 176.838 84.16C177.222 85.2267 177.414 86.4213 177.414 87.744C177.414 89.0667 177.222 90.2613 176.838 91.328C176.475 92.3947 175.942 93.3013 175.238 94.048C174.555 94.7947 173.713 95.3707 172.71 95.776C171.707 96.1813 170.587 96.384 169.35 96.384ZM169.35 93.248C170.523 93.248 171.451 92.896 172.134 92.192C172.817 91.4667 173.158 90.4107 173.158 89.024V86.464C173.158 85.0773 172.817 84.032 172.134 83.328C171.451 82.6027 170.523 82.24 169.35 82.24C168.177 82.24 167.249 82.6027 166.566 83.328C165.883 84.032 165.542 85.0773 165.542 86.464V89.024C165.542 90.4107 165.883 91.4667 166.566 92.192C167.249 92.896 168.177 93.248 169.35 93.248ZM181.338 92.768H185.434V82.72H181.338V79.488H189.53V84H189.786C189.935 83.424 190.138 82.8693 190.394 82.336C190.671 81.7813 191.012 81.3013 191.418 80.896C191.844 80.4693 192.356 80.128 192.954 79.872C193.551 79.616 194.266 79.488 195.097 79.488H196.89V83.328H193.498C192.26 83.328 191.29 83.6907 190.586 84.416C189.882 85.1413 189.53 86.0693 189.53 87.2V92.768H195.258V96H181.338V92.768ZM208.109 96.384C206.786 96.384 205.613 96.1813 204.589 95.776C203.565 95.3707 202.701 94.7947 201.997 94.048C201.314 93.3013 200.792 92.4053 200.429 91.36C200.066 90.2933 199.885 89.0987 199.885 87.776C199.885 86.432 200.066 85.2267 200.429 84.16C200.813 83.0933 201.346 82.1867 202.029 81.44C202.712 80.6933 203.533 80.1173 204.493 79.712C205.474 79.3067 206.573 79.104 207.789 79.104C208.984 79.104 210.061 79.3067 211.021 79.712C211.981 80.096 212.792 80.6507 213.453 81.376C214.136 82.1013 214.658 82.976 215.021 84C215.384 85.024 215.565 86.1547 215.565 87.392V88.736H203.981V89.152C203.981 90.3467 204.354 91.3173 205.101 92.064C205.848 92.7893 206.893 93.152 208.237 93.152C209.261 93.152 210.136 92.9493 210.861 92.544C211.608 92.1173 212.226 91.5627 212.717 90.88L215.053 93.216C214.456 94.0907 213.581 94.8373 212.429 95.456C211.298 96.0747 209.858 96.384 208.109 96.384ZM207.821 82.112C206.669 82.112 205.741 82.4747 205.037 83.2C204.333 83.9253 203.981 84.8853 203.981 86.08V86.304H211.469V86.016C211.469 84.8213 211.138 83.872 210.477 83.168C209.837 82.464 208.952 82.112 207.821 82.112ZM226.849 96.384C225.035 96.384 223.467 96.1067 222.145 95.552C220.822 94.976 219.787 94.208 219.041 93.248L221.441 91.072C222.123 91.8187 222.902 92.3947 223.777 92.8C224.673 93.2053 225.707 93.408 226.881 93.408C227.905 93.408 228.726 93.2373 229.345 92.896C229.963 92.5547 230.273 92.032 230.273 91.328C230.273 90.7307 230.059 90.3253 229.633 90.112C229.227 89.8987 228.683 89.7387 228.001 89.632L225.345 89.216C224.662 89.1093 223.99 88.96 223.329 88.768C222.689 88.5547 222.113 88.2667 221.601 87.904C221.11 87.5413 220.715 87.0827 220.417 86.528C220.118 85.952 219.969 85.2587 219.969 84.448C219.969 82.72 220.609 81.3973 221.889 80.48C223.19 79.5627 224.971 79.104 227.233 79.104C228.833 79.104 230.187 79.328 231.297 79.776C232.427 80.224 233.355 80.8533 234.081 81.664L231.937 84.032C231.467 83.52 230.838 83.072 230.049 82.688C229.281 82.2827 228.299 82.08 227.105 82.08C225.014 82.08 223.969 82.7307 223.969 84.032C223.969 84.6293 224.182 85.0453 224.609 85.28C225.035 85.4933 225.59 85.6533 226.273 85.76L228.897 86.176C229.601 86.2827 230.273 86.4427 230.913 86.656C231.574 86.848 232.15 87.1253 232.641 87.488C233.153 87.8507 233.558 88.3093 233.857 88.864C234.155 89.4187 234.305 90.1013 234.305 90.912C234.305 92.6187 233.643 93.9627 232.321 94.944C231.019 95.904 229.195 96.384 226.849 96.384ZM666.977 138.352C665.313 138.224 663.884 137.851 662.689 137.232C661.516 136.592 660.556 135.771 659.809 134.768L662.337 132.176C663.745 133.755 665.366 134.651 667.201 134.864V128.24L666.465 128.112C665.42 127.92 664.513 127.632 663.745 127.248C662.998 126.864 662.38 126.395 661.889 125.84C661.42 125.285 661.068 124.667 660.833 123.984C660.62 123.301 660.513 122.565 660.513 121.776C660.513 119.963 661.068 118.501 662.177 117.392C663.308 116.283 664.908 115.611 666.977 115.376V112.048H670.113V115.344C671.5 115.515 672.684 115.867 673.665 116.4C674.668 116.933 675.51 117.627 676.193 118.48L673.665 121.072C672.684 119.899 671.425 119.184 669.889 118.928V125.008L670.689 125.136C672.78 125.52 674.294 126.267 675.233 127.376C676.172 128.464 676.641 129.808 676.641 131.408C676.641 133.221 676.076 134.736 674.945 135.952C673.836 137.147 672.225 137.904 670.113 138.224V141.616H666.977V138.352ZM664.449 121.648C664.449 122.437 664.662 123.045 665.089 123.472C665.516 123.899 666.22 124.229 667.201 124.464V118.832C665.366 119.088 664.449 120.027 664.449 121.648ZM672.737 131.664C672.737 130.811 672.513 130.171 672.065 129.744C671.617 129.296 670.892 128.965 669.889 128.752V134.832C670.849 134.661 671.564 134.309 672.033 133.776C672.502 133.243 672.737 132.539 672.737 131.664ZM688.053 138.384C686.794 138.384 685.663 138.181 684.661 137.776C683.658 137.371 682.805 136.795 682.101 136.048C681.418 135.301 680.885 134.395 680.501 133.328C680.138 132.261 679.957 131.067 679.957 129.744C679.957 128.421 680.138 127.227 680.501 126.16C680.885 125.093 681.418 124.187 682.101 123.44C682.805 122.693 683.647 122.117 684.629 121.712C685.631 121.307 686.762 121.104 688.021 121.104C689.77 121.104 691.178 121.467 692.245 122.192C693.311 122.917 694.122 123.877 694.677 125.072L691.509 126.8C691.21 126.096 690.783 125.531 690.229 125.104C689.695 124.656 688.959 124.432 688.021 124.432C686.805 124.432 685.866 124.784 685.205 125.488C684.565 126.192 684.245 127.152 684.245 128.368V131.12C684.245 132.315 684.565 133.275 685.205 134C685.866 134.704 686.826 135.056 688.085 135.056C689.066 135.056 689.845 134.832 690.421 134.384C691.018 133.936 691.498 133.339 691.861 132.592L694.933 134.416C694.378 135.589 693.535 136.549 692.405 137.296C691.295 138.021 689.845 138.384 688.053 138.384ZM706.6 138.384C705.341 138.384 704.211 138.181 703.208 137.776C702.227 137.371 701.384 136.795 700.68 136.048C699.997 135.301 699.464 134.395 699.08 133.328C698.717 132.261 698.536 131.067 698.536 129.744C698.536 128.421 698.717 127.227 699.08 126.16C699.464 125.093 699.997 124.187 700.68 123.44C701.384 122.693 702.227 122.117 703.208 121.712C704.211 121.307 705.341 121.104 706.6 121.104C707.837 121.104 708.957 121.307 709.96 121.712C710.963 122.117 711.805 122.693 712.488 123.44C713.192 124.187 713.725 125.093 714.088 126.16C714.472 127.227 714.664 128.421 714.664 129.744C714.664 131.067 714.472 132.261 714.088 133.328C713.725 134.395 713.192 135.301 712.488 136.048C711.805 136.795 710.963 137.371 709.96 137.776C708.957 138.181 707.837 138.384 706.6 138.384ZM706.6 135.248C707.773 135.248 708.701 134.896 709.384 134.192C710.067 133.467 710.408 132.411 710.408 131.024V128.464C710.408 127.077 710.067 126.032 709.384 125.328C708.701 124.603 707.773 124.24 706.6 124.24C705.427 124.24 704.499 124.603 703.816 125.328C703.133 126.032 702.792 127.077 702.792 128.464V131.024C702.792 132.411 703.133 133.467 703.816 134.192C704.499 134.896 705.427 135.248 706.6 135.248ZM718.588 134.768H722.684V124.72H718.588V121.488H726.78V126H727.036C727.185 125.424 727.388 124.869 727.644 124.336C727.921 123.781 728.262 123.301 728.668 122.896C729.094 122.469 729.606 122.128 730.204 121.872C730.801 121.616 731.516 121.488 732.347 121.488H734.14V125.328H730.748C729.51 125.328 728.54 125.691 727.836 126.416C727.132 127.141 726.78 128.069 726.78 129.2V134.768H732.508V138H718.588V134.768ZM745.359 138.384C744.036 138.384 742.863 138.181 741.839 137.776C740.815 137.371 739.951 136.795 739.247 136.048C738.564 135.301 738.042 134.405 737.679 133.36C737.316 132.293 737.135 131.099 737.135 129.776C737.135 128.432 737.316 127.227 737.679 126.16C738.063 125.093 738.596 124.187 739.279 123.44C739.962 122.693 740.783 122.117 741.743 121.712C742.724 121.307 743.823 121.104 745.039 121.104C746.234 121.104 747.311 121.307 748.271 121.712C749.231 122.096 750.042 122.651 750.703 123.376C751.386 124.101 751.908 124.976 752.271 126C752.634 127.024 752.815 128.155 752.815 129.392V130.736H741.231V131.152C741.231 132.347 741.604 133.317 742.351 134.064C743.098 134.789 744.143 135.152 745.487 135.152C746.511 135.152 747.386 134.949 748.111 134.544C748.858 134.117 749.476 133.563 749.967 132.88L752.303 135.216C751.706 136.091 750.831 136.837 749.679 137.456C748.548 138.075 747.108 138.384 745.359 138.384ZM745.071 124.112C743.919 124.112 742.991 124.475 742.287 125.2C741.583 125.925 741.231 126.885 741.231 128.08V128.304H748.719V128.016C748.719 126.821 748.388 125.872 747.727 125.168C747.087 124.464 746.202 124.112 745.071 124.112ZM764.099 138.384C762.285 138.384 760.717 138.107 759.395 137.552C758.072 136.976 757.037 136.208 756.291 135.248L758.691 133.072C759.373 133.819 760.152 134.395 761.027 134.8C761.923 135.205 762.957 135.408 764.131 135.408C765.155 135.408 765.976 135.237 766.595 134.896C767.213 134.555 767.523 134.032 767.523 133.328C767.523 132.731 767.309 132.325 766.883 132.112C766.477 131.899 765.933 131.739 765.251 131.632L762.595 131.216C761.912 131.109 761.24 130.96 760.579 130.768C759.939 130.555 759.363 130.267 758.851 129.904C758.36 129.541 757.965 129.083 757.667 128.528C757.368 127.952 757.219 127.259 757.219 126.448C757.219 124.72 757.859 123.397 759.139 122.48C760.44 121.563 762.221 121.104 764.483 121.104C766.083 121.104 767.437 121.328 768.547 121.776C769.677 122.224 770.605 122.853 771.331 123.664L769.187 126.032C768.717 125.52 768.088 125.072 767.299 124.688C766.531 124.283 765.549 124.08 764.355 124.08C762.264 124.08 761.219 124.731 761.219 126.032C761.219 126.629 761.432 127.045 761.859 127.28C762.285 127.493 762.84 127.653 763.523 127.76L766.147 128.176C766.851 128.283 767.523 128.443 768.163 128.656C768.824 128.848 769.4 129.125 769.891 129.488C770.403 129.851 770.808 130.309 771.107 130.864C771.405 131.419 771.555 132.101 771.555 132.912C771.555 134.619 770.893 135.963 769.571 136.944C768.269 137.904 766.445 138.384 764.099 138.384Z" fill="#B2D1FF"/>
<path d="M257.672 84.352V81.056H272.904V84.352H257.672ZM257.672 91.424V88.128H272.904V91.424H257.672ZM608.615 90.784H614.119L609.927 100.736H606.823L608.615 90.784ZM781.302 90.784H786.806L782.614 100.736H779.51L781.302 90.784ZM953.99 90.784H959.494L955.302 100.736H952.198L953.99 90.784ZM956.038 84.992C954.928 84.992 954.139 84.7573 953.67 84.288C953.2 83.8187 952.966 83.2427 952.966 82.56V81.6C952.966 80.9173 953.2 80.3413 953.67 79.872C954.139 79.4027 954.928 79.168 956.038 79.168C957.147 79.168 957.936 79.4027 958.406 79.872C958.875 80.3413 959.11 80.9173 959.11 81.6V82.56C959.11 83.2427 958.875 83.8187 958.406 84.288C957.936 84.7573 957.147 84.992 956.038 84.992ZM629.85 138.352C628.741 138.352 627.951 138.117 627.482 137.648C627.013 137.179 626.778 136.603 626.778 135.92V134.96C626.778 134.277 627.013 133.701 627.482 133.232C627.951 132.763 628.741 132.528 629.85 132.528C630.959 132.528 631.749 132.763 632.218 133.232C632.687 133.701 632.922 134.277 632.922 134.96V135.92C632.922 136.603 632.687 137.179 632.218 137.648C631.749 138.117 630.959 138.352 629.85 138.352ZM860.1 138.352C858.991 138.352 858.201 138.117 857.732 137.648C857.263 137.179 857.028 136.603 857.028 135.92V134.96C857.028 134.277 857.263 133.701 857.732 133.232C858.201 132.763 858.991 132.528 860.1 132.528C861.209 132.528 861.999 132.763 862.468 133.232C862.937 133.701 863.172 134.277 863.172 134.96V135.92C863.172 136.603 862.937 137.179 862.468 137.648C861.999 138.117 861.209 138.352 860.1 138.352ZM953.99 132.784H959.494L955.302 142.736H952.198L953.99 132.784ZM956.038 126.992C954.928 126.992 954.139 126.757 953.67 126.288C953.2 125.819 952.966 125.243 952.966 124.56V123.6C952.966 122.917 953.2 122.341 953.67 121.872C954.139 121.403 954.928 121.168 956.038 121.168C957.147 121.168 957.936 121.403 958.406 121.872C958.875 122.341 959.11 122.917 959.11 123.6V124.56C959.11 125.243 958.875 125.819 958.406 126.288C957.936 126.757 957.147 126.992 956.038 126.992Z" fill="white"/>
<path d="M309.743 96C308.74 96 307.961 95.7547 307.407 95.264C306.873 94.752 306.553 94.048 306.447 93.152H306.287C305.988 94.176 305.401 94.976 304.527 95.552C303.652 96.1067 302.575 96.384 301.295 96.384C299.631 96.384 298.308 95.9467 297.327 95.072C296.345 94.1973 295.855 92.9813 295.855 91.424C295.855 88.096 298.297 86.432 303.183 86.432H306.095V85.344C306.095 84.2987 305.839 83.5093 305.327 82.976C304.815 82.4427 303.983 82.176 302.831 82.176C301.785 82.176 300.943 82.3787 300.303 82.784C299.663 83.1893 299.119 83.712 298.671 84.352L296.335 82.368C296.847 81.4507 297.668 80.6827 298.799 80.064C299.951 79.424 301.433 79.104 303.247 79.104C305.423 79.104 307.119 79.616 308.335 80.64C309.572 81.6427 310.191 83.1467 310.191 85.152V92.928H312.142V96H309.743ZM302.671 93.568C303.652 93.568 304.463 93.344 305.103 92.896C305.764 92.4267 306.095 91.7973 306.095 91.008V88.8H303.279C301.039 88.8 299.919 89.504 299.919 90.912V91.552C299.919 92.2133 300.164 92.7147 300.655 93.056C301.145 93.3973 301.817 93.568 302.671 93.568ZM315.65 92.768H319.746V82.72H315.65V79.488H323.842V84H324.098C324.247 83.424 324.45 82.8693 324.706 82.336C324.983 81.7813 325.325 81.3013 325.73 80.896C326.157 80.4693 326.669 80.128 327.266 79.872C327.863 79.616 328.578 79.488 329.41 79.488H331.202V83.328H327.81C326.573 83.328 325.602 83.6907 324.898 84.416C324.194 85.1413 323.842 86.0693 323.842 87.2V92.768H329.57V96H315.65V92.768ZM334.838 92.768H338.934V82.72H334.838V79.488H343.03V84H343.286C343.435 83.424 343.638 82.8693 343.894 82.336C344.171 81.7813 344.512 81.3013 344.918 80.896C345.344 80.4693 345.856 80.128 346.454 79.872C347.051 79.616 347.766 79.488 348.597 79.488H350.39V83.328H346.998C345.76 83.328 344.79 83.6907 344.086 84.416C343.382 85.1413 343.03 86.0693 343.03 87.2V92.768H348.758V96H334.838V92.768ZM367.305 96C366.302 96 365.524 95.7547 364.969 95.264C364.436 94.752 364.116 94.048 364.009 93.152H363.849C363.55 94.176 362.964 94.976 362.089 95.552C361.214 96.1067 360.137 96.384 358.857 96.384C357.193 96.384 355.87 95.9467 354.889 95.072C353.908 94.1973 353.417 92.9813 353.417 91.424C353.417 88.096 355.86 86.432 360.745 86.432H363.657V85.344C363.657 84.2987 363.401 83.5093 362.889 82.976C362.377 82.4427 361.545 82.176 360.393 82.176C359.348 82.176 358.505 82.3787 357.865 82.784C357.225 83.1893 356.681 83.712 356.233 84.352L353.897 82.368C354.409 81.4507 355.23 80.6827 356.361 80.064C357.513 79.424 358.996 79.104 360.809 79.104C362.985 79.104 364.681 79.616 365.897 80.64C367.134 81.6427 367.753 83.1467 367.753 85.152V92.928H369.705V96H367.305ZM360.233 93.568C361.214 93.568 362.025 93.344 362.665 92.896C363.326 92.4267 363.657 91.7973 363.657 91.008V88.8H360.841C358.601 88.8 357.481 89.504 357.481 90.912V91.552C357.481 92.2133 357.726 92.7147 358.217 93.056C358.708 93.3973 359.38 93.568 360.233 93.568ZM384.925 79.488H389.085L381.181 98.944C380.733 100.075 380.135 100.928 379.389 101.504C378.642 102.101 377.586 102.4 376.221 102.4H373.213V99.168H377.149L378.397 95.84L371.741 79.488H376.093L378.621 86.4L380.381 91.648H380.605L382.365 86.4L384.925 79.488ZM131.359 138.384C130.036 138.384 128.863 138.181 127.839 137.776C126.815 137.371 125.951 136.795 125.247 136.048C124.564 135.301 124.042 134.405 123.679 133.36C123.316 132.293 123.135 131.099 123.135 129.776C123.135 128.432 123.316 127.227 123.679 126.16C124.063 125.093 124.596 124.187 125.279 123.44C125.962 122.693 126.783 122.117 127.743 121.712C128.724 121.307 129.823 121.104 131.039 121.104C132.234 121.104 133.311 121.307 134.271 121.712C135.231 122.096 136.042 122.651 136.703 123.376C137.386 124.101 137.908 124.976 138.271 126C138.634 127.024 138.815 128.155 138.815 129.392V130.736H127.231V131.152C127.231 132.347 127.604 133.317 128.351 134.064C129.098 134.789 130.143 135.152 131.487 135.152C132.511 135.152 133.386 134.949 134.111 134.544C134.858 134.117 135.476 133.563 135.967 132.88L138.303 135.216C137.706 136.091 136.831 136.837 135.679 137.456C134.548 138.075 133.108 138.384 131.359 138.384ZM131.071 124.112C129.919 124.112 128.991 124.475 128.287 125.2C127.583 125.925 127.231 126.885 127.231 128.08V128.304H134.719V128.016C134.719 126.821 134.388 125.872 133.727 125.168C133.087 124.464 132.202 124.112 131.071 124.112ZM150.803 138.384C149.544 138.384 148.413 138.181 147.411 137.776C146.408 137.371 145.555 136.795 144.851 136.048C144.168 135.301 143.635 134.395 143.251 133.328C142.888 132.261 142.707 131.067 142.707 129.744C142.707 128.421 142.888 127.227 143.251 126.16C143.635 125.093 144.168 124.187 144.851 123.44C145.555 122.693 146.397 122.117 147.379 121.712C148.381 121.307 149.512 121.104 150.771 121.104C152.52 121.104 153.928 121.467 154.995 122.192C156.061 122.917 156.872 123.877 157.427 125.072L154.259 126.8C153.96 126.096 153.533 125.531 152.979 125.104C152.445 124.656 151.709 124.432 150.771 124.432C149.555 124.432 148.616 124.784 147.955 125.488C147.315 126.192 146.995 127.152 146.995 128.368V131.12C146.995 132.315 147.315 133.275 147.955 134C148.616 134.704 149.576 135.056 150.835 135.056C151.816 135.056 152.595 134.832 153.171 134.384C153.768 133.936 154.248 133.339 154.611 132.592L157.683 134.416C157.128 135.589 156.285 136.549 155.155 137.296C154.045 138.021 152.595 138.384 150.803 138.384ZM162.15 114.32H166.246V124.4H166.406C166.769 123.504 167.323 122.736 168.07 122.096C168.838 121.435 169.894 121.104 171.238 121.104C172.859 121.104 174.171 121.648 175.174 122.736C176.198 123.803 176.71 125.339 176.71 127.344V138H172.614V127.92C172.614 125.531 171.579 124.336 169.51 124.336C169.083 124.336 168.678 124.389 168.294 124.496C167.91 124.603 167.558 124.773 167.238 125.008C166.939 125.221 166.694 125.488 166.502 125.808C166.331 126.128 166.246 126.512 166.246 126.96V138H162.15V114.32ZM188.538 138.384C187.279 138.384 186.148 138.181 185.146 137.776C184.164 137.371 183.322 136.795 182.618 136.048C181.935 135.301 181.402 134.395 181.018 133.328C180.655 132.261 180.474 131.067 180.474 129.744C180.474 128.421 180.655 127.227 181.018 126.16C181.402 125.093 181.935 124.187 182.618 123.44C183.322 122.693 184.164 122.117 185.146 121.712C186.148 121.307 187.279 121.104 188.538 121.104C189.775 121.104 190.895 121.307 191.898 121.712C192.9 122.117 193.743 122.693 194.426 123.44C195.13 124.187 195.663 125.093 196.026 126.16C196.41 127.227 196.602 128.421 196.602 129.744C196.602 131.067 196.41 132.261 196.026 133.328C195.663 134.395 195.13 135.301 194.426 136.048C193.743 136.795 192.9 137.371 191.898 137.776C190.895 138.181 189.775 138.384 188.538 138.384ZM188.538 135.248C189.711 135.248 190.639 134.896 191.322 134.192C192.004 133.467 192.346 132.411 192.346 131.024V128.464C192.346 127.077 192.004 126.032 191.322 125.328C190.639 124.603 189.711 124.24 188.538 124.24C187.364 124.24 186.436 124.603 185.754 125.328C185.071 126.032 184.73 127.077 184.73 128.464V131.024C184.73 132.411 185.071 133.467 185.754 134.192C186.436 134.896 187.364 135.248 188.538 135.248Z" fill="#F4E498"/>
<path d="M395.856 86.048C395.856 84.4907 396.027 82.9973 396.368 81.568C396.731 80.1173 397.211 78.7733 397.808 77.536C398.427 76.2987 399.141 75.1893 399.952 74.208C400.763 73.2053 401.616 72.3627 402.512 71.68H406.608C405.648 72.3627 404.731 73.1627 403.856 74.08C402.981 74.9973 402.213 76.0107 401.552 77.12C400.891 78.208 400.357 79.3813 399.952 80.64C399.568 81.8773 399.376 83.168 399.376 84.512V87.584C399.376 88.928 399.568 90.2293 399.952 91.488C400.357 92.7253 400.891 93.8987 401.552 95.008C402.213 96.096 402.981 97.0987 403.856 98.016C404.731 98.9333 405.648 99.7333 406.608 100.416H402.512C401.616 99.7547 400.763 98.9227 399.952 97.92C399.141 96.9173 398.427 95.7973 397.808 94.56C397.211 93.3227 396.731 91.9893 396.368 90.56C396.027 89.1093 395.856 87.6053 395.856 86.048ZM940.594 86.048C940.594 87.6053 940.413 89.1093 940.05 90.56C939.709 91.9893 939.229 93.3227 938.61 94.56C938.013 95.7973 937.309 96.9173 936.498 97.92C935.687 98.9227 934.834 99.7547 933.938 100.416H929.842C930.802 99.7333 931.719 98.9333 932.594 98.016C933.469 97.0987 934.237 96.096 934.898 95.008C935.559 93.8987 936.082 92.7253 936.466 91.488C936.871 90.2293 937.074 88.928 937.074 87.584V84.512C937.074 83.168 936.871 81.8773 936.466 80.64C936.082 79.3813 935.559 78.208 934.898 77.12C934.237 76.0107 933.469 74.9973 932.594 74.08C931.719 73.1627 930.802 72.3627 929.842 71.68H933.938C934.834 72.3627 935.687 73.2053 936.498 74.208C937.309 75.1893 938.013 76.2987 938.61 77.536C939.229 78.7733 939.709 80.1173 940.05 81.568C940.413 82.9973 940.594 84.4907 940.594 86.048ZM779.99 142.416V113.68H789.942V116.496H783.318V139.6H789.942V142.416H779.99ZM825.085 113.68V142.416H815.133V139.6H821.757V116.496H815.133V113.68H825.085Z" fill="#EECE32"/>
<path d="M413.604 82.304V72.32H417.316V82.304H413.604ZM420.292 82.304V72.32H424.004V82.304H420.292ZM435.511 96L429.591 79.488H433.879L436.087 86.496L437.943 92.576H438.167L440.023 86.496L442.231 79.488H446.359L440.439 96H435.511ZM457.547 96.384C456.224 96.384 455.051 96.1813 454.027 95.776C453.003 95.3707 452.139 94.7947 451.435 94.048C450.752 93.3013 450.229 92.4053 449.867 91.36C449.504 90.2933 449.323 89.0987 449.323 87.776C449.323 86.432 449.504 85.2267 449.867 84.16C450.251 83.0933 450.784 82.1867 451.467 81.44C452.149 80.6933 452.971 80.1173 453.931 79.712C454.912 79.3067 456.011 79.104 457.227 79.104C458.421 79.104 459.499 79.3067 460.459 79.712C461.419 80.096 462.229 80.6507 462.891 81.376C463.573 82.1013 464.096 82.976 464.458 84C464.821 85.024 465.003 86.1547 465.003 87.392V88.736H453.419V89.152C453.419 90.3467 453.792 91.3173 454.539 92.064C455.285 92.7893 456.331 93.152 457.675 93.152C458.699 93.152 459.573 92.9493 460.299 92.544C461.045 92.1173 461.664 91.5627 462.155 90.88L464.491 93.216C463.893 94.0907 463.019 94.8373 461.867 95.456C460.736 96.0747 459.296 96.384 457.547 96.384ZM457.259 82.112C456.107 82.112 455.179 82.4747 454.475 83.2C453.771 83.9253 453.419 84.8853 453.419 86.08V86.304H460.907V86.016C460.907 84.8213 460.576 83.872 459.915 83.168C459.275 82.464 458.389 82.112 457.259 82.112ZM469.15 92.768H473.246V82.72H469.15V79.488H477.342V84H477.598C477.747 83.424 477.95 82.8693 478.206 82.336C478.483 81.7813 478.825 81.3013 479.23 80.896C479.657 80.4693 480.169 80.128 480.766 79.872C481.363 79.616 482.078 79.488 482.91 79.488H484.702V83.328H481.31C480.073 83.328 479.102 83.6907 478.398 84.416C477.694 85.1413 477.342 86.0693 477.342 87.2V92.768H483.07V96H469.15V92.768ZM487.122 96V79.488H490.514V81.76H490.706C490.962 81.0347 491.324 80.416 491.794 79.904C492.284 79.3707 492.967 79.104 493.842 79.104C494.674 79.104 495.335 79.3493 495.826 79.84C496.316 80.3093 496.636 80.9813 496.786 81.856H496.946C497.223 81.1093 497.628 80.4693 498.162 79.936C498.716 79.3813 499.495 79.104 500.498 79.104C501.714 79.104 502.588 79.5413 503.122 80.416C503.655 81.2907 503.922 82.5813 503.922 84.288V96H500.562V84.768C500.562 83.808 500.423 83.136 500.146 82.752C499.89 82.368 499.495 82.176 498.962 82.176C498.471 82.176 498.055 82.336 497.714 82.656C497.394 82.976 497.234 83.4667 497.234 84.128V96H493.842V84.768C493.842 83.808 493.714 83.136 493.458 82.752C493.202 82.368 492.807 82.176 492.274 82.176C491.762 82.176 491.335 82.336 490.994 82.656C490.674 82.976 490.514 83.4667 490.514 84.128V96H487.122ZM515.109 96.384C513.786 96.384 512.613 96.1813 511.589 95.776C510.565 95.3707 509.701 94.7947 508.997 94.048C508.314 93.3013 507.792 92.4053 507.429 91.36C507.066 90.2933 506.885 89.0987 506.885 87.776C506.885 86.432 507.066 85.2267 507.429 84.16C507.813 83.0933 508.346 82.1867 509.029 81.44C509.712 80.6933 510.533 80.1173 511.493 79.712C512.474 79.3067 513.573 79.104 514.789 79.104C515.984 79.104 517.061 79.3067 518.021 79.712C518.981 80.096 519.792 80.6507 520.453 81.376C521.136 82.1013 521.658 82.976 522.021 84C522.384 85.024 522.565 86.1547 522.565 87.392V88.736H510.981V89.152C510.981 90.3467 511.354 91.3173 512.101 92.064C512.848 92.7893 513.893 93.152 515.237 93.152C516.261 93.152 517.136 92.9493 517.861 92.544C518.608 92.1173 519.226 91.5627 519.717 90.88L522.053 93.216C521.456 94.0907 520.581 94.8373 519.429 95.456C518.298 96.0747 516.858 96.384 515.109 96.384ZM514.821 82.112C513.669 82.112 512.741 82.4747 512.037 83.2C511.333 83.9253 510.981 84.8853 510.981 86.08V86.304H518.469V86.016C518.469 84.8213 518.138 83.872 517.477 83.168C516.837 82.464 515.952 82.112 514.821 82.112ZM526.617 92.768H531.865V75.552H526.617V72.32H535.961V92.768H541.241V96H526.617V92.768ZM545.9 72.32H549.996V82.4H550.156C550.519 81.504 551.073 80.736 551.82 80.096C552.588 79.4347 553.644 79.104 554.988 79.104C556.609 79.104 557.921 79.648 558.924 80.736C559.948 81.8027 560.46 83.3387 560.46 85.344V96H556.364V85.92C556.364 83.5307 555.329 82.336 553.26 82.336C552.833 82.336 552.428 82.3893 552.044 82.496C551.66 82.6027 551.308 82.7733 550.988 83.008C550.689 83.2213 550.444 83.488 550.252 83.808C550.081 84.128 549.996 84.512 549.996 84.96V96H545.9V72.32ZM572.288 96.384C571.029 96.384 569.898 96.1813 568.896 95.776C567.914 95.3707 567.072 94.7947 566.368 94.048C565.685 93.3013 565.152 92.3947 564.768 91.328C564.405 90.2613 564.224 89.0667 564.224 87.744C564.224 86.4213 564.405 85.2267 564.768 84.16C565.152 83.0933 565.685 82.1867 566.368 81.44C567.072 80.6933 567.914 80.1173 568.896 79.712C569.898 79.3067 571.029 79.104 572.288 79.104C573.525 79.104 574.645 79.3067 575.648 79.712C576.65 80.1173 577.493 80.6933 578.176 81.44C578.88 82.1867 579.413 83.0933 579.776 84.16C580.16 85.2267 580.352 86.4213 580.352 87.744C580.352 89.0667 580.16 90.2613 579.776 91.328C579.413 92.3947 578.88 93.3013 578.176 94.048C577.493 94.7947 576.65 95.3707 575.648 95.776C574.645 96.1813 573.525 96.384 572.288 96.384ZM572.288 93.248C573.461 93.248 574.389 92.896 575.072 92.192C575.754 91.4667 576.096 90.4107 576.096 89.024V86.464C576.096 85.0773 575.754 84.032 575.072 83.328C574.389 82.6027 573.461 82.24 572.288 82.24C571.114 82.24 570.186 82.6027 569.504 83.328C568.821 84.032 568.48 85.0773 568.48 86.464V89.024C568.48 90.4107 568.821 91.4667 569.504 92.192C570.186 92.896 571.114 93.248 572.288 93.248ZM586.291 82.304V72.32H590.003V82.304H586.291ZM592.979 82.304V72.32H596.691V82.304H592.979ZM643.854 82.304V72.32H647.566V82.304H643.854ZM650.542 82.304V72.32H654.254V82.304H650.542ZM665.761 96L659.841 79.488H664.129L666.337 86.496L668.193 92.576H668.417L670.273 86.496L672.481 79.488H676.609L670.689 96H665.761ZM687.797 96.384C686.474 96.384 685.301 96.1813 684.277 95.776C683.253 95.3707 682.389 94.7947 681.685 94.048C681.002 93.3013 680.479 92.4053 680.117 91.36C679.754 90.2933 679.573 89.0987 679.573 87.776C679.573 86.432 679.754 85.2267 680.117 84.16C680.501 83.0933 681.034 82.1867 681.717 81.44C682.399 80.6933 683.221 80.1173 684.181 79.712C685.162 79.3067 686.261 79.104 687.477 79.104C688.671 79.104 689.749 79.3067 690.709 79.712C691.669 80.096 692.479 80.6507 693.141 81.376C693.823 82.1013 694.346 82.976 694.708 84C695.071 85.024 695.253 86.1547 695.253 87.392V88.736H683.669V89.152C683.669 90.3467 684.042 91.3173 684.789 92.064C685.535 92.7893 686.581 93.152 687.925 93.152C688.949 93.152 689.823 92.9493 690.549 92.544C691.295 92.1173 691.914 91.5627 692.405 90.88L694.741 93.216C694.143 94.0907 693.269 94.8373 692.117 95.456C690.986 96.0747 689.546 96.384 687.797 96.384ZM687.509 82.112C686.357 82.112 685.429 82.4747 684.725 83.2C684.021 83.9253 683.669 84.8853 683.669 86.08V86.304H691.157V86.016C691.157 84.8213 690.826 83.872 690.165 83.168C689.525 82.464 688.639 82.112 687.509 82.112ZM699.4 92.768H703.496V82.72H699.4V79.488H707.592V84H707.848C707.997 83.424 708.2 82.8693 708.456 82.336C708.733 81.7813 709.075 81.3013 709.48 80.896C709.907 80.4693 710.419 80.128 711.016 79.872C711.613 79.616 712.328 79.488 713.16 79.488H714.952V83.328H711.56C710.323 83.328 709.352 83.6907 708.648 84.416C707.944 85.1413 707.592 86.0693 707.592 87.2V92.768H713.32V96H699.4V92.768ZM729.084 93.088H728.86C728.412 94.0907 727.793 94.8907 727.004 95.488C726.236 96.0853 725.212 96.384 723.932 96.384C722.993 96.384 722.129 96.2133 721.34 95.872C720.572 95.5093 719.91 94.976 719.356 94.272C718.801 93.5467 718.374 92.64 718.076 91.552C717.777 90.464 717.628 89.1947 717.628 87.744C717.628 84.8427 718.204 82.6773 719.356 81.248C720.508 79.8187 722.033 79.104 723.932 79.104C725.212 79.104 726.236 79.4027 727.004 80C727.793 80.5973 728.412 81.3973 728.86 82.4H729.084V72.32H733.18V96H729.084V93.088ZM725.66 93.12C726.129 93.12 726.566 93.0667 726.972 92.96C727.398 92.832 727.761 92.6613 728.06 92.448C728.38 92.2133 728.625 91.9253 728.796 91.584C728.988 91.2213 729.084 90.8053 729.084 90.336V85.152C729.084 84.6827 728.988 84.2773 728.796 83.936C728.625 83.5733 728.38 83.2853 728.06 83.072C727.761 82.8373 727.398 82.6667 726.972 82.56C726.566 82.432 726.129 82.368 725.66 82.368C724.465 82.368 723.537 82.7307 722.876 83.456C722.236 84.1813 721.916 85.1733 721.916 86.432V89.056C721.916 90.3147 722.236 91.3067 722.876 92.032C723.537 92.7573 724.465 93.12 725.66 93.12ZM745.359 96.384C744.036 96.384 742.863 96.1813 741.839 95.776C740.815 95.3707 739.951 94.7947 739.247 94.048C738.564 93.3013 738.042 92.4053 737.679 91.36C737.316 90.2933 737.135 89.0987 737.135 87.776C737.135 86.432 737.316 85.2267 737.679 84.16C738.063 83.0933 738.596 82.1867 739.279 81.44C739.962 80.6933 740.783 80.1173 741.743 79.712C742.724 79.3067 743.823 79.104 745.039 79.104C746.234 79.104 747.311 79.3067 748.271 79.712C749.231 80.096 750.042 80.6507 750.703 81.376C751.386 82.1013 751.908 82.976 752.271 84C752.634 85.024 752.815 86.1547 752.815 87.392V88.736H741.231V89.152C741.231 90.3467 741.604 91.3173 742.351 92.064C743.098 92.7893 744.143 93.152 745.487 93.152C746.511 93.152 747.386 92.9493 748.111 92.544C748.858 92.1173 749.476 91.5627 749.967 90.88L752.303 93.216C751.706 94.0907 750.831 94.8373 749.679 95.456C748.548 96.0747 747.108 96.384 745.359 96.384ZM745.071 82.112C743.919 82.112 742.991 82.4747 742.287 83.2C741.583 83.9253 741.231 84.8853 741.231 86.08V86.304H748.719V86.016C748.719 84.8213 748.388 83.872 747.727 83.168C747.087 82.464 746.202 82.112 745.071 82.112ZM758.979 82.304V72.32H762.691V82.304H758.979ZM765.667 82.304V72.32H769.379V82.304H765.667ZM816.541 82.304V72.32H820.253V82.304H816.541ZM823.229 82.304V72.32H826.941V82.304H823.229ZM846.993 96C845.99 96 845.211 95.7547 844.657 95.264C844.123 94.752 843.803 94.048 843.697 93.152H843.537C843.238 94.176 842.651 94.976 841.777 95.552C840.902 96.1067 839.825 96.384 838.545 96.384C836.881 96.384 835.558 95.9467 834.577 95.072C833.595 94.1973 833.105 92.9813 833.105 91.424C833.105 88.096 835.547 86.432 840.433 86.432H843.345V85.344C843.345 84.2987 843.089 83.5093 842.577 82.976C842.065 82.4427 841.233 82.176 840.081 82.176C839.035 82.176 838.193 82.3787 837.553 82.784C836.913 83.1893 836.369 83.712 835.921 84.352L833.585 82.368C834.097 81.4507 834.918 80.6827 836.049 80.064C837.201 79.424 838.683 79.104 840.497 79.104C842.673 79.104 844.369 79.616 845.585 80.64C846.822 81.6427 847.441 83.1467 847.441 85.152V92.928H849.392V96H846.993ZM839.921 93.568C840.902 93.568 841.713 93.344 842.353 92.896C843.014 92.4267 843.345 91.7973 843.345 91.008V88.8H840.529C838.289 88.8 837.169 89.504 837.169 90.912V91.552C837.169 92.2133 837.414 92.7147 837.905 93.056C838.395 93.3973 839.067 93.568 839.921 93.568ZM852.804 96V92.512L862.404 82.72H853.124V79.488H867.076V82.976L857.476 92.768H867.396V96H852.804ZM882.392 93.088H882.232C881.869 93.984 881.304 94.7627 880.536 95.424C879.789 96.064 878.744 96.384 877.4 96.384C875.778 96.384 874.456 95.8507 873.432 94.784C872.429 93.696 871.928 92.1493 871.928 90.144V79.488H876.024V89.568C876.024 91.9573 877.058 93.152 879.128 93.152C879.533 93.152 879.928 93.0987 880.312 92.992C880.717 92.8853 881.069 92.7253 881.368 92.512C881.688 92.2773 881.933 92 882.104 91.68C882.296 91.36 882.392 90.976 882.392 90.528V79.488H886.488V96H882.392V93.088ZM891.179 92.768H896.427V75.552H891.179V72.32H900.523V92.768H905.803V96H891.179V92.768ZM912.479 82.304V72.32H916.191V82.304H912.479ZM919.167 82.304V72.32H922.879V82.304H919.167ZM221.729 124.304V114.32H225.441V124.304H221.729ZM228.417 124.304V114.32H232.129V124.304H228.417ZM250.868 138L249.3 132.336H242.676L241.14 138H236.916L243.188 115.664H249.012L255.316 138H250.868ZM246.132 119.792H245.876L243.412 128.912H248.596L246.132 119.792ZM285.115 138.384C283.856 138.384 282.726 138.181 281.723 137.776C280.72 137.371 279.867 136.795 279.163 136.048C278.48 135.301 277.947 134.395 277.563 133.328C277.2 132.261 277.019 131.067 277.019 129.744C277.019 128.421 277.2 127.227 277.563 126.16C277.947 125.093 278.48 124.187 279.163 123.44C279.867 122.693 280.71 122.117 281.691 121.712C282.694 121.307 283.824 121.104 285.083 121.104C286.832 121.104 288.24 121.467 289.307 122.192C290.374 122.917 291.184 123.877 291.739 125.072L288.571 126.8C288.272 126.096 287.846 125.531 287.291 125.104C286.758 124.656 286.022 124.432 285.083 124.432C283.867 124.432 282.928 124.784 282.267 125.488C281.627 126.192 281.307 127.152 281.307 128.368V131.12C281.307 132.315 281.627 133.275 282.267 134C282.928 134.704 283.888 135.056 285.147 135.056C286.128 135.056 286.907 134.832 287.483 134.384C288.08 133.936 288.56 133.339 288.923 132.592L291.995 134.416C291.44 135.589 290.598 136.549 289.467 137.296C288.358 138.021 286.907 138.384 285.115 138.384ZM303.663 138.384C302.404 138.384 301.273 138.181 300.271 137.776C299.289 137.371 298.447 136.795 297.743 136.048C297.06 135.301 296.527 134.395 296.143 133.328C295.78 132.261 295.599 131.067 295.599 129.744C295.599 128.421 295.78 127.227 296.143 126.16C296.527 125.093 297.06 124.187 297.743 123.44C298.447 122.693 299.289 122.117 300.271 121.712C301.273 121.307 302.404 121.104 303.663 121.104C304.9 121.104 306.02 121.307 307.023 121.712C308.025 122.117 308.868 122.693 309.551 123.44C310.255 124.187 310.788 125.093 311.151 126.16C311.535 127.227 311.727 128.421 311.727 129.744C311.727 131.067 311.535 132.261 311.151 133.328C310.788 134.395 310.255 135.301 309.551 136.048C308.868 136.795 308.025 137.371 307.023 137.776C306.02 138.181 304.9 138.384 303.663 138.384ZM303.663 135.248C304.836 135.248 305.764 134.896 306.447 134.192C307.129 133.467 307.471 132.411 307.471 131.024V128.464C307.471 127.077 307.129 126.032 306.447 125.328C305.764 124.603 304.836 124.24 303.663 124.24C302.489 124.24 301.561 124.603 300.879 125.328C300.196 126.032 299.855 127.077 299.855 128.464V131.024C299.855 132.411 300.196 133.467 300.879 134.192C301.561 134.896 302.489 135.248 303.663 135.248ZM315.65 134.768H319.746V124.72H315.65V121.488H323.842V126H324.098C324.247 125.424 324.45 124.869 324.706 124.336C324.983 123.781 325.325 123.301 325.73 122.896C326.157 122.469 326.669 122.128 327.266 121.872C327.863 121.616 328.578 121.488 329.41 121.488H331.202V125.328H327.81C326.573 125.328 325.602 125.691 324.898 126.416C324.194 127.141 323.842 128.069 323.842 129.2V134.768H329.57V138H315.65V134.768ZM353.833 121.488H357.929V124.4H358.153C358.601 123.397 359.209 122.597 359.977 122C360.766 121.403 361.801 121.104 363.081 121.104C364.02 121.104 364.873 121.285 365.641 121.648C366.43 121.989 367.102 122.523 367.657 123.248C368.212 123.952 368.638 124.848 368.937 125.936C369.236 127.024 369.385 128.293 369.385 129.744C369.385 131.195 369.236 132.464 368.937 133.552C368.638 134.64 368.212 135.547 367.657 136.272C367.102 136.976 366.43 137.509 365.641 137.872C364.873 138.213 364.02 138.384 363.081 138.384C361.801 138.384 360.766 138.085 359.977 137.488C359.209 136.891 358.601 136.091 358.153 135.088H357.929V144.4H353.833V121.488ZM361.353 135.12C362.548 135.12 363.465 134.757 364.105 134.032C364.766 133.307 365.097 132.315 365.097 131.056V128.432C365.097 127.173 364.766 126.181 364.105 125.456C363.465 124.731 362.548 124.368 361.353 124.368C360.414 124.368 359.604 124.603 358.921 125.072C358.26 125.52 357.929 126.213 357.929 127.152V132.336C357.929 133.275 358.26 133.979 358.921 134.448C359.604 134.896 360.414 135.12 361.353 135.12ZM373.213 134.768H377.309V124.72H373.213V121.488H381.405V126H381.661C381.81 125.424 382.013 124.869 382.269 124.336C382.546 123.781 382.887 123.301 383.293 122.896C383.719 122.469 384.231 122.128 384.829 121.872C385.426 121.616 386.141 121.488 386.972 121.488H388.765V125.328H385.373C384.135 125.328 383.165 125.691 382.461 126.416C381.757 127.141 381.405 128.069 381.405 129.2V134.768H387.133V138H373.213V134.768ZM400.624 118.928C399.664 118.928 398.981 118.725 398.576 118.32C398.192 117.915 398 117.424 398 116.848V116.08C398 115.504 398.192 115.013 398.576 114.608C398.981 114.203 399.664 114 400.624 114C401.584 114 402.256 114.203 402.64 114.608C403.045 115.013 403.248 115.504 403.248 116.08V116.848C403.248 117.424 403.045 117.915 402.64 118.32C402.256 118.725 401.584 118.928 400.624 118.928ZM393.136 134.768H398.576V124.72H393.136V121.488H402.672V134.768H407.728V138H393.136V134.768ZM411.588 138V121.488H415.684V124.4H415.844C416.206 123.504 416.761 122.736 417.508 122.096C418.276 121.435 419.332 121.104 420.676 121.104C422.297 121.104 423.609 121.648 424.612 122.736C425.636 123.803 426.148 125.339 426.148 127.344V138H422.052V127.92C422.052 125.531 421.017 124.336 418.948 124.336C418.521 124.336 418.116 124.389 417.732 124.496C417.348 124.603 416.996 124.773 416.676 125.008C416.377 125.221 416.132 125.488 415.94 125.808C415.769 126.128 415.684 126.512 415.684 126.96V138H411.588ZM438.615 138.384C437.356 138.384 436.226 138.181 435.223 137.776C434.22 137.371 433.367 136.795 432.663 136.048C431.98 135.301 431.447 134.395 431.063 133.328C430.7 132.261 430.519 131.067 430.519 129.744C430.519 128.421 430.7 127.227 431.063 126.16C431.447 125.093 431.98 124.187 432.663 123.44C433.367 122.693 434.21 122.117 435.191 121.712C436.194 121.307 437.324 121.104 438.583 121.104C440.332 121.104 441.74 121.467 442.807 122.192C443.874 122.917 444.684 123.877 445.239 125.072L442.071 126.8C441.772 126.096 441.346 125.531 440.791 125.104C440.258 124.656 439.522 124.432 438.583 124.432C437.367 124.432 436.428 124.784 435.767 125.488C435.127 126.192 434.807 127.152 434.807 128.368V131.12C434.807 132.315 435.127 133.275 435.767 134C436.428 134.704 437.388 135.056 438.647 135.056C439.628 135.056 440.407 134.832 440.983 134.384C441.58 133.936 442.06 133.339 442.423 132.592L445.495 134.416C444.94 135.589 444.098 136.549 442.967 137.296C441.858 138.021 440.407 138.384 438.615 138.384ZM458.187 118.928C457.227 118.928 456.544 118.725 456.139 118.32C455.755 117.915 455.562 117.424 455.562 116.848V116.08C455.562 115.504 455.755 115.013 456.139 114.608C456.544 114.203 457.227 114 458.187 114C459.147 114 459.819 114.203 460.203 114.608C460.608 115.013 460.811 115.504 460.811 116.08V116.848C460.811 117.424 460.608 117.915 460.203 118.32C459.819 118.725 459.147 118.928 458.187 118.928ZM450.699 134.768H456.139V124.72H450.699V121.488H460.235V134.768H465.291V138H450.699V134.768ZM468.958 121.488H473.054V124.4H473.278C473.726 123.397 474.334 122.597 475.102 122C475.891 121.403 476.926 121.104 478.206 121.104C479.145 121.104 479.998 121.285 480.766 121.648C481.555 121.989 482.227 122.523 482.782 123.248C483.337 123.952 483.763 124.848 484.062 125.936C484.361 127.024 484.51 128.293 484.51 129.744C484.51 131.195 484.361 132.464 484.062 133.552C483.763 134.64 483.337 135.547 482.782 136.272C482.227 136.976 481.555 137.509 480.766 137.872C479.998 138.213 479.145 138.384 478.206 138.384C476.926 138.384 475.891 138.085 475.102 137.488C474.334 136.891 473.726 136.091 473.278 135.088H473.054V144.4H468.958V121.488ZM476.478 135.12C477.673 135.12 478.59 134.757 479.23 134.032C479.891 133.307 480.222 132.315 480.222 131.056V128.432C480.222 127.173 479.891 126.181 479.23 125.456C478.59 124.731 477.673 124.368 476.478 124.368C475.539 124.368 474.729 124.603 474.046 125.072C473.385 125.52 473.054 126.213 473.054 127.152V132.336C473.054 133.275 473.385 133.979 474.046 134.448C474.729 134.896 475.539 135.12 476.478 135.12ZM501.618 138C500.615 138 499.836 137.755 499.282 137.264C498.748 136.752 498.428 136.048 498.322 135.152H498.162C497.863 136.176 497.276 136.976 496.402 137.552C495.527 138.107 494.45 138.384 493.17 138.384C491.506 138.384 490.183 137.947 489.202 137.072C488.22 136.197 487.73 134.981 487.73 133.424C487.73 130.096 490.172 128.432 495.058 128.432H497.97V127.344C497.97 126.299 497.714 125.509 497.202 124.976C496.69 124.443 495.858 124.176 494.706 124.176C493.66 124.176 492.818 124.379 492.178 124.784C491.538 125.189 490.994 125.712 490.546 126.352L488.21 124.368C488.722 123.451 489.543 122.683 490.674 122.064C491.826 121.424 493.308 121.104 495.122 121.104C497.298 121.104 498.994 121.616 500.21 122.64C501.447 123.643 502.066 125.147 502.066 127.152V134.928H504.017V138H501.618ZM494.546 135.568C495.527 135.568 496.338 135.344 496.978 134.896C497.639 134.427 497.97 133.797 497.97 133.008V130.8H495.154C492.914 130.8 491.794 131.504 491.794 132.912V133.552C491.794 134.213 492.039 134.715 492.53 135.056C493.02 135.397 493.692 135.568 494.546 135.568ZM507.429 134.768H512.677V117.552H507.429V114.32H516.773V134.768H522.053V138H507.429V134.768ZM553.548 119.6L551.084 118.416L554.124 112.432L557.58 114.16L553.548 119.6ZM553.484 138.384C552.161 138.384 550.988 138.181 549.964 137.776C548.94 137.371 548.076 136.795 547.372 136.048C546.689 135.301 546.167 134.405 545.804 133.36C545.441 132.293 545.26 131.099 545.26 129.776C545.26 128.432 545.441 127.227 545.804 126.16C546.188 125.093 546.721 124.187 547.404 123.44C548.087 122.693 548.908 122.117 549.868 121.712C550.849 121.307 551.948 121.104 553.164 121.104C554.359 121.104 555.436 121.307 556.396 121.712C557.356 122.096 558.167 122.651 558.828 123.376C559.511 124.101 560.033 124.976 560.396 126C560.759 127.024 560.94 128.155 560.94 129.392V130.736H549.356V131.152C549.356 132.347 549.729 133.317 550.476 134.064C551.223 134.789 552.268 135.152 553.612 135.152C554.636 135.152 555.511 134.949 556.236 134.544C556.983 134.117 557.601 133.563 558.092 132.88L560.428 135.216C559.831 136.091 558.956 136.837 557.804 137.456C556.673 138.075 555.233 138.384 553.484 138.384ZM553.196 124.112C552.044 124.112 551.116 124.475 550.412 125.2C549.708 125.925 549.356 126.885 549.356 128.08V128.304H556.844V128.016C556.844 126.821 556.513 125.872 555.852 125.168C555.212 124.464 554.327 124.112 553.196 124.112ZM586.291 124.304V114.32H590.003V124.304H586.291ZM592.979 124.304V114.32H596.691V124.304H592.979ZM893.291 124.304V114.32H897.003V124.304H893.291ZM899.979 124.304V114.32H903.691V124.304H899.979ZM917.663 138.352C916.553 138.352 915.764 138.117 915.295 137.648C914.825 137.179 914.591 136.603 914.591 135.92V134.96C914.591 134.277 914.825 133.701 915.295 133.232C915.764 132.763 916.553 132.528 917.663 132.528C918.772 132.528 919.561 132.763 920.031 133.232C920.5 133.701 920.735 134.277 920.735 134.96V135.92C920.735 136.603 920.5 137.179 920.031 137.648C919.561 138.117 918.772 138.352 917.663 138.352ZM931.666 124.304V114.32H935.378V124.304H931.666ZM938.354 124.304V114.32H942.066V124.304H938.354Z" fill="#F5A476"/>
<path d="M802.538 138.384C801.087 138.384 799.828 138.128 798.762 137.616C797.695 137.083 796.81 136.325 796.106 135.344C795.423 134.363 794.911 133.157 794.57 131.728C794.25 130.299 794.09 128.667 794.09 126.832C794.09 125.019 794.25 123.397 794.57 121.968C794.911 120.517 795.423 119.301 796.106 118.32C796.81 117.339 797.695 116.592 798.762 116.08C799.828 115.547 801.087 115.28 802.538 115.28C805.439 115.28 807.572 116.293 808.938 118.32C810.303 120.347 810.986 123.184 810.986 126.832C810.986 130.48 810.303 133.317 808.938 135.344C807.572 137.371 805.439 138.384 802.538 138.384ZM802.538 135.024C804.074 135.024 805.151 134.48 805.77 133.392C806.41 132.283 806.73 130.757 806.73 128.816V124.848C806.73 122.907 806.41 121.392 805.77 120.304C805.151 119.195 804.074 118.64 802.538 118.64C801.002 118.64 799.914 119.195 799.274 120.304C798.655 121.392 798.346 122.907 798.346 124.848V128.816C798.346 130.757 798.655 132.283 799.274 133.392C799.914 134.48 801.002 135.024 802.538 135.024ZM802.538 128.72C801.791 128.72 801.268 128.571 800.97 128.272C800.692 127.973 800.554 127.611 800.554 127.184V126.48C800.554 126.053 800.692 125.691 800.97 125.392C801.268 125.093 801.791 124.944 802.538 124.944C803.284 124.944 803.796 125.093 804.074 125.392C804.372 125.691 804.522 126.053 804.522 126.48V127.184C804.522 127.611 804.372 127.973 804.074 128.272C803.796 128.571 803.284 128.72 802.538 128.72Z" fill="#78F6AB"/>
<path d="M34.6625 46.4084V43.8404H39.2705V31.9364H39.0545L35.4065 36.2564L33.4385 34.6004L37.5905 29.6564H42.4145V43.8404H46.2065V46.4084H34.6625Z" fill="white"/>
<path d="M45.6785 87.8873H33.8705V84.9593L39.2465 80.3753C40.1425 79.6073 40.8065 78.9113 41.2385 78.2873C41.6705 77.6473 41.8865 76.9673 41.8865 76.2473V76.0073C41.8865 75.2073 41.6625 74.5993 41.2145 74.1833C40.7665 73.7673 40.1425 73.5593 39.3425 73.5593C38.4625 73.5593 37.7905 73.7993 37.3265 74.2793C36.8625 74.7593 36.5265 75.3513 36.3185 76.0553L33.5825 75.0233C33.7585 74.4793 34.0065 73.9593 34.3265 73.4633C34.6625 72.9513 35.0705 72.5033 35.5505 72.1193C36.0465 71.7353 36.6305 71.4313 37.3025 71.2073C37.9745 70.9673 38.7425 70.8473 39.6065 70.8473C40.5025 70.8473 41.2945 70.9753 41.9825 71.2313C42.6865 71.4713 43.2785 71.8153 43.7585 72.2633C44.2385 72.6953 44.5985 73.2153 44.8385 73.8233C45.0945 74.4313 45.2225 75.0953 45.2225 75.8153C45.2225 76.5033 45.1105 77.1353 44.8865 77.7113C44.6785 78.2873 44.3825 78.8393 43.9985 79.3673C43.6145 79.8793 43.1585 80.3753 42.6305 80.8553C42.1185 81.3353 41.5585 81.8153 40.9505 82.2953L37.3025 85.2473H45.6785V87.8873Z" fill="white"/>
<path d="M39.0065 123.396C40.0145 123.396 40.7505 123.196 41.2145 122.796C41.6945 122.396 41.9345 121.892 41.9345 121.284V121.116C41.9345 120.428 41.7025 119.892 41.2385 119.508C40.7905 119.124 40.1665 118.932 39.3665 118.932C38.5985 118.932 37.9265 119.108 37.3505 119.46C36.7745 119.812 36.2785 120.308 35.8625 120.948L33.8225 119.124C34.1105 118.74 34.4305 118.38 34.7825 118.044C35.1505 117.692 35.5585 117.396 36.0065 117.156C36.4705 116.9 36.9825 116.7 37.5425 116.556C38.1025 116.412 38.7425 116.34 39.4625 116.34C40.3105 116.34 41.0865 116.444 41.7905 116.652C42.5105 116.844 43.1185 117.132 43.6145 117.516C44.1265 117.9 44.5185 118.364 44.7905 118.908C45.0785 119.436 45.2225 120.036 45.2225 120.708C45.2225 121.236 45.1345 121.716 44.9585 122.148C44.7825 122.58 44.5425 122.956 44.2385 123.276C43.9505 123.596 43.6065 123.86 43.2065 124.068C42.8225 124.276 42.4065 124.428 41.9585 124.524V124.644C42.4545 124.74 42.9185 124.9 43.3505 125.124C43.7825 125.332 44.1585 125.604 44.4785 125.94C44.7985 126.276 45.0545 126.684 45.2465 127.164C45.4385 127.628 45.5345 128.156 45.5345 128.748C45.5345 129.484 45.3825 130.156 45.0785 130.764C44.7745 131.372 44.3425 131.892 43.7825 132.324C43.2385 132.756 42.5745 133.092 41.7905 133.332C41.0225 133.556 40.1585 133.668 39.1985 133.668C38.3985 133.668 37.6865 133.58 37.0625 133.404C36.4385 133.244 35.8865 133.02 35.4065 132.732C34.9265 132.444 34.5105 132.116 34.1585 131.748C33.8065 131.364 33.4945 130.972 33.2225 130.572L35.5505 128.772C35.9505 129.444 36.4225 129.996 36.9665 130.428C37.5265 130.86 38.2865 131.076 39.2465 131.076C40.2065 131.076 40.9425 130.86 41.4545 130.428C41.9825 129.98 42.2465 129.364 42.2465 128.58V128.388C42.2465 127.62 41.9665 127.036 41.4065 126.636C40.8465 126.22 40.0545 126.012 39.0305 126.012H37.3505V123.396H39.0065Z" fill="white"/>
<path d="M42.2404 174.859V171.619H34.4884V168.931L41.3284 158.107H45.2404V169.171H47.4964V171.619H45.2404V174.859H42.2404ZM37.0564 169.171H42.2404V161.179H42.0484L37.0564 169.171Z" fill="white"/>
<path d="M46.432 201.984H38.752L38.344 207.6H38.536C38.728 207.248 38.936 206.928 39.16 206.64C39.384 206.336 39.64 206.08 39.928 205.872C40.232 205.664 40.568 205.504 40.936 205.392C41.32 205.28 41.76 205.224 42.256 205.224C42.96 205.224 43.624 205.344 44.248 205.584C44.872 205.824 45.416 206.168 45.88 206.616C46.344 207.064 46.704 207.616 46.96 208.272C47.232 208.928 47.368 209.672 47.368 210.504C47.368 211.336 47.224 212.104 46.936 212.808C46.664 213.512 46.256 214.128 45.712 214.656C45.184 215.168 44.528 215.568 43.744 215.856C42.976 216.144 42.088 216.288 41.08 216.288C40.296 216.288 39.592 216.2 38.968 216.024C38.36 215.864 37.824 215.64 37.36 215.352C36.896 215.064 36.488 214.736 36.136 214.368C35.784 213.984 35.48 213.592 35.224 213.192L37.504 211.392C37.696 211.712 37.904 212.016 38.128 212.304C38.368 212.576 38.632 212.816 38.92 213.024C39.208 213.232 39.528 213.4 39.88 213.528C40.248 213.64 40.664 213.696 41.128 213.696C42.088 213.696 42.816 213.44 43.312 212.928C43.824 212.4 44.08 211.68 44.08 210.768V210.576C44.08 209.696 43.824 209.008 43.312 208.512C42.8 208.016 42.08 207.768 41.152 207.768C40.448 207.768 39.872 207.904 39.424 208.176C38.992 208.432 38.64 208.712 38.368 209.016L35.8 208.656L36.424 199.248H46.432V201.984Z" fill="white"/>
</svg>
