<svg width="1477" height="358" viewBox="0 0 1477 358" fill="none" xmlns="http://www.w3.org/2000/svg">
<path d="M0 5C0 2.23858 2.23858 0 5 0H1462C1470.28 0 1477 6.71573 1477 15V332C1477 345.807 1465.81 357 1452 357H35C15.67 357 0 341.33 0 322V5Z" fill="#373538"/>
<path d="M94.3793 54.352C93.27 54.352 92.4806 54.1173 92.0113 53.648C91.542 53.1787 91.3073 52.6027 91.3073 51.92V50.96C91.3073 50.2773 91.542 49.7013 92.0113 49.232C92.4806 48.7627 93.27 48.528 94.3793 48.528C95.4886 48.528 96.278 48.7627 96.7473 49.232C97.2166 49.7013 97.4513 50.2773 97.4513 50.96V51.92C97.4513 52.6027 97.2166 53.1787 96.7473 53.648C96.278 54.1173 95.4886 54.352 94.3793 54.352ZM114.687 54C113.108 54 111.945 53.584 111.199 52.752C110.452 51.92 110.079 50.8427 110.079 49.52V40.72H105.279V37.488H108.543C109.204 37.488 109.673 37.36 109.951 37.104C110.228 36.8267 110.367 36.3467 110.367 35.664V31.664H114.175V37.488H120.895V40.72H114.175V50.768H120.895V54H114.687ZM133.138 54.384C131.816 54.384 130.642 54.1813 129.618 53.776C128.594 53.3707 127.73 52.7947 127.026 52.048C126.344 51.3013 125.821 50.4053 125.458 49.36C125.096 48.2933 124.914 47.0987 124.914 45.776C124.914 44.432 125.096 43.2267 125.458 42.16C125.842 41.0933 126.376 40.1867 127.058 39.44C127.741 38.6933 128.562 38.1173 129.522 37.712C130.504 37.3067 131.602 37.104 132.818 37.104C134.013 37.104 135.09 37.3067 136.05 37.712C137.01 38.096 137.821 38.6507 138.482 39.376C139.165 40.1013 139.688 40.976 140.05 42C140.413 43.024 140.594 44.1547 140.594 45.392V46.736H129.01V47.152C129.01 48.3467 129.384 49.3173 130.13 50.064C130.877 50.7893 131.922 51.152 133.266 51.152C134.29 51.152 135.165 50.9493 135.89 50.544C136.637 50.1173 137.256 49.5627 137.746 48.88L140.082 51.216C139.485 52.0907 138.61 52.8373 137.458 53.456C136.328 54.0747 134.888 54.384 133.138 54.384ZM132.85 40.112C131.698 40.112 130.77 40.4747 130.066 41.2C129.362 41.9253 129.01 42.8853 129.01 44.08V44.304H136.498V44.016C136.498 42.8213 136.168 41.872 135.506 41.168C134.866 40.464 133.981 40.112 132.85 40.112ZM143.43 54L149.606 45.616L143.782 37.488H148.486L150.47 40.4L152.006 42.704H152.23L153.766 40.4L155.75 37.488H160.102L154.278 45.424L160.454 54H155.718L153.446 50.672L151.878 48.336H151.654L150.086 50.672L147.814 54H143.43ZM172.249 54C170.671 54 169.508 53.584 168.761 52.752C168.015 51.92 167.641 50.8427 167.641 49.52V40.72H162.841V37.488H166.105C166.767 37.488 167.236 37.36 167.513 37.104C167.791 36.8267 167.929 36.3467 167.929 35.664V31.664H171.737V37.488H178.457V40.72H171.737V50.768H178.457V54H172.249ZM190.317 54.384C189.058 54.384 187.927 54.1813 186.925 53.776C185.943 53.3707 185.101 52.7947 184.397 52.048C183.714 51.3013 183.181 50.3947 182.797 49.328C182.434 48.2613 182.253 47.0667 182.253 45.744C182.253 44.4213 182.434 43.2267 182.797 42.16C183.181 41.0933 183.714 40.1867 184.397 39.44C185.101 38.6933 185.943 38.1173 186.925 37.712C187.927 37.3067 189.058 37.104 190.317 37.104C191.554 37.104 192.674 37.3067 193.677 37.712C194.679 38.1173 195.522 38.6933 196.205 39.44C196.909 40.1867 197.442 41.0933 197.805 42.16C198.189 43.2267 198.381 44.4213 198.381 45.744C198.381 47.0667 198.189 48.2613 197.805 49.328C197.442 50.3947 196.909 51.3013 196.205 52.048C195.522 52.7947 194.679 53.3707 193.677 53.776C192.674 54.1813 191.554 54.384 190.317 54.384ZM190.317 51.248C191.49 51.248 192.418 50.896 193.101 50.192C193.783 49.4667 194.125 48.4107 194.125 47.024V44.464C194.125 43.0773 193.783 42.032 193.101 41.328C192.418 40.6027 191.49 40.24 190.317 40.24C189.143 40.24 188.215 40.6027 187.533 41.328C186.85 42.032 186.509 43.0773 186.509 44.464V47.024C186.509 48.4107 186.85 49.4667 187.533 50.192C188.215 50.896 189.143 51.248 190.317 51.248ZM204.544 46.256V42.256H214.464V46.256H204.544ZM220.276 54V37.488H223.668V39.76H223.86C224.116 39.0347 224.478 38.416 224.948 37.904C225.438 37.3707 226.121 37.104 226.996 37.104C227.828 37.104 228.489 37.3493 228.98 37.84C229.47 38.3093 229.79 38.9813 229.94 39.856H230.1C230.377 39.1093 230.782 38.4693 231.316 37.936C231.87 37.3813 232.649 37.104 233.652 37.104C234.868 37.104 235.742 37.5413 236.276 38.416C236.809 39.2907 237.076 40.5813 237.076 42.288V54H233.716V42.768C233.716 41.808 233.577 41.136 233.3 40.752C233.044 40.368 232.649 40.176 232.116 40.176C231.625 40.176 231.209 40.336 230.868 40.656C230.548 40.976 230.388 41.4667 230.388 42.128V54H226.996V42.768C226.996 41.808 226.868 41.136 226.612 40.752C226.356 40.368 225.961 40.176 225.428 40.176C224.916 40.176 224.489 40.336 224.148 40.656C223.828 40.976 223.668 41.4667 223.668 42.128V54H220.276ZM253.959 54C252.957 54 252.178 53.7547 251.623 53.264C251.09 52.752 250.77 52.048 250.663 51.152H250.503C250.205 52.176 249.618 52.976 248.743 53.552C247.869 54.1067 246.791 54.384 245.511 54.384C243.847 54.384 242.525 53.9467 241.543 53.072C240.562 52.1973 240.071 50.9813 240.071 49.424C240.071 46.096 242.514 44.432 247.399 44.432H250.311V43.344C250.311 42.2987 250.055 41.5093 249.543 40.976C249.031 40.4427 248.199 40.176 247.047 40.176C246.002 40.176 245.159 40.3787 244.519 40.784C243.879 41.1893 243.335 41.712 242.887 42.352L240.551 40.368C241.063 39.4507 241.885 38.6827 243.015 38.064C244.167 37.424 245.65 37.104 247.463 37.104C249.639 37.104 251.335 37.616 252.551 38.64C253.789 39.6427 254.407 41.1467 254.407 43.152V50.928H256.359V54H253.959ZM246.887 51.568C247.869 51.568 248.679 51.344 249.319 50.896C249.981 50.4267 250.311 49.7973 250.311 49.008V46.8H247.495C245.255 46.8 244.135 47.504 244.135 48.912V49.552C244.135 50.2133 244.381 50.7147 244.871 51.056C245.362 51.3973 246.034 51.568 246.887 51.568ZM275.899 55.728C275.899 57.456 275.173 58.7253 273.723 59.536C272.293 60.368 270.053 60.784 267.003 60.784C265.509 60.784 264.261 60.688 263.259 60.496C262.256 60.3253 261.445 60.0693 260.827 59.728C260.229 59.3867 259.803 58.9707 259.547 58.48C259.291 58.0107 259.163 57.4773 259.163 56.88C259.163 55.9627 259.429 55.2587 259.963 54.768C260.496 54.2773 261.243 53.9147 262.203 53.68V53.424C261.563 53.2107 261.051 52.912 260.667 52.528C260.304 52.144 260.123 51.6107 260.123 50.928C260.123 50.1173 260.389 49.5093 260.923 49.104C261.477 48.6987 262.203 48.3893 263.099 48.176V48.016C262.117 47.5467 261.349 46.8853 260.795 46.032C260.24 45.1787 259.963 44.144 259.963 42.928C259.963 42.0107 260.123 41.2 260.443 40.496C260.784 39.7707 261.253 39.1627 261.851 38.672C262.469 38.16 263.205 37.776 264.059 37.52C264.912 37.2427 265.861 37.104 266.907 37.104C268.016 37.104 269.019 37.2533 269.915 37.552V36.848C269.915 36.208 270.117 35.6747 270.523 35.248C270.949 34.8213 271.536 34.608 272.283 34.608H275.259V37.68H271.355V38.224C272.165 38.7147 272.784 39.3547 273.211 40.144C273.659 40.912 273.883 41.84 273.883 42.928C273.883 43.8453 273.712 44.6667 273.371 45.392C273.051 46.1173 272.581 46.7253 271.963 47.216C271.365 47.7067 270.629 48.0907 269.755 48.368C268.901 48.624 267.952 48.752 266.907 48.752C266.48 48.752 266.064 48.7413 265.659 48.72C265.275 48.6773 264.901 48.6027 264.539 48.496C264.24 48.6027 263.952 48.7733 263.675 49.008C263.397 49.2427 263.259 49.552 263.259 49.936C263.259 50.448 263.504 50.768 263.995 50.896C264.485 51.0027 265.072 51.056 265.755 51.056H269.499C270.651 51.056 271.632 51.1733 272.443 51.408C273.253 51.6213 273.915 51.9413 274.427 52.368C274.939 52.7733 275.312 53.264 275.547 53.84C275.781 54.416 275.899 55.0453 275.899 55.728ZM272.059 56.016C272.059 55.5253 271.856 55.1307 271.451 54.832C271.067 54.5547 270.341 54.416 269.275 54.416H263.579C262.939 54.7787 262.619 55.312 262.619 56.016C262.619 56.592 262.853 57.072 263.323 57.456C263.813 57.84 264.635 58.032 265.787 58.032H268.443C270.853 58.032 272.059 57.36 272.059 56.016ZM266.907 46.064C267.952 46.064 268.72 45.8187 269.211 45.328C269.701 44.816 269.947 44.1547 269.947 43.344V42.512C269.947 41.7013 269.701 41.0507 269.211 40.56C268.72 40.048 267.952 39.792 266.907 39.792C265.883 39.792 265.125 40.048 264.635 40.56C264.144 41.0507 263.899 41.7013 263.899 42.512V43.344C263.899 44.1547 264.144 44.816 264.635 45.328C265.125 45.8187 265.883 46.064 266.907 46.064ZM287.278 34.928C286.318 34.928 285.636 34.7253 285.23 34.32C284.846 33.9147 284.654 33.424 284.654 32.848V32.08C284.654 31.504 284.846 31.0133 285.23 30.608C285.636 30.2027 286.318 30 287.278 30C288.238 30 288.91 30.2027 289.294 30.608C289.7 31.0133 289.902 31.504 289.902 32.08V32.848C289.902 33.424 289.7 33.9147 289.294 34.32C288.91 34.7253 288.238 34.928 287.278 34.928ZM279.79 50.768H285.23V40.72H279.79V37.488H289.326V50.768H294.382V54H279.79V50.768ZM306.082 54.384C304.823 54.384 303.692 54.1813 302.69 53.776C301.687 53.3707 300.834 52.7947 300.13 52.048C299.447 51.3013 298.914 50.3947 298.53 49.328C298.167 48.2613 297.986 47.0667 297.986 45.744C297.986 44.4213 298.167 43.2267 298.53 42.16C298.914 41.0933 299.447 40.1867 300.13 39.44C300.834 38.6933 301.676 38.1173 302.658 37.712C303.66 37.3067 304.791 37.104 306.05 37.104C307.799 37.104 309.207 37.4667 310.274 38.192C311.34 38.9173 312.151 39.8773 312.706 41.072L309.538 42.8C309.239 42.096 308.812 41.5307 308.258 41.104C307.724 40.656 306.988 40.432 306.05 40.432C304.834 40.432 303.895 40.784 303.234 41.488C302.594 42.192 302.274 43.152 302.274 44.368V47.12C302.274 48.3147 302.594 49.2747 303.234 50C303.895 50.704 304.855 51.056 306.114 51.056C307.095 51.056 307.874 50.832 308.45 50.384C309.047 49.936 309.527 49.3387 309.89 48.592L312.962 50.416C312.407 51.5893 311.564 52.5493 310.434 53.296C309.324 54.0213 307.874 54.384 306.082 54.384ZM324.629 54.384C323.371 54.384 322.24 54.1813 321.237 53.776C320.256 53.3707 319.413 52.7947 318.709 52.048C318.027 51.3013 317.493 50.3947 317.109 49.328C316.747 48.2613 316.565 47.0667 316.565 45.744C316.565 44.4213 316.747 43.2267 317.109 42.16C317.493 41.0933 318.027 40.1867 318.709 39.44C319.413 38.6933 320.256 38.1173 321.237 37.712C322.24 37.3067 323.371 37.104 324.629 37.104C325.867 37.104 326.987 37.3067 327.989 37.712C328.992 38.1173 329.835 38.6933 330.517 39.44C331.221 40.1867 331.755 41.0933 332.117 42.16C332.501 43.2267 332.693 44.4213 332.693 45.744C332.693 47.0667 332.501 48.2613 332.117 49.328C331.755 50.3947 331.221 51.3013 330.517 52.048C329.835 52.7947 328.992 53.3707 327.989 53.776C326.987 54.1813 325.867 54.384 324.629 54.384ZM324.629 51.248C325.803 51.248 326.731 50.896 327.413 50.192C328.096 49.4667 328.437 48.4107 328.437 47.024V44.464C328.437 43.0773 328.096 42.032 327.413 41.328C326.731 40.6027 325.803 40.24 324.629 40.24C323.456 40.24 322.528 40.6027 321.845 41.328C321.163 42.032 320.821 43.0773 320.821 44.464V47.024C320.821 48.4107 321.163 49.4667 321.845 50.192C322.528 50.896 323.456 51.248 324.629 51.248Z" fill="#F4E498"/>
<path d="M363.868 58.416C362.588 58.416 361.66 58.1173 361.084 57.52C360.508 56.9227 360.22 56.1547 360.22 55.216V53.616C360.22 53.0613 360.274 52.5813 360.38 52.176C360.508 51.7493 360.658 51.376 360.828 51.056C360.999 50.736 361.191 50.448 361.404 50.192C361.618 49.936 361.82 49.6907 362.012 49.456C362.375 49.0293 362.62 48.6667 362.748 48.368C362.898 48.048 362.972 47.7173 362.972 47.376C362.972 46.096 361.735 45.456 359.26 45.456H356.476V42.64H359.26C361.735 42.64 362.972 42 362.972 40.72C362.972 40.3787 362.898 40.0587 362.748 39.76C362.62 39.44 362.375 39.0667 362.012 38.64C361.82 38.4053 361.618 38.16 361.404 37.904C361.191 37.648 360.999 37.36 360.828 37.04C360.658 36.72 360.508 36.3573 360.38 35.952C360.274 35.5253 360.22 35.0347 360.22 34.48V32.88C360.22 31.9413 360.508 31.1733 361.084 30.576C361.66 29.9787 362.588 29.68 363.868 29.68H369.532V32.496H363.548V34.288C363.548 35.12 363.676 35.76 363.932 36.208C364.188 36.656 364.487 37.0933 364.828 37.52C365.191 37.968 365.532 38.448 365.852 38.96C366.172 39.472 366.332 40.0693 366.332 40.752C366.332 41.648 366.023 42.3733 365.404 42.928C364.786 43.4613 363.868 43.8027 362.652 43.952V44.144C363.868 44.2933 364.786 44.6453 365.404 45.2C366.023 45.7333 366.332 46.448 366.332 47.344C366.332 48.0267 366.172 48.624 365.852 49.136C365.532 49.648 365.191 50.128 364.828 50.576C364.487 51.0027 364.188 51.44 363.932 51.888C363.676 52.336 363.548 52.976 363.548 53.808V55.6H369.532V58.416H363.868ZM324.629 96.352C323.52 96.352 322.731 96.1173 322.261 95.648C321.792 95.1787 321.557 94.6027 321.557 93.92V92.96C321.557 92.2773 321.792 91.7013 322.261 91.232C322.731 90.7627 323.52 90.528 324.629 90.528C325.739 90.528 326.528 90.7627 326.997 91.232C327.467 91.7013 327.701 92.2773 327.701 92.96V93.92C327.701 94.6027 327.467 95.1787 326.997 95.648C326.528 96.1173 325.739 96.352 324.629 96.352ZM324.629 84.992C323.52 84.992 322.731 84.7573 322.261 84.288C321.792 83.8187 321.557 83.2427 321.557 82.56V81.6C321.557 80.9173 321.792 80.3413 322.261 79.872C322.731 79.4027 323.52 79.168 324.629 79.168C325.739 79.168 326.528 79.4027 326.997 79.872C327.467 80.3413 327.701 80.9173 327.701 81.6V82.56C327.701 83.2427 327.467 83.8187 326.997 84.288C326.528 84.7573 325.739 84.992 324.629 84.992ZM476.081 90.784H481.585L477.393 100.736H474.289L476.081 90.784ZM478.129 84.992C477.02 84.992 476.231 84.7573 475.761 84.288C475.292 83.8187 475.057 83.2427 475.057 82.56V81.6C475.057 80.9173 475.292 80.3413 475.761 79.872C476.231 79.4027 477.02 79.168 478.129 79.168C479.239 79.168 480.028 79.4027 480.497 79.872C480.967 80.3413 481.201 80.9173 481.201 81.6V82.56C481.201 83.2427 480.967 83.8187 480.497 84.288C480.028 84.7573 479.239 84.992 478.129 84.992ZM401.379 138.352C400.27 138.352 399.481 138.117 399.011 137.648C398.542 137.179 398.307 136.603 398.307 135.92V134.96C398.307 134.277 398.542 133.701 399.011 133.232C399.481 132.763 400.27 132.528 401.379 132.528C402.489 132.528 403.278 132.763 403.747 133.232C404.217 133.701 404.451 134.277 404.451 134.96V135.92C404.451 136.603 404.217 137.179 403.747 137.648C403.278 138.117 402.489 138.352 401.379 138.352ZM401.379 126.992C400.27 126.992 399.481 126.757 399.011 126.288C398.542 125.819 398.307 125.243 398.307 124.56V123.6C398.307 122.917 398.542 122.341 399.011 121.872C399.481 121.403 400.27 121.168 401.379 121.168C402.489 121.168 403.278 121.403 403.747 121.872C404.217 122.341 404.451 122.917 404.451 123.6V124.56C404.451 125.243 404.217 125.819 403.747 126.288C403.278 126.757 402.489 126.992 401.379 126.992ZM629.581 132.784H635.085L630.893 142.736H627.789L629.581 132.784ZM631.629 126.992C630.52 126.992 629.731 126.757 629.261 126.288C628.792 125.819 628.557 125.243 628.557 124.56V123.6C628.557 122.917 628.792 122.341 629.261 121.872C629.731 121.403 630.52 121.168 631.629 121.168C632.739 121.168 633.528 121.403 633.997 121.872C634.467 122.341 634.701 122.917 634.701 123.6V124.56C634.701 125.243 634.467 125.819 633.997 126.288C633.528 126.757 632.739 126.992 631.629 126.992ZM420.567 180.352C419.457 180.352 418.668 180.117 418.199 179.648C417.729 179.179 417.495 178.603 417.495 177.92V176.96C417.495 176.277 417.729 175.701 418.199 175.232C418.668 174.763 419.457 174.528 420.567 174.528C421.676 174.528 422.465 174.763 422.935 175.232C423.404 175.701 423.639 176.277 423.639 176.96V177.92C423.639 178.603 423.404 179.179 422.935 179.648C422.465 180.117 421.676 180.352 420.567 180.352ZM420.567 168.992C419.457 168.992 418.668 168.757 418.199 168.288C417.729 167.819 417.495 167.243 417.495 166.56V165.6C417.495 164.917 417.729 164.341 418.199 163.872C418.668 163.403 419.457 163.168 420.567 163.168C421.676 163.168 422.465 163.403 422.935 163.872C423.404 164.341 423.639 164.917 423.639 165.6V166.56C423.639 167.243 423.404 167.819 422.935 168.288C422.465 168.757 421.676 168.992 420.567 168.992ZM629.581 174.784H635.085L630.893 184.736H627.789L629.581 174.784ZM631.629 168.992C630.52 168.992 629.731 168.757 629.261 168.288C628.792 167.819 628.557 167.243 628.557 166.56V165.6C628.557 164.917 628.792 164.341 629.261 163.872C629.731 163.403 630.52 163.168 631.629 163.168C632.739 163.168 633.528 163.403 633.997 163.872C634.467 164.341 634.701 164.917 634.701 165.6V166.56C634.701 167.243 634.467 167.819 633.997 168.288C633.528 168.757 632.739 168.992 631.629 168.992ZM343.817 222.352C342.707 222.352 341.918 222.117 341.449 221.648C340.979 221.179 340.745 220.603 340.745 219.92V218.96C340.745 218.277 340.979 217.701 341.449 217.232C341.918 216.763 342.707 216.528 343.817 216.528C344.926 216.528 345.715 216.763 346.185 217.232C346.654 217.701 346.889 218.277 346.889 218.96V219.92C346.889 220.603 346.654 221.179 346.185 221.648C345.715 222.117 344.926 222.352 343.817 222.352ZM343.817 210.992C342.707 210.992 341.918 210.757 341.449 210.288C340.979 209.819 340.745 209.243 340.745 208.56V207.6C340.745 206.917 340.979 206.341 341.449 205.872C341.918 205.403 342.707 205.168 343.817 205.168C344.926 205.168 345.715 205.403 346.185 205.872C346.654 206.341 346.889 206.917 346.889 207.6V208.56C346.889 209.243 346.654 209.819 346.185 210.288C345.715 210.757 344.926 210.992 343.817 210.992ZM763.894 216.784H769.398L765.206 226.736H762.102L763.894 216.784ZM765.942 210.992C764.832 210.992 764.043 210.757 763.574 210.288C763.104 209.819 762.87 209.243 762.87 208.56V207.6C762.87 206.917 763.104 206.341 763.574 205.872C764.043 205.403 764.832 205.168 765.942 205.168C767.051 205.168 767.84 205.403 768.31 205.872C768.779 206.341 769.014 206.917 769.014 207.6V208.56C769.014 209.243 768.779 209.819 768.31 210.288C767.84 210.757 767.051 210.992 765.942 210.992ZM305.442 264.352C304.332 264.352 303.543 264.117 303.074 263.648C302.604 263.179 302.37 262.603 302.37 261.92V260.96C302.37 260.277 302.604 259.701 303.074 259.232C303.543 258.763 304.332 258.528 305.442 258.528C306.551 258.528 307.34 258.763 307.81 259.232C308.279 259.701 308.514 260.277 308.514 260.96V261.92C308.514 262.603 308.279 263.179 307.81 263.648C307.34 264.117 306.551 264.352 305.442 264.352ZM305.442 252.992C304.332 252.992 303.543 252.757 303.074 252.288C302.604 251.819 302.37 251.243 302.37 250.56V249.6C302.37 248.917 302.604 248.341 303.074 247.872C303.543 247.403 304.332 247.168 305.442 247.168C306.551 247.168 307.34 247.403 307.81 247.872C308.279 248.341 308.514 248.917 308.514 249.6V250.56C308.514 251.243 308.279 251.819 307.81 252.288C307.34 252.757 306.551 252.992 305.442 252.992ZM418.519 258.784H424.023L419.831 268.736H416.727L418.519 258.784ZM420.567 252.992C419.457 252.992 418.668 252.757 418.199 252.288C417.729 251.819 417.495 251.243 417.495 250.56V249.6C417.495 248.917 417.729 248.341 418.199 247.872C418.668 247.403 419.457 247.168 420.567 247.168C421.676 247.168 422.465 247.403 422.935 247.872C423.404 248.341 423.639 248.917 423.639 249.6V250.56C423.639 251.243 423.404 251.819 422.935 252.288C422.465 252.757 421.676 252.992 420.567 252.992ZM93.5153 281.68C94.7953 281.68 95.7233 281.979 96.2993 282.576C96.8753 283.173 97.1633 283.941 97.1633 284.88V286.48C97.1633 287.035 97.0993 287.525 96.9713 287.952C96.8646 288.357 96.726 288.72 96.5553 289.04C96.3846 289.36 96.1926 289.648 95.9793 289.904C95.766 290.16 95.5633 290.405 95.3713 290.64C95.0086 291.067 94.7526 291.44 94.6033 291.76C94.4753 292.059 94.4113 292.379 94.4113 292.72C94.4113 294 95.6486 294.64 98.1233 294.64H100.907V297.456H98.1233C95.6486 297.456 94.4113 298.096 94.4113 299.376C94.4113 299.717 94.4753 300.048 94.6033 300.368C94.7526 300.667 95.0086 301.029 95.3713 301.456C95.5633 301.691 95.766 301.936 95.9793 302.192C96.1926 302.448 96.3846 302.736 96.5553 303.056C96.726 303.376 96.8646 303.749 96.9713 304.176C97.0993 304.581 97.1633 305.061 97.1633 305.616V307.216C97.1633 308.155 96.8753 308.923 96.2993 309.52C95.7233 310.117 94.7953 310.416 93.5153 310.416H87.8513V307.6H93.8353V305.808C93.8353 304.976 93.7073 304.336 93.4513 303.888C93.1953 303.44 92.8966 303.003 92.5553 302.576C92.1926 302.128 91.8513 301.648 91.5313 301.136C91.2113 300.624 91.0513 300.027 91.0513 299.344C91.0513 298.448 91.3606 297.733 91.9793 297.2C92.598 296.645 93.5153 296.293 94.7313 296.144V295.952C93.5153 295.803 92.598 295.461 91.9793 294.928C91.3606 294.373 91.0513 293.648 91.0513 292.752C91.0513 292.069 91.2113 291.472 91.5313 290.96C91.8513 290.448 92.1926 289.968 92.5553 289.52C92.8966 289.093 93.1953 288.656 93.4513 288.208C93.7073 287.76 93.8353 287.12 93.8353 286.288V284.496H87.8513V281.68H93.5153Z" fill="white"/>
<path d="M133.874 96C132.296 96 131.133 95.584 130.386 94.752C129.64 93.92 129.266 92.8427 129.266 91.52V82.72H124.466V79.488H127.73C128.392 79.488 128.861 79.36 129.138 79.104C129.416 78.8267 129.554 78.3467 129.554 77.664V73.664H133.362V79.488H140.082V82.72H133.362V92.768H140.082V96H133.874ZM152.326 96.384C151.003 96.384 149.83 96.1813 148.806 95.776C147.782 95.3707 146.918 94.7947 146.214 94.048C145.531 93.3013 145.008 92.4053 144.646 91.36C144.283 90.2933 144.102 89.0987 144.102 87.776C144.102 86.432 144.283 85.2267 144.646 84.16C145.03 83.0933 145.563 82.1867 146.246 81.44C146.928 80.6933 147.75 80.1173 148.71 79.712C149.691 79.3067 150.79 79.104 152.006 79.104C153.2 79.104 154.278 79.3067 155.238 79.712C156.198 80.096 157.008 80.6507 157.67 81.376C158.352 82.1013 158.875 82.976 159.238 84C159.6 85.024 159.782 86.1547 159.782 87.392V88.736H148.198V89.152C148.198 90.3467 148.571 91.3173 149.318 92.064C150.064 92.7893 151.11 93.152 152.454 93.152C153.478 93.152 154.352 92.9493 155.078 92.544C155.824 92.1173 156.443 91.5627 156.934 90.88L159.27 93.216C158.672 94.0907 157.798 94.8373 156.646 95.456C155.515 96.0747 154.075 96.384 152.326 96.384ZM152.038 82.112C150.886 82.112 149.958 82.4747 149.254 83.2C148.55 83.9253 148.198 84.8853 148.198 86.08V86.304H155.686V86.016C155.686 84.8213 155.355 83.872 154.694 83.168C154.054 82.464 153.168 82.112 152.038 82.112ZM162.617 96L168.793 87.616L162.969 79.488H167.673L169.657 82.4L171.193 84.704H171.417L172.953 82.4L174.937 79.488H179.289L173.465 87.424L179.641 96H174.905L172.633 92.672L171.065 90.336H170.841L169.273 92.672L167.001 96H162.617ZM191.437 96C189.858 96 188.695 95.584 187.949 94.752C187.202 93.92 186.829 92.8427 186.829 91.52V82.72H182.029V79.488H185.293C185.954 79.488 186.423 79.36 186.701 79.104C186.978 78.8267 187.117 78.3467 187.117 77.664V73.664H190.925V79.488H197.645V82.72H190.925V92.768H197.645V96H191.437ZM204.544 88.256V84.256H214.464V88.256H204.544ZM234.772 96C233.769 96 232.99 95.7547 232.436 95.264C231.902 94.752 231.582 94.048 231.476 93.152H231.316C231.017 94.176 230.43 94.976 229.556 95.552C228.681 96.1067 227.604 96.384 226.324 96.384C224.66 96.384 223.337 95.9467 222.356 95.072C221.374 94.1973 220.884 92.9813 220.884 91.424C220.884 88.096 223.326 86.432 228.212 86.432H231.124V85.344C231.124 84.2987 230.868 83.5093 230.356 82.976C229.844 82.4427 229.012 82.176 227.86 82.176C226.814 82.176 225.972 82.3787 225.332 82.784C224.692 83.1893 224.148 83.712 223.7 84.352L221.364 82.368C221.876 81.4507 222.697 80.6827 223.828 80.064C224.98 79.424 226.462 79.104 228.276 79.104C230.452 79.104 232.148 79.616 233.364 80.64C234.601 81.6427 235.22 83.1467 235.22 85.152V92.928H237.172V96H234.772ZM227.7 93.568C228.681 93.568 229.492 93.344 230.132 92.896C230.793 92.4267 231.124 91.7973 231.124 91.008V88.8H228.308C226.068 88.8 224.948 89.504 224.948 90.912V91.552C224.948 92.2133 225.193 92.7147 225.684 93.056C226.174 93.3973 226.846 93.568 227.7 93.568ZM240.583 92.768H245.831V75.552H240.583V72.32H249.927V92.768H255.207V96H240.583V92.768ZM268.091 76.928C267.131 76.928 266.448 76.7253 266.043 76.32C265.659 75.9147 265.467 75.424 265.467 74.848V74.08C265.467 73.504 265.659 73.0133 266.043 72.608C266.448 72.2027 267.131 72 268.091 72C269.051 72 269.723 72.2027 270.107 72.608C270.512 73.0133 270.715 73.504 270.715 74.08V74.848C270.715 75.424 270.512 75.9147 270.107 76.32C269.723 76.7253 269.051 76.928 268.091 76.928ZM260.603 92.768H266.043V82.72H260.603V79.488H270.139V92.768H275.195V96H260.603V92.768ZM295.086 97.728C295.086 99.456 294.361 100.725 292.91 101.536C291.481 102.368 289.241 102.784 286.19 102.784C284.697 102.784 283.449 102.688 282.446 102.496C281.444 102.325 280.633 102.069 280.014 101.728C279.417 101.387 278.99 100.971 278.734 100.48C278.478 100.011 278.35 99.4773 278.35 98.88C278.35 97.9627 278.617 97.2587 279.15 96.768C279.684 96.2773 280.43 95.9147 281.39 95.68V95.424C280.75 95.2107 280.238 94.912 279.854 94.528C279.492 94.144 279.31 93.6107 279.31 92.928C279.31 92.1173 279.577 91.5093 280.11 91.104C280.665 90.6987 281.39 90.3893 282.286 90.176V90.016C281.305 89.5467 280.537 88.8853 279.982 88.032C279.428 87.1787 279.15 86.144 279.15 84.928C279.15 84.0107 279.31 83.2 279.63 82.496C279.972 81.7707 280.441 81.1627 281.038 80.672C281.657 80.16 282.393 79.776 283.246 79.52C284.1 79.2427 285.049 79.104 286.094 79.104C287.204 79.104 288.206 79.2533 289.102 79.552V78.848C289.102 78.208 289.305 77.6747 289.71 77.248C290.137 76.8213 290.724 76.608 291.47 76.608H294.446V79.68H290.542V80.224C291.353 80.7147 291.972 81.3547 292.398 82.144C292.846 82.912 293.07 83.84 293.07 84.928C293.07 85.8453 292.9 86.6667 292.558 87.392C292.238 88.1173 291.769 88.7253 291.15 89.216C290.553 89.7067 289.817 90.0907 288.942 90.368C288.089 90.624 287.14 90.752 286.094 90.752C285.668 90.752 285.252 90.7413 284.846 90.72C284.462 90.6773 284.089 90.6027 283.726 90.496C283.428 90.6027 283.14 90.7733 282.862 91.008C282.585 91.2427 282.446 91.552 282.446 91.936C282.446 92.448 282.692 92.768 283.182 92.896C283.673 93.0027 284.26 93.056 284.942 93.056H288.686C289.838 93.056 290.82 93.1733 291.63 93.408C292.441 93.6213 293.102 93.9413 293.614 94.368C294.126 94.7733 294.5 95.264 294.734 95.84C294.969 96.416 295.086 97.0453 295.086 97.728ZM291.246 98.016C291.246 97.5253 291.044 97.1307 290.638 96.832C290.254 96.5547 289.529 96.416 288.462 96.416H282.766C282.126 96.7787 281.806 97.312 281.806 98.016C281.806 98.592 282.041 99.072 282.51 99.456C283.001 99.84 283.822 100.032 284.974 100.032H287.63C290.041 100.032 291.246 99.36 291.246 98.016ZM286.094 88.064C287.14 88.064 287.908 87.8187 288.398 87.328C288.889 86.816 289.134 86.1547 289.134 85.344V84.512C289.134 83.7013 288.889 83.0507 288.398 82.56C287.908 82.048 287.14 81.792 286.094 81.792C285.07 81.792 284.313 82.048 283.822 82.56C283.332 83.0507 283.086 83.7013 283.086 84.512V85.344C283.086 86.1547 283.332 86.816 283.822 87.328C284.313 87.8187 285.07 88.064 286.094 88.064ZM298.242 96V79.488H302.338V82.4H302.498C302.86 81.504 303.415 80.736 304.162 80.096C304.93 79.4347 305.986 79.104 307.33 79.104C308.951 79.104 310.263 79.648 311.266 80.736C312.29 81.8027 312.802 83.3387 312.802 85.344V96H308.706V85.92C308.706 83.5307 307.671 82.336 305.602 82.336C305.175 82.336 304.77 82.3893 304.386 82.496C304.002 82.6027 303.65 82.7733 303.33 83.008C303.031 83.2213 302.786 83.488 302.594 83.808C302.423 84.128 302.338 84.512 302.338 84.96V96H298.242ZM133.874 138C132.296 138 131.133 137.584 130.386 136.752C129.64 135.92 129.266 134.843 129.266 133.52V124.72H124.466V121.488H127.73C128.392 121.488 128.861 121.36 129.138 121.104C129.416 120.827 129.554 120.347 129.554 119.664V115.664H133.362V121.488H140.082V124.72H133.362V134.768H140.082V138H133.874ZM152.326 138.384C151.003 138.384 149.83 138.181 148.806 137.776C147.782 137.371 146.918 136.795 146.214 136.048C145.531 135.301 145.008 134.405 144.646 133.36C144.283 132.293 144.102 131.099 144.102 129.776C144.102 128.432 144.283 127.227 144.646 126.16C145.03 125.093 145.563 124.187 146.246 123.44C146.928 122.693 147.75 122.117 148.71 121.712C149.691 121.307 150.79 121.104 152.006 121.104C153.2 121.104 154.278 121.307 155.238 121.712C156.198 122.096 157.008 122.651 157.67 123.376C158.352 124.101 158.875 124.976 159.238 126C159.6 127.024 159.782 128.155 159.782 129.392V130.736H148.198V131.152C148.198 132.347 148.571 133.317 149.318 134.064C150.064 134.789 151.11 135.152 152.454 135.152C153.478 135.152 154.352 134.949 155.078 134.544C155.824 134.117 156.443 133.563 156.934 132.88L159.27 135.216C158.672 136.091 157.798 136.837 156.646 137.456C155.515 138.075 154.075 138.384 152.326 138.384ZM152.038 124.112C150.886 124.112 149.958 124.475 149.254 125.2C148.55 125.925 148.198 126.885 148.198 128.08V128.304H155.686V128.016C155.686 126.821 155.355 125.872 154.694 125.168C154.054 124.464 153.168 124.112 152.038 124.112ZM162.617 138L168.793 129.616L162.969 121.488H167.673L169.657 124.4L171.193 126.704H171.417L172.953 124.4L174.937 121.488H179.289L173.465 129.424L179.641 138H174.905L172.633 134.672L171.065 132.336H170.841L169.273 134.672L167.001 138H162.617ZM191.437 138C189.858 138 188.695 137.584 187.949 136.752C187.202 135.92 186.829 134.843 186.829 133.52V124.72H182.029V121.488H185.293C185.954 121.488 186.423 121.36 186.701 121.104C186.978 120.827 187.117 120.347 187.117 119.664V115.664H190.925V121.488H197.645V124.72H190.925V134.768H197.645V138H191.437ZM204.544 130.256V126.256H214.464V130.256H204.544ZM229.812 138C228.233 138 227.07 137.584 226.324 136.752C225.577 135.92 225.204 134.843 225.204 133.52V124.72H220.404V121.488H223.668C224.329 121.488 224.798 121.36 225.076 121.104C225.353 120.827 225.492 120.347 225.492 119.664V115.664H229.3V121.488H236.02V124.72H229.3V134.768H236.02V138H229.812ZM240.679 134.768H244.775V124.72H240.679V121.488H248.871V126H249.127C249.277 125.424 249.479 124.869 249.735 124.336C250.013 123.781 250.354 123.301 250.759 122.896C251.186 122.469 251.698 122.128 252.295 121.872C252.893 121.616 253.607 121.488 254.439 121.488H256.231V125.328H252.839C251.602 125.328 250.631 125.691 249.927 126.416C249.223 127.141 248.871 128.069 248.871 129.2V134.768H254.599V138H240.679V134.768ZM273.147 138C272.144 138 271.365 137.755 270.811 137.264C270.277 136.752 269.957 136.048 269.851 135.152H269.691C269.392 136.176 268.805 136.976 267.931 137.552C267.056 138.107 265.979 138.384 264.699 138.384C263.035 138.384 261.712 137.947 260.731 137.072C259.749 136.197 259.259 134.981 259.259 133.424C259.259 130.096 261.701 128.432 266.587 128.432H269.499V127.344C269.499 126.299 269.243 125.509 268.731 124.976C268.219 124.443 267.387 124.176 266.235 124.176C265.189 124.176 264.347 124.379 263.707 124.784C263.067 125.189 262.523 125.712 262.075 126.352L259.739 124.368C260.251 123.451 261.072 122.683 262.203 122.064C263.355 121.424 264.837 121.104 266.651 121.104C268.827 121.104 270.523 121.616 271.739 122.64C272.976 123.643 273.595 125.147 273.595 127.152V134.928H275.547V138H273.147ZM266.075 135.568C267.056 135.568 267.867 135.344 268.507 134.896C269.168 134.427 269.499 133.797 269.499 133.008V130.8H266.683C264.443 130.8 263.323 131.504 263.323 132.912V133.552C263.323 134.213 263.568 134.715 264.059 135.056C264.549 135.397 265.221 135.568 266.075 135.568ZM279.054 138V121.488H283.15V124.4H283.31C283.673 123.504 284.228 122.736 284.974 122.096C285.742 121.435 286.798 121.104 288.142 121.104C289.764 121.104 291.076 121.648 292.078 122.736C293.102 123.803 293.614 125.339 293.614 127.344V138H289.518V127.92C289.518 125.531 288.484 124.336 286.414 124.336C285.988 124.336 285.582 124.389 285.198 124.496C284.814 124.603 284.462 124.773 284.142 125.008C283.844 125.221 283.598 125.488 283.406 125.808C283.236 126.128 283.15 126.512 283.15 126.96V138H279.054ZM305.378 138.384C303.564 138.384 301.996 138.107 300.674 137.552C299.351 136.976 298.316 136.208 297.57 135.248L299.97 133.072C300.652 133.819 301.431 134.395 302.306 134.8C303.202 135.205 304.236 135.408 305.41 135.408C306.434 135.408 307.255 135.237 307.874 134.896C308.492 134.555 308.802 134.032 308.802 133.328C308.802 132.731 308.588 132.325 308.162 132.112C307.756 131.899 307.212 131.739 306.53 131.632L303.874 131.216C303.191 131.109 302.519 130.96 301.858 130.768C301.218 130.555 300.642 130.267 300.13 129.904C299.639 129.541 299.244 129.083 298.946 128.528C298.647 127.952 298.498 127.259 298.498 126.448C298.498 124.72 299.138 123.397 300.418 122.48C301.719 121.563 303.5 121.104 305.762 121.104C307.362 121.104 308.716 121.328 309.826 121.776C310.956 122.224 311.884 122.853 312.61 123.664L310.466 126.032C309.996 125.52 309.367 125.072 308.578 124.688C307.81 124.283 306.828 124.08 305.634 124.08C303.543 124.08 302.498 124.731 302.498 126.032C302.498 126.629 302.711 127.045 303.138 127.28C303.564 127.493 304.119 127.653 304.802 127.76L307.426 128.176C308.13 128.283 308.802 128.443 309.442 128.656C310.103 128.848 310.679 129.125 311.17 129.488C311.682 129.851 312.087 130.309 312.386 130.864C312.684 131.419 312.834 132.101 312.834 132.912C312.834 134.619 312.172 135.963 310.85 136.944C309.548 137.904 307.724 138.384 305.378 138.384ZM317.429 134.768H322.485V124.72H317.109V121.488H322.485V118.8C322.485 118.139 322.571 117.541 322.741 117.008C322.933 116.453 323.221 115.984 323.605 115.6C323.989 115.195 324.469 114.885 325.045 114.672C325.643 114.437 326.336 114.32 327.125 114.32H332.693V117.552H326.581V121.488H332.693V124.72H326.581V134.768H331.957V138H317.429V134.768ZM343.817 138.384C342.558 138.384 341.427 138.181 340.425 137.776C339.443 137.371 338.601 136.795 337.897 136.048C337.214 135.301 336.681 134.395 336.297 133.328C335.934 132.261 335.753 131.067 335.753 129.744C335.753 128.421 335.934 127.227 336.297 126.16C336.681 125.093 337.214 124.187 337.897 123.44C338.601 122.693 339.443 122.117 340.425 121.712C341.427 121.307 342.558 121.104 343.817 121.104C345.054 121.104 346.174 121.307 347.177 121.712C348.179 122.117 349.022 122.693 349.705 123.44C350.409 124.187 350.942 125.093 351.305 126.16C351.689 127.227 351.881 128.421 351.881 129.744C351.881 131.067 351.689 132.261 351.305 133.328C350.942 134.395 350.409 135.301 349.705 136.048C349.022 136.795 348.179 137.371 347.177 137.776C346.174 138.181 345.054 138.384 343.817 138.384ZM343.817 135.248C344.99 135.248 345.918 134.896 346.601 134.192C347.283 133.467 347.625 132.411 347.625 131.024V128.464C347.625 127.077 347.283 126.032 346.601 125.328C345.918 124.603 344.99 124.24 343.817 124.24C342.643 124.24 341.715 124.603 341.033 125.328C340.35 126.032 340.009 127.077 340.009 128.464V131.024C340.009 132.411 340.35 133.467 341.033 134.192C341.715 134.896 342.643 135.248 343.817 135.248ZM355.804 134.768H359.9V124.72H355.804V121.488H363.996V126H364.252C364.402 125.424 364.604 124.869 364.86 124.336C365.138 123.781 365.479 123.301 365.884 122.896C366.311 122.469 366.823 122.128 367.42 121.872C368.018 121.616 368.732 121.488 369.564 121.488H371.356V125.328H367.964C366.727 125.328 365.756 125.691 365.052 126.416C364.348 127.141 363.996 128.069 363.996 129.2V134.768H369.724V138H355.804V134.768ZM373.776 138V121.488H377.168V123.76H377.36C377.616 123.035 377.978 122.416 378.448 121.904C378.938 121.371 379.621 121.104 380.496 121.104C381.328 121.104 381.989 121.349 382.48 121.84C382.97 122.309 383.29 122.981 383.44 123.856H383.6C383.877 123.109 384.282 122.469 384.816 121.936C385.37 121.381 386.149 121.104 387.152 121.104C388.368 121.104 389.242 121.541 389.776 122.416C390.309 123.291 390.576 124.581 390.576 126.288V138H387.216V126.768C387.216 125.808 387.077 125.136 386.8 124.752C386.544 124.368 386.149 124.176 385.616 124.176C385.125 124.176 384.709 124.336 384.368 124.656C384.048 124.976 383.888 125.467 383.888 126.128V138H380.496V126.768C380.496 125.808 380.368 125.136 380.112 124.752C379.856 124.368 379.461 124.176 378.928 124.176C378.416 124.176 377.989 124.336 377.648 124.656C377.328 124.976 377.168 125.467 377.168 126.128V138H373.776ZM133.874 180C132.296 180 131.133 179.584 130.386 178.752C129.64 177.92 129.266 176.843 129.266 175.52V166.72H124.466V163.488H127.73C128.392 163.488 128.861 163.36 129.138 163.104C129.416 162.827 129.554 162.347 129.554 161.664V157.664H133.362V163.488H140.082V166.72H133.362V176.768H140.082V180H133.874ZM152.326 180.384C151.003 180.384 149.83 180.181 148.806 179.776C147.782 179.371 146.918 178.795 146.214 178.048C145.531 177.301 145.008 176.405 144.646 175.36C144.283 174.293 144.102 173.099 144.102 171.776C144.102 170.432 144.283 169.227 144.646 168.16C145.03 167.093 145.563 166.187 146.246 165.44C146.928 164.693 147.75 164.117 148.71 163.712C149.691 163.307 150.79 163.104 152.006 163.104C153.2 163.104 154.278 163.307 155.238 163.712C156.198 164.096 157.008 164.651 157.67 165.376C158.352 166.101 158.875 166.976 159.238 168C159.6 169.024 159.782 170.155 159.782 171.392V172.736H148.198V173.152C148.198 174.347 148.571 175.317 149.318 176.064C150.064 176.789 151.11 177.152 152.454 177.152C153.478 177.152 154.352 176.949 155.078 176.544C155.824 176.117 156.443 175.563 156.934 174.88L159.27 177.216C158.672 178.091 157.798 178.837 156.646 179.456C155.515 180.075 154.075 180.384 152.326 180.384ZM152.038 166.112C150.886 166.112 149.958 166.475 149.254 167.2C148.55 167.925 148.198 168.885 148.198 170.08V170.304H155.686V170.016C155.686 168.821 155.355 167.872 154.694 167.168C154.054 166.464 153.168 166.112 152.038 166.112ZM162.617 180L168.793 171.616L162.969 163.488H167.673L169.657 166.4L171.193 168.704H171.417L172.953 166.4L174.937 163.488H179.289L173.465 171.424L179.641 180H174.905L172.633 176.672L171.065 174.336H170.841L169.273 176.672L167.001 180H162.617ZM191.437 180C189.858 180 188.695 179.584 187.949 178.752C187.202 177.92 186.829 176.843 186.829 175.52V166.72H182.029V163.488H185.293C185.954 163.488 186.423 163.36 186.701 163.104C186.978 162.827 187.117 162.347 187.117 161.664V157.664H190.925V163.488H197.645V166.72H190.925V176.768H197.645V180H191.437ZM204.544 172.256V168.256H214.464V172.256H204.544ZM231.988 177.088H231.764C231.316 178.091 230.697 178.891 229.908 179.488C229.14 180.085 228.116 180.384 226.836 180.384C225.897 180.384 225.033 180.213 224.244 179.872C223.476 179.509 222.814 178.976 222.26 178.272C221.705 177.547 221.278 176.64 220.98 175.552C220.681 174.464 220.532 173.195 220.532 171.744C220.532 168.843 221.108 166.677 222.26 165.248C223.412 163.819 224.937 163.104 226.836 163.104C228.116 163.104 229.14 163.403 229.908 164C230.697 164.597 231.316 165.397 231.764 166.4H231.988V156.32H236.084V180H231.988V177.088ZM228.564 177.12C229.033 177.12 229.47 177.067 229.876 176.96C230.302 176.832 230.665 176.661 230.964 176.448C231.284 176.213 231.529 175.925 231.7 175.584C231.892 175.221 231.988 174.805 231.988 174.336V169.152C231.988 168.683 231.892 168.277 231.7 167.936C231.529 167.573 231.284 167.285 230.964 167.072C230.665 166.837 230.302 166.667 229.876 166.56C229.47 166.432 229.033 166.368 228.564 166.368C227.369 166.368 226.441 166.731 225.78 167.456C225.14 168.181 224.82 169.173 224.82 170.432V173.056C224.82 174.315 225.14 175.307 225.78 176.032C226.441 176.757 227.369 177.12 228.564 177.12ZM248.263 180.384C246.941 180.384 245.767 180.181 244.743 179.776C243.719 179.371 242.855 178.795 242.151 178.048C241.469 177.301 240.946 176.405 240.583 175.36C240.221 174.293 240.039 173.099 240.039 171.776C240.039 170.432 240.221 169.227 240.583 168.16C240.967 167.093 241.501 166.187 242.183 165.44C242.866 164.693 243.687 164.117 244.647 163.712C245.629 163.307 246.727 163.104 247.943 163.104C249.138 163.104 250.215 163.307 251.175 163.712C252.135 164.096 252.946 164.651 253.607 165.376C254.29 166.101 254.813 166.976 255.175 168C255.538 169.024 255.719 170.155 255.719 171.392V172.736H244.135V173.152C244.135 174.347 244.509 175.317 245.255 176.064C246.002 176.789 247.047 177.152 248.391 177.152C249.415 177.152 250.29 176.949 251.015 176.544C251.762 176.117 252.381 175.563 252.871 174.88L255.207 177.216C254.61 178.091 253.735 178.837 252.583 179.456C251.453 180.075 250.013 180.384 248.263 180.384ZM247.975 166.112C246.823 166.112 245.895 166.475 245.191 167.2C244.487 167.925 244.135 168.885 244.135 170.08V170.304H251.623V170.016C251.623 168.821 251.293 167.872 250.631 167.168C249.991 166.464 249.106 166.112 247.975 166.112ZM267.707 180.384C266.448 180.384 265.317 180.181 264.315 179.776C263.312 179.371 262.459 178.795 261.755 178.048C261.072 177.301 260.539 176.395 260.155 175.328C259.792 174.261 259.611 173.067 259.611 171.744C259.611 170.421 259.792 169.227 260.155 168.16C260.539 167.093 261.072 166.187 261.755 165.44C262.459 164.693 263.301 164.117 264.283 163.712C265.285 163.307 266.416 163.104 267.675 163.104C269.424 163.104 270.832 163.467 271.899 164.192C272.965 164.917 273.776 165.877 274.331 167.072L271.163 168.8C270.864 168.096 270.437 167.531 269.883 167.104C269.349 166.656 268.613 166.432 267.675 166.432C266.459 166.432 265.52 166.784 264.859 167.488C264.219 168.192 263.899 169.152 263.899 170.368V173.12C263.899 174.315 264.219 175.275 264.859 176C265.52 176.704 266.48 177.056 267.739 177.056C268.72 177.056 269.499 176.832 270.075 176.384C270.672 175.936 271.152 175.339 271.515 174.592L274.587 176.416C274.032 177.589 273.189 178.549 272.059 179.296C270.949 180.021 269.499 180.384 267.707 180.384ZM286.254 180.384C284.996 180.384 283.865 180.181 282.862 179.776C281.881 179.371 281.038 178.795 280.334 178.048C279.652 177.301 279.118 176.395 278.734 175.328C278.372 174.261 278.19 173.067 278.19 171.744C278.19 170.421 278.372 169.227 278.734 168.16C279.118 167.093 279.652 166.187 280.334 165.44C281.038 164.693 281.881 164.117 282.862 163.712C283.865 163.307 284.996 163.104 286.254 163.104C287.492 163.104 288.612 163.307 289.614 163.712C290.617 164.117 291.46 164.693 292.142 165.44C292.846 166.187 293.38 167.093 293.742 168.16C294.126 169.227 294.318 170.421 294.318 171.744C294.318 173.067 294.126 174.261 293.742 175.328C293.38 176.395 292.846 177.301 292.142 178.048C291.46 178.795 290.617 179.371 289.614 179.776C288.612 180.181 287.492 180.384 286.254 180.384ZM286.254 177.248C287.428 177.248 288.356 176.896 289.038 176.192C289.721 175.467 290.062 174.411 290.062 173.024V170.464C290.062 169.077 289.721 168.032 289.038 167.328C288.356 166.603 287.428 166.24 286.254 166.24C285.081 166.24 284.153 166.603 283.47 167.328C282.788 168.032 282.446 169.077 282.446 170.464V173.024C282.446 174.411 282.788 175.467 283.47 176.192C284.153 176.896 285.081 177.248 286.254 177.248ZM298.242 176.768H302.338V166.72H298.242V163.488H306.434V168H306.69C306.839 167.424 307.042 166.869 307.298 166.336C307.575 165.781 307.916 165.301 308.322 164.896C308.748 164.469 309.26 164.128 309.858 163.872C310.455 163.616 311.17 163.488 312.002 163.488H313.794V167.328H310.402C309.164 167.328 308.194 167.691 307.49 168.416C306.786 169.141 306.434 170.069 306.434 171.2V176.768H312.162V180H298.242V176.768ZM330.709 180C329.707 180 328.928 179.755 328.373 179.264C327.84 178.752 327.52 178.048 327.413 177.152H327.253C326.955 178.176 326.368 178.976 325.493 179.552C324.619 180.107 323.541 180.384 322.261 180.384C320.597 180.384 319.275 179.947 318.293 179.072C317.312 178.197 316.821 176.981 316.821 175.424C316.821 172.096 319.264 170.432 324.149 170.432H327.061V169.344C327.061 168.299 326.805 167.509 326.293 166.976C325.781 166.443 324.949 166.176 323.797 166.176C322.752 166.176 321.909 166.379 321.269 166.784C320.629 167.189 320.085 167.712 319.637 168.352L317.301 166.368C317.813 165.451 318.635 164.683 319.765 164.064C320.917 163.424 322.4 163.104 324.213 163.104C326.389 163.104 328.085 163.616 329.301 164.64C330.539 165.643 331.157 167.147 331.157 169.152V176.928H333.109V180H330.709ZM323.637 177.568C324.619 177.568 325.429 177.344 326.069 176.896C326.731 176.427 327.061 175.797 327.061 175.008V172.8H324.245C322.005 172.8 320.885 173.504 320.885 174.912V175.552C320.885 176.213 321.131 176.715 321.621 177.056C322.112 177.397 322.784 177.568 323.637 177.568ZM344.937 180C343.358 180 342.195 179.584 341.449 178.752C340.702 177.92 340.329 176.843 340.329 175.52V166.72H335.529V163.488H338.793C339.454 163.488 339.923 163.36 340.201 163.104C340.478 162.827 340.617 162.347 340.617 161.664V157.664H344.425V163.488H351.145V166.72H344.425V176.768H351.145V180H344.937ZM364.028 160.928C363.068 160.928 362.386 160.725 361.98 160.32C361.596 159.915 361.404 159.424 361.404 158.848V158.08C361.404 157.504 361.596 157.013 361.98 156.608C362.386 156.203 363.068 156 364.028 156C364.988 156 365.66 156.203 366.044 156.608C366.45 157.013 366.652 157.504 366.652 158.08V158.848C366.652 159.424 366.45 159.915 366.044 160.32C365.66 160.725 364.988 160.928 364.028 160.928ZM356.54 176.768H361.98V166.72H356.54V163.488H366.076V176.768H371.132V180H356.54V176.768ZM382.192 180.384C380.933 180.384 379.802 180.181 378.8 179.776C377.818 179.371 376.976 178.795 376.272 178.048C375.589 177.301 375.056 176.395 374.672 175.328C374.309 174.261 374.128 173.067 374.128 171.744C374.128 170.421 374.309 169.227 374.672 168.16C375.056 167.093 375.589 166.187 376.272 165.44C376.976 164.693 377.818 164.117 378.8 163.712C379.802 163.307 380.933 163.104 382.192 163.104C383.429 163.104 384.549 163.307 385.552 163.712C386.554 164.117 387.397 164.693 388.08 165.44C388.784 166.187 389.317 167.093 389.68 168.16C390.064 169.227 390.256 170.421 390.256 171.744C390.256 173.067 390.064 174.261 389.68 175.328C389.317 176.395 388.784 177.301 388.08 178.048C387.397 178.795 386.554 179.371 385.552 179.776C384.549 180.181 383.429 180.384 382.192 180.384ZM382.192 177.248C383.365 177.248 384.293 176.896 384.976 176.192C385.658 175.467 386 174.411 386 173.024V170.464C386 169.077 385.658 168.032 384.976 167.328C384.293 166.603 383.365 166.24 382.192 166.24C381.018 166.24 380.09 166.603 379.408 167.328C378.725 168.032 378.384 169.077 378.384 170.464V173.024C378.384 174.411 378.725 175.467 379.408 176.192C380.09 176.896 381.018 177.248 382.192 177.248ZM394.179 180V163.488H398.275V166.4H398.435C398.798 165.504 399.353 164.736 400.099 164.096C400.867 163.435 401.923 163.104 403.267 163.104C404.889 163.104 406.201 163.648 407.203 164.736C408.227 165.803 408.739 167.339 408.739 169.344V180H404.643V169.92C404.643 167.531 403.609 166.336 401.539 166.336C401.113 166.336 400.707 166.389 400.323 166.496C399.939 166.603 399.587 166.773 399.267 167.008C398.969 167.221 398.723 167.488 398.531 167.808C398.361 168.128 398.275 168.512 398.275 168.96V180H394.179ZM125.554 218.768H130.61V208.72H125.234V205.488H130.61V202.8C130.61 202.139 130.696 201.541 130.866 201.008C131.058 200.453 131.346 199.984 131.73 199.6C132.114 199.195 132.594 198.885 133.17 198.672C133.768 198.437 134.461 198.32 135.25 198.32H140.818V201.552H134.706V205.488H140.818V208.72H134.706V218.768H140.082V222H125.554V218.768ZM151.942 222.384C150.683 222.384 149.552 222.181 148.55 221.776C147.568 221.371 146.726 220.795 146.022 220.048C145.339 219.301 144.806 218.395 144.422 217.328C144.059 216.261 143.878 215.067 143.878 213.744C143.878 212.421 144.059 211.227 144.422 210.16C144.806 209.093 145.339 208.187 146.022 207.44C146.726 206.693 147.568 206.117 148.55 205.712C149.552 205.307 150.683 205.104 151.942 205.104C153.179 205.104 154.299 205.307 155.302 205.712C156.304 206.117 157.147 206.693 157.83 207.44C158.534 208.187 159.067 209.093 159.43 210.16C159.814 211.227 160.006 212.421 160.006 213.744C160.006 215.067 159.814 216.261 159.43 217.328C159.067 218.395 158.534 219.301 157.83 220.048C157.147 220.795 156.304 221.371 155.302 221.776C154.299 222.181 153.179 222.384 151.942 222.384ZM151.942 219.248C153.115 219.248 154.043 218.896 154.726 218.192C155.408 217.467 155.75 216.411 155.75 215.024V212.464C155.75 211.077 155.408 210.032 154.726 209.328C154.043 208.603 153.115 208.24 151.942 208.24C150.768 208.24 149.84 208.603 149.158 209.328C148.475 210.032 148.134 211.077 148.134 212.464V215.024C148.134 216.411 148.475 217.467 149.158 218.192C149.84 218.896 150.768 219.248 151.942 219.248ZM163.929 222V205.488H168.025V208.4H168.185C168.548 207.504 169.103 206.736 169.849 206.096C170.617 205.435 171.673 205.104 173.017 205.104C174.639 205.104 175.951 205.648 176.953 206.736C177.977 207.803 178.489 209.339 178.489 211.344V222H174.393V211.92C174.393 209.531 173.359 208.336 171.289 208.336C170.863 208.336 170.457 208.389 170.073 208.496C169.689 208.603 169.337 208.773 169.017 209.008C168.719 209.221 168.473 209.488 168.281 209.808C168.111 210.128 168.025 210.512 168.025 210.96V222H163.929ZM191.437 222C189.858 222 188.695 221.584 187.949 220.752C187.202 219.92 186.829 218.843 186.829 217.52V208.72H182.029V205.488H185.293C185.954 205.488 186.423 205.36 186.701 205.104C186.978 204.827 187.117 204.347 187.117 203.664V199.664H190.925V205.488H197.645V208.72H190.925V218.768H197.645V222H191.437ZM204.544 214.256V210.256H214.464V214.256H204.544ZM221.492 218.768H226.548V208.72H221.172V205.488H226.548V202.8C226.548 202.139 226.633 201.541 226.804 201.008C226.996 200.453 227.284 199.984 227.668 199.6C228.052 199.195 228.532 198.885 229.108 198.672C229.705 198.437 230.398 198.32 231.188 198.32H236.756V201.552H230.644V205.488H236.756V208.72H230.644V218.768H236.02V222H221.492V218.768ZM253.959 222C252.957 222 252.178 221.755 251.623 221.264C251.09 220.752 250.77 220.048 250.663 219.152H250.503C250.205 220.176 249.618 220.976 248.743 221.552C247.869 222.107 246.791 222.384 245.511 222.384C243.847 222.384 242.525 221.947 241.543 221.072C240.562 220.197 240.071 218.981 240.071 217.424C240.071 214.096 242.514 212.432 247.399 212.432H250.311V211.344C250.311 210.299 250.055 209.509 249.543 208.976C249.031 208.443 248.199 208.176 247.047 208.176C246.002 208.176 245.159 208.379 244.519 208.784C243.879 209.189 243.335 209.712 242.887 210.352L240.551 208.368C241.063 207.451 241.885 206.683 243.015 206.064C244.167 205.424 245.65 205.104 247.463 205.104C249.639 205.104 251.335 205.616 252.551 206.64C253.789 207.643 254.407 209.147 254.407 211.152V218.928H256.359V222H253.959ZM246.887 219.568C247.869 219.568 248.679 219.344 249.319 218.896C249.981 218.427 250.311 217.797 250.311 217.008V214.8H247.495C245.255 214.8 244.135 215.504 244.135 216.912V217.552C244.135 218.213 244.381 218.715 244.871 219.056C245.362 219.397 246.034 219.568 246.887 219.568ZM258.651 222V205.488H262.043V207.76H262.235C262.491 207.035 262.853 206.416 263.323 205.904C263.813 205.371 264.496 205.104 265.371 205.104C266.203 205.104 266.864 205.349 267.355 205.84C267.845 206.309 268.165 206.981 268.315 207.856H268.475C268.752 207.109 269.157 206.469 269.691 205.936C270.245 205.381 271.024 205.104 272.027 205.104C273.243 205.104 274.117 205.541 274.651 206.416C275.184 207.291 275.451 208.581 275.451 210.288V222H272.091V210.768C272.091 209.808 271.952 209.136 271.675 208.752C271.419 208.368 271.024 208.176 270.491 208.176C270 208.176 269.584 208.336 269.243 208.656C268.923 208.976 268.763 209.467 268.763 210.128V222H265.371V210.768C265.371 209.808 265.243 209.136 264.987 208.752C264.731 208.368 264.336 208.176 263.803 208.176C263.291 208.176 262.864 208.336 262.523 208.656C262.203 208.976 262.043 209.467 262.043 210.128V222H258.651ZM287.278 202.928C286.318 202.928 285.636 202.725 285.23 202.32C284.846 201.915 284.654 201.424 284.654 200.848V200.08C284.654 199.504 284.846 199.013 285.23 198.608C285.636 198.203 286.318 198 287.278 198C288.238 198 288.91 198.203 289.294 198.608C289.7 199.013 289.902 199.504 289.902 200.08V200.848C289.902 201.424 289.7 201.915 289.294 202.32C288.91 202.725 288.238 202.928 287.278 202.928ZM279.79 218.768H285.23V208.72H279.79V205.488H289.326V218.768H294.382V222H279.79V218.768ZM298.146 218.768H303.394V201.552H298.146V198.32H307.49V218.768H312.77V222H298.146V218.768ZM329.141 205.488H333.301L325.397 224.944C324.949 226.075 324.352 226.928 323.605 227.504C322.859 228.101 321.803 228.4 320.437 228.4H317.429V225.168H321.365L322.613 221.84L315.957 205.488H320.309L322.837 212.4L324.597 217.648H324.821L326.581 212.4L329.141 205.488ZM125.554 260.768H130.61V250.72H125.234V247.488H130.61V244.8C130.61 244.139 130.696 243.541 130.866 243.008C131.058 242.453 131.346 241.984 131.73 241.6C132.114 241.195 132.594 240.885 133.17 240.672C133.768 240.437 134.461 240.32 135.25 240.32H140.818V243.552H134.706V247.488H140.818V250.72H134.706V260.768H140.082V264H125.554V260.768ZM151.942 264.384C150.683 264.384 149.552 264.181 148.55 263.776C147.568 263.371 146.726 262.795 146.022 262.048C145.339 261.301 144.806 260.395 144.422 259.328C144.059 258.261 143.878 257.067 143.878 255.744C143.878 254.421 144.059 253.227 144.422 252.16C144.806 251.093 145.339 250.187 146.022 249.44C146.726 248.693 147.568 248.117 148.55 247.712C149.552 247.307 150.683 247.104 151.942 247.104C153.179 247.104 154.299 247.307 155.302 247.712C156.304 248.117 157.147 248.693 157.83 249.44C158.534 250.187 159.067 251.093 159.43 252.16C159.814 253.227 160.006 254.421 160.006 255.744C160.006 257.067 159.814 258.261 159.43 259.328C159.067 260.395 158.534 261.301 157.83 262.048C157.147 262.795 156.304 263.371 155.302 263.776C154.299 264.181 153.179 264.384 151.942 264.384ZM151.942 261.248C153.115 261.248 154.043 260.896 154.726 260.192C155.408 259.467 155.75 258.411 155.75 257.024V254.464C155.75 253.077 155.408 252.032 154.726 251.328C154.043 250.603 153.115 250.24 151.942 250.24C150.768 250.24 149.84 250.603 149.158 251.328C148.475 252.032 148.134 253.077 148.134 254.464V257.024C148.134 258.411 148.475 259.467 149.158 260.192C149.84 260.896 150.768 261.248 151.942 261.248ZM163.929 264V247.488H168.025V250.4H168.185C168.548 249.504 169.103 248.736 169.849 248.096C170.617 247.435 171.673 247.104 173.017 247.104C174.639 247.104 175.951 247.648 176.953 248.736C177.977 249.803 178.489 251.339 178.489 253.344V264H174.393V253.92C174.393 251.531 173.359 250.336 171.289 250.336C170.863 250.336 170.457 250.389 170.073 250.496C169.689 250.603 169.337 250.773 169.017 251.008C168.719 251.221 168.473 251.488 168.281 251.808C168.111 252.128 168.025 252.512 168.025 252.96V264H163.929ZM191.437 264C189.858 264 188.695 263.584 187.949 262.752C187.202 261.92 186.829 260.843 186.829 259.52V250.72H182.029V247.488H185.293C185.954 247.488 186.423 247.36 186.701 247.104C186.978 246.827 187.117 246.347 187.117 245.664V241.664H190.925V247.488H197.645V250.72H190.925V260.768H197.645V264H191.437ZM204.544 256.256V252.256H214.464V256.256H204.544ZM228.628 264.384C226.814 264.384 225.246 264.107 223.924 263.552C222.601 262.976 221.566 262.208 220.82 261.248L223.22 259.072C223.902 259.819 224.681 260.395 225.556 260.8C226.452 261.205 227.486 261.408 228.66 261.408C229.684 261.408 230.505 261.237 231.124 260.896C231.742 260.555 232.052 260.032 232.052 259.328C232.052 258.731 231.838 258.325 231.412 258.112C231.006 257.899 230.462 257.739 229.78 257.632L227.124 257.216C226.441 257.109 225.769 256.96 225.108 256.768C224.468 256.555 223.892 256.267 223.38 255.904C222.889 255.541 222.494 255.083 222.196 254.528C221.897 253.952 221.748 253.259 221.748 252.448C221.748 250.72 222.388 249.397 223.668 248.48C224.969 247.563 226.75 247.104 229.012 247.104C230.612 247.104 231.966 247.328 233.076 247.776C234.206 248.224 235.134 248.853 235.86 249.664L233.716 252.032C233.246 251.52 232.617 251.072 231.828 250.688C231.06 250.283 230.078 250.08 228.884 250.08C226.793 250.08 225.748 250.731 225.748 252.032C225.748 252.629 225.961 253.045 226.388 253.28C226.814 253.493 227.369 253.653 228.052 253.76L230.676 254.176C231.38 254.283 232.052 254.443 232.692 254.656C233.353 254.848 233.929 255.125 234.42 255.488C234.932 255.851 235.337 256.309 235.636 256.864C235.934 257.419 236.084 258.101 236.084 258.912C236.084 260.619 235.422 261.963 234.1 262.944C232.798 263.904 230.974 264.384 228.628 264.384ZM248.903 244.928C247.943 244.928 247.261 244.725 246.855 244.32C246.471 243.915 246.279 243.424 246.279 242.848V242.08C246.279 241.504 246.471 241.013 246.855 240.608C247.261 240.203 247.943 240 248.903 240C249.863 240 250.535 240.203 250.919 240.608C251.325 241.013 251.527 241.504 251.527 242.08V242.848C251.527 243.424 251.325 243.915 250.919 244.32C250.535 244.725 249.863 244.928 248.903 244.928ZM241.415 260.768H246.855V250.72H241.415V247.488H250.951V260.768H256.007V264H241.415V260.768ZM259.771 264V260.512L269.371 250.72H260.091V247.488H274.043V250.976L264.443 260.768H274.363V264H259.771ZM286.638 264.384C285.316 264.384 284.142 264.181 283.118 263.776C282.094 263.371 281.23 262.795 280.526 262.048C279.844 261.301 279.321 260.405 278.958 259.36C278.596 258.293 278.414 257.099 278.414 255.776C278.414 254.432 278.596 253.227 278.958 252.16C279.342 251.093 279.876 250.187 280.558 249.44C281.241 248.693 282.062 248.117 283.022 247.712C284.004 247.307 285.102 247.104 286.318 247.104C287.513 247.104 288.59 247.307 289.55 247.712C290.51 248.096 291.321 248.651 291.982 249.376C292.665 250.101 293.188 250.976 293.55 252C293.913 253.024 294.094 254.155 294.094 255.392V256.736H282.51V257.152C282.51 258.347 282.884 259.317 283.63 260.064C284.377 260.789 285.422 261.152 286.766 261.152C287.79 261.152 288.665 260.949 289.39 260.544C290.137 260.117 290.756 259.563 291.246 258.88L293.582 261.216C292.985 262.091 292.11 262.837 290.958 263.456C289.828 264.075 288.388 264.384 286.638 264.384ZM286.35 250.112C285.198 250.112 284.27 250.475 283.566 251.2C282.862 251.925 282.51 252.885 282.51 254.08V254.304H289.998V254.016C289.998 252.821 289.668 251.872 289.006 251.168C288.366 250.464 287.481 250.112 286.35 250.112Z" fill="#B2D1FF"/>
<path d="M363.644 96.384C362.386 96.384 361.255 96.1813 360.252 95.776C359.25 95.3707 358.396 94.7947 357.692 94.048C357.01 93.3013 356.476 92.3947 356.092 91.328C355.73 90.2613 355.548 89.0667 355.548 87.744C355.548 86.4213 355.73 85.2267 356.092 84.16C356.476 83.0933 357.01 82.1867 357.692 81.44C358.396 80.6933 359.239 80.1173 360.22 79.712C361.223 79.3067 362.354 79.104 363.612 79.104C365.362 79.104 366.77 79.4667 367.836 80.192C368.903 80.9173 369.714 81.8773 370.268 83.072L367.1 84.8C366.802 84.096 366.375 83.5307 365.82 83.104C365.287 82.656 364.551 82.432 363.612 82.432C362.396 82.432 361.458 82.784 360.796 83.488C360.156 84.192 359.836 85.152 359.836 86.368V89.12C359.836 90.3147 360.156 91.2747 360.796 92C361.458 92.704 362.418 93.056 363.676 93.056C364.658 93.056 365.436 92.832 366.012 92.384C366.61 91.936 367.09 91.3387 367.452 90.592L370.524 92.416C369.97 93.5893 369.127 94.5493 367.996 95.296C366.887 96.0213 365.436 96.384 363.644 96.384ZM382.576 96.384C381.253 96.384 380.08 96.1813 379.056 95.776C378.032 95.3707 377.168 94.7947 376.464 94.048C375.781 93.3013 375.258 92.4053 374.896 91.36C374.533 90.2933 374.352 89.0987 374.352 87.776C374.352 86.432 374.533 85.2267 374.896 84.16C375.28 83.0933 375.813 82.1867 376.496 81.44C377.178 80.6933 378 80.1173 378.96 79.712C379.941 79.3067 381.04 79.104 382.256 79.104C383.45 79.104 384.528 79.3067 385.488 79.712C386.448 80.096 387.258 80.6507 387.92 81.376C388.602 82.1013 389.125 82.976 389.488 84C389.85 85.024 390.032 86.1547 390.032 87.392V88.736H378.448V89.152C378.448 90.3467 378.821 91.3173 379.568 92.064C380.314 92.7893 381.36 93.152 382.704 93.152C383.728 93.152 384.602 92.9493 385.328 92.544C386.074 92.1173 386.693 91.5627 387.184 90.88L389.52 93.216C388.922 94.0907 388.048 94.8373 386.896 95.456C385.765 96.0747 384.325 96.384 382.576 96.384ZM382.288 82.112C381.136 82.112 380.208 82.4747 379.504 83.2C378.8 83.9253 378.448 84.8853 378.448 86.08V86.304H385.936V86.016C385.936 84.8213 385.605 83.872 384.944 83.168C384.304 82.464 383.418 82.112 382.288 82.112ZM394.179 96V79.488H398.275V82.4H398.435C398.798 81.504 399.353 80.736 400.099 80.096C400.867 79.4347 401.923 79.104 403.267 79.104C404.889 79.104 406.201 79.648 407.203 80.736C408.227 81.8027 408.739 83.3387 408.739 85.344V96H404.643V85.92C404.643 83.5307 403.609 82.336 401.539 82.336C401.113 82.336 400.707 82.3893 400.323 82.496C399.939 82.6027 399.587 82.7733 399.267 83.008C398.969 83.2213 398.723 83.488 398.531 83.808C398.361 84.128 398.275 84.512 398.275 84.96V96H394.179ZM421.687 96C420.108 96 418.945 95.584 418.199 94.752C417.452 93.92 417.079 92.8427 417.079 91.52V82.72H412.279V79.488H415.543C416.204 79.488 416.673 79.36 416.951 79.104C417.228 78.8267 417.367 78.3467 417.367 77.664V73.664H421.175V79.488H427.895V82.72H421.175V92.768H427.895V96H421.687ZM440.138 96.384C438.816 96.384 437.642 96.1813 436.618 95.776C435.594 95.3707 434.73 94.7947 434.026 94.048C433.344 93.3013 432.821 92.4053 432.458 91.36C432.096 90.2933 431.914 89.0987 431.914 87.776C431.914 86.432 432.096 85.2267 432.458 84.16C432.842 83.0933 433.376 82.1867 434.058 81.44C434.741 80.6933 435.562 80.1173 436.522 79.712C437.504 79.3067 438.602 79.104 439.818 79.104C441.013 79.104 442.09 79.3067 443.05 79.712C444.01 80.096 444.821 80.6507 445.482 81.376C446.165 82.1013 446.688 82.976 447.05 84C447.413 85.024 447.594 86.1547 447.594 87.392V88.736H436.01V89.152C436.01 90.3467 436.384 91.3173 437.13 92.064C437.877 92.7893 438.922 93.152 440.266 93.152C441.29 93.152 442.165 92.9493 442.89 92.544C443.637 92.1173 444.256 91.5627 444.746 90.88L447.082 93.216C446.485 94.0907 445.61 94.8373 444.458 95.456C443.328 96.0747 441.888 96.384 440.138 96.384ZM439.85 82.112C438.698 82.112 437.77 82.4747 437.066 83.2C436.362 83.9253 436.01 84.8853 436.01 86.08V86.304H443.498V86.016C443.498 84.8213 443.168 83.872 442.506 83.168C441.866 82.464 440.981 82.112 439.85 82.112ZM451.742 92.768H455.838V82.72H451.742V79.488H459.934V84H460.19C460.339 83.424 460.542 82.8693 460.798 82.336C461.075 81.7813 461.416 81.3013 461.822 80.896C462.248 80.4693 462.76 80.128 463.358 79.872C463.955 79.616 464.67 79.488 465.502 79.488H467.294V83.328H463.902C462.664 83.328 461.694 83.6907 460.99 84.416C460.286 85.1413 459.934 86.0693 459.934 87.2V92.768H465.662V96H451.742V92.768ZM440.394 138.384C439.136 138.384 438.005 138.181 437.002 137.776C436 137.371 435.146 136.795 434.442 136.048C433.76 135.301 433.226 134.395 432.842 133.328C432.48 132.261 432.298 131.067 432.298 129.744C432.298 128.421 432.48 127.227 432.842 126.16C433.226 125.093 433.76 124.187 434.442 123.44C435.146 122.693 435.989 122.117 436.97 121.712C437.973 121.307 439.104 121.104 440.362 121.104C442.112 121.104 443.52 121.467 444.586 122.192C445.653 122.917 446.464 123.877 447.018 125.072L443.85 126.8C443.552 126.096 443.125 125.531 442.57 125.104C442.037 124.656 441.301 124.432 440.362 124.432C439.146 124.432 438.208 124.784 437.546 125.488C436.906 126.192 436.586 127.152 436.586 128.368V131.12C436.586 132.315 436.906 133.275 437.546 134C438.208 134.704 439.168 135.056 440.426 135.056C441.408 135.056 442.186 134.832 442.762 134.384C443.36 133.936 443.84 133.339 444.202 132.592L447.274 134.416C446.72 135.589 445.877 136.549 444.746 137.296C443.637 138.021 442.186 138.384 440.394 138.384ZM465.022 138C464.019 138 463.24 137.755 462.686 137.264C462.152 136.752 461.832 136.048 461.726 135.152H461.566C461.267 136.176 460.68 136.976 459.806 137.552C458.931 138.107 457.854 138.384 456.574 138.384C454.91 138.384 453.587 137.947 452.606 137.072C451.624 136.197 451.134 134.981 451.134 133.424C451.134 130.096 453.576 128.432 458.462 128.432H461.374V127.344C461.374 126.299 461.118 125.509 460.606 124.976C460.094 124.443 459.262 124.176 458.11 124.176C457.064 124.176 456.222 124.379 455.582 124.784C454.942 125.189 454.398 125.712 453.95 126.352L451.614 124.368C452.126 123.451 452.947 122.683 454.078 122.064C455.23 121.424 456.712 121.104 458.526 121.104C460.702 121.104 462.398 121.616 463.614 122.64C464.851 123.643 465.47 125.147 465.47 127.152V134.928H467.422V138H465.022ZM457.95 135.568C458.931 135.568 459.742 135.344 460.382 134.896C461.043 134.427 461.374 133.797 461.374 133.008V130.8H458.558C456.318 130.8 455.198 131.504 455.198 132.912V133.552C455.198 134.213 455.443 134.715 455.934 135.056C456.424 135.397 457.096 135.568 457.95 135.568ZM470.737 121.488H474.833V124.4H475.057C475.505 123.397 476.113 122.597 476.881 122C477.671 121.403 478.705 121.104 479.985 121.104C480.924 121.104 481.777 121.285 482.545 121.648C483.335 121.989 484.007 122.523 484.561 123.248C485.116 123.952 485.543 124.848 485.841 125.936C486.14 127.024 486.289 128.293 486.289 129.744C486.289 131.195 486.14 132.464 485.841 133.552C485.543 134.64 485.116 135.547 484.561 136.272C484.007 136.976 483.335 137.509 482.545 137.872C481.777 138.213 480.924 138.384 479.985 138.384C478.705 138.384 477.671 138.085 476.881 137.488C476.113 136.891 475.505 136.091 475.057 135.088H474.833V144.4H470.737V121.488ZM478.257 135.12C479.452 135.12 480.369 134.757 481.009 134.032C481.671 133.307 482.001 132.315 482.001 131.056V128.432C482.001 127.173 481.671 126.181 481.009 125.456C480.369 124.731 479.452 124.368 478.257 124.368C477.319 124.368 476.508 124.603 475.825 125.072C475.164 125.52 474.833 126.213 474.833 127.152V132.336C474.833 133.275 475.164 133.979 475.825 134.448C476.508 134.896 477.319 135.12 478.257 135.12ZM498.341 118.928C497.381 118.928 496.698 118.725 496.293 118.32C495.909 117.915 495.717 117.424 495.717 116.848V116.08C495.717 115.504 495.909 115.013 496.293 114.608C496.698 114.203 497.381 114 498.341 114C499.301 114 499.973 114.203 500.357 114.608C500.762 115.013 500.965 115.504 500.965 116.08V116.848C500.965 117.424 500.762 117.915 500.357 118.32C499.973 118.725 499.301 118.928 498.341 118.928ZM490.853 134.768H496.293V124.72H490.853V121.488H500.389V134.768H505.445V138H490.853V134.768ZM517.624 138C516.046 138 514.883 137.584 514.136 136.752C513.39 135.92 513.016 134.843 513.016 133.52V124.72H508.216V121.488H511.48C512.142 121.488 512.611 121.36 512.888 121.104C513.166 120.827 513.304 120.347 513.304 119.664V115.664H517.112V121.488H523.832V124.72H517.112V134.768H523.832V138H517.624ZM541.772 138C540.769 138 539.99 137.755 539.436 137.264C538.902 136.752 538.582 136.048 538.476 135.152H538.316C538.017 136.176 537.43 136.976 536.556 137.552C535.681 138.107 534.604 138.384 533.324 138.384C531.66 138.384 530.337 137.947 529.356 137.072C528.374 136.197 527.884 134.981 527.884 133.424C527.884 130.096 530.326 128.432 535.212 128.432H538.124V127.344C538.124 126.299 537.868 125.509 537.356 124.976C536.844 124.443 536.012 124.176 534.86 124.176C533.814 124.176 532.972 124.379 532.332 124.784C531.692 125.189 531.148 125.712 530.7 126.352L528.364 124.368C528.876 123.451 529.697 122.683 530.828 122.064C531.98 121.424 533.462 121.104 535.276 121.104C537.452 121.104 539.148 121.616 540.364 122.64C541.601 123.643 542.22 125.147 542.22 127.152V134.928H544.172V138H541.772ZM534.7 135.568C535.681 135.568 536.492 135.344 537.132 134.896C537.793 134.427 538.124 133.797 538.124 133.008V130.8H535.308C533.068 130.8 531.948 131.504 531.948 132.912V133.552C531.948 134.213 532.193 134.715 532.684 135.056C533.174 135.397 533.846 135.568 534.7 135.568ZM547.583 134.768H552.831V117.552H547.583V114.32H556.927V134.768H562.207V138H547.583V134.768ZM575.091 118.928C574.131 118.928 573.448 118.725 573.043 118.32C572.659 117.915 572.467 117.424 572.467 116.848V116.08C572.467 115.504 572.659 115.013 573.043 114.608C573.448 114.203 574.131 114 575.091 114C576.051 114 576.723 114.203 577.107 114.608C577.512 115.013 577.715 115.504 577.715 116.08V116.848C577.715 117.424 577.512 117.915 577.107 118.32C576.723 118.725 576.051 118.928 575.091 118.928ZM567.603 134.768H573.043V124.72H567.603V121.488H577.139V134.768H582.195V138H567.603V134.768ZM585.958 138V134.512L595.558 124.72H586.278V121.488H600.23V124.976L590.63 134.768H600.55V138H585.958ZM612.826 138.384C611.503 138.384 610.33 138.181 609.306 137.776C608.282 137.371 607.418 136.795 606.714 136.048C606.031 135.301 605.508 134.405 605.146 133.36C604.783 132.293 604.602 131.099 604.602 129.776C604.602 128.432 604.783 127.227 605.146 126.16C605.53 125.093 606.063 124.187 606.746 123.44C607.428 122.693 608.25 122.117 609.21 121.712C610.191 121.307 611.29 121.104 612.506 121.104C613.7 121.104 614.778 121.307 615.738 121.712C616.698 122.096 617.508 122.651 618.17 123.376C618.852 124.101 619.375 124.976 619.738 126C620.1 127.024 620.282 128.155 620.282 129.392V130.736H608.698V131.152C608.698 132.347 609.071 133.317 609.818 134.064C610.564 134.789 611.61 135.152 612.954 135.152C613.978 135.152 614.852 134.949 615.578 134.544C616.324 134.117 616.943 133.563 617.434 132.88L619.77 135.216C619.172 136.091 618.298 136.837 617.146 137.456C616.015 138.075 614.575 138.384 612.826 138.384ZM612.538 124.112C611.386 124.112 610.458 124.475 609.754 125.2C609.05 125.925 608.698 126.885 608.698 128.08V128.304H616.186V128.016C616.186 126.821 615.855 125.872 615.194 125.168C614.554 124.464 613.668 124.112 612.538 124.112ZM462.046 177.088H461.886C461.523 177.984 460.958 178.763 460.19 179.424C459.443 180.064 458.398 180.384 457.054 180.384C455.432 180.384 454.11 179.851 453.086 178.784C452.083 177.696 451.582 176.149 451.582 174.144V163.488H455.678V173.568C455.678 175.957 456.712 177.152 458.782 177.152C459.187 177.152 459.582 177.099 459.966 176.992C460.371 176.885 460.723 176.725 461.022 176.512C461.342 176.277 461.587 176 461.758 175.68C461.95 175.36 462.046 174.976 462.046 174.528V163.488H466.142V180H462.046V177.088ZM470.929 180V163.488H475.025V166.4H475.185C475.548 165.504 476.103 164.736 476.849 164.096C477.617 163.435 478.673 163.104 480.017 163.104C481.639 163.104 482.951 163.648 483.953 164.736C484.977 165.803 485.489 167.339 485.489 169.344V180H481.393V169.92C481.393 167.531 480.359 166.336 478.289 166.336C477.863 166.336 477.457 166.389 477.073 166.496C476.689 166.603 476.337 166.773 476.017 167.008C475.719 167.221 475.473 167.488 475.281 167.808C475.111 168.128 475.025 168.512 475.025 168.96V180H470.929ZM500.613 177.088H500.389C499.941 178.091 499.322 178.891 498.533 179.488C497.765 180.085 496.741 180.384 495.461 180.384C494.522 180.384 493.658 180.213 492.869 179.872C492.101 179.509 491.439 178.976 490.885 178.272C490.33 177.547 489.903 176.64 489.605 175.552C489.306 174.464 489.157 173.195 489.157 171.744C489.157 168.843 489.733 166.677 490.885 165.248C492.037 163.819 493.562 163.104 495.461 163.104C496.741 163.104 497.765 163.403 498.533 164C499.322 164.597 499.941 165.397 500.389 166.4H500.613V156.32H504.709V180H500.613V177.088ZM497.189 177.12C497.658 177.12 498.095 177.067 498.501 176.96C498.927 176.832 499.29 176.661 499.589 176.448C499.909 176.213 500.154 175.925 500.325 175.584C500.517 175.221 500.613 174.805 500.613 174.336V169.152C500.613 168.683 500.517 168.277 500.325 167.936C500.154 167.573 499.909 167.285 499.589 167.072C499.29 166.837 498.927 166.667 498.501 166.56C498.095 166.432 497.658 166.368 497.189 166.368C495.994 166.368 495.066 166.731 494.405 167.456C493.765 168.181 493.445 169.173 493.445 170.432V173.056C493.445 174.315 493.765 175.307 494.405 176.032C495.066 176.757 495.994 177.12 497.189 177.12ZM516.888 180.384C515.566 180.384 514.392 180.181 513.368 179.776C512.344 179.371 511.48 178.795 510.776 178.048C510.094 177.301 509.571 176.405 509.208 175.36C508.846 174.293 508.664 173.099 508.664 171.776C508.664 170.432 508.846 169.227 509.208 168.16C509.592 167.093 510.126 166.187 510.808 165.44C511.491 164.693 512.312 164.117 513.272 163.712C514.254 163.307 515.352 163.104 516.568 163.104C517.763 163.104 518.84 163.307 519.8 163.712C520.76 164.096 521.571 164.651 522.232 165.376C522.915 166.101 523.438 166.976 523.8 168C524.163 169.024 524.344 170.155 524.344 171.392V172.736H512.76V173.152C512.76 174.347 513.134 175.317 513.88 176.064C514.627 176.789 515.672 177.152 517.016 177.152C518.04 177.152 518.915 176.949 519.64 176.544C520.387 176.117 521.006 175.563 521.496 174.88L523.832 177.216C523.235 178.091 522.36 178.837 521.208 179.456C520.078 180.075 518.638 180.384 516.888 180.384ZM516.6 166.112C515.448 166.112 514.52 166.475 513.816 167.2C513.112 167.925 512.76 168.885 512.76 170.08V170.304H520.248V170.016C520.248 168.821 519.918 167.872 519.256 167.168C518.616 166.464 517.731 166.112 516.6 166.112ZM528.492 176.768H532.588V166.72H528.492V163.488H536.684V168H536.94C537.089 167.424 537.292 166.869 537.548 166.336C537.825 165.781 538.166 165.301 538.572 164.896C538.998 164.469 539.51 164.128 540.108 163.872C540.705 163.616 541.42 163.488 542.252 163.488H544.044V167.328H540.652C539.414 167.328 538.444 167.691 537.74 168.416C537.036 169.141 536.684 170.069 536.684 171.2V176.768H542.412V180H528.492V176.768ZM547.583 176.768H552.831V159.552H547.583V156.32H556.927V176.768H562.207V180H547.583V176.768ZM575.091 160.928C574.131 160.928 573.448 160.725 573.043 160.32C572.659 159.915 572.467 159.424 572.467 158.848V158.08C572.467 157.504 572.659 157.013 573.043 156.608C573.448 156.203 574.131 156 575.091 156C576.051 156 576.723 156.203 577.107 156.608C577.512 157.013 577.715 157.504 577.715 158.08V158.848C577.715 159.424 577.512 159.915 577.107 160.32C576.723 160.725 576.051 160.928 575.091 160.928ZM567.603 176.768H573.043V166.72H567.603V163.488H577.139V176.768H582.195V180H567.603V176.768ZM586.054 180V163.488H590.15V166.4H590.31C590.673 165.504 591.228 164.736 591.974 164.096C592.742 163.435 593.798 163.104 595.142 163.104C596.764 163.104 598.076 163.648 599.078 164.736C600.102 165.803 600.614 167.339 600.614 169.344V180H596.518V169.92C596.518 167.531 595.484 166.336 593.414 166.336C592.988 166.336 592.582 166.389 592.198 166.496C591.814 166.603 591.462 166.773 591.142 167.008C590.844 167.221 590.598 167.488 590.406 167.808C590.236 168.128 590.15 168.512 590.15 168.96V180H586.054ZM612.826 180.384C611.503 180.384 610.33 180.181 609.306 179.776C608.282 179.371 607.418 178.795 606.714 178.048C606.031 177.301 605.508 176.405 605.146 175.36C604.783 174.293 604.602 173.099 604.602 171.776C604.602 170.432 604.783 169.227 605.146 168.16C605.53 167.093 606.063 166.187 606.746 165.44C607.428 164.693 608.25 164.117 609.21 163.712C610.191 163.307 611.29 163.104 612.506 163.104C613.7 163.104 614.778 163.307 615.738 163.712C616.698 164.096 617.508 164.651 618.17 165.376C618.852 166.101 619.375 166.976 619.738 168C620.1 169.024 620.282 170.155 620.282 171.392V172.736H608.698V173.152C608.698 174.347 609.071 175.317 609.818 176.064C610.564 176.789 611.61 177.152 612.954 177.152C613.978 177.152 614.852 176.949 615.578 176.544C616.324 176.117 616.943 175.563 617.434 174.88L619.77 177.216C619.172 178.091 618.298 178.837 617.146 179.456C616.015 180.075 614.575 180.384 612.826 180.384ZM612.538 166.112C611.386 166.112 610.458 166.475 609.754 167.2C609.05 167.925 608.698 168.885 608.698 170.08V170.304H616.186V170.016C616.186 168.821 615.855 167.872 615.194 167.168C614.554 166.464 613.668 166.112 612.538 166.112ZM377.008 208.304V198.32H380.72V208.304H377.008ZM383.696 208.304V198.32H387.408V208.304H383.696ZM405.795 211.664L405.987 205.2H405.699L401.379 216.688L397.059 205.2H396.771L396.963 211.664V222H393.315V199.664H398.307L401.411 207.888H401.635L404.771 199.664H409.443V222H405.795V211.664ZM426.647 222C425.644 222 424.865 221.755 424.311 221.264C423.777 220.752 423.457 220.048 423.351 219.152H423.191C422.892 220.176 422.305 220.976 421.431 221.552C420.556 222.107 419.479 222.384 418.199 222.384C416.535 222.384 415.212 221.947 414.231 221.072C413.249 220.197 412.759 218.981 412.759 217.424C412.759 214.096 415.201 212.432 420.087 212.432H422.999V211.344C422.999 210.299 422.743 209.509 422.231 208.976C421.719 208.443 420.887 208.176 419.735 208.176C418.689 208.176 417.847 208.379 417.207 208.784C416.567 209.189 416.023 209.712 415.575 210.352L413.239 208.368C413.751 207.451 414.572 206.683 415.703 206.064C416.855 205.424 418.337 205.104 420.151 205.104C422.327 205.104 424.023 205.616 425.239 206.64C426.476 207.643 427.095 209.147 427.095 211.152V218.928H429.047V222H426.647ZM419.575 219.568C420.556 219.568 421.367 219.344 422.007 218.896C422.668 218.427 422.999 217.797 422.999 217.008V214.8H420.183C417.943 214.8 416.823 215.504 416.823 216.912V217.552C416.823 218.213 417.068 218.715 417.559 219.056C418.049 219.397 418.721 219.568 419.575 219.568ZM420.695 203.6L418.231 202.416L421.271 196.432L424.727 198.16L420.695 203.6ZM448.586 223.728C448.586 225.456 447.861 226.725 446.41 227.536C444.981 228.368 442.741 228.784 439.69 228.784C438.197 228.784 436.949 228.688 435.946 228.496C434.944 228.325 434.133 228.069 433.514 227.728C432.917 227.387 432.49 226.971 432.234 226.48C431.978 226.011 431.85 225.477 431.85 224.88C431.85 223.963 432.117 223.259 432.65 222.768C433.184 222.277 433.93 221.915 434.89 221.68V221.424C434.25 221.211 433.738 220.912 433.354 220.528C432.992 220.144 432.81 219.611 432.81 218.928C432.81 218.117 433.077 217.509 433.61 217.104C434.165 216.699 434.89 216.389 435.786 216.176V216.016C434.805 215.547 434.037 214.885 433.482 214.032C432.928 213.179 432.65 212.144 432.65 210.928C432.65 210.011 432.81 209.2 433.13 208.496C433.472 207.771 433.941 207.163 434.538 206.672C435.157 206.16 435.893 205.776 436.746 205.52C437.6 205.243 438.549 205.104 439.594 205.104C440.704 205.104 441.706 205.253 442.602 205.552V204.848C442.602 204.208 442.805 203.675 443.21 203.248C443.637 202.821 444.224 202.608 444.97 202.608H447.946V205.68H444.042V206.224C444.853 206.715 445.472 207.355 445.898 208.144C446.346 208.912 446.57 209.84 446.57 210.928C446.57 211.845 446.4 212.667 446.058 213.392C445.738 214.117 445.269 214.725 444.65 215.216C444.053 215.707 443.317 216.091 442.442 216.368C441.589 216.624 440.64 216.752 439.594 216.752C439.168 216.752 438.752 216.741 438.346 216.72C437.962 216.677 437.589 216.603 437.226 216.496C436.928 216.603 436.64 216.773 436.362 217.008C436.085 217.243 435.946 217.552 435.946 217.936C435.946 218.448 436.192 218.768 436.682 218.896C437.173 219.003 437.76 219.056 438.442 219.056H442.186C443.338 219.056 444.32 219.173 445.13 219.408C445.941 219.621 446.602 219.941 447.114 220.368C447.626 220.773 448 221.264 448.234 221.84C448.469 222.416 448.586 223.045 448.586 223.728ZM444.746 224.016C444.746 223.525 444.544 223.131 444.138 222.832C443.754 222.555 443.029 222.416 441.962 222.416H436.266C435.626 222.779 435.306 223.312 435.306 224.016C435.306 224.592 435.541 225.072 436.01 225.456C436.501 225.84 437.322 226.032 438.474 226.032H441.13C443.541 226.032 444.746 225.36 444.746 224.016ZM439.594 214.064C440.64 214.064 441.408 213.819 441.898 213.328C442.389 212.816 442.634 212.155 442.634 211.344V210.512C442.634 209.701 442.389 209.051 441.898 208.56C441.408 208.048 440.64 207.792 439.594 207.792C438.57 207.792 437.813 208.048 437.322 208.56C436.832 209.051 436.586 209.701 436.586 210.512V211.344C436.586 212.155 436.832 212.816 437.322 213.328C437.813 213.819 438.57 214.064 439.594 214.064ZM459.966 202.928C459.006 202.928 458.323 202.725 457.918 202.32C457.534 201.915 457.342 201.424 457.342 200.848V200.08C457.342 199.504 457.534 199.013 457.918 198.608C458.323 198.203 459.006 198 459.966 198C460.926 198 461.598 198.203 461.982 198.608C462.387 199.013 462.59 199.504 462.59 200.08V200.848C462.59 201.424 462.387 201.915 461.982 202.32C461.598 202.725 460.926 202.928 459.966 202.928ZM452.478 218.768H457.918V208.72H452.478V205.488H462.014V218.768H467.07V222H452.478V218.768ZM478.769 222.384C477.511 222.384 476.38 222.181 475.377 221.776C474.375 221.371 473.521 220.795 472.817 220.048C472.135 219.301 471.601 218.395 471.217 217.328C470.855 216.261 470.673 215.067 470.673 213.744C470.673 212.421 470.855 211.227 471.217 210.16C471.601 209.093 472.135 208.187 472.817 207.44C473.521 206.693 474.364 206.117 475.345 205.712C476.348 205.307 477.479 205.104 478.737 205.104C480.487 205.104 481.895 205.467 482.961 206.192C484.028 206.917 484.839 207.877 485.393 209.072L482.225 210.8C481.927 210.096 481.5 209.531 480.945 209.104C480.412 208.656 479.676 208.432 478.737 208.432C477.521 208.432 476.583 208.784 475.921 209.488C475.281 210.192 474.961 211.152 474.961 212.368V215.12C474.961 216.315 475.281 217.275 475.921 218C476.583 218.704 477.543 219.056 478.801 219.056C479.783 219.056 480.561 218.832 481.137 218.384C481.735 217.936 482.215 217.339 482.577 216.592L485.649 218.416C485.095 219.589 484.252 220.549 483.121 221.296C482.012 222.021 480.561 222.384 478.769 222.384ZM503.397 222C502.394 222 501.615 221.755 501.061 221.264C500.527 220.752 500.207 220.048 500.101 219.152H499.941C499.642 220.176 499.055 220.976 498.181 221.552C497.306 222.107 496.229 222.384 494.949 222.384C493.285 222.384 491.962 221.947 490.981 221.072C489.999 220.197 489.509 218.981 489.509 217.424C489.509 214.096 491.951 212.432 496.837 212.432H499.749V211.344C499.749 210.299 499.493 209.509 498.981 208.976C498.469 208.443 497.637 208.176 496.485 208.176C495.439 208.176 494.597 208.379 493.957 208.784C493.317 209.189 492.773 209.712 492.325 210.352L489.989 208.368C490.501 207.451 491.322 206.683 492.453 206.064C493.605 205.424 495.087 205.104 496.901 205.104C499.077 205.104 500.773 205.616 501.989 206.64C503.226 207.643 503.845 209.147 503.845 211.152V218.928H505.797V222H503.397ZM496.325 219.568C497.306 219.568 498.117 219.344 498.757 218.896C499.418 218.427 499.749 217.797 499.749 217.008V214.8H496.933C494.693 214.8 493.573 215.504 493.573 216.912V217.552C493.573 218.213 493.818 218.715 494.309 219.056C494.799 219.397 495.471 219.568 496.325 219.568ZM514.456 216.784H519.96L515.768 226.736H512.664L514.456 216.784ZM554.815 222.384C553.002 222.384 551.434 222.107 550.111 221.552C548.789 220.976 547.754 220.208 547.007 219.248L549.407 217.072C550.09 217.819 550.869 218.395 551.743 218.8C552.639 219.205 553.674 219.408 554.847 219.408C555.871 219.408 556.693 219.237 557.311 218.896C557.93 218.555 558.239 218.032 558.239 217.328C558.239 216.731 558.026 216.325 557.599 216.112C557.194 215.899 556.65 215.739 555.967 215.632L553.311 215.216C552.629 215.109 551.957 214.96 551.295 214.768C550.655 214.555 550.079 214.267 549.567 213.904C549.077 213.541 548.682 213.083 548.383 212.528C548.085 211.952 547.935 211.259 547.935 210.448C547.935 208.72 548.575 207.397 549.855 206.48C551.157 205.563 552.938 205.104 555.199 205.104C556.799 205.104 558.154 205.328 559.263 205.776C560.394 206.224 561.322 206.853 562.047 207.664L559.903 210.032C559.434 209.52 558.805 209.072 558.015 208.688C557.247 208.283 556.266 208.08 555.071 208.08C552.981 208.08 551.935 208.731 551.935 210.032C551.935 210.629 552.149 211.045 552.575 211.28C553.002 211.493 553.557 211.653 554.239 211.76L556.863 212.176C557.567 212.283 558.239 212.443 558.879 212.656C559.541 212.848 560.117 213.125 560.607 213.488C561.119 213.851 561.525 214.309 561.823 214.864C562.122 215.419 562.271 216.101 562.271 216.912C562.271 218.619 561.61 219.963 560.287 220.944C558.986 221.904 557.162 222.384 554.815 222.384ZM580.147 222C579.144 222 578.365 221.755 577.811 221.264C577.277 220.752 576.957 220.048 576.851 219.152H576.691C576.392 220.176 575.805 220.976 574.931 221.552C574.056 222.107 572.979 222.384 571.699 222.384C570.035 222.384 568.712 221.947 567.731 221.072C566.749 220.197 566.259 218.981 566.259 217.424C566.259 214.096 568.701 212.432 573.587 212.432H576.499V211.344C576.499 210.299 576.243 209.509 575.731 208.976C575.219 208.443 574.387 208.176 573.235 208.176C572.189 208.176 571.347 208.379 570.707 208.784C570.067 209.189 569.523 209.712 569.075 210.352L566.739 208.368C567.251 207.451 568.072 206.683 569.203 206.064C570.355 205.424 571.837 205.104 573.651 205.104C575.827 205.104 577.523 205.616 578.739 206.64C579.976 207.643 580.595 209.147 580.595 211.152V218.928H582.547V222H580.147ZM573.075 219.568C574.056 219.568 574.867 219.344 575.507 218.896C576.168 218.427 576.499 217.797 576.499 217.008V214.8H573.683C571.443 214.8 570.323 215.504 570.323 216.912V217.552C570.323 218.213 570.568 218.715 571.059 219.056C571.549 219.397 572.221 219.568 573.075 219.568ZM586.054 222V205.488H590.15V208.4H590.31C590.673 207.504 591.228 206.736 591.974 206.096C592.742 205.435 593.798 205.104 595.142 205.104C596.764 205.104 598.076 205.648 599.078 206.736C600.102 207.803 600.614 209.339 600.614 211.344V222H596.518V211.92C596.518 209.531 595.484 208.336 593.414 208.336C592.988 208.336 592.582 208.389 592.198 208.496C591.814 208.603 591.462 208.773 591.142 209.008C590.844 209.221 590.598 209.488 590.406 209.808C590.236 210.128 590.15 210.512 590.15 210.96V222H586.054ZM612.378 222.384C610.564 222.384 608.996 222.107 607.674 221.552C606.351 220.976 605.316 220.208 604.57 219.248L606.97 217.072C607.652 217.819 608.431 218.395 609.306 218.8C610.202 219.205 611.236 219.408 612.41 219.408C613.434 219.408 614.255 219.237 614.874 218.896C615.492 218.555 615.802 218.032 615.802 217.328C615.802 216.731 615.588 216.325 615.162 216.112C614.756 215.899 614.212 215.739 613.53 215.632L610.874 215.216C610.191 215.109 609.519 214.96 608.858 214.768C608.218 214.555 607.642 214.267 607.13 213.904C606.639 213.541 606.244 213.083 605.946 212.528C605.647 211.952 605.498 211.259 605.498 210.448C605.498 208.72 606.138 207.397 607.418 206.48C608.719 205.563 610.5 205.104 612.762 205.104C614.362 205.104 615.716 205.328 616.826 205.776C617.956 206.224 618.884 206.853 619.61 207.664L617.466 210.032C616.996 209.52 616.367 209.072 615.578 208.688C614.81 208.283 613.828 208.08 612.634 208.08C610.543 208.08 609.498 208.731 609.498 210.032C609.498 210.629 609.711 211.045 610.138 211.28C610.564 211.493 611.119 211.653 611.802 211.76L614.426 212.176C615.13 212.283 615.802 212.443 616.442 212.656C617.103 212.848 617.679 213.125 618.17 213.488C618.682 213.851 619.087 214.309 619.386 214.864C619.684 215.419 619.834 216.101 619.834 216.912C619.834 218.619 619.172 219.963 617.85 220.944C616.548 221.904 614.724 222.384 612.378 222.384ZM626.669 214.256V210.256H636.589V214.256H626.669ZM650.753 222.384C648.939 222.384 647.371 222.107 646.049 221.552C644.726 220.976 643.691 220.208 642.945 219.248L645.345 217.072C646.027 217.819 646.806 218.395 647.681 218.8C648.577 219.205 649.611 219.408 650.785 219.408C651.809 219.408 652.63 219.237 653.249 218.896C653.867 218.555 654.177 218.032 654.177 217.328C654.177 216.731 653.963 216.325 653.537 216.112C653.131 215.899 652.587 215.739 651.905 215.632L649.249 215.216C648.566 215.109 647.894 214.96 647.233 214.768C646.593 214.555 646.017 214.267 645.505 213.904C645.014 213.541 644.619 213.083 644.321 212.528C644.022 211.952 643.873 211.259 643.873 210.448C643.873 208.72 644.513 207.397 645.793 206.48C647.094 205.563 648.875 205.104 651.137 205.104C652.737 205.104 654.091 205.328 655.201 205.776C656.331 206.224 657.259 206.853 657.985 207.664L655.841 210.032C655.371 209.52 654.742 209.072 653.953 208.688C653.185 208.283 652.203 208.08 651.009 208.08C648.918 208.08 647.873 208.731 647.873 210.032C647.873 210.629 648.086 211.045 648.513 211.28C648.939 211.493 649.494 211.653 650.177 211.76L652.801 212.176C653.505 212.283 654.177 212.443 654.817 212.656C655.478 212.848 656.054 213.125 656.545 213.488C657.057 213.851 657.462 214.309 657.761 214.864C658.059 215.419 658.209 216.101 658.209 216.912C658.209 218.619 657.547 219.963 656.225 220.944C654.923 221.904 653.099 222.384 650.753 222.384ZM670.388 222.384C669.066 222.384 667.892 222.181 666.868 221.776C665.844 221.371 664.98 220.795 664.276 220.048C663.594 219.301 663.071 218.405 662.708 217.36C662.346 216.293 662.164 215.099 662.164 213.776C662.164 212.432 662.346 211.227 662.708 210.16C663.092 209.093 663.626 208.187 664.308 207.44C664.991 206.693 665.812 206.117 666.772 205.712C667.754 205.307 668.852 205.104 670.068 205.104C671.263 205.104 672.34 205.307 673.3 205.712C674.26 206.096 675.071 206.651 675.732 207.376C676.415 208.101 676.938 208.976 677.3 210C677.663 211.024 677.844 212.155 677.844 213.392V214.736H666.26V215.152C666.26 216.347 666.634 217.317 667.38 218.064C668.127 218.789 669.172 219.152 670.516 219.152C671.54 219.152 672.415 218.949 673.14 218.544C673.887 218.117 674.506 217.563 674.996 216.88L677.332 219.216C676.735 220.091 675.86 220.837 674.708 221.456C673.578 222.075 672.138 222.384 670.388 222.384ZM670.1 208.112C668.948 208.112 668.02 208.475 667.316 209.2C666.612 209.925 666.26 210.885 666.26 212.08V212.304H673.748V212.016C673.748 210.821 673.418 209.872 672.756 209.168C672.116 208.464 671.231 208.112 670.1 208.112ZM681.992 218.768H686.088V208.72H681.992V205.488H690.184V210H690.44C690.589 209.424 690.792 208.869 691.048 208.336C691.325 207.781 691.666 207.301 692.072 206.896C692.498 206.469 693.01 206.128 693.608 205.872C694.205 205.616 694.92 205.488 695.752 205.488H697.544V209.328H694.152C692.914 209.328 691.944 209.691 691.24 210.416C690.536 211.141 690.184 212.069 690.184 213.2V218.768H695.912V222H681.992V218.768ZM709.403 202.928C708.443 202.928 707.761 202.725 707.355 202.32C706.971 201.915 706.779 201.424 706.779 200.848V200.08C706.779 199.504 706.971 199.013 707.355 198.608C707.761 198.203 708.443 198 709.403 198C710.363 198 711.035 198.203 711.419 198.608C711.825 199.013 712.027 199.504 712.027 200.08V200.848C712.027 201.424 711.825 201.915 711.419 202.32C711.035 202.725 710.363 202.928 709.403 202.928ZM701.915 218.768H707.355V208.72H701.915V205.488H711.451V218.768H716.507V222H701.915V218.768ZM720.367 218.768H725.423V208.72H720.047V205.488H725.423V202.8C725.423 202.139 725.508 201.541 725.679 201.008C725.871 200.453 726.159 199.984 726.543 199.6C726.927 199.195 727.407 198.885 727.983 198.672C728.58 198.437 729.273 198.32 730.063 198.32H735.631V201.552H729.519V205.488H735.631V208.72H729.519V218.768H734.895V222H720.367V218.768ZM741.57 208.304V198.32H745.282V208.304H741.57ZM748.258 208.304V198.32H751.97V208.304H748.258ZM351.817 264H336.073V260.096L343.241 253.984C344.435 252.96 345.321 252.032 345.897 251.2C346.473 250.347 346.761 249.44 346.761 248.48V248.16C346.761 247.093 346.462 246.283 345.865 245.728C345.267 245.173 344.435 244.896 343.369 244.896C342.195 244.896 341.299 245.216 340.681 245.856C340.062 246.496 339.614 247.285 339.337 248.224L335.689 246.848C335.923 246.123 336.254 245.429 336.681 244.768C337.129 244.085 337.673 243.488 338.313 242.976C338.974 242.464 339.753 242.059 340.649 241.76C341.545 241.44 342.569 241.28 343.721 241.28C344.915 241.28 345.971 241.451 346.889 241.792C347.827 242.112 348.617 242.571 349.257 243.168C349.897 243.744 350.377 244.437 350.697 245.248C351.038 246.059 351.209 246.944 351.209 247.904C351.209 248.821 351.059 249.664 350.761 250.432C350.483 251.2 350.089 251.936 349.577 252.64C349.065 253.323 348.457 253.984 347.753 254.624C347.07 255.264 346.323 255.904 345.513 256.544L340.649 260.48H351.817V264ZM363.004 264.384C361.554 264.384 360.295 264.128 359.228 263.616C358.162 263.083 357.276 262.325 356.572 261.344C355.89 260.363 355.378 259.157 355.036 257.728C354.716 256.299 354.556 254.667 354.556 252.832C354.556 251.019 354.716 249.397 355.036 247.968C355.378 246.517 355.89 245.301 356.572 244.32C357.276 243.339 358.162 242.592 359.228 242.08C360.295 241.547 361.554 241.28 363.004 241.28C365.906 241.28 368.039 242.293 369.404 244.32C370.77 246.347 371.452 249.184 371.452 252.832C371.452 256.48 370.77 259.317 369.404 261.344C368.039 263.371 365.906 264.384 363.004 264.384ZM363.004 261.024C364.54 261.024 365.618 260.48 366.236 259.392C366.876 258.283 367.196 256.757 367.196 254.816V250.848C367.196 248.907 366.876 247.392 366.236 246.304C365.618 245.195 364.54 244.64 363.004 244.64C361.468 244.64 360.38 245.195 359.74 246.304C359.122 247.392 358.812 248.907 358.812 250.848V254.816C358.812 256.757 359.122 258.283 359.74 259.392C360.38 260.48 361.468 261.024 363.004 261.024ZM363.004 254.72C362.258 254.72 361.735 254.571 361.436 254.272C361.159 253.973 361.02 253.611 361.02 253.184V252.48C361.02 252.053 361.159 251.691 361.436 251.392C361.735 251.093 362.258 250.944 363.004 250.944C363.751 250.944 364.263 251.093 364.54 251.392C364.839 251.691 364.988 252.053 364.988 252.48V253.184C364.988 253.611 364.839 253.973 364.54 254.272C364.263 254.571 363.751 254.72 363.004 254.72ZM374.8 247.488H378.896V250.4H379.12C379.568 249.397 380.176 248.597 380.944 248C381.733 247.403 382.768 247.104 384.048 247.104C384.986 247.104 385.84 247.285 386.608 247.648C387.397 247.989 388.069 248.523 388.624 249.248C389.178 249.952 389.605 250.848 389.904 251.936C390.202 253.024 390.352 254.293 390.352 255.744C390.352 257.195 390.202 258.464 389.904 259.552C389.605 260.64 389.178 261.547 388.624 262.272C388.069 262.976 387.397 263.509 386.608 263.872C385.84 264.213 384.986 264.384 384.048 264.384C382.768 264.384 381.733 264.085 380.944 263.488C380.176 262.891 379.568 262.091 379.12 261.088H378.896V270.4H374.8V247.488ZM382.32 261.12C383.514 261.12 384.432 260.757 385.072 260.032C385.733 259.307 386.064 258.315 386.064 257.056V254.432C386.064 253.173 385.733 252.181 385.072 251.456C384.432 250.731 383.514 250.368 382.32 250.368C381.381 250.368 380.57 250.603 379.888 251.072C379.226 251.52 378.896 252.213 378.896 253.152V258.336C378.896 259.275 379.226 259.979 379.888 260.448C380.57 260.896 381.381 261.12 382.32 261.12ZM392.867 264L399.043 255.616L393.219 247.488H397.923L399.907 250.4L401.443 252.704H401.667L403.203 250.4L405.187 247.488H409.539L403.715 255.424L409.891 264H405.155L402.883 260.672L401.315 258.336H401.091L399.523 260.672L397.251 264H392.867Z" fill="#F5A476"/>
<path d="M35.3598 46.4084V43.8404H39.9678V31.9364H39.7518L36.1038 36.2564L34.1358 34.6004L38.2878 29.6564H43.1118V43.8404H46.9038V46.4084H35.3598Z" fill="white"/>
<path d="M46.3758 87.8873H34.5678V84.9593L39.9438 80.3753C40.8398 79.6073 41.5038 78.9113 41.9358 78.2873C42.3678 77.6473 42.5838 76.9673 42.5838 76.2473V76.0073C42.5838 75.2073 42.3598 74.5993 41.9118 74.1833C41.4638 73.7673 40.8398 73.5593 40.0398 73.5593C39.1598 73.5593 38.4878 73.7993 38.0238 74.2793C37.5598 74.7593 37.2238 75.3513 37.0158 76.0553L34.2798 75.0233C34.4558 74.4793 34.7038 73.9593 35.0238 73.4633C35.3598 72.9513 35.7678 72.5033 36.2478 72.1193C36.7438 71.7353 37.3278 71.4313 37.9998 71.2073C38.6718 70.9673 39.4398 70.8473 40.3038 70.8473C41.1998 70.8473 41.9918 70.9753 42.6798 71.2313C43.3838 71.4713 43.9758 71.8153 44.4558 72.2633C44.9358 72.6953 45.2958 73.2153 45.5358 73.8233C45.7918 74.4313 45.9198 75.0953 45.9198 75.8153C45.9198 76.5033 45.8078 77.1353 45.5838 77.7113C45.3758 78.2873 45.0798 78.8393 44.6958 79.3673C44.3118 79.8793 43.8558 80.3753 43.3278 80.8553C42.8158 81.3353 42.2558 81.8153 41.6478 82.2953L37.9998 85.2473H46.3758V87.8873Z" fill="white"/>
<path d="M39.7038 123.396C40.7118 123.396 41.4478 123.196 41.9118 122.796C42.3918 122.396 42.6318 121.892 42.6318 121.284V121.116C42.6318 120.428 42.3998 119.892 41.9358 119.508C41.4878 119.124 40.8638 118.932 40.0638 118.932C39.2958 118.932 38.6238 119.108 38.0478 119.46C37.4718 119.812 36.9758 120.308 36.5598 120.948L34.5198 119.124C34.8078 118.74 35.1278 118.38 35.4798 118.044C35.8478 117.692 36.2558 117.396 36.7038 117.156C37.1678 116.9 37.6798 116.7 38.2398 116.556C38.7998 116.412 39.4398 116.34 40.1598 116.34C41.0078 116.34 41.7838 116.444 42.4878 116.652C43.2078 116.844 43.8158 117.132 44.3118 117.516C44.8238 117.9 45.2158 118.364 45.4878 118.908C45.7758 119.436 45.9198 120.036 45.9198 120.708C45.9198 121.236 45.8318 121.716 45.6558 122.148C45.4798 122.58 45.2398 122.956 44.9358 123.276C44.6478 123.596 44.3038 123.86 43.9038 124.068C43.5198 124.276 43.1038 124.428 42.6558 124.524V124.644C43.1518 124.74 43.6158 124.9 44.0478 125.124C44.4798 125.332 44.8558 125.604 45.1758 125.94C45.4958 126.276 45.7518 126.684 45.9438 127.164C46.1358 127.628 46.2318 128.156 46.2318 128.748C46.2318 129.484 46.0798 130.156 45.7758 130.764C45.4718 131.372 45.0398 131.892 44.4798 132.324C43.9358 132.756 43.2718 133.092 42.4878 133.332C41.7198 133.556 40.8558 133.668 39.8958 133.668C39.0958 133.668 38.3838 133.58 37.7598 133.404C37.1358 133.244 36.5838 133.02 36.1038 132.732C35.6238 132.444 35.2078 132.116 34.8558 131.748C34.5038 131.364 34.1918 130.972 33.9198 130.572L36.2478 128.772C36.6478 129.444 37.1198 129.996 37.6638 130.428C38.2238 130.86 38.9838 131.076 39.9438 131.076C40.9038 131.076 41.6398 130.86 42.1518 130.428C42.6798 129.98 42.9438 129.364 42.9438 128.58V128.388C42.9438 127.62 42.6638 127.036 42.1038 126.636C41.5438 126.22 40.7518 126.012 39.7278 126.012H38.0478V123.396H39.7038Z" fill="white"/>
<path d="M42.965 174.859V171.619H35.213V168.931L42.053 158.107H45.965V169.171H48.221V171.619H45.965V174.859H42.965ZM37.781 169.171H42.965V161.179H42.773L37.781 169.171Z" fill="white"/>
<path d="M48.3422 202.322H40.6622L40.2542 207.938H40.4462C40.6382 207.586 40.8462 207.266 41.0702 206.978C41.2942 206.674 41.5502 206.418 41.8382 206.21C42.1422 206.002 42.4782 205.842 42.8462 205.73C43.2302 205.618 43.6702 205.562 44.1662 205.562C44.8702 205.562 45.5342 205.682 46.1582 205.922C46.7822 206.162 47.3262 206.506 47.7902 206.954C48.2542 207.402 48.6142 207.954 48.8702 208.61C49.1422 209.266 49.2782 210.01 49.2782 210.842C49.2782 211.674 49.1342 212.442 48.8462 213.146C48.5742 213.85 48.1662 214.466 47.6222 214.994C47.0942 215.506 46.4382 215.906 45.6542 216.194C44.8862 216.482 43.9982 216.626 42.9902 216.626C42.2062 216.626 41.5022 216.538 40.8782 216.362C40.2702 216.202 39.7342 215.978 39.2702 215.69C38.8062 215.402 38.3982 215.074 38.0462 214.706C37.6942 214.322 37.3902 213.93 37.1342 213.53L39.4142 211.73C39.6062 212.05 39.8142 212.354 40.0382 212.642C40.2782 212.914 40.5422 213.154 40.8302 213.362C41.1182 213.57 41.4382 213.738 41.7902 213.866C42.1582 213.978 42.5742 214.034 43.0382 214.034C43.9982 214.034 44.7262 213.778 45.2222 213.266C45.7342 212.738 45.9902 212.018 45.9902 211.106V210.914C45.9902 210.034 45.7342 209.346 45.2222 208.85C44.7102 208.354 43.9902 208.106 43.0622 208.106C42.3582 208.106 41.7822 208.242 41.3342 208.514C40.9022 208.77 40.5502 209.05 40.2782 209.354L37.7102 208.994L38.3342 199.586H48.3422V202.322Z" fill="white"/>
<path d="M43.1822 258.105C42.2062 258.105 41.3342 257.953 40.5662 257.649C39.8142 257.329 39.1742 256.889 38.6462 256.329C38.1182 255.753 37.7102 255.065 37.4222 254.265C37.1502 253.449 37.0142 252.537 37.0142 251.529C37.0142 250.329 37.1982 249.201 37.5662 248.145C37.9342 247.073 38.4062 246.097 38.9822 245.217C39.5742 244.321 40.2302 243.521 40.9502 242.817C41.6702 242.113 42.3902 241.529 43.1102 241.065H47.3822C46.3742 241.769 45.4702 242.449 44.6702 243.105C43.8862 243.745 43.1982 244.401 42.6062 245.073C42.0302 245.745 41.5422 246.449 41.1422 247.185C40.7582 247.905 40.4702 248.697 40.2782 249.561L40.4702 249.609C40.6302 249.289 40.8222 248.985 41.0462 248.697C41.2702 248.393 41.5342 248.129 41.8382 247.905C42.1582 247.665 42.5182 247.481 42.9182 247.353C43.3342 247.209 43.8142 247.137 44.3582 247.137C45.0622 247.137 45.7182 247.257 46.3262 247.497C46.9342 247.737 47.4542 248.089 47.8862 248.553C48.3342 249.001 48.6862 249.545 48.9422 250.185C49.1982 250.825 49.3262 251.545 49.3262 252.345C49.3262 253.193 49.1822 253.969 48.8942 254.673C48.6062 255.377 48.1902 255.985 47.6462 256.497C47.1182 257.009 46.4702 257.409 45.7022 257.697C44.9502 257.969 44.1102 258.105 43.1822 258.105ZM43.1582 255.633C44.1182 255.633 44.8462 255.385 45.3422 254.889C45.8382 254.377 46.0862 253.657 46.0862 252.729V252.441C46.0862 251.513 45.8302 250.801 45.3182 250.305C44.8222 249.809 44.1022 249.561 43.1582 249.561C42.2462 249.561 41.5342 249.809 41.0222 250.305C40.5102 250.801 40.2542 251.513 40.2542 252.441V252.729C40.2542 253.657 40.5022 254.377 40.9982 254.889C41.4942 255.385 42.2142 255.633 43.1582 255.633Z" fill="white"/>
<path d="M39.9182 299.296L45.8942 285.112H39.9182V288.184H37.2302V282.544H49.0142V285.28L43.2302 299.296H39.9182Z" fill="white"/>
<path d="M42.95 341.288C41.958 341.288 41.078 341.168 40.31 340.928C39.542 340.672 38.894 340.328 38.366 339.896C37.838 339.464 37.438 338.952 37.166 338.36C36.894 337.768 36.758 337.12 36.758 336.416C36.758 335.312 37.062 334.424 37.67 333.752C38.294 333.08 39.11 332.608 40.118 332.336V332.144C39.254 331.84 38.558 331.368 38.03 330.728C37.518 330.088 37.262 329.28 37.262 328.304C37.262 327.664 37.39 327.08 37.646 326.552C37.902 326.008 38.27 325.544 38.75 325.16C39.23 324.776 39.822 324.48 40.526 324.272C41.23 324.064 42.038 323.96 42.95 323.96C43.862 323.96 44.67 324.064 45.374 324.272C46.078 324.48 46.67 324.776 47.15 325.16C47.63 325.544 47.998 326.008 48.254 326.552C48.51 327.08 48.638 327.664 48.638 328.304C48.638 329.28 48.374 330.088 47.846 330.728C47.334 331.368 46.646 331.84 45.782 332.144V332.336C46.79 332.608 47.598 333.08 48.206 333.752C48.83 334.424 49.142 335.312 49.142 336.416C49.142 337.12 49.006 337.768 48.734 338.36C48.462 338.952 48.062 339.464 47.534 339.896C47.006 340.328 46.358 340.672 45.59 340.928C44.822 341.168 43.942 341.288 42.95 341.288ZM42.95 338.84C43.894 338.84 44.614 338.632 45.11 338.216C45.622 337.784 45.878 337.192 45.878 336.44V335.96C45.878 335.192 45.63 334.6 45.134 334.184C44.638 333.752 43.91 333.536 42.95 333.536C41.99 333.536 41.262 333.752 40.766 334.184C40.27 334.6 40.022 335.192 40.022 335.96V336.44C40.022 337.192 40.27 337.784 40.766 338.216C41.278 338.632 42.006 338.84 42.95 338.84ZM42.95 331.208C43.83 331.208 44.502 331.008 44.966 330.608C45.43 330.208 45.662 329.656 45.662 328.952V328.616C45.662 327.928 45.43 327.392 44.966 327.008C44.502 326.608 43.83 326.408 42.95 326.408C42.07 326.408 41.398 326.608 40.934 327.008C40.47 327.392 40.238 327.928 40.238 328.616V328.952C40.238 329.656 40.47 330.208 40.934 330.608C41.398 331.008 42.07 331.208 42.95 331.208Z" fill="white"/>
</svg>
