<svg width="1477" height="551" viewBox="0 0 1477 551" fill="none" xmlns="http://www.w3.org/2000/svg">
<path d="M0 4.99999C0 2.23857 2.23858 0 5 0H1462C1470.28 0 1477 6.71573 1477 15V526C1477 539.807 1465.81 551 1452 551H35C15.67 551 0 535.33 0 516V4.99999Z" fill="#373538"/>
<path d="M87.2753 58.416L97.8033 29.68H101.483L90.9553 58.416H87.2753ZM109.919 52.592L107.039 50.64L110.783 45.648L105.055 43.696L106.111 40.496L111.775 42.48V36.432H115.359V42.48L121.023 40.496L122.079 43.696L116.351 45.648L120.095 50.64L117.215 52.592L113.567 47.6L109.919 52.592ZM144.998 54V31.664H159.11V35.12H149.19V40.944H158.758V44.4H149.19V50.544H159.11V54H144.998ZM171.065 54.384C169.252 54.384 167.684 54.1067 166.361 53.552C165.039 52.976 164.004 52.208 163.257 51.248L165.657 49.072C166.34 49.8187 167.119 50.3947 167.993 50.8C168.889 51.2053 169.924 51.408 171.097 51.408C172.121 51.408 172.943 51.2373 173.561 50.896C174.18 50.5547 174.489 50.032 174.489 49.328C174.489 48.7307 174.276 48.3253 173.849 48.112C173.444 47.8987 172.9 47.7387 172.217 47.632L169.561 47.216C168.879 47.1093 168.207 46.96 167.545 46.768C166.905 46.5547 166.329 46.2667 165.817 45.904C165.327 45.5413 164.932 45.0827 164.633 44.528C164.335 43.952 164.185 43.2587 164.185 42.448C164.185 40.72 164.825 39.3973 166.105 38.48C167.407 37.5627 169.188 37.104 171.449 37.104C173.049 37.104 174.404 37.328 175.513 37.776C176.644 38.224 177.572 38.8533 178.297 39.664L176.153 42.032C175.684 41.52 175.055 41.072 174.265 40.688C173.497 40.2827 172.516 40.08 171.321 40.08C169.231 40.08 168.185 40.7307 168.185 42.032C168.185 42.6293 168.399 43.0453 168.825 43.28C169.252 43.4933 169.807 43.6533 170.489 43.76L173.113 44.176C173.817 44.2827 174.489 44.4427 175.129 44.656C175.791 44.848 176.367 45.1253 176.857 45.488C177.369 45.8507 177.775 46.3093 178.073 46.864C178.372 47.4187 178.521 48.1013 178.521 48.912C178.521 50.6187 177.86 51.9627 176.537 52.944C175.236 53.904 173.412 54.384 171.065 54.384ZM191.437 54C189.858 54 188.695 53.584 187.949 52.752C187.202 51.92 186.829 50.8427 186.829 49.52V40.72H182.029V37.488H185.293C185.954 37.488 186.423 37.36 186.701 37.104C186.978 36.8267 187.117 36.3467 187.117 35.664V31.664H190.925V37.488H197.645V40.72H190.925V50.768H197.645V54H191.437ZM210.528 34.928C209.568 34.928 208.886 34.7253 208.48 34.32C208.096 33.9147 207.904 33.424 207.904 32.848V32.08C207.904 31.504 208.096 31.0133 208.48 30.608C208.886 30.2027 209.568 30 210.528 30C211.488 30 212.16 30.2027 212.544 30.608C212.95 31.0133 213.152 31.504 213.152 32.08V32.848C213.152 33.424 212.95 33.9147 212.544 34.32C212.16 34.7253 211.488 34.928 210.528 34.928ZM203.04 50.768H208.48V40.72H203.04V37.488H212.576V50.768H217.632V54H203.04V50.768ZM221.396 50.768H226.644V33.552H221.396V30.32H230.74V50.768H236.02V54H221.396V50.768ZM248.903 34.928C247.943 34.928 247.261 34.7253 246.855 34.32C246.471 33.9147 246.279 33.424 246.279 32.848V32.08C246.279 31.504 246.471 31.0133 246.855 30.608C247.261 30.2027 247.943 30 248.903 30C249.863 30 250.535 30.2027 250.919 30.608C251.325 31.0133 251.527 31.504 251.527 32.08V32.848C251.527 33.424 251.325 33.9147 250.919 34.32C250.535 34.7253 249.863 34.928 248.903 34.928ZM241.415 50.768H246.855V40.72H241.415V37.488H250.951V50.768H256.007V54H241.415V50.768ZM259.771 54V50.512L269.371 40.72H260.091V37.488H274.043V40.976L264.443 50.768H274.363V54H259.771ZM292.334 54C291.332 54 290.553 53.7547 289.998 53.264C289.465 52.752 289.145 52.048 289.038 51.152H288.878C288.58 52.176 287.993 52.976 287.118 53.552C286.244 54.1067 285.166 54.384 283.886 54.384C282.222 54.384 280.9 53.9467 279.918 53.072C278.937 52.1973 278.446 50.9813 278.446 49.424C278.446 46.096 280.889 44.432 285.774 44.432H288.686V43.344C288.686 42.2987 288.43 41.5093 287.918 40.976C287.406 40.4427 286.574 40.176 285.422 40.176C284.377 40.176 283.534 40.3787 282.894 40.784C282.254 41.1893 281.71 41.712 281.262 42.352L278.926 40.368C279.438 39.4507 280.26 38.6827 281.39 38.064C282.542 37.424 284.025 37.104 285.838 37.104C288.014 37.104 289.71 37.616 290.926 38.64C292.164 39.6427 292.782 41.1467 292.782 43.152V50.928H294.734V54H292.334ZM285.262 51.568C286.244 51.568 287.054 51.344 287.694 50.896C288.356 50.4267 288.686 49.7973 288.686 49.008V46.8H285.87C283.63 46.8 282.51 47.504 282.51 48.912V49.552C282.51 50.2133 282.756 50.7147 283.246 51.056C283.737 51.3973 284.409 51.568 285.262 51.568ZM298.242 54V37.488H302.338V40.4H302.498C302.86 39.504 303.415 38.736 304.162 38.096C304.93 37.4347 305.986 37.104 307.33 37.104C308.951 37.104 310.263 37.648 311.266 38.736C312.29 39.8027 312.802 41.3387 312.802 43.344V54H308.706V43.92C308.706 41.5307 307.671 40.336 305.602 40.336C305.175 40.336 304.77 40.3893 304.386 40.496C304.002 40.6027 303.65 40.7733 303.33 41.008C303.031 41.2213 302.786 41.488 302.594 41.808C302.423 42.128 302.338 42.512 302.338 42.96V54H298.242ZM327.925 51.088H327.701C327.253 52.0907 326.635 52.8907 325.845 53.488C325.077 54.0853 324.053 54.384 322.773 54.384C321.835 54.384 320.971 54.2133 320.181 53.872C319.413 53.5093 318.752 52.976 318.197 52.272C317.643 51.5467 317.216 50.64 316.917 49.552C316.619 48.464 316.469 47.1947 316.469 45.744C316.469 42.8427 317.045 40.6773 318.197 39.248C319.349 37.8187 320.875 37.104 322.773 37.104C324.053 37.104 325.077 37.4027 325.845 38C326.635 38.5973 327.253 39.3973 327.701 40.4H327.925V30.32H332.021V54H327.925V51.088ZM324.501 51.12C324.971 51.12 325.408 51.0667 325.813 50.96C326.24 50.832 326.603 50.6613 326.901 50.448C327.221 50.2133 327.467 49.9253 327.637 49.584C327.829 49.2213 327.925 48.8053 327.925 48.336V43.152C327.925 42.6827 327.829 42.2773 327.637 41.936C327.467 41.5733 327.221 41.2853 326.901 41.072C326.603 40.8373 326.24 40.6667 325.813 40.56C325.408 40.432 324.971 40.368 324.501 40.368C323.307 40.368 322.379 40.7307 321.717 41.456C321.077 42.1813 320.757 43.1733 320.757 44.432V47.056C320.757 48.3147 321.077 49.3067 321.717 50.032C322.379 50.7573 323.307 51.12 324.501 51.12ZM343.817 54.384C342.558 54.384 341.427 54.1813 340.425 53.776C339.443 53.3707 338.601 52.7947 337.897 52.048C337.214 51.3013 336.681 50.3947 336.297 49.328C335.934 48.2613 335.753 47.0667 335.753 45.744C335.753 44.4213 335.934 43.2267 336.297 42.16C336.681 41.0933 337.214 40.1867 337.897 39.44C338.601 38.6933 339.443 38.1173 340.425 37.712C341.427 37.3067 342.558 37.104 343.817 37.104C345.054 37.104 346.174 37.3067 347.177 37.712C348.179 38.1173 349.022 38.6933 349.705 39.44C350.409 40.1867 350.942 41.0933 351.305 42.16C351.689 43.2267 351.881 44.4213 351.881 45.744C351.881 47.0667 351.689 48.2613 351.305 49.328C350.942 50.3947 350.409 51.3013 349.705 52.048C349.022 52.7947 348.179 53.3707 347.177 53.776C346.174 54.1813 345.054 54.384 343.817 54.384ZM343.817 51.248C344.99 51.248 345.918 50.896 346.601 50.192C347.283 49.4667 347.625 48.4107 347.625 47.024V44.464C347.625 43.0773 347.283 42.032 346.601 41.328C345.918 40.6027 344.99 40.24 343.817 40.24C342.643 40.24 341.715 40.6027 341.033 41.328C340.35 42.032 340.009 43.0773 340.009 44.464V47.024C340.009 48.4107 340.35 49.4667 341.033 50.192C341.715 50.896 342.643 51.248 343.817 51.248ZM374.896 50.768H380.144V33.552H374.896V30.32H384.24V50.768H389.52V54H374.896V50.768ZM402.403 34.928C401.443 34.928 400.761 34.7253 400.355 34.32C399.971 33.9147 399.779 33.424 399.779 32.848V32.08C399.779 31.504 399.971 31.0133 400.355 30.608C400.761 30.2027 401.443 30 402.403 30C403.363 30 404.035 30.2027 404.419 30.608C404.825 31.0133 405.027 31.504 405.027 32.08V32.848C405.027 33.424 404.825 33.9147 404.419 34.32C404.035 34.7253 403.363 34.928 402.403 34.928ZM394.915 50.768H400.355V40.72H394.915V37.488H404.451V50.768H409.507V54H394.915V50.768ZM413.367 54V37.488H417.463V40.4H417.623C417.985 39.504 418.54 38.736 419.287 38.096C420.055 37.4347 421.111 37.104 422.455 37.104C424.076 37.104 425.388 37.648 426.391 38.736C427.415 39.8027 427.927 41.3387 427.927 43.344V54H423.831V43.92C423.831 41.5307 422.796 40.336 420.727 40.336C420.3 40.336 419.895 40.3893 419.511 40.496C419.127 40.6027 418.775 40.7733 418.455 41.008C418.156 41.2213 417.911 41.488 417.719 41.808C417.548 42.128 417.463 42.512 417.463 42.96V54H413.367ZM432.618 30.32H436.714V44.208H436.906L439.306 41.584L443.37 37.488H448.138L441.578 43.984L448.842 54H443.946L438.666 46.32L436.714 48.176V54H432.618V30.32ZM458.878 54.384C457.064 54.384 455.496 54.1067 454.174 53.552C452.851 52.976 451.816 52.208 451.07 51.248L453.47 49.072C454.152 49.8187 454.931 50.3947 455.806 50.8C456.702 51.2053 457.736 51.408 458.91 51.408C459.934 51.408 460.755 51.2373 461.374 50.896C461.992 50.5547 462.302 50.032 462.302 49.328C462.302 48.7307 462.088 48.3253 461.662 48.112C461.256 47.8987 460.712 47.7387 460.03 47.632L457.374 47.216C456.691 47.1093 456.019 46.96 455.358 46.768C454.718 46.5547 454.142 46.2667 453.63 45.904C453.139 45.5413 452.744 45.0827 452.446 44.528C452.147 43.952 451.998 43.2587 451.998 42.448C451.998 40.72 452.638 39.3973 453.918 38.48C455.219 37.5627 457 37.104 459.262 37.104C460.862 37.104 462.216 37.328 463.326 37.776C464.456 38.224 465.384 38.8533 466.11 39.664L463.966 42.032C463.496 41.52 462.867 41.072 462.078 40.688C461.31 40.2827 460.328 40.08 459.134 40.08C457.043 40.08 455.998 40.7307 455.998 42.032C455.998 42.6293 456.211 43.0453 456.638 43.28C457.064 43.4933 457.619 43.6533 458.302 43.76L460.926 44.176C461.63 44.2827 462.302 44.4427 462.942 44.656C463.603 44.848 464.179 45.1253 464.67 45.488C465.182 45.8507 465.587 46.3093 465.886 46.864C466.184 47.4187 466.334 48.1013 466.334 48.912C466.334 50.6187 465.672 51.9627 464.35 52.944C463.048 53.904 461.224 54.384 458.878 54.384ZM493.669 52.592L490.789 50.64L494.533 45.648L488.805 43.696L489.861 40.496L495.525 42.48V36.432H499.109V42.48L504.773 40.496L505.829 43.696L500.101 45.648L503.845 50.64L500.965 52.592L497.317 47.6L493.669 52.592ZM509.4 58.416L519.928 29.68H523.608L513.08 58.416H509.4ZM87.2753 310.416L97.8033 281.68H101.483L90.9553 310.416H87.2753ZM109.919 304.592L107.039 302.64L110.783 297.648L105.055 295.696L106.111 292.496L111.775 294.48V288.432H115.359V294.48L121.023 292.496L122.079 295.696L116.351 297.648L120.095 302.64L117.215 304.592L113.567 299.6L109.919 304.592ZM144.998 306V283.664H159.11V287.12H149.19V292.944H158.758V296.4H149.19V302.544H159.11V306H144.998ZM171.065 306.384C169.252 306.384 167.684 306.107 166.361 305.552C165.039 304.976 164.004 304.208 163.257 303.248L165.657 301.072C166.34 301.819 167.119 302.395 167.993 302.8C168.889 303.205 169.924 303.408 171.097 303.408C172.121 303.408 172.943 303.237 173.561 302.896C174.18 302.555 174.489 302.032 174.489 301.328C174.489 300.731 174.276 300.325 173.849 300.112C173.444 299.899 172.9 299.739 172.217 299.632L169.561 299.216C168.879 299.109 168.207 298.96 167.545 298.768C166.905 298.555 166.329 298.267 165.817 297.904C165.327 297.541 164.932 297.083 164.633 296.528C164.335 295.952 164.185 295.259 164.185 294.448C164.185 292.72 164.825 291.397 166.105 290.48C167.407 289.563 169.188 289.104 171.449 289.104C173.049 289.104 174.404 289.328 175.513 289.776C176.644 290.224 177.572 290.853 178.297 291.664L176.153 294.032C175.684 293.52 175.055 293.072 174.265 292.688C173.497 292.283 172.516 292.08 171.321 292.08C169.231 292.08 168.185 292.731 168.185 294.032C168.185 294.629 168.399 295.045 168.825 295.28C169.252 295.493 169.807 295.653 170.489 295.76L173.113 296.176C173.817 296.283 174.489 296.443 175.129 296.656C175.791 296.848 176.367 297.125 176.857 297.488C177.369 297.851 177.775 298.309 178.073 298.864C178.372 299.419 178.521 300.101 178.521 300.912C178.521 302.619 177.86 303.963 176.537 304.944C175.236 305.904 173.412 306.384 171.065 306.384ZM191.437 306C189.858 306 188.695 305.584 187.949 304.752C187.202 303.92 186.829 302.843 186.829 301.52V292.72H182.029V289.488H185.293C185.954 289.488 186.423 289.36 186.701 289.104C186.978 288.827 187.117 288.347 187.117 287.664V283.664H190.925V289.488H197.645V292.72H190.925V302.768H197.645V306H191.437ZM210.528 286.928C209.568 286.928 208.886 286.725 208.48 286.32C208.096 285.915 207.904 285.424 207.904 284.848V284.08C207.904 283.504 208.096 283.013 208.48 282.608C208.886 282.203 209.568 282 210.528 282C211.488 282 212.16 282.203 212.544 282.608C212.95 283.013 213.152 283.504 213.152 284.08V284.848C213.152 285.424 212.95 285.915 212.544 286.32C212.16 286.725 211.488 286.928 210.528 286.928ZM203.04 302.768H208.48V292.72H203.04V289.488H212.576V302.768H217.632V306H203.04V302.768ZM221.396 302.768H226.644V285.552H221.396V282.32H230.74V302.768H236.02V306H221.396V302.768ZM248.903 286.928C247.943 286.928 247.261 286.725 246.855 286.32C246.471 285.915 246.279 285.424 246.279 284.848V284.08C246.279 283.504 246.471 283.013 246.855 282.608C247.261 282.203 247.943 282 248.903 282C249.863 282 250.535 282.203 250.919 282.608C251.325 283.013 251.527 283.504 251.527 284.08V284.848C251.527 285.424 251.325 285.915 250.919 286.32C250.535 286.725 249.863 286.928 248.903 286.928ZM241.415 302.768H246.855V292.72H241.415V289.488H250.951V302.768H256.007V306H241.415V302.768ZM259.771 306V302.512L269.371 292.72H260.091V289.488H274.043V292.976L264.443 302.768H274.363V306H259.771ZM292.334 306C291.332 306 290.553 305.755 289.998 305.264C289.465 304.752 289.145 304.048 289.038 303.152H288.878C288.58 304.176 287.993 304.976 287.118 305.552C286.244 306.107 285.166 306.384 283.886 306.384C282.222 306.384 280.9 305.947 279.918 305.072C278.937 304.197 278.446 302.981 278.446 301.424C278.446 298.096 280.889 296.432 285.774 296.432H288.686V295.344C288.686 294.299 288.43 293.509 287.918 292.976C287.406 292.443 286.574 292.176 285.422 292.176C284.377 292.176 283.534 292.379 282.894 292.784C282.254 293.189 281.71 293.712 281.262 294.352L278.926 292.368C279.438 291.451 280.26 290.683 281.39 290.064C282.542 289.424 284.025 289.104 285.838 289.104C288.014 289.104 289.71 289.616 290.926 290.64C292.164 291.643 292.782 293.147 292.782 295.152V302.928H294.734V306H292.334ZM285.262 303.568C286.244 303.568 287.054 303.344 287.694 302.896C288.356 302.427 288.686 301.797 288.686 301.008V298.8H285.87C283.63 298.8 282.51 299.504 282.51 300.912V301.552C282.51 302.213 282.756 302.715 283.246 303.056C283.737 303.397 284.409 303.568 285.262 303.568ZM298.242 306V289.488H302.338V292.4H302.498C302.86 291.504 303.415 290.736 304.162 290.096C304.93 289.435 305.986 289.104 307.33 289.104C308.951 289.104 310.263 289.648 311.266 290.736C312.29 291.803 312.802 293.339 312.802 295.344V306H308.706V295.92C308.706 293.531 307.671 292.336 305.602 292.336C305.175 292.336 304.77 292.389 304.386 292.496C304.002 292.603 303.65 292.773 303.33 293.008C303.031 293.221 302.786 293.488 302.594 293.808C302.423 294.128 302.338 294.512 302.338 294.96V306H298.242ZM327.925 303.088H327.701C327.253 304.091 326.635 304.891 325.845 305.488C325.077 306.085 324.053 306.384 322.773 306.384C321.835 306.384 320.971 306.213 320.181 305.872C319.413 305.509 318.752 304.976 318.197 304.272C317.643 303.547 317.216 302.64 316.917 301.552C316.619 300.464 316.469 299.195 316.469 297.744C316.469 294.843 317.045 292.677 318.197 291.248C319.349 289.819 320.875 289.104 322.773 289.104C324.053 289.104 325.077 289.403 325.845 290C326.635 290.597 327.253 291.397 327.701 292.4H327.925V282.32H332.021V306H327.925V303.088ZM324.501 303.12C324.971 303.12 325.408 303.067 325.813 302.96C326.24 302.832 326.603 302.661 326.901 302.448C327.221 302.213 327.467 301.925 327.637 301.584C327.829 301.221 327.925 300.805 327.925 300.336V295.152C327.925 294.683 327.829 294.277 327.637 293.936C327.467 293.573 327.221 293.285 326.901 293.072C326.603 292.837 326.24 292.667 325.813 292.56C325.408 292.432 324.971 292.368 324.501 292.368C323.307 292.368 322.379 292.731 321.717 293.456C321.077 294.181 320.757 295.173 320.757 296.432V299.056C320.757 300.315 321.077 301.307 321.717 302.032C322.379 302.757 323.307 303.12 324.501 303.12ZM343.817 306.384C342.558 306.384 341.427 306.181 340.425 305.776C339.443 305.371 338.601 304.795 337.897 304.048C337.214 303.301 336.681 302.395 336.297 301.328C335.934 300.261 335.753 299.067 335.753 297.744C335.753 296.421 335.934 295.227 336.297 294.16C336.681 293.093 337.214 292.187 337.897 291.44C338.601 290.693 339.443 290.117 340.425 289.712C341.427 289.307 342.558 289.104 343.817 289.104C345.054 289.104 346.174 289.307 347.177 289.712C348.179 290.117 349.022 290.693 349.705 291.44C350.409 292.187 350.942 293.093 351.305 294.16C351.689 295.227 351.881 296.421 351.881 297.744C351.881 299.067 351.689 300.261 351.305 301.328C350.942 302.395 350.409 303.301 349.705 304.048C349.022 304.795 348.179 305.371 347.177 305.776C346.174 306.181 345.054 306.384 343.817 306.384ZM343.817 303.248C344.99 303.248 345.918 302.896 346.601 302.192C347.283 301.467 347.625 300.411 347.625 299.024V296.464C347.625 295.077 347.283 294.032 346.601 293.328C345.918 292.603 344.99 292.24 343.817 292.24C342.643 292.24 341.715 292.603 341.033 293.328C340.35 294.032 340.009 295.077 340.009 296.464V299.024C340.009 300.411 340.35 301.467 341.033 302.192C341.715 302.896 342.643 303.248 343.817 303.248ZM388.272 306C387.269 306 386.49 305.755 385.936 305.264C385.402 304.752 385.082 304.048 384.976 303.152H384.816C384.517 304.176 383.93 304.976 383.056 305.552C382.181 306.107 381.104 306.384 379.824 306.384C378.16 306.384 376.837 305.947 375.856 305.072C374.874 304.197 374.384 302.981 374.384 301.424C374.384 298.096 376.826 296.432 381.712 296.432H384.624V295.344C384.624 294.299 384.368 293.509 383.856 292.976C383.344 292.443 382.512 292.176 381.36 292.176C380.314 292.176 379.472 292.379 378.832 292.784C378.192 293.189 377.648 293.712 377.2 294.352L374.864 292.368C375.376 291.451 376.197 290.683 377.328 290.064C378.48 289.424 379.962 289.104 381.776 289.104C383.952 289.104 385.648 289.616 386.864 290.64C388.101 291.643 388.72 293.147 388.72 295.152V302.928H390.672V306H388.272ZM381.2 303.568C382.181 303.568 382.992 303.344 383.632 302.896C384.293 302.427 384.624 301.797 384.624 301.008V298.8H381.808C379.568 298.8 378.448 299.504 378.448 300.912V301.552C378.448 302.213 378.693 302.715 379.184 303.056C379.674 303.397 380.346 303.568 381.2 303.568ZM413.175 289.488H417.271V292.4H417.495C417.943 291.397 418.551 290.597 419.319 290C420.108 289.403 421.143 289.104 422.423 289.104C423.361 289.104 424.215 289.285 424.983 289.648C425.772 289.989 426.444 290.523 426.999 291.248C427.553 291.952 427.98 292.848 428.279 293.936C428.577 295.024 428.727 296.293 428.727 297.744C428.727 299.195 428.577 300.464 428.279 301.552C427.98 302.64 427.553 303.547 426.999 304.272C426.444 304.976 425.772 305.509 424.983 305.872C424.215 306.213 423.361 306.384 422.423 306.384C421.143 306.384 420.108 306.085 419.319 305.488C418.551 304.891 417.943 304.091 417.495 303.088H417.271V312.4H413.175V289.488ZM420.695 303.12C421.889 303.12 422.807 302.757 423.447 302.032C424.108 301.307 424.439 300.315 424.439 299.056V296.432C424.439 295.173 424.108 294.181 423.447 293.456C422.807 292.731 421.889 292.368 420.695 292.368C419.756 292.368 418.945 292.603 418.263 293.072C417.601 293.52 417.271 294.213 417.271 295.152V300.336C417.271 301.275 417.601 301.979 418.263 302.448C418.945 302.896 419.756 303.12 420.695 303.12ZM432.554 302.768H436.65V292.72H432.554V289.488H440.746V294H441.002C441.152 293.424 441.354 292.869 441.61 292.336C441.888 291.781 442.229 291.301 442.634 290.896C443.061 290.469 443.573 290.128 444.17 289.872C444.768 289.616 445.482 289.488 446.314 289.488H448.106V293.328H444.714C443.477 293.328 442.506 293.691 441.802 294.416C441.098 295.141 440.746 296.069 440.746 297.2V302.768H446.474V306H432.554V302.768ZM459.966 286.928C459.006 286.928 458.323 286.725 457.918 286.32C457.534 285.915 457.342 285.424 457.342 284.848V284.08C457.342 283.504 457.534 283.013 457.918 282.608C458.323 282.203 459.006 282 459.966 282C460.926 282 461.598 282.203 461.982 282.608C462.387 283.013 462.59 283.504 462.59 284.08V284.848C462.59 285.424 462.387 285.915 461.982 286.32C461.598 286.725 460.926 286.928 459.966 286.928ZM452.478 302.768H457.918V292.72H452.478V289.488H462.014V302.768H467.07V306H452.478V302.768ZM469.713 306V289.488H473.105V291.76H473.297C473.553 291.035 473.916 290.416 474.385 289.904C474.876 289.371 475.559 289.104 476.433 289.104C477.265 289.104 477.927 289.349 478.417 289.84C478.908 290.309 479.228 290.981 479.377 291.856H479.537C479.815 291.109 480.22 290.469 480.753 289.936C481.308 289.381 482.087 289.104 483.089 289.104C484.305 289.104 485.18 289.541 485.713 290.416C486.247 291.291 486.513 292.581 486.513 294.288V306H483.153V294.768C483.153 293.808 483.015 293.136 482.737 292.752C482.481 292.368 482.087 292.176 481.553 292.176C481.063 292.176 480.647 292.336 480.305 292.656C479.985 292.976 479.825 293.467 479.825 294.128V306H476.433V294.768C476.433 293.808 476.305 293.136 476.049 292.752C475.793 292.368 475.399 292.176 474.865 292.176C474.353 292.176 473.927 292.336 473.585 292.656C473.265 292.976 473.105 293.467 473.105 294.128V306H469.713ZM497.701 306.384C496.378 306.384 495.205 306.181 494.181 305.776C493.157 305.371 492.293 304.795 491.589 304.048C490.906 303.301 490.383 302.405 490.021 301.36C489.658 300.293 489.477 299.099 489.477 297.776C489.477 296.432 489.658 295.227 490.021 294.16C490.405 293.093 490.938 292.187 491.621 291.44C492.303 290.693 493.125 290.117 494.085 289.712C495.066 289.307 496.165 289.104 497.381 289.104C498.575 289.104 499.653 289.307 500.613 289.712C501.573 290.096 502.383 290.651 503.045 291.376C503.727 292.101 504.25 292.976 504.613 294C504.975 295.024 505.157 296.155 505.157 297.392V298.736H493.573V299.152C493.573 300.347 493.946 301.317 494.693 302.064C495.439 302.789 496.485 303.152 497.829 303.152C498.853 303.152 499.727 302.949 500.453 302.544C501.199 302.117 501.818 301.563 502.309 300.88L504.645 303.216C504.047 304.091 503.173 304.837 502.021 305.456C500.89 306.075 499.45 306.384 497.701 306.384ZM497.413 292.112C496.261 292.112 495.333 292.475 494.629 293.2C493.925 293.925 493.573 294.885 493.573 296.08V296.304H501.061V296.016C501.061 294.821 500.73 293.872 500.069 293.168C499.429 292.464 498.543 292.112 497.413 292.112ZM517.528 286.928C516.568 286.928 515.886 286.725 515.48 286.32C515.096 285.915 514.904 285.424 514.904 284.848V284.08C514.904 283.504 515.096 283.013 515.48 282.608C515.886 282.203 516.568 282 517.528 282C518.488 282 519.16 282.203 519.544 282.608C519.95 283.013 520.152 283.504 520.152 284.08V284.848C520.152 285.424 519.95 285.915 519.544 286.32C519.16 286.725 518.488 286.928 517.528 286.928ZM510.04 302.768H515.48V292.72H510.04V289.488H519.576V302.768H524.632V306H510.04V302.768ZM528.492 302.768H532.588V292.72H528.492V289.488H536.684V294H536.94C537.089 293.424 537.292 292.869 537.548 292.336C537.825 291.781 538.166 291.301 538.572 290.896C538.998 290.469 539.51 290.128 540.108 289.872C540.705 289.616 541.42 289.488 542.252 289.488H544.044V293.328H540.652C539.414 293.328 538.444 293.691 537.74 294.416C537.036 295.141 536.684 296.069 536.684 297.2V302.768H542.412V306H528.492V302.768ZM560.959 306C559.957 306 559.178 305.755 558.623 305.264C558.09 304.752 557.77 304.048 557.663 303.152H557.503C557.205 304.176 556.618 304.976 555.743 305.552C554.869 306.107 553.791 306.384 552.511 306.384C550.847 306.384 549.525 305.947 548.543 305.072C547.562 304.197 547.071 302.981 547.071 301.424C547.071 298.096 549.514 296.432 554.399 296.432H557.311V295.344C557.311 294.299 557.055 293.509 556.543 292.976C556.031 292.443 555.199 292.176 554.047 292.176C553.002 292.176 552.159 292.379 551.519 292.784C550.879 293.189 550.335 293.712 549.887 294.352L547.551 292.368C548.063 291.451 548.885 290.683 550.015 290.064C551.167 289.424 552.65 289.104 554.463 289.104C556.639 289.104 558.335 289.616 559.551 290.64C560.789 291.643 561.407 293.147 561.407 295.152V302.928H563.359V306H560.959ZM553.887 303.568C554.869 303.568 555.679 303.344 556.319 302.896C556.981 302.427 557.311 301.797 557.311 301.008V298.8H554.495C552.255 298.8 551.135 299.504 551.135 300.912V301.552C551.135 302.213 551.381 302.715 551.871 303.056C552.362 303.397 553.034 303.568 553.887 303.568ZM585.958 302.768H591.206V285.552H585.958V282.32H595.302V302.768H600.582V306H585.958V302.768ZM613.466 286.928C612.506 286.928 611.823 286.725 611.418 286.32C611.034 285.915 610.842 285.424 610.842 284.848V284.08C610.842 283.504 611.034 283.013 611.418 282.608C611.823 282.203 612.506 282 613.466 282C614.426 282 615.098 282.203 615.482 282.608C615.887 283.013 616.09 283.504 616.09 284.08V284.848C616.09 285.424 615.887 285.915 615.482 286.32C615.098 286.725 614.426 286.928 613.466 286.928ZM605.978 302.768H611.418V292.72H605.978V289.488H615.514V302.768H620.57V306H605.978V302.768ZM624.429 306V289.488H628.525V292.4H628.685C629.048 291.504 629.603 290.736 630.349 290.096C631.117 289.435 632.173 289.104 633.517 289.104C635.139 289.104 636.451 289.648 637.453 290.736C638.477 291.803 638.989 293.339 638.989 295.344V306H634.893V295.92C634.893 293.531 633.859 292.336 631.789 292.336C631.363 292.336 630.957 292.389 630.573 292.496C630.189 292.603 629.837 292.773 629.517 293.008C629.219 293.221 628.973 293.488 628.781 293.808C628.611 294.128 628.525 294.512 628.525 294.96V306H624.429ZM643.617 282.32H647.713V292.4H647.873C648.235 291.504 648.79 290.736 649.537 290.096C650.305 289.435 651.361 289.104 652.705 289.104C654.326 289.104 655.638 289.648 656.641 290.736C657.665 291.803 658.177 293.339 658.177 295.344V306H654.081V295.92C654.081 293.531 653.046 292.336 650.977 292.336C650.55 292.336 650.145 292.389 649.761 292.496C649.377 292.603 649.025 292.773 648.705 293.008C648.406 293.221 648.161 293.488 647.969 293.808C647.798 294.128 647.713 294.512 647.713 294.96V306H643.617V282.32ZM676.084 306C675.082 306 674.303 305.755 673.748 305.264C673.215 304.752 672.895 304.048 672.788 303.152H672.628C672.33 304.176 671.743 304.976 670.868 305.552C669.994 306.107 668.916 306.384 667.636 306.384C665.972 306.384 664.65 305.947 663.668 305.072C662.687 304.197 662.196 302.981 662.196 301.424C662.196 298.096 664.639 296.432 669.524 296.432H672.436V295.344C672.436 294.299 672.18 293.509 671.668 292.976C671.156 292.443 670.324 292.176 669.172 292.176C668.127 292.176 667.284 292.379 666.644 292.784C666.004 293.189 665.46 293.712 665.012 294.352L662.676 292.368C663.188 291.451 664.01 290.683 665.14 290.064C666.292 289.424 667.775 289.104 669.588 289.104C671.764 289.104 673.46 289.616 674.676 290.64C675.914 291.643 676.532 293.147 676.532 295.152V302.928H678.484V306H676.084ZM669.012 303.568C669.994 303.568 670.804 303.344 671.444 302.896C672.106 302.427 672.436 301.797 672.436 301.008V298.8H669.62C667.38 298.8 666.26 299.504 666.26 300.912V301.552C666.26 302.213 666.506 302.715 666.996 303.056C667.487 303.397 668.159 303.568 669.012 303.568ZM711.675 303.088H711.451C711.003 304.091 710.385 304.891 709.595 305.488C708.827 306.085 707.803 306.384 706.523 306.384C705.585 306.384 704.721 306.213 703.931 305.872C703.163 305.509 702.502 304.976 701.947 304.272C701.393 303.547 700.966 302.64 700.667 301.552C700.369 300.464 700.219 299.195 700.219 297.744C700.219 294.843 700.795 292.677 701.947 291.248C703.099 289.819 704.625 289.104 706.523 289.104C707.803 289.104 708.827 289.403 709.595 290C710.385 290.597 711.003 291.397 711.451 292.4H711.675V282.32H715.771V306H711.675V303.088ZM708.251 303.12C708.721 303.12 709.158 303.067 709.563 302.96C709.99 302.832 710.353 302.661 710.651 302.448C710.971 302.213 711.217 301.925 711.387 301.584C711.579 301.221 711.675 300.805 711.675 300.336V295.152C711.675 294.683 711.579 294.277 711.387 293.936C711.217 293.573 710.971 293.285 710.651 293.072C710.353 292.837 709.99 292.667 709.563 292.56C709.158 292.432 708.721 292.368 708.251 292.368C707.057 292.368 706.129 292.731 705.467 293.456C704.827 294.181 704.507 295.173 704.507 296.432V299.056C704.507 300.315 704.827 301.307 705.467 302.032C706.129 302.757 707.057 303.12 708.251 303.12ZM727.951 306.384C726.628 306.384 725.455 306.181 724.431 305.776C723.407 305.371 722.543 304.795 721.839 304.048C721.156 303.301 720.633 302.405 720.271 301.36C719.908 300.293 719.727 299.099 719.727 297.776C719.727 296.432 719.908 295.227 720.271 294.16C720.655 293.093 721.188 292.187 721.871 291.44C722.553 290.693 723.375 290.117 724.335 289.712C725.316 289.307 726.415 289.104 727.631 289.104C728.825 289.104 729.903 289.307 730.863 289.712C731.823 290.096 732.633 290.651 733.295 291.376C733.977 292.101 734.5 292.976 734.863 294C735.225 295.024 735.407 296.155 735.407 297.392V298.736H723.823V299.152C723.823 300.347 724.196 301.317 724.943 302.064C725.689 302.789 726.735 303.152 728.079 303.152C729.103 303.152 729.977 302.949 730.703 302.544C731.449 302.117 732.068 301.563 732.559 300.88L734.895 303.216C734.297 304.091 733.423 304.837 732.271 305.456C731.14 306.075 729.7 306.384 727.951 306.384ZM727.663 292.112C726.511 292.112 725.583 292.475 724.879 293.2C724.175 293.925 723.823 294.885 723.823 296.08V296.304H731.311V296.016C731.311 294.821 730.98 293.872 730.319 293.168C729.679 292.464 728.793 292.112 727.663 292.112ZM769.046 303.088H768.886C768.523 303.984 767.958 304.763 767.19 305.424C766.443 306.064 765.398 306.384 764.054 306.384C762.432 306.384 761.11 305.851 760.086 304.784C759.083 303.696 758.582 302.149 758.582 300.144V289.488H762.678V299.568C762.678 301.957 763.712 303.152 765.782 303.152C766.187 303.152 766.582 303.099 766.966 302.992C767.371 302.885 767.723 302.725 768.022 302.512C768.342 302.277 768.587 302 768.758 301.68C768.95 301.36 769.046 300.976 769.046 300.528V289.488H773.142V306H769.046V303.088ZM776.713 306V289.488H780.105V291.76H780.297C780.553 291.035 780.916 290.416 781.385 289.904C781.876 289.371 782.559 289.104 783.433 289.104C784.265 289.104 784.927 289.349 785.417 289.84C785.908 290.309 786.228 290.981 786.377 291.856H786.537C786.815 291.109 787.22 290.469 787.753 289.936C788.308 289.381 789.087 289.104 790.089 289.104C791.305 289.104 792.18 289.541 792.713 290.416C793.247 291.291 793.513 292.581 793.513 294.288V306H790.153V294.768C790.153 293.808 790.015 293.136 789.737 292.752C789.481 292.368 789.087 292.176 788.553 292.176C788.063 292.176 787.647 292.336 787.305 292.656C786.985 292.976 786.825 293.467 786.825 294.128V306H783.433V294.768C783.433 293.808 783.305 293.136 783.049 292.752C782.793 292.368 782.399 292.176 781.865 292.176C781.353 292.176 780.927 292.336 780.585 292.656C780.265 292.976 780.105 293.467 780.105 294.128V306H776.713ZM816.112 289.488H820.208V292.4H820.432C820.88 291.397 821.488 290.597 822.256 290C823.046 289.403 824.08 289.104 825.36 289.104C826.299 289.104 827.152 289.285 827.92 289.648C828.71 289.989 829.382 290.523 829.936 291.248C830.491 291.952 830.918 292.848 831.216 293.936C831.515 295.024 831.664 296.293 831.664 297.744C831.664 299.195 831.515 300.464 831.216 301.552C830.918 302.64 830.491 303.547 829.936 304.272C829.382 304.976 828.71 305.509 827.92 305.872C827.152 306.213 826.299 306.384 825.36 306.384C824.08 306.384 823.046 306.085 822.256 305.488C821.488 304.891 820.88 304.091 820.432 303.088H820.208V312.4H816.112V289.488ZM823.632 303.12C824.827 303.12 825.744 302.757 826.384 302.032C827.046 301.307 827.376 300.315 827.376 299.056V296.432C827.376 295.173 827.046 294.181 826.384 293.456C825.744 292.731 824.827 292.368 823.632 292.368C822.694 292.368 821.883 292.603 821.2 293.072C820.539 293.52 820.208 294.213 820.208 295.152V300.336C820.208 301.275 820.539 301.979 821.2 302.448C821.883 302.896 822.694 303.12 823.632 303.12ZM848.772 306C847.769 306 846.99 305.755 846.436 305.264C845.902 304.752 845.582 304.048 845.476 303.152H845.316C845.017 304.176 844.43 304.976 843.556 305.552C842.681 306.107 841.604 306.384 840.324 306.384C838.66 306.384 837.337 305.947 836.356 305.072C835.374 304.197 834.884 302.981 834.884 301.424C834.884 298.096 837.326 296.432 842.212 296.432H845.124V295.344C845.124 294.299 844.868 293.509 844.356 292.976C843.844 292.443 843.012 292.176 841.86 292.176C840.814 292.176 839.972 292.379 839.332 292.784C838.692 293.189 838.148 293.712 837.7 294.352L835.364 292.368C835.876 291.451 836.697 290.683 837.828 290.064C838.98 289.424 840.462 289.104 842.276 289.104C844.452 289.104 846.148 289.616 847.364 290.64C848.601 291.643 849.22 293.147 849.22 295.152V302.928H851.172V306H848.772ZM841.7 303.568C842.681 303.568 843.492 303.344 844.132 302.896C844.793 302.427 845.124 301.797 845.124 301.008V298.8H842.308C840.068 298.8 838.948 299.504 838.948 300.912V301.552C838.948 302.213 839.193 302.715 839.684 303.056C840.174 303.397 840.846 303.568 841.7 303.568ZM854.679 302.768H858.775V292.72H854.679V289.488H862.871V294H863.127C863.277 293.424 863.479 292.869 863.735 292.336C864.013 291.781 864.354 291.301 864.759 290.896C865.186 290.469 865.698 290.128 866.295 289.872C866.893 289.616 867.607 289.488 868.439 289.488H870.231V293.328H866.839C865.602 293.328 864.631 293.691 863.927 294.416C863.223 295.141 862.871 296.069 862.871 297.2V302.768H868.599V306H854.679V302.768ZM887.147 306C886.144 306 885.365 305.755 884.811 305.264C884.277 304.752 883.957 304.048 883.851 303.152H883.691C883.392 304.176 882.805 304.976 881.931 305.552C881.056 306.107 879.979 306.384 878.699 306.384C877.035 306.384 875.712 305.947 874.731 305.072C873.749 304.197 873.259 302.981 873.259 301.424C873.259 298.096 875.701 296.432 880.587 296.432H883.499V295.344C883.499 294.299 883.243 293.509 882.731 292.976C882.219 292.443 881.387 292.176 880.235 292.176C879.189 292.176 878.347 292.379 877.707 292.784C877.067 293.189 876.523 293.712 876.075 294.352L873.739 292.368C874.251 291.451 875.072 290.683 876.203 290.064C877.355 289.424 878.837 289.104 880.651 289.104C882.827 289.104 884.523 289.616 885.739 290.64C886.976 291.643 887.595 293.147 887.595 295.152V302.928H889.547V306H887.147ZM880.075 303.568C881.056 303.568 881.867 303.344 882.507 302.896C883.168 302.427 883.499 301.797 883.499 301.008V298.8H880.683C878.443 298.8 877.323 299.504 877.323 300.912V301.552C877.323 302.213 877.568 302.715 878.059 303.056C878.549 303.397 879.221 303.568 880.075 303.568ZM881.195 287.6L878.731 286.416L881.771 280.432L885.227 282.16L881.195 287.6ZM909.086 307.728C909.086 309.456 908.361 310.725 906.91 311.536C905.481 312.368 903.241 312.784 900.19 312.784C898.697 312.784 897.449 312.688 896.446 312.496C895.444 312.325 894.633 312.069 894.014 311.728C893.417 311.387 892.99 310.971 892.734 310.48C892.478 310.011 892.35 309.477 892.35 308.88C892.35 307.963 892.617 307.259 893.15 306.768C893.684 306.277 894.43 305.915 895.39 305.68V305.424C894.75 305.211 894.238 304.912 893.854 304.528C893.492 304.144 893.31 303.611 893.31 302.928C893.31 302.117 893.577 301.509 894.11 301.104C894.665 300.699 895.39 300.389 896.286 300.176V300.016C895.305 299.547 894.537 298.885 893.982 298.032C893.428 297.179 893.15 296.144 893.15 294.928C893.15 294.011 893.31 293.2 893.63 292.496C893.972 291.771 894.441 291.163 895.038 290.672C895.657 290.16 896.393 289.776 897.246 289.52C898.1 289.243 899.049 289.104 900.094 289.104C901.204 289.104 902.206 289.253 903.102 289.552V288.848C903.102 288.208 903.305 287.675 903.71 287.248C904.137 286.821 904.724 286.608 905.47 286.608H908.446V289.68H904.542V290.224C905.353 290.715 905.972 291.355 906.398 292.144C906.846 292.912 907.07 293.84 907.07 294.928C907.07 295.845 906.9 296.667 906.558 297.392C906.238 298.117 905.769 298.725 905.15 299.216C904.553 299.707 903.817 300.091 902.942 300.368C902.089 300.624 901.14 300.752 900.094 300.752C899.668 300.752 899.252 300.741 898.846 300.72C898.462 300.677 898.089 300.603 897.726 300.496C897.428 300.603 897.14 300.773 896.862 301.008C896.585 301.243 896.446 301.552 896.446 301.936C896.446 302.448 896.692 302.768 897.182 302.896C897.673 303.003 898.26 303.056 898.942 303.056H902.686C903.838 303.056 904.82 303.173 905.63 303.408C906.441 303.621 907.102 303.941 907.614 304.368C908.126 304.773 908.5 305.264 908.734 305.84C908.969 306.416 909.086 307.045 909.086 307.728ZM905.246 308.016C905.246 307.525 905.044 307.131 904.638 306.832C904.254 306.555 903.529 306.416 902.462 306.416H896.766C896.126 306.779 895.806 307.312 895.806 308.016C895.806 308.592 896.041 309.072 896.51 309.456C897.001 309.84 897.822 310.032 898.974 310.032H901.63C904.041 310.032 905.246 309.36 905.246 308.016ZM900.094 298.064C901.14 298.064 901.908 297.819 902.398 297.328C902.889 296.816 903.134 296.155 903.134 295.344V294.512C903.134 293.701 902.889 293.051 902.398 292.56C901.908 292.048 901.14 291.792 900.094 291.792C899.07 291.792 898.313 292.048 897.822 292.56C897.332 293.051 897.086 293.701 897.086 294.512V295.344C897.086 296.155 897.332 296.816 897.822 297.328C898.313 297.819 899.07 298.064 900.094 298.064ZM912.242 302.768H916.338V292.72H912.242V289.488H920.434V294H920.69C920.839 293.424 921.042 292.869 921.298 292.336C921.575 291.781 921.916 291.301 922.322 290.896C922.748 290.469 923.26 290.128 923.858 289.872C924.455 289.616 925.17 289.488 926.002 289.488H927.794V293.328H924.402C923.164 293.328 922.194 293.691 921.49 294.416C920.786 295.141 920.434 296.069 920.434 297.2V302.768H926.162V306H912.242V302.768ZM944.709 306C943.707 306 942.928 305.755 942.373 305.264C941.84 304.752 941.52 304.048 941.413 303.152H941.253C940.955 304.176 940.368 304.976 939.493 305.552C938.619 306.107 937.541 306.384 936.261 306.384C934.597 306.384 933.275 305.947 932.293 305.072C931.312 304.197 930.821 302.981 930.821 301.424C930.821 298.096 933.264 296.432 938.149 296.432H941.061V295.344C941.061 294.299 940.805 293.509 940.293 292.976C939.781 292.443 938.949 292.176 937.797 292.176C936.752 292.176 935.909 292.379 935.269 292.784C934.629 293.189 934.085 293.712 933.637 294.352L931.301 292.368C931.813 291.451 932.635 290.683 933.765 290.064C934.917 289.424 936.4 289.104 938.213 289.104C940.389 289.104 942.085 289.616 943.301 290.64C944.539 291.643 945.157 293.147 945.157 295.152V302.928H947.109V306H944.709ZM937.637 303.568C938.619 303.568 939.429 303.344 940.069 302.896C940.731 302.427 941.061 301.797 941.061 301.008V298.8H938.245C936.005 298.8 934.885 299.504 934.885 300.912V301.552C934.885 302.213 935.131 302.715 935.621 303.056C936.112 303.397 936.784 303.568 937.637 303.568ZM950.617 302.768H955.673V292.72H950.297V289.488H955.673V286.8C955.673 286.139 955.758 285.541 955.929 285.008C956.121 284.453 956.409 283.984 956.793 283.6C957.177 283.195 957.657 282.885 958.233 282.672C958.83 282.437 959.523 282.32 960.313 282.32H965.881V285.552H959.769V289.488H965.881V292.72H959.769V302.768H965.145V306H950.617V302.768ZM977.004 306.384C975.746 306.384 974.615 306.181 973.612 305.776C972.631 305.371 971.788 304.795 971.084 304.048C970.402 303.301 969.868 302.395 969.484 301.328C969.122 300.261 968.94 299.067 968.94 297.744C968.94 296.421 969.122 295.227 969.484 294.16C969.868 293.093 970.402 292.187 971.084 291.44C971.788 290.693 972.631 290.117 973.612 289.712C974.615 289.307 975.746 289.104 977.004 289.104C978.242 289.104 979.362 289.307 980.364 289.712C981.367 290.117 982.21 290.693 982.892 291.44C983.596 292.187 984.13 293.093 984.492 294.16C984.876 295.227 985.068 296.421 985.068 297.744C985.068 299.067 984.876 300.261 984.492 301.328C984.13 302.395 983.596 303.301 982.892 304.048C982.21 304.795 981.367 305.371 980.364 305.776C979.362 306.181 978.242 306.384 977.004 306.384ZM977.004 303.248C978.178 303.248 979.106 302.896 979.788 302.192C980.471 301.467 980.812 300.411 980.812 299.024V296.464C980.812 295.077 980.471 294.032 979.788 293.328C979.106 292.603 978.178 292.24 977.004 292.24C975.831 292.24 974.903 292.603 974.22 293.328C973.538 294.032 973.196 295.077 973.196 296.464V299.024C973.196 300.411 973.538 301.467 974.22 302.192C974.903 302.896 975.831 303.248 977.004 303.248ZM1011.73 304.592L1008.85 302.64L1012.6 297.648L1006.87 295.696L1007.92 292.496L1013.59 294.48V288.432H1017.17V294.48L1022.84 292.496L1023.89 295.696L1018.16 297.648L1021.91 302.64L1019.03 304.592L1015.38 299.6L1011.73 304.592ZM1027.46 310.416L1037.99 281.68H1041.67L1031.14 310.416H1027.46Z" fill="#4C8859"/>
<path d="M100.459 138C99.4566 138 98.678 137.755 98.1233 137.264C97.59 136.752 97.27 136.048 97.1633 135.152H97.0033C96.7046 136.176 96.118 136.976 95.2433 137.552C94.3686 138.107 93.2913 138.384 92.0113 138.384C90.3473 138.384 89.0246 137.947 88.0433 137.072C87.062 136.197 86.5713 134.981 86.5713 133.424C86.5713 130.096 89.014 128.432 93.8993 128.432H96.8113V127.344C96.8113 126.299 96.5553 125.509 96.0433 124.976C95.5313 124.443 94.6993 124.176 93.5473 124.176C92.502 124.176 91.6593 124.379 91.0193 124.784C90.3793 125.189 89.8353 125.712 89.3873 126.352L87.0513 124.368C87.5633 123.451 88.3846 122.683 89.5153 122.064C90.6673 121.424 92.15 121.104 93.9633 121.104C96.1393 121.104 97.8353 121.616 99.0513 122.64C100.289 123.643 100.907 125.147 100.907 127.152V134.928H102.859V138H100.459ZM93.3873 135.568C94.3686 135.568 95.1793 135.344 95.8193 134.896C96.4806 134.427 96.8113 133.797 96.8113 133.008V130.8H93.9953C91.7553 130.8 90.6353 131.504 90.6353 132.912V133.552C90.6353 134.213 90.8806 134.715 91.3713 135.056C91.862 135.397 92.534 135.568 93.3873 135.568ZM113.567 138.352C112.457 138.352 111.668 138.117 111.199 137.648C110.729 137.179 110.495 136.603 110.495 135.92V134.96C110.495 134.277 110.729 133.701 111.199 133.232C111.668 132.763 112.457 132.528 113.567 132.528C114.676 132.528 115.465 132.763 115.935 133.232C116.404 133.701 116.639 134.277 116.639 134.96V135.92C116.639 136.603 116.404 137.179 115.935 137.648C115.465 138.117 114.676 138.352 113.567 138.352ZM113.567 126.992C112.457 126.992 111.668 126.757 111.199 126.288C110.729 125.819 110.495 125.243 110.495 124.56V123.6C110.495 122.917 110.729 122.341 111.199 121.872C111.668 121.403 112.457 121.168 113.567 121.168C114.676 121.168 115.465 121.403 115.935 121.872C116.404 122.341 116.639 122.917 116.639 123.6V124.56C116.639 125.243 116.404 125.819 115.935 126.288C115.465 126.757 114.676 126.992 113.567 126.992ZM125.554 114.32H129.65V124.4H129.81C130.173 123.504 130.728 122.736 131.474 122.096C132.242 121.435 133.298 121.104 134.642 121.104C136.264 121.104 137.576 121.648 138.578 122.736C139.602 123.803 140.114 125.339 140.114 127.344V138H136.018V127.92C136.018 125.531 134.984 124.336 132.914 124.336C132.488 124.336 132.082 124.389 131.698 124.496C131.314 124.603 130.962 124.773 130.642 125.008C130.344 125.221 130.098 125.488 129.906 125.808C129.736 126.128 129.65 126.512 129.65 126.96V138H125.554V114.32ZM151.942 138.384C150.683 138.384 149.552 138.181 148.55 137.776C147.568 137.371 146.726 136.795 146.022 136.048C145.339 135.301 144.806 134.395 144.422 133.328C144.059 132.261 143.878 131.067 143.878 129.744C143.878 128.421 144.059 127.227 144.422 126.16C144.806 125.093 145.339 124.187 146.022 123.44C146.726 122.693 147.568 122.117 148.55 121.712C149.552 121.307 150.683 121.104 151.942 121.104C153.179 121.104 154.299 121.307 155.302 121.712C156.304 122.117 157.147 122.693 157.83 123.44C158.534 124.187 159.067 125.093 159.43 126.16C159.814 127.227 160.006 128.421 160.006 129.744C160.006 131.067 159.814 132.261 159.43 133.328C159.067 134.395 158.534 135.301 157.83 136.048C157.147 136.795 156.304 137.371 155.302 137.776C154.299 138.181 153.179 138.384 151.942 138.384ZM151.942 135.248C153.115 135.248 154.043 134.896 154.726 134.192C155.408 133.467 155.75 132.411 155.75 131.024V128.464C155.75 127.077 155.408 126.032 154.726 125.328C154.043 124.603 153.115 124.24 151.942 124.24C150.768 124.24 149.84 124.603 149.158 125.328C148.475 126.032 148.134 127.077 148.134 128.464V131.024C148.134 132.411 148.475 133.467 149.158 134.192C149.84 134.896 150.768 135.248 151.942 135.248ZM168.665 138L162.745 121.488H167.033L169.241 128.496L171.097 134.576H171.321L173.177 128.496L175.385 121.488H179.513L173.593 138H168.665ZM190.701 138.384C189.378 138.384 188.205 138.181 187.181 137.776C186.157 137.371 185.293 136.795 184.589 136.048C183.906 135.301 183.383 134.405 183.021 133.36C182.658 132.293 182.477 131.099 182.477 129.776C182.477 128.432 182.658 127.227 183.021 126.16C183.405 125.093 183.938 124.187 184.621 123.44C185.303 122.693 186.125 122.117 187.085 121.712C188.066 121.307 189.165 121.104 190.381 121.104C191.575 121.104 192.653 121.307 193.613 121.712C194.573 122.096 195.383 122.651 196.045 123.376C196.727 124.101 197.25 124.976 197.613 126C197.975 127.024 198.157 128.155 198.157 129.392V130.736H186.573V131.152C186.573 132.347 186.946 133.317 187.693 134.064C188.439 134.789 189.485 135.152 190.829 135.152C191.853 135.152 192.727 134.949 193.453 134.544C194.199 134.117 194.818 133.563 195.309 132.88L197.645 135.216C197.047 136.091 196.173 136.837 195.021 137.456C193.89 138.075 192.45 138.384 190.701 138.384ZM190.413 124.112C189.261 124.112 188.333 124.475 187.629 125.2C186.925 125.925 186.573 126.885 186.573 128.08V128.304H194.061V128.016C194.061 126.821 193.73 125.872 193.069 125.168C192.429 124.464 191.543 124.112 190.413 124.112ZM202.304 134.768H206.4V124.72H202.304V121.488H210.496V126H210.752C210.902 125.424 211.104 124.869 211.36 124.336C211.638 123.781 211.979 123.301 212.384 122.896C212.811 122.469 213.323 122.128 213.92 121.872C214.518 121.616 215.232 121.488 216.064 121.488H217.856V125.328H214.464C213.227 125.328 212.256 125.691 211.552 126.416C210.848 127.141 210.496 128.069 210.496 129.2V134.768H216.224V138H202.304V134.768ZM86.9873 373.488H91.0833V376.4H91.3073C91.7553 375.397 92.3633 374.597 93.1313 374C93.9206 373.403 94.9553 373.104 96.2353 373.104C97.174 373.104 98.0273 373.285 98.7953 373.648C99.5846 373.989 100.257 374.523 100.811 375.248C101.366 375.952 101.793 376.848 102.091 377.936C102.39 379.024 102.539 380.293 102.539 381.744C102.539 383.195 102.39 384.464 102.091 385.552C101.793 386.64 101.366 387.547 100.811 388.272C100.257 388.976 99.5846 389.509 98.7953 389.872C98.0273 390.213 97.174 390.384 96.2353 390.384C94.9553 390.384 93.9206 390.085 93.1313 389.488C92.3633 388.891 91.7553 388.091 91.3073 387.088H91.0833V396.4H86.9873V373.488ZM94.5073 387.12C95.702 387.12 96.6193 386.757 97.2593 386.032C97.9206 385.307 98.2513 384.315 98.2513 383.056V380.432C98.2513 379.173 97.9206 378.181 97.2593 377.456C96.6193 376.731 95.702 376.368 94.5073 376.368C93.5686 376.368 92.758 376.603 92.0753 377.072C91.414 377.52 91.0833 378.213 91.0833 379.152V384.336C91.0833 385.275 91.414 385.979 92.0753 386.448C92.758 386.896 93.5686 387.12 94.5073 387.12ZM113.567 390.352C112.457 390.352 111.668 390.117 111.199 389.648C110.729 389.179 110.495 388.603 110.495 387.92V386.96C110.495 386.277 110.729 385.701 111.199 385.232C111.668 384.763 112.457 384.528 113.567 384.528C114.676 384.528 115.465 384.763 115.935 385.232C116.404 385.701 116.639 386.277 116.639 386.96V387.92C116.639 388.603 116.404 389.179 115.935 389.648C115.465 390.117 114.676 390.352 113.567 390.352ZM113.567 378.992C112.457 378.992 111.668 378.757 111.199 378.288C110.729 377.819 110.495 377.243 110.495 376.56V375.6C110.495 374.917 110.729 374.341 111.199 373.872C111.668 373.403 112.457 373.168 113.567 373.168C114.676 373.168 115.465 373.403 115.935 373.872C116.404 374.341 116.639 374.917 116.639 375.6V376.56C116.639 377.243 116.404 377.819 115.935 378.288C115.465 378.757 114.676 378.992 113.567 378.992ZM132.754 390.352C131.645 390.352 130.856 390.117 130.386 389.648C129.917 389.179 129.682 388.603 129.682 387.92V386.96C129.682 386.277 129.917 385.701 130.386 385.232C130.856 384.763 131.645 384.528 132.754 384.528C133.864 384.528 134.653 384.763 135.122 385.232C135.592 385.701 135.826 386.277 135.826 386.96V387.92C135.826 388.603 135.592 389.179 135.122 389.648C134.653 390.117 133.864 390.352 132.754 390.352ZM132.754 378.992C131.645 378.992 130.856 378.757 130.386 378.288C129.917 377.819 129.682 377.243 129.682 376.56V375.6C129.682 374.917 129.917 374.341 130.386 373.872C130.856 373.403 131.645 373.168 132.754 373.168C133.864 373.168 134.653 373.403 135.122 373.872C135.592 374.341 135.826 374.917 135.826 375.6V376.56C135.826 377.243 135.592 377.819 135.122 378.288C134.653 378.757 133.864 378.992 132.754 378.992ZM144.742 386.768H149.798V376.72H144.422V373.488H149.798V370.8C149.798 370.139 149.883 369.541 150.054 369.008C150.246 368.453 150.534 367.984 150.918 367.6C151.302 367.195 151.782 366.885 152.358 366.672C152.955 366.437 153.648 366.32 154.438 366.32H160.006V369.552H153.894V373.488H160.006V376.72H153.894V386.768H159.27V390H144.742V386.768ZM172.153 370.928C171.193 370.928 170.511 370.725 170.105 370.32C169.721 369.915 169.529 369.424 169.529 368.848V368.08C169.529 367.504 169.721 367.013 170.105 366.608C170.511 366.203 171.193 366 172.153 366C173.113 366 173.785 366.203 174.169 366.608C174.575 367.013 174.777 367.504 174.777 368.08V368.848C174.777 369.424 174.575 369.915 174.169 370.32C173.785 370.725 173.113 370.928 172.153 370.928ZM164.665 386.768H170.105V376.72H164.665V373.488H174.201V386.768H179.257V390H164.665V386.768ZM183.117 386.768H187.213V376.72H183.117V373.488H191.309V378H191.565C191.714 377.424 191.917 376.869 192.173 376.336C192.45 375.781 192.791 375.301 193.197 374.896C193.623 374.469 194.135 374.128 194.733 373.872C195.33 373.616 196.045 373.488 196.877 373.488H198.669V377.328H195.277C194.039 377.328 193.069 377.691 192.365 378.416C191.661 379.141 191.309 380.069 191.309 381.2V386.768H197.037V390H183.117V386.768ZM209.44 390.384C207.627 390.384 206.059 390.107 204.736 389.552C203.414 388.976 202.379 388.208 201.632 387.248L204.032 385.072C204.715 385.819 205.494 386.395 206.368 386.8C207.264 387.205 208.299 387.408 209.472 387.408C210.496 387.408 211.318 387.237 211.936 386.896C212.555 386.555 212.864 386.032 212.864 385.328C212.864 384.731 212.651 384.325 212.224 384.112C211.819 383.899 211.275 383.739 210.592 383.632L207.936 383.216C207.254 383.109 206.582 382.96 205.92 382.768C205.28 382.555 204.704 382.267 204.192 381.904C203.702 381.541 203.307 381.083 203.008 380.528C202.71 379.952 202.56 379.259 202.56 378.448C202.56 376.72 203.2 375.397 204.48 374.48C205.782 373.563 207.563 373.104 209.824 373.104C211.424 373.104 212.779 373.328 213.888 373.776C215.019 374.224 215.947 374.853 216.672 375.664L214.528 378.032C214.059 377.52 213.43 377.072 212.64 376.688C211.872 376.283 210.891 376.08 209.696 376.08C207.606 376.08 206.56 376.731 206.56 378.032C206.56 378.629 206.774 379.045 207.2 379.28C207.627 379.493 208.182 379.653 208.864 379.76L211.488 380.176C212.192 380.283 212.864 380.443 213.504 380.656C214.166 380.848 214.742 381.125 215.232 381.488C215.744 381.851 216.15 382.309 216.448 382.864C216.747 383.419 216.896 384.101 216.896 384.912C216.896 386.619 216.235 387.963 214.912 388.944C213.611 389.904 211.787 390.384 209.44 390.384ZM229.812 390C228.233 390 227.07 389.584 226.324 388.752C225.577 387.92 225.204 386.843 225.204 385.52V376.72H220.404V373.488H223.668C224.329 373.488 224.798 373.36 225.076 373.104C225.353 372.827 225.492 372.347 225.492 371.664V367.664H229.3V373.488H236.02V376.72H229.3V386.768H236.02V390H229.812ZM242.919 382.256V378.256H252.839V382.256H242.919ZM259.771 386.768H265.019V369.552H259.771V366.32H269.115V386.768H274.395V390H259.771V386.768ZM287.278 370.928C286.318 370.928 285.636 370.725 285.23 370.32C284.846 369.915 284.654 369.424 284.654 368.848V368.08C284.654 367.504 284.846 367.013 285.23 366.608C285.636 366.203 286.318 366 287.278 366C288.238 366 288.91 366.203 289.294 366.608C289.7 367.013 289.902 367.504 289.902 368.08V368.848C289.902 369.424 289.7 369.915 289.294 370.32C288.91 370.725 288.238 370.928 287.278 370.928ZM279.79 386.768H285.23V376.72H279.79V373.488H289.326V386.768H294.382V390H279.79V386.768ZM298.242 390V373.488H302.338V376.4H302.498C302.86 375.504 303.415 374.736 304.162 374.096C304.93 373.435 305.986 373.104 307.33 373.104C308.951 373.104 310.263 373.648 311.266 374.736C312.29 375.803 312.802 377.339 312.802 379.344V390H308.706V379.92C308.706 377.531 307.671 376.336 305.602 376.336C305.175 376.336 304.77 376.389 304.386 376.496C304.002 376.603 303.65 376.773 303.33 377.008C303.031 377.221 302.786 377.488 302.594 377.808C302.423 378.128 302.338 378.512 302.338 378.96V390H298.242ZM325.013 390.384C323.691 390.384 322.517 390.181 321.493 389.776C320.469 389.371 319.605 388.795 318.901 388.048C318.219 387.301 317.696 386.405 317.333 385.36C316.971 384.293 316.789 383.099 316.789 381.776C316.789 380.432 316.971 379.227 317.333 378.16C317.717 377.093 318.251 376.187 318.933 375.44C319.616 374.693 320.437 374.117 321.397 373.712C322.379 373.307 323.477 373.104 324.693 373.104C325.888 373.104 326.965 373.307 327.925 373.712C328.885 374.096 329.696 374.651 330.357 375.376C331.04 376.101 331.563 376.976 331.925 378C332.288 379.024 332.469 380.155 332.469 381.392V382.736H320.885V383.152C320.885 384.347 321.259 385.317 322.005 386.064C322.752 386.789 323.797 387.152 325.141 387.152C326.165 387.152 327.04 386.949 327.765 386.544C328.512 386.117 329.131 385.563 329.621 384.88L331.957 387.216C331.36 388.091 330.485 388.837 329.333 389.456C328.203 390.075 326.763 390.384 325.013 390.384ZM324.725 376.112C323.573 376.112 322.645 376.475 321.941 377.2C321.237 377.925 320.885 378.885 320.885 380.08V380.304H328.373V380.016C328.373 378.821 328.043 377.872 327.381 377.168C326.741 376.464 325.856 376.112 324.725 376.112Z" fill="#F4E498"/>
<path d="M248.743 142.416C247.463 142.416 246.535 142.117 245.959 141.52C245.383 140.923 245.095 140.155 245.095 139.216V137.616C245.095 137.061 245.149 136.581 245.255 136.176C245.383 135.749 245.533 135.376 245.703 135.056C245.874 134.736 246.066 134.448 246.279 134.192C246.493 133.936 246.695 133.691 246.887 133.456C247.25 133.029 247.495 132.667 247.623 132.368C247.773 132.048 247.847 131.717 247.847 131.376C247.847 130.096 246.61 129.456 244.135 129.456H241.351V126.64H244.135C246.61 126.64 247.847 126 247.847 124.72C247.847 124.379 247.773 124.059 247.623 123.76C247.495 123.44 247.25 123.067 246.887 122.64C246.695 122.405 246.493 122.16 246.279 121.904C246.066 121.648 245.874 121.36 245.703 121.04C245.533 120.72 245.383 120.357 245.255 119.952C245.149 119.525 245.095 119.035 245.095 118.48V116.88C245.095 115.941 245.383 115.173 245.959 114.576C246.535 113.979 247.463 113.68 248.743 113.68H254.407V116.496H248.423V118.288C248.423 119.12 248.551 119.76 248.807 120.208C249.063 120.656 249.362 121.093 249.703 121.52C250.066 121.968 250.407 122.448 250.727 122.96C251.047 123.472 251.207 124.069 251.207 124.752C251.207 125.648 250.898 126.373 250.279 126.928C249.661 127.461 248.743 127.803 247.527 127.952V128.144C248.743 128.293 249.661 128.645 250.279 129.2C250.898 129.733 251.207 130.448 251.207 131.344C251.207 132.027 251.047 132.624 250.727 133.136C250.407 133.648 250.066 134.128 249.703 134.576C249.362 135.003 249.063 135.44 248.807 135.888C248.551 136.336 248.423 136.976 248.423 137.808V139.6H254.407V142.416H248.743ZM247.879 180.352C246.77 180.352 245.981 180.117 245.511 179.648C245.042 179.179 244.807 178.603 244.807 177.92V176.96C244.807 176.277 245.042 175.701 245.511 175.232C245.981 174.763 246.77 174.528 247.879 174.528C248.989 174.528 249.778 174.763 250.247 175.232C250.717 175.701 250.951 176.277 250.951 176.96V177.92C250.951 178.603 250.717 179.179 250.247 179.648C249.778 180.117 248.989 180.352 247.879 180.352ZM247.879 168.992C246.77 168.992 245.981 168.757 245.511 168.288C245.042 167.819 244.807 167.243 244.807 166.56V165.6C244.807 164.917 245.042 164.341 245.511 163.872C245.981 163.403 246.77 163.168 247.879 163.168C248.989 163.168 249.778 163.403 250.247 163.872C250.717 164.341 250.951 164.917 250.951 165.6V166.56C250.951 167.243 250.717 167.819 250.247 168.288C249.778 168.757 248.989 168.992 247.879 168.992ZM399.331 174.784H404.835L400.643 184.736H397.539L399.331 174.784ZM401.379 168.992C400.27 168.992 399.481 168.757 399.011 168.288C398.542 167.819 398.307 167.243 398.307 166.56V165.6C398.307 164.917 398.542 164.341 399.011 163.872C399.481 163.403 400.27 163.168 401.379 163.168C402.489 163.168 403.278 163.403 403.747 163.872C404.217 164.341 404.451 164.917 404.451 165.6V166.56C404.451 167.243 404.217 167.819 403.747 168.288C403.278 168.757 402.489 168.992 401.379 168.992ZM93.5153 197.68C94.7953 197.68 95.7233 197.979 96.2993 198.576C96.8753 199.173 97.1633 199.941 97.1633 200.88V202.48C97.1633 203.035 97.0993 203.525 96.9713 203.952C96.8646 204.357 96.726 204.72 96.5553 205.04C96.3846 205.36 96.1926 205.648 95.9793 205.904C95.766 206.16 95.5633 206.405 95.3713 206.64C95.0086 207.067 94.7526 207.44 94.6033 207.76C94.4753 208.059 94.4113 208.379 94.4113 208.72C94.4113 210 95.6486 210.64 98.1233 210.64H100.907V213.456H98.1233C95.6486 213.456 94.4113 214.096 94.4113 215.376C94.4113 215.717 94.4753 216.048 94.6033 216.368C94.7526 216.667 95.0086 217.029 95.3713 217.456C95.5633 217.691 95.766 217.936 95.9793 218.192C96.1926 218.448 96.3846 218.736 96.5553 219.056C96.726 219.376 96.8646 219.749 96.9713 220.176C97.0993 220.581 97.1633 221.061 97.1633 221.616V223.216C97.1633 224.155 96.8753 224.923 96.2993 225.52C95.7233 226.117 94.7953 226.416 93.5153 226.416H87.8513V223.6H93.8353V221.808C93.8353 220.976 93.7073 220.336 93.4513 219.888C93.1953 219.44 92.8966 219.003 92.5553 218.576C92.1926 218.128 91.8513 217.648 91.5313 217.136C91.2113 216.624 91.0513 216.027 91.0513 215.344C91.0513 214.448 91.3606 213.733 91.9793 213.2C92.598 212.645 93.5153 212.293 94.7313 212.144V211.952C93.5153 211.803 92.598 211.461 91.9793 210.928C91.3606 210.373 91.0513 209.648 91.0513 208.752C91.0513 208.069 91.2113 207.472 91.5313 206.96C91.8513 206.448 92.1926 205.968 92.5553 205.52C92.8966 205.093 93.1953 204.656 93.4513 204.208C93.7073 203.76 93.8353 203.12 93.8353 202.288V200.496H87.8513V197.68H93.5153ZM363.868 394.416C362.588 394.416 361.66 394.117 361.084 393.52C360.508 392.923 360.22 392.155 360.22 391.216V389.616C360.22 389.061 360.274 388.581 360.38 388.176C360.508 387.749 360.658 387.376 360.828 387.056C360.999 386.736 361.191 386.448 361.404 386.192C361.618 385.936 361.82 385.691 362.012 385.456C362.375 385.029 362.62 384.667 362.748 384.368C362.898 384.048 362.972 383.717 362.972 383.376C362.972 382.096 361.735 381.456 359.26 381.456H356.476V378.64H359.26C361.735 378.64 362.972 378 362.972 376.72C362.972 376.379 362.898 376.059 362.748 375.76C362.62 375.44 362.375 375.067 362.012 374.64C361.82 374.405 361.618 374.16 361.404 373.904C361.191 373.648 360.999 373.36 360.828 373.04C360.658 372.72 360.508 372.357 360.38 371.952C360.274 371.525 360.22 371.035 360.22 370.48V368.88C360.22 367.941 360.508 367.173 361.084 366.576C361.66 365.979 362.588 365.68 363.868 365.68H369.532V368.496H363.548V370.288C363.548 371.12 363.676 371.76 363.932 372.208C364.188 372.656 364.487 373.093 364.828 373.52C365.191 373.968 365.532 374.448 365.852 374.96C366.172 375.472 366.332 376.069 366.332 376.752C366.332 377.648 366.023 378.373 365.404 378.928C364.786 379.461 363.868 379.803 362.652 379.952V380.144C363.868 380.293 364.786 380.645 365.404 381.2C366.023 381.733 366.332 382.448 366.332 383.344C366.332 384.027 366.172 384.624 365.852 385.136C365.532 385.648 365.191 386.128 364.828 386.576C364.487 387.003 364.188 387.44 363.932 387.888C363.676 388.336 363.548 388.976 363.548 389.808V391.6H369.532V394.416H363.868ZM363.004 432.352C361.895 432.352 361.106 432.117 360.636 431.648C360.167 431.179 359.932 430.603 359.932 429.92V428.96C359.932 428.277 360.167 427.701 360.636 427.232C361.106 426.763 361.895 426.528 363.004 426.528C364.114 426.528 364.903 426.763 365.372 427.232C365.842 427.701 366.076 428.277 366.076 428.96V429.92C366.076 430.603 365.842 431.179 365.372 431.648C364.903 432.117 364.114 432.352 363.004 432.352ZM363.004 420.992C361.895 420.992 361.106 420.757 360.636 420.288C360.167 419.819 359.932 419.243 359.932 418.56V417.6C359.932 416.917 360.167 416.341 360.636 415.872C361.106 415.403 361.895 415.168 363.004 415.168C364.114 415.168 364.903 415.403 365.372 415.872C365.842 416.341 366.076 416.917 366.076 417.6V418.56C366.076 419.243 365.842 419.819 365.372 420.288C364.903 420.757 364.114 420.992 363.004 420.992ZM476.081 426.784H481.585L477.393 436.736H474.289L476.081 426.784ZM478.129 420.992C477.02 420.992 476.231 420.757 475.761 420.288C475.292 419.819 475.057 419.243 475.057 418.56V417.6C475.057 416.917 475.292 416.341 475.761 415.872C476.231 415.403 477.02 415.168 478.129 415.168C479.239 415.168 480.028 415.403 480.497 415.872C480.967 416.341 481.201 416.917 481.201 417.6V418.56C481.201 419.243 480.967 419.819 480.497 420.288C480.028 420.757 479.239 420.992 478.129 420.992ZM93.5153 449.68C94.7953 449.68 95.7233 449.979 96.2993 450.576C96.8753 451.173 97.1633 451.941 97.1633 452.88V454.48C97.1633 455.035 97.0993 455.525 96.9713 455.952C96.8646 456.357 96.726 456.72 96.5553 457.04C96.3846 457.36 96.1926 457.648 95.9793 457.904C95.766 458.16 95.5633 458.405 95.3713 458.64C95.0086 459.067 94.7526 459.44 94.6033 459.76C94.4753 460.059 94.4113 460.379 94.4113 460.72C94.4113 462 95.6486 462.64 98.1233 462.64H100.907V465.456H98.1233C95.6486 465.456 94.4113 466.096 94.4113 467.376C94.4113 467.717 94.4753 468.048 94.6033 468.368C94.7526 468.667 95.0086 469.029 95.3713 469.456C95.5633 469.691 95.766 469.936 95.9793 470.192C96.1926 470.448 96.3846 470.736 96.5553 471.056C96.726 471.376 96.8646 471.749 96.9713 472.176C97.0993 472.581 97.1633 473.061 97.1633 473.616V475.216C97.1633 476.155 96.8753 476.923 96.2993 477.52C95.7233 478.117 94.7953 478.416 93.5153 478.416H87.8513V475.6H93.8353V473.808C93.8353 472.976 93.7073 472.336 93.4513 471.888C93.1953 471.44 92.8966 471.003 92.5553 470.576C92.1926 470.128 91.8513 469.648 91.5313 469.136C91.2113 468.624 91.0513 468.027 91.0513 467.344C91.0513 466.448 91.3606 465.733 91.9793 465.2C92.598 464.645 93.5153 464.293 94.7313 464.144V463.952C93.5153 463.803 92.598 463.461 91.9793 462.928C91.3606 462.373 91.0513 461.648 91.0513 460.752C91.0513 460.069 91.2113 459.472 91.5313 458.96C91.8513 458.448 92.1926 457.968 92.5553 457.52C92.8966 457.093 93.1953 456.656 93.4513 456.208C93.7073 455.76 93.8353 455.12 93.8353 454.288V452.496H87.8513V449.68H93.5153Z" fill="white"/>
<path d="M152.582 180.384C151.323 180.384 150.192 180.181 149.19 179.776C148.187 179.371 147.334 178.795 146.63 178.048C145.947 177.301 145.414 176.395 145.03 175.328C144.667 174.261 144.486 173.067 144.486 171.744C144.486 170.421 144.667 169.227 145.03 168.16C145.414 167.093 145.947 166.187 146.63 165.44C147.334 164.693 148.176 164.117 149.158 163.712C150.16 163.307 151.291 163.104 152.55 163.104C154.299 163.104 155.707 163.467 156.774 164.192C157.84 164.917 158.651 165.877 159.206 167.072L156.038 168.8C155.739 168.096 155.312 167.531 154.758 167.104C154.224 166.656 153.488 166.432 152.55 166.432C151.334 166.432 150.395 166.784 149.734 167.488C149.094 168.192 148.774 169.152 148.774 170.368V173.12C148.774 174.315 149.094 175.275 149.734 176C150.395 176.704 151.355 177.056 152.614 177.056C153.595 177.056 154.374 176.832 154.95 176.384C155.547 175.936 156.027 175.339 156.39 174.592L159.462 176.416C158.907 177.589 158.064 178.549 156.934 179.296C155.824 180.021 154.374 180.384 152.582 180.384ZM171.129 180.384C169.871 180.384 168.74 180.181 167.737 179.776C166.756 179.371 165.913 178.795 165.209 178.048C164.527 177.301 163.993 176.395 163.609 175.328C163.247 174.261 163.065 173.067 163.065 171.744C163.065 170.421 163.247 169.227 163.609 168.16C163.993 167.093 164.527 166.187 165.209 165.44C165.913 164.693 166.756 164.117 167.737 163.712C168.74 163.307 169.871 163.104 171.129 163.104C172.367 163.104 173.487 163.307 174.489 163.712C175.492 164.117 176.335 164.693 177.017 165.44C177.721 166.187 178.255 167.093 178.617 168.16C179.001 169.227 179.193 170.421 179.193 171.744C179.193 173.067 179.001 174.261 178.617 175.328C178.255 176.395 177.721 177.301 177.017 178.048C176.335 178.795 175.492 179.371 174.489 179.776C173.487 180.181 172.367 180.384 171.129 180.384ZM171.129 177.248C172.303 177.248 173.231 176.896 173.913 176.192C174.596 175.467 174.937 174.411 174.937 173.024V170.464C174.937 169.077 174.596 168.032 173.913 167.328C173.231 166.603 172.303 166.24 171.129 166.24C169.956 166.24 169.028 166.603 168.345 167.328C167.663 168.032 167.321 169.077 167.321 170.464V173.024C167.321 174.411 167.663 175.467 168.345 176.192C169.028 176.896 169.956 177.248 171.129 177.248ZM183.021 176.768H188.269V159.552H183.021V156.32H192.365V176.768H197.645V180H183.021V176.768ZM209.504 180.384C208.246 180.384 207.115 180.181 206.112 179.776C205.131 179.371 204.288 178.795 203.584 178.048C202.902 177.301 202.368 176.395 201.984 175.328C201.622 174.261 201.44 173.067 201.44 171.744C201.44 170.421 201.622 169.227 201.984 168.16C202.368 167.093 202.902 166.187 203.584 165.44C204.288 164.693 205.131 164.117 206.112 163.712C207.115 163.307 208.246 163.104 209.504 163.104C210.742 163.104 211.862 163.307 212.864 163.712C213.867 164.117 214.71 164.693 215.392 165.44C216.096 166.187 216.63 167.093 216.992 168.16C217.376 169.227 217.568 170.421 217.568 171.744C217.568 173.067 217.376 174.261 216.992 175.328C216.63 176.395 216.096 177.301 215.392 178.048C214.71 178.795 213.867 179.371 212.864 179.776C211.862 180.181 210.742 180.384 209.504 180.384ZM209.504 177.248C210.678 177.248 211.606 176.896 212.288 176.192C212.971 175.467 213.312 174.411 213.312 173.024V170.464C213.312 169.077 212.971 168.032 212.288 167.328C211.606 166.603 210.678 166.24 209.504 166.24C208.331 166.24 207.403 166.603 206.72 167.328C206.038 168.032 205.696 169.077 205.696 170.464V173.024C205.696 174.411 206.038 175.467 206.72 176.192C207.403 176.896 208.331 177.248 209.504 177.248ZM221.492 176.768H225.588V166.72H221.492V163.488H229.684V168H229.94C230.089 167.424 230.292 166.869 230.548 166.336C230.825 165.781 231.166 165.301 231.572 164.896C231.998 164.469 232.51 164.128 233.108 163.872C233.705 163.616 234.42 163.488 235.252 163.488H237.044V167.328H233.652C232.414 167.328 231.444 167.691 230.74 168.416C230.036 169.141 229.684 170.069 229.684 171.2V176.768H235.412V180H221.492V176.768ZM144.742 428.768H149.798V418.72H144.422V415.488H149.798V412.8C149.798 412.139 149.883 411.541 150.054 411.008C150.246 410.453 150.534 409.984 150.918 409.6C151.302 409.195 151.782 408.885 152.358 408.672C152.955 408.437 153.648 408.32 154.438 408.32H160.006V411.552H153.894V415.488H160.006V418.72H153.894V428.768H159.27V432H144.742V428.768ZM171.129 432.384C169.871 432.384 168.74 432.181 167.737 431.776C166.756 431.371 165.913 430.795 165.209 430.048C164.527 429.301 163.993 428.395 163.609 427.328C163.247 426.261 163.065 425.067 163.065 423.744C163.065 422.421 163.247 421.227 163.609 420.16C163.993 419.093 164.527 418.187 165.209 417.44C165.913 416.693 166.756 416.117 167.737 415.712C168.74 415.307 169.871 415.104 171.129 415.104C172.367 415.104 173.487 415.307 174.489 415.712C175.492 416.117 176.335 416.693 177.017 417.44C177.721 418.187 178.255 419.093 178.617 420.16C179.001 421.227 179.193 422.421 179.193 423.744C179.193 425.067 179.001 426.261 178.617 427.328C178.255 428.395 177.721 429.301 177.017 430.048C176.335 430.795 175.492 431.371 174.489 431.776C173.487 432.181 172.367 432.384 171.129 432.384ZM171.129 429.248C172.303 429.248 173.231 428.896 173.913 428.192C174.596 427.467 174.937 426.411 174.937 425.024V422.464C174.937 421.077 174.596 420.032 173.913 419.328C173.231 418.603 172.303 418.24 171.129 418.24C169.956 418.24 169.028 418.603 168.345 419.328C167.663 420.032 167.321 421.077 167.321 422.464V425.024C167.321 426.411 167.663 427.467 168.345 428.192C169.028 428.896 169.956 429.248 171.129 429.248ZM183.117 432V415.488H187.213V418.4H187.373C187.735 417.504 188.29 416.736 189.037 416.096C189.805 415.435 190.861 415.104 192.205 415.104C193.826 415.104 195.138 415.648 196.141 416.736C197.165 417.803 197.677 419.339 197.677 421.344V432H193.581V421.92C193.581 419.531 192.546 418.336 190.477 418.336C190.05 418.336 189.645 418.389 189.261 418.496C188.877 418.603 188.525 418.773 188.205 419.008C187.906 419.221 187.661 419.488 187.469 419.808C187.298 420.128 187.213 420.512 187.213 420.96V432H183.117ZM210.624 432C209.046 432 207.883 431.584 207.136 430.752C206.39 429.92 206.016 428.843 206.016 427.52V418.72H201.216V415.488H204.48C205.142 415.488 205.611 415.36 205.888 415.104C206.166 414.827 206.304 414.347 206.304 413.664V409.664H210.112V415.488H216.832V418.72H210.112V428.768H216.832V432H210.624ZM223.732 424.256V420.256H233.652V424.256H223.732ZM238.727 415.488H242.151L243.559 429.12H243.847L246.087 415.488H249.831L252.039 429.12H252.327L253.767 415.488H257.031L254.919 432H249.959L248.039 419.872H247.751L245.799 432H240.839L238.727 415.488ZM267.451 432.384C266.128 432.384 264.955 432.181 263.931 431.776C262.907 431.371 262.043 430.795 261.339 430.048C260.656 429.301 260.133 428.405 259.771 427.36C259.408 426.293 259.227 425.099 259.227 423.776C259.227 422.432 259.408 421.227 259.771 420.16C260.155 419.093 260.688 418.187 261.371 417.44C262.053 416.693 262.875 416.117 263.835 415.712C264.816 415.307 265.915 415.104 267.131 415.104C268.325 415.104 269.403 415.307 270.363 415.712C271.323 416.096 272.133 416.651 272.795 417.376C273.477 418.101 274 418.976 274.363 420C274.725 421.024 274.907 422.155 274.907 423.392V424.736H263.323V425.152C263.323 426.347 263.696 427.317 264.443 428.064C265.189 428.789 266.235 429.152 267.579 429.152C268.603 429.152 269.477 428.949 270.203 428.544C270.949 428.117 271.568 427.563 272.059 426.88L274.395 429.216C273.797 430.091 272.923 430.837 271.771 431.456C270.64 432.075 269.2 432.384 267.451 432.384ZM267.163 418.112C266.011 418.112 265.083 418.475 264.379 419.2C263.675 419.925 263.323 420.885 263.323 422.08V422.304H270.811V422.016C270.811 420.821 270.48 419.872 269.819 419.168C269.179 418.464 268.293 418.112 267.163 418.112ZM287.278 412.928C286.318 412.928 285.636 412.725 285.23 412.32C284.846 411.915 284.654 411.424 284.654 410.848V410.08C284.654 409.504 284.846 409.013 285.23 408.608C285.636 408.203 286.318 408 287.278 408C288.238 408 288.91 408.203 289.294 408.608C289.7 409.013 289.902 409.504 289.902 410.08V410.848C289.902 411.424 289.7 411.915 289.294 412.32C288.91 412.725 288.238 412.928 287.278 412.928ZM279.79 428.768H285.23V418.72H279.79V415.488H289.326V428.768H294.382V432H279.79V428.768ZM314.274 433.728C314.274 435.456 313.548 436.725 312.098 437.536C310.668 438.368 308.428 438.784 305.378 438.784C303.884 438.784 302.636 438.688 301.634 438.496C300.631 438.325 299.82 438.069 299.202 437.728C298.604 437.387 298.178 436.971 297.922 436.48C297.666 436.011 297.538 435.477 297.538 434.88C297.538 433.963 297.804 433.259 298.338 432.768C298.871 432.277 299.618 431.915 300.578 431.68V431.424C299.938 431.211 299.426 430.912 299.042 430.528C298.679 430.144 298.498 429.611 298.498 428.928C298.498 428.117 298.764 427.509 299.298 427.104C299.852 426.699 300.578 426.389 301.474 426.176V426.016C300.492 425.547 299.724 424.885 299.17 424.032C298.615 423.179 298.338 422.144 298.338 420.928C298.338 420.011 298.498 419.2 298.818 418.496C299.159 417.771 299.628 417.163 300.226 416.672C300.844 416.16 301.58 415.776 302.434 415.52C303.287 415.243 304.236 415.104 305.282 415.104C306.391 415.104 307.394 415.253 308.29 415.552V414.848C308.29 414.208 308.492 413.675 308.898 413.248C309.324 412.821 309.911 412.608 310.658 412.608H313.634V415.68H309.73V416.224C310.54 416.715 311.159 417.355 311.586 418.144C312.034 418.912 312.258 419.84 312.258 420.928C312.258 421.845 312.087 422.667 311.746 423.392C311.426 424.117 310.956 424.725 310.338 425.216C309.74 425.707 309.004 426.091 308.13 426.368C307.276 426.624 306.327 426.752 305.282 426.752C304.855 426.752 304.439 426.741 304.034 426.72C303.65 426.677 303.276 426.603 302.914 426.496C302.615 426.603 302.327 426.773 302.05 427.008C301.772 427.243 301.634 427.552 301.634 427.936C301.634 428.448 301.879 428.768 302.37 428.896C302.86 429.003 303.447 429.056 304.13 429.056H307.874C309.026 429.056 310.007 429.173 310.818 429.408C311.628 429.621 312.29 429.941 312.802 430.368C313.314 430.773 313.687 431.264 313.922 431.84C314.156 432.416 314.274 433.045 314.274 433.728ZM310.434 434.016C310.434 433.525 310.231 433.131 309.826 432.832C309.442 432.555 308.716 432.416 307.65 432.416H301.954C301.314 432.779 300.994 433.312 300.994 434.016C300.994 434.592 301.228 435.072 301.698 435.456C302.188 435.84 303.01 436.032 304.162 436.032H306.818C309.228 436.032 310.434 435.36 310.434 434.016ZM305.282 424.064C306.327 424.064 307.095 423.819 307.586 423.328C308.076 422.816 308.322 422.155 308.322 421.344V420.512C308.322 419.701 308.076 419.051 307.586 418.56C307.095 418.048 306.327 417.792 305.282 417.792C304.258 417.792 303.5 418.048 303.01 418.56C302.519 419.051 302.274 419.701 302.274 420.512V421.344C302.274 422.155 302.519 422.816 303.01 423.328C303.5 423.819 304.258 424.064 305.282 424.064ZM317.429 408.32H321.525V418.4H321.685C322.048 417.504 322.603 416.736 323.349 416.096C324.117 415.435 325.173 415.104 326.517 415.104C328.139 415.104 329.451 415.648 330.453 416.736C331.477 417.803 331.989 419.339 331.989 421.344V432H327.893V421.92C327.893 419.531 326.859 418.336 324.789 418.336C324.363 418.336 323.957 418.389 323.573 418.496C323.189 418.603 322.837 418.773 322.517 419.008C322.219 419.221 321.973 419.488 321.781 419.808C321.611 420.128 321.525 420.512 321.525 420.96V432H317.429V408.32ZM344.937 432C343.358 432 342.195 431.584 341.449 430.752C340.702 429.92 340.329 428.843 340.329 427.52V418.72H335.529V415.488H338.793C339.454 415.488 339.923 415.36 340.201 415.104C340.478 414.827 340.617 414.347 340.617 413.664V409.664H344.425V415.488H351.145V418.72H344.425V428.768H351.145V432H344.937Z" fill="#B2D1FF"/>
<path d="M278.862 163.488H282.958V166.4H283.182C283.63 165.397 284.238 164.597 285.006 164C285.796 163.403 286.83 163.104 288.11 163.104C289.049 163.104 289.902 163.285 290.67 163.648C291.46 163.989 292.132 164.523 292.686 165.248C293.241 165.952 293.668 166.848 293.966 167.936C294.265 169.024 294.414 170.293 294.414 171.744C294.414 173.195 294.265 174.464 293.966 175.552C293.668 176.64 293.241 177.547 292.686 178.272C292.132 178.976 291.46 179.509 290.67 179.872C289.902 180.213 289.049 180.384 288.11 180.384C286.83 180.384 285.796 180.085 285.006 179.488C284.238 178.891 283.63 178.091 283.182 177.088H282.958V186.4H278.862V163.488ZM286.382 177.12C287.577 177.12 288.494 176.757 289.134 176.032C289.796 175.307 290.126 174.315 290.126 173.056V170.432C290.126 169.173 289.796 168.181 289.134 167.456C288.494 166.731 287.577 166.368 286.382 166.368C285.444 166.368 284.633 166.603 283.95 167.072C283.289 167.52 282.958 168.213 282.958 169.152V174.336C282.958 175.275 283.289 175.979 283.95 176.448C284.633 176.896 285.444 177.12 286.382 177.12ZM308.546 177.088H308.386C308.023 177.984 307.458 178.763 306.69 179.424C305.943 180.064 304.898 180.384 303.554 180.384C301.932 180.384 300.61 179.851 299.586 178.784C298.583 177.696 298.082 176.149 298.082 174.144V163.488H302.178V173.568C302.178 175.957 303.212 177.152 305.282 177.152C305.687 177.152 306.082 177.099 306.466 176.992C306.871 176.885 307.223 176.725 307.522 176.512C307.842 176.277 308.087 176 308.258 175.68C308.45 175.36 308.546 174.976 308.546 174.528V163.488H312.642V180H308.546V177.088ZM317.429 176.768H321.525V166.72H317.429V163.488H325.621V168H325.877C326.027 167.424 326.229 166.869 326.485 166.336C326.763 165.781 327.104 165.301 327.509 164.896C327.936 164.469 328.448 164.128 329.045 163.872C329.643 163.616 330.357 163.488 331.189 163.488H332.981V167.328H329.589C328.352 167.328 327.381 167.691 326.677 168.416C325.973 169.141 325.621 170.069 325.621 171.2V176.768H331.349V180H317.429V176.768ZM336.425 163.488H340.521V166.4H340.745C341.193 165.397 341.801 164.597 342.569 164C343.358 163.403 344.393 163.104 345.673 163.104C346.611 163.104 347.465 163.285 348.233 163.648C349.022 163.989 349.694 164.523 350.249 165.248C350.803 165.952 351.23 166.848 351.529 167.936C351.827 169.024 351.977 170.293 351.977 171.744C351.977 173.195 351.827 174.464 351.529 175.552C351.23 176.64 350.803 177.547 350.249 178.272C349.694 178.976 349.022 179.509 348.233 179.872C347.465 180.213 346.611 180.384 345.673 180.384C344.393 180.384 343.358 180.085 342.569 179.488C341.801 178.891 341.193 178.091 340.745 177.088H340.521V186.4H336.425V163.488ZM343.945 177.12C345.139 177.12 346.057 176.757 346.697 176.032C347.358 175.307 347.689 174.315 347.689 173.056V170.432C347.689 169.173 347.358 168.181 346.697 167.456C346.057 166.731 345.139 166.368 343.945 166.368C343.006 166.368 342.195 166.603 341.513 167.072C340.851 167.52 340.521 168.213 340.521 169.152V174.336C340.521 175.275 340.851 175.979 341.513 176.448C342.195 176.896 343.006 177.12 343.945 177.12ZM355.708 176.768H360.956V159.552H355.708V156.32H365.052V176.768H370.332V180H355.708V176.768ZM382.576 180.384C381.253 180.384 380.08 180.181 379.056 179.776C378.032 179.371 377.168 178.795 376.464 178.048C375.781 177.301 375.258 176.405 374.896 175.36C374.533 174.293 374.352 173.099 374.352 171.776C374.352 170.432 374.533 169.227 374.896 168.16C375.28 167.093 375.813 166.187 376.496 165.44C377.178 164.693 378 164.117 378.96 163.712C379.941 163.307 381.04 163.104 382.256 163.104C383.45 163.104 384.528 163.307 385.488 163.712C386.448 164.096 387.258 164.651 387.92 165.376C388.602 166.101 389.125 166.976 389.488 168C389.85 169.024 390.032 170.155 390.032 171.392V172.736H378.448V173.152C378.448 174.347 378.821 175.317 379.568 176.064C380.314 176.789 381.36 177.152 382.704 177.152C383.728 177.152 384.602 176.949 385.328 176.544C386.074 176.117 386.693 175.563 387.184 174.88L389.52 177.216C388.922 178.091 388.048 178.837 386.896 179.456C385.765 180.075 384.325 180.384 382.576 180.384ZM382.288 166.112C381.136 166.112 380.208 166.475 379.504 167.2C378.8 167.925 378.448 168.885 378.448 170.08V170.304H385.936V170.016C385.936 168.821 385.605 167.872 384.944 167.168C384.304 166.464 383.418 166.112 382.288 166.112ZM393.987 408.32H398.083V418.4H398.307C398.755 417.397 399.363 416.597 400.131 416C400.921 415.403 401.955 415.104 403.235 415.104C404.174 415.104 405.027 415.285 405.795 415.648C406.585 415.989 407.257 416.523 407.811 417.248C408.366 417.952 408.793 418.848 409.091 419.936C409.39 421.024 409.539 422.293 409.539 423.744C409.539 425.195 409.39 426.464 409.091 427.552C408.793 428.64 408.366 429.547 407.811 430.272C407.257 430.976 406.585 431.509 405.795 431.872C405.027 432.213 404.174 432.384 403.235 432.384C401.955 432.384 400.921 432.085 400.131 431.488C399.363 430.891 398.755 430.091 398.307 429.088H398.083V432H393.987V408.32ZM401.507 429.12C402.702 429.12 403.619 428.757 404.259 428.032C404.921 427.307 405.251 426.315 405.251 425.056V422.432C405.251 421.173 404.921 420.181 404.259 419.456C403.619 418.731 402.702 418.368 401.507 418.368C400.569 418.368 399.758 418.603 399.075 419.072C398.414 419.52 398.083 420.213 398.083 421.152V426.336C398.083 427.275 398.414 427.979 399.075 428.448C399.758 428.896 400.569 429.12 401.507 429.12ZM420.567 432.384C419.308 432.384 418.177 432.181 417.175 431.776C416.193 431.371 415.351 430.795 414.647 430.048C413.964 429.301 413.431 428.395 413.047 427.328C412.684 426.261 412.503 425.067 412.503 423.744C412.503 422.421 412.684 421.227 413.047 420.16C413.431 419.093 413.964 418.187 414.647 417.44C415.351 416.693 416.193 416.117 417.175 415.712C418.177 415.307 419.308 415.104 420.567 415.104C421.804 415.104 422.924 415.307 423.927 415.712C424.929 416.117 425.772 416.693 426.455 417.44C427.159 418.187 427.692 419.093 428.055 420.16C428.439 421.227 428.631 422.421 428.631 423.744C428.631 425.067 428.439 426.261 428.055 427.328C427.692 428.395 427.159 429.301 426.455 430.048C425.772 430.795 424.929 431.371 423.927 431.776C422.924 432.181 421.804 432.384 420.567 432.384ZM420.567 429.248C421.74 429.248 422.668 428.896 423.351 428.192C424.033 427.467 424.375 426.411 424.375 425.024V422.464C424.375 421.077 424.033 420.032 423.351 419.328C422.668 418.603 421.74 418.24 420.567 418.24C419.393 418.24 418.465 418.603 417.783 419.328C417.1 420.032 416.759 421.077 416.759 422.464V425.024C416.759 426.411 417.1 427.467 417.783 428.192C418.465 428.896 419.393 429.248 420.567 429.248ZM432.458 428.768H437.706V411.552H432.458V408.32H441.802V428.768H447.082V432H432.458V428.768ZM462.238 429.088H462.014C461.566 430.091 460.947 430.891 460.158 431.488C459.39 432.085 458.366 432.384 457.086 432.384C456.147 432.384 455.283 432.213 454.494 431.872C453.726 431.509 453.064 430.976 452.51 430.272C451.955 429.547 451.528 428.64 451.23 427.552C450.931 426.464 450.782 425.195 450.782 423.744C450.782 420.843 451.358 418.677 452.51 417.248C453.662 415.819 455.187 415.104 457.086 415.104C458.366 415.104 459.39 415.403 460.158 416C460.947 416.597 461.566 417.397 462.014 418.4H462.238V408.32H466.334V432H462.238V429.088ZM458.814 429.12C459.283 429.12 459.72 429.067 460.126 428.96C460.552 428.832 460.915 428.661 461.214 428.448C461.534 428.213 461.779 427.925 461.95 427.584C462.142 427.221 462.238 426.805 462.238 426.336V421.152C462.238 420.683 462.142 420.277 461.95 419.936C461.779 419.573 461.534 419.285 461.214 419.072C460.915 418.837 460.552 418.667 460.126 418.56C459.72 418.432 459.283 418.368 458.814 418.368C457.619 418.368 456.691 418.731 456.03 419.456C455.39 420.181 455.07 421.173 455.07 422.432V425.056C455.07 426.315 455.39 427.307 456.03 428.032C456.691 428.757 457.619 429.12 458.814 429.12Z" fill="#F5A476"/>
<path d="M35.3598 46.4084V43.8404H39.9678V31.9364H39.7518L36.1038 36.2564L34.1358 34.6004L38.2878 29.6564H43.1118V43.8404H46.9038V46.4084H35.3598Z" fill="white"/>
<path d="M46.3758 87.8873H34.5678V84.9593L39.9438 80.3753C40.8398 79.6073 41.5038 78.9113 41.9358 78.2873C42.3678 77.6473 42.5838 76.9673 42.5838 76.2473V76.0073C42.5838 75.2073 42.3598 74.5993 41.9118 74.1833C41.4638 73.7673 40.8398 73.5593 40.0398 73.5593C39.1598 73.5593 38.4878 73.7993 38.0238 74.2793C37.5598 74.7593 37.2238 75.3513 37.0158 76.0553L34.2798 75.0233C34.4558 74.4793 34.7038 73.9593 35.0238 73.4633C35.3598 72.9513 35.7678 72.5033 36.2478 72.1193C36.7438 71.7353 37.3278 71.4313 37.9998 71.2073C38.6718 70.9673 39.4398 70.8473 40.3038 70.8473C41.1998 70.8473 41.9918 70.9753 42.6798 71.2313C43.3838 71.4713 43.9758 71.8153 44.4558 72.2633C44.9358 72.6953 45.2958 73.2153 45.5358 73.8233C45.7918 74.4313 45.9198 75.0953 45.9198 75.8153C45.9198 76.5033 45.8078 77.1353 45.5838 77.7113C45.3758 78.2873 45.0798 78.8393 44.6958 79.3673C44.3118 79.8793 43.8558 80.3753 43.3278 80.8553C42.8158 81.3353 42.2558 81.8153 41.6478 82.2953L37.9998 85.2473H46.3758V87.8873Z" fill="white"/>
<path d="M39.7038 123.396C40.7118 123.396 41.4478 123.196 41.9118 122.796C42.3918 122.396 42.6318 121.892 42.6318 121.284V121.116C42.6318 120.428 42.3998 119.892 41.9358 119.508C41.4878 119.124 40.8638 118.932 40.0638 118.932C39.2958 118.932 38.6238 119.108 38.0478 119.46C37.4718 119.812 36.9758 120.308 36.5598 120.948L34.5198 119.124C34.8078 118.74 35.1278 118.38 35.4798 118.044C35.8478 117.692 36.2558 117.396 36.7038 117.156C37.1678 116.9 37.6798 116.7 38.2398 116.556C38.7998 116.412 39.4398 116.34 40.1598 116.34C41.0078 116.34 41.7838 116.444 42.4878 116.652C43.2078 116.844 43.8158 117.132 44.3118 117.516C44.8238 117.9 45.2158 118.364 45.4878 118.908C45.7758 119.436 45.9198 120.036 45.9198 120.708C45.9198 121.236 45.8318 121.716 45.6558 122.148C45.4798 122.58 45.2398 122.956 44.9358 123.276C44.6478 123.596 44.3038 123.86 43.9038 124.068C43.5198 124.276 43.1038 124.428 42.6558 124.524V124.644C43.1518 124.74 43.6158 124.9 44.0478 125.124C44.4798 125.332 44.8558 125.604 45.1758 125.94C45.4958 126.276 45.7518 126.684 45.9438 127.164C46.1358 127.628 46.2318 128.156 46.2318 128.748C46.2318 129.484 46.0798 130.156 45.7758 130.764C45.4718 131.372 45.0398 131.892 44.4798 132.324C43.9358 132.756 43.2718 133.092 42.4878 133.332C41.7198 133.556 40.8558 133.668 39.8958 133.668C39.0958 133.668 38.3838 133.58 37.7598 133.404C37.1358 133.244 36.5838 133.02 36.1038 132.732C35.6238 132.444 35.2078 132.116 34.8558 131.748C34.5038 131.364 34.1918 130.972 33.9198 130.572L36.2478 128.772C36.6478 129.444 37.1198 129.996 37.6638 130.428C38.2238 130.86 38.9838 131.076 39.9438 131.076C40.9038 131.076 41.6398 130.86 42.1518 130.428C42.6798 129.98 42.9438 129.364 42.9438 128.58V128.388C42.9438 127.62 42.6638 127.036 42.1038 126.636C41.5438 126.22 40.7518 126.012 39.7278 126.012H38.0478V123.396H39.7038Z" fill="white"/>
<path d="M42.965 174.859V171.619H35.213V168.931L42.053 158.107H45.965V169.171H48.221V171.619H45.965V174.859H42.965ZM37.781 169.171H42.965V161.179H42.773L37.781 169.171Z" fill="white"/>
<path d="M48.3422 202.322H40.6622L40.2542 207.938H40.4462C40.6382 207.586 40.8462 207.266 41.0702 206.978C41.2942 206.674 41.5502 206.418 41.8382 206.21C42.1422 206.002 42.4782 205.842 42.8462 205.73C43.2302 205.618 43.6702 205.562 44.1662 205.562C44.8702 205.562 45.5342 205.682 46.1582 205.922C46.7822 206.162 47.3262 206.506 47.7902 206.954C48.2542 207.402 48.6142 207.954 48.8702 208.61C49.1422 209.266 49.2782 210.01 49.2782 210.842C49.2782 211.674 49.1342 212.442 48.8462 213.146C48.5742 213.85 48.1662 214.466 47.6222 214.994C47.0942 215.506 46.4382 215.906 45.6542 216.194C44.8862 216.482 43.9982 216.626 42.9902 216.626C42.2062 216.626 41.5022 216.538 40.8782 216.362C40.2702 216.202 39.7342 215.978 39.2702 215.69C38.8062 215.402 38.3982 215.074 38.0462 214.706C37.6942 214.322 37.3902 213.93 37.1342 213.53L39.4142 211.73C39.6062 212.05 39.8142 212.354 40.0382 212.642C40.2782 212.914 40.5422 213.154 40.8302 213.362C41.1182 213.57 41.4382 213.738 41.7902 213.866C42.1582 213.978 42.5742 214.034 43.0382 214.034C43.9982 214.034 44.7262 213.778 45.2222 213.266C45.7342 212.738 45.9902 212.018 45.9902 211.106V210.914C45.9902 210.034 45.7342 209.346 45.2222 208.85C44.7102 208.354 43.9902 208.106 43.0622 208.106C42.3582 208.106 41.7822 208.242 41.3342 208.514C40.9022 208.77 40.5502 209.05 40.2782 209.354L37.7102 208.994L38.3342 199.586H48.3422V202.322Z" fill="white"/>
<path d="M43.1822 258.105C42.2062 258.105 41.3342 257.953 40.5662 257.649C39.8142 257.329 39.1742 256.889 38.6462 256.329C38.1182 255.753 37.7102 255.065 37.4222 254.265C37.1502 253.449 37.0142 252.537 37.0142 251.529C37.0142 250.329 37.1982 249.201 37.5662 248.145C37.9342 247.073 38.4062 246.097 38.9822 245.217C39.5742 244.321 40.2302 243.521 40.9502 242.817C41.6702 242.113 42.3902 241.529 43.1102 241.065H47.3822C46.3742 241.769 45.4702 242.449 44.6702 243.105C43.8862 243.745 43.1982 244.401 42.6062 245.073C42.0302 245.745 41.5422 246.449 41.1422 247.185C40.7582 247.905 40.4702 248.697 40.2782 249.561L40.4702 249.609C40.6302 249.289 40.8222 248.985 41.0462 248.697C41.2702 248.393 41.5342 248.129 41.8382 247.905C42.1582 247.665 42.5182 247.481 42.9182 247.353C43.3342 247.209 43.8142 247.137 44.3582 247.137C45.0622 247.137 45.7182 247.257 46.3262 247.497C46.9342 247.737 47.4542 248.089 47.8862 248.553C48.3342 249.001 48.6862 249.545 48.9422 250.185C49.1982 250.825 49.3262 251.545 49.3262 252.345C49.3262 253.193 49.1822 253.969 48.8942 254.673C48.6062 255.377 48.1902 255.985 47.6462 256.497C47.1182 257.009 46.4702 257.409 45.7022 257.697C44.9502 257.969 44.1102 258.105 43.1822 258.105ZM43.1582 255.633C44.1182 255.633 44.8462 255.385 45.3422 254.889C45.8382 254.377 46.0862 253.657 46.0862 252.729V252.441C46.0862 251.513 45.8302 250.801 45.3182 250.305C44.8222 249.809 44.1022 249.561 43.1582 249.561C42.2462 249.561 41.5342 249.809 41.0222 250.305C40.5102 250.801 40.2542 251.513 40.2542 252.441V252.729C40.2542 253.657 40.5022 254.377 40.9982 254.889C41.4942 255.385 42.2142 255.633 43.1582 255.633Z" fill="white"/>
<path d="M39.9182 299.296L45.8942 285.112H39.9182V288.184H37.2302V282.544H49.0142V285.28L43.2302 299.296H39.9182Z" fill="white"/>
<path d="M42.95 341.288C41.958 341.288 41.078 341.168 40.31 340.928C39.542 340.672 38.894 340.328 38.366 339.896C37.838 339.464 37.438 338.952 37.166 338.36C36.894 337.768 36.758 337.12 36.758 336.416C36.758 335.312 37.062 334.424 37.67 333.752C38.294 333.08 39.11 332.608 40.118 332.336V332.144C39.254 331.84 38.558 331.368 38.03 330.728C37.518 330.088 37.262 329.28 37.262 328.304C37.262 327.664 37.39 327.08 37.646 326.552C37.902 326.008 38.27 325.544 38.75 325.16C39.23 324.776 39.822 324.48 40.526 324.272C41.23 324.064 42.038 323.96 42.95 323.96C43.862 323.96 44.67 324.064 45.374 324.272C46.078 324.48 46.67 324.776 47.15 325.16C47.63 325.544 47.998 326.008 48.254 326.552C48.51 327.08 48.638 327.664 48.638 328.304C48.638 329.28 48.374 330.088 47.846 330.728C47.334 331.368 46.646 331.84 45.782 332.144V332.336C46.79 332.608 47.598 333.08 48.206 333.752C48.83 334.424 49.142 335.312 49.142 336.416C49.142 337.12 49.006 337.768 48.734 338.36C48.462 338.952 48.062 339.464 47.534 339.896C47.006 340.328 46.358 340.672 45.59 340.928C44.822 341.168 43.942 341.288 42.95 341.288ZM42.95 338.84C43.894 338.84 44.614 338.632 45.11 338.216C45.622 337.784 45.878 337.192 45.878 336.44V335.96C45.878 335.192 45.63 334.6 45.134 334.184C44.638 333.752 43.91 333.536 42.95 333.536C41.99 333.536 41.262 333.752 40.766 334.184C40.27 334.6 40.022 335.192 40.022 335.96V336.44C40.022 337.192 40.27 337.784 40.766 338.216C41.278 338.632 42.006 338.84 42.95 338.84ZM42.95 331.208C43.83 331.208 44.502 331.008 44.966 330.608C45.43 330.208 45.662 329.656 45.662 328.952V328.616C45.662 327.928 45.43 327.392 44.966 327.008C44.502 326.608 43.83 326.408 42.95 326.408C42.07 326.408 41.398 326.608 40.934 327.008C40.47 327.392 40.238 327.928 40.238 328.616V328.952C40.238 329.656 40.47 330.208 40.934 330.608C41.398 331.008 42.07 331.208 42.95 331.208Z" fill="white"/>
<path d="M49.046 371.536C49.046 372.736 48.862 373.872 48.494 374.944C48.126 376 47.646 376.976 47.054 377.872C46.478 378.752 45.83 379.544 45.11 380.248C44.39 380.952 43.67 381.536 42.95 382H38.678C39.686 381.296 40.582 380.624 41.366 379.984C42.166 379.328 42.854 378.664 43.43 377.992C44.022 377.32 44.51 376.624 44.894 375.904C45.294 375.168 45.59 374.368 45.782 373.504L45.59 373.456C45.43 373.776 45.238 374.088 45.014 374.392C44.79 374.696 44.518 374.96 44.198 375.184C43.894 375.408 43.534 375.592 43.118 375.736C42.718 375.864 42.246 375.928 41.702 375.928C40.998 375.928 40.342 375.808 39.734 375.568C39.126 375.328 38.598 374.984 38.15 374.536C37.702 374.072 37.35 373.52 37.094 372.88C36.854 372.24 36.734 371.52 36.734 370.72C36.734 369.872 36.878 369.096 37.166 368.392C37.454 367.688 37.862 367.08 38.39 366.568C38.934 366.056 39.582 365.664 40.334 365.392C41.102 365.104 41.95 364.96 42.878 364.96C43.854 364.96 44.718 365.12 45.47 365.44C46.238 365.744 46.886 366.184 47.414 366.76C47.942 367.32 48.342 368.008 48.614 368.824C48.902 369.624 49.046 370.528 49.046 371.536ZM42.902 373.504C43.814 373.504 44.526 373.256 45.038 372.76C45.55 372.264 45.806 371.552 45.806 370.624V370.336C45.806 369.408 45.558 368.696 45.062 368.2C44.566 367.688 43.846 367.432 42.902 367.432C41.942 367.432 41.214 367.688 40.718 368.2C40.222 368.696 39.974 369.408 39.974 370.336V370.624C39.974 371.552 40.222 372.264 40.718 372.76C41.23 373.256 41.958 373.504 42.902 373.504Z" fill="white"/>
<path d="M37.934 423V420.432H42.542V408.528H42.326L38.678 412.848L36.71 411.192L40.862 406.248H45.686V420.432H49.478V423H37.934ZM57.3406 423.288C56.2526 423.288 55.3086 423.096 54.5086 422.712C53.7086 422.312 53.0446 421.744 52.5166 421.008C52.0046 420.272 51.6206 419.368 51.3646 418.296C51.1246 417.224 51.0046 416 51.0046 414.624C51.0046 413.264 51.1246 412.048 51.3646 410.976C51.6206 409.888 52.0046 408.976 52.5166 408.24C53.0446 407.504 53.7086 406.944 54.5086 406.56C55.3086 406.16 56.2526 405.96 57.3406 405.96C59.5166 405.96 61.1166 406.72 62.1406 408.24C63.1646 409.76 63.6766 411.888 63.6766 414.624C63.6766 417.36 63.1646 419.488 62.1406 421.008C61.1166 422.528 59.5166 423.288 57.3406 423.288ZM57.3406 420.768C58.4926 420.768 59.3006 420.36 59.7646 419.544C60.2446 418.712 60.4846 417.568 60.4846 416.112V413.136C60.4846 411.68 60.2446 410.544 59.7646 409.728C59.3006 408.896 58.4926 408.48 57.3406 408.48C56.1886 408.48 55.3726 408.896 54.8926 409.728C54.4286 410.544 54.1966 411.68 54.1966 413.136V416.112C54.1966 417.568 54.4286 418.712 54.8926 419.544C55.3726 420.36 56.1886 420.768 57.3406 420.768ZM57.3406 416.04C56.7806 416.04 56.3886 415.928 56.1646 415.704C55.9566 415.48 55.8526 415.208 55.8526 414.888V414.36C55.8526 414.04 55.9566 413.768 56.1646 413.544C56.3886 413.32 56.7806 413.208 57.3406 413.208C57.9006 413.208 58.2846 413.32 58.4926 413.544C58.7166 413.768 58.8286 414.04 58.8286 414.36V414.888C58.8286 415.208 58.7166 415.48 58.4926 415.704C58.2846 415.928 57.9006 416.04 57.3406 416.04Z" fill="white"/>
<path d="M37.934 464V461.432H42.542V449.528H42.326L38.678 453.848L36.71 452.192L40.862 447.248H45.686V461.432H49.478V464H37.934ZM52.3246 464V461.432H56.9326V449.528H56.7166L53.0686 453.848L51.1006 452.192L55.2526 447.248H60.0766V461.432H63.8686V464H52.3246Z" fill="white"/>
<path d="M37.934 505V502.432H42.542V490.528H42.326L38.678 494.848L36.71 493.192L40.862 488.248H45.686V502.432H49.478V505H37.934ZM63.3406 505H51.5326V502.072L56.9086 497.488C57.8046 496.72 58.4686 496.024 58.9006 495.4C59.3326 494.76 59.5486 494.08 59.5486 493.36V493.12C59.5486 492.32 59.3246 491.712 58.8766 491.296C58.4286 490.88 57.8046 490.672 57.0046 490.672C56.1246 490.672 55.4526 490.912 54.9886 491.392C54.5246 491.872 54.1886 492.464 53.9806 493.168L51.2446 492.136C51.4206 491.592 51.6686 491.072 51.9886 490.576C52.3246 490.064 52.7326 489.616 53.2126 489.232C53.7086 488.848 54.2926 488.544 54.9646 488.32C55.6366 488.08 56.4046 487.96 57.2686 487.96C58.1646 487.96 58.9566 488.088 59.6446 488.344C60.3486 488.584 60.9406 488.928 61.4206 489.376C61.9006 489.808 62.2606 490.328 62.5006 490.936C62.7566 491.544 62.8846 492.208 62.8846 492.928C62.8846 493.616 62.7726 494.248 62.5486 494.824C62.3406 495.4 62.0446 495.952 61.6606 496.48C61.2766 496.992 60.8206 497.488 60.2926 497.968C59.7806 498.448 59.2206 498.928 58.6126 499.408L54.9646 502.36H63.3406V505Z" fill="white"/>
</svg>
